<svg id="Capa_2" data-name="Capa 2" xmlns="http://www.w3.org/2000/svg" viewBox="0 0 240 270">
  <rect width="240" height="270" opacity="0"/>
  <path d="M138.62248,101.27669h.91014a17.404,17.404,0,0,1,16.83745,18.20265v1.3652c-1.36519,26.39385-30.48944,43.68637-36.86037,45.05156-6.826-1.82026-34.585-21.38811-35.95024-43.68637a20.15658,20.15658,0,0,1,5.00572-15.01718,14.53621,14.53621,0,0,1,10.92159-5.00573,20.24105,20.24105,0,0,1,13.19692,6.37093l7.28107,7.28106,6.37092-7.73612c3.18547-3.64054,7.28107-6.37093,12.2868-6.826m0-9.10133a27.52316,27.52316,0,0,0-19.56785,10.01146A29.26557,29.26557,0,0,0,99.48677,93.0855a23.75587,23.75587,0,0,0-17.74759,7.73612,31.05175,31.05175,0,0,0-7.28106,21.84319c1.82027,28.66918,36.40531,52.33263,44.59651,52.33263h.91013c8.19119,0,43.68637-21.38811,45.50663-53.69783a26.60324,26.60324,0,0,0-24.11851-29.12425h-2.7304Z" fill="#b0b0b0"/>
</svg>
