<svg xmlns="http://www.w3.org/2000/svg" viewBox="0 0 303 136">
  <title>about4_1</title>
  <g id="Livello_2" data-name="Livello 2">
    <g id="Livello_1-2" data-name="Livello 1">
      <rect x="1.5" y="1.5" width="300" height="133" rx="12" fill="#f2f2f2" stroke="#0023f5" stroke-miterlimit="10" stroke-width="3"/>
      <g>
        <path d="M78.76953,77.146a23.56486,23.56486,0,0,1-6.29492-.75879,12.03133,12.03133,0,0,1-4.42969-2.14649,8.966,8.966,0,0,1-2.55664-3.26758,10.72441,10.72441,0,0,1,0-8.39453,8.94937,8.94937,0,0,1,2.5625-3.26757,12.04234,12.04234,0,0,1,4.4375-2.13965,23.78105,23.78105,0,0,1,6.29492-.752q6.15236,0,9.625,2.167a8.022,8.022,0,0,1,3.95118,6.07714H89.00977A5.75925,5.75925,0,0,0,86.01562,60.603a14.36933,14.36933,0,0,0-7.20507-1.49024,18.8889,18.8889,0,0,0-4.96289.58106,8.73243,8.73243,0,0,0-3.36328,1.63379,6.65043,6.65043,0,0,0-1.8379,2.40625,7.43389,7.43389,0,0,0-.5957,3.02148,7.59779,7.59779,0,0,0,.58789,3.042,6.68713,6.68713,0,0,0,1.832,2.42676,8.60127,8.60127,0,0,0,3.34961,1.64746,18.77563,18.77563,0,0,0,4.96289.58106,20.1012,20.1012,0,0,0,4.4375-.4375,9.36837,9.36837,0,0,0,3.13672-1.251,6.3002,6.3002,0,0,0,1.88086-1.87305,5.61218,5.61218,0,0,0,.8125-2.37207h3.34961a7.94719,7.94719,0,0,1-3.80664,6.36426Q85.09863,77.14648,78.76953,77.146Z" fill="#0023f5"/>
        <path d="M116.54492,66.45459a4.49115,4.49115,0,0,1,2.543,1.74316,5.48256,5.48256,0,0,1,.86133,3.17871V76.8042H116.6543V71.56787a3.40073,3.40073,0,0,0-1.09961-2.78906,5.46187,5.46187,0,0,0-3.48047-.90235H98.8125V76.8042H95.50391v-20.043h15.92773a23.84681,23.84681,0,0,1,2.70117.13672,11.16985,11.16985,0,0,1,2.248.49219,5.49774,5.49774,0,0,1,1.77148.93652,4.0034,4.0034,0,0,1,1.10743,1.49707,5.27645,5.27645,0,0,1,.40234,2.13281A4.31822,4.31822,0,0,1,116.54492,66.45459Zm-4.5664-1.23047a6.26422,6.26422,0,0,0,3.22656-.66308,2.42606,2.42606,0,0,0,1.08008-2.249,2.94238,2.94238,0,0,0-.23828-1.23047,2.21724,2.21724,0,0,0-.65626-.84082,3.144,3.144,0,0,0-1.09374-.50586,8.29859,8.29859,0,0,0-1.42969-.25293q-.75147-.06811-1.791-.06836H98.8125v5.81055Z" fill="#0023f5"/>
        <path d="M126.97656,74.09717h19.23633v2.707H123.69531v-20.043h22.40821v2.69336h-19.127v5.75586h18.23828v2.67969H126.97656Z" fill="#0023f5"/>
        <path d="M160.95117,56.76123q6.82178,0,10.53418,2.56348a8.49649,8.49649,0,0,1,3.71192,7.458,8.5,8.5,0,0,1-3.71192,7.45118q-3.71192,2.57079-10.53418,2.57031H149.28906v-20.043Zm0,17.33594q5.332,0,8.08008-1.87305a6.77482,6.77482,0,0,0,0-10.89648q-2.748-1.87281-8.08008-1.873h-8.35351V74.09717Z" fill="#0023f5"/>
        <path d="M178.32812,56.76123h3.3086v20.043h-3.3086Z" fill="#0023f5"/>
        <path d="M196.52539,59.44092H184.49414V56.76123h27.37109v2.67969H199.84766V76.8042h-3.32227Z" fill="#0023f5"/>
        <path d="M226.15234,77.146q-6.37061,0-9.82324-1.87305a6.69158,6.69158,0,0,1-3.72558-5.71484h3.37695a4.54563,4.54563,0,0,0,2.93945,3.6914,18.365,18.365,0,0,0,7.46485,1.2168,19.69293,19.69293,0,0,0,6.78125-.875q2.228-.87451,2.22851-2.748a1.9104,1.9104,0,0,0-.86816-1.71582,7.85861,7.85861,0,0,0-3.05567-.85449q-1.20262-.15015-5.749-.35547-4.54541-.20508-6.52832-.51953a8.58594,8.58594,0,0,1-4.19043-1.59277,4.10312,4.10312,0,0,1-1.3877-3.34278,4.85336,4.85336,0,0,1,2.94629-4.51855q2.9458-1.52418,8.42871-1.52442,6.16554,0,9.47461,1.791a6.39356,6.39356,0,0,1,3.60938,5.31836h-3.39063q-.5874-4.41577-9.92578-4.416-7.77978,0-7.77929,3.11719a1.8719,1.8719,0,0,0,.86132,1.64746,7.61381,7.61381,0,0,0,3.0625.86817q1.38135.178,5.92676.39648,4.54542.219,6.40528.49219a8.16505,8.16505,0,0,1,4.10839,1.54492,4.15231,4.15231,0,0,1,1.40137,3.39062,5.12957,5.12957,0,0,1-.85449,2.95313,6.16313,6.16313,0,0,1-2.49512,2.05078,14.70434,14.70434,0,0,1-3.94433,1.18262A32.05732,32.05732,0,0,1,226.15234,77.146Z" fill="#0023f5"/>
      </g>
    </g>
  </g>
</svg>
