<svg xmlns="http://www.w3.org/2000/svg" viewBox="0 0 303 136">
  <title>about3_1</title>
  <g id="Livello_2" data-name="Livello 2">
    <g id="Livello_1-2" data-name="Livello 1">
      <rect x="1.5" y="1.5" width="300" height="133" rx="12" fill="#f2f2f2" stroke="#0023f5" stroke-miterlimit="10" stroke-width="3"/>
      <g>
        <path d="M123.01855,44.44092H110.9873V41.76123h27.3711v2.67969H126.34082V61.8042h-3.32227Z" fill="#0023f5"/>
        <path d="M141.21582,41.76123h3.30859v8.43555h17.63672V41.76123h3.32227v20.043h-3.32227V52.90381H144.52441V61.8042h-3.30859Z" fill="#0023f5"/>
        <path d="M172.90723,59.09717h19.23632v2.707H169.626v-20.043h22.4082v2.69336H172.90723v5.75586h18.23828v2.67969H172.90723Z" fill="#0023f5"/>
        <path d="M74.36719,67.62305a21.325,21.325,0,0,1,2.78222.16406,10.6907,10.6907,0,0,1,2.33789.57422,5.67784,5.67784,0,0,1,1.832,1.0664,4.54687,4.54687,0,0,1,1.15527,1.69532,6.38321,6.38321,0,0,1,.42383,2.41992,6.17971,6.17971,0,0,1-.62891,2.90527,4.41566,4.41566,0,0,1-1.82519,1.85254,9.00675,9.00675,0,0,1-2.67286.93652,18.57131,18.57131,0,0,1-3.43164.28028H61.14648V87.666H57.83789v-20.043Zm-.06836,9.2832a14.08767,14.08767,0,0,0,2.17383-.14355,5.31328,5.31328,0,0,0,1.60644-.50586,2.38224,2.38224,0,0,0,1.05274-1.02539,3.51164,3.51164,0,0,0,.34863-1.64747A2.68728,2.68728,0,0,0,78.18848,71a8.31672,8.31672,0,0,0-3.88965-.71094H61.14648v6.61719Z" fill="#0023f5"/>
        <path d="M106.85156,77.31641a4.49115,4.49115,0,0,1,2.543,1.74316,5.48252,5.48252,0,0,1,.86133,3.17871V87.666h-3.29492V82.42969a3.39827,3.39827,0,0,0-1.10059-2.78907,5.45686,5.45686,0,0,0-3.47949-.90234H89.11914V87.666H85.81055v-20.043h15.92773a23.81655,23.81655,0,0,1,2.7002.13672,11.16466,11.16466,0,0,1,2.249.49218,5.4824,5.4824,0,0,1,1.77051.93653,3.98253,3.98253,0,0,1,1.10742,1.49707,5.25972,5.25972,0,0,1,.40332,2.13281A4.31822,4.31822,0,0,1,106.85156,77.31641Zm-4.5664-1.23047a6.26906,6.26906,0,0,0,3.22656-.66309,2.428,2.428,0,0,0,1.08008-2.249,2.92683,2.92683,0,0,0-.23926-1.23047,2.19832,2.19832,0,0,0-.65625-.84082,3.13551,3.13551,0,0,0-1.09375-.50586,8.30284,8.30284,0,0,0-1.42871-.25293q-.75292-.06812-1.791-.06836H89.11914v5.81055Z" fill="#0023f5"/>
        <path d="M127.168,88.00781a25.35352,25.35352,0,0,1-5.209-.49219,14.61409,14.61409,0,0,1-3.99218-1.39453,10.01276,10.01276,0,0,1-2.78223-2.19433,8.44782,8.44782,0,0,1-1.66113-2.86426,11.2215,11.2215,0,0,1,0-6.83594,8.45247,8.45247,0,0,1,1.66113-2.86426A10.01294,10.01294,0,0,1,117.9668,69.168a14.61442,14.61442,0,0,1,3.99218-1.39453,25.35352,25.35352,0,0,1,5.209-.49219,23.651,23.651,0,0,1,6.30273.75879,12.10792,12.10792,0,0,1,4.44336,2.14648,9.03881,9.03881,0,0,1,2.57032,3.26075,10.65742,10.65742,0,0,1,0,8.39453,9.03063,9.03063,0,0,1-2.57032,3.26074A12.10022,12.10022,0,0,1,133.4707,87.249,23.651,23.651,0,0,1,127.168,88.00781Zm0-2.69336a19.91455,19.91455,0,0,0,4.16992-.39648,11.06774,11.06774,0,0,0,3.06934-1.08008,7.00824,7.00824,0,0,0,2.03027-1.668,6.23209,6.23209,0,0,0,1.15527-2.09863,8.62023,8.62023,0,0,0,0-4.85352,6.23672,6.23672,0,0,0-1.15527-2.09863,7.01609,7.01609,0,0,0-2.03027-1.668,11.09978,11.09978,0,0,0-3.06934-1.08008,19.94748,19.94748,0,0,0-4.16992-.39648,18.77687,18.77687,0,0,0-5.02442.59473,8.60466,8.60466,0,0,0-3.35644,1.66113,6.63182,6.63182,0,0,0-1.80469,2.41308,8.12895,8.12895,0,0,0,0,6.002,6.62767,6.62767,0,0,0,1.80469,2.41308,8.6048,8.6048,0,0,0,3.35644,1.66114A18.77731,18.77731,0,0,0,127.168,85.31445Z" fill="#0023f5"/>
        <path d="M163.41211,67.62305V78.957q0,9.05127-10.04883,9.05078-4.92187,0-7.47851-2.13965-2.55617-2.1394-2.55665-6.4873h3.29493a5.66848,5.66848,0,0,0,1.63379,4.48437q1.63329,1.43556,5.16113,1.43555,3.48633,0,5.0791-1.49023,1.59228-1.48976,1.59277-4.89453v-11.293Z" fill="#0023f5"/>
        <path d="M170.67188,84.959H189.9082v2.707H167.39062v-20.043h22.40821v2.69336h-19.127v5.75586h18.23828v2.67968H170.67188Z" fill="#0023f5"/>
        <path d="M206.02734,88.00781a23.57238,23.57238,0,0,1-6.29589-.75879,12.0314,12.0314,0,0,1-4.42969-2.14648,8.97631,8.97631,0,0,1-2.55664-3.26758,10.73561,10.73561,0,0,1,0-8.39453,8.95218,8.95218,0,0,1,2.56347-3.26758,12.03779,12.03779,0,0,1,4.43653-2.13965,23.78911,23.78911,0,0,1,6.2959-.75195q6.15234,0,9.625,2.167a8.02457,8.02457,0,0,1,3.95117,6.07715h-3.34961a5.75925,5.75925,0,0,0-2.99414-4.06055,14.36951,14.36951,0,0,0-7.20508-1.49023,18.88935,18.88935,0,0,0-4.96289.58105,8.71859,8.71859,0,0,0-3.36328,1.63379,6.65342,6.65342,0,0,0-1.83887,2.40625,7.43374,7.43374,0,0,0-.59473,3.02149,7.59779,7.59779,0,0,0,.58789,3.042,6.67621,6.67621,0,0,0,1.832,2.42676,8.59446,8.59446,0,0,0,3.3496,1.64746,18.76585,18.76585,0,0,0,4.9629.581,20.09139,20.09139,0,0,0,4.43652-.4375,9.374,9.374,0,0,0,3.13769-1.251,6.28533,6.28533,0,0,0,1.87989-1.873,5.61332,5.61332,0,0,0,.81347-2.37207h3.34961a7.94824,7.94824,0,0,1-3.80761,6.36426Q212.35693,88.00831,206.02734,88.00781Z" fill="#0023f5"/>
        <path d="M232.04492,70.30273H220.01367V67.62305h27.3711v2.67968H235.36719V87.666h-3.32227Z" fill="#0023f5"/>
      </g>
    </g>
  </g>
</svg>
