<svg xmlns="http://www.w3.org/2000/svg" viewBox="0 0 303 136">
  <title>about1_2</title>
  <g id="Livello_2" data-name="Livello 2">
    <g id="Livello_1-2" data-name="Livello 1">
      <rect x="1.5" y="1.5" width="300" height="133" rx="12" fill="#f2f2f2" stroke="#191819" stroke-miterlimit="10" stroke-width="3"/>
      <g>
        <path d="M50.291,59.09717H69.52734v2.707H47.00977v-20.043H69.418v2.69336H50.291v5.75586H68.5293v2.67969H50.291Z"/>
        <path d="M72.60352,41.76123h3.30859V59.09717H94.4375v2.707h-21.834Z"/>
        <path d="M108.69727,62.146q-6.37134,0-9.82325-1.873a6.69066,6.69066,0,0,1-3.72558-5.71484h3.377a4.54563,4.54563,0,0,0,2.93945,3.6914,18.36183,18.36183,0,0,0,7.46485,1.2168,19.69479,19.69479,0,0,0,6.78125-.875q2.228-.87452,2.22851-2.748a1.9104,1.9104,0,0,0-.86816-1.71582,7.85861,7.85861,0,0,0-3.05567-.85449q-1.20336-.15015-5.749-.35547-4.54614-.20508-6.52832-.51953a8.584,8.584,0,0,1-4.19043-1.59277,4.10167,4.10167,0,0,1-1.38769-3.34278,4.85257,4.85257,0,0,1,2.94629-4.51855q2.94579-1.52418,8.42871-1.52442,6.16552,0,9.47461,1.791a6.39355,6.39355,0,0,1,3.60937,5.31836h-3.39062q-.58741-4.41577-9.92579-4.416-7.77978,0-7.77929,3.11719a1.87191,1.87191,0,0,0,.86133,1.64746,7.6137,7.6137,0,0,0,3.0625.86817q1.38061.178,5.92675.39648,4.54542.219,6.40528.49219a8.16513,8.16513,0,0,1,4.1084,1.54492,4.1523,4.1523,0,0,1,1.40136,3.39062,5.1295,5.1295,0,0,1-.85449,2.95313,6.16313,6.16313,0,0,1-2.49512,2.05078,14.70434,14.70434,0,0,1-3.94433,1.18262A32.05728,32.05728,0,0,1,108.69727,62.146Z"/>
        <path d="M147.375,61.8042l-3.34961-5.31836H128.64453l-3.36328,5.31836h-3.5957l12.76953-20.043h3.88281l12.7832,20.043Zm-17.07617-7.957h12.07226l-6.043-9.57031Z"/>
        <path d="M163.74023,50.98975h14.42383V61.8042H175.293l-.01367-3.8418a9.14257,9.14257,0,0,1-4.19727,3.08985,18.64772,18.64772,0,0,1-6.83594,1.09375,22.35422,22.35422,0,0,1-6.11816-.75879,11.69289,11.69289,0,0,1-4.32031-2.13965,8.97746,8.97746,0,0,1-2.502-3.25391,10.76447,10.76447,0,0,1,.03418-8.42187,8.9955,8.9955,0,0,1,2.59766-3.28125,12.16852,12.16852,0,0,1,4.44336-2.126,23.79238,23.79238,0,0,1,6.26172-.74512,19.587,19.587,0,0,1,9.16015,1.84571,7.66606,7.66606,0,0,1,4.22461,5.26367H174.582a5.69343,5.69343,0,0,0-3.17187-3.28125,15.60325,15.60325,0,0,0-6.60352-1.16211,19.58513,19.58513,0,0,0-5.06543.581,8.739,8.739,0,0,0-3.41113,1.64746,6.68765,6.68765,0,0,0-1.85254,2.42676,7.55452,7.55452,0,0,0-.59473,3.05567,7.7,7.7,0,0,0,.58106,3.05566,6.63535,6.63535,0,0,0,1.81836,2.42676,8.60106,8.60106,0,0,0,3.36328,1.6543,18.92053,18.92053,0,0,0,5.01074.58789,20.05943,20.05943,0,0,0,4.46387-.44434,9.50976,9.50976,0,0,0,3.17187-1.27148,6.45669,6.45669,0,0,0,1.9209-1.91407,5.85134,5.85134,0,0,0,.84766-2.4541H163.74023Z"/>
        <path d="M205.83594,61.8042l-3.34961-5.31836H187.10547l-3.36328,5.31836h-3.59571l12.76954-20.043h3.88281l12.7832,20.043Zm-17.07617-7.957H200.832l-6.043-9.57031Z"/>
        <path d="M216.70508,44.44092H204.67383V41.76123h27.37109v2.67969H220.02734V61.8042h-3.32226Z"/>
        <path d="M238.18359,59.09717h19.23633v2.707H234.90234v-20.043h22.40821v2.69336h-19.127v5.75586h18.23829v2.67969H238.18359Z"/>
        <path d="M26.63867,67.62305a21.31982,21.31982,0,0,1,2.78223.16406,10.70466,10.70466,0,0,1,2.33789.57422,5.68294,5.68294,0,0,1,1.832,1.0664,4.54116,4.54116,0,0,1,1.15527,1.69532,6.38321,6.38321,0,0,1,.42383,2.41992,6.17983,6.17983,0,0,1-.6289,2.90527,4.41574,4.41574,0,0,1-1.8252,1.85254,9.00669,9.00669,0,0,1-2.67285.93652,18.56773,18.56773,0,0,1-3.43164.28028H13.418V87.666H10.10938v-20.043Zm-.06836,9.2832a14.08749,14.08749,0,0,0,2.17383-.14355,5.31343,5.31343,0,0,0,1.60645-.50586,2.38473,2.38473,0,0,0,1.05273-1.02539A3.51164,3.51164,0,0,0,31.752,73.584,2.68726,2.68726,0,0,0,30.46,71a8.31669,8.31669,0,0,0-3.88965-.71094H13.418v6.61719Z"/>
        <path d="M38.082,67.62305h3.30859v8.43554H59.02734V67.62305h3.32227V87.666H59.02734v-8.9004H41.39062V87.666H38.082Z"/>
        <path d="M69.77344,84.959H89.00977v2.707H66.49219v-20.043h22.4082v2.69336h-19.127v5.75586H88.01172v2.67968H69.77344Z"/>
        <path d="M113.23633,67.62305h3.21289V87.666h-3.44531L95.29883,71.06836V87.666H92.08594v-20.043h3.81445l17.33594,16.22851Z"/>
        <path d="M133.75781,88.00781a25.35335,25.35335,0,0,1-5.209-.49219,14.614,14.614,0,0,1-3.99219-1.39453,10.01291,10.01291,0,0,1-2.78223-2.19433,8.44782,8.44782,0,0,1-1.66113-2.86426,11.2217,11.2217,0,0,1,0-6.83594,8.45247,8.45247,0,0,1,1.66113-2.86426,10.01309,10.01309,0,0,1,2.78223-2.19433,14.61438,14.61438,0,0,1,3.99219-1.39453,25.35335,25.35335,0,0,1,5.209-.49219,23.65115,23.65115,0,0,1,6.30274.75879,12.108,12.108,0,0,1,4.44336,2.14648,9.03889,9.03889,0,0,1,2.57031,3.26075,10.65731,10.65731,0,0,1,0,8.39453,9.0307,9.0307,0,0,1-2.57031,3.26074,12.1003,12.1003,0,0,1-4.44336,2.14648A23.65115,23.65115,0,0,1,133.75781,88.00781Zm0-2.69336a19.91442,19.91442,0,0,0,4.16992-.39648,11.06774,11.06774,0,0,0,3.06934-1.08008,7.00811,7.00811,0,0,0,2.03027-1.668,6.23212,6.23212,0,0,0,1.15528-2.09863,8.62047,8.62047,0,0,0,0-4.85352,6.23675,6.23675,0,0,0-1.15528-2.09863,7.016,7.016,0,0,0-2.03027-1.668,11.09978,11.09978,0,0,0-3.06934-1.08008,19.94735,19.94735,0,0,0-4.16992-.39648,18.77679,18.77679,0,0,0-5.02441.59473,8.60478,8.60478,0,0,0-3.35645,1.66113,6.63179,6.63179,0,0,0-1.80468,2.41308,8.12895,8.12895,0,0,0,0,6.002,6.62764,6.62764,0,0,0,1.80468,2.41308,8.60492,8.60492,0,0,0,3.35645,1.66114A18.77723,18.77723,0,0,0,133.75781,85.31445Z"/>
        <path d="M176.38672,67.62305h3.77344V87.666h-3.29493V71.92969L165.54492,88.00781l-11.2793-16.06445V87.666h-3.19921v-20.043h3.71875l10.80078,15.35351Z"/>
        <path d="M187.59766,84.959H206.834v2.707H184.31641v-20.043h22.4082v2.69336h-19.127v5.75586h18.23828v2.67968H187.59766Z"/>
        <path d="M231.06055,67.62305h3.21289V87.666h-3.44532L213.12305,71.06836V87.666h-3.21289v-20.043h3.81445l17.33594,16.22851Z"/>
        <path d="M251.582,88.00781a25.35335,25.35335,0,0,1-5.209-.49219,14.614,14.614,0,0,1-3.99219-1.39453,10.01291,10.01291,0,0,1-2.78223-2.19433,8.44782,8.44782,0,0,1-1.66113-2.86426,11.2217,11.2217,0,0,1,0-6.83594,8.45247,8.45247,0,0,1,1.66113-2.86426,10.01309,10.01309,0,0,1,2.78223-2.19433,14.61438,14.61438,0,0,1,3.99219-1.39453,25.35335,25.35335,0,0,1,5.209-.49219,23.65115,23.65115,0,0,1,6.30274.75879,12.10787,12.10787,0,0,1,4.44335,2.14648,9.03881,9.03881,0,0,1,2.57032,3.26075,10.65731,10.65731,0,0,1,0,8.39453,9.03063,9.03063,0,0,1-2.57032,3.26074,12.10017,12.10017,0,0,1-4.44335,2.14648A23.65115,23.65115,0,0,1,251.582,88.00781Zm0-2.69336A19.91448,19.91448,0,0,0,255.752,84.918a11.06774,11.06774,0,0,0,3.06934-1.08008,7.00811,7.00811,0,0,0,2.03027-1.668,6.23229,6.23229,0,0,0,1.15528-2.09863,8.62047,8.62047,0,0,0,0-4.85352,6.23692,6.23692,0,0,0-1.15528-2.09863,7.016,7.016,0,0,0-2.03027-1.668,11.09978,11.09978,0,0,0-3.06934-1.08008,19.94741,19.94741,0,0,0-4.16992-.39648,18.77674,18.77674,0,0,0-5.02441.59473,8.60464,8.60464,0,0,0-3.35645,1.66113,6.63193,6.63193,0,0,0-1.80469,2.41308,8.12908,8.12908,0,0,0,0,6.002,6.62778,6.62778,0,0,0,1.80469,2.41308,8.60478,8.60478,0,0,0,3.35645,1.66114A18.77718,18.77718,0,0,0,251.582,85.31445Z"/>
        <path d="M290.041,67.62305h3.21289V87.666h-3.44532L272.10352,71.06836V87.666h-3.2129v-20.043h3.81446L290.041,83.85156Z"/>
      </g>
    </g>
  </g>
</svg>
