<svg xmlns="http://www.w3.org/2000/svg" viewBox="0 0 303 136">
  <title>about2_1</title>
  <g id="Livello_2" data-name="Livello 2">
    <g id="Livello_1-2" data-name="Livello 1">
      <rect x="1.5" y="1.5" width="300" height="133" rx="12" fill="#f2f2f2" stroke="#191819" stroke-miterlimit="10" stroke-width="3"/>
      <g>
        <path d="M123.01855,44.44092H110.9873V41.76123h27.3711v2.67969H126.34082V61.8042h-3.32227Z"/>
        <path d="M141.21582,41.76123h3.30859v8.43555h17.63672V41.76123h3.32227v20.043h-3.32227V52.90381H144.52441V61.8042h-3.30859Z"/>
        <path d="M172.90723,59.09717h19.23632v2.707H169.626v-20.043h22.4082v2.69336H172.90723v5.75586h18.23828v2.67969H172.90723Z"/>
        <path d="M63.10156,77.31641a4.49115,4.49115,0,0,1,2.543,1.74316,5.48252,5.48252,0,0,1,.86133,3.17871V87.666H63.21094V82.42969a3.39827,3.39827,0,0,0-1.10059-2.78907,5.4578,5.4578,0,0,0-3.47949-.90234H45.36914V87.666H42.06055v-20.043H57.98828a23.82272,23.82272,0,0,1,2.7002.13672,11.16466,11.16466,0,0,1,2.249.49218,5.4824,5.4824,0,0,1,1.77051.93653,3.99278,3.99278,0,0,1,1.10742,1.49707,5.25972,5.25972,0,0,1,.40332,2.13281A4.31822,4.31822,0,0,1,63.10156,77.31641Zm-4.5664-1.23047a6.26786,6.26786,0,0,0,3.22656-.66309,2.428,2.428,0,0,0,1.08008-2.249,2.92683,2.92683,0,0,0-.23926-1.23047,2.20774,2.20774,0,0,0-.65625-.84082,3.13551,3.13551,0,0,0-1.09375-.50586,8.30284,8.30284,0,0,0-1.42871-.25293q-.75221-.06812-1.791-.06836H45.36914v5.81055Z"/>
        <path d="M73.5332,84.959H92.76953v2.707H70.25195v-20.043H92.66016v2.69336H73.5332v5.75586H91.77148v2.67968H73.5332Z"/>
        <path d="M108.0957,88.00781q-6.37134,0-9.82324-1.873a6.69063,6.69063,0,0,1-3.72558-5.71485h3.37695a4.54564,4.54564,0,0,0,2.93945,3.69141,18.362,18.362,0,0,0,7.46484,1.21679,19.69457,19.69457,0,0,0,6.78126-.875q2.228-.8745,2.22851-2.748a1.91039,1.91039,0,0,0-.86816-1.71582,7.85849,7.85849,0,0,0-3.05567-.85449q-1.20336-.15015-5.749-.35547-4.54614-.20508-6.52832-.51953A8.58394,8.58394,0,0,1,96.94629,76.667a4.10167,4.10167,0,0,1-1.3877-3.34277,4.8526,4.8526,0,0,1,2.94629-4.51856q2.9458-1.52416,8.42871-1.52441,6.16554,0,9.47461,1.791a6.39353,6.39353,0,0,1,3.60938,5.31835H116.627q-.5874-4.41576-9.92578-4.416-7.77978,0-7.77929,3.11719a1.87192,1.87192,0,0,0,.86132,1.64746,7.61384,7.61384,0,0,0,3.0625.86816q1.38062.178,5.92676.39649,4.54541.219,6.40527.49218a8.165,8.165,0,0,1,4.1084,1.54493,4.15231,4.15231,0,0,1,1.40137,3.39062,5.12959,5.12959,0,0,1-.85449,2.95313,6.16321,6.16321,0,0,1-2.49512,2.05078,14.70943,14.70943,0,0,1-3.94434,1.18261A32.056,32.056,0,0,1,108.0957,88.00781Z"/>
        <path d="M127.08594,84.959h19.23633v2.707H123.80469v-20.043h22.4082v2.69336H127.08594v5.75586h18.23828v2.67968H127.08594Z"/>
        <path d="M173.0918,87.666l-3.34961-5.31836H154.36133L150.99805,87.666h-3.59571l12.76954-20.043h3.88281l12.7832,20.043Zm-17.07618-7.957h12.07227l-6.043-9.57031Z"/>
        <path d="M200.02539,77.31641a4.49118,4.49118,0,0,1,2.543,1.74316,5.48252,5.48252,0,0,1,.86133,3.17871V87.666h-3.29492V82.42969a3.39827,3.39827,0,0,0-1.10059-2.78907,5.45688,5.45688,0,0,0-3.47949-.90234H182.293V87.666h-3.30859v-20.043h15.92773a23.81624,23.81624,0,0,1,2.70019.13672,11.16461,11.16461,0,0,1,2.249.49218,5.4824,5.4824,0,0,1,1.77051.93653,3.98264,3.98264,0,0,1,1.10742,1.49707,5.25972,5.25972,0,0,1,.40332,2.13281A4.31822,4.31822,0,0,1,200.02539,77.31641ZM195.459,76.08594a6.26666,6.26666,0,0,0,3.22657-.66309,2.428,2.428,0,0,0,1.08007-2.249,2.92684,2.92684,0,0,0-.23925-1.23047,2.19832,2.19832,0,0,0-.65625-.84082,3.13551,3.13551,0,0,0-1.09375-.50586,8.30284,8.30284,0,0,0-1.42871-.25293q-.75147-.06812-1.791-.06836H182.293v5.81055Z"/>
        <path d="M220.30078,88.00781a23.57251,23.57251,0,0,1-6.2959-.75879,12.03135,12.03135,0,0,1-4.42968-2.14648,8.97645,8.97645,0,0,1-2.55665-3.26758,10.73573,10.73573,0,0,1,0-8.39453,8.9522,8.9522,0,0,1,2.56348-3.26758,12.03782,12.03782,0,0,1,4.43652-2.13965,23.78916,23.78916,0,0,1,6.2959-.75195q6.15236,0,9.625,2.167a8.02454,8.02454,0,0,1,3.95117,6.07715H230.541a5.75928,5.75928,0,0,0-2.99414-4.06055,14.36951,14.36951,0,0,0-7.20508-1.49023,18.88935,18.88935,0,0,0-4.96289.58105,8.71871,8.71871,0,0,0-3.36329,1.63379,6.65339,6.65339,0,0,0-1.83886,2.40625,7.43357,7.43357,0,0,0-.59473,3.02149,7.59779,7.59779,0,0,0,.58789,3.042,6.67618,6.67618,0,0,0,1.832,2.42676,8.59451,8.59451,0,0,0,3.34961,1.64746,18.76577,18.76577,0,0,0,4.96289.581,20.09148,20.09148,0,0,0,4.43653-.4375,9.374,9.374,0,0,0,3.13769-1.251,6.28517,6.28517,0,0,0,1.87988-1.873,5.61319,5.61319,0,0,0,.81348-2.37207h3.34961a7.94825,7.94825,0,0,1-3.80762,6.36426Q226.63037,88.00831,220.30078,88.00781Z"/>
        <path d="M237.03516,67.62305h3.30859v8.43554h17.63672V67.62305h3.32226V87.666h-3.32226v-8.9004H240.34375V87.666h-3.30859Z"/>
      </g>
    </g>
  </g>
</svg>
