<svg xmlns="http://www.w3.org/2000/svg" viewBox="0 0 259.99915 144.71958">
  <title>enter_1</title>
  <g id="Livello_2" data-name="Livello 2">
    <g id="Livello_1-2" data-name="Livello 1">
      <ellipse cx="129.99957" cy="72.35979" rx="135.50038" ry="61.40143" transform="translate(-16.23015 44.9245) rotate(-18.47482)" fill="#76fa5a"/>
      <ellipse cx="129.99957" cy="72.35979" rx="119.97429" ry="48.3252" transform="translate(-16.23015 44.9245) rotate(-18.47482)" fill="#76fa5a" stroke="#0023f5" stroke-miterlimit="10"/>
      <g>
        <path d="M65.97215,100.62507l20.11524-6.7207.94629,2.83105-23.54786,7.86719-7.00292-20.96,23.43261-7.8291.94141,2.81689-20.001,6.68262,2.01074,6.019L81.939,84.96l.93555,2.80176L63.80321,94.13435Z" fill="#0023f5"/>
        <path d="M105.36473,67.31062l3.36035-1.12256,7.00293,20.96-3.60254,1.20361L87.812,77.18073l5.79882,17.35694-3.36035,1.12256-7.00293-20.96,3.98926-1.333,23.79785,10.915Z" fill="#0023f5"/>
        <path d="M125.21629,63.79353l-12.58007,4.20361-.93653-2.80273,28.62207-9.563.93555,2.80273L128.6909,62.63288l6.06641,18.15723-3.47363,1.16064Z" fill="#0023f5"/>
        <path d="M152.79832,71.6153l20.11622-6.7207.94531,2.83106L150.313,75.59284l-7.00293-20.96,23.43262-7.8291.94043,2.8169-20,6.68261,2.01074,6.01905,19.07129-6.37207.93653,2.80224-19.07129,6.37207Z" fill="#0023f5"/>
        <path d="M195.46434,48.47566a4.95111,4.95111,0,0,1,3.26856.93457,6.05037,6.05037,0,0,1,2.01074,3.02343l1.89648,5.67627-3.44531,1.15088-1.83008-5.47558a3.74579,3.74579,0,0,0-2.125-2.53223,6.01566,6.01566,0,0,0-3.9541.27246l-13.86719,4.63281,3.11914,9.33594-3.46093,1.15625-7.00293-20.96,16.65722-5.56494a26.40767,26.40767,0,0,1,2.87012-.80029,12.42535,12.42535,0,0,1,2.52539-.27149,6.09321,6.09321,0,0,1,2.17871.36133,4.409,4.409,0,0,1,1.68066,1.17871,5.81025,5.81025,0,0,1,1.167,2.08984A4.76066,4.76066,0,0,1,195.46434,48.47566Zm-5.20508.30908a6.92448,6.92448,0,0,0,3.14258-1.81983,2.67732,2.67732,0,0,0,.34375-2.73046,3.20565,3.20565,0,0,0-.68066-1.20215,2.4366,2.4366,0,0,0-.9795-.65088,3.46865,3.46865,0,0,0-1.32031-.147,9.19408,9.19408,0,0,0-1.583.23535q-.81006.19042-1.89648.55371l-12.82422,4.28515,2.03027,6.07618Z" fill="#0023f5"/>
      </g>
    </g>
  </g>
</svg>
