<svg id="fisso" xmlns="http://www.w3.org/2000/svg" viewBox="0 0 3866.44427 4603.9836">
  <title>griglia</title>
  <g>
    <line y1="46.9818" x2="3866.44427" y2="46.9818" fill="none" stroke="#f2f2f2" stroke-miterlimit="10" stroke-width="0.5"/>
    <line y1="121.9818" x2="3866.44427" y2="121.9818" fill="none" stroke="#f2f2f2" stroke-miterlimit="10" stroke-width="0.5"/>
    <line y1="196.9818" x2="3866.44427" y2="196.9818" fill="none" stroke="#f2f2f2" stroke-miterlimit="10" stroke-width="0.5"/>
    <line y1="271.9818" x2="3866.44427" y2="271.9818" fill="none" stroke="#f2f2f2" stroke-miterlimit="10" stroke-width="0.5"/>
    <line y1="346.9818" x2="3866.44427" y2="346.9818" fill="none" stroke="#f2f2f2" stroke-miterlimit="10" stroke-width="0.5"/>
    <line y1="421.9818" x2="3866.44427" y2="421.9818" fill="none" stroke="#f2f2f2" stroke-miterlimit="10" stroke-width="0.5"/>
    <line y1="496.9818" x2="3866.44427" y2="496.9818" fill="none" stroke="#f2f2f2" stroke-miterlimit="10" stroke-width="0.5"/>
    <line y1="571.9818" x2="3866.44427" y2="571.9818" fill="none" stroke="#f2f2f2" stroke-miterlimit="10" stroke-width="0.5"/>
    <line y1="646.9818" x2="3866.44427" y2="646.9818" fill="none" stroke="#f2f2f2" stroke-miterlimit="10" stroke-width="0.5"/>
    <line y1="721.9818" x2="3866.44427" y2="721.9818" fill="none" stroke="#f2f2f2" stroke-miterlimit="10" stroke-width="0.5"/>
    <line y1="796.9818" x2="3866.44427" y2="796.9818" fill="none" stroke="#f2f2f2" stroke-miterlimit="10" stroke-width="0.5"/>
    <line y1="871.9818" x2="3866.44427" y2="871.9818" fill="none" stroke="#f2f2f2" stroke-miterlimit="10" stroke-width="0.5"/>
    <line y1="946.9818" x2="3866.44427" y2="946.9818" fill="none" stroke="#f2f2f2" stroke-miterlimit="10" stroke-width="0.5"/>
    <line y1="1021.9818" x2="3866.44427" y2="1021.9818" fill="none" stroke="#f2f2f2" stroke-miterlimit="10" stroke-width="0.5"/>
    <line y1="1096.9818" x2="3866.44427" y2="1096.9818" fill="none" stroke="#f2f2f2" stroke-miterlimit="10" stroke-width="0.5"/>
    <line y1="1171.9818" x2="3866.44427" y2="1171.9818" fill="none" stroke="#f2f2f2" stroke-miterlimit="10" stroke-width="0.5"/>
    <line y1="1246.9818" x2="3866.44427" y2="1246.9818" fill="none" stroke="#f2f2f2" stroke-miterlimit="10" stroke-width="0.5"/>
    <line y1="1321.9818" x2="3866.44427" y2="1321.9818" fill="none" stroke="#f2f2f2" stroke-miterlimit="10" stroke-width="0.5"/>
    <line y1="1396.9818" x2="3866.44427" y2="1396.9818" fill="none" stroke="#f2f2f2" stroke-miterlimit="10" stroke-width="0.5"/>
    <line y1="1396.9818" x2="3866.44427" y2="1396.9818" fill="none" stroke="#f2f2f2" stroke-miterlimit="10" stroke-width="0.5"/>
    <line y1="1471.9818" x2="3866.44427" y2="1471.9818" fill="none" stroke="#f2f2f2" stroke-miterlimit="10" stroke-width="0.5"/>
    <line y1="1546.9818" x2="3866.44427" y2="1546.9818" fill="none" stroke="#f2f2f2" stroke-miterlimit="10" stroke-width="0.5"/>
    <line y1="1621.9818" x2="3866.44427" y2="1621.9818" fill="none" stroke="#f2f2f2" stroke-miterlimit="10" stroke-width="0.5"/>
    <line y1="1696.9818" x2="3866.44427" y2="1696.9818" fill="none" stroke="#f2f2f2" stroke-miterlimit="10" stroke-width="0.5"/>
    <line y1="1771.9818" x2="3866.44427" y2="1771.9818" fill="none" stroke="#f2f2f2" stroke-miterlimit="10" stroke-width="0.5"/>
    <line y1="1846.9818" x2="3866.44427" y2="1846.9818" fill="none" stroke="#f2f2f2" stroke-miterlimit="10" stroke-width="0.5"/>
    <line y1="1921.9818" x2="3866.44427" y2="1921.9818" fill="none" stroke="#f2f2f2" stroke-miterlimit="10" stroke-width="0.5"/>
    <line y1="1996.9818" x2="3866.44427" y2="1996.9818" fill="none" stroke="#f2f2f2" stroke-miterlimit="10" stroke-width="0.5"/>
    <line y1="2071.9818" x2="3866.44427" y2="2071.9818" fill="none" stroke="#f2f2f2" stroke-miterlimit="10" stroke-width="0.5"/>
    <line y1="2146.9818" x2="3866.44427" y2="2146.9818" fill="none" stroke="#f2f2f2" stroke-miterlimit="10" stroke-width="0.5"/>
    <line y1="2221.9818" x2="3866.44427" y2="2221.9818" fill="none" stroke="#f2f2f2" stroke-miterlimit="10" stroke-width="0.5"/>
    <line y1="2296.9818" x2="3866.44427" y2="2296.9818" fill="none" stroke="#f2f2f2" stroke-miterlimit="10" stroke-width="0.5"/>
    <line y1="2371.9818" x2="3866.44427" y2="2371.9818" fill="none" stroke="#f2f2f2" stroke-miterlimit="10" stroke-width="0.5"/>
    <line y1="2446.9818" x2="3866.44427" y2="2446.9818" fill="none" stroke="#f2f2f2" stroke-miterlimit="10" stroke-width="0.5"/>
    <line y1="2521.9818" x2="3866.44427" y2="2521.9818" fill="none" stroke="#f2f2f2" stroke-miterlimit="10" stroke-width="0.5"/>
    <line y1="2596.9818" x2="3866.44427" y2="2596.9818" fill="none" stroke="#f2f2f2" stroke-miterlimit="10" stroke-width="0.5"/>
    <line y1="2671.9818" x2="3866.44427" y2="2671.9818" fill="none" stroke="#f2f2f2" stroke-miterlimit="10" stroke-width="0.5"/>
    <line y1="2746.9818" x2="3866.44427" y2="2746.9818" fill="none" stroke="#f2f2f2" stroke-miterlimit="10" stroke-width="0.5"/>
    <line y1="2821.9818" x2="3866.44427" y2="2821.9818" fill="none" stroke="#f2f2f2" stroke-miterlimit="10" stroke-width="0.5"/>
    <line y1="2896.9818" x2="3866.44427" y2="2896.9818" fill="none" stroke="#f2f2f2" stroke-miterlimit="10" stroke-width="0.5"/>
    <line y1="2971.9818" x2="3866.44427" y2="2971.9818" fill="none" stroke="#f2f2f2" stroke-miterlimit="10" stroke-width="0.5"/>
    <line y1="3046.9818" x2="3866.44427" y2="3046.9818" fill="none" stroke="#f2f2f2" stroke-miterlimit="10" stroke-width="0.5"/>
    <line y1="3121.9818" x2="3866.44427" y2="3121.9818" fill="none" stroke="#f2f2f2" stroke-miterlimit="10" stroke-width="0.5"/>
    <line y1="3196.9818" x2="3866.44427" y2="3196.9818" fill="none" stroke="#f2f2f2" stroke-miterlimit="10" stroke-width="0.5"/>
    <line y1="3271.9818" x2="3866.44427" y2="3271.9818" fill="none" stroke="#f2f2f2" stroke-miterlimit="10" stroke-width="0.5"/>
    <line y1="3346.9818" x2="3866.44427" y2="3346.9818" fill="none" stroke="#f2f2f2" stroke-miterlimit="10" stroke-width="0.5"/>
    <line y1="3421.9818" x2="3866.44427" y2="3421.9818" fill="none" stroke="#f2f2f2" stroke-miterlimit="10" stroke-width="0.5"/>
    <line y1="3496.9818" x2="3866.44427" y2="3496.9818" fill="none" stroke="#f2f2f2" stroke-miterlimit="10" stroke-width="0.5"/>
    <line y1="3571.9818" x2="3866.44427" y2="3571.9818" fill="none" stroke="#f2f2f2" stroke-miterlimit="10" stroke-width="0.5"/>
    <line y1="3646.9818" x2="3866.44427" y2="3646.9818" fill="none" stroke="#f2f2f2" stroke-miterlimit="10" stroke-width="0.5"/>
    <line y1="3721.9818" x2="3866.44427" y2="3721.9818" fill="none" stroke="#f2f2f2" stroke-miterlimit="10" stroke-width="0.5"/>
    <line y1="3796.9818" x2="3866.44427" y2="3796.9818" fill="none" stroke="#f2f2f2" stroke-miterlimit="10" stroke-width="0.5"/>
    <line y1="3871.9818" x2="3866.44427" y2="3871.9818" fill="none" stroke="#f2f2f2" stroke-miterlimit="10" stroke-width="0.5"/>
    <line y1="3946.9818" x2="3866.44427" y2="3946.9818" fill="none" stroke="#f2f2f2" stroke-miterlimit="10" stroke-width="0.5"/>
    <line y1="4021.9818" x2="3866.44427" y2="4021.9818" fill="none" stroke="#f2f2f2" stroke-miterlimit="10" stroke-width="0.5"/>
    <line y1="4096.9818" x2="3866.44427" y2="4096.9818" fill="none" stroke="#f2f2f2" stroke-miterlimit="10" stroke-width="0.5"/>
    <line y1="4171.9818" x2="3866.44427" y2="4171.9818" fill="none" stroke="#f2f2f2" stroke-miterlimit="10" stroke-width="0.5"/>
    <line y1="4246.9818" x2="3866.44427" y2="4246.9818" fill="none" stroke="#f2f2f2" stroke-miterlimit="10" stroke-width="0.5"/>
    <line y1="4321.9818" x2="3866.44427" y2="4321.9818" fill="none" stroke="#f2f2f2" stroke-miterlimit="10" stroke-width="0.5"/>
    <line y1="4396.9818" x2="3866.44427" y2="4396.9818" fill="none" stroke="#f2f2f2" stroke-miterlimit="10" stroke-width="0.5"/>
    <line y1="4471.9818" x2="3866.44427" y2="4471.9818" fill="none" stroke="#f2f2f2" stroke-miterlimit="10" stroke-width="0.5"/>
    <line y1="4546.9818" x2="3866.44427" y2="4546.9818" fill="none" stroke="#f2f2f2" stroke-miterlimit="10" stroke-width="0.5"/>
    <line x1="41.44246" y1="4603.97965" x2="41.44246" y2="-0.0034" fill="none" stroke="#f2f2f2" stroke-miterlimit="10" stroke-width="0.5"/>
    <line x1="116.44246" y1="4603.97965" x2="116.44246" y2="-0.0034" fill="none" stroke="#f2f2f2" stroke-miterlimit="10" stroke-width="0.5"/>
    <line x1="191.44246" y1="4603.97965" x2="191.44246" y2="-0.0034" fill="none" stroke="#f2f2f2" stroke-miterlimit="10" stroke-width="0.5"/>
    <line x1="266.44246" y1="4603.97965" x2="266.44246" y2="-0.0034" fill="none" stroke="#f2f2f2" stroke-miterlimit="10" stroke-width="0.5"/>
    <line x1="341.44246" y1="4603.97965" x2="341.44246" y2="-0.0034" fill="none" stroke="#f2f2f2" stroke-miterlimit="10" stroke-width="0.5"/>
    <line x1="416.44246" y1="4603.97965" x2="416.44246" y2="-0.0034" fill="none" stroke="#f2f2f2" stroke-miterlimit="10" stroke-width="0.5"/>
    <line x1="491.44246" y1="4603.97965" x2="491.44246" y2="-0.0034" fill="none" stroke="#f2f2f2" stroke-miterlimit="10" stroke-width="0.5"/>
    <line x1="566.44246" y1="4603.97965" x2="566.44246" y2="-0.0034" fill="none" stroke="#f2f2f2" stroke-miterlimit="10" stroke-width="0.5"/>
    <line x1="641.44246" y1="4603.97965" x2="641.44246" y2="-0.0034" fill="none" stroke="#f2f2f2" stroke-miterlimit="10" stroke-width="0.5"/>
    <line x1="716.44246" y1="4603.97965" x2="716.44246" y2="-0.0034" fill="none" stroke="#f2f2f2" stroke-miterlimit="10" stroke-width="0.5"/>
    <line x1="791.44246" y1="4603.97965" x2="791.44246" y2="-0.0034" fill="none" stroke="#f2f2f2" stroke-miterlimit="10" stroke-width="0.5"/>
    <line x1="866.44246" y1="4603.97965" x2="866.44246" y2="-0.0034" fill="none" stroke="#f2f2f2" stroke-miterlimit="10" stroke-width="0.5"/>
    <line x1="941.44246" y1="4603.97965" x2="941.44246" y2="-0.0034" fill="none" stroke="#f2f2f2" stroke-miterlimit="10" stroke-width="0.5"/>
    <line x1="1016.44246" y1="4603.97965" x2="1016.44246" y2="-0.0034" fill="none" stroke="#f2f2f2" stroke-miterlimit="10" stroke-width="0.5"/>
    <line x1="1091.44246" y1="4603.97965" x2="1091.44246" y2="-0.0034" fill="none" stroke="#f2f2f2" stroke-miterlimit="10" stroke-width="0.5"/>
    <line x1="1166.44246" y1="4603.97965" x2="1166.44246" y2="-0.0034" fill="none" stroke="#f2f2f2" stroke-miterlimit="10" stroke-width="0.5"/>
    <line x1="1241.44246" y1="4603.97965" x2="1241.44246" y2="-0.0034" fill="none" stroke="#f2f2f2" stroke-miterlimit="10" stroke-width="0.5"/>
    <line x1="1316.44246" y1="4603.97965" x2="1316.44246" y2="-0.0034" fill="none" stroke="#f2f2f2" stroke-miterlimit="10" stroke-width="0.5"/>
    <line x1="1391.44246" y1="4603.97965" x2="1391.44246" y2="-0.0034" fill="none" stroke="#f2f2f2" stroke-miterlimit="10" stroke-width="0.5"/>
    <line x1="1466.44246" y1="4603.97965" x2="1466.44246" y2="-0.0034" fill="none" stroke="#f2f2f2" stroke-miterlimit="10" stroke-width="0.5"/>
    <line x1="1541.44246" y1="4603.97965" x2="1541.44246" y2="-0.0034" fill="none" stroke="#f2f2f2" stroke-miterlimit="10" stroke-width="0.5"/>
    <line x1="1616.44246" y1="4603.97965" x2="1616.44246" y2="-0.0034" fill="none" stroke="#f2f2f2" stroke-miterlimit="10" stroke-width="0.5"/>
    <line x1="1691.44246" y1="4603.97965" x2="1691.44246" y2="-0.0034" fill="none" stroke="#f2f2f2" stroke-miterlimit="10" stroke-width="0.5"/>
    <line x1="1766.44246" y1="4603.97965" x2="1766.44246" y2="-0.0034" fill="none" stroke="#f2f2f2" stroke-miterlimit="10" stroke-width="0.5"/>
    <line x1="1841.44246" y1="4603.97965" x2="1841.44246" y2="-0.0034" fill="none" stroke="#f2f2f2" stroke-miterlimit="10" stroke-width="0.5"/>
    <line x1="1916.44246" y1="4603.97965" x2="1916.44246" y2="-0.0034" fill="none" stroke="#f2f2f2" stroke-miterlimit="10" stroke-width="0.5"/>
    <line x1="1991.44246" y1="4603.97965" x2="1991.44246" y2="-0.0034" fill="none" stroke="#f2f2f2" stroke-miterlimit="10" stroke-width="0.5"/>
    <line x1="2066.44246" y1="4603.97965" x2="2066.44246" y2="-0.0034" fill="none" stroke="#f2f2f2" stroke-miterlimit="10" stroke-width="0.5"/>
    <line x1="2141.44246" y1="4603.97965" x2="2141.44246" y2="-0.0034" fill="none" stroke="#f2f2f2" stroke-miterlimit="10" stroke-width="0.5"/>
    <line x1="2216.44246" y1="4603.97965" x2="2216.44246" y2="-0.0034" fill="none" stroke="#f2f2f2" stroke-miterlimit="10" stroke-width="0.5"/>
    <line x1="2291.44246" y1="4603.97965" x2="2291.44246" y2="-0.0034" fill="none" stroke="#f2f2f2" stroke-miterlimit="10" stroke-width="0.5"/>
    <line x1="2366.44246" y1="4603.97965" x2="2366.44246" y2="-0.0034" fill="none" stroke="#f2f2f2" stroke-miterlimit="10" stroke-width="0.5"/>
    <line x1="2441.44246" y1="4603.97965" x2="2441.44246" y2="-0.0034" fill="none" stroke="#f2f2f2" stroke-miterlimit="10" stroke-width="0.5"/>
    <line x1="2516.44246" y1="4603.97965" x2="2516.44246" y2="-0.0034" fill="none" stroke="#f2f2f2" stroke-miterlimit="10" stroke-width="0.5"/>
    <line x1="2591.44246" y1="4603.97965" x2="2591.44246" y2="-0.0034" fill="none" stroke="#f2f2f2" stroke-miterlimit="10" stroke-width="0.5"/>
    <line x1="2666.44246" y1="4603.97965" x2="2666.44246" y2="-0.0034" fill="none" stroke="#f2f2f2" stroke-miterlimit="10" stroke-width="0.5"/>
    <line x1="2741.44246" y1="4603.97965" x2="2741.44246" y2="-0.0034" fill="none" stroke="#f2f2f2" stroke-miterlimit="10" stroke-width="0.5"/>
    <line x1="2816.44246" y1="4603.97965" x2="2816.44246" y2="-0.0034" fill="none" stroke="#f2f2f2" stroke-miterlimit="10" stroke-width="0.5"/>
    <line x1="2891.44246" y1="4603.97965" x2="2891.44246" y2="-0.0034" fill="none" stroke="#f2f2f2" stroke-miterlimit="10" stroke-width="0.5"/>
    <line x1="2966.44246" y1="4603.97965" x2="2966.44246" y2="-0.0034" fill="none" stroke="#f2f2f2" stroke-miterlimit="10" stroke-width="0.5"/>
    <line x1="3041.44246" y1="4603.97965" x2="3041.44246" y2="-0.0034" fill="none" stroke="#f2f2f2" stroke-miterlimit="10" stroke-width="0.5"/>
    <line x1="3116.44246" y1="4603.97965" x2="3116.44246" y2="-0.0034" fill="none" stroke="#f2f2f2" stroke-miterlimit="10" stroke-width="0.5"/>
    <line x1="3191.44246" y1="4603.97965" x2="3191.44246" y2="-0.0034" fill="none" stroke="#f2f2f2" stroke-miterlimit="10" stroke-width="0.5"/>
    <line x1="3266.44246" y1="4603.97965" x2="3266.44246" y2="-0.0034" fill="none" stroke="#f2f2f2" stroke-miterlimit="10" stroke-width="0.5"/>
    <line x1="3341.44246" y1="4603.97965" x2="3341.44246" y2="-0.0034" fill="none" stroke="#f2f2f2" stroke-miterlimit="10" stroke-width="0.5"/>
    <line x1="3416.44246" y1="4603.97965" x2="3416.44246" y2="-0.0034" fill="none" stroke="#f2f2f2" stroke-miterlimit="10" stroke-width="0.5"/>
    <line x1="3491.44246" y1="4603.97965" x2="3491.44246" y2="-0.0034" fill="none" stroke="#f2f2f2" stroke-miterlimit="10" stroke-width="0.5"/>
    <line x1="3566.44246" y1="4603.97965" x2="3566.44246" y2="-0.0034" fill="none" stroke="#f2f2f2" stroke-miterlimit="10" stroke-width="0.5"/>
    <line x1="3641.44246" y1="4603.97965" x2="3641.44246" y2="-0.0034" fill="none" stroke="#f2f2f2" stroke-miterlimit="10" stroke-width="0.5"/>
    <line x1="3716.44246" y1="4603.97965" x2="3716.44246" y2="-0.0034" fill="none" stroke="#f2f2f2" stroke-miterlimit="10" stroke-width="0.5"/>
    <line x1="3791.44246" y1="4603.97965" x2="3791.44246" y2="-0.0034" fill="none" stroke="#f2f2f2" stroke-miterlimit="10" stroke-width="0.5"/>
    <line x1="3866.44246" y1="4603.97965" x2="3866.44246" y2="-0.0034" fill="none" stroke="#f2f2f2" stroke-miterlimit="10" stroke-width="0.5"/>
  </g>
</svg>
