<svg xmlns="http://www.w3.org/2000/svg" viewBox="0 0 193.6548 193.39904">
  <title>stsexual</title>
  <g id="Livello_2" data-name="Livello 2">
    <g id="Modalità_Isolamento" data-name="Modalità Isolamento">
      <path d="M120.42949.48578,103.25242,11.69445a12.079,12.079,0,0,1-13.33173-.08588L73.43518.54576a2.98494,2.98494,0,0,0-4.31166,1.10163L59.76733,19.64275a12.079,12.079,0,0,1-11.33221,6.49134L28.50809,25.118a2.98494,2.98494,0,0,0-3.13153,3.16079l1.183,19.61183a12.079,12.079,0,0,1-6.4459,11.4239L1.79687,68.92311A2.98494,2.98494,0,0,0,.67048,73.1772L11.62035,90.26037a12.079,12.079,0,0,1-.02429,13.07432L.47821,120.53888a2.98494,2.98494,0,0,0,.801,4.06947L17.92608,136.203a12.07907,12.07907,0,0,1,5.12609,8.82123l1.85994,20.51682a2.98493,2.98493,0,0,0,3.1758,2.70853l20.14182-1.37335a12.07905,12.07905,0,0,1,11.58148,6.56193l9.33219,18.2929a2.98494,2.98494,0,0,0,4.308,1.13161l16.52612-10.9532a12.07906,12.07906,0,0,1,13.21668-.08472l17.21943,11.09765a2.98493,2.98493,0,0,0,4.27547-1.15162l9.36241-18.33636a12.07905,12.07905,0,0,1,11.5799-6.55816l19.6622,1.34119a2.98494,2.98494,0,0,0,3.18291-3.15351l-1.17643-19.97589a12.079,12.079,0,0,1,6.60593-11.48867l18.07292-9.142a2.985,2.985,0,0,0,1.16022-4.28283l-10.87659-16.84326a12.07906,12.07906,0,0,1-.02428-13.0675l10.94453-17.08742a2.98494,2.98494,0,0,0-1.12644-4.253l-18.31118-9.61a12.07906,12.07906,0,0,1-6.44425-11.418l1.17539-19.61785a2.98494,2.98494,0,0,0-3.13167-3.15958L145.426,26.13407a12.079,12.079,0,0,1-11.3305-6.48755L124.70859,1.6077A2.98493,2.98493,0,0,0,120.42949.48578Z" fill="#0023f5"/>
    </g>
  </g>
</svg>
