<svg xmlns="http://www.w3.org/2000/svg" viewBox="0 0 263.2771 263.28938">
  <g id="Livello_2" data-name="Livello 2">
    <g id="Modalità_Isolamento" data-name="Modalità Isolamento">
      <g>
        <polygon points="223.918 79.045 184.289 39.416 130.154 24.911 76.02 39.416 36.391 79.045 21.886 133.18 36.391 187.314 76.02 226.943 130.154 241.448 184.289 226.943 223.918 187.314 238.423 133.18 223.918 79.045" fill="#f2f2f2" stroke="#0023f5" stroke-miterlimit="10" stroke-width="0.75"/>
        <path d="M166.76435.54507,143.724,15.57974a22.69811,22.69811,0,0,1-25.05206-.16138L96.50818.54507,83.87282,24.84746a22.69813,22.69813,0,0,1-21.2947,12.19806L35.66455,35.67315,37.261,62.13892a22.69809,22.69809,0,0,1-12.11269,21.467L.53647,96.51678l14.72487,22.97264a22.69813,22.69813,0,0,1-.04565,24.56835L.53647,166.773l22.93032,15.97117a22.69814,22.69814,0,0,1,9.63259,16.57624l2.56517,28.29621,26.52762-1.80876a22.69812,22.69812,0,0,1,21.76311,12.33072l12.5529,24.60613,22.27051-14.76048a22.69812,22.69812,0,0,1,24.83586-.1592l23.1498,14.91968,12.5673-24.61316a22.69812,22.69812,0,0,1,21.76013-12.32364l26.5162,1.80871-1.58785-26.96168a22.69812,22.69812,0,0,1,12.41341-21.58871L262.73606,166.773l-14.67252-22.72156a22.69811,22.69811,0,0,1-.04561-24.55554l14.71813-22.97907L238.13134,83.6039A22.69812,22.69812,0,0,1,226.02176,62.148L227.608,35.67315l-26.90223,1.37234a22.69811,22.69811,0,0,1-21.29148-12.191Z" fill="#f2f2f2" stroke="#0023f5" stroke-miterlimit="10" stroke-width="0.75"/>
        <g>
          <path d="M48.06756,133.43327a7.21121,7.21121,0,0,1,5.248-.08691,5.54881,5.54881,0,0,1,3.02735,3.55175l2.18554,6.54151-2.60546.8706-2.10157-6.28711a3.8785,3.8785,0,0,0-1.96-2.42089,4.80255,4.80255,0,0,0-3.60742.085,5.8303,5.8303,0,0,0-3.34668,2.38672,3.94153,3.94153,0,0,0-.32812,3.41015l1.98828,5.95117-2.60547.87061-2.09961-6.28711a3.89319,3.89319,0,0,0-1.95508-2.42236,4.7761,4.7761,0,0,0-3.60156.083,5.70509,5.70509,0,0,0-3.34082,2.44239,4.131,4.131,0,0,0-.31055,3.501l1.94238,5.8125-2.6289.87793L28.007,140.45768l2.54687-.85107.78907,2.32324a5.889,5.889,0,0,1,1.66406-2.686,8.52057,8.52057,0,0,1,3.251-1.86524,8.11221,8.11221,0,0,1,3.77636-.44433,4.94789,4.94789,0,0,1,2.81739,1.38183,5.84791,5.84791,0,0,1,1.70019-2.86523A9.10945,9.10945,0,0,1,48.06756,133.43327Z" fill="#0023f5"/>
          <path d="M69.91326,139.9572q-4.31836,1.44286-7.166.54736a5.98281,5.98281,0,0,1-3.04492-9.11231q1.73731-2.42577,6.05567-3.86962,4.33006-1.44654,7.17773-.55127a5.9812,5.9812,0,0,1,3.04492,9.1123Q74.24187,138.51018,69.91326,139.9572Zm-.666-1.99121a8.28264,8.28264,0,0,0,4.33692-2.71729,4.11657,4.11657,0,0,0-2.06153-6.16992,8.275,8.275,0,0,0-5.0996.43555,8.28023,8.28023,0,0,0-4.33008,2.71484,4.10743,4.10743,0,0,0,2.06152,6.17041A8.28685,8.28685,0,0,0,69.24724,137.966Z" fill="#0023f5"/>
          <path d="M85.18963,121.35222l1.81738-.60743.708,2.11866-1.96778.65771a7.44615,7.44615,0,0,0-2.24609,1.15576,4.28905,4.28905,0,0,0-1.75586,3.31494,5.17644,5.17644,0,0,0,.27734,1.87012l1.72071,5.15235-2.627.87792-3.96093-11.85546,2.54687-.85108.95508,2.82129a5.40113,5.40113,0,0,1,1.43945-2.77783A7.35414,7.35414,0,0,1,85.18963,121.35222Z" fill="#0023f5"/>
          <path d="M104.72771,123.39616l2.67383-.89355a4.73952,4.73952,0,0,1-1.38867,4.08691,13.28,13.28,0,0,1-5.61719,3.18262q-4.3872,1.46631-7.11328.58789a6.26927,6.26927,0,0,1-3.0791-9.21582q1.65087-2.34083,5.99219-3.791,4.16748-1.39233,6.85644-.5664a5.47144,5.47144,0,0,1,3.67676,3.77832l.19726.59082-14.56542,4.86621a4.16116,4.16116,0,0,0,.92578,1.46,3.65884,3.65884,0,0,0,1.46093.86426,5.37405,5.37405,0,0,0,2.16016.17236,13.19452,13.19452,0,0,0,2.91211-.66455Q104.926,126.14909,104.72771,123.39616Zm-7.91015-4.17871q-5.34815,1.78712-4.94434,5.07568l11.79785-3.94189a3.28673,3.28673,0,0,0-2.42383-1.74463A9.24818,9.24818,0,0,0,96.81756,119.21745Z" fill="#0023f5"/>
          <path d="M115.74529,113.42155l-2.81348.93945-.68457-2.04882,2.8125-.93994-.78515-2.3501q-.92432-2.76709,2.41015-3.88086l2.47754-.82813.68067,2.0376-1.92188.64209a1.47257,1.47257,0,0,0-.90039.61621,1.24224,1.24224,0,0,0,.00293.9707l.6416,1.92188,3.24219-1.083.68555,2.04932-3.24219,1.083,3.27539,9.80664-2.60547.8706Z" fill="#0023f5"/>
          <path d="M130.7824,106.11882l1.81836-.60742.708,2.11914-1.96778.65722a7.44615,7.44615,0,0,0-2.24609,1.15576,4.44913,4.44913,0,0,0-1.30859,1.55079,4.49836,4.49836,0,0,0-.44825,1.76416,5.18038,5.18038,0,0,0,.27832,1.8706l1.72071,5.15235-2.627.87792-3.96093-11.856,2.54687-.85108.95508,2.82178a5.40072,5.40072,0,0,1,1.43945-2.77832A7.35655,7.35655,0,0,1,130.7824,106.11882Z" fill="#0023f5"/>
          <path d="M141.465,102.22819q4.01807-1.3418,6.2373-.72656a4.31723,4.31723,0,0,1,3.02539,3.02441l2.43653,7.29493-2.52442.84277-.8125-2.39258a6.79152,6.79152,0,0,1-2.2539,2.90234,13.34976,13.34976,0,0,1-4.25879,2.25928,9.41853,9.41853,0,0,1-4.80762.57666,3.1853,3.1853,0,0,1-2.49609-2.2539,3.04366,3.04366,0,0,1,.2832-2.73389,7.81692,7.81692,0,0,1,2.73926-2.35693,55.96486,55.96486,0,0,1,8.84472-3.91993,2.55261,2.55261,0,0,0-1.043-1.06054,3.64721,3.64721,0,0,0-1.83593-.294,10.737,10.737,0,0,0-2.877.61328,9.86309,9.86309,0,0,0-3.58691,1.8418,2.45429,2.45429,0,0,0-.834,2.26074l-2.66309.89014a4.05393,4.05393,0,0,1,1.09375-3.85352A13.07658,13.07658,0,0,1,141.465,102.22819ZM143.16326,113.36a12.41053,12.41053,0,0,0,3.32227-1.65039,6.46832,6.46832,0,0,0,2.02929-2.19092,2.81008,2.81008,0,0,0,.25293-2.26514l-.30957-.92675a56.52165,56.52165,0,0,0-7.55176,3.35937,6.47382,6.47382,0,0,0-1.96777,1.52686,1.57711,1.57711,0,0,0-.292,1.53271Q139.28386,114.65593,143.16326,113.36Z" fill="#0023f5"/>
          <path d="M172.47088,91.86882a7.20858,7.20858,0,0,1,5.248-.08692,5.54213,5.54213,0,0,1,3.02637,3.55176l2.18555,6.54151-2.60352.87011-2.10156-6.28711a3.87572,3.87572,0,0,0-1.96094-2.42041,4.79771,4.79771,0,0,0-3.60644.085,5.82279,5.82279,0,0,0-3.34668,2.38672,3.93828,3.93828,0,0,0-.32813,3.41016l1.98828,5.95117-2.60449.87012-2.10058-6.28711a3.89144,3.89144,0,0,0-1.95508-2.42236,4.77892,4.77892,0,0,0-3.60157.08349,5.70664,5.70664,0,0,0-3.34179,2.44238,4.13452,4.13452,0,0,0-.31055,3.501l1.94238,5.8125-2.62793.87793-3.96093-11.856,2.54687-.85107.78906,2.32324a5.89028,5.89028,0,0,1,1.66407-2.68555,8.51,8.51,0,0,1,3.25-1.86523,8.10469,8.10469,0,0,1,3.77734-.44434,4.94479,4.94479,0,0,1,2.81738,1.38184,5.84061,5.84061,0,0,1,1.7002-2.86523A9.1121,9.1121,0,0,1,172.47088,91.86882Z" fill="#0023f5"/>
          <path d="M198.507,92.06315l2.6748-.89355a4.74167,4.74167,0,0,1-1.38964,4.0874,13.2807,13.2807,0,0,1-5.61622,3.18262q-4.3872,1.46557-7.11425.5874a6.27085,6.27085,0,0,1-3.0791-9.21582q1.65234-2.34009,5.99218-3.791,4.16895-1.39233,6.8584-.56591A5.47314,5.47314,0,0,1,200.509,89.2321l.19727.59082L186.1408,94.68913a4.14565,4.14565,0,0,0,.9248,1.46,3.66671,3.66671,0,0,0,1.46094.86426,5.37171,5.37171,0,0,0,2.16113.17236,13.19464,13.19464,0,0,0,2.91309-.66406Q198.70574,94.81584,198.507,92.06315Zm-7.90918-4.17871q-5.34814,1.78712-4.94531,5.07617l11.79883-3.94238a3.28665,3.28665,0,0,0-2.42481-1.74414A9.23577,9.23577,0,0,0,190.59783,87.88444Z" fill="#0023f5"/>
          <path d="M212.70037,92.25065q-8.37012,2.79565-10.17578-1.52929l2.61719-.87452q1.18212,2.46168,7.13378.47413,5.03615-1.68311,4.40918-3.5586a1.05484,1.05484,0,0,0-.80175-.74219,5.19942,5.19942,0,0,0-2.01661.165q-.709.148-3.51074.89551-2.79784.75-4.17676.97754a5.89391,5.89391,0,0,1-2.98046-.07861,2.619,2.619,0,0,1-1.53711-1.771,3.11724,3.11724,0,0,1,.958-3.37012,12.88151,12.88151,0,0,1,5.02442-2.72168,14.48616,14.48616,0,0,1,6.37793-.95947,3.86061,3.86061,0,0,1,3.27637,2.355l-2.62793.87793q-1.09278-2.19581-6.55762-.37012-4.43554,1.4817-3.90039,3.07911a1.03813,1.03813,0,0,0,.791.71386,5.15565,5.15565,0,0,0,1.999-.14062q.78369-.1582,3.61132-.92285,2.82569-.76392,4.1045-.98535a5.95247,5.95247,0,0,1,2.94629.07666,2.6256,2.6256,0,0,1,1.5791,1.79638,3.09975,3.09975,0,0,1-.22071,2.57715,6.29972,6.29972,0,0,1-2.26367,2.2168A19.20208,19.20208,0,0,1,212.70037,92.25065Z" fill="#0023f5"/>
          <path d="M89.99138,140.57536l-.89355-2.67432,2.83691-.94824.89356,2.67481ZM94.76873,154.526l-3.96094-11.85546,2.62793-.87793,3.96094,11.85546Z" fill="#0023f5"/>
          <path d="M105.6574,137.38737a8.23792,8.23792,0,0,1,5.62793-.21972,5.31776,5.31776,0,0,1,3.16406,3.499l2.18946,6.55273-2.61719.874-2.08887-6.252a3.67735,3.67735,0,0,0-2.11426-2.40185,5.96693,5.96693,0,0,0-4.0664.23291,9.28646,9.28646,0,0,0-2.46582,1.20947,5.32862,5.32862,0,0,0-1.52539,1.57813,4.42684,4.42684,0,0,0-.61329,1.769,4.23244,4.23244,0,0,0,.20411,1.84277l1.87988,5.627-2.62793.87793-3.96094-11.85547,2.54688-.85157.83886,2.47413A6.26442,6.26442,0,0,1,101.924,139.465,10.32073,10.32073,0,0,1,105.6574,137.38737Z" fill="#0023f5"/>
          <path d="M133.49724,141.58659l-2.3623.78906a3.99462,3.99462,0,0,1-2.87988.10694,3.2114,3.2114,0,0,1-1.627-2.07617l-2.23535-6.6919-2.79.93213-.68066-2.0376,2.79-.93213-1.15332-3.45019,2.04785-2.5376,1.71,5.11768,3.21973-1.07569.68066,2.0376-3.21973,1.07568,2.09668,6.27539a1.70429,1.70429,0,0,0,.72657,1.0376,1.82847,1.82847,0,0,0,1.375-.06689l1.62109-.54151Z" fill="#0023f5"/>
          <path d="M140.86638,125.6237a8.23793,8.23793,0,0,1,5.62793-.21973,5.32014,5.32014,0,0,1,3.16407,3.499l2.18945,6.55273-2.61719.874-2.08886-6.25195a3.67738,3.67738,0,0,0-2.11426-2.40185,5.96973,5.96973,0,0,0-4.06739.23291,9.28,9.28,0,0,0-2.46484,1.21,5.33822,5.33822,0,0,0-1.52637,1.57763,4.425,4.425,0,0,0-.6123,1.769,4.23258,4.23258,0,0,0,.2041,1.84277l1.87988,5.62695-2.62793.87793-5.67089-16.97363,2.62792-.87793,2.50684,7.50293a6.36186,6.36186,0,0,1,1.91309-2.80762A10.32285,10.32285,0,0,1,140.86638,125.6237Z" fill="#0023f5"/>
          <path d="M167.41326,125.64811l2.67383-.89355a4.74,4.74,0,0,1-1.38867,4.08691,13.2851,13.2851,0,0,1-5.61719,3.18262q-4.38722,1.46631-7.11426.58789a6.27087,6.27087,0,0,1-3.0791-9.21582q1.65234-2.34082,5.99316-3.791,4.16748-1.39308,6.85645-.5669a5.47094,5.47094,0,0,1,3.67578,3.77881l.19727.58984-14.56446,4.86621a4.15631,4.15631,0,0,0,.92578,1.46094,3.65529,3.65529,0,0,0,1.46.86377,5.363,5.363,0,0,0,2.16114.17236,13.1668,13.1668,0,0,0,2.91211-.66455Q167.6115,128.39983,167.41326,125.64811Zm-7.91016-4.17871q-5.3496,1.78712-4.94531,5.0752l11.79883-3.94141a3.28662,3.28662,0,0,0-2.42383-1.74511A9.24947,9.24947,0,0,0,159.5031,121.4694Z" fill="#0023f5"/>
          <path d="M86.1906,180.58757l-4.34179-3.55615-13.02442,4.352-1.34375,5.45507-3.04492,1.01758,5.14258-20.58594,3.28808-1.09863L89.36345,179.528Zm-16.71191-1.90674,10.22363-3.41553-7.82617-6.39453Z" fill="#0023f5"/>
          <path d="M106.07049,164.2028a4.00949,4.00949,0,0,1,2.64648.75684,4.88493,4.88493,0,0,1,1.62891,2.44824l1.53613,4.59619-2.79.93213-1.48144-4.43408a3.03175,3.03175,0,0,0-1.72266-2.05029,4.87092,4.87092,0,0,0-3.20117.22021l-11.23047,3.75244,2.52637,7.56006-2.80274.936L85.509,161.94743l13.48828-4.50635a21.30216,21.30216,0,0,1,2.3252-.64843,10.025,10.025,0,0,1,2.04492-.21973,4.8875,4.8875,0,0,1,1.76367.29248,3.572,3.572,0,0,1,1.36231.95459,4.7372,4.7372,0,0,1,.94531,1.69189A3.857,3.857,0,0,1,106.07049,164.2028Zm-4.21582.25049a5.59,5.59,0,0,0,2.54492-1.4751,2.16661,2.16661,0,0,0,.27929-2.21,2.61853,2.61853,0,0,0-.55175-.97412,1.97425,1.97425,0,0,0-.79395-.52686,2.77228,2.77228,0,0,0-1.06836-.11816,7.38134,7.38134,0,0,0-1.28125.18945q-.65625.15528-1.53613.44873L89.0617,163.25749l1.64453,4.9209Z" fill="#0023f5"/>
          <path d="M126.2658,167.52018a21.05764,21.05764,0,0,1-5.5459,1.13868,10.73845,10.73845,0,0,1-4.35937-.56446,8.03054,8.03054,0,0,1-3.08985-2.043,9.58842,9.58842,0,0,1-2.375-7.10937,7.99679,7.99679,0,0,1,1.2461-3.49268,10.72835,10.72835,0,0,1,3.15234-3.06689,21.23835,21.23835,0,0,1,5.11816-2.418q5.21046-1.74169,8.76367-.88818a7.16472,7.16472,0,0,1,5.06641,4.02783l-2.83691.94824a5.13951,5.13951,0,0,0-3.68457-2.5918,12.8279,12.8279,0,0,0-6.52246.77686,16.84455,16.84455,0,0,0-4.03907,1.896,7.778,7.778,0,0,0-2.38574,2.33545,5.94136,5.94136,0,0,0-.876,2.55761,6.62808,6.62808,0,0,0,.35059,2.727,6.77789,6.77789,0,0,0,1.35938,2.41016,5.96483,5.96483,0,0,0,2.2373,1.53662,7.69007,7.69007,0,0,0,3.30273.44775,16.82036,16.82036,0,0,0,4.36719-.91211,17.97207,17.97207,0,0,0,3.63379-1.62646,8.36752,8.36752,0,0,0,2.30274-1.94727,5.60748,5.60748,0,0,0,1.06152-2.11767,5.01812,5.01812,0,0,0,.01855-2.23926l2.83594-.94726a7.09668,7.09668,0,0,1-1.42383,6.46679Q131.62615,165.72967,126.2658,167.52018Z" fill="#0023f5"/>
          <path d="M134.66912,145.52263l2.80176-.936,2.38672,7.14356,14.93554-4.99024-2.38672-7.14355,2.81348-.93994,5.6709,16.97314-2.81348.93994-2.51855-7.53711-14.93457,4.99024,2.51758,7.53711-2.80176.936Z" fill="#0023f5"/>
          <path d="M158.72771,137.48405l2.80176-.93555,5.6709,16.97266-2.80176.93652Z" fill="#0023f5"/>
          <path d="M184.47674,128.88151l3.09082-1.0332-4.78321,20.46631-3.2998,1.103-16.125-13.48047,3.18262-1.06348,13.89843,11.74023Z" fill="#0023f5"/>
          <path d="M197.06951,140.99333l16.291-5.44287.76562,2.293-19.06934,6.37109-5.67089-16.97363,18.97656-6.33985.76172,2.28028-16.19727,5.41211,1.62891,4.87451,15.44433-5.16016.75879,2.269L195.31365,135.737Z" fill="#0023f5"/>
        </g>
      </g>
    </g>
  </g>
</svg>
