<?xml version="1.0" encoding="utf-8"?>
<!-- Generator: Adobe Illustrator 24.1.0, SVG Export Plug-In . SVG Version: 6.00 Build 0)  -->
<svg version="1.1" id="图层_1" xmlns="http://www.w3.org/2000/svg" xmlns:xlink="http://www.w3.org/1999/xlink" x="0px" y="0px"
	 viewBox="0 0 834.07 267.96" style="enable-background:new 0 0 834.07 267.96;" xml:space="preserve">
<style type="text/css">
	.st0{fill:#DBDCDC;}
	.st1{fill:#646364;}
	.st2{fill:#3E3A39;}
	.st3{opacity:0.5;fill:#FFFFFF;enable-background:new    ;}
	.st4{fill:#FFFFFF;}
	.st5{font-family:'HelveticaNeue';}
	.st6{font-size:14px;}
	.st7{fill:#888888;}
	.st8{fill:#231815;}
	.st9{font-family:'HelveticaNeue-Bold';}
	.st10{font-size:12px;}
</style>
<g id="背景">
	<rect width="833.9" height="267.96"/>
</g>
<rect x="107.02" y="63.31" class="st0" width="101.28" height="11.9"/>
<rect x="208.31" y="63.31" class="st1" width="22.23" height="11.9"/>
<rect x="193.48" y="126.28" class="st2" width="37.05" height="11.9"/>
<rect x="107.02" y="126.27" class="st0" width="86.45" height="11.9"/>
<rect x="106.89" y="189.24" class="st0" width="86.55" height="11.9"/>
<rect x="193.44" y="189.24" class="st2" width="37.09" height="11.9"/>
<rect x="199.82" y="252.2" class="st2" width="30.97" height="11.9"/>
<rect x="106.89" y="252.2" class="st0" width="92.92" height="11.9"/>
<rect x="705.32" y="63.31" class="st3" width="73.57" height="12.03"/>
<rect x="778.88" y="63.31" class="st2" width="55.18" height="12.03"/>
<rect x="418.51" y="188.71" class="st2" width="114.02" height="12.44"/>
<rect x="403.32" y="188.72" class="st0" width="15.2" height="12.44"/>
<rect x="705.31" y="125.94" class="st2" width="128.75" height="12.44"/>
<rect x="403.3" y="125.88" class="st2" width="129.49" height="12.44"/>
<text transform="matrix(1 0 0 1 0 72.01)" class="st4 st5 st6">China</text>
<text transform="matrix(1 0 0 1 0 135.01)" class="st4 st5 st6">Singapo</text>
<text transform="matrix(1 0 0 1 51.86 135.01)" class="st4 st5 st6">r</text>
<text transform="matrix(1 0 0 1 56.27 135.01)" class="st4 st5 st6">e</text>
<text transform="matrix(1 0 0 1 0 198.01)" class="st4 st5 st6">India</text>
<text transform="matrix(1 0 0 1 0 261.01)" class="st4 st5 st6">Indonesia</text>
<text transform="matrix(1 0 0 1 285.9539 71.63)" class="st4 st5 st6">France</text>
<text transform="matrix(1 0 0 1 285.9539 134.63)" class="st4 st5 st6">German</text>
<text transform="matrix(1 0 0 1 285.9539 197.63)" class="st4 st5 st6">Russia</text>
<rect x="403.31" y="63.04" class="st1" width="129.22" height="12.44"/>
<rect x="403.3" y="63.11" class="st0" width="42.59" height="12.37"/>
<rect x="-1.18" y="0.13" class="st7" width="230.78" height="28.72"/>
<text transform="matrix(1 0 0 1 101.93 16.747)" class="st8 st9 st10">Asia</text>
<rect x="285.8" y="0.13" class="st7" width="548.1" height="28.72"/>
<text transform="matrix(1 0 0 1 539.401 16.7471)" class="st8 st9 st10">Eu</text>
<text transform="matrix(1 0 0 1 554.291 16.7471)" class="st8 st9 st10">r</text>
<text transform="matrix(1 0 0 1 558.741 16.7471)" class="st8 st9 st10">ope</text>
<text transform="matrix(1 0 0 1 587.9578 72.18)" class="st4 st5 st6">United Kingdom</text>
<text transform="matrix(1 0 0 1 587.9577 135.18)" class="st4 st5 st6">Ireland</text>
</svg>
