<?xml version="1.0" encoding="utf-8"?>
<!-- Generator: Adobe Illustrator 24.1.0, SVG Export Plug-In . SVG Version: 6.00 Build 0)  -->
<svg version="1.1" xmlns="http://www.w3.org/2000/svg" xmlns:xlink="http://www.w3.org/1999/xlink" x="0px" y="0px"
	 viewBox="0 0 1426.32 276.7" style="enable-background:new 0 0 1426.32 276.7;" xml:space="preserve">
<style type="text/css">
	.st0{fill:none;stroke:#666666;stroke-miterlimit:10;}
	.st1{fill:#B139A4;}
	.st2{fill:#FFFFFF;}
	.st3{font-family:'HelveticaNeue';}
	.st4{font-size:20px;}
	.st5{font-family:'HelveticaNeue-Medium';}
</style>
<g id="背景">
	<rect x="0" y="-2.64" width="1426.32" height="279.34"/>
</g>
<g id="线条">
</g>
<g id="图层_3">
</g>
<g id="图层_16">
</g>
<g id="图层_4">
</g>
<g id="图层_1">
</g>
<g id="ireland">
</g>
<g id="canada">
</g>
<g id="bazil">
</g>
<g id="Philippines">
</g>
<g id="Portugal">
</g>
<g id="America">
</g>
<g id="malzia">
</g>
<g id="russian">
</g>
<g id="south_africa">
</g>
<g id="aus">
</g>
<g id="uk">
</g>
<g id="缩小">
	<line class="st0" x1="1425.17" y1="0.48" x2="1425.17" y2="276.7"/>
	<line class="st0" x1="1387.28" y1="0.48" x2="1387.28" y2="276.7"/>
	<line class="st0" x1="1349.39" y1="0.48" x2="1349.39" y2="276.7"/>
	<line class="st0" x1="1311.5" y1="0.48" x2="1311.5" y2="276.7"/>
	<line class="st0" x1="1273.61" y1="0.48" x2="1273.61" y2="276.7"/>
	<line class="st0" x1="1235.72" y1="0.48" x2="1235.72" y2="276.7"/>
	<line class="st0" x1="1197.83" y1="0.48" x2="1197.83" y2="276.7"/>
	<line class="st0" x1="1159.94" y1="0.48" x2="1159.94" y2="276.7"/>
	<line class="st0" x1="1122.05" y1="0.48" x2="1122.05" y2="276.7"/>
	<line class="st0" x1="1084.16" y1="0.48" x2="1084.16" y2="276.7"/>
	<line class="st0" x1="1046.27" y1="0.48" x2="1046.27" y2="276.7"/>
	<line class="st0" x1="1008.38" y1="0.48" x2="1008.38" y2="276.7"/>
	<line class="st0" x1="970.49" y1="0.48" x2="970.49" y2="276.7"/>
	<line class="st0" x1="932.6" y1="0.48" x2="932.6" y2="276.7"/>
	<line class="st0" x1="894.71" y1="0.48" x2="894.71" y2="276.7"/>
	<line class="st0" x1="856.82" y1="0.48" x2="856.82" y2="276.7"/>
	<line class="st0" x1="818.93" y1="0.48" x2="818.93" y2="276.7"/>
	<line class="st0" x1="781.04" y1="0.48" x2="781.04" y2="276.7"/>
	<line class="st0" x1="743.15" y1="0.48" x2="743.15" y2="276.7"/>
	<line class="st0" x1="705.26" y1="0.48" x2="705.26" y2="276.7"/>
	<line class="st0" x1="667.37" y1="0.48" x2="667.37" y2="276.7"/>
	<line class="st0" x1="629.48" y1="0.48" x2="629.48" y2="276.7"/>
	<line class="st0" x1="591.6" y1="0.48" x2="591.6" y2="276.7"/>
	<line class="st0" x1="553.71" y1="0.48" x2="553.71" y2="276.7"/>
	<line class="st0" x1="515.82" y1="0.48" x2="515.82" y2="276.7"/>
	<line class="st0" x1="477.93" y1="0.48" x2="477.93" y2="276.7"/>
	<line class="st0" x1="440.04" y1="0.48" x2="440.04" y2="276.7"/>
	<line class="st0" x1="402.15" y1="0.48" x2="402.15" y2="276.7"/>
	<line class="st0" x1="364.26" y1="0.48" x2="364.26" y2="276.7"/>
	<line class="st0" x1="326.37" y1="0.48" x2="326.37" y2="276.7"/>
	<g>
		<g>
			<circle class="st1" cx="406.52" cy="6.4" r="2.85"/>
		</g>
		<g>
			<circle class="st1" cx="413.85" cy="6.4" r="2.85"/>
		</g>
		<g>
			<circle class="st1" cx="421.18" cy="6.4" r="2.85"/>
		</g>
		<g>
			<circle class="st1" cx="428.51" cy="6.4" r="2.85"/>
		</g>
		<g>
			<circle class="st1" cx="406.52" cy="44.2" r="2.85"/>
		</g>
		<g>
			<circle class="st1" cx="413.85" cy="44.2" r="2.85"/>
		</g>
		<g>
			<circle class="st1" cx="421.18" cy="44.2" r="2.85"/>
		</g>
		<g>
			<circle class="st1" cx="428.51" cy="44.2" r="2.85"/>
		</g>
		<g>
			<circle class="st1" cx="435.85" cy="44.2" r="2.85"/>
		</g>
		<g>
			<circle class="st1" cx="406.52" cy="50.77" r="2.85"/>
		</g>
		<g>
			<circle class="st1" cx="406.52" cy="82" r="2.85"/>
		</g>
		<g>
			<circle class="st1" cx="413.85" cy="82" r="2.85"/>
		</g>
		<g>
			<circle class="st1" cx="421.85" cy="123.55" r="2.85"/>
		</g>
		<g>
			<circle class="st1" cx="429.18" cy="123.55" r="2.85"/>
		</g>
		<g>
			<circle class="st1" cx="406.52" cy="123.55" r="2.85"/>
		</g>
		<g>
			<circle class="st1" cx="413.85" cy="123.55" r="2.85"/>
		</g>
		<g>
			<circle class="st1" cx="406.52" cy="163.77" r="2.85"/>
		</g>
		<g>
			<circle class="st1" cx="413.85" cy="163.77" r="2.85"/>
		</g>
		<g>
			<circle class="st1" cx="421.18" cy="163.77" r="2.85"/>
		</g>
		<g>
			<circle class="st1" cx="428.51" cy="163.77" r="2.85"/>
		</g>
		<g>
			<circle class="st1" cx="435.85" cy="163.77" r="2.85"/>
		</g>
		<g>
			<circle class="st1" cx="406.52" cy="170.34" r="2.85"/>
		</g>
		<g>
			<circle class="st1" cx="413.85" cy="170.34" r="2.85"/>
		</g>
		<g>
			<circle class="st1" cx="421.18" cy="170.34" r="2.85"/>
		</g>
		<g>
			<circle class="st1" cx="330.7" cy="6.4" r="2.85"/>
		</g>
		<g>
			<circle class="st1" cx="338.04" cy="6.4" r="2.85"/>
		</g>
		<g>
			<circle class="st1" cx="345.37" cy="6.4" r="2.85"/>
		</g>
		<g>
			<circle class="st1" cx="352.7" cy="6.4" r="2.85"/>
		</g>
		<g>
			<circle class="st1" cx="360.04" cy="6.4" r="2.85"/>
		</g>
		<g>
			<circle class="st1" cx="330.7" cy="12.97" r="2.85"/>
		</g>
		<g>
			<circle class="st1" cx="330.7" cy="44.2" r="2.85"/>
		</g>
		<g>
			<circle class="st1" cx="338.04" cy="44.2" r="2.85"/>
		</g>
		<g>
			<circle class="st1" cx="345.37" cy="44.2" r="2.85"/>
		</g>
		<g>
			<circle class="st1" cx="352.7" cy="44.2" r="2.85"/>
		</g>
		<g>
			<circle class="st1" cx="360.04" cy="44.2" r="2.85"/>
		</g>
		<g>
			<circle class="st1" cx="330.7" cy="50.77" r="2.85"/>
		</g>
		<g>
			<circle class="st1" cx="338.04" cy="50.77" r="2.85"/>
		</g>
		<g>
			<circle class="st1" cx="330.7" cy="163.77" r="2.85"/>
		</g>
		<g>
			<circle class="st1" cx="338.04" cy="163.77" r="2.85"/>
		</g>
		<g>
			<circle class="st1" cx="345.37" cy="163.77" r="2.85"/>
		</g>
		<g>
			<circle class="st1" cx="352.7" cy="163.77" r="2.85"/>
		</g>
		<g>
			<circle class="st1" cx="360.04" cy="163.77" r="2.85"/>
		</g>
		<g>
			<circle class="st1" cx="330.7" cy="170.34" r="2.85"/>
		</g>
		<g>
			<circle class="st1" cx="338.04" cy="170.34" r="2.85"/>
		</g>
		<g>
			<circle class="st1" cx="345.37" cy="170.34" r="2.85"/>
		</g>
		<g>
			<circle class="st1" cx="352.7" cy="170.34" r="2.85"/>
		</g>
		<g>
			<circle class="st1" cx="360.04" cy="170.34" r="2.85"/>
		</g>
		<g>
			<circle class="st1" cx="330.7" cy="176.91" r="2.85"/>
		</g>
		<g>
			<circle class="st1" cx="338.04" cy="176.91" r="2.85"/>
		</g>
		<g>
			<circle class="st1" cx="345.37" cy="176.91" r="2.85"/>
		</g>
		<g>
			<circle class="st1" cx="352.7" cy="176.91" r="2.85"/>
		</g>
		<g>
			<circle class="st1" cx="360.04" cy="176.91" r="2.85"/>
		</g>
		<g>
			<circle class="st1" cx="330.7" cy="183.48" r="2.85"/>
		</g>
		<g>
			<circle class="st1" cx="338.04" cy="183.48" r="2.85"/>
		</g>
		<g>
			<circle class="st1" cx="345.37" cy="183.48" r="2.85"/>
		</g>
		<g>
			<circle class="st1" cx="352.7" cy="183.48" r="2.85"/>
		</g>
		<g>
			<circle class="st1" cx="360.04" cy="183.48" r="2.85"/>
		</g>
		<g>
			<circle class="st1" cx="330.7" cy="190.05" r="2.85"/>
		</g>
		<g>
			<circle class="st1" cx="338.04" cy="190.05" r="2.85"/>
		</g>
		<g>
			<circle class="st1" cx="345.37" cy="190.05" r="2.85"/>
		</g>
		<g>
			<circle class="st1" cx="520.19" cy="5.72" r="2.85"/>
		</g>
		<g>
			<circle class="st1" cx="527.52" cy="5.72" r="2.85"/>
		</g>
		<g>
			<circle class="st1" cx="534.85" cy="5.72" r="2.85"/>
		</g>
		<g>
			<circle class="st1" cx="542.19" cy="5.72" r="2.85"/>
		</g>
		<g>
			<circle class="st1" cx="549.52" cy="5.72" r="2.85"/>
		</g>
		<g>
			<circle class="st1" cx="520.19" cy="12.29" r="2.85"/>
		</g>
		<g>
			<circle class="st1" cx="558.07" cy="5.72" r="2.85"/>
		</g>
		<g>
			<circle class="st1" cx="633.84" cy="5.72" r="2.85"/>
		</g>
		<g>
			<circle class="st1" cx="641.18" cy="5.72" r="2.85"/>
		</g>
		<g>
			<circle class="st1" cx="648.51" cy="5.72" r="2.85"/>
		</g>
		<g>
			<circle class="st1" cx="655.84" cy="5.72" r="2.85"/>
		</g>
		<g>
			<circle class="st1" cx="663.18" cy="5.72" r="2.85"/>
		</g>
		<g>
			<circle class="st1" cx="633.84" cy="12.29" r="2.85"/>
		</g>
		<g>
			<circle class="st1" cx="641.18" cy="12.29" r="2.85"/>
		</g>
		<g>
			<circle class="st1" cx="648.51" cy="12.29" r="2.85"/>
		</g>
		<g>
			<circle class="st1" cx="655.84" cy="12.29" r="2.85"/>
		</g>
		<g>
			<circle class="st1" cx="663.18" cy="12.29" r="2.85"/>
		</g>
		<g>
			<circle class="st1" cx="633.84" cy="18.86" r="2.85"/>
		</g>
		<g>
			<circle class="st1" cx="641.18" cy="18.86" r="2.85"/>
		</g>
		<g>
			<circle class="st1" cx="648.51" cy="18.86" r="2.85"/>
		</g>
		<g>
			<circle class="st1" cx="655.84" cy="18.86" r="2.85"/>
		</g>
		<g>
			<circle class="st1" cx="663.18" cy="18.86" r="2.85"/>
		</g>
		<g>
			<circle class="st1" cx="633.84" cy="25.43" r="2.85"/>
		</g>
		<g>
			<circle class="st1" cx="747.35" cy="5.72" r="2.85"/>
		</g>
		<g>
			<circle class="st1" cx="754.69" cy="5.72" r="2.85"/>
		</g>
		<g>
			<circle class="st1" cx="785.24" cy="5.72" r="2.85"/>
		</g>
		<g>
			<circle class="st1" cx="792.57" cy="5.72" r="2.85"/>
		</g>
		<g>
			<circle class="st1" cx="799.9" cy="5.72" r="2.85"/>
		</g>
		<g>
			<circle class="st1" cx="807.24" cy="5.72" r="2.85"/>
		</g>
		<g>
			<circle class="st1" cx="814.57" cy="5.72" r="2.85"/>
		</g>
		<g>
			<circle class="st1" cx="785.24" cy="12.29" r="2.85"/>
		</g>
		<g>
			<circle class="st1" cx="792.57" cy="12.29" r="2.85"/>
		</g>
		<g>
			<circle class="st1" cx="799.9" cy="12.29" r="2.85"/>
		</g>
		<g>
			<circle class="st1" cx="807.24" cy="12.29" r="2.85"/>
		</g>
		<g>
			<circle class="st1" cx="814.57" cy="12.29" r="2.85"/>
		</g>
		<g>
			<circle class="st1" cx="785.24" cy="18.86" r="2.85"/>
		</g>
		<g>
			<circle class="st1" cx="792.57" cy="18.86" r="2.85"/>
		</g>
		<g>
			<circle class="st1" cx="799.9" cy="18.86" r="2.85"/>
		</g>
		<g>
			<circle class="st1" cx="807.24" cy="18.86" r="2.85"/>
		</g>
		<g>
			<circle class="st1" cx="861.01" cy="5.72" r="2.85"/>
		</g>
		<g>
			<circle class="st1" cx="868.34" cy="5.72" r="2.85"/>
		</g>
		<g>
			<circle class="st1" cx="875.67" cy="5.72" r="2.85"/>
		</g>
		<g>
			<circle class="st1" cx="883.01" cy="5.72" r="2.85"/>
		</g>
		<g>
			<circle class="st1" cx="890.34" cy="5.72" r="2.85"/>
		</g>
		<g>
			<circle class="st1" cx="861.01" cy="12.29" r="2.85"/>
		</g>
		<g>
			<circle class="st1" cx="868.34" cy="12.29" r="2.85"/>
		</g>
		<g>
			<circle class="st1" cx="875.67" cy="12.29" r="2.85"/>
		</g>
		<g>
			<circle class="st1" cx="883.01" cy="12.29" r="2.85"/>
		</g>
		<g>
			<circle class="st1" cx="898.89" cy="5.72" r="2.85"/>
		</g>
		<g>
			<circle class="st1" cx="936.78" cy="5.72" r="2.85"/>
		</g>
		<g>
			<circle class="st1" cx="944.11" cy="5.72" r="2.85"/>
		</g>
		<g>
			<circle class="st1" cx="951.45" cy="5.72" r="2.85"/>
		</g>
		<g>
			<circle class="st1" cx="958.78" cy="5.72" r="2.85"/>
		</g>
		<g>
			<circle class="st1" cx="1012.55" cy="5.72" r="2.85"/>
		</g>
		<g>
			<circle class="st1" cx="1019.88" cy="5.72" r="2.85"/>
		</g>
		<g>
			<circle class="st1" cx="1027.22" cy="5.72" r="2.85"/>
		</g>
		<g>
			<circle class="st1" cx="1034.55" cy="5.72" r="2.85"/>
		</g>
		<g>
			<circle class="st1" cx="1041.88" cy="5.72" r="2.85"/>
		</g>
		<g>
			<circle class="st1" cx="1012.55" cy="12.29" r="2.85"/>
		</g>
		<g>
			<circle class="st1" cx="1019.88" cy="12.29" r="2.85"/>
		</g>
		<g>
			<circle class="st1" cx="1027.22" cy="12.29" r="2.85"/>
		</g>
		<g>
			<circle class="st1" cx="1164.09" cy="5.72" r="2.85"/>
		</g>
		<g>
			<circle class="st1" cx="1126.36" cy="5.72" r="2.85"/>
		</g>
		<g>
			<circle class="st1" cx="1133.69" cy="5.72" r="2.85"/>
		</g>
		<g>
			<circle class="st1" cx="1141.02" cy="5.72" r="2.85"/>
		</g>
		<g>
			<circle class="st1" cx="1164.24" cy="5.72" r="2.85"/>
		</g>
		<g>
			<circle class="st1" cx="1171.58" cy="5.72" r="2.85"/>
		</g>
		<g>
			<circle class="st1" cx="1178.91" cy="5.72" r="2.85"/>
		</g>
		<g>
			<circle class="st1" cx="1186.24" cy="5.72" r="2.85"/>
		</g>
		<g>
			<circle class="st1" cx="1193.57" cy="5.72" r="2.85"/>
		</g>
		<g>
			<circle class="st1" cx="1164.24" cy="12.29" r="2.85"/>
		</g>
		<g>
			<circle class="st1" cx="1171.58" cy="12.29" r="2.85"/>
		</g>
		<g>
			<circle class="st1" cx="1178.91" cy="12.29" r="2.85"/>
		</g>
		<g>
			<circle class="st1" cx="1186.24" cy="12.29" r="2.85"/>
		</g>
		<g>
			<circle class="st1" cx="1240.01" cy="5.72" r="2.85"/>
		</g>
		<g>
			<circle class="st1" cx="1247.35" cy="5.72" r="2.85"/>
		</g>
		<g>
			<circle class="st1" cx="1315.79" cy="5.72" r="2.85"/>
		</g>
		<g>
			<circle class="st1" cx="1353.67" cy="5.72" r="2.85"/>
		</g>
		<g>
			<circle class="st1" cx="1361" cy="5.72" r="2.85"/>
		</g>
		<g>
			<circle class="st1" cx="1368.34" cy="5.72" r="2.85"/>
		</g>
		<g>
			<circle class="st1" cx="1375.67" cy="5.72" r="2.85"/>
		</g>
		<g>
			<circle class="st1" cx="520.19" cy="43.4" r="2.85"/>
		</g>
		<g>
			<circle class="st1" cx="527.52" cy="43.4" r="2.85"/>
		</g>
		<g>
			<circle class="st1" cx="534.85" cy="43.4" r="2.85"/>
		</g>
		<g>
			<circle class="st1" cx="542.19" cy="43.4" r="2.85"/>
		</g>
		<g>
			<circle class="st1" cx="549.52" cy="43.4" r="2.85"/>
		</g>
		<g>
			<circle class="st1" cx="633.84" cy="43.4" r="2.85"/>
		</g>
		<g>
			<circle class="st1" cx="641.18" cy="43.4" r="2.85"/>
		</g>
		<g>
			<circle class="st1" cx="648.51" cy="43.4" r="2.85"/>
		</g>
		<g>
			<circle class="st1" cx="655.84" cy="43.4" r="2.85"/>
		</g>
		<g>
			<circle class="st1" cx="663.18" cy="43.4" r="2.85"/>
		</g>
		<g>
			<circle class="st1" cx="633.84" cy="49.97" r="2.85"/>
		</g>
		<g>
			<circle class="st1" cx="747.35" cy="45.03" r="2.85"/>
		</g>
		<g>
			<circle class="st1" cx="754.69" cy="45.03" r="2.85"/>
		</g>
		<g>
			<circle class="st1" cx="762.02" cy="45.03" r="2.85"/>
		</g>
		<g>
			<circle class="st1" cx="861.01" cy="43.4" r="2.85"/>
		</g>
		<g>
			<circle class="st1" cx="898.89" cy="43.4" r="2.85"/>
		</g>
		<g>
			<circle class="st1" cx="906.23" cy="43.4" r="2.85"/>
		</g>
		<g>
			<circle class="st1" cx="936.78" cy="43.4" r="2.85"/>
		</g>
		<g>
			<circle class="st1" cx="747.35" cy="84.35" r="2.85"/>
		</g>
		<g>
			<circle class="st1" cx="898.89" cy="83.92" r="2.85"/>
		</g>
		<g>
			<circle class="st1" cx="906.23" cy="83.92" r="2.85"/>
		</g>
		<g>
			<circle class="st1" cx="913.56" cy="83.92" r="2.85"/>
		</g>
		<g>
			<circle class="st1" cx="920.89" cy="83.92" r="2.85"/>
		</g>
		<g>
			<circle class="st1" cx="1164.09" cy="83.92" r="2.85"/>
		</g>
		<g>
			<circle class="st1" cx="1126.36" cy="83.92" r="2.85"/>
		</g>
		<g>
			<circle class="st1" cx="1133.69" cy="83.92" r="2.85"/>
		</g>
		<g>
			<circle class="st1" cx="1141.02" cy="83.92" r="2.85"/>
		</g>
		<g>
			<circle class="st1" cx="1164.24" cy="83.92" r="2.85"/>
		</g>
		<g>
			<circle class="st1" cx="1315.79" cy="83.92" r="2.85"/>
		</g>
		<g>
			<circle class="st1" cx="633.84" cy="123.55" r="2.85"/>
		</g>
		<g>
			<circle class="st1" cx="641.18" cy="123.55" r="2.85"/>
		</g>
		<g>
			<circle class="st1" cx="747.35" cy="123.55" r="2.85"/>
		</g>
		<g>
			<circle class="st1" cx="754.69" cy="123.55" r="2.85"/>
		</g>
		<g>
			<circle class="st1" cx="762.02" cy="123.55" r="2.85"/>
		</g>
		<g>
			<circle class="st1" cx="898.89" cy="123.55" r="2.85"/>
		</g>
		<g>
			<circle class="st1" cx="906.23" cy="123.55" r="2.85"/>
		</g>
		<g>
			<circle class="st1" cx="936.78" cy="123.55" r="2.85"/>
		</g>
		<g>
			<circle class="st1" cx="1164.24" cy="123.55" r="2.85"/>
		</g>
		<g>
			<circle class="st1" cx="520.19" cy="162.61" r="2.85"/>
		</g>
		<g>
			<circle class="st1" cx="527.52" cy="162.61" r="2.85"/>
		</g>
		<g>
			<circle class="st1" cx="558.07" cy="162.61" r="2.85"/>
		</g>
		<g>
			<circle class="st1" cx="747.35" cy="162.98" r="2.85"/>
		</g>
		<g>
			<circle class="st1" cx="754.69" cy="162.98" r="2.85"/>
		</g>
		<g>
			<circle class="st1" cx="762.02" cy="162.98" r="2.85"/>
		</g>
		<g>
			<circle class="st1" cx="861.01" cy="162.98" r="2.85"/>
		</g>
		<g>
			<circle class="st1" cx="868.34" cy="162.98" r="2.85"/>
		</g>
		<g>
			<circle class="st1" cx="875.67" cy="162.98" r="2.85"/>
		</g>
		<g>
			<circle class="st1" cx="898.89" cy="162.98" r="2.85"/>
		</g>
		<g>
			<circle class="st1" cx="906.23" cy="162.98" r="2.85"/>
		</g>
		<g>
			<circle class="st1" cx="913.56" cy="162.98" r="2.85"/>
		</g>
		<g>
			<circle class="st1" cx="920.89" cy="162.98" r="2.85"/>
		</g>
		<g>
			<circle class="st1" cx="928.23" cy="162.98" r="2.85"/>
		</g>
		<g>
			<circle class="st1" cx="898.89" cy="169.55" r="2.85"/>
		</g>
		<g>
			<circle class="st1" cx="936.78" cy="162.98" r="2.85"/>
		</g>
		<g>
			<circle class="st1" cx="944.11" cy="162.98" r="2.85"/>
		</g>
		<g>
			<circle class="st1" cx="1012.55" cy="162.98" r="2.85"/>
		</g>
		<g>
			<circle class="st1" cx="1019.88" cy="162.98" r="2.85"/>
		</g>
		<g>
			<circle class="st1" cx="1027.22" cy="162.98" r="2.85"/>
		</g>
		<g>
			<circle class="st1" cx="1034.55" cy="162.98" r="2.85"/>
		</g>
		<g>
			<circle class="st1" cx="1041.88" cy="162.98" r="2.85"/>
		</g>
		<g>
			<circle class="st1" cx="1012.55" cy="169.55" r="2.85"/>
		</g>
		<g>
			<circle class="st1" cx="1019.88" cy="169.55" r="2.85"/>
		</g>
		<g>
			<circle class="st1" cx="1027.22" cy="169.55" r="2.85"/>
		</g>
		<g>
			<circle class="st1" cx="1164.09" cy="162.98" r="2.85"/>
		</g>
		<g>
			<circle class="st1" cx="1126.36" cy="162.98" r="2.85"/>
		</g>
		<g>
			<circle class="st1" cx="1133.69" cy="162.98" r="2.85"/>
		</g>
		<g>
			<circle class="st1" cx="1141.02" cy="162.98" r="2.85"/>
		</g>
		<g>
			<circle class="st1" cx="1164.24" cy="162.98" r="2.85"/>
		</g>
		<g>
			<circle class="st1" cx="1171.58" cy="162.98" r="2.85"/>
		</g>
		<g>
			<circle class="st1" cx="1178.91" cy="162.98" r="2.85"/>
		</g>
		<g>
			<circle class="st1" cx="1186.24" cy="162.98" r="2.85"/>
		</g>
		<g>
			<circle class="st1" cx="1193.57" cy="162.98" r="2.85"/>
		</g>
		<g>
			<circle class="st1" cx="1164.24" cy="169.55" r="2.85"/>
		</g>
		<g>
			<circle class="st1" cx="1171.58" cy="169.55" r="2.85"/>
		</g>
		<g>
			<circle class="st1" cx="1178.91" cy="169.55" r="2.85"/>
		</g>
		<g>
			<circle class="st1" cx="1186.24" cy="169.55" r="2.85"/>
		</g>
		<g>
			<circle class="st1" cx="1193.57" cy="169.55" r="2.85"/>
		</g>
		<g>
			<circle class="st1" cx="1164.24" cy="176.12" r="2.85"/>
		</g>
		<g>
			<circle class="st1" cx="1171.58" cy="176.12" r="2.85"/>
		</g>
		<g>
			<circle class="st1" cx="1178.91" cy="176.12" r="2.85"/>
		</g>
		<g>
			<circle class="st1" cx="1186.24" cy="176.12" r="2.85"/>
		</g>
		<g>
			<circle class="st1" cx="1193.57" cy="176.12" r="2.85"/>
		</g>
		<g>
			<circle class="st1" cx="1164.24" cy="182.69" r="2.85"/>
		</g>
		<g>
			<circle class="st1" cx="1171.58" cy="182.69" r="2.85"/>
		</g>
		<g>
			<circle class="st1" cx="1178.91" cy="182.69" r="2.85"/>
		</g>
		<g>
			<circle class="st1" cx="1186.24" cy="182.69" r="2.85"/>
		</g>
		<g>
			<circle class="st1" cx="1193.57" cy="182.69" r="2.85"/>
		</g>
		<g>
			<circle class="st1" cx="1164.24" cy="182.72" r="2.85"/>
		</g>
		<g>
			<circle class="st1" cx="1240.01" cy="162.98" r="2.85"/>
		</g>
		<g>
			<circle class="st1" cx="1315.79" cy="162.98" r="2.85"/>
		</g>
		<g>
			<circle class="st1" cx="1353.67" cy="162.98" r="2.85"/>
		</g>
		<g>
			<circle class="st1" cx="1361" cy="162.98" r="2.85"/>
		</g>
		<g>
			<circle class="st1" cx="1368.34" cy="162.98" r="2.85"/>
		</g>
		<g>
			<circle class="st1" cx="520.19" cy="202.3" r="2.85"/>
		</g>
		<g>
			<circle class="st1" cx="747.35" cy="202.3" r="2.85"/>
		</g>
		<g>
			<circle class="st1" cx="754.69" cy="202.3" r="2.85"/>
		</g>
		<g>
			<circle class="st1" cx="898.89" cy="202.3" r="2.85"/>
		</g>
		<g>
			<circle class="st1" cx="906.23" cy="202.3" r="2.85"/>
		</g>
		<g>
			<circle class="st1" cx="913.56" cy="202.3" r="2.85"/>
		</g>
		<g>
			<circle class="st1" cx="747.35" cy="241.61" r="2.85"/>
		</g>
		<g>
			<circle class="st1" cx="754.69" cy="241.61" r="2.85"/>
		</g>
		<g>
			<circle class="st1" cx="861.01" cy="241.61" r="2.85"/>
		</g>
		<g>
			<circle class="st1" cx="898.89" cy="241.61" r="2.85"/>
		</g>
		<g>
			<circle class="st1" cx="444.51" cy="6.4" r="2.85"/>
		</g>
		<g>
			<circle class="st1" cx="451.85" cy="6.4" r="2.85"/>
		</g>
		<g>
			<circle class="st1" cx="459.18" cy="6.4" r="2.85"/>
		</g>
		<g>
			<circle class="st1" cx="466.51" cy="6.4" r="2.85"/>
		</g>
		<g>
			<circle class="st1" cx="473.84" cy="6.4" r="2.85"/>
		</g>
		<g>
			<circle class="st1" cx="444.51" cy="12.97" r="2.85"/>
		</g>
		<g>
			<circle class="st1" cx="451.85" cy="12.97" r="2.85"/>
		</g>
		<g>
			<circle class="st1" cx="459.18" cy="12.97" r="2.85"/>
		</g>
		<g>
			<circle class="st1" cx="466.51" cy="12.97" r="2.85"/>
		</g>
		<g>
			<circle class="st1" cx="473.84" cy="12.97" r="2.85"/>
		</g>
		<g>
			<circle class="st1" cx="444.51" cy="19.54" r="2.85"/>
		</g>
		<g>
			<circle class="st1" cx="451.85" cy="19.54" r="2.85"/>
		</g>
		<g>
			<circle class="st1" cx="459.18" cy="19.54" r="2.85"/>
		</g>
		<g>
			<circle class="st1" cx="466.51" cy="19.54" r="2.85"/>
		</g>
		<g>
			<circle class="st1" cx="444.51" cy="44.2" r="2.85"/>
		</g>
		<g>
			<circle class="st1" cx="451.85" cy="44.2" r="2.85"/>
		</g>
		<g>
			<circle class="st1" cx="459.18" cy="44.2" r="2.85"/>
		</g>
		<g>
			<circle class="st1" cx="466.51" cy="44.2" r="2.85"/>
		</g>
		<g>
			<circle class="st1" cx="473.84" cy="44.2" r="2.85"/>
		</g>
		<g>
			<circle class="st1" cx="444.51" cy="50.77" r="2.85"/>
		</g>
		<g>
			<circle class="st1" cx="451.85" cy="50.77" r="2.85"/>
		</g>
		<g>
			<circle class="st1" cx="459.18" cy="50.77" r="2.85"/>
		</g>
		<g>
			<circle class="st1" cx="466.51" cy="50.77" r="2.85"/>
		</g>
		<g>
			<circle class="st1" cx="444.51" cy="123.55" r="2.85"/>
		</g>
		<g>
			<circle class="st1" cx="451.85" cy="123.55" r="2.85"/>
		</g>
		<g>
			<circle class="st1" cx="444.51" cy="163.77" r="2.85"/>
		</g>
		<g>
			<circle class="st1" cx="451.85" cy="163.77" r="2.85"/>
		</g>
		<g>
			<circle class="st1" cx="459.18" cy="163.77" r="2.85"/>
		</g>
		<g>
			<circle class="st1" cx="466.51" cy="163.77" r="2.85"/>
		</g>
		<g>
			<circle class="st1" cx="473.84" cy="163.77" r="2.85"/>
		</g>
		<g>
			<circle class="st1" cx="444.51" cy="170.34" r="2.85"/>
		</g>
		<g>
			<circle class="st1" cx="451.85" cy="170.34" r="2.85"/>
		</g>
		<g>
			<circle class="st1" cx="459.18" cy="170.34" r="2.85"/>
		</g>
		<g>
			<circle class="st1" cx="466.51" cy="170.34" r="2.85"/>
		</g>
		<g>
			<circle class="st1" cx="473.84" cy="170.34" r="2.85"/>
		</g>
		<g>
			<circle class="st1" cx="444.51" cy="176.91" r="2.85"/>
		</g>
		<g>
			<circle class="st1" cx="451.85" cy="176.91" r="2.85"/>
		</g>
		<g>
			<circle class="st1" cx="459.18" cy="176.91" r="2.85"/>
		</g>
		<g>
			<circle class="st1" cx="466.51" cy="176.91" r="2.85"/>
		</g>
	</g>
	<g>
		<text transform="matrix(1 0 0 1 36.11 25.4302)" class="st2 st3 st4">Language</text>
	</g>
	<g>
		<text transform="matrix(1 0 0 1 36.11 64.6342)" class="st2 st3 st4">Writing / Copywriting</text>
	</g>
	<g>
		<text transform="matrix(1 0 0 1 36.1105 103.8378)" class="st2 st3 st4">Presentation skills</text>
	</g>
	<g>
		<text transform="matrix(1 0 0 1 36.11 143.0417)" class="st2 st3 st4">Text editing</text>
	</g>
	<g>
		<text transform="matrix(1 0 0 1 36.11 182.2456)" class="st2 st3 st4">Communication skills / Literacy</text>
	</g>
	<g>
		<text transform="matrix(1 0 0 1 36.1105 221.45)" class="st2 st3 st4">Business communication</text>
	</g>
	<g>
		<text transform="matrix(1 0 0 1 36.11 260.6539)" class="st2 st3 st4">Internal communication</text>
	</g>
</g>
<g id="图层_19">
	<line class="st0" x1="1426.32" y1="197.19" x2="4.29" y2="197.19"/>
	<line class="st0" x1="1426.32" y1="157.76" x2="4.29" y2="157.76"/>
	<line class="st0" x1="1426.32" y1="276.14" x2="18.57" y2="276.14"/>
	<line class="st0" x1="1426.32" y1="236.7" x2="4.29" y2="236.7"/>
	<line class="st0" x1="1426.32" y1="79.38" x2="4.29" y2="79.38"/>
	<line class="st0" x1="1426.32" y1="39.95" x2="4.29" y2="39.95"/>
	<line class="st0" x1="1426.32" y1="118.89" x2="4.29" y2="118.89"/>
	<line class="st0" x1="1426.32" y1="0.57" x2="18.57" y2="0.57"/>
	<g>
		<path class="st1" d="M0,16.98l0,242.17c0,9.38,7.6,16.98,16.98,16.98h15.04c0.04,0,0.08-0.03,0.08-0.08V0.08
			C32.1,0.03,32.06,0,32.02,0L16.98,0C7.6,0,0,7.6,0,16.98z"/>
	</g>
	<g>
		<text transform="matrix(6.123234e-17 -1 1 6.123234e-17 24.5275 260.6537)" class="st2 st5 st4">COMMUNICATION SKILLS</text>
	</g>
</g>
</svg>
