<?xml version="1.0" encoding="utf-8"?>
<!-- Generator: Adobe Illustrator 24.1.0, SVG Export Plug-In . SVG Version: 6.00 Build 0)  -->
<svg version="1.1" xmlns="http://www.w3.org/2000/svg" xmlns:xlink="http://www.w3.org/1999/xlink" x="0px" y="0px"
	 viewBox="0 0 1426.32 315" style="enable-background:new 0 0 1426.32 315;" xml:space="preserve">
<style type="text/css">
	.st0{fill:none;}
	.st1{opacity:0.74;}
	.st2{fill:#FFFFFF;}
	.st3{font-family:'HelveticaNeue';}
	.st4{font-size:18px;}
	.st5{font-size:18.5px;}
	.st6{font-family:'AdobeSongStd-Light-GBpc-EUC-H';}
	.st7{fill:none;stroke:#666666;stroke-miterlimit:10;}
	.st8{fill:#1DC1ED;}
	.st9{fill:#45ADC6;}
	.st10{font-family:'HelveticaNeue-Medium';}
	.st11{font-size:20px;}
</style>
<g id="背景">
	<rect x="0" y="-2.64" width="1426.32" height="317.64"/>
</g>
<g id="线条">
</g>
<g id="图层_3">
</g>
<g id="图层_16">
</g>
<g id="图层_4">
</g>
<g id="图层_1">
</g>
<g id="ireland">
</g>
<g id="canada">
</g>
<g id="bazil">
</g>
<g id="Philippines">
</g>
<g id="Portugal">
</g>
<g id="America">
</g>
<g id="malzia">
</g>
<g id="russian">
</g>
<g id="south_africa">
</g>
<g id="aus">
</g>
<g id="uk">
</g>
<g id="缩小">
	<rect x="311.39" y="175.46" class="st0" width="1250.08" height="139.06"/>
	<text transform="matrix(0 -1 1 0 326.819 222.1293)" class="st1"><tspan x="0" y="0" class="st2 st3 st4">China</tspan><tspan x="-2.68" y="38.8" class="st2 st3 st4">Japan</tspan><tspan x="-35.66" y="77.6" class="st2 st3 st4">Singapore</tspan><tspan x="7.67" y="116.4" class="st2 st3 st4">India</tspan><tspan x="-16.97" y="155.2" class="st2 st3 st4">Georgia</tspan><tspan x="-41" y="194" class="st2 st3 st4">Philippines</tspan><tspan x="-31.34" y="232.8" class="st2 st3 st4">Indonesia</tspan><tspan x="-9.34" y="271.6" class="st2 st3 st4">Jordan</tspan><tspan x="-23.99" y="310.4" class="st2 st3 st4">Malaysia</tspan><tspan x="-7.67" y="349.2" class="st2 st3 st4">Turkey</tspan><tspan x="16.34" y="388" class="st2 st3 st4">Iran</tspan><tspan x="-8.66" y="426.8" class="st2 st3 st4">France</tspan><tspan x="-26.68" y="465.6" class="st2 st3 st4">Germany</tspan><tspan x="13.68" y="504.4" class="st2 st3 st4">Italy</tspan><tspan x="-7.99" y="543.2" class="st2 st3 st4">Ireland</tspan><tspan x="-7.33" y="582" class="st2 st3 st4">Russia</tspan><tspan x="-84.04" y="620.8" class="st2 st3 st4">United Kingdom</tspan><tspan x="3.69" y="659.6" class="st2 st3 st4">Israel</tspan><tspan x="-20.99" y="698.4" class="st2 st3 st4">Portugal</tspan><tspan x="0.67" y="737.2" class="st2 st3 st4">Spain</tspan><tspan x="-50.67" y="776" class="st2 st3 st4">Netherlands</tspan><tspan x="-16" y="814.8" class="st2 st3 st4">Canada</tspan><tspan x="-19.33" y="853.6" class="st2 st3 st4">America</tspan><tspan x="-11.99" y="892.4" class="st2 st3 st4">Mexico</tspan><tspan x="2.05" y="931.2" class="st2 st3 st4">Brazil</tspan><tspan x="-59.31" y="970" class="st2 st3 st4">New Zealand</tspan><tspan x="-22.99" y="1008.8" class="st2 st3 st4">Australia</tspan><tspan x="-52.33" y="1047.6" class="st2 st3 st4">South Africa</tspan><tspan x="-9.97" y="1086.4" class="st2 st3 st4">Nigeria</tspan></text>
	<text transform="matrix(1 0 0 1 36.11 25.412)"><tspan x="0" y="0" class="st2 st3 st5">Data analysis</tspan><tspan x="0" y="40" class="st2 st3 st5">Technical and customer support</tspan><tspan x="0" y="80" class="st2 st3 st5">MS Office/basic pc skills</tspan><tspan x="0" y="120" class="st2 st3 st5">Code skill</tspan><tspan x="81.19" y="120" class="st2 st6 st5"> </tspan></text>
	<line class="st7" x1="1425.17" y1="0.48" x2="1425.17" y2="158.33"/>
	<line class="st7" x1="1386.62" y1="0.48" x2="1386.62" y2="158.33"/>
	<line class="st7" x1="1348.06" y1="0.48" x2="1348.06" y2="158.33"/>
	<line class="st7" x1="1309.51" y1="0.48" x2="1309.51" y2="158.33"/>
	<line class="st7" x1="1270.95" y1="0.48" x2="1270.95" y2="158.33"/>
	<line class="st7" x1="1232.4" y1="0.48" x2="1232.4" y2="158.33"/>
	<line class="st7" x1="1193.84" y1="0.48" x2="1193.84" y2="158.33"/>
	<line class="st7" x1="1155.29" y1="0.48" x2="1155.29" y2="158.33"/>
	<line class="st7" x1="1116.73" y1="0.48" x2="1116.73" y2="158.33"/>
	<line class="st7" x1="1078.18" y1="0.48" x2="1078.18" y2="158.33"/>
	<line class="st7" x1="1039.62" y1="0.48" x2="1039.62" y2="158.33"/>
	<line class="st7" x1="1001.07" y1="0.48" x2="1001.07" y2="158.33"/>
	<line class="st7" x1="962.52" y1="0.48" x2="962.52" y2="158.33"/>
	<line class="st7" x1="923.96" y1="0.48" x2="923.96" y2="158.33"/>
	<line class="st7" x1="885.41" y1="0.48" x2="885.41" y2="158.33"/>
	<line class="st7" x1="846.85" y1="0.48" x2="846.85" y2="158.33"/>
	<line class="st7" x1="808.3" y1="0.48" x2="808.3" y2="158.33"/>
	<line class="st7" x1="769.74" y1="0.48" x2="769.74" y2="158.33"/>
	<line class="st7" x1="731.19" y1="0.48" x2="731.19" y2="158.33"/>
	<line class="st7" x1="692.63" y1="0.48" x2="692.63" y2="158.33"/>
	<line class="st7" x1="654.08" y1="0.48" x2="654.08" y2="158.33"/>
	<line class="st7" x1="615.53" y1="0.48" x2="615.53" y2="158.33"/>
	<line class="st7" x1="576.97" y1="0.48" x2="576.97" y2="158.33"/>
	<line class="st7" x1="538.42" y1="0.48" x2="538.42" y2="158.33"/>
	<line class="st7" x1="499.86" y1="0.48" x2="499.86" y2="158.33"/>
	<line class="st7" x1="461.31" y1="0.48" x2="461.31" y2="158.33"/>
	<line class="st7" x1="422.75" y1="0.48" x2="422.75" y2="158.33"/>
	<line class="st7" x1="384.2" y1="0.48" x2="384.2" y2="158.33"/>
	<line class="st7" x1="345.64" y1="0.48" x2="345.64" y2="158.33"/>
	<line class="st7" x1="307.09" y1="0.48" x2="307.09" y2="158.33"/>
</g>
<g id="图层_19">
	<line class="st7" x1="1426.32" y1="79.38" x2="4.29" y2="79.38"/>
	<line class="st7" x1="1426.32" y1="39.95" x2="4.29" y2="39.95"/>
	<line class="st7" x1="1426.32" y1="158.33" x2="18.57" y2="158.33"/>
	<line class="st7" x1="1426.32" y1="118.89" x2="4.29" y2="118.89"/>
	<line class="st7" x1="1426.32" y1="0.57" x2="18.57" y2="0.57"/>
	<g>
		<path class="st8" d="M0,12.86l0,132.61c0,7.1,5.76,12.86,12.86,12.86h19.18c0.03,0,0.06-0.03,0.06-0.06V0.06
			C32.1,0.03,32.07,0,32.04,0L12.86,0C5.76,0,0,5.76,0,12.86z"/>
	</g>
	<g>
		<circle class="st9" cx="388.65" cy="5.73" r="2.9"/>
		<circle class="st9" cx="396.12" cy="5.73" r="2.9"/>
		<circle class="st9" cx="403.6" cy="5.73" r="2.9"/>
		<circle class="st9" cx="411.07" cy="5.73" r="2.9"/>
		<circle class="st9" cx="418.54" cy="5.73" r="2.9"/>
		<circle class="st9" cx="388.65" cy="91.62" r="2.9"/>
		<circle class="st9" cx="388.65" cy="84.93" r="2.9"/>
		<circle class="st9" cx="396.12" cy="84.93" r="2.9"/>
		<circle class="st9" cx="403.6" cy="84.93" r="2.9"/>
		<circle class="st9" cx="411.07" cy="84.93" r="2.9"/>
		<circle class="st9" cx="418.54" cy="84.93" r="2.9"/>
		<circle class="st9" cx="311.39" cy="5.48" r="2.9"/>
		<circle class="st9" cx="318.87" cy="5.48" r="2.9"/>
		<circle class="st9" cx="326.34" cy="5.48" r="2.9"/>
		<circle class="st9" cx="311.39" cy="84.42" r="2.9"/>
		<circle class="st9" cx="318.87" cy="84.42" r="2.9"/>
		<circle class="st9" cx="326.34" cy="84.42" r="2.9"/>
		<circle class="st9" cx="333.81" cy="84.42" r="2.9"/>
		<circle class="st9" cx="341.28" cy="84.42" r="2.9"/>
		<circle class="st9" cx="311.39" cy="91.11" r="2.9"/>
		<circle class="st9" cx="318.87" cy="91.11" r="2.9"/>
		<circle class="st9" cx="326.34" cy="91.11" r="2.9"/>
		<circle class="st9" cx="333.81" cy="91.11" r="2.9"/>
		<circle class="st9" cx="341.28" cy="91.11" r="2.9"/>
		<circle class="st9" cx="311.39" cy="97.81" r="2.9"/>
		<circle class="st9" cx="318.87" cy="97.81" r="2.9"/>
		<circle class="st9" cx="326.34" cy="97.81" r="2.9"/>
		<circle class="st9" cx="333.81" cy="97.81" r="2.9"/>
		<circle class="st9" cx="543.1" cy="5.53" r="2.9"/>
		<circle class="st9" cx="550.57" cy="5.53" r="2.9"/>
		<circle class="st9" cx="620.32" cy="5.53" r="2.9"/>
		<circle class="st9" cx="627.79" cy="5.53" r="2.9"/>
		<circle class="st9" cx="635.26" cy="5.53" r="2.9"/>
		<circle class="st9" cx="642.74" cy="5.53" r="2.9"/>
		<circle class="st9" cx="650.21" cy="5.53" r="2.9"/>
		<circle class="st9" cx="620.32" cy="12.23" r="2.9"/>
		<circle class="st9" cx="627.79" cy="12.23" r="2.9"/>
		<circle class="st9" cx="635.26" cy="12.23" r="2.9"/>
		<circle class="st9" cx="642.74" cy="12.23" r="2.9"/>
		<circle class="st9" cx="650.21" cy="12.23" r="2.9"/>
		<circle class="st9" cx="620.32" cy="18.92" r="2.9"/>
		<circle class="st9" cx="627.79" cy="18.92" r="2.9"/>
		<circle class="st9" cx="890.43" cy="5.53" r="2.9"/>
		<circle class="st9" cx="897.9" cy="5.53" r="2.9"/>
		<circle class="st9" cx="905.37" cy="5.53" r="2.9"/>
		<circle class="st9" cx="929.03" cy="5.53" r="2.9"/>
		<circle class="st9" cx="1159.73" cy="5.53" r="2.9"/>
		<circle class="st9" cx="1167.2" cy="5.53" r="2.9"/>
		<circle class="st9" cx="1174.68" cy="5.53" r="2.9"/>
		<circle class="st9" cx="1182.15" cy="5.53" r="2.9"/>
		<circle class="st9" cx="1189.62" cy="5.53" r="2.9"/>
		<circle class="st9" cx="1159.73" cy="12.23" r="2.9"/>
		<circle class="st9" cx="1167.2" cy="12.23" r="2.9"/>
		<circle class="st9" cx="1174.68" cy="12.23" r="2.9"/>
		<circle class="st9" cx="1182.15" cy="12.23" r="2.9"/>
		<circle class="st9" cx="1238.05" cy="5.53" r="2.9"/>
		<circle class="st9" cx="1353.06" cy="5.53" r="2.9"/>
		<circle class="st9" cx="1360.53" cy="5.53" r="2.9"/>
		<circle class="st9" cx="504.49" cy="43.93" r="2.9"/>
		<circle class="st9" cx="929.03" cy="43.93" r="2.9"/>
		<circle class="st9" cx="504.49" cy="84.48" r="2.9"/>
		<circle class="st9" cx="511.97" cy="84.48" r="2.9"/>
		<circle class="st9" cx="519.44" cy="84.48" r="2.9"/>
		<circle class="st9" cx="526.91" cy="84.48" r="2.9"/>
		<circle class="st9" cx="543.1" cy="84.48" r="2.9"/>
		<circle class="st9" cx="735.99" cy="84.48" r="2.9"/>
		<circle class="st9" cx="743.46" cy="84.48" r="2.9"/>
		<circle class="st9" cx="750.94" cy="84.48" r="2.9"/>
		<circle class="st9" cx="890.43" cy="84.48" r="2.9"/>
		<circle class="st9" cx="897.9" cy="84.48" r="2.9"/>
		<circle class="st9" cx="905.37" cy="84.48" r="2.9"/>
		<circle class="st9" cx="912.84" cy="84.48" r="2.9"/>
		<circle class="st9" cx="1159.73" cy="84.48" r="2.9"/>
		<circle class="st9" cx="1167.2" cy="84.48" r="2.9"/>
		<circle class="st9" cx="1174.68" cy="84.48" r="2.9"/>
		<circle class="st9" cx="1182.15" cy="84.48" r="2.9"/>
		<circle class="st9" cx="1189.62" cy="84.48" r="2.9"/>
		<circle class="st9" cx="1159.73" cy="91.18" r="2.9"/>
		<circle class="st9" cx="1167.2" cy="91.18" r="2.9"/>
		<circle class="st9" cx="1174.68" cy="91.18" r="2.9"/>
		<circle class="st9" cx="1182.15" cy="91.18" r="2.9"/>
		<circle class="st9" cx="1353.06" cy="84.48" r="2.9"/>
		<circle class="st9" cx="890.43" cy="122.88" r="2.9"/>
		<circle class="st9" cx="1159.73" cy="122.88" r="2.9"/>
		<circle class="st9" cx="1167.2" cy="122.88" r="2.9"/>
		<circle class="st9" cx="1174.68" cy="122.88" r="2.9"/>
		<circle class="st9" cx="1182.15" cy="122.88" r="2.9"/>
		<circle class="st9" cx="1189.62" cy="122.88" r="2.9"/>
		<circle class="st9" cx="1159.73" cy="129.58" r="2.9"/>
		<circle class="st9" cx="427.37" cy="5.73" r="2.9"/>
		<circle class="st9" cx="434.85" cy="5.73" r="2.9"/>
		<circle class="st9" cx="442.32" cy="5.73" r="2.9"/>
		<circle class="st9" cx="449.79" cy="5.73" r="2.9"/>
		<circle class="st9" cx="457.26" cy="5.73" r="2.9"/>
		<circle class="st9" cx="427.37" cy="44.25" r="2.9"/>
		<circle class="st9" cx="434.85" cy="44.25" r="2.9"/>
		<circle class="st9" cx="442.32" cy="44.25" r="2.9"/>
		<circle class="st9" cx="449.79" cy="44.25" r="2.9"/>
		<circle class="st9" cx="457.26" cy="44.25" r="2.9"/>
		<circle class="st9" cx="427.37" cy="84.93" r="2.9"/>
		<circle class="st9" cx="434.85" cy="84.93" r="2.9"/>
		<circle class="st9" cx="427.37" cy="123.45" r="2.9"/>
	</g>
	<g>
		<text transform="matrix(6.123234e-17 -1 1 6.123234e-17 24.528 132.9028)" class="st2 st10 st11">COMPUTER</text>
	</g>
</g>
</svg>
