<?xml version="1.0" encoding="utf-8"?>
<!-- Generator: Adobe Illustrator 24.1.0, SVG Export Plug-In . SVG Version: 6.00 Build 0)  -->
<svg version="1.1" xmlns="http://www.w3.org/2000/svg" xmlns:xlink="http://www.w3.org/1999/xlink" x="0px" y="0px"
	 viewBox="0 0 1426.32 276.7" style="enable-background:new 0 0 1426.32 276.7;" xml:space="preserve">
<style type="text/css">
	.st0{opacity:0.2;}
	.st1{fill:#FFFFFF;}
	.st2{font-family:'HelveticaNeue';}
	.st3{font-size:20px;}
	.st4{opacity:0.2;fill:none;stroke:#666666;stroke-miterlimit:10;}
	.st5{fill:none;stroke:#666666;stroke-miterlimit:10;}
	.st6{fill:#009652;}
	.st7{fill:#E0A900;}
	.st8{opacity:0.2;fill:none;}
	.st9{opacity:0.2;fill:#FFFFFF;enable-background:new    ;}
	.st10{font-size:18px;}
</style>
<g id="背景">
	<rect x="0" y="-2.64" width="1426.32" height="353.78"/>
	<g class="st0">
		<text transform="matrix(1 0 0 1 6.9914 25.4304)" class="st1 st2 st3">Brand management</text>
	</g>
	<g class="st0">
		<text transform="matrix(1 0 0 1 6.9909 64.6346)" class="st1 st2 st3">Knowledge about current events</text>
	</g>
	<g>
		<text transform="matrix(1 0 0 1 7.1115 103.8385)" class="st1 st2 st3">Alert to politically sensitive issues</text>
	</g>
	<g class="st0">
		<text transform="matrix(1 0 0 1 6.9909 143.0421)" class="st1 st2 st3">Knowledge of industry best cases</text>
	</g>
	<g class="st0">
		<text transform="matrix(1 0 0 1 6.9914 182.2458)" class="st1 st2 st3">Law knowledge</text>
	</g>
</g>
<g id="线条">
</g>
<g id="图层_3">
</g>
<g id="图层_16">
</g>
<g id="图层_4">
</g>
<g id="图层_1">
</g>
<g id="ireland">
</g>
<g id="canada">
</g>
<g id="bazil">
</g>
<g id="Philippines">
</g>
<g id="Portugal">
</g>
<g id="America">
</g>
<g id="malzia">
</g>
<g id="russian">
</g>
<g id="south_africa">
</g>
<g id="aus">
</g>
<g id="uk">
</g>
<g id="缩小">
	<line class="st4" x1="1425.17" y1="0.48" x2="1425.17" y2="197.19"/>
	<line class="st4" x1="1387.28" y1="0.48" x2="1387.28" y2="197.19"/>
	<line class="st4" x1="1349.39" y1="0.48" x2="1349.39" y2="197.19"/>
	<line class="st4" x1="1311.5" y1="0.48" x2="1311.5" y2="197.19"/>
	<line class="st4" x1="1273.61" y1="0.48" x2="1273.61" y2="197.19"/>
	<line class="st4" x1="1235.72" y1="0.48" x2="1235.72" y2="197.19"/>
	<line class="st4" x1="1197.83" y1="0.48" x2="1197.83" y2="197.19"/>
	<line class="st4" x1="1159.94" y1="0.48" x2="1159.94" y2="197.19"/>
	<line class="st4" x1="1122.05" y1="0.48" x2="1122.05" y2="197.19"/>
	<line class="st4" x1="1084.16" y1="0.48" x2="1084.16" y2="197.19"/>
	<line class="st4" x1="1046.27" y1="0.48" x2="1046.27" y2="197.19"/>
	<line class="st4" x1="1008.38" y1="0.48" x2="1008.38" y2="197.19"/>
	<line class="st4" x1="970.49" y1="0.48" x2="970.49" y2="197.19"/>
	<line class="st4" x1="932.6" y1="0.48" x2="932.6" y2="197.19"/>
	<line class="st4" x1="894.71" y1="0.48" x2="894.71" y2="197.19"/>
	<line class="st4" x1="856.82" y1="0.48" x2="856.82" y2="197.19"/>
	<line class="st4" x1="818.93" y1="0.48" x2="818.93" y2="197.19"/>
	<line class="st4" x1="781.04" y1="0.48" x2="781.04" y2="197.19"/>
	<line class="st4" x1="743.15" y1="0.48" x2="743.15" y2="197.19"/>
	<line class="st4" x1="705.26" y1="0.48" x2="705.26" y2="197.19"/>
	<line class="st4" x1="667.37" y1="0.48" x2="667.37" y2="197.19"/>
	<line class="st4" x1="629.48" y1="0.48" x2="629.48" y2="197.19"/>
	<line class="st4" x1="591.6" y1="0.48" x2="591.6" y2="197.19"/>
	<line class="st4" x1="553.71" y1="0.48" x2="553.71" y2="197.19"/>
	<line class="st4" x1="515.82" y1="0.48" x2="515.82" y2="197.19"/>
	<line class="st4" x1="477.93" y1="0.48" x2="477.93" y2="197.19"/>
	<line class="st4" x1="440.04" y1="0.48" x2="440.04" y2="197.19"/>
	<line class="st4" x1="402.15" y1="0.48" x2="402.15" y2="197.19"/>
	<line class="st4" x1="364.26" y1="0.48" x2="364.26" y2="197.19"/>
	<line class="st4" x1="326.37" y1="0.48" x2="326.37" y2="197.19"/>
	<g>
		<line class="st5" x1="1425.17" y1="79.93" x2="1425.17" y2="118.89"/>
		<line class="st5" x1="1387.28" y1="79.93" x2="1387.28" y2="118.89"/>
		<line class="st5" x1="1349.39" y1="79.93" x2="1349.39" y2="118.89"/>
		<line class="st5" x1="1311.5" y1="79.93" x2="1311.5" y2="118.89"/>
		<line class="st5" x1="1273.61" y1="79.93" x2="1273.61" y2="118.89"/>
		<line class="st5" x1="1235.72" y1="79.93" x2="1235.72" y2="118.89"/>
		<line class="st5" x1="1197.83" y1="79.93" x2="1197.83" y2="118.89"/>
		<line class="st5" x1="1159.94" y1="79.93" x2="1159.94" y2="118.89"/>
		<line class="st5" x1="1122.05" y1="79.93" x2="1122.05" y2="118.89"/>
		<line class="st5" x1="1084.16" y1="79.93" x2="1084.16" y2="118.89"/>
		<line class="st5" x1="1046.27" y1="79.93" x2="1046.27" y2="118.89"/>
		<line class="st5" x1="1008.38" y1="79.93" x2="1008.38" y2="118.89"/>
		<line class="st5" x1="970.49" y1="79.93" x2="970.49" y2="118.89"/>
		<line class="st5" x1="932.6" y1="79.93" x2="932.6" y2="118.89"/>
		<line class="st5" x1="894.71" y1="79.93" x2="894.71" y2="118.89"/>
		<line class="st5" x1="856.82" y1="79.93" x2="856.82" y2="118.89"/>
		<line class="st5" x1="818.93" y1="79.93" x2="818.93" y2="118.89"/>
		<line class="st5" x1="781.04" y1="79.93" x2="781.04" y2="118.89"/>
		<line class="st5" x1="743.15" y1="79.93" x2="743.15" y2="118.89"/>
		<line class="st5" x1="705.26" y1="79.93" x2="705.26" y2="118.89"/>
		<line class="st5" x1="667.37" y1="79.93" x2="667.37" y2="118.89"/>
		<line class="st5" x1="629.48" y1="79.93" x2="629.48" y2="118.89"/>
		<line class="st5" x1="591.6" y1="79.93" x2="591.6" y2="118.89"/>
		<line class="st5" x1="553.71" y1="79.93" x2="553.71" y2="118.89"/>
		<line class="st5" x1="515.82" y1="79.93" x2="515.82" y2="118.89"/>
		<line class="st5" x1="477.93" y1="79.93" x2="477.93" y2="118.89"/>
		<line class="st5" x1="440.04" y1="79.93" x2="440.04" y2="118.89"/>
		<line class="st5" x1="402.15" y1="79.93" x2="402.15" y2="118.89"/>
		<line class="st5" x1="364.26" y1="79.93" x2="364.26" y2="118.89"/>
		<line class="st5" x1="326.37" y1="79.93" x2="326.37" y2="118.89"/>
	</g>
</g>
<g id="图层_19">
	<g>
		<g class="st0">
			<circle class="st6" cx="406.27" cy="122.89" r="2.85"/>
		</g>
		<g>
			<circle class="st6" cx="406.27" cy="83.35" r="2.85"/>
		</g>
		<g class="st0">
			<circle class="st6" cx="406.27" cy="44.1" r="2.85"/>
		</g>
		<g class="st0">
			<circle class="st6" cx="406.27" cy="161.85" r="2.85"/>
		</g>
		<g class="st0">
			<circle class="st6" cx="330.71" cy="43.23" r="2.85"/>
		</g>
		<g class="st0">
			<circle class="st6" cx="338.05" cy="43.23" r="2.85"/>
		</g>
		<g class="st0">
			<circle class="st6" cx="345.39" cy="43.23" r="2.85"/>
		</g>
		<g class="st0">
			<circle class="st6" cx="352.73" cy="43.23" r="2.85"/>
		</g>
		<g class="st0">
			<circle class="st6" cx="360.07" cy="43.23" r="2.85"/>
		</g>
		<g class="st0">
			<circle class="st6" cx="330.71" cy="49.81" r="2.85"/>
		</g>
		<g class="st0">
			<circle class="st6" cx="338.05" cy="49.81" r="2.85"/>
		</g>
		<g class="st0">
			<circle class="st6" cx="345.39" cy="49.81" r="2.85"/>
		</g>
		<g class="st0">
			<circle class="st6" cx="352.73" cy="49.81" r="2.85"/>
		</g>
		<g class="st0">
			<circle class="st6" cx="360.07" cy="49.81" r="2.85"/>
		</g>
		<g class="st0">
			<circle class="st6" cx="352.73" cy="122.89" r="2.85"/>
		</g>
		<g class="st0">
			<circle class="st6" cx="360.07" cy="122.89" r="2.85"/>
		</g>
		<g>
			<circle class="st6" cx="330.71" cy="83.35" r="2.85"/>
		</g>
		<g>
			<circle class="st6" cx="338.05" cy="83.35" r="2.85"/>
		</g>
		<g>
			<circle class="st6" cx="345.39" cy="83.35" r="2.85"/>
		</g>
		<g>
			<circle class="st6" cx="352.73" cy="83.35" r="2.85"/>
		</g>
		<g>
			<circle class="st6" cx="360.07" cy="83.35" r="2.85"/>
		</g>
		<g>
			<circle class="st6" cx="330.71" cy="89.93" r="2.85"/>
		</g>
		<g>
			<circle class="st6" cx="338.05" cy="89.93" r="2.85"/>
		</g>
		<g>
			<circle class="st6" cx="345.39" cy="89.93" r="2.85"/>
		</g>
		<g class="st0">
			<circle class="st6" cx="330.71" cy="122.89" r="2.85"/>
		</g>
		<g class="st0">
			<circle class="st6" cx="338.05" cy="122.89" r="2.85"/>
		</g>
		<g class="st0">
			<circle class="st6" cx="345.39" cy="122.89" r="2.85"/>
		</g>
		<g class="st0">
			<circle class="st6" cx="330.71" cy="161.85" r="2.85"/>
		</g>
		<g class="st0">
			<circle class="st6" cx="338.05" cy="161.85" r="2.85"/>
		</g>
		<g class="st0">
			<circle class="st6" cx="345.39" cy="161.85" r="2.85"/>
		</g>
		<g class="st0">
			<circle class="st6" cx="352.73" cy="161.85" r="2.85"/>
		</g>
		<g class="st0">
			<circle class="st6" cx="360.07" cy="161.85" r="2.85"/>
		</g>
		<g class="st0">
			<circle class="st6" cx="330.71" cy="168.43" r="2.85"/>
		</g>
		<g class="st0">
			<circle class="st6" cx="338.05" cy="168.43" r="2.85"/>
		</g>
		<g class="st0">
			<circle class="st6" cx="345.39" cy="168.43" r="2.85"/>
		</g>
		<g class="st0">
			<circle class="st7" cx="899.57" cy="5.16" r="2.85"/>
		</g>
		<g class="st0">
			<circle class="st7" cx="1013.03" cy="5.16" r="2.85"/>
		</g>
		<g class="st0">
			<circle class="st7" cx="1020.37" cy="5.16" r="2.85"/>
		</g>
		<g class="st0">
			<circle class="st7" cx="1027.71" cy="5.16" r="2.85"/>
		</g>
		<g class="st0">
			<circle class="st7" cx="1035.05" cy="5.16" r="2.85"/>
		</g>
		<g class="st0">
			<circle class="st7" cx="1042.39" cy="5.16" r="2.85"/>
		</g>
		<g class="st0">
			<circle class="st7" cx="1013.03" cy="11.74" r="2.85"/>
		</g>
		<g class="st0">
			<circle class="st7" cx="1020.37" cy="11.74" r="2.85"/>
		</g>
		<g class="st0">
			<circle class="st7" cx="1027.71" cy="11.74" r="2.85"/>
		</g>
		<g class="st0">
			<circle class="st6" cx="747.85" cy="122.89" r="2.85"/>
		</g>
		<g class="st0">
			<circle class="st6" cx="755.19" cy="122.89" r="2.85"/>
		</g>
		<g class="st0">
			<circle class="st6" cx="762.53" cy="122.89" r="2.85"/>
		</g>
		<g class="st0">
			<circle class="st6" cx="785.39" cy="122.89" r="2.85"/>
		</g>
		<g class="st0">
			<circle class="st6" cx="792.73" cy="122.89" r="2.85"/>
		</g>
		<g class="st0">
			<circle class="st6" cx="800.07" cy="122.89" r="2.85"/>
		</g>
		<g class="st0">
			<circle class="st6" cx="807.41" cy="122.89" r="2.85"/>
		</g>
		<g class="st0">
			<circle class="st6" cx="814.75" cy="122.89" r="2.85"/>
		</g>
		<g class="st0">
			<circle class="st6" cx="785.39" cy="129.31" r="2.85"/>
		</g>
		<g class="st0">
			<circle class="st6" cx="792.73" cy="129.31" r="2.85"/>
		</g>
		<g class="st0">
			<circle class="st6" cx="800.07" cy="129.31" r="2.85"/>
		</g>
		<g class="st0">
			<circle class="st6" cx="807.41" cy="129.31" r="2.85"/>
		</g>
		<g class="st0">
			<circle class="st6" cx="814.75" cy="129.31" r="2.85"/>
		</g>
		<g class="st0">
			<circle class="st6" cx="785.39" cy="135.88" r="2.85"/>
		</g>
		<g class="st0">
			<circle class="st6" cx="792.73" cy="135.88" r="2.85"/>
		</g>
		<g class="st0">
			<circle class="st6" cx="1163.86" cy="122.89" r="2.85"/>
		</g>
		<g class="st0">
			<circle class="st6" cx="1126.24" cy="122.89" r="2.85"/>
		</g>
		<g class="st0">
			<circle class="st6" cx="1133.58" cy="122.89" r="2.85"/>
		</g>
		<g class="st0">
			<circle class="st6" cx="1140.93" cy="122.89" r="2.85"/>
		</g>
		<g class="st0">
			<circle class="st6" cx="1315.89" cy="122.89" r="2.85"/>
		</g>
		<g class="st0">
			<circle class="st6" cx="1164.01" cy="162.49" r="2.85"/>
		</g>
		<g class="st0">
			<circle class="st6" cx="444.31" cy="44.1" r="2.85"/>
		</g>
		<g class="st0">
			<circle class="st6" cx="444.31" cy="161.85" r="2.85"/>
		</g>
		<g class="st0">
			<circle class="st6" cx="451.65" cy="161.85" r="2.85"/>
		</g>
	</g>
	<line class="st4" x1="1426.32" y1="197.19" x2="0" y2="197.19"/>
	<line class="st4" x1="1426.32" y1="157.76" x2="0" y2="157.76"/>
	<line class="st5" x1="1426.32" y1="79.38" x2="0" y2="79.38"/>
	<line class="st4" x1="1426.32" y1="39.95" x2="0" y2="39.95"/>
	<line class="st5" x1="1426.32" y1="118.89" x2="0" y2="118.89"/>
	<line class="st4" x1="1426.32" y1="0.57" x2="0" y2="0.57"/>
	<rect x="333.9" y="207.17" class="st8" width="1250.08" height="139.06"/>
	<text transform="matrix(0 -1 1 0 349.3253 253.8422)" class="st9 st2 st10">China</text>
	<text transform="matrix(0 -1 1 0 387.3253 256.5229)" class="st9 st2 st10">Japan</text>
	<text transform="matrix(0 -1 1 0 425.3253 289.5024)" class="st9 st2 st10">Singapore</text>
	<text transform="matrix(0 -1 1 0 463.3253 246.1723)" class="st9 st2 st10">India</text>
	<text transform="matrix(0 -1 1 0 501.3253 270.8129)" class="st9 st2 st10">Georgia</text>
	<text transform="matrix(0 -1 1 0 539.3253 294.8422)" class="st9 st2 st10">Philippines</text>
	<text transform="matrix(0 -1 1 0 577.3253 285.1821)" class="st9 st2 st10">Indonesia</text>
	<text transform="matrix(0 -1 1 0 615.3253 263.1821)" class="st9 st2 st10">Jordan</text>
	<text transform="matrix(0 -1 1 0 653.3253 277.8325)" class="st9 st2 st10">Malaysia</text>
	<text transform="matrix(0 -1 1 0 691.3253 261.5121)" class="st9 st2 st10">Turkey</text>
	<text transform="matrix(0 -1 1 0 729.3253 237.5024)" class="st9 st2 st10">Iran</text>
	<text transform="matrix(0 -1 1 0 767.3253 262.5024)" class="st9 st2 st10">France</text>
	<text transform="matrix(0 -1 1 0 805.3253 280.5229)" class="st9 st2 st10">Germany</text>
	<text transform="matrix(0 -1 1 0 843.3253 240.1625)" class="st9 st2 st10">Italy</text>
	<text transform="matrix(0 -1 1 0 881.3253 261.8325)" class="st9 st2 st10">Ireland</text>
	<text transform="matrix(0 -1 1 0 919.3253 261.1723)" class="st9 st2 st10">Russia</text>
	<text transform="matrix(0 -1 1 0 957.3253 337.8823)" class="st9 st2 st10">United Kingdom</text>
	<text transform="matrix(0 -1 1 0 995.3253 250.1528)" class="st9 st2 st10">Israel</text>
	<text transform="matrix(0 -1 1 0 1033.3253 274.8325)" class="st9 st2 st10">Portugal</text>
	<text transform="matrix(0 -1 1 0 1071.3253 253.1723)" class="st9 st2 st10">Spain</text>
	<text transform="matrix(0 -1 1 0 1109.3253 304.5121)" class="st9 st2 st10">Netherlands</text>
	<text transform="matrix(0 -1 1 0 1147.3253 269.8422)" class="st9 st2 st10">Canada</text>
	<text transform="matrix(0 -1 1 0 1185.3253 273.1723)" class="st9 st2 st10">America</text>
	<text transform="matrix(0 -1 1 0 1223.3253 265.8325)" class="st9 st2 st10">Mexico</text>
	<text transform="matrix(0 -1 1 0 1261.3253 251.7924)" class="st9 st2 st10">Brazil</text>
	<text transform="matrix(0 -1 1 0 1299.3253 313.1528)" class="st9 st2 st10">New Zealand</text>
	<text transform="matrix(0 -1 1 0 1337.3253 276.8325)" class="st9 st2 st10">Australia</text>
	<text transform="matrix(0 -1 1 0 1375.3253 306.1723)" class="st9 st2 st10">South Africa</text>
	<text transform="matrix(0 -1 1 0 1413.3253 263.8129)" class="st9 st2 st10">Nigeria</text>
</g>
</svg>
