<svg xmlns="http://www.w3.org/2000/svg" viewBox="0 0 293.01699 338.36901">
  <defs>
    <style>
      .cls-1 {
        fill: #fff;
      }
    </style>
  </defs>
  <g id="Layer_2" data-name="Layer 2">
    <g id="Layer_1-2" data-name="Layer 1">
      <g id="Page-1">
        <g id="Logo_DensityDesign" data-name="Logo DensityDesign">
          <rect id="Rectangle" class="cls-1" x="245.807" y="35.384" width="47.20999" height="7.691"/>
          <polygon id="Path" class="cls-1" points="89.585 85.379 89.585 0 117.283 0 117.283 12.303 102.789 12.303 102.789 35.643 112.406 35.643 112.406 47.304 102.789 47.304 102.789 72.681 117.277 72.681 117.277 85.379 89.585 85.379"/>
          <polygon id="Path-2" data-name="Path" class="cls-1" points="199.369 85.379 184.872 42.18 180.772 28.451 180.772 85.369 172.068 85.369 172.068 0 180.399 0 193.6 43.834 197.446 57.692 197.446 0 206.174 0 206.174 85.379 199.369 85.379"/>
          <polygon id="Path-3" data-name="Path" class="cls-1" points="96.129 213.121 96.129 127.748 109.332 127.748 109.332 213.121 96.129 213.121"/>
          <path id="Path-4" data-name="Path" class="cls-1" d="M25.512,337.091,24.099,332.6a10.0864,10.0864,0,0,1-9.358,5.769C5.765,338.369,0,331.823,0,321.569V267.216a16.47457,16.47457,0,0,1,16.537-16.788c9.488,0,16.017,7.565,16.017,16.788v15.78H20.266V266.709a3.17109,3.17109,0,0,0-3.463-3.46,3.33357,3.33357,0,0,0-3.599,3.46V322.72a3.47321,3.47321,0,0,0,3.599,3.731,3.40421,3.40421,0,0,0,3.58-3.731V305.3H17.056V295.04H33.204v42.051Z"/>
          <polygon id="Path-5" data-name="Path" class="cls-1" points="108.474 337.091 98.869 298.506 95.918 286.842 95.918 337.091 84.634 337.091 84.634 251.718 97.191 251.718 105.66 290.037 108.216 301.972 108.216 251.718 119.383 251.718 119.383 337.091 108.474 337.091"/>
          <polygon id="Path-6" data-name="Path" class="cls-1" points="193.853 136.407 193.853 213.06 184.763 213.06 184.763 136.407 173.352 136.407 173.352 127.691 204.884 127.691 204.884 136.407 193.853 136.407"/>
          <polygon id="Path-7" data-name="Path" class="cls-1" points="273.716 179.353 273.716 213.06 264.481 213.06 264.481 179.353 251.287 127.691 260.521 127.691 269.617 167.432 278.714 127.691 287.551 127.691 273.716 179.353"/>
          <rect id="Rectangle-2" data-name="Rectangle" class="cls-1" x="165.50901" y="287.58999" width="47.211" height="10.04199"/>
          <rect id="Rectangle-3" data-name="Rectangle" class="cls-1" x="184.09999" y="269.01101" width="10.03" height="47.198"/>
          <path id="Shape" class="cls-1" d="M10.635,85.496H.74V.006h9.895C33.9.123,35.642,9.31,35.642,42.804,35.642,76.179,33.9,85.379,10.635,85.496Zm2.68-12.569c8.837,0,9.412-2.206,9.307-30.235.112-27.915-.47-30.124-9.307-30.124Z"/>
          <path id="Path-8" data-name="Path" class="cls-1" d="M21.739,165.823c-5.389-9.487-8.333-12.96-8.333-22.815,0-2.956,1.784-4.364,3.969-4.364,2.05,0,3.593,1.537,3.593,4.364v6.48l11.408-1.073v-4.129c0-11.284-6.02-17.821-15.001-17.821-11.537,0-17.037,8.599-17.037,19.234,0,9.871,6.79,21.667,11.784,29.609,5,8.59,8.074,14.611,8.074,22.303,0,3.201-1.407,5.13-4.229,5.13-2.95,0-4.358-2.05-4.358-5.13V190.71L.072,191.807v4.78c0,11.41,6.284,17.824,16.537,17.824,8.328,0,16.402-5.521,16.402-18.849C33.011,185.555,27.381,175.426,21.739,165.823Z"/>
        </g>
      </g>
    </g>
  </g>
</svg>
