<svg xmlns="http://www.w3.org/2000/svg" viewBox="0 0 213.41073 62.70009">
  <defs>
    <style>
      .cls-1, .cls-2, .cls-4, .cls-5 {
        fill: none;
      }

      .cls-1, .cls-4, .cls-5 {
        stroke: #fff;
      }

      .cls-1 {
        stroke-miterlimit: 10;
        stroke-width: 0.484px;
      }

      .cls-3 {
        fill: #8eb7ce;
      }

      .cls-4, .cls-5 {
        stroke-linecap: round;
        stroke-linejoin: round;
      }

      .cls-4 {
        stroke-width: 0.275px;
      }

      .cls-5 {
        stroke-width: 0.249px;
      }

      .cls-6 {
        fill: #fff;
      }
    </style>
  </defs>
  <g id="Layer_2" data-name="Layer 2">
    <g id="Layer_1-2" data-name="Layer 1">
      <g>
        <path class="cls-1" d="M62.63446,33.49274l-2.77054-.18355m2.63743,1.64448-2.75766-.32418m2.55907,1.75937-2.74369-.42724m2.47534,1.86993-2.71794-.56567m2.383,1.99336-2.68681-.702M61.298,40.66972l-2.64815-.83514m2.18659,2.20806-2.61489-.93389m2.08246,2.2993-2.56551-1.06164m1.97083,2.40022-2.51077-1.18724m1.85274,2.49683-2.44849-1.30854m1.73144,2.58485-2.38194-1.4266m1.60586,2.6675L55.24708,47.0341m1.4867,2.72869-2.25313-1.622m1.36541,2.78556-2.17263-1.7293m1.23123,2.85-2.08784-1.83127m1.096,2.90683-1.99767-1.929m.95644,2.95623-1.90321-2.02127m.81582,3.00026-1.80445-2.10929m.67305,3.03672-1.7014-2.193m.52813,3.06787L47.88439,54.6587m.3961,3.08183L46.768,55.41228m.26407,3.08933-1.39976-2.39806m.11594,3.10116L44.4655,56.74224m-.03326,3.10546-1.16146-2.5215m-.18248,3.10116-1.038-2.57519m-.33276,3.09258-.91027-2.62239m-.48306,3.07429-.78037-2.66425m-.61722,3.04642L38.246,59.08661m-.74926,3.01206-.54638-2.72221m-.89847,2.97448-.41006-2.74585m-1.04444,2.9294-.27158-2.763m-1.17327,2.87787-.16638-2.77052m-1.29885,2.81884-.02791-2.7759M30.22,62.67833l.11379-2.77373M28.773,62.59247l.219-2.76839m-1.67778,2.61381.35852-2.75337M25.864,62.21677l.497-2.73083m-1.91823,2.44635.6-2.7115M23.02044,61.577l.7353-2.67713m-2.13935,2.25526.86733-2.63742m-2.24991,2.15116.99722-2.59124m-2.34009,2.04594L19.98477,57.572M17.561,59.51064l1.21727-2.49575m-2.51614,1.81948,1.3375-2.43239m-2.60414,1.69709L16.45,55.73429m-2.68465,1.5715L15.3325,55.014m-2.75871,1.44161,1.67561-2.21343M11.436,55.56254l1.754-2.15224M10.32815,54.605l1.856-2.0653m-2.9176,1.05948L11.2191,51.6241M8.2532,52.544,10.297,50.66447m-3.00777.7793L9.42,49.664m-3.04211.63548,2.21342-1.67672m-3.07109.49164L7.811,47.54615m-3.09258.34347L7.081,46.433m-3.099.21149,2.41415-1.37079m-3.099.07728,2.47748-1.25269m-3.10222-.07194L5.20788,42.895M2.111,42.67383,4.69907,41.668M1.613,41.29659l2.6342-.87914m-3.06679-.5206,2.67392-.74817m-3.04-.6709,2.70721-.614m-3.0024-.804,2.72867-.5131m-2.96053-.935L3.03739,35.236M.123,34.154l2.76624-.23616M.02856,32.70807l2.77268-.132M.00065,31.24176l2.777.0075M.04036,29.77542l2.77269.14814m-2.66641-1.594,2.76516.25333m-2.59019-1.71,2.748.39287M.56205,25.4259l2.72546.53134M.86691,24.009l2.704.6344M1.24261,22.592l2.66855.76858M1.68379,21.19332l2.6267.90063m-2.12-2.2757,2.5784,1.02944M2.76045,18.469l2.52471,1.155m-1.8989-2.46138L5.867,18.411M4.07969,15.87339l2.41737,1.36754M4.83325,14.61746l2.3476,1.4835M5.64477,13.39913l2.27246,1.594M6.511,12.21943l2.193,1.70246m-1.272-2.8403,2.10931,1.80549M8.40348,9.98883l2.02129,1.90426M9.41466,8.953l1.95043,1.97619M10.4838,7.95468,12.33763,10.021M11.598,7.00681,13.351,9.15905M12.75412,6.1105,14.404,8.34431M13.95207,5.27l1.54038,2.31m-.30486-3.0947,1.42767,2.38089m-.15779-3.10653L17.7692,6.206m-.00858-3.11295L18.9532,5.60062m.12559-3.10545,1.10027,2.54835M20.43991,1.952l.97361,2.59985m.41112-3.07754.84479,2.64493m.56034-3.05713.71491,2.6825M24.65421.71542l.58073,2.71579M26.07651.43956l.47875,2.73512M27.5278.22915l.34028,2.75553M28.98659.08531l.20287,2.76948M30.45183.0102l.06226,2.77589M31.901.00374,31.858,2.77964M33.36728.06385l-.18356,2.77053m1.6445-2.6428-.322,2.75765M36.2634.38374l-.424,2.7437M37.70609.64565l-.5614,2.719M39.13484.97412,38.43925,3.662m2.09-2.29821-.79435,2.661m2.18551-2.20056L40.99617,4.4424m2.29071-2.09213L42.236,4.92006m2.39268-1.98154-1.17541,2.515M45.93933,3.589,44.64369,6.045m2.57518-1.74433L45.80623,6.69125M48.463,5.07143,46.93763,7.3911m2.73189-1.492L48.03575,8.1436m2.79952-1.3622-1.73789,2.164m2.85-1.23873L50.13217,9.80741m2.894-1.11422-1.91179,2.01269M54.05878,9.728l-2.00409,1.92146M55.04313,10.81l-2.0932,1.82485m3.02494-.69773L53.79794,13.661m3.05607-.556-2.25529,1.61982m3.07861-.41112L55.348,15.824m3.09687-.26515-2.39913,1.3987m3.10758-.1181-2.46245,1.28276m3.10975.029-2.52044,1.16358m3.10652.17713-2.57409,1.04123m3.09685.32631-2.62133.91567m3.07432.45832L58.71,23.05358m3.04534.59146-2.69.68914m3.01528.73855-2.72008.55709m2.97878.8856-2.7437.42186m2.93478,1.03157-2.762.28444m2.88325,1.15825-2.77053.1825m2.8242,1.28273-2.7759.044m2.763,1.42228-2.77484-.09552"/>
        <path class="cls-2" d="M26.49366,32.37442c.01074-.05152.29089.16639.33276.08911l.72886.97362s1.13892.6419,1.32569.53347c.18894-.11269.35638-.40254.47769-.42616.12237-.02253.28446-.19321.438-.21361.15136-.02146.322-.37463.322-.37463s.50666.1213.52491-.18247c.01825-.29948.03328-1.05089.03328-1.05089a1.21726,1.21726,0,0,0,.50129-.81582c.12022.00753.78791-.073.78791-.073.556-.17817.47015-.78683.36819-1.09381-.10091-.31131-.745-.67951-.745-.67951a.48671.48671,0,0,0-.04832-.69881.76072.76072,0,0,0-.63868-.483l-.28662-.04508-1.36325-.75463L26.893,26.97826l-2.16619,2.86609-.73959-.33064V27.56222L24.90175,25.03l.98112-.96825,1.01011.82975,3.26324.10093s1.19365.09873,1.35145-.15138c.30056-.47982.71706-1.13355.71706-1.13355l.03542.06978a.816.816,0,0,1,.17282.12559,1.24084,1.24084,0,0,1,.38536.07515c-.03006-.05366.088-.18462.4444-.45836.40254-.30056.07944-.59361.17819-.90489a.67775.67775,0,0,0-.19106-.60007l2.59448.78575.04938.029c-.16209.27373-.18033.6462-.321.72459-.20825.11377.059.59145-.01181.84478a.44123.44123,0,0,0,.17711.43474l.12452.00645a4.98249,4.98249,0,0,0,.05475.98112,2.30736,2.30736,0,0,0,.44332,1.03262H36.3596l-.08052.04081a1.52545,1.52545,0,0,1-.30592.5571c-.15673.11056-.91028,1.09276-.76752,1.73466.14278.643.46911,1.74971.46911,1.74971l.31021-.03758.00966.08694a3.50863,3.50863,0,0,1-.395.87486A3.11813,3.11813,0,0,0,34.5734,33.537l-.02791-.00966a.8151.8151,0,0,0-1.10671.16317c-.43366.39929-.52383.47769-.53887.48948l.00215-.00216-.00215.00216-.00108.00108h0c-.42614.57858-.39716.52705-.45619.6784a9.11241,9.11241,0,0,0-.24583,1.1035c.0043.12023-.02576.38-.09016.42829-.06334.04616-.424.2909-.46265.23937-.03864-.05582-.34672-.50236-.48627-.53135-.1417-.029-.3639-.05153-.27373.14706.09017.19966-.556.09768-.10948.482l.4444.38429a2.19867,2.19867,0,0,0,.658.40254.81748.81748,0,0,0,.87485-.30377l.06119.00429a2.2,2.2,0,0,1-.13955.56571,1.64422,1.64422,0,0,0-.20933.80292s.1739.54317.45407.15134l.28125-.39071.29841-.4809.02146.00642c-.2297.76646-.47767,1.549-.61185,1.842a5.39649,5.39649,0,0,0-.6956,1.60478,2.23448,2.23448,0,0,0,.12239,1.15716h-.00108l-.03543.00325c-.87591-.5056-1.46308.21253-2.38838.5206a7.74754,7.74754,0,0,1-1.91931.33921l-.01073-.0966c-.80937-.0934-1.8184-1.242-1.8184-1.242L24.569,40.43593c.44655-2.16833,1.41263-2.29717,1.41263-2.29717l-.04185-.015a33.85846,33.85846,0,0,0,.92851-3.6937,3.1217,3.1217,0,0,1-.06763-.76321"/>
        <path class="cls-2" d="M27.216,26.85407a2.20617,2.20617,0,0,0-.52812.25012,8.77761,8.77761,0,0,1-.88023.65373,10.23066,10.23066,0,0,0-1.15608,1.05627,1.08377,1.08377,0,0,0-.07621.629c.05045.12556.50343,1.27306.52812,1.38257.02576.11056.4283.21362.47768.36818.05045.15567.09769.44548.70418.76321l-.11916.95645.32741-.25119s1.4019.07407,1.55218-.20183A2.91106,2.91106,0,0,1,29.05906,31.53c.36926-.18033,1.22478-.74712,1.476-.85552.25117-.10735.77931.2619.95535.2619s1.40834-.26943.88021-.99507c-.52812-.72456-.80508-1.07665-.75463-1.25269s-.24151-.77933-1.00043-.85448a1.53485,1.53485,0,0,1-1.111-.65477Z"/>
        <path class="cls-2" d="M41.47364,21.701s-1.31388-.53026-1.65953-.60649a6.367,6.367,0,0,0-2.38946.52813c-.48948.278-.75461.46694-.82976.67948-.07513.21149-.76429.40254-.76429.5775a8.8117,8.8117,0,0,1-.292.88022,2.15982,2.15982,0,0,0,.10089.98113c.1256.12559.08051.82977.19107.98.11057.15138.36175,1.07344.83944,1.40836.47875.33493,1.14212.50344,1.23767.67948s.57321,1.21728.7997,1.08631.40254-.43258.70416-.28231a1.39556,1.39556,0,0,0,1.48349-.09982c.45192-.42832.92424-1.4019,1.45452-1.65847a2.75787,2.75787,0,0,0,1.41155-1.40941,4.89965,4.89965,0,0,0,.42724-2.56552,1.37677,1.37677,0,0,0-1.13892-.979c-.29413,0-1.57581-.19966-1.57581-.19966"/>
        <path class="cls-2" d="M42.41912,40.5379a27.084,27.084,0,0,1,5.6935-14.13927l.00966-.04724a2.37608,2.37608,0,0,0,1.90428-.36067l-.01719-.02362c-6.98375-1.871-2.4238-6.46743-1.70782-7.14049l.03971-.0966c.497.2147,1.053-.24583,2.88539.76.146.08049.9736-.49485,1.31067-.50238.5496-.01288,1.85275,1.28384,2.0363,1.56186a1.79813,1.79813,0,0,1-.01717,1.22694c-.18571.4487-.62367.72027-.53565.90706a12.70238,12.70238,0,0,1,1.07451,4.18209,31.31217,31.31217,0,0,1,.40039,3.58848c.07085,1.41157-.06654,2.94981-.03434,4.03612.05688,1.885-1.432,5.27486-1.432,7.294,0,.61186.31343,3.23963,1.22263,3.46828,0,0-3.0464.33169-4.34527.28124-.54851-.01933-.61184-.01288-1.22048-.03971a40.33775,40.33775,0,0,1-4.4204-.30809l-.09231.02683a2.9827,2.9827,0,0,1-.0129-1.66381c.31023-.61616,3.69262-5.32639,3.4629-8.669l-.02576-.03758h-.00107a1.87421,1.87421,0,0,0-.47446.46157,33.75074,33.75074,0,0,1-4.078,3.64646c-.47231.38-.86412.68914-1.08847.86627a6.59284,6.59284,0,0,0-.53672.72134"/>
        <path class="cls-2" d="M42.29235,46.42119a3.74226,3.74226,0,0,1,.26836-.65052,5.33931,5.33931,0,0,0,.33063-1.3815,6.31564,6.31564,0,0,1,.58179-1.78082,21.5991,21.5991,0,0,0,.62366-3.58527l-.05259-.073a33.66445,33.66445,0,0,0,4.078-3.64643,1.86115,1.86115,0,0,1,.47554-.4616l.02576.03758c.22971,3.34373-3.15267,8.05291-3.46289,8.66907a2.9827,2.9827,0,0,0,.01287,1.66381c.04078.176.07407.28982.07407.28982a4.97384,4.97384,0,0,1,.67412,1.21836c.0075.27264-.40039.63011-.54317.73529-.14062.10735-.4648.22221-.6301.32635a1.21982,1.21982,0,0,1-.65908.04936,3.431,3.431,0,0,1-.66875-.176,2.87366,2.87366,0,0,1-.7965.0644c-.31451-.04078-.33813-.40254-.38-.83728a1.29345,1.29345,0,0,1,.04831-.46156"/>
        <path class="cls-2" d="M39.203,20.91251a3.4998,3.4998,0,0,1,1.21728-.9457,2.32866,2.32866,0,0,1,.57-.17068,8.00147,8.00147,0,0,1,3.81393-1.16037,7.1322,7.1322,0,0,1,2.091-.02038l-.00322.16638.00322.00859c-1.81839.75138-2.75765,3.67866-2.76409,3.78814l-.01932.00537c-.12346-.50668-.31345-.56142-.75892-.68272a23.6044,23.6044,0,0,1-2.9981-.60433l-.01288.03436a4.61061,4.61061,0,0,1-.6022-.27481,1.27429,1.27429,0,0,0-.526-.00646l-.01073-.1363Z"/>
        <path class="cls-2" d="M44.13094,22.57891c.00644-.10948.94569-3.0378,2.76515-3.78814a2.21638,2.21638,0,0,1,1.19689-.15029,1.72117,1.72117,0,0,1,.248.09018l-.03972.09661c-.716.672-5.27594,5.26948,1.7089,7.13941l.01718.0247A2.37286,2.37286,0,0,1,48.123,26.351c-2.00626-.41541-3.86544-2.85642-3.86544-2.85642l-.01933.00108a5.141,5.141,0,0,0-.12666-.91243Z"/>
        <path class="cls-2" d="M37.90771,34.90752a5.01357,5.01357,0,0,0,.63438-2.44206l.9253-1.97728-.161-.07511a2.13494,2.13494,0,0,0,.80616-.47985c.3553-.40038,1.3611-2.061,1.3611-2.061l-.00643-.0043c.09446-.13634.19106-.28876.28768-.46265,0,0-.09017-.18787.39717-.64085l.10089-.11273.16639-.12985.10949-.10951s.862.18571.82332.45515c-.03864.26835-.44655,1.7819-.48841,2.09855a1.86685,1.86685,0,0,0,.07407,1.0219,6.0748,6.0748,0,0,1,.34565,1.812,18.9544,18.9544,0,0,1-.38215,2.21664c-.02791.12127-.05259.22-.07084.30056l-.03757.03328s-.59683-.00966-1.58653.07941v.00108a25.54327,25.54327,0,0,0-3.23641.50668Z"/>
        <path class="cls-2" d="M40.76078,41.36637c-.78576-2.01482.67626-3.76881.83835-4.19068a6.95534,6.95534,0,0,1,.628-1.08955l.52168-1.4212.08159-.3478c.01933-.08052.04294-.17929.07084-.30056a18.952,18.952,0,0,0,.38214-2.21664,6.10725,6.10725,0,0,0-.34457-1.812,1.85682,1.85682,0,0,1-.07406-1.0219c.0408-.31665.44869-1.8302.48735-2.09855.03863-.26944-1.125-.14064-1.125-.14064l-.07515-.12988.088-.18463.17927-.483c.07836-.03652.53671-.31668.63009-.351a2.18438,2.18438,0,0,0,1.19582-1.61444s.00751-.19213-.00751-.468l.02039-.00216s1.85918,2.441,3.86437,2.85746l-.00967.04724a27.084,27.084,0,0,0-5.69349,14.13927,6.59507,6.59507,0,0,1,.53671-.72134c.22435-.17713.61614-.48627,1.08846-.86627l.05153.073a21.60124,21.60124,0,0,1-.62366,3.58527,6.36365,6.36365,0,0,0-.58181,1.78082,5.29589,5.29589,0,0,1-.32954,1.3815,3.74,3.74,0,0,0-.26835.65052l.48839-1.45881s-.906.35209-1.18184-.82978Z"/>
        <polygon class="cls-2" points="40.864 48.639 32.457 51.107 32.426 50.392 32.426 50.391 32.458 49.852 40.904 47.462 40.864 48.639"/>
        <path class="cls-2" d="M35.20555,29.186c-.14277-.64191.61078-1.623.7675-1.73467a1.52331,1.52331,0,0,0,.30593-.556l.08159-.04079a1.35039,1.35039,0,0,0,.37891.322l.49163.39717s.3113.05795.38323.06332a.54676.54676,0,0,1,.3875.29735c.09768.20824.32632,1.03586.79434.89631l.33062-.31131s.48627.19216.5775.23511c.07944.04078.85017.42291,1.76366-.88668l.00536.00429s-1.00581,1.6606-1.36,2.061a2.13853,2.13853,0,0,1-.80722.47982,4.31835,4.31835,0,0,1-.439.13955l-2.88216.34564-.31023.03757s-.32632-1.10672-.46908-1.7497"/>
        <path class="cls-2" d="M38.841,17.19382v-.00108a1.24809,1.24809,0,0,0,.20608-.2147c.21256-.27478.06978-.91563.07515-1.00795a.643.643,0,0,1,.23616-.40683c.1578-.12664.15886-.62578.1653-.72884.00645-.10627.17819-.21683.27588-.33172.0966-.11377-.06547-.66873-.08588-.83619a.92549.92549,0,0,1,.07944-.43474l.10949.04078a6.91988,6.91988,0,0,1,3.25894,2.80381A3.81053,3.81053,0,0,1,43.6306,17.299c.00215.13634.00215.18892.00108.1975v.00108l-.03328.04724a5.64677,5.64677,0,0,1,1.10672,1.00258l-.31989.088a9.44563,9.44563,0,0,0-3.3942,1.16146,2.30236,2.30236,0,0,0-.57107.16962l-.02362-.05369c-1.8828-1.33534-1.5436-2.705-1.5436-2.705l-.01073-.014Z"/>
        <path class="cls-2" d="M37.35112,43.61338c-.66767-.08478-.55388-.80721-.55388-.80721s.28123-.87164.33382-1.01119a3.06485,3.06485,0,0,0,.01719-.88772,2.81306,2.81306,0,0,1,.51953-1.316,3.10285,3.10285,0,0,0,.19-1.52966c-.01181-.22112-.03649-2.57944-.03649-2.57944l-.04187-.02362h-.00108q.15944-.28662.29735-.57538l.059.029a24.04057,24.04057,0,0,1,3.07217-.4809l.01075.12881a7.21669,7.21669,0,0,1-.73424,3.16556s-1.13569,1.73788-1.29134,1.95687a2.24365,2.24365,0,0,0-.11808,1.01116,2.58027,2.58027,0,0,1-.10413.52384,1.32459,1.32459,0,0,0,.31883.92209c.17173.22649.43474.38321.53671.61937.09982.23507-.17927.59041-.53457.77074a4.52352,4.52352,0,0,1-1.9397.0837"/>
        <path class="cls-2" d="M33.77175,13.05294a11.54488,11.54488,0,0,1,.37248-1.39545,5.6169,5.6169,0,0,1,.42939-1.15075,2.85451,2.85451,0,0,1,.3027-.39287v-.00108a7.431,7.431,0,0,1,.66875-.68161,6.88157,6.88157,0,0,1,1.1679-.36713,2.549,2.549,0,0,1,1.856.54746s.73636.03.94892.49378a5.39045,5.39045,0,0,1,.5775,1.45451c-.04295.22541-.17819.45836-.15457.58071a4.10833,4.10833,0,0,1-.12131,1.02086c-.00858.02467-.01716.04829-.02683.07082a.93306.93306,0,0,0-.07836.43369c.01931.16851.18249.7224.0848.83728-.09661.11377-.26944.22541-.27588.3306-.00535.10414-.00752.6022-.1653.72993a.64551.64551,0,0,0-.23509.40683c-.00644.09231.13741.73317-.07621,1.008a1.20971,1.20971,0,0,1-.205.21467v.00108c-.11916.09447-.21148.10948-.248.0569-.05474-.07407-.20395.2093-.205.18784l-.06548.18571s-.05045.45619-.15457.41757c-.10306-.03649-.27051-.52921-.27051-.52921l.18677-1.0906.13741-1.34933.00536-.06224,1.05518-1.71858a1.83786,1.83786,0,0,0-.23507-.85874,2.23076,2.23076,0,0,1-.51847-.67948c-.02039-.15242-.1417-.65694-.1417-.65694s-.77716.63116-.94892.72885a2.5435,2.5435,0,0,1-.88987-.02362.75022.75022,0,0,0-.58825.26515c-.08694.176-.39179.71813-.47337.83406a2.89638,2.89638,0,0,0-.17713.95534.66414.66414,0,0,1-.13632.36176,1.60174,1.60174,0,0,0-.175.28339c-.07192.19108.02254.37676.06441.68269a3.47365,3.47365,0,0,1-.058.96287c-.03864.14814-.29627.14922-.35424.146a2.04155,2.04155,0,0,0-.38964.18676s.06977-.41971.09337-.5249a6.60869,6.60869,0,0,0-.32309-.90813,16.34215,16.34215,0,0,1-.25978-1.99444"/>
        <path class="cls-2" d="M33.01252,47.192l-.30379.07193.29519-2.11682-.015-.001a2.41923,2.41923,0,0,0,.25011-.62045,6.65251,6.65251,0,0,1,.59683-1.67135,1.11224,1.11224,0,0,1,.78469-.45835l.05151.5453L35.212,46.768l-.10089.27586-1.008-2.61594Z"/>
        <path class="cls-2" d="M35.30946,13.85651a2.90163,2.90163,0,0,1,.17711-.95534c.08265-.11594.38751-.658.47337-.833a.752.752,0,0,1,.58933-.26623,2.49238,2.49238,0,0,0,.88987.02362c.17067-.0966.94892-.72885.94892-.72885s.12129.50452.1417.657a2.18526,2.18526,0,0,0,.51847.67948,1.83786,1.83786,0,0,1,.23507.85873l-1.05518,1.71858-.00644.06224-.05582-.00537a3.30983,3.30983,0,0,1-1.89355.61187c-.66981-.17605-1.03048-1.44915-1.03048-1.44915l-.06655-.01179H35.1742a.66.66,0,0,0,.13526-.36175"/>
        <polygon class="cls-2" points="27.96 48.374 32.708 47.264 33.013 47.192 34.742 46.787 35.029 46.72 36.072 46.477 40.905 47.461 32.458 49.853 27.96 48.374"/>
        <path class="cls-2" d="M32.212,41.31677a5.39173,5.39173,0,0,1,.69558-1.6037c.13418-.29414.38214-1.07664.61186-1.84309.2748-.91456.526-1.80553.526-1.80553a12.70079,12.70079,0,0,1,.52707-2.52683,3.12322,3.12322,0,0,1,1.02727-1.6778,3.50522,3.50522,0,0,0,.395-.87377l-.00966-.088,2.88217-.34564a4.10269,4.10269,0,0,0,.439-.13955l.161.07515-.9253,1.97724a5.01339,5.01339,0,0,1-.6344,2.44209c-.0966.20179-.20181.40467-.31237.60646-1.0423,1.90429-2.57088,3.72482-2.64386,3.95026-.11165.35851-.15672.62687.132,1.84952a1.912,1.912,0,0,1-.34565,1.6209l-.06547.00642-.05153-.5453a1.11673,1.11673,0,0,0-.78468.45836,6.64426,6.64426,0,0,0-.59683,1.67242,2.40872,2.40872,0,0,1-.25118.61937v.00108c-.32418.00858-.2952-.44765-.2952-.44765l-.117-1.95149a.87214.87214,0,0,1-.24153-.27373,2.22352,2.22352,0,0,1-.12237-1.15717"/>
        <polyline class="cls-3" points="32.9 34.18 32.899 34.18 32.902 34.178 32.9 34.18"/>
        <path class="cls-3" d="M32.89937,34.17972l-.00106.00108Z"/>
        <path class="cls-2" d="M30.7744,36.72808c-.44655-.38429.19967-.28127.1095-.482-.09017-.19858.132-.175.27373-.14705.13954.029.44761.47552.48625.53134.03972.05258.40039-.19321.46373-.2394a.80629.80629,0,0,0,.09017-.42829,8.93462,8.93462,0,0,1,.24474-1.10242c.059-.15243.03006-.1009.45621-.67948l.00107-.00108c.01612-.01071.10628-.09015.53994-.4884a.81339.81339,0,0,1,1.10564-.16425l.02791.00966a12.70338,12.70338,0,0,0-.52814,2.528s-.25011.88989-.526,1.80553l-.02147-.00646-.29734.4809-.28231.39182c-.28017.39072-.45407-.15242-.45407-.15242a1.63516,1.63516,0,0,1,.2104-.80295,2.25769,2.25769,0,0,0,.13847-.56571l-.0612-.00429a.81385.81385,0,0,1-.87483.30381,2.1996,2.1996,0,0,1-.658-.40254Z"/>
        <path class="cls-3" d="M32.89841,34.18136v0Z"/>
        <path class="cls-2" d="M33.25007,22.01484s.04938-.24477.05582-.35746c.0075-.11272-.307-.35962-.351-.38321-.044-.0247.03436-.17713-.04831-.33276a2.88919,2.88919,0,0,1-.15886-.55176,1.02642,1.02642,0,0,0-.02147-.132l.01181-.00429s.6666-1.07664.716-1.15071a4.14819,4.14819,0,0,0-.00108-3.728c-.146-.36283-.702.31344-.72992.34777l-.00429-.00321a.92225.92225,0,0,0-.01612-.93172c-.31987-.72888-1.56721-1.301-2.01053-1.48135a.67158.67158,0,0,0-.37893-.03007l-.01825-.14384a1.56043,1.56043,0,0,1,.30056-1.73467c.76429-.90276,1.01226-1.024,1.33214-1.06485.31881-.04078.88236-.11485.88236-.11485a1.93254,1.93254,0,0,1,2.06636-.10519v.00108a2.76817,2.76817,0,0,0-.3027.39288,5.56084,5.56084,0,0,0-.42939,1.15179,11.469,11.469,0,0,0-.37248,1.39437,16.34136,16.34136,0,0,0,.25978,1.99444,6.65946,6.65946,0,0,1,.32309.90814c-.0236.10518-.09337.52492-.09337.52492a2.10852,2.10852,0,0,1,.38964-.18679c.058.00321.3156.00321.35424-.146a3.47071,3.47071,0,0,0,.058-.96288c-.04187-.30593-.13633-.49164-.06441-.68164a1.54551,1.54551,0,0,1,.175-.28444h.00108l.06763.01179s.36067,1.2731,1.02942,1.44915a3.31221,3.31221,0,0,0,1.89461-.61187l.05582.00537-.13741,1.3493L37.898,17.51286s.16745.49269.27051.52918c.10412.03866.18785-.47231.18785-.47231l.06547-.20717c.00108.02146.117-.18571.17175-.11056.03649.05153.12881.0365.24689-.058h.00108l.01073.014s-.33814,1.36866,1.5436,2.70508l.02468.05366a3.49982,3.49982,0,0,0-1.21726.94571v.00108l.01073.13631c-.18785.0204-.36711.04832-.43474.06011a6.44868,6.44868,0,0,1-.82655.24582c-.14813-.00858-.51524.29948-.92853.42186-.41112.12344-.18569.6537-.745.76534a.56727.56727,0,0,0-.38535.28661"/>
        <path class="cls-2" d="M28.46341,19.72606a1.82154,1.82154,0,0,1,.585-1.07772,2.10247,2.10247,0,0,1,1.53823-.16642s.34349.30273.40791.35534a3.23583,3.23583,0,0,1,.5496.30161.59342.59342,0,0,1,.21468.37678,3.676,3.676,0,0,0,.26836.43474,4.75853,4.75853,0,0,1,.23938.72888c.00536.09982.102.571.09769.64083-.00431.06332.176.65265-.00323.80186-.20287.16746.044,1.56613-.16638,1.67135-.25226.37675-.45621.96929-.83942,1.08306a4.77992,4.77992,0,0,1-2.07174-.0075l.19215-1.94507a2.89942,2.89942,0,0,0-.13739-.409,2.7906,2.7906,0,0,1-.25012-1.13142,1.462,1.462,0,0,0-.29091-.81258,1.02864,1.02864,0,0,1-.33383-.84478"/>
        <path class="cls-2" d="M27.10906,33.13377l-.41435.12347-.28983-.81582c.1256-.23187,1.14644-.073,1.242-.15564.12668-.11488.4283.03325.468-.11272.0365-.15135.21683-.10948.40469-.249.19108-.13847.22972-.28661.351-.30915a.65327.65327,0,0,0,.351-.28126c.03327-.09015.30808-.13523.46265-.18247a6.71756,6.71756,0,0,0,.84371-.49377.51913.51913,0,0,1,.45728-.06548c.14922.04186.19323.31556.19323.31556a1.21308,1.21308,0,0,1-.50129.81474s-.0161.7525-.03328,1.052c-.01825.30272-.52491.1825-.52491.1825s-.17175.352-.3231.37462c-.15351.02038-.3156.19-.4369.21359a2.82135,2.82135,0,0,0-.53349.3038c-.18677.1084-1.06592-.24474-1.06592-.24474Z"/>
        <path class="cls-2" d="M27.99937,15.882a.58339.58339,0,0,1-.56356-.30485c-.04938-.09877.44869-.30485.44869-.30485a2.973,2.973,0,0,1,1.09491-.36388c.09017-.00754.1739-.01612.25118-.02362a1.374,1.374,0,0,1,1.01332.16209l.44226.27048.087.01075h.00106c-.058-.102-.10841-.19-.117-.2147a.27248.27248,0,0,1,.02361-.2909c.09016-.12451.31345-.02791.34028-.00537a3.188,3.188,0,0,0,.33384.3231c.17819.14492.15136.00861.30485.67735a.98876.98876,0,0,1,.029.3435c-.04938.34564-.42293.34135-.89953.57322a1.40844,1.40844,0,0,1-1.198-.029s-.91026-.85873-.96823-.94675c-.05688-.08373-.15565-.07623-.23616.01608-.08265.09127-.03434.1009-.3875.10735"/>
        <path class="cls-2" d="M29.22684,14.835s.00752-.87482.248-1.08739a1.95257,1.95257,0,0,1,.83835-.47123.67184.67184,0,0,1,.37893.03007c.44332.17925,1.69066.75246,2.01161,1.48026a.92627.92627,0,0,1,.015.9328.70723.70723,0,0,1-.2673.22866,3.61359,3.61359,0,0,1-.75033.21575l-.01288-.00321a.96518.96518,0,0,0-.029-.34351c-.15351-.66769-.12668-.53243-.30379-.67732a3.07444,3.07444,0,0,1-.33384-.32313c-.02791-.02145-.25118-.11914-.34028.00646a.26846.26846,0,0,0-.02362.28981c.0086.0247.058.11272.117.2147h-.00108l-.08694-.01074-.44332-.27049a1.37054,1.37054,0,0,0-1.01226-.16209l-.00429-.04832Z"/>
        <polygon class="cls-2" points="27.96 48.374 32.458 49.853 32.425 50.392 32.425 50.581 32.457 50.691 32.418 51.057 27.918 49.581 27.958 48.374 27.96 48.374"/>
        <path class="cls-2" d="M28.04584,25.04986c-.219-.16209-1.11636.06224-1.22586-.21578-.10733-.27694-.27265-.34347-.85981-.76213-.584-.42291.05152-.95321.20072-.9897.15028-.03649.08909-.1331.08909-.1331,0-.073.12989-.24369.34673-.44548.21469-.19967.11915-.17389.16639-.80292.04615-.61615.3349-.76645.3349-.76645a1.80534,1.80534,0,0,1,.21791-1.25269c-.00752-.42078.64405-.819.64405-.819a.82328.82328,0,0,1,1.067-.45407c.3478-.14813.584-.25548.584-.25548a1.683,1.683,0,0,0,.468-.02362,1.23066,1.23066,0,0,1,.59147-.059.52345.52345,0,0,1,.44333.26623s.38858.0322.44332.2372c.05582.20825.52384.10951.4605.58183a1.65353,1.65353,0,0,1,.28125.59575c.00859.19537.33168.131.42722.50664a1.02894,1.02894,0,0,1,.02148.132,2.83414,2.83414,0,0,0,.15994.55175c.08265.15456.00429.307.04722.33277.044.02361.35853.2694.35209.38321-.00752.11272-.05688.35746-.05688.35746a.675.675,0,0,1,.19106.599c-.09875.31238.22435.60541-.17819.906-.35638.27265-.47446.4047-.4444.45836a2.761,2.761,0,0,0-.43152-.15672,1.77892,1.77892,0,0,1-.2383-.10411.61006.61006,0,0,1-.21362-.2072c-.03972-.07835-.17175-.10089-.13847-.86731l-.059-.11381a3.346,3.346,0,0,0,.62366-.40682c.17926-.15027-.00108-.73852.00323-.80292.00429-.06977-.09233-.53993-.09769-.64086a4.16985,4.16985,0,0,0-.17819-.57854,1.24181,1.24181,0,0,0-.06119-.1503,3.59652,3.59652,0,0,1-.26836-.43474.588.588,0,0,0-.21468-.37679,3.31486,3.31486,0,0,0-.5496-.30161c-.06442-.05153-.40791-.35533-.40791-.35533a2.09483,2.09483,0,0,0-1.53823.16746,1.81837,1.81837,0,0,0-.585,1.07664,1.03247,1.03247,0,0,0,.33383.8459,1.46153,1.46153,0,0,1,.29091.81149,2.7985,2.7985,0,0,0,.25012,1.1325,2.83848,2.83848,0,0,1,.13739.40788,1.68711,1.68711,0,0,1,.0569.88343,2.63493,2.63493,0,0,0-.1417.84373c-.01289.21362-.38644.4165-.424.45836,0,0-.7031.1009-.921-.059"/>
        <path class="cls-2" d="M20.13388,12.95761c-.15028-.39608.63118-.85444.629-.87485-.0322-.48948.62582-.44974.62582-.44974.02469-.40687.848-.28127.848-.28127.38644-.4766.38644-.49056.38644-.49056a5.75954,5.75954,0,0,1,1.95472-.06332c1.08416-.17605,1.1475.26407,1.1475.26407a1.551,1.551,0,0,1,1.03371.37891c.22221-.18141.5378.12344.5378.12344a.99113.99113,0,0,1,.76965.74175c.81474.24366.43689.76537.43689.76537.47231.43579.02253.64836,0,.75463-.0204.103-.01825.29948-.44441.365a.86712.86712,0,0,1-.4605-.09768c-.33812-.15243-.68806-.42832-.87914-.4809-.28232-.07731-.23723-.20611-.23723-.20611-.18677-.044-.161.12775-.25117-.14277l-.12345-.02145s.04615.48731-.161.68806c-.20931.19858-.28338.19321-.42078.18571-.13418-.00859-.438.28873-.62581.40145a.949.949,0,0,1-.38752.15672c-.10518.00645-.33061.47769-.57642.29627,0,0-.18141-.2222-.3435-.06653a.75744.75744,0,0,1-.79112.11806c-.249-.13526-.63762-.18784-.716-.40467-.04937-.13742-.41433-.25548-.6784-.42511l-.06657.03329a2.586,2.586,0,0,0-.7471-.906,2.91161,2.91161,0,0,0-.4884-.30485l.029-.05582Z"/>
        <path class="cls-2" d="M22.32412,21.35607a1.8326,1.8326,0,0,1,.29413-.98542,1.16983,1.16983,0,0,1,.69987-.37249l.48841.12988.47875.12668.29519-.03649s.73209.11056.82226.117c.09123.00537.75677.12776.75677.12776.06332.18463-.32955.31881-.32955.31881l-.70954.117.22006.36172c.22006.35854-.26515.64515-.26515.64515.13955.68269-.29519.8888-.29519.8888a1.59463,1.59463,0,0,1-1.78405-.20932,2.65243,2.65243,0,0,0-.31666-.16317c-.47338-.18676-.34563-.62687-.3553-1.0659"/>
        <path class="cls-2" d="M22.61341,38.29518V38.2941a3.43271,3.43271,0,0,0,1.58868-.55283,3.08967,3.08967,0,0,0,.77825-.8437h.00106l.0451.029c1.53071-.20288,1.81409-2.03952,1.86561-2.63956l-.132.84265s-.34563,1.27847-.30485,1.23015A9.16763,9.16763,0,0,1,25.94,38.12343c-.12345.32523-.63118,1.52-.73209,1.67993l-1.45879,1.50172-.132-.132a4.447,4.447,0,0,1-.29735-1.04448,10.56826,10.56826,0,0,0-.702-1.76257Z"/>
        <path class="cls-2" d="M19.71642,21.17724a1.19169,1.19169,0,0,1-.03-.78362L19.637,20.2938l.90491-.45515s1.34823-.468,2.08676-.79649l.219.059s.89524.63657.979.94892l-.0204.07731-.48733-.12884a2.30805,2.30805,0,0,0-.70095.37142,1.69044,1.69044,0,0,0-.29412.98649c.01072.438-.11808.87915.3553,1.06485a2.84885,2.84885,0,0,1,.31667.16422l-.01932.04616s-1.27739-.04937-1.40943-.06011a2.21847,2.21847,0,0,1-1.8506-1.39437"/>
        <path class="cls-2" d="M20.98426,17.02164a3.65568,3.65568,0,0,0,.48626-.97574,2.462,2.462,0,0,0-.12988-1.82056l.06655-.03329c.26407.16963.629.28769.67842.42616.07728.21578.46694.26836.716.40362a.75744.75744,0,0,0,.79112-.11806c.161-.15567.34351.06653.34351.06653.2458.18142.47015-.28982.57642-.29627a.95452.95452,0,0,0,.38752-.15672c.18785-.11272.49162-.41.6258-.40145.13741.00858.21147.01287.4208-.18571.20717-.20075.161-.68806.161-.68806l.161-.10306a.47275.47275,0,0,0,.28017.26728s-.11163.1288.17067.20611c.19108.05258.541.32847.87914.482l-.02146.0472a1.007,1.007,0,0,0-.1696.31239,15.302,15.302,0,0,0-.62366,1.75183c-.09877.49056-.43905.10952-.43905.10952a1.62793,1.62793,0,0,1-.2383.23507,1.0473,1.0473,0,0,1-.366.0687s-.14922.19429-.21791.21253a.42285.42285,0,0,0-.22006.2587c-.00537.0891-.01181.20287-.21683.23616a2.24087,2.24087,0,0,1-.7761-.27265l-.863-.46911-.12343-.06653-2.193.56892Z"/>
        <path class="cls-2" d="M13.41773,34.06746c-.28875-.22758-.15028-.52064-.19215-1.33538-.04078-.819,1.36648-1.12817,1.73038-1.16466.365-.04079,1.83558-.40575,1.83558-.40575l1.42659-.6097.0161-.01291a.64309.64309,0,0,0,.09875.1063c.15028.11914.31989.33276.47017.4562a.889.889,0,0,0,.584.08052,1.33827,1.33827,0,0,0,.44332-.2222c.11808-.06012.10627-.26515.11594-.42511a5.44844,5.44844,0,0,1,.10626-.64833c.02683-.102.14062-.40041.161-.45623v-.00108c.10306-.132.37249-.20608.43691-.24474.06975-.0397.17925-.14705.25761-.15351a1.13458,1.13458,0,0,1,.32095.13314,1.59011,1.59011,0,0,0,.86412-.03866c.18249-.06119.22435-.12989.19859-.19537l.00858-.00321a9.78861,9.78861,0,0,1,2.324.91026.36314.36314,0,0,1,.03221.02362v.00108l-.02148.03a1.27687,1.27687,0,0,1,.66446.92425c.03435.13739.11914.18034.21683.28123.12022.12344.00429.12665.12774.26728.20073.22971.41864.40575.54745.58609.13632.19.22328.52813.28017.58932l.02576-.00108c.13095.50776.25763,1.15075.25763,1.15075l.13739.59575v.00108c-.05259.60112-.33491,2.43776-1.86562,2.64064l-.04509-.03008h-.00107a3.0818,3.0818,0,0,1-.77931.84373,3.417,3.417,0,0,1-1.58761.55389v.00108a1.69266,1.69266,0,0,1-1.4019-.52922l-.17068-.03a5.92525,5.92525,0,0,0,.54208-1.39761s1.06593-.14384,1.096-.65694c.03113-.511.409-1.2731-2.66319-2.3959A4.43658,4.43658,0,0,0,18.655,34.835a9.24965,9.24965,0,0,0-.62366,1.67671l-.10949-.03007A21.57784,21.57784,0,0,1,15.08477,33.842v.001l-.02361.02149a11.32665,11.32665,0,0,0-1.07022.60325l-.02147-.03325a3.704,3.704,0,0,1-.55174-.36712"/>
        <path class="cls-2" d="M17.79015,38.67741a7.59446,7.59446,0,0,1,.24151-2.16616,9.2824,9.2824,0,0,1,.6226-1.67672,4.44586,4.44586,0,0,1,1.36218-1.549c3.07217,1.12389,2.69325,1.886,2.6632,2.3959-.03112.5131-1.096.65694-1.096.65694a5.8714,5.8714,0,0,1-.54315,1.39762c-.102.20716-.176.34992-.176.34992l-.439.892a17.5214,17.5214,0,0,0-.64621,1.72608c-.04078.29306.46588.35639.6548.40149a3.82764,3.82764,0,0,1,.81045.4562,3.65067,3.65067,0,0,1,.44761.46586.63735.63735,0,0,0,.16853.19429,3.17647,3.17647,0,0,1,.42615.27481s.643.7965.70739.86627c.06334.07083.12345.19.07407.25545a.32957.32957,0,0,1-.18463.07944l-.862-.54959-.63119-.24261a3.16877,3.16877,0,0,1,.585.8169s.20825.48735.30807.731c.09662.24366-.04185.30485-.15779.35209-.11593.05153-.29627-.15459-.29627-.15459l-.3596-.60754-.68806-.91567.13953.41866.14813.36925.1782.61187s.12237.42724.161.53134c.03864.10306-.04509.1653-.10306.21791-.06117.05366-.27157-.04831-.27157-.04831l-.69237-1.44482c-.00108.01287-.00966.1535-.02039.32522-.01074.1825-.4283.35963-.50989.37788a.50545.50545,0,0,0-.292.16209c-.08588.10839-.161.04936-.161.04936-.16532-.09015-.08159-.33492-.0569-.37571.02576-.04615.27158-.17925.33277-.24474.06012-.06332-.058-.37675-.09768-.46694a3.26513,3.26513,0,0,0-.50774-.40466c-.0526-.04724-.51739-.43907-.51739-.43907a3.43822,3.43822,0,0,1-.63012-2.14362v-.00108c-.05259-.62582-.07084-1.30743-.09123-1.94508"/>
        <path class="cls-2" d="M18.40726,20.86744c-.05474-.22541.029-.249.029-.249a5.17562,5.17562,0,0,0,.93925-2.07067c.16424-.48948.48519-.56142.81152-.72243a2.63613,2.63613,0,0,0,.79755-.804l.146.06548,2.192-.56892.12344.06762-.0161.029a1.97984,1.97984,0,0,1-.34887,1.35358h.00109l.06117.03437a4.4224,4.4224,0,0,1-.04507.7675,1.25748,1.25748,0,0,1-.46911.27265H22.628c-.73853.32847-2.08569.79649-2.08569.79649l-.90489.45407-1.14859.57642Z"/>
        <path class="cls-2" d="M13.50264,16.79119c-.716-.90493-.17067-1.68851.84586-2.80276.90491-.99079,3.654-1.27094,4.26261-1.3171l.00107-.02145a3.67454,3.67454,0,0,1,1.49315.365,2.89756,2.89756,0,0,1,.48734.30377,2.59072,2.59072,0,0,1,.74819.90705,2.465,2.465,0,0,1,.12989,1.81948,3.648,3.648,0,0,1-.48627.97683,2.67419,2.67419,0,0,1-.7965.804c-.32739.161-.64835.23294-.81259.72134a5.17973,5.17973,0,0,1-.93926,2.07172s-.08265.02362-.029.248a1.67675,1.67675,0,0,0,.08909.25441,7.55638,7.55638,0,0,1,.83513,2.67605,8.64138,8.64138,0,0,0,.38752,2.60309c.22864.73851.672,1.62624.85229,1.637a1.19436,1.19436,0,0,1,.66446.26835,3.0509,3.0509,0,0,0,.745.40575c.08158.03112.27265.11914.3113.219.02469.06441-.0161.13418-.1986.19538a1.60269,1.60269,0,0,1-.8641.03862,1.10376,1.10376,0,0,0-.321-.1331c-.07836.00537-.18785.11377-.25763.15243-.0644.03865-.33384.1138-.43688.24474v.00216c-.02039.05474-.13418.35422-.161.45511a5.26139,5.26139,0,0,0-.10629.64944c-.00964.15888.00217.36388-.11591.424a1.33462,1.33462,0,0,1-.44334.22328.89609.89609,0,0,1-.58394-.08157c-.15136-.12239-.31989-.33705-.47017-.45623a.59882.59882,0,0,1-.09875-.10627,1.10313,1.10313,0,0,1-.18464-.84265,5.04724,5.04724,0,0,1,.37677-.99612c.00645-.11164-.541-1.549-.541-1.549s-.83834-1.13463-.979-1.41694a5.83768,5.83768,0,0,1-.90168-1.94078,8.792,8.792,0,0,1-.25011-1.50064,2.913,2.913,0,0,1-.09124-.97791c.00644-.13739.01931-.28769.04079-.45086a21.91383,21.91383,0,0,0,.09554-2.35082c.00321-.05474.01395-.16422.0322-.30915l-.10412-.01287c-.74174.27373-1.51032-.49806-2.22523-1.39974"/>
        <path class="cls-2" d="M10.283,33.85223a4.9045,4.9045,0,0,1,.161-.95858,20.67936,20.67936,0,0,0,.40683-2.08784c.00858-.52168-.42187-2.76623-.42293-4.28083a3.80086,3.80086,0,0,1,.92636-2.47429l.00215-.04078a24.79441,24.79441,0,0,0,4.62435-.21038l.02362-.00645a5.87422,5.87422,0,0,0,.90168,1.94078c.14062.28232.979,1.41691.979,1.41691s.54852,1.43735.541,1.549a4.9882,4.9882,0,0,0-.3757.99721,1.10623,1.10623,0,0,0,.18355.84265l-.0161.01179-1.42552.60973s-1.47167.366-1.83665.40683c-.36388.0365-1.77116.34564-1.72929,1.16467.04078.81474-.09769,1.10672.19106,1.33429a3.60449,3.60449,0,0,0,.55175.36709l.02148.03329a3.07735,3.07735,0,0,0-.6269.50559,3.26836,3.26836,0,0,0-.76,1.31926l-.07406-.01075a8.31174,8.31174,0,0,0-1.13678-.672c-.073-.0043-.33382-.04829-.62151-.087l.01181-.08481V35.4366a3.41527,3.41527,0,0,1-.50022-1.58437"/>
        <path class="cls-2" d="M8.04754,23.38592c-.84048-1.2806-.30162-1.79262-.22649-1.856a1.67532,1.67532,0,0,0,1.33321.57c.91349-.12773,1.929-.47123,2.40771-.12773.4766.34672,1.286,1.20975,2.22845.58609.67734-.44657,1.30851-.89526,1.61015-1.11314l.18463-.13418.07836.00321a2.9128,2.9128,0,0,0,.09125.97788,8.82241,8.82241,0,0,0,.25011,1.50175l-.02362.00645a24.7499,24.7499,0,0,1-4.62435.2093,14.28428,14.28428,0,0,1-1.84523-.219,9.013,9.013,0,0,1-.98005-.23832v-.00108c-.1653-.04937-.32739-.10519-.48413-.1653"/>
        <path class="cls-2" d="M7.31729,20.995c-.21468-.19324-.3875-1.06593-.15028-1.27739.23938-.21362.92315-1.03157.92315-1.03157,1.067-1.929,2.16834-2.17907,2.16834-2.17907l.06978.01287c-.131.75784-.2222,1.784-.234,1.96867a3.29438,3.29438,0,0,0,.91564,1.37186,3.7438,3.7438,0,0,0,1.23766.47769c.27159.01716,1.55327.54422,1.77547.60433l1.331.44224.04616.06119c-.30163.21683-.9328.66553-1.61015,1.11209-.94247.62366-1.75184-.23937-2.22844-.58608-.47875-.34351-1.49316,0-2.40773.1288a1.675,1.675,0,0,1-1.33213-.57c-.23936-.22865-.41541-.45406-.50451-.53563"/>
        <path class="cls-2" d="M9.49711,39.02563c-1.57043.029-1.07772-1.66272-1.01009-2.29284.06763-.63119,1.1314-1.23015,1.46631-1.2688a4.1382,4.1382,0,0,1,.819.058c.2866.03862.54744.08265.62044.08694a8.42475,8.42475,0,0,1,1.13676.672l.07407.01071a1.03285,1.03285,0,0,0,.5217,1.14321l-.00323.03112c-.44226-.04291-.95857-.03112-1.0831-.03862a4.50979,4.50979,0,0,0-1.56506.90489.76893.76893,0,0,1-.09768.10414,6.1508,6.1508,0,0,1-.87915.58929"/>
        <path class="cls-2" d="M11.19776,48.0675a13.81622,13.81622,0,0,1-.70418-1.4631,7.94438,7.94438,0,0,1,.69345-2.01052,3.784,3.784,0,0,0,.26513-1.40515.8823.8823,0,0,1,.27373-.52705l.04723-.05795c.02361.02253.0483.044.07192.06548a17.30821,17.30821,0,0,0,3.57562,2.81023c1.37935.66123,4.41717,1.86564,4.74243,1.97836.06761.02254.19535.07082.35638.13526l.00535-.014.65373.06012c2.68144.09873,2.81132-1.0681,3.32658-2.12758a2.11083,2.11083,0,0,0,.14813-.38429l.1009.03007a8.7116,8.7116,0,0,1,.62366.91885,4.0085,4.0085,0,0,1,.09447,2.02022c-.03328.38534-.27481.42616-.80937,1.038-.53565.61616-1.7658.38217-2.33472.22437a22.02361,22.02361,0,0,0-2.65032-.52276,11.56388,11.56388,0,0,1-2.64924-1.16467,23.35948,23.35948,0,0,1-2.324-1.827,2.164,2.164,0,0,0-.89633-.33811,7.973,7.973,0,0,0-1.58545.93818.89541.89541,0,0,0-.3274.35422c-.05366.14063.00966.22541.06977.365.06011.14063.20718.13634.31881.17821.10843.03862.321.11056.44226.15026.1213.04187-.22006.45194-.28984.48306-.06976.02791-.05365.15242-.059.24258s-.19.13955-.25869.15567a3.2072,3.2072,0,0,1-.32741-.00967,1.92674,1.92674,0,0,1-.3714-.043.75869.75869,0,0,1-.2222-.25332"/>
        <path class="cls-2" d="M10.0947,18.48805c.01074-.18463.102-1.20974.234-1.96866.029-.16963.06119-.32742.09339-.45728.17711-.71171.78146-.94892,1.20331-1.19474.42294-.249.88451-1.169,1.3536-1.45989a12.53627,12.53627,0,0,1,2.67286-.745,11.77656,11.77656,0,0,1,2.8081-.01287s.05582-.00321.15242,0l-.00106.02145c-.60864.04616-3.35771.32634-4.26262,1.31713-1.01653,1.1153-1.56185,1.89888-.84586,2.80273.71491.90168,1.48349,1.67347,2.22416,1.39977l.10413.01288c-.01718.14489-.02791.2544-.03114.30914a22.20494,22.20494,0,0,1-.09554,2.35082c-.02146.16317-.03541.31344-.04078.45083l-.07836-.00429s-.06763.0494-.18571.13526l-.04508-.0612L14.02239,20.943c-.2222-.06011-1.50389-.58824-1.77545-.60436a3.74679,3.74679,0,0,1-1.23767-.47873,3.27429,3.27429,0,0,1-.91457-1.37187"/>
        <path class="cls-2" d="M11.10458,39.90445A4.81606,4.81606,0,0,0,13.99,41.13784c1.4706.087,3.02387.30165,3.8912-.51417a3.45209,3.45209,0,0,0,.63011,2.14365s.4648.3918.51739.438a3.23943,3.23943,0,0,1,.50774.40575c.03972.09019.15779.40362.09767.46694-.06117.06549-.307.19862-.33276.24477-.0236.04079-.10841.28553.0569.37568,0,0,.07514.05906.16209-.04937a.49969.49969,0,0,1,.292-.16209c.08053-.01824.49808-.19537.50989-.37783.00967-.17176.01825-.31239.01933-.32526l.69343,1.44485s.20932.102.27051.04723c.059-.05152.1417-.1138.103-.21686-.03864-.10519-.161-.53134-.161-.53134l-.17819-.61187-.14705-.36925-.13955-.41862.687.91563.36068.60758s.17927.20608.2952.15455c.11592-.04724.2544-.1084.15778-.35209-.09983-.24366-.307-.731-.307-.731a3.18164,3.18164,0,0,0-.58611-.81687l.6312.24258.862.54854a.33081.33081,0,0,0,.18571-.07835c.0483-.06657-.01181-.18463-.07515-.25549s-.70739-.86627-.70739-.86627a3.14039,3.14039,0,0,0-.42508-.27478.65133.65133,0,0,1-.1696-.19429,3.6484,3.6484,0,0,0-.44763-.46589,3.80022,3.80022,0,0,0-.81044-.4562c-.18893-.04507-.69559-.10843-.65479-.40145a17.75963,17.75963,0,0,1,.64728-1.72609l.438-.892s.07407-.14276.17711-.34993l.17067.03113a1.69273,1.69273,0,0,0,1.40084.52813l.00538.07086a10.586,10.586,0,0,1,.702,1.76149c.03758.27694.39288,1.42232.68163,2.32613.18679.58287.3478,1.06485.37785,1.14858a1.96717,1.96717,0,0,1,.30915,1.37724q-.01448.07242-.03542.14813a2.1729,2.1729,0,0,1-.14813.38426c-.51524,1.05948-.64513,2.22631-3.32657,2.12649l-.65373-.06011-.00536.015c-.161-.06549-.28877-.11273-.35638-.13635-.32633-.11272-3.36308-1.316-4.74243-1.97727a17.31408,17.31408,0,0,1-3.57562-2.81131c-.02468-.02041-.04937-.04187-.07192-.06441a3.00818,3.00818,0,0,1-.70095-2.66855l.0322-.03007Z"/>
        <path class="cls-2" d="M7.43044,34.70379c-.56463-.03436-.37678-.30056-.37678-.30056.07728-.10843.18678-.42078.25118-.53672,1.15179-1.60156.87592-4.39571.85446-6.505a4.91394,4.91394,0,0,1,1.34286-3.51874l.00966-.05258a14.08087,14.08087,0,0,0,1.84523.219l-.00215.04187a3.805,3.805,0,0,0-.92744,2.47426c.00108,1.51354.43153,3.75918.42293,4.27978a20.38212,20.38212,0,0,1-.40683,2.08892l-.19.88451.23724,1.26986s.20072.49809-.63226.409a1.31147,1.31147,0,0,1-1.40191-.31344,1.185,1.185,0,0,0-1.02619-.44011"/>
        <path class="cls-2" d="M10.99177,39.78082a3.16035,3.16035,0,0,1-.43259-1.32463l-.1825-.02041a.77069.77069,0,0,0,.09769-.103,4.50363,4.50363,0,0,1,1.56507-.906c.12344.00859.64084-.00321,1.0831.03866l.00321-.03112a1.29479,1.29479,0,0,1-.54638-.96825,1.11127,1.11127,0,0,1,.0247-.17388,3.26237,3.26237,0,0,1,.75892-1.32034,3.08391,3.08391,0,0,1,.628-.50343,11.05792,11.05792,0,0,1,1.07022-.60328l.02361-.02254a21.72669,21.72669,0,0,0,2.83709,2.63959l.10949.029a7.59446,7.59446,0,0,0-.24153,2.16619c.0204.63762.03864,1.31926.09125,1.94508v.001c-.86733.81582-2.4206.6022-3.8912.51418a4.81888,4.81888,0,0,1-2.88539-1.23337c-.044-.044-.08159-.08589-.11271-.12343"/>
        <path class="cls-2" d="M5.735,34.27485s-.33062-.0322-.25119-.10522a9.58871,9.58871,0,0,0,.57537-.88343c.03435-.06012.20073-.5131.34672-.833A5.54121,5.54121,0,0,0,6.73,31.456a6.35313,6.35313,0,0,0,.35744-1.13354L7.3204,26.9669A6.07524,6.07524,0,0,1,8.51514,23.607l.01717-.05474a9.31826,9.31826,0,0,0,.979.23832l-.00965.0515a4.92314,4.92314,0,0,0-1.34287,3.51981c.02147,2.1093.56569,4.02646-.30914,5.59367l-.32526.65694-.439,1.09168c-.03864.01932-.35961-.23724-.61831-.15672-.26084.08049-.68056-.07944-.73207-.27265"/>
        <path class="cls-2" d="M4.33239,33.2859c-.62366-.29522.40791-1.2409.40791-1.2409l.82761-1.16145a5.77779,5.77779,0,0,0,.81689-1.696,11.16528,11.16528,0,0,0,.3478-2.57623C7.045,24.064,8.04754,23.38559,8.04754,23.38559c.15674.06012.31883.11594.48413.16534v.001l-.0161.05474a6.07975,6.07975,0,0,0-1.19473,3.35986L7.0879,30.32213a6.43142,6.43142,0,0,1-.35853,1.13463,8.33381,8.33381,0,0,1-.366,1.01761l-.848,1.65415s-.3875-.28232-.63869-.44975c-.32525.07728-.54424-.39287-.54424-.39287"/>
        <path class="cls-4" d="M9.49131,23.83858A3.83765,3.83765,0,0,0,8.14738,27.046c.02145,2.11145.33276,5.01187-.54209,6.58124a3.69466,3.69466,0,0,1-.21254.33705s-.67412.79328-.10842.82653c.56355.03436.89631-.01071,1.17327.30056a1.44305,1.44305,0,0,0,.37892.32847,3.63705,3.63705,0,0,0,1.20009.03758m1.30851-11.40953a3.79978,3.79978,0,0,0-.92744,2.47534c.00108,1.51462.43153,3.76131.423,4.283a13.3957,13.3957,0,0,1-.30273,1.88064,4.45566,4.45566,0,0,0,.10092,2.69754m-2.821-13.86662-.00751.00645c-.07622.06332-.61508.57642.22542,1.857m7.543-2.076s-.06762.04937-.18569.13418c-.30271.21791-.9339.6666-1.61124,1.11422-.94246.62366-1.75291-.24045-2.22951-.58717-.47875-.3435-1.49422,0-2.40986.12881a1.67405,1.67405,0,0,1-1.33214-.571c-.24045-.22757-.41542-.45407-.5045-.53567-.21577-.19321-.3886-1.0659-.1503-1.27843.23938-.21254.92315-1.03157.92315-1.03157,1.067-1.93,2.16943-2.18015,2.16943-2.18015m9.96146,12.93165c-.02147.05582-.13526.35422-.16208.4562a5.46786,5.46786,0,0,0-.10627.64944c-.00967.15888.00214.365-.11594.42508a1.33827,1.33827,0,0,1-.44332.2222.89286.89286,0,0,1-.585-.08049c-.15028-.12347-.31881-.33709-.47016-.45731A.6783.6783,0,0,1,18.228,30.54a1.1074,1.1074,0,0,1-.18463-.84373,4.947,4.947,0,0,1,.37785-.9972c.00644-.11165-.54209-1.55-.54209-1.55s-.83834-1.13571-.979-1.41694a5.85193,5.85193,0,0,1-.90275-1.94292,8.91008,8.91008,0,0,1-.25011-1.50172,2.91707,2.91707,0,0,1-.09125-.979c.00644-.13631.01933-.28769.04079-.45082a21.93769,21.93769,0,0,0,.09554-2.35191c.00322-.05474.01395-.16422.0322-.31022a8.69913,8.69913,0,0,1,.38644-1.77116,25.21472,25.21472,0,0,1,1.30207-2.43669M20.2117,29.42153l-.00215.0075M15.3469,21.37936l-1.33213-.44224c-.2222-.06012-1.505-.58825-1.77655-.60545a3.72419,3.72419,0,0,1-1.23873-.47765,3.29742,3.29742,0,0,1-.91564-1.37295c.01181-.18567.103-1.21082.23508-1.97082.029-.16959.06011-.32631.09339-.45728.17711-.71276.78146-.94892,1.20332-1.19579.42293-.248.88558-1.17007,1.35467-1.461a12.52925,12.52925,0,0,1,2.67392-.745,11.79783,11.79783,0,0,1,2.81025-.01287s.05582-.00213.15244,0a3.67558,3.67558,0,0,1,1.49314.365,2.93955,2.93955,0,0,1,.48841.30485,2.60257,2.60257,0,0,1,.74819.90706,2.47012,2.47012,0,0,1,.12988,1.82164,3.679,3.679,0,0,1-.48626.97683,2.687,2.687,0,0,1-.79757.804c-.32739.161-.64834.23291-.81258.72243a5.199,5.199,0,0,1-.93925,2.0728s-.08373.02362-.03006.249a1.79863,1.79863,0,0,0,.08909.25332,7.55366,7.55366,0,0,1,.83621,2.67821,8.63858,8.63858,0,0,0,.3875,2.60415c.22864.73962.672,1.62735.85338,1.63806a1.21026,1.21026,0,0,1,.66446.26836,3.00152,3.00152,0,0,0,.745.40683c.08159.03115.27373.11917.31129.219.02577.06548-.015.13418-.19858.19537a1.60251,1.60251,0,0,1-.86411.03866,1.11691,1.11691,0,0,0-.32095-.13313c-.07944.00537-.18785.1138-.25763.1535-.0644.03866-.33491.11273-.43689.24474v.00108a.13546.13546,0,0,0-.02255.03437M15.72045,18.18376c-.74174.27369-1.51139-.49915-2.2263-1.40086-.717-.90489-.17068-1.68956.84693-2.80486.90491-.99186,3.65506-1.271,4.26476-1.31817m-.12345,8.20423,1.14965-.5775.9049-.45407s1.34823-.46907,2.08784-.79754a1.25189,1.25189,0,0,0,.46909-.2716A4.35437,4.35437,0,0,0,23.14,17.9948m.2866-1.389a1.98321,1.98321,0,0,1-.34886,1.35466,1.18233,1.18233,0,0,1-.2673.24045l-.75461.50022m4.28837-2.39485s.3392.38108.438-.10948a15.30424,15.30424,0,0,1,.62474-1.75291,1.00667,1.00667,0,0,1,.16959-.31238m-6.45026,2.9466,2.193-.56892.12451.06761.863.46911a2.2408,2.2408,0,0,0,.77609.27265c.2061-.03329.21254-.14709.21791-.23724a.41747.41747,0,0,1,.22006-.25761c.06869-.01825.21682-.21362.21682-.21362a1.05285,1.05285,0,0,0,.36711-.0687,1.54233,1.54233,0,0,0,.23939-.23511v-.001m-6.21518-3.35878c-.131-.3435.22541-.66231.38107-.75358.02361-.01395.25654-.0644.25654-.0644-.00322-.02362-.00643-.03649-.00858-.05687-.03114-.49056,1.47489-.73209,1.47489-.73209.04295-.96287,2.34224-.55388,2.34224-.55388a3.34173,3.34173,0,0,1,2.18228.644c.85554-.16313,1.30745.86519,1.30745.86519.81582.24369.4605,1.41481.438,1.52108-.02039.103-.01824.29948-.4444.365a.86713.86713,0,0,1-.4605-.09769,3.67764,3.67764,0,0,1-.877-.38966l-.61508-.46157s.04616.48627-.161.68806c-.20933.1975-.2834.19321-.4208.18571-.13525-.00859-.438.28876-.62689.40145a1.88751,1.88751,0,0,1-.96394.453,2.8353,2.8353,0,0,1-1.13569.05153c-.249-.13418-.81366.12022-.891-.09661a1.15648,1.15648,0,0,0-.46586-.51418m4.005,1.89034.292.31881m-6.04021,3.68508a1.4438,1.4438,0,0,0,.014.877,2.21705,2.21705,0,0,0,1.85168,1.39437c.132.01183,1.41048.06011,1.41048.06011m-.1288-3.53265s.89524.63653.979.95M18.21189,30.55187l-1.42659.61078s-1.47168.365-1.83773.40683c-.36388.03541-1.77116.34564-1.73037,1.16467.04186.81582-.09769,1.10776.19214,1.33642a3.70412,3.70412,0,0,0,.55176.36712m1.09168-.57a11.04886,11.04886,0,0,0-1.07023.60329,3.123,3.123,0,0,0-.628.50448,3.27854,3.27854,0,0,0-.76,1.32033,1.0344,1.0344,0,0,0,.5217,1.1443m-.59576-1.155a8.443,8.443,0,0,0-1.13784-.67195c-.07192-.00429-.33383-.04831-.62151-.087a4.05947,4.05947,0,0,0-.818-.059c-.336.03974-1.39974.63869-1.46737,1.26989s-.56034,2.324,1.01009,2.295a6.08159,6.08159,0,0,0,.88023-.59041.77391.77391,0,0,0,.09767-.10411,4.51673,4.51673,0,0,1,1.56614-.906c.12453.00859.64084-.00324,1.08309.03971a1.12816,1.12816,0,0,1,.6548.18783c.19752.25336.32632,1.10672.44119,1.20441.11592.0966,1.03586.84694,1.03586.84694m5.53247,3.42426v.00216l.68808.91563.36067.60863s.17926.20611.29519.15458c.11593-.04723.2544-.10843.15888-.35209-.09983-.24369-.30808-.73209-.30808-.73209a3.15357,3.15357,0,0,0-.5861-.81686l.63226.24257.862.54959a.33484.33484,0,0,0,.18571-.0794c.0483-.06549-.01181-.18466-.07621-.25549-.06334-.07085-.70739-.86627-.70739-.86627a3.22551,3.22551,0,0,0-.4251-.27586.65148.65148,0,0,1-.16959-.19429,3.72019,3.72019,0,0,0-.44763-.46589,3.78021,3.78021,0,0,0-.81043-.4562c-.19-.04507-.6956-.10948-.65588-.40253a17.80169,17.80169,0,0,1,.64728-1.72717l.43905-.8931s.07407-.14168.176-.34884a5.91116,5.91116,0,0,0,.54317-1.3987s1.06591-.14492,1.097-.658c.03006-.51094.409-1.2731-2.66532-2.397a4.4434,4.4434,0,0,0-1.3622,1.55,9.37512,9.37512,0,0,0-.62366,1.6778,7.60254,7.60254,0,0,0-.24153,2.16724c.02148.63761.03866,1.32034.09125,1.94616m2.46139,3.16232v.00108l.69451,1.4459s.20931.10306.27051.04832c.059-.05261.14169-.11486.103-.21791-.03864-.10519-.161-.53135-.161-.53135l-.17819-.61186-.14814-.37034-.13955-.41862m-2.90256-2.50649a3.44948,3.44948,0,0,0,.63118,2.14582s.46479.39179.51739.439a3.26513,3.26513,0,0,1,.50774.40466c.03972.09124.1578.40362.09769.468-.0612.06548-.307.1975-.33277.24365-.0247.04187-.10841.28661.05689.37679,0,0,.07515.059.16209-.04936a.49923.49923,0,0,1,.292-.16209c.0805-.01933.49914-.19538.50987-.37787.01074-.17281.01825-.31344.01933-.32631m-5.5926-10.305s.12667.13847.33384.35747a21.75668,21.75668,0,0,0,2.83816,2.64172m-7.367,1.97511a3.1751,3.1751,0,0,0,.43366,1.32568c.03.03757.06871.07835.11272.12346a4.80987,4.80987,0,0,0,2.88646,1.23336c1.47168.088,3.026.30273,3.89334-.51417v-.001l.00537-.00433m-6.81737-.68269a3.00658,3.00658,0,0,0,.701,2.66963c.0236.02254.04722.044.0719.06549a17.30331,17.30331,0,0,0,3.57777,2.81239c1.37937.66123,4.41933,1.86672,4.74458,1.97941.06869.02253.19643.07085.35638.13634a11.3942,11.3942,0,0,1,1.87743.9006m-10.6753-5.83628a.87677.87677,0,0,0-.27373.52814,3.79258,3.79258,0,0,1-.26513,1.40619,7.903,7.903,0,0,0-.69452,2.01164,13.82877,13.82877,0,0,0,.70525,1.46415.75243.75243,0,0,0,.22113.25227,1.94837,1.94837,0,0,0,.37249.044,2.932,2.932,0,0,0,.32739.00858c.06869-.015.25333-.0644.25869-.15455s-.00966-.21578.05905-.24369c.06977-.03.4122-.44116.28981-.483-.12129-.03974-.33382-.11164-.44224-.1503-.11164-.04186-.25871-.03649-.31882-.17817-.06011-.13955-.12344-.22436-.06976-.365a.90085.90085,0,0,1,.32847-.35534,7.99649,7.99649,0,0,1,1.58545-.93817,2.16836,2.16836,0,0,1,.89739.33813,23.52977,23.52977,0,0,0,2.324,1.82915,11.65185,11.65185,0,0,0,2.65139,1.16466,22.1074,22.1074,0,0,1,2.65245.52277c.56785.15779,1.79908.39287,2.33472-.22329.53457-.61291.77716-.65478.80937-1.03907a4.01565,4.01565,0,0,0-.0934-2.02235,8.70768,8.70768,0,0,0-.62366-.91885m-2.456-16.24106a9.8099,9.8099,0,0,1,2.32612.91026c.01075.00859.02148.015.03221.02362a1.05383,1.05383,0,0,1,.20289.18679M22.614,38.37181a10.58849,10.58849,0,0,1,.702,1.76365c.03864.2759.394,1.42232.68377,2.32721.18679.58287.34672,1.06485.37677,1.14966a1.95813,1.95813,0,0,1,.31023,1.37721q-.01448.07248-.03541.14813a2.317,2.317,0,0,1-.14814.38429c-.51526,1.06056-.64621,2.22844-3.32872,2.12862l-.65373-.06011m4.50307-10.65919c1.53179-.20288,1.827-2.10287,1.8667-2.704a4.969,4.969,0,0,0-.13741-.59791s-.12666-.58071-.25761-1.08843a28.98345,28.98345,0,0,0-1.63806-2.49359m-.20719-.24906s-.23293-.98754.17068-1.17433l.05582-.05045c.07407-.06761.20824-.19108.29627-.28982.131-.14276.424-.49272.60541-.50776a.96591.96591,0,0,0,.50237-.33168,1.27466,1.27466,0,0,1,1.12174-.56783,16.32154,16.32154,0,0,1,2.0975.27586,7.46461,7.46461,0,0,0,1.1067.701,2.19037,2.19037,0,0,1,.29627.02466.76159.76159,0,0,1,.63977.48414.48522.48522,0,0,1,.0483.69773s.643.36925.745.68056c.102.307.18677.91671-.36819,1.09489,0,0-.66875.08052-.789.073,0,0-.044-.27373-.19321-.3156a.51318.51318,0,0,0-.45621.06549,6.7285,6.7285,0,0,1-.8448.49377c-.15457.04723-.42936.09339-.46373.18246-.03649.08911-.146.29414-.702.59149-.0043.00213-2.05993.468-2.06959.47123m.58289.25978a3.84913,3.84913,0,0,0,.43259.69343,1.80784,1.80784,0,0,0,1.505.44546c.21039-.06333.26727-.22542.38966-.248.12129-.02362.28338-.1943.43689-.2147.15134-.02146.32309-.37463.32309-.37463s.50666.1213.52491-.18247c.01825-.30056.03328-1.052.03328-1.052a1.21711,1.21711,0,0,0,.50129-.81579m-1.68422,2.37657-.20072-.16209m.82224-.16425s-.38213-.11485-.37463-.23616m-8.53486,5.04945a1.69611,1.69611,0,0,0,1.403.52921V38.2999a3.503,3.503,0,0,0,2.36907-1.39761c.4766-.89631.82869-2.12217-.56355-3.87833M31.79834,22.6385a1.17057,1.17057,0,0,0,.39825,1.04336c.059.10414.14061.2587.14061.2587a1.0839,1.0839,0,0,0,.50452-.06333,1.88676,1.88676,0,0,0,.512-.36175c.40254-.30056.07944-.59358.17819-.906a.67771.67771,0,0,0-.19106-.6.11032.11032,0,0,0,.11914-.10519c.00644-.1138-.30808-.3607-.35209-.38429-.04293-.0247.03543-.17713-.04722-.33276a2.83384,2.83384,0,0,1-.16-.55175c-.00429-.0494-.07514-.34459-.08373-.38322a.64169.64169,0,0,0-.37248-.46694c-.00966-.21686-.27373-.38537-.27373-.38537.06334-.47339-.40468-.41541-.4605-.62474-.05581-.205-.47875-.409-.47875-.409a1.11037,1.11037,0,0,0-.67948-.35422,3.44822,3.44822,0,0,0-.91672.25978,1.005,1.005,0,0,0-.63439.06332.98788.98788,0,0,0-1.08847.57966,1.8624,1.8624,0,0,0-.54423.57963,20.35807,20.35807,0,0,0-.6301,2.20594c-.08266.61078-.03972.47981-.09768.63974-.1009.278-1.26666,1.3053-.68163,1.72716.58609.41971.75247.48627.85982.76321.10949.278,1.78619.48519,2.14793.3231s.56571-1.35037.56571-1.35037a2.34994,2.34994,0,0,0-.0569-.88452,2.83811,2.83811,0,0,0-.13739-.40791,2.8027,2.8027,0,0,1-.25012-1.13354,1.45871,1.45871,0,0,0-.29089-.8115,1.02911,1.02911,0,0,1-.33384-.84586,1.82153,1.82153,0,0,1,.585-1.07881,2.106,2.106,0,0,1,1.53932-.16638s.34349.30269.40789.3553c.06548.04832.33278.21791.51632.37463a.81924.81924,0,0,1,.25549.43153m.44976.60754c.00645.10093.1535,1.00045.14921,1.07022-.00429.06441.26407.74176.08588.892a3.89333,3.89333,0,0,1-.71276.40683A7.28908,7.28908,0,0,1,29.2908,22.281m-3.33193,1.78619s-2.45924,1.41049-1.97084,5.35751m6.86141-4.3753.06117,2.792m-4.7714,14.02442s-.23831-3.39206-.14278-3.87937m3.23-23.16149s.00751-.87485.248-1.08847a1.95632,1.95632,0,0,1,.83942-.47123.67178.67178,0,0,1,.37892.03c.44334.18034,1.69174.75355,2.01269,1.48134a.92808.92808,0,0,1,.015.93389.71269.71269,0,0,1-.26621.22865,3.63569,3.63569,0,0,1-.7514.21575m3.17629-6.05415.00858.00429m-4.59215,3.01527a1.55957,1.55957,0,0,1,.30164-1.73467c.76427-.90384,1.01224-1.02515,1.331-1.06593.31988-.04079.88343-.11486.88343-.11486a1.93468,1.93468,0,0,1,2.06745-.10518m-2.003,10.29744s.53135-1.22694.58071-1.301a4.15386,4.15386,0,0,0-.00214-3.73124c-.146-.36283-.702.31452-.72993.3478l-.00108.00213m5.70853,1.64772s-.15457.71063-.25869.672c-.10306-.03649-.3961-.52922-.3961-.52922l.31236-1.09168.13739-1.35037.00538-.06224,1.05627-1.71967a1.84576,1.84576,0,0,0-.2351-.85981,2.19746,2.19746,0,0,1-.51847-.67948c-.02145-.15243-.14276-.65694-.14276-.65694s-.77825.63116-.94892.72884a2.54869,2.54869,0,0,1-.891-.02361.74976.74976,0,0,0-.58823.26622c-.087.175-.39181.71814-.47446.83407a2.8969,2.8969,0,0,0-.17713.95534.66651.66651,0,0,1-.13524.36284,1.48263,1.48263,0,0,0-.175.28336c-.07192.19108.02256.37679.06334.68272a3.40089,3.40089,0,0,1-.058.964c-.03864.14814-.29627.14919-.35423.146a2.04128,2.04128,0,0,0-.38965.18679s.06976-.41974.09338-.52493a6.767,6.767,0,0,0-.3231-.90918,16.35945,16.35945,0,0,1-.25977-1.99552,11.49073,11.49073,0,0,1,.37248-1.39545,5.538,5.538,0,0,1,.42938-1.15183,2.849,2.849,0,0,1,.30271-.39392v-.00108a7.57442,7.57442,0,0,1,.66875-.68164,6.91793,6.91793,0,0,1,1.169-.36713,2.55124,2.55124,0,0,1,1.85705.54746s.73744.03007.95.49377a5.48135,5.48135,0,0,1,.5775,1.4556c-.04293.22541-.17819.45836-.15457.58179a4.06778,4.06778,0,0,1-.12237,1.02082q-.01287.03705-.02576.07086a.92551.92551,0,0,0-.07944.43474c.02041.16854.1825.72243.08587.83728-.09767.1138-.26942.22544-.27586.33171-.00645.103-.00751.60217-.16531.72885a.64542.64542,0,0,0-.23616.40683c-.00537.09339.13741.73422-.07513,1.009a1.25033,1.25033,0,0,1-.2061.2147v.001a.38181.38181,0,0,0-.248.058Zm-3.187-3.143s.36069,1.27418,1.03051,1.45022a3.31224,3.31224,0,0,0,1.89461-.61186m5.46915,2.43026c-.00108-.01179-.00429-.13739-.00429-.13739m-3.727-4.08873a6.92184,6.92184,0,0,1,3.26109,2.806,3.80824,3.80824,0,0,1,.46909,1.2237c.00214.13526.00214.18787.00108.19645v.00108m.96179,1.05732a3.38192,3.38192,0,0,0-.99508-1.009,6.16865,6.16865,0,0,0-1.25377-.70094m-3.49509.3628s-.33814,1.37079,1.54466,2.70721m-4.882,4.019-1.93433-.92746M34.7417,42.94356a1.91814,1.91814,0,0,0,.34457-1.62194c-.28875-1.22373-.24367-1.49314-.13095-1.8506.07192-.22649,1.60155-2.0481,2.64386-3.95347.11165-.2018.21683-.40467.31344-.60649a5.02074,5.02074,0,0,0,.6344-2.44419l.92638-1.97836.00859-.01933m-6.77231,16.8057-.28446,1.505.58933-1.57687,1.09168-2.76519,1.33965,3.64217L34.67515,42.95l-.05153-.5453a1.11539,1.11539,0,0,0-.78575.45836,6.68669,6.68669,0,0,0-.59683,1.67239,2.41929,2.41929,0,0,1-.25011.62045l-.00108.00108c-.32418.00858-.29412-.44762-.29412-.44762l-.11806-1.95257a.90279.90279,0,0,1-.24261-.27373,2.23913,2.23913,0,0,1-.12129-1.15825,5.37136,5.37136,0,0,1,.69558-1.60586c.13418-.293.38214-1.07664.61293-1.84306.27479-.91567.52491-1.80769.52491-1.80769a12.813,12.813,0,0,1,.52813-2.529,3.12337,3.12337,0,0,1,1.02728-1.67779,3.48058,3.48058,0,0,0,.3961-.87482M33.006,45.157l-.29627,2.11788m3.57348-20.3813a1.551,1.551,0,0,1-.30594.55713c-.15671.11056-.91028,1.09276-.76858,1.73466.14278.64407.47017,1.75076.47017,1.75076l.30914-.0365,2.88433-.34671a4.00884,4.00884,0,0,0,.439-.13956,2.12678,2.12678,0,0,0,.80722-.48089c.3553-.3993,1.36219-2.06206,1.36219-2.06206m-13.522,20.51547,4.50092,1.47919L40.871,47.47346,36.076,46.48805l-3.06142.71492-.30487.07191-4.751,1.111h-.00106m0,0-.00109,1.18187,4.56533,1.54037,8.34917-2.455v-1.1797m-8.41143,2.39161-.00216,1.16682m3.28472-26.20145a.44112.44112,0,0,1-.17819-.43473c.07084-.25441-.19644-.73209.01287-.84587.13955-.07835.15886-.45085.32095-.72458a.56885.56885,0,0,1,.3843-.28766c.56033-.11056.3349-.64193.746-.76537.41435-.12235.78146-.43045.92959-.42186a6.35041,6.35041,0,0,0,.82761-.24687c.06764-.01075.24689-.03974.43368-.05907a1.27419,1.27419,0,0,1,.526.00646,4.87175,4.87175,0,0,0,.60328.27481,2.11166,2.11166,0,0,0,.44118.13847c.18463.01071.88666.29411,1.01439.30161.131.00861.55067.03328.50451.19753-.0483.16209-.14705.30377-.059.34564.09232.04186.35853.18679.33491.27694-.02362.09231-.16424.28769-.1331.39717.029.1138.30163.49809.34886.63119.04831.131.07084.33384-.02576.4197-.09875.088-.19429.1578-.12452.23187a.28455.28455,0,0,1-.05582.33063c-.07835.06869-.18356.2662-.26084.3553a5.33332,5.33332,0,0,1-.42078.54314c-.11487.08589-.44549.04832-.4895.19216-.04615.146-.49807.28339-.60755.27694s-.68486.36388-.78254.13739a1.4267,1.4267,0,0,1-.04616-.75892c.04616-.14276.219-.26082.263-.37138a.3975.3975,0,0,0-.01825-.33276c-.05045-.05691-.33276-.29735-.09769-.53672A6.529,6.529,0,0,0,40.915,22.763a.63149.63149,0,0,0-.0408-.53672,7.16162,7.16162,0,0,0-.731-.42937,5.42314,5.42314,0,0,0-1.00258-.19108,2.16633,2.16633,0,0,0-.833.08157c-.19109.11488-.66232.29093-.75786.35854-.0966.0687-.468.41433-.468.41433l-.52493.4487a2.932,2.932,0,0,0-.69021,1.92791,4.9799,4.9799,0,0,0,.05474.98112,2.29513,2.29513,0,0,0,.44334,1.0337c.102.12559.87163.72134.87163.72134s.31022.058.38214.06227a.54808.54808,0,0,1,.38858.29735c.09661.20825.32633,1.03695.79434.89739l.33061-.3113s.48627.19213.57752.23507c.0805.04079.85123.423,1.76472-.88772a5.3179,5.3179,0,0,0,.28767-.46265s.31453-.80616.657-1.45343c.07942-.0365.3714-.219.4648-.25333a2.77632,2.77632,0,0,0,1.3697-1.73683s.0075-.19212-.00752-.46907m-.88666,3.37486c-.03864.26836-.44655,1.783-.48733,2.09963a1.85623,1.85623,0,0,0,.07406,1.02194,6.12763,6.12763,0,0,1,.34457,1.81407,18.96464,18.96464,0,0,1-.38214,2.21773c-.02791.1213-.05153.22007-.07084.30056l-.08052.34888-.57,1.22265s-.94354,1.8259-1.10457,2.24776a4.72776,4.72776,0,0,0-.14061,3.86542l.31237,1.14858c.53349,1.66276.72134,1.80874,1.32569,1.90963m1.52427-6.03269a21.63615,21.63615,0,0,1-.62366,3.58743,6.36353,6.36353,0,0,0-.5818,1.78082,5.33726,5.33726,0,0,1-.33062,1.38258,3.75863,3.75863,0,0,0-.26836.65157,1.27,1.27,0,0,0-.0483.4616c.04078.43474.06548.79754.38.83832a2.90235,2.90235,0,0,0,.79647-.06545,3.43232,3.43232,0,0,0,.66875.17709,1.233,1.233,0,0,0,.66017-.04936c.1653-.10519.48948-.22008.63118-.32634.1417-.10519.55067-.4637.54209-.73743A4.95891,4.95891,0,0,0,45.256,45.5123s-.03327-.11377-.07407-.28982a2.98652,2.98652,0,0,1-.01181-1.66489c.30916-.61615,3.6937-5.32959,3.464-8.67445m1.97726-.47015a3.26924,3.26924,0,0,0-2.003.43153l-.00106.00108a1.88167,1.88167,0,0,0-.47554.46265,33.774,33.774,0,0,1-4.07906,3.64751c-.47231.38-.86518.69022-1.08953.86735a6.58832,6.58832,0,0,0-.53672.72243A27.10188,27.10188,0,0,1,48.12313,26.3966M39.20825,20.907a3.50579,3.50579,0,0,1,1.21836-.94675c.17605-.07731,3.6851-1.91717,6.85387-1.345M44.13854,22.5741c.00752-.10952.94677-3.03889,2.76624-3.79031a1.796,1.796,0,0,1,1.44591-.06119c.38429.1653,1.48672-.25653,2.74049.70526l1.0058-.31451a2.20806,2.20806,0,0,1,2.57732,2.1372c0,.92209-1.257,2.09534-1.257,2.09534l-1.28489,1.04873c-.35532.63012-1.68744,1.315-2.09427,1.59407a2.37923,2.37923,0,0,1-1.90534.36067c-2.00625-.41649-3.8676-2.85963-3.8676-2.85963m2.1823,20.28145a6.20579,6.20579,0,0,0,2.30144,1.67563M39.60973,28.58963l.29627-.17929m-6.91507,3.32123s-.12237-1.52645-.08587-2.1297c.01932-.32955.37248-1.98478.68807-3.41247m.56032,4.75855s-2.47748.99829-1.4663,3.29329m.21361-.0569c-.42615.57858-.39716.52708-.45621.67843a9,9,0,0,0-.24582,1.10347c.00323.12131-.02576.38108-.09017.4294-.06332.04616-.424.29195-.46265.23937-.03864-.05582-.34778-.50343-.48733-.53134-.1417-.029-.3639-.05153-.27373.14705.09017.19966-.556.09768-.10948.482l.44439.38534a2.21406,2.21406,0,0,0,.658.40253.81731.81731,0,0,0,.87591-.30485m.15029-3.03567-.00215.00324m1.64666-.65373a.81489.81489,0,0,0-1.10672.16422c-.43367.39824-.52384.47768-.53994.48951v-.00108l-.00107.00108v0l.00107-.00108.00215-.00216m-.14062,1.61444c-.01825.16638-.16209.775.2061.83086a.35327.35327,0,0,0,.366-.336,1.76205,1.76205,0,0,1,.22542-.65049m-.66767,1.038s-.03221.26835-.07836.54313a2.17457,2.17457,0,0,1-.13955.56571,1.6507,1.6507,0,0,0-.20931.804s.17389.54425.454.15242l.28231-.39179.29841-.4809m2.7845-22.88562a.88022.88022,0,0,0,.468.17821m-.16854-.58075s-.0236.07944.278.09769m-5.43049,6.57478a2.57926,2.57926,0,0,0,.73637-.28552m-2.58913-.96075s.51526-.69772.76752-.497m-.248.22758.05689.08373m-.22435,12.08147-.16209.13742m-3.60674-17.088-.11593.17175m10.28243-1.739-.01824.13631m1.74754.49593-.04722.20933m1.009,13.10449.14061.15564m-.67412-.08694,1.22586-.25549m9.37324-.67839-1.1078,4.34631M50.021,25.964c-6.98805-1.871-2.426-6.47064-1.7089-7.1437M25.84186,14.65323l.74925.50022m9.34-2.04921a2.06846,2.06846,0,0,0,.8931.27052m.93925.49806a2.07584,2.07584,0,0,0,.89416.27052M30.24294,31.97523s-.50666-.13418-.62582-.3403M24.28324,20.249l.29518-.03649s.73209.11056.82226.11593c.09123.00537.75677.12881.75677.12881.06441.18463-.32847.31881-.32847.31881l-.71169.117.22113.36175c.22006.35851-.26515.6462-.26515.6462.13956.68272-.29518.88881-.29518.88881a1.59808,1.59808,0,0,1-1.7862-.20933,2.57059,2.57059,0,0,0-.31666-.16314c-.47338-.18679-.34457-.628-.35532-1.067a1.69072,1.69072,0,0,1,.29413-.9865,2.30773,2.30773,0,0,1,.701-.37138l.48841.12881.47984.12772.01287.00324s.2222.34672.12022.41434c-.10518.0719-.4841.23723-.644.15134l-.16209-.08373m9.49668-6.85281.44011,1.70142M52.3181,45.49192s-2.6664-.51205-2.77481-4.77787m-24.85108-.18892s2.48071,2.62992,3.29114,2.72437m1.34931-6.4846c-.08908,1.30851-.18677,2.25526-.18677,2.25526a19.93381,19.93381,0,0,1-1.15716,4.23792,7.80992,7.80992,0,0,0,1.92037-.33918c.92638-.30918,1.51355-1.02728,2.38946-.52172m5.67632-7.456a25.77864,25.77864,0,0,1,3.23748-.50773h.00108c.98971-.0891,1.58653-.08052,1.58653-.08052m-4.91526.66015s-.03435,2.83926-.02254,3.06038a3.10542,3.10542,0,0,1-.19,1.53071,2.81893,2.81893,0,0,0-.52062,1.31817,3.06475,3.06475,0,0,1-.01716.88773c-.05153.13955-.33276,1.01227-.33276,1.01227s-.11487.72348.55388.80721a4.5287,4.5287,0,0,0,1.94077-.08373c.35531-.17926.6344-.53672.53457-.77072-.102-.23615-.365-.39287-.53672-.61936a1.33354,1.33354,0,0,1-.31989-.92317,2.56,2.56,0,0,0,.10521-.52489,2.2555,2.2555,0,0,1,.117-1.0112c.15565-.219,1.29349-1.95795,1.29349-1.95795a7.231,7.231,0,0,0,.73423-3.16877M30.99649,15.69446s-.12345-.20612-.22112-.37571c-.059-.102-.10843-.19108-.117-.2147a.27026.27026,0,0,1,.02361-.29089c.09017-.1256.31344-.02791.34028-.00642a3.04478,3.04478,0,0,0,.33385.32414c.17819.14385.15134.00862.30485.67735a.965.965,0,0,1,.029.34351c-.04936.34563-.45835.28015-.89953.57321a1.16134,1.16134,0,0,1-1.199-.029s-.91135-.85874-.96931-.94676c-.05689-.08373-.15457-.07623-.23508.01609-.08265.09231-.03435.10092-.38858.10735a.58466.58466,0,0,1-.56355-.30486c-.04938-.09876.4487-.30485.4487-.30485a2.97294,2.97294,0,0,1,1.09489-.36388c.09125-.00754.175-.0172.25226-.0247a1.37973,1.37973,0,0,1,1.01332.16317l.50989.30269M7.075,34.7071c-.03864.02041-1.49851-.322-1.549-.51631A.17155.17155,0,0,1,5.554,34.004a2.92327,2.92327,0,0,0,.409-.48948c.03329-.06011.04939-.088.19538-.40683.20824-.45406.55925-1.23123.55925-1.23123.30377-.78683.25332-.92638.25332-.92638L7.309,26.651a4.58791,4.58791,0,0,1,1.19474-3.04854m7.47.19321a24.71036,24.71036,0,0,1-4.62649.21037,14.27833,14.27833,0,0,1-1.84631-.219,9.26531,9.26531,0,0,1-.98006-.2394c-.16638-.04936-.32739-.10519-.48519-.16638,0,0-1.00365.365-1.315,2.91332a20.59715,20.59715,0,0,1-.453,3.52087,11.93915,11.93915,0,0,1-1.96654,2.69429.55512.55512,0,0,0,.08051.81045l.97683.67519m48.764-11.3183a25.63819,25.63819,0,0,1,1.27631,6.25064,32.4336,32.4336,0,0,1-1.20761,11.86356c-.43368,1.76474.26836,4.27228,1.05948,4.47087,0,0-3.03245.33276-4.33131.28231-.5496-.02038-.61293-.014-1.22264-.04078a40.35674,40.35674,0,0,1-4.42148-.30807"/>
        <path class="cls-5" d="M42.85023,39.93089s-1.38366,1.10458.67733,1.71966"/>
        <path class="cls-4" d="M53.944,27.19951a12.38068,12.38068,0,0,1,0,3.99426c-.36605,2.09213.41218,8.32236.24688,9.56"/>
        <line class="cls-4" x1="49.51957" y1="21.75343" x2="50.70142" y2="20.5716"/>
        <path class="cls-4" d="M32.9028,30.00192s1.06378-3.28255,1.72931-3.54878M23.8237,31.16661s2.49252.97788,2.86929,2.16083m-10.17723-8.1055a9.15011,9.15011,0,0,0,.19536,2.67176c.32526,1.564.78147,2.9981.78147,2.9981M29.2821,24.92888s2.4206.54639,2.9498-1.18186M26.53734,35.72871a13.90807,13.90807,0,0,1-.60006,2.40019s-.22864.61724-.49377,1.16038c-.19214.6666-1.76043,2.02772-1.76043,2.02772m-3.67114-8.03143a2.64831,2.64831,0,0,1,2.0245-.745s.60433-.029,1.08845-.029M42.2245,21.79873a1.64147,1.64147,0,0,1,2.02236,1.695M31.73061,20.58254a.88436.88436,0,0,0,.50666-.50127,7.2987,7.2987,0,0,0-1.01869-.61508c-.37678-.15675.00322-.45623.00322-.45623M42.202,25.72646a10.26815,10.26815,0,0,1-.38967,1.58974m.7922-.46265,2.68465-.13526a2.80812,2.80812,0,0,0,.96181-.30593m1.68206,12.367c1.593,1.798,3.347,3.61642,3.347,3.61642m-6.78947-12.542a14.27071,14.27071,0,0,0,.1009,2.25851"/>
        <line class="cls-4" x1="27.00408" y1="32.98383" x2="26.71854" y2="33.22431"/>
        <path class="cls-6" d="M159.288,47.27864a3.87708,3.87708,0,0,0,3.15161,1.36862c2.12112,0,3.47362-1.26127,3.47362-2.93585a3.01244,3.01244,0,0,0-1.86026-2.55154v-.04616a2.82428,2.82428,0,0,0,1.58332-2.41309,2.92137,2.92137,0,0,0-3.21277-2.8124A4.17237,4.17237,0,0,0,159.58,39.24076a.27447.27447,0,0,0,0,.39933l.56892.50664a.2612.2612,0,0,0,.39932-.03,2.34463,2.34463,0,0,1,1.783-.86089,1.68589,1.68589,0,0,1,1.75291,1.67563c0,.906-.72242,1.64448-2.16727,1.64448h-.8609c-.21575,0-.307.09232-.307.322v.66124a.28345.28345,0,0,0,.29194.3231h.85985c1.64557,0,2.42918.87593,2.42918,1.798a1.76809,1.76809,0,0,1-1.92145,1.65956,3.06861,3.06861,0,0,1-2.09-.95217.26967.26967,0,0,0-.41544-.03112l-.599.55389a.26268.26268,0,0,0-.01612.3682m-4.61038-.015c-1.67564,0-2.24347-1.75184-2.12112-3.04318a2.456,2.456,0,0,1,2.10608-1.16791,2.10673,2.10673,0,0,1,.015,4.21109m-3.61213-2.92083c0,2.36694,1.16791,4.30448,3.62717,4.30448a3.50068,3.50068,0,0,0,3.42746-3.51978,3.19087,3.19087,0,0,0-3.21172-3.33623,4.38363,4.38363,0,0,0-2.04489.56892c.50773-1.89034,2.95195-3.16557,3.65826-3.39635.292-.09231.35425-.26194.27694-.44549l-.26083-.63011a.28135.28135,0,0,0-.38429-.18462c-1.41478.53779-5.0881,2.3519-5.0881,6.63918m-7.08464,1.38366a1.95462,1.95462,0,0,1,3.903,0,1.76967,1.76967,0,0,1-1.96653,1.67564,1.795,1.795,0,0,1-1.93646-1.67564m1.9515-3.32012c-1.199-.18462-1.72179-.81474-1.72179-1.64451a1.61841,1.61841,0,0,1,1.67563-1.61336,1.64446,1.64446,0,0,1,1.768,1.61336c0,.81474-.53888,1.476-1.72179,1.64451m-3.55094,3.289c0,1.67564,1.36866,2.95194,3.51982,2.95194,2.22843,0,3.582-1.2763,3.582-2.95194a3.08645,3.08645,0,0,0-1.86026-2.56657v-.06119a2.82515,2.82515,0,0,0,1.58332-2.36694c0-1.69064-1.39866-2.8124-3.289-2.8124-1.84523,0-3.259,1.12176-3.259,2.8124a2.82776,2.82776,0,0,0,1.58333,2.382v.04616a3.23072,3.23072,0,0,0-1.86027,2.56657m-7.37661,2.79736h5.34892a.279.279,0,0,0,.29195-.27586v-.66124a.28252.28252,0,0,0-.29195-.292H138.663v-8.9299a.28942.28942,0,0,0-.27694-.292h-.75355l-2.28963,2.075a.29749.29749,0,0,0-.04616.307l.18463.5378a.23307.23307,0,0,0,.33814.10843l1.33642-.67627v6.87h-2.15116a.28191.28191,0,0,0-.292.292v.66124a.2784.2784,0,0,0,.292.27586m-14.00405-5.36393a3.98835,3.98835,0,1,1,3.9803,3.98135,4.0278,4.0278,0,0,1-3.9803-3.98135m-1.53713,0a5.52554,5.52554,0,1,0,5.51743-5.54859,5.48467,5.48467,0,0,0-5.51743,5.54859m-11.12725,5.072a.3025.3025,0,0,0,.292.292h.96825a.2922.2922,0,0,0,.292-.292V40.71565h.015l6.67031,7.93161h.40041a.28941.28941,0,0,0,.29194-.27694V38.02565a.30249.30249,0,0,0-.29194-.292h-.98437a.29222.29222,0,0,0-.292.292V45.296h-.015l-6.67034-7.71583h-.38429a.28942.28942,0,0,0-.292.27694Zm-8.49945-3.36519,1.8753-4.21217h.07623l1.8903,4.21217Zm-2.85855,3.65717h.96825a.3854.3854,0,0,0,.35317-.22971c.307-.70739.63008-1.39869.93709-2.10608h5.02691l.95213,2.10608a.36013.36013,0,0,0,.35422.22971h.96824a.27119.27119,0,0,0,.26086-.3993l-4.68769-10.34363a.36054.36054,0,0,0-.26086-.16959h-.15455a.36054.36054,0,0,0-.26086.16959L96.71644,48.09338a.27136.27136,0,0,0,.2619.3993m-7.25426-.292a.29153.29153,0,0,0,.292.292h5.47127a.2922.2922,0,0,0,.292-.292v-.84478a.2922.2922,0,0,0-.292-.292H91.32244V38.02565a.3025.3025,0,0,0-.292-.292h-1.0144a.29153.29153,0,0,0-.292.292Zm-4.58034,0a.3025.3025,0,0,0,.292.292h1.0144a.30253.30253,0,0,0,.292-.292v-10.175a.30253.30253,0,0,0-.292-.292h-1.0144a.3025.3025,0,0,0-.292.292Zm-14.0942-.06116a.27567.27567,0,0,0,.292.35314h.99937a.29822.29822,0,0,0,.27586-.21467l1.10671-6.87h.06228L76.567,48.47767a.27722.27722,0,0,0,.2619.16959h.27586a.2626.2626,0,0,0,.26194-.16959L80.13295,41.408h.04615l1.13784,6.87a.31818.31818,0,0,0,.292.21467h.99829a.26175.26175,0,0,0,.27694-.35314L80.99384,37.811a.31022.31022,0,0,0-.27694-.23079h-.24582a.29212.29212,0,0,0-.26085.16959L77.01354,45.603H76.9513l-3.21172-7.85326a.31384.31384,0,0,0-.26194-.16959h-.24578a.31139.31139,0,0,0-.277.23079Z"/>
        <path class="cls-6" d="M200.478,22.77494a5.03924,5.03924,0,1,1,5.029,5.028,5.07973,5.07973,0,0,1-5.029-5.028m-2.85429,0a7.89357,7.89357,0,1,0,7.88333-7.92624,7.83479,7.83479,0,0,0-7.88333,7.92624m-15.30285,0a7.87121,7.87121,0,0,0,7.92624,7.88221,7.53555,7.53555,0,0,0,5.335-2.1297.41856.41856,0,0,0,.02253-.59254L194.2435,26.5298a.4041.4041,0,0,0-.54959,0,5.271,5.271,0,0,1-3.35877,1.25161,4.97218,4.97218,0,0,1-4.91848-5.072,4.97768,4.97768,0,0,1,4.89594-5.116,5.19683,5.19683,0,0,1,3.38131,1.29458.35182.35182,0,0,0,.54959,0l1.33859-1.38261a.40813.40813,0,0,0-.02149-.61507,7.42966,7.42966,0,0,0-5.31348-2.04165,7.90853,7.90853,0,0,0-7.92624,7.92624m-5.75255,7.24568a.43167.43167,0,0,0,.4165.41754h2.04276a.43168.43168,0,0,0,.41649-.41754V15.48523a.43171.43171,0,0,0-.41649-.41757h-2.04276a.4317.4317,0,0,0-.4165.41757Zm-16.75308,0a.43166.43166,0,0,0,.4165.41754h1.99873a.4163.4163,0,0,0,.41649-.41754v-9.442h.02254l9.17785,10.07848h.52709a.41209.41209,0,0,0,.41649-.395V15.48523a.43171.43171,0,0,0-.41649-.41757h-2.02023a.41726.41726,0,0,0-.41757.41757V24.5536h-.02146l-9.13385-9.7049h-.54959a.41206.41206,0,0,0-.4165.395Zm-16.182-7.24568a7.87121,7.87121,0,0,0,7.92624,7.88221,7.5355,7.5355,0,0,0,5.335-2.1297.41756.41756,0,0,0,.02254-.59254l-1.36109-1.40511a.40414.40414,0,0,0-.54962,0,5.27087,5.27087,0,0,1-3.35878,1.25161,4.97219,4.97219,0,0,1-4.91847-5.072,4.97767,4.97767,0,0,1,4.89594-5.116,5.19677,5.19677,0,0,1,3.38131,1.29458.35185.35185,0,0,0,.54962,0l1.33855-1.38261a.40815.40815,0,0,0-.02146-.61507,7.42965,7.42965,0,0,0-5.31351-2.04165,7.90854,7.90854,0,0,0-7.92624,7.92624m-12.01065,7.24568a.41724.41724,0,0,0,.41757.41754h8.93636a.41633.41633,0,0,0,.41649-.41754V28.22047a.41634.41634,0,0,0-.41649-.41757h-6.49967V23.96h5.423a.41631.41631,0,0,0,.41757-.41649V21.7208a.43263.43263,0,0,0-.41757-.41754h-5.423V17.703h6.49967a.41636.41636,0,0,0,.41649-.41758V15.48523a.41636.41636,0,0,0-.41649-.41757h-8.93636a.41727.41727,0,0,0-.41757.41757Zm-9.15639,0a.43263.43263,0,0,0,.41757.41754h2.04168a.43184.43184,0,0,0,.41754-.41754V17.703h3.35986a.41634.41634,0,0,0,.41649-.41758V15.48523a.41633.41633,0,0,0-.41649-.41757h-9.59542a.41727.41727,0,0,0-.41758.41757v1.80015a.41728.41728,0,0,0,.41758.41758h3.35877Zm-9.4183,0a.43166.43166,0,0,0,.4165.41754H115.506a.43186.43186,0,0,0,.41758-.41754V15.48523a.43189.43189,0,0,0-.41758-.41757h-2.04164a.43169.43169,0,0,0-.4165.41757Zm-11.74766,0a.41723.41723,0,0,0,.41754.41754h8.03683a.4163.4163,0,0,0,.41646-.41754V28.22047a.4163.4163,0,0,0-.41646-.41757h-5.599V15.48523a.43266.43266,0,0,0-.41758-.41757h-2.02022a.41726.41726,0,0,0-.41754.41757ZM86.06281,22.77494a5.03925,5.03925,0,1,1,5.028,5.028,5.07952,5.07952,0,0,1-5.028-5.028m-2.85425,0a7.89356,7.89356,0,1,0,7.88221-7.92624,7.83384,7.83384,0,0,0-7.88221,7.92624m-9.3099-.59254v-4.414H76.4459a2.19091,2.19091,0,0,1,2.26175,2.12967A2.26414,2.26414,0,0,1,76.4459,22.1824ZM71.0444,30.02062a.41724.41724,0,0,0,.41757.41754h2.01911a.43185.43185,0,0,0,.41758-.41754v-5.16h2.74478a4.8965,4.8965,0,1,0-.02149-9.793h-5.16a.41726.41726,0,0,0-.41757.41757Z"/>
      </g>
    </g>
  </g>
</svg>
