<?xml version="1.0" encoding="utf-8"?>
<!-- Generator: Adobe Illustrator 24.3.0, SVG Export Plug-In . SVG Version: 6.00 Build 0)  -->
<svg version="1.1" id="Layer_1" xmlns="http://www.w3.org/2000/svg" xmlns:xlink="http://www.w3.org/1999/xlink" x="0px" y="0px"
	 viewBox="0 0 213.4 201.9" style="enable-background:new 0 0 213.4 201.9;" xml:space="preserve">
<style type="text/css">
	.st0{fill:none;stroke:#FFFFFF;stroke-width:0.484;stroke-miterlimit:10;}
	.st1{fill:none;}
	.st2{fill:#8EB7CE;}
	.st3{fill:none;stroke:#FFFFFF;stroke-width:0.275;stroke-linecap:round;stroke-linejoin:round;}
	.st4{fill:none;stroke:#FFFFFF;stroke-width:0.249;stroke-linecap:round;stroke-linejoin:round;}
	.st5{fill:#FFFFFF;}
</style>
<g id="Layer_2_1_">
	<g id="Layer_1-2">
		<g>
			<path class="st0" d="M62.6,171.3l-2.8-0.2 M62.5,172.7l-2.8-0.3 M62.3,174.2l-2.7-0.4 M62,175.6l-2.7-0.6 M61.7,177.1l-2.7-0.7
				 M61.3,178.5l-2.6-0.8 M60.8,179.8l-2.6-0.9 M60.3,181.2l-2.6-1.1 M59.7,182.5l-2.5-1.2 M59.1,183.8l-2.4-1.3 M58.3,185.1
				l-2.4-1.4 M57.6,186.4l-2.3-1.5 M56.7,187.6l-2.3-1.6 M55.8,188.7l-2.2-1.7 M54.9,189.8l-2.1-1.8 M53.9,190.9l-2-1.9 M52.9,191.9
				l-1.9-2 M51.8,192.9l-1.8-2.1 M50.7,193.8l-1.7-2.2 M49.5,194.7l-1.6-2.3 M48.3,195.5l-1.5-2.3 M47,196.3l-1.4-2.4 M45.7,197
				l-1.3-2.5 M44.4,197.6l-1.2-2.5 M43.1,198.2l-1-2.6 M41.7,198.7l-0.9-2.6 M40.3,199.2l-0.8-2.7 M38.9,199.6l-0.7-2.7 M37.5,199.9
				l-0.5-2.7 M36.1,200.1l-0.4-2.7 M34.6,200.3l-0.3-2.8 M33.2,200.4l-0.2-2.8 M31.7,200.5v-2.8 M30.2,200.5l0.1-2.8 M28.8,200.4
				l0.2-2.8 M27.3,200.2l0.4-2.8 M25.9,200l0.5-2.7 M24.4,199.7L25,197 M23,199.4l0.7-2.7 M21.6,198.9l0.9-2.6 M20.2,198.5l1-2.6
				 M18.9,197.9l1.1-2.6 M17.6,197.3l1.2-2.5 M16.3,196.6l1.3-2.4 M15,195.9l1.5-2.4 M13.8,195.1l1.6-2.3 M12.6,194.2l1.7-2.2
				 M11.4,193.4l1.8-2.2 M10.3,192.4l1.9-2.1 M9.3,191.4l2-2 M8.3,190.3l2-1.9 M7.3,189.2l2.1-1.8 M6.4,188.1l2.2-1.7 M5.5,186.9
				l2.3-1.6 M4.7,185.7l2.4-1.5 M4,184.4l2.4-1.4 M3.3,183.1l2.5-1.3 M2.7,181.8l2.5-1.1 M2.1,180.5l2.6-1 M1.6,179.1l2.6-0.9
				 M1.2,177.7l2.7-0.7 M0.8,176.3l2.7-0.6 M0.5,174.9l2.7-0.5 M0.3,173.4l2.8-0.4 M0.1,171.9l2.8-0.2 M0,170.5l2.8-0.1 M0,169h2.8
				 M0,167.6l2.8,0.1 M0.1,166.1l2.8,0.3 M0.3,164.7l2.7,0.4 M0.6,163.2l2.7,0.5 M0.9,161.8l2.7,0.6 M1.2,160.4l2.7,0.8 M1.7,159
				l2.6,0.9 M2.2,157.6l2.6,1 M2.8,156.3l2.5,1.2 M3.4,155l2.5,1.2 M4.1,153.7l2.4,1.4 M4.8,152.4l2.3,1.5 M5.6,151.2l2.3,1.6
				 M6.5,150l2.2,1.7 M7.4,148.9l2.1,1.8 M8.4,147.8l2,1.9 M9.4,146.7l2,2 M10.5,145.7l1.9,2.1 M11.6,144.8l1.8,2.2 M12.8,143.9
				l1.6,2.2 M14,143.1l1.5,2.3 M15.2,142.3l1.4,2.4 M16.5,141.6l1.3,2.4 M17.8,140.9l1.2,2.5 M19.1,140.3l1.1,2.5 M20.4,139.7l1,2.6
				 M21.8,139.3l0.8,2.6 M23.2,138.9l0.7,2.7 M24.7,138.5l0.6,2.7 M26.1,138.2l0.5,2.7 M27.5,138l0.3,2.8 M29,137.9l0.2,2.8
				 M30.5,137.8l0.1,2.8 M31.9,137.8v2.8 M33.4,137.9l-0.2,2.8 M34.8,138l-0.3,2.8 M36.3,138.2l-0.4,2.7 M37.7,138.4l-0.6,2.7
				 M39.1,138.8l-0.7,2.7 M40.5,139.2l-0.8,2.6 M41.9,139.6l-0.9,2.6 M43.3,140.1l-1.1,2.6 M44.6,140.7l-1.2,2.5 M45.9,141.4
				l-1.3,2.4 M47.2,142.1l-1.4,2.4 M48.5,142.9l-1.5,2.3 M49.7,143.7l-1.6,2.2 M50.8,144.6l-1.7,2.2 M51.9,145.5l-1.8,2.1 M53,146.5
				l-1.9,2 M54.1,147.5l-2,1.9 M55,148.6l-2.1,1.8 M56,149.7l-2.2,1.7 M56.9,150.9l-2.3,1.6 M57.7,152.1l-2.3,1.5 M58.4,153.3
				l-2.4,1.4 M59.2,154.6l-2.5,1.3 M59.8,155.9l-2.5,1.2 M60.4,157.3l-2.6,1 M60.9,158.7l-2.6,0.9 M61.4,160l-2.7,0.8 M61.8,161.4
				l-2.7,0.7 M62.1,162.9l-2.7,0.6 M62.3,164.3l-2.7,0.4 M62.5,165.8l-2.8,0.3 M62.7,167.2l-2.8,0.2 M62.7,168.7h-2.8 M62.7,170.1
				l-2.8-0.1"/>
			<path class="st1" d="M26.5,170.2c0-0.1,0.3,0.2,0.3,0.1l0.7,1c0,0,1.1,0.6,1.3,0.5c0.2-0.1,0.4-0.4,0.5-0.4s0.3-0.2,0.4-0.2
				c0.2,0,0.3-0.4,0.3-0.4s0.5,0.1,0.5-0.2c0-0.3,0-1.1,0-1.1c0.3-0.2,0.5-0.5,0.5-0.8c0.1,0,0.8-0.1,0.8-0.1
				c0.6-0.2,0.5-0.8,0.4-1.1s-0.7-0.7-0.7-0.7c0.2-0.2,0.2-0.5,0-0.7l0,0c-0.1-0.3-0.4-0.5-0.6-0.5h-0.3l-1.4-0.8l-2.4-0.1l-2.2,2.9
				l-0.7-0.3v-2l0.9-2.5l1-1l1,0.8l3.3,0.1c0,0,1.2,0.1,1.4-0.2c0.3-0.5,0.7-1.1,0.7-1.1v0.1c0.1,0,0.1,0.1,0.2,0.1
				c0.1,0,0.3,0,0.4,0.1c0-0.1,0.1-0.2,0.4-0.5c0.4-0.3,0.1-0.6,0.2-0.9c0-0.2,0-0.4-0.2-0.6l2.6,0.8l0,0c-0.2,0.3-0.2,0.6-0.3,0.7
				c-0.2,0.1,0.1,0.6,0,0.8c0,0.2,0,0.3,0.2,0.4h0.1c0,0.3,0,0.7,0.1,1c0.1,0.4,0.2,0.7,0.4,1l0,0h-0.1c-0.1,0.2-0.2,0.4-0.3,0.6
				c-0.2,0.1-0.9,1.1-0.8,1.7c0.1,0.6,0.5,1.7,0.5,1.7h0.3v0.1c-0.1,0.3-0.2,0.6-0.4,0.9c-0.5,0.4-0.9,1-1,1.7l0,0
				c-0.4-0.2-0.8-0.2-1.1,0.2c-0.4,0.4-0.5,0.5-0.5,0.5l0,0l0,0l0,0l0,0c-0.4,0.6-0.4,0.5-0.5,0.7c-0.1,0.4-0.2,0.7-0.2,1.1
				c0,0.1,0,0.4-0.1,0.4c-0.1,0-0.4,0.3-0.5,0.2c0-0.1-0.3-0.5-0.5-0.5c-0.1,0-0.4-0.1-0.3,0.1c0.1,0.2-0.6,0.1-0.1,0.5l0.4,0.4
				c0.2,0.2,0.4,0.3,0.7,0.4c0.3,0.1,0.7,0,0.9-0.3h0.1c0,0.2-0.1,0.4-0.1,0.6c-0.1,0.2-0.2,0.5-0.2,0.8c0,0,0.2,0.5,0.5,0.2
				l0.3-0.4l0.3-0.5l0,0c-0.2,0.8-0.5,1.5-0.6,1.8c-0.3,0.5-0.6,1-0.7,1.6c-0.1,0.4,0,0.8,0.1,1.2l0,0l0,0c-0.9-0.5-1.5,0.2-2.4,0.5
				c-0.6,0.2-1.3,0.3-1.9,0.3v-0.1c-0.8-0.1-1.8-1.2-1.8-1.2l-1.6-1.6c0.4-2.2,1.4-2.3,1.4-2.3l0,0c0.4-1.2,0.7-2.4,0.9-3.7
				c-0.1-0.3-0.1-0.5-0.1-0.8"/>
			<path class="st1" d="M27.2,164.6c-0.2,0.1-0.4,0.1-0.5,0.3c-0.3,0.2-0.6,0.5-0.9,0.7c-0.4,0.3-0.8,0.7-1.2,1.1
				c-0.1,0.2-0.1,0.4-0.1,0.6c0.1,0.1,0.5,1.3,0.5,1.4c0,0.1,0.4,0.2,0.5,0.4c0.1,0.2,0.1,0.4,0.7,0.8l-0.1,1l0.3-0.3
				c0,0,1.4,0.1,1.6-0.2c0.3-0.4,0.6-0.7,1-0.9c0.4-0.2,1.2-0.7,1.5-0.9c0.3-0.1,0.8,0.3,1,0.3s1.4-0.3,0.9-1s-0.8-1.1-0.8-1.3
				c0.1-0.2-0.2-0.8-1-0.9c-0.4,0-0.9-0.3-1.1-0.7L27.2,164.6z"/>
			<path class="st1" d="M41.5,159.5c0,0-1.3-0.5-1.7-0.6c-0.8,0-1.6,0.2-2.4,0.5c-0.5,0.3-0.8,0.5-0.8,0.7c-0.1,0.2-0.8,0.4-0.8,0.6
				c-0.1,0.3-0.2,0.6-0.3,0.9c0,0.3,0,0.7,0.1,1c0.1,0.1,0.1,0.8,0.2,1c0.1,0.2,0.4,1.1,0.8,1.4c0.5,0.3,1.1,0.5,1.2,0.7
				s0.6,1.2,0.8,1.1c0.2-0.1,0.4-0.4,0.7-0.3c0.5,0.3,1,0.2,1.5-0.1c0.5-0.4,0.9-1.4,1.5-1.7c0.6-0.3,1.1-0.8,1.4-1.4
				c0.4-0.8,0.5-1.7,0.4-2.6c-0.2-0.5-0.6-0.9-1.1-1C42.8,159.7,41.5,159.5,41.5,159.5"/>
			<path class="st1" d="M42.4,178.3c0.5-5.2,2.5-10.1,5.7-14.1l0,0c0.7,0.2,1.3,0,1.9-0.4l0,0c-7-1.9-2.4-6.5-1.7-7.1v-0.1
				c0.5,0.2,1.1-0.2,2.9,0.8c0.1,0.1,1-0.5,1.3-0.5c0.5,0,1.9,1.3,2,1.6c0.1,0.4,0.1,0.8,0,1.2c-0.2,0.4-0.6,0.7-0.5,0.9
				c0.6,1.3,1,2.7,1.1,4.2c0.2,1.2,0.3,2.4,0.4,3.6c0.1,1.4-0.1,2.9,0,4c0.1,1.9-1.4,5.3-1.4,7.3c0,0.6,0.3,3.2,1.2,3.5
				c0,0-3,0.3-4.3,0.3c-0.5,0-0.6,0-1.2,0c-1.5,0-3-0.1-4.4-0.3h-0.1c-0.2-0.5-0.2-1.1,0-1.7c0.3-0.6,3.7-5.3,3.5-8.7l0,0l0,0
				c-0.2,0.1-0.3,0.3-0.5,0.5c-1.3,1.3-2.6,2.5-4.1,3.6c-0.5,0.4-0.9,0.7-1.1,0.9C42.8,177.8,42.6,178.1,42.4,178.3"/>
			<path class="st1" d="M42.3,184.2c0.1-0.2,0.2-0.4,0.3-0.7c0.2-0.4,0.3-0.9,0.3-1.4c0.1-0.6,0.3-1.2,0.6-1.8
				c0.3-1.2,0.5-2.4,0.6-3.6l-0.1-0.1c1.5-1.1,2.8-2.3,4.1-3.6c0.1-0.2,0.3-0.3,0.5-0.5l0,0c0.2,3.3-3.2,8.1-3.5,8.7
				c-0.2,0.5-0.1,1.1,0,1.7c0,0.2,0.1,0.3,0.1,0.3c0.3,0.4,0.5,0.8,0.7,1.2c0,0.3-0.4,0.6-0.5,0.7c-0.1,0.1-0.5,0.2-0.6,0.3
				c-0.2,0.1-0.4,0.1-0.7,0c-0.2,0-0.5-0.1-0.7-0.2c-0.3,0.1-0.5,0.1-0.8,0.1s-0.3-0.4-0.4-0.8C42.2,184.5,42.2,184.4,42.3,184.2"/>
			<path class="st1" d="M39.2,158.7c0.3-0.4,0.7-0.7,1.2-0.9c0.2-0.1,0.4-0.1,0.6-0.2c1.2-0.7,2.5-1.1,3.8-1.2
				c0.7-0.1,1.4-0.1,2.1,0v0.2l0,0c-1.8,0.8-2.8,3.7-2.8,3.8l0,0c-0.1-0.5-0.3-0.6-0.8-0.7c-1-0.1-2-0.3-3-0.6l0,0
				c-0.2-0.1-0.4-0.2-0.6-0.3c-0.2,0-0.4,0-0.5,0V158.7L39.2,158.7z"/>
			<path class="st1" d="M44.1,160.4c0-0.1,0.9-3,2.8-3.8c0.4-0.2,0.8-0.2,1.2-0.2c0.1,0,0.2,0.1,0.2,0.1v0.1
				c-0.7,0.7-5.3,5.3,1.7,7.1l0,0c-0.6,0.4-1.2,0.5-1.9,0.4c-2-0.4-3.9-2.9-3.9-2.9l0,0C44.2,161,44.2,160.7,44.1,160.4L44.1,160.4z
				"/>
			<path class="st1" d="M37.9,172.7c0.4-0.7,0.6-1.6,0.6-2.4l0.9-2l-0.2-0.1c0.3-0.1,0.6-0.3,0.8-0.5c0.4-0.4,1.4-2.1,1.4-2.1l0,0
				c0.1-0.1,0.2-0.3,0.3-0.5c0,0-0.1-0.2,0.4-0.6l0.1-0.1l0.2-0.1l0.1-0.1c0,0,0.9,0.2,0.8,0.5c0,0.3-0.4,1.8-0.5,2.1
				c-0.1,0.3,0,0.7,0.1,1c0.2,0.6,0.3,1.2,0.3,1.8c-0.1,0.7-0.2,1.5-0.4,2.2c0,0.1-0.1,0.2-0.1,0.3l0,0c0,0-0.6,0-1.6,0.1l0,0
				C40.1,172.3,39,172.5,37.9,172.7L37.9,172.7z"/>
			<path class="st1" d="M40.8,179.2c-0.8-2,0.7-3.8,0.8-4.2c0.2-0.4,0.4-0.7,0.6-1.1l0.5-1.4l0.1-0.3c0-0.1,0-0.2,0.1-0.3
				c0.2-0.7,0.3-1.5,0.4-2.2c0-0.6-0.1-1.2-0.3-1.8c-0.1-0.3-0.1-0.7-0.1-1s0.4-1.8,0.5-2.1c0-0.3-1.1-0.1-1.1-0.1l-0.1-0.1l0.1-0.2
				l0.2-0.5c0.1,0,0.5-0.3,0.6-0.4c0.6-0.3,1.1-0.9,1.2-1.6c0,0,0-0.2,0-0.5l0,0c0,0,1.9,2.4,3.9,2.9l0,0c-3.2,4.1-5.2,9-5.7,14.1
				c0.2-0.3,0.3-0.5,0.5-0.7s0.6-0.5,1.1-0.9l0.1,0.1c-0.1,1.2-0.3,2.4-0.6,3.6c-0.3,0.6-0.5,1.2-0.6,1.8c0,0.5-0.2,0.9-0.3,1.4
				c-0.1,0.2-0.2,0.4-0.3,0.7l0.5-1.5c0,0-0.9,0.4-1.2-0.8L40.8,179.2z"/>
			<polygon class="st1" points="40.9,186.4 32.5,188.9 32.4,188.2 32.4,188.2 32.5,187.6 40.9,185.3 			"/>
			<path class="st1" d="M35.2,167c-0.1-0.6,0.6-1.6,0.8-1.7c0.1-0.2,0.2-0.4,0.3-0.6h0.1c0.1,0.1,0.2,0.2,0.4,0.3l0.5,0.4
				c0,0,0.3,0.1,0.4,0.1c0.2,0,0.3,0.1,0.4,0.3c0.1,0.2,0.3,1,0.8,0.9l0.3-0.3c0,0,0.5,0.2,0.6,0.2s0.9,0.4,1.8-0.9l0,0
				c0,0-1,1.7-1.4,2.1c-0.2,0.2-0.5,0.4-0.8,0.5c-0.1,0.1-0.3,0.1-0.4,0.1l-2.9,0.3h-0.3C35.7,168.7,35.3,167.6,35.2,167"/>
			<path class="st1" d="M38.8,155L38.8,155c0.1-0.1,0.1-0.1,0.2-0.2c0.2-0.3,0.1-0.9,0.1-1c0-0.2,0.1-0.3,0.2-0.4
				c0.2-0.1,0.2-0.6,0.2-0.7c0-0.1,0.2-0.2,0.3-0.3c0.1-0.1-0.1-0.7-0.1-0.8c0-0.1,0-0.3,0.1-0.4h0.1c1.4,0.6,2.5,1.5,3.3,2.8
				c0.2,0.4,0.4,0.8,0.5,1.2c0,0.1,0,0.2,0,0.2l0,0l0,0c0.4,0.3,0.8,0.6,1.1,1l-0.3,0.1c-1.2,0.2-2.3,0.6-3.4,1.2
				c-0.2,0-0.4,0.1-0.6,0.2v-0.1C38.5,156.4,38.9,155,38.8,155L38.8,155L38.8,155z"/>
			<path class="st1" d="M37.4,181.4c-0.7-0.1-0.6-0.8-0.6-0.8s0.3-0.9,0.3-1c0-0.3,0.1-0.6,0-0.9c0.1-0.5,0.2-0.9,0.5-1.3
				c0.2-0.5,0.3-1,0.2-1.5c0-0.2,0-2.6,0-2.6l0,0l0,0c0.1-0.2,0.2-0.4,0.3-0.6h0.1c1-0.2,2-0.4,3.1-0.5v0.1c0,1.1-0.3,2.2-0.7,3.2
				c0,0-1.1,1.7-1.3,2c-0.1,0.3-0.2,0.7-0.1,1c0,0.2-0.1,0.4-0.1,0.5c0,0.3,0.1,0.7,0.3,0.9s0.4,0.4,0.5,0.6
				c0.1,0.2-0.2,0.6-0.5,0.8C38.7,181.5,38,181.5,37.4,181.4"/>
			<path class="st1" d="M33.8,150.8c0.1-0.5,0.2-0.9,0.4-1.4c0.1-0.4,0.2-0.8,0.4-1.2c0.1-0.1,0.2-0.3,0.3-0.4l0,0
				c0.2-0.2,0.4-0.5,0.7-0.7c0.4-0.2,0.8-0.3,1.2-0.4c0.7-0.1,1.3,0.1,1.9,0.5c0,0,0.7,0,0.9,0.5c0.3,0.5,0.5,0.9,0.6,1.5
				c0,0.2-0.2,0.5-0.2,0.6c0,0.3,0,0.7-0.1,1c0,0,0,0,0,0.1c-0.1,0.1-0.1,0.3-0.1,0.4c0,0.2,0.2,0.7,0.1,0.8
				c-0.1,0.1-0.3,0.2-0.3,0.3c0,0.1,0,0.6-0.2,0.7c-0.1,0.1-0.2,0.2-0.2,0.4c0,0.1,0.1,0.7-0.1,1c-0.1,0.1-0.1,0.2-0.2,0.2l0,0
				c-0.1,0.1-0.2,0.1-0.2,0.1c-0.1-0.1-0.2,0.2-0.2,0.2l-0.1,0.2c0,0-0.1,0.5-0.2,0.4c-0.1,0-0.3-0.5-0.3-0.5l0.2-1.1l0.1-1.3v-0.1
				l1.1-1.7c0-0.3-0.1-0.6-0.2-0.9c-0.2-0.2-0.4-0.4-0.5-0.7c0-0.2-0.1-0.7-0.1-0.7s-0.8,0.6-0.9,0.7c-0.3,0-0.6,0-0.9,0
				c-0.2,0-0.4,0.1-0.6,0.3c-0.1,0.2-0.4,0.7-0.5,0.8c-0.1,0.3-0.2,0.6-0.2,1c0,0.1-0.1,0.3-0.1,0.4c-0.1,0.1-0.1,0.2-0.2,0.3
				c-0.1,0.2,0,0.4,0.1,0.7c0,0.3,0,0.6-0.1,1c0,0.1-0.3,0.1-0.4,0.1c-0.1,0-0.3,0.1-0.4,0.2c0,0,0.1-0.4,0.1-0.5
				c-0.1-0.3-0.2-0.6-0.3-0.9C33.9,152.2,33.8,151.5,33.8,150.8"/>
			<path class="st1" d="M33,185l-0.3,0.1L33,183l0,0c0.1-0.2,0.2-0.4,0.3-0.6c0.1-0.6,0.3-1.1,0.6-1.7c0.2-0.3,0.5-0.4,0.8-0.5
				l0.1,0.5l0.5,3.8l-0.1,0.3l-1-2.6L33,185z"/>
			<path class="st1" d="M35.3,151.6c0-0.3,0.1-0.6,0.2-1c0.1-0.1,0.4-0.7,0.5-0.8c0.1-0.2,0.4-0.3,0.6-0.3c0.3,0.1,0.6,0.1,0.9,0
				c0.2-0.1,0.9-0.7,0.9-0.7s0.1,0.5,0.1,0.7c0.1,0.3,0.3,0.5,0.5,0.7c0.1,0.3,0.2,0.6,0.2,0.9l-1.1,1.7v0.1H38
				c-0.6,0.4-1.2,0.6-1.9,0.6c-0.7-0.2-1-1.4-1-1.4H35l0,0C35.3,151.9,35.3,151.8,35.3,151.6"/>
			<polygon class="st1" points="28,186.2 32.7,185.1 33,185 34.7,184.6 35,184.5 36.1,184.3 40.9,185.3 32.5,187.6 			"/>
			<path class="st1" d="M32.2,179.1c0.1-0.6,0.4-1.1,0.7-1.6c0.1-0.3,0.4-1.1,0.6-1.8c0.3-0.9,0.5-1.8,0.5-1.8
				c0.1-0.9,0.3-1.7,0.5-2.5c0.2-0.7,0.5-1.2,1-1.7c0.2-0.3,0.3-0.6,0.4-0.9v-0.1l2.9-0.3c0.1,0,0.3-0.1,0.4-0.1l0.2,0.1l-0.9,2
				c0,0.9-0.2,1.7-0.6,2.4c-0.1,0.2-0.2,0.4-0.3,0.6c-1,1.9-2.6,3.7-2.6,4c-0.1,0.4-0.2,0.6,0.1,1.8c0.1,0.6,0,1.2-0.3,1.6h-0.1
				l-0.1-0.5c-0.3,0-0.6,0.2-0.8,0.5c-0.3,0.5-0.5,1.1-0.6,1.7c-0.1,0.2-0.1,0.4-0.3,0.6l0,0c-0.3,0-0.3-0.4-0.3-0.4l-0.1-2
				c-0.1-0.1-0.2-0.2-0.2-0.3C32.2,179.9,32.1,179.5,32.2,179.1"/>
			<polyline class="st2" points="32.9,172 32.9,172 32.9,172 32.9,172 			"/>
			<path class="st2" d="M32.9,172L32.9,172L32.9,172z"/>
			<path class="st1" d="M30.8,174.5c-0.4-0.4,0.2-0.3,0.1-0.5s0.1-0.2,0.3-0.1c0.1,0,0.4,0.5,0.5,0.5c0,0.1,0.4-0.2,0.5-0.2
				c0.1-0.1,0.1-0.3,0.1-0.4c0.1-0.4,0.1-0.7,0.2-1.1c0.1-0.2,0-0.1,0.5-0.7l0,0c0,0,0.1-0.1,0.5-0.5c0.3-0.3,0.8-0.4,1.1-0.2l0,0
				c-0.3,0.8-0.4,1.7-0.5,2.5c0,0-0.3,0.9-0.5,1.8l0,0l-0.3,0.5l-0.3,0.4c-0.3,0.4-0.5-0.2-0.5-0.2c0-0.3,0.1-0.6,0.2-0.8
				c0.1-0.2,0.1-0.4,0.1-0.6h-0.1c-0.2,0.3-0.5,0.4-0.9,0.3c-0.2-0.1-0.5-0.2-0.7-0.4L30.8,174.5z"/>
			<path class="st2" d="M32.9,172L32.9,172z"/>
			<path class="st1" d="M33.3,159.8c0,0,0-0.2,0.1-0.4c0-0.1-0.3-0.4-0.4-0.4c0,0,0-0.2,0-0.3c-0.1-0.2-0.1-0.4-0.2-0.6V158l0,0
				c0,0,0.7-1.1,0.7-1.2c0.6-1.2,0.6-2.6,0-3.7c-0.1-0.4-0.7,0.3-0.7,0.3l0,0c0.2-0.3,0.2-0.6,0-0.9c-0.3-0.7-1.6-1.3-2-1.5
				c-0.1,0-0.3-0.1-0.4,0v-0.1c-0.3-0.6-0.1-1.3,0.3-1.7c0.8-0.9,1-1,1.3-1.1c0.3,0,0.9-0.1,0.9-0.1c0.6-0.4,1.4-0.5,2.1-0.1l0,0
				c-0.1,0.1-0.2,0.3-0.3,0.4c-0.2,0.4-0.3,0.8-0.4,1.2c-0.2,0.5-0.3,0.9-0.4,1.4c0,0.7,0.1,1.3,0.3,2c0.1,0.3,0.2,0.6,0.3,0.9
				c0,0.1-0.1,0.5-0.1,0.5c0.1-0.1,0.3-0.1,0.4-0.2c0.1,0,0.3,0,0.4-0.1c0.1-0.3,0.1-0.6,0.1-1c0-0.3-0.1-0.5-0.1-0.7
				c0-0.1,0.1-0.2,0.2-0.3l0,0h0.1c0,0,0.4,1.3,1,1.4c0.7,0,1.3-0.2,1.9-0.6h0.1l-0.1,1.3l-0.2,1.1c0,0,0.2,0.5,0.3,0.5
				s0.2-0.5,0.2-0.5l0.1-0.2c0,0,0.1-0.2,0.2-0.1c0,0.1,0.1,0,0.2-0.1l0,0l0,0c0,0-0.3,1.4,1.5,2.7v0.1c-0.5,0.2-0.9,0.5-1.2,0.9
				l0,0v0.1c-0.2,0-0.4,0-0.4,0.1c-0.3,0.1-0.5,0.2-0.8,0.2c-0.1,0-0.5,0.3-0.9,0.4c-0.4,0.1-0.2,0.7-0.7,0.8
				c-0.2,0-0.3,0.1-0.4,0.3"/>
			<path class="st1" d="M28.5,157.5c0.1-0.4,0.3-0.8,0.6-1.1c0.5-0.2,1-0.3,1.5-0.2c0,0,0.3,0.3,0.4,0.4c0.2,0.1,0.4,0.2,0.5,0.3
				c0.1,0.1,0.2,0.2,0.2,0.4c0.1,0.2,0.2,0.3,0.3,0.4c0.1,0.2,0.2,0.5,0.2,0.7c0,0.1,0.1,0.6,0.1,0.6c0,0.1,0.2,0.7,0,0.8
				c-0.2,0.2,0,1.6-0.2,1.7c-0.3,0.4-0.5,1-0.8,1.1c-0.7,0.1-1.4,0.1-2.1,0l0.2-1.9c0-0.1-0.1-0.3-0.1-0.4c-0.2-0.4-0.2-0.7-0.3-1.1
				c0-0.3-0.1-0.6-0.3-0.8C28.6,158.1,28.4,157.8,28.5,157.5"/>
			<path class="st1" d="M27.1,170.9l-0.4,0.1l-0.3-0.8c0.1-0.2,1.1-0.1,1.2-0.2c0.1-0.1,0.4,0,0.5-0.1c0-0.2,0.2-0.1,0.4-0.2
				c0.2-0.1,0.2-0.3,0.4-0.3c0.1,0,0.3-0.1,0.4-0.3c0-0.1,0.3-0.1,0.5-0.2c0.3-0.1,0.6-0.3,0.8-0.5c0.1-0.1,0.3-0.1,0.5-0.1
				c0.1,0,0.2,0.3,0.2,0.3c0,0.3-0.2,0.6-0.5,0.8c0,0,0,0.8,0,1.1c0,0.3-0.5,0.2-0.5,0.2s-0.2,0.4-0.3,0.4c-0.2,0-0.3,0.2-0.4,0.2
				c-0.2,0.1-0.4,0.2-0.5,0.3c-0.2,0.1-1.1-0.2-1.1-0.2L27.1,170.9z"/>
			<path class="st1" d="M28,153.7c-0.2,0-0.5-0.1-0.6-0.3c0-0.1,0.4-0.3,0.4-0.3c0.3-0.2,0.7-0.3,1.1-0.4c0.1,0,0.2,0,0.3,0
				c0.3-0.1,0.7,0,1,0.2l0.4,0.3h0.1l0,0c-0.1-0.1-0.1-0.2-0.1-0.2c0-0.1,0-0.2,0-0.3c0.1-0.1,0.3,0,0.3,0c0.1,0.1,0.2,0.2,0.3,0.3
				c0.2,0.1,0.2,0,0.3,0.7c0,0.1,0,0.2,0,0.3c0,0.3-0.4,0.3-0.9,0.6c-0.4,0.2-0.8,0.2-1.2,0c0,0-0.9-0.9-1-0.9
				c-0.1-0.1-0.2-0.1-0.2,0C28.3,153.7,28.4,153.7,28,153.7"/>
			<path class="st1" d="M29.2,152.6c0,0,0-0.9,0.2-1.1s0.5-0.4,0.8-0.5c0.1,0,0.3,0,0.4,0c0.4,0.2,1.7,0.8,2,1.5
				c0.2,0.3,0.2,0.6,0,0.9c-0.1,0.1-0.2,0.2-0.3,0.2c-0.2,0.1-0.5,0.2-0.8,0.2l0,0c0-0.1,0-0.2,0-0.3c-0.2-0.7-0.1-0.5-0.3-0.7
				c-0.1-0.1-0.2-0.2-0.3-0.3c0,0-0.3-0.1-0.3,0c-0.1,0.1-0.1,0.2,0,0.3c0,0,0.1,0.1,0.1,0.2l0,0h-0.1l-0.4-0.3
				C29.9,152.7,29.6,152.6,29.2,152.6L29.2,152.6L29.2,152.6z"/>
			<polygon class="st1" points="28,186.2 32.5,187.6 32.4,188.2 32.4,188.4 32.5,188.5 32.4,188.8 27.9,187.4 			"/>
			<path class="st1" d="M28,162.8c-0.2-0.2-1.1,0.1-1.2-0.2c-0.1-0.3-0.3-0.3-0.9-0.8c-0.6-0.4,0.1-1,0.2-1c0.2,0,0.1-0.1,0.1-0.1
				c0-0.1,0.1-0.2,0.3-0.4c0.2-0.2,0.1-0.2,0.2-0.8c0-0.6,0.3-0.8,0.3-0.8c-0.1-0.4,0-0.9,0.2-1.3c0-0.4,0.6-0.8,0.6-0.8
				c0.2-0.4,0.6-0.6,1.1-0.5c0.3-0.1,0.6-0.3,0.6-0.3c0.2,0,0.3,0,0.5,0c0.2-0.1,0.4-0.1,0.6-0.1s0.4,0.1,0.4,0.3c0,0,0.4,0,0.4,0.2
				c0.1,0.2,0.5,0.1,0.5,0.6c0.1,0.2,0.2,0.4,0.3,0.6c0,0.2,0.3,0.1,0.4,0.5v0.1c0,0.2,0.1,0.4,0.2,0.6c0.1,0.2,0,0.3,0,0.3
				s0.4,0.3,0.4,0.4c0,0.1-0.1,0.4-0.1,0.4c0.2,0.2,0.2,0.4,0.2,0.6c-0.1,0.3,0.2,0.6-0.2,0.9s-0.5,0.4-0.4,0.5
				c-0.1-0.1-0.3-0.1-0.4-0.2c-0.1,0-0.2-0.1-0.2-0.1c-0.1-0.1-0.2-0.1-0.2-0.2c0-0.1-0.2-0.1-0.1-0.9l-0.1-0.1
				c0.2-0.1,0.4-0.2,0.6-0.4c0.2-0.2,0-0.7,0-0.8c0-0.1-0.1-0.5-0.1-0.6c0-0.2-0.1-0.4-0.2-0.6c0-0.1,0-0.1-0.1-0.2
				c-0.1-0.1-0.2-0.3-0.3-0.4c0-0.1-0.1-0.3-0.2-0.4c-0.2-0.1-0.4-0.2-0.5-0.3c-0.1-0.1-0.4-0.4-0.4-0.4c-0.5-0.1-1.1-0.1-1.5,0.2
				c-0.3,0.3-0.5,0.7-0.6,1.1c0,0.3,0.1,0.6,0.3,0.8c0.2,0.2,0.3,0.5,0.3,0.8c0,0.4,0.1,0.8,0.3,1.1c0.1,0.1,0.1,0.3,0.1,0.4
				c0.1,0.3,0.1,0.6,0.1,0.9c-0.1,0.3-0.1,0.6-0.1,0.8c0,0.2-0.4,0.4-0.4,0.5C29,162.9,28.3,163,28,162.8"/>
			<path class="st1" d="M20.1,150.7c-0.2-0.4,0.6-0.9,0.6-0.9c0-0.5,0.6-0.4,0.6-0.4c0-0.4,0.8-0.3,0.8-0.3c0.4-0.5,0.4-0.5,0.4-0.5
				c0.6-0.1,1.3-0.2,2-0.1c1.1-0.2,1.1,0.3,1.1,0.3c0.4,0,0.7,0.1,1,0.4c0.2-0.2,0.5,0.1,0.5,0.1c0.4,0.1,0.7,0.4,0.8,0.7
				c0.8,0.2,0.4,0.8,0.4,0.8c0.5,0.4,0,0.6,0,0.8c0,0.1,0,0.3-0.4,0.4c-0.2,0-0.3,0-0.5-0.1c-0.3-0.2-0.7-0.4-0.9-0.5
				c-0.3-0.1-0.2-0.2-0.2-0.2c-0.2,0-0.2,0.1-0.3-0.1h-0.1c0,0,0,0.5-0.2,0.7s-0.3,0.2-0.4,0.2s-0.4,0.3-0.6,0.4
				c-0.1,0.1-0.2,0.1-0.4,0.2c-0.1,0-0.3,0.5-0.6,0.3c0,0-0.2-0.2-0.3-0.1c-0.2,0.2-0.5,0.2-0.8,0.1c-0.2-0.1-0.6-0.2-0.7-0.4
				c0-0.1-0.4-0.3-0.7-0.4h-0.1c-0.2-0.4-0.4-0.7-0.7-0.9C20.4,151,20.3,150.9,20.1,150.7L20.1,150.7L20.1,150.7z"/>
			<path class="st1" d="M22.3,159.1c0-0.3,0.1-0.7,0.3-1c0.2-0.2,0.4-0.3,0.7-0.4l0.5,0.1l0.5,0.1h0.3c0,0,0.7,0.1,0.8,0.1
				c0.1,0,0.8,0.1,0.8,0.1c0.1,0.2-0.3,0.3-0.3,0.3l-0.7,0.1l0.2,0.4c0.2,0.4-0.3,0.6-0.3,0.6c0.1,0.7-0.3,0.9-0.3,0.9
				c-0.6,0.3-1.3,0.2-1.8-0.2c-0.1-0.1-0.2-0.1-0.3-0.2C22.2,160,22.3,159.6,22.3,159.1"/>
			<path class="st1" d="M22.6,176.1L22.6,176.1c0.6-0.1,1.1-0.2,1.6-0.6c0.3-0.2,0.6-0.5,0.8-0.8l0,0l0,0c1.5-0.2,1.8-2,1.9-2.6
				l-0.1,0.8c0,0-0.3,1.3-0.3,1.2c-0.1,0.6-0.3,1.2-0.5,1.8c-0.1,0.3-0.6,1.5-0.7,1.7l-1.5,1.5l-0.1-0.1c-0.1-0.3-0.2-0.7-0.3-1
				C23.1,177.3,22.9,176.7,22.6,176.1L22.6,176.1z"/>
			<path class="st1" d="M19.7,159c-0.1-0.3-0.1-0.5,0-0.8v-0.1l0.9-0.5c0,0,1.3-0.5,2.1-0.8l0.2,0.1c0,0,0.9,0.6,1,0.9v0.1l-0.5-0.1
				c-0.3,0.1-0.5,0.2-0.7,0.4c-0.2,0.3-0.3,0.6-0.3,1c0,0.4-0.1,0.9,0.4,1.1c0.1,0,0.2,0.1,0.3,0.2l0,0c0,0-1.3,0-1.4-0.1
				C20.7,160.3,20,159.7,19.7,159"/>
			<path class="st1" d="M21,154.8c0.2-0.3,0.4-0.6,0.5-1c0.2-0.6,0.1-1.3-0.1-1.8h0.1c0.3,0.2,0.6,0.3,0.7,0.4
				c0.1,0.2,0.5,0.3,0.7,0.4c0.3,0.1,0.6,0.1,0.8-0.1c0.2-0.2,0.3,0.1,0.3,0.1c0.2,0.2,0.5-0.3,0.6-0.3s0.3-0.1,0.4-0.2
				c0.2-0.1,0.5-0.4,0.6-0.4s0.2,0,0.4-0.2c0.2-0.2,0.2-0.7,0.2-0.7l0.2-0.1c0.1,0.1,0.2,0.2,0.3,0.3c0,0-0.1,0.1,0.2,0.2
				c0.2,0.1,0.5,0.3,0.9,0.5l0,0c-0.1,0.1-0.1,0.2-0.2,0.3c-0.2,0.6-0.5,1.2-0.6,1.8c-0.1,0.5-0.4,0.1-0.4,0.1
				c-0.1,0.1-0.2,0.2-0.2,0.2c-0.1,0-0.2,0.1-0.4,0.1c0,0-0.1,0.2-0.2,0.2c-0.1,0.1-0.2,0.1-0.2,0.3c0,0.1,0,0.2-0.2,0.2
				c-0.3,0-0.5-0.1-0.8-0.3l-0.9-0.5l-0.1-0.1l-2.2,0.6H21z"/>
			<path class="st1" d="M13.4,171.9c-0.3-0.2-0.2-0.5-0.2-1.3s1.4-1.1,1.7-1.2c0.4,0,1.8-0.4,1.8-0.4l1.4-0.6l0,0l0.1,0.1
				c0.2,0.1,0.3,0.3,0.5,0.5c0.2,0.1,0.4,0.1,0.6,0.1s0.3-0.1,0.4-0.2c0.1-0.1,0.1-0.3,0.1-0.4c0-0.2,0.1-0.4,0.1-0.6
				c0-0.1,0.1-0.4,0.2-0.5l0,0c0.1-0.1,0.4-0.2,0.4-0.2c0.1,0,0.2-0.1,0.3-0.2c0.1,0,0.2,0.1,0.3,0.1c0.3,0.1,0.6,0.1,0.9,0
				c0.2-0.1,0.2-0.1,0.2-0.2l0,0c0.8,0.2,1.6,0.5,2.3,0.9l0,0l0,0l0,0c0.4,0.2,0.6,0.5,0.7,0.9c0,0.1,0.1,0.2,0.2,0.3
				c0.1,0.1,0,0.1,0.1,0.3c0.2,0.2,0.4,0.4,0.5,0.6s0.2,0.5,0.3,0.6l0,0c0.1,0.5,0.3,1.2,0.3,1.2l0.1,0.6l0,0
				c-0.1,0.6-0.3,2.4-1.9,2.6l0,0l0,0c-0.2,0.3-0.5,0.6-0.8,0.8c-0.5,0.3-1,0.5-1.6,0.6l0,0c-0.5,0.1-1-0.1-1.4-0.5h-0.2
				c0.2-0.4,0.4-0.9,0.5-1.4c0,0,1.1-0.1,1.1-0.7c0-0.5,0.4-1.3-2.7-2.4c-0.6,0.4-1,0.9-1.4,1.5c-0.3,0.5-0.5,1.1-0.6,1.7h-0.1
				c-1-0.8-2-1.7-2.8-2.6l0,0l0,0c-0.4,0.2-0.7,0.4-1.1,0.6l0,0C13.8,172.1,13.6,172,13.4,171.9"/>
			<path class="st1" d="M17.8,176.5c0-0.7,0.1-1.5,0.2-2.2c0.2-0.6,0.4-1.1,0.6-1.7c0.3-0.6,0.8-1.1,1.4-1.5
				c3.1,1.1,2.7,1.9,2.7,2.4s-1.1,0.7-1.1,0.7c-0.1,0.5-0.3,1-0.5,1.4c-0.1,0.2-0.2,0.3-0.2,0.3l-0.4,0.9c-0.2,0.6-0.5,1.1-0.6,1.7
				c0,0.3,0.5,0.4,0.7,0.4c0.3,0.1,0.6,0.3,0.8,0.5c0.2,0.1,0.3,0.3,0.4,0.5c0,0.1,0.1,0.1,0.2,0.2c0.1,0.1,0.3,0.2,0.4,0.3
				c0,0,0.6,0.8,0.7,0.9c0.1,0.1,0.1,0.2,0.1,0.3c-0.1,0-0.1,0.1-0.2,0.1l-0.9-0.5l-0.6-0.2c0.2,0.2,0.4,0.5,0.6,0.8
				c0,0,0.2,0.5,0.3,0.7c0.1,0.2,0,0.3-0.2,0.4c-0.1,0.1-0.3-0.2-0.3-0.2l-0.4-0.6l-0.7-0.9l0.1,0.4L21,182l0.2,0.6
				c0,0,0.1,0.4,0.2,0.5c0,0.1,0,0.2-0.1,0.2c-0.1,0.1-0.3,0-0.3,0l-0.7-1.4c0,0,0,0.2,0,0.3c0,0.2-0.4,0.4-0.5,0.4
				s-0.2,0.1-0.3,0.2c-0.1,0.1-0.2,0-0.2,0c-0.2-0.1-0.1-0.3-0.1-0.4l0.3-0.2c0.1-0.1-0.1-0.4-0.1-0.5c-0.2-0.2-0.3-0.3-0.5-0.4
				c-0.1,0-0.5-0.4-0.5-0.4c-0.4-0.6-0.7-1.4-0.6-2.1l0,0C17.8,177.8,17.8,177.1,17.8,176.5"/>
			<path class="st1" d="M18.4,158.7c-0.1-0.2,0-0.2,0-0.2c0.5-0.6,0.8-1.3,0.9-2.1c0.2-0.5,0.5-0.6,0.8-0.7c0.3-0.2,0.6-0.5,0.8-0.8
				L21,155l2.2-0.6l0.1,0.1l0,0c0.1,0.5-0.1,1-0.3,1.4l0,0h0.1c0,0.3,0,0.5,0,0.8c-0.1,0.1-0.3,0.2-0.5,0.3l0,0
				c-0.7,0.3-2.1,0.8-2.1,0.8l-0.9,0.5L18.4,158.7L18.4,158.7z"/>
			<path class="st1" d="M13.5,154.6c-0.7-0.9-0.2-1.7,0.8-2.8c0.9-1,3.7-1.3,4.3-1.3l0,0c0.5,0,1,0.1,1.5,0.4
				c0.2,0.1,0.3,0.2,0.5,0.3c0.3,0.2,0.6,0.6,0.7,0.9c0.3,0.6,0.3,1.2,0.1,1.8c-0.1,0.3-0.3,0.7-0.5,1s-0.5,0.6-0.8,0.8
				c-0.3,0.2-0.6,0.2-0.8,0.7c-0.2,0.8-0.5,1.5-0.9,2.1c0,0-0.1,0,0,0.2c0,0.1,0.1,0.2,0.1,0.3c0.4,0.8,0.7,1.7,0.8,2.7
				c0,0.9,0.1,1.8,0.4,2.6c0.2,0.7,0.7,1.6,0.9,1.6c0.2,0,0.5,0.1,0.7,0.3s0.5,0.3,0.7,0.4c0.1,0,0.3,0.1,0.3,0.2
				c0,0.1,0,0.1-0.2,0.2c-0.3,0.1-0.6,0.1-0.9,0c-0.1-0.1-0.2-0.1-0.3-0.1c-0.1,0-0.2,0.1-0.3,0.2c-0.1,0-0.3,0.1-0.4,0.2l0,0
				c0,0.1-0.1,0.4-0.2,0.5c0,0.2-0.1,0.4-0.1,0.6s0,0.4-0.1,0.4c-0.1,0.1-0.3,0.2-0.4,0.2c-0.2,0-0.4,0-0.6-0.1
				c-0.2-0.1-0.3-0.3-0.5-0.5l-0.1-0.1c-0.2-0.2-0.2-0.5-0.2-0.8c0.1-0.3,0.2-0.7,0.4-1c0-0.1-0.5-1.5-0.5-1.5s-0.8-1.1-1-1.4
				c-0.4-0.6-0.7-1.2-0.9-1.9c-0.1-0.5-0.2-1-0.3-1.5c-0.1-0.3-0.1-0.6-0.1-1c0-0.1,0-0.3,0-0.5c0.1-0.8,0.1-1.6,0.1-2.4
				c0-0.1,0-0.2,0-0.3h-0.1C15,156.3,14.2,155.5,13.5,154.6"/>
			<path class="st1" d="M10.3,171.6c0-0.3,0.1-0.6,0.2-1c0.2-0.7,0.3-1.4,0.4-2.1c0-0.5-0.4-2.8-0.4-4.3c0-0.9,0.3-1.8,0.9-2.5l0,0
				c1.5,0.1,3.1,0,4.6-0.2l0,0c0.2,0.7,0.5,1.4,0.9,1.9c0.1,0.3,1,1.4,1,1.4s0.5,1.4,0.5,1.5c-0.2,0.3-0.3,0.7-0.4,1s0,0.6,0.2,0.8
				l0,0l-1.4,0.6c0,0-1.5,0.4-1.8,0.4c-0.4,0-1.8,0.3-1.7,1.2c0,0.8-0.1,1.1,0.2,1.3c0.2,0.1,0.4,0.3,0.6,0.4l0,0
				c-0.2,0.1-0.4,0.3-0.6,0.5c-0.4,0.4-0.6,0.8-0.8,1.3h-0.1c-0.4-0.3-0.7-0.5-1.1-0.7c-0.1,0-0.3,0-0.6-0.1v-0.1l0,0
				C10.5,172.7,10.3,172.2,10.3,171.6"/>
			<path class="st1" d="M8,161.2c-0.8-1.3-0.3-1.8-0.2-1.9c0.3,0.4,0.8,0.6,1.3,0.6c0.9-0.1,1.9-0.5,2.4-0.1
				c0.5,0.3,1.3,1.2,2.2,0.6c0.7-0.4,1.3-0.9,1.6-1.1l0.2-0.1h0.1c0,0.3,0,0.7,0.1,1c0,0.5,0.1,1,0.3,1.5l0,0
				c-1.5,0.2-3.1,0.3-4.6,0.2c-0.6,0-1.2-0.1-1.8-0.2c-0.3-0.1-0.7-0.1-1-0.2l0,0C8.4,161.3,8.2,161.2,8,161.2"/>
			<path class="st1" d="M7.3,158.8c-0.2-0.2-0.4-1.1-0.2-1.3c0.2-0.2,0.9-1,0.9-1c1.1-1.9,2.2-2.2,2.2-2.2h0.1
				c-0.1,0.8-0.2,1.8-0.2,2c0.2,0.5,0.5,1,0.9,1.4c0.4,0.2,0.8,0.4,1.2,0.5c0.3,0,1.6,0.5,1.8,0.6l1.3,0.4v0.1
				c-0.3,0.2-0.9,0.7-1.6,1.1c-0.9,0.6-1.8-0.2-2.2-0.6c-0.5-0.3-1.5,0-2.4,0.1c-0.5,0-1-0.2-1.3-0.6C7.6,159.1,7.4,158.9,7.3,158.8
				"/>
			<path class="st1" d="M9.5,176.8c-1.6,0-1.1-1.7-1-2.3s1.1-1.2,1.5-1.3c0.3,0,0.5,0,0.8,0.1c0.3,0,0.5,0.1,0.6,0.1
				c0.4,0.2,0.8,0.4,1.1,0.7h0.1c-0.1,0.5,0.1,0.9,0.5,1.1l0,0c-0.4,0-1,0-1.1,0c-0.6,0.2-1.1,0.5-1.6,0.9l-0.1,0.1
				C10.1,176.4,9.8,176.6,9.5,176.8"/>
			<path class="st1" d="M11.2,185.9c-0.3-0.5-0.5-1-0.7-1.5c0.1-0.7,0.4-1.4,0.7-2c0.2-0.4,0.3-0.9,0.3-1.4c0-0.2,0.1-0.4,0.3-0.5
				v-0.1c0,0,0,0,0.1,0.1c1.1,1.1,2.3,2,3.6,2.8c1.4,0.7,4.4,1.9,4.7,2c0.1,0,0.2,0.1,0.4,0.1l0,0l0.7,0.1c2.7,0.1,2.8-1.1,3.3-2.1
				c0.1-0.1,0.1-0.3,0.1-0.4h0.1c0.2,0.3,0.4,0.6,0.6,0.9c0.2,0.7,0.2,1.3,0.1,2c0,0.4-0.3,0.4-0.8,1s-1.8,0.4-2.3,0.2
				c-0.9-0.2-1.8-0.4-2.7-0.5c-0.9-0.3-1.8-0.7-2.6-1.2c-0.8-0.6-1.6-1.2-2.3-1.8c-0.3-0.2-0.6-0.3-0.9-0.3
				c-0.6,0.3-1.1,0.6-1.6,0.9c-0.1,0.1-0.3,0.2-0.3,0.4c-0.1,0.1,0,0.2,0.1,0.4c0.1,0.1,0.2,0.1,0.3,0.2c0.1,0,0.3,0.1,0.4,0.2
				c0.1,0-0.2,0.5-0.3,0.5s-0.1,0.2-0.1,0.2s-0.2,0.1-0.3,0.2c-0.1,0-0.2,0-0.3,0s-0.2,0-0.4,0C11.3,186,11.3,186,11.2,185.9"/>
			<path class="st1" d="M10.1,156.3c0-0.2,0.1-1.2,0.2-2c0-0.2,0.1-0.3,0.1-0.5c0.2-0.7,0.8-0.9,1.2-1.2c0.4-0.2,0.9-1.2,1.4-1.5
				c0.9-0.3,1.8-0.6,2.7-0.7c0.9-0.1,1.9-0.1,2.8,0c0,0,0.1,0,0.2,0l0,0c-0.6,0-3.4,0.3-4.3,1.3c-1,1.1-1.6,1.9-0.8,2.8
				c0.7,0.9,1.5,1.7,2.2,1.4h0.1c0,0.1,0,0.3,0,0.3c0,0.8,0,1.6-0.1,2.4c0,0.2,0,0.3,0,0.5h-0.1c0,0-0.1,0-0.2,0.1v-0.1l-1.3-0.4
				c-0.2-0.1-1.5-0.6-1.8-0.6c-0.4-0.1-0.9-0.2-1.2-0.5C10.6,157.3,10.3,156.8,10.1,156.3"/>
			<path class="st1" d="M11.1,177.7c0.8,0.7,1.8,1.2,2.9,1.2c1.5,0.1,3,0.3,3.9-0.5c0,0.8,0.2,1.5,0.6,2.1l0.5,0.4
				c0.2,0.1,0.4,0.3,0.5,0.4c0,0.1,0.2,0.4,0.1,0.5s-0.3,0.2-0.3,0.2s-0.1,0.3,0.1,0.4c0,0,0.1,0.1,0.2,0s0.2-0.1,0.3-0.2
				c0.1,0,0.5-0.2,0.5-0.4s0-0.3,0-0.3l0.7,1.4c0,0,0.2,0.1,0.3,0c0.1-0.1,0.1-0.1,0.1-0.2c0-0.1-0.2-0.5-0.2-0.5l-0.2-0.6l-0.1-0.4
				l-0.1-0.4l0.7,0.9l0.4,0.6c0,0,0.2,0.2,0.3,0.2c0.1,0,0.3-0.1,0.2-0.4c-0.1-0.2-0.3-0.7-0.3-0.7c-0.2-0.3-0.3-0.6-0.6-0.8
				l0.6,0.2l0.9,0.5c0.1,0,0.1,0,0.2-0.1c0-0.1,0-0.2-0.1-0.3s-0.7-0.9-0.7-0.9c-0.1-0.1-0.3-0.2-0.4-0.3s-0.1-0.1-0.2-0.2
				c-0.1-0.2-0.3-0.3-0.4-0.5c-0.3-0.2-0.5-0.3-0.8-0.5c-0.2,0-0.7-0.1-0.7-0.4c0.2-0.6,0.4-1.2,0.6-1.7l0.4-0.9
				c0,0,0.1-0.1,0.2-0.3h0.2c0.4,0.4,0.9,0.6,1.4,0.5v0.1c0.3,0.6,0.5,1.2,0.7,1.8c0,0.3,0.4,1.4,0.7,2.3c0.2,0.6,0.3,1.1,0.4,1.1
				c0.3,0.4,0.4,0.9,0.3,1.4v0.1c0,0.1-0.1,0.3-0.1,0.4c-0.5,1.1-0.6,2.2-3.3,2.1l-0.7-0.1l0,0c-0.2-0.1-0.3-0.1-0.4-0.1
				c-0.3-0.1-3.4-1.3-4.7-2c-1.3-0.8-2.5-1.7-3.6-2.8c0,0,0,0-0.1-0.1C11.1,179.7,10.9,178.7,11.1,177.7L11.1,177.7L11.1,177.7z"/>
			<path class="st1" d="M7.4,172.5c-0.6,0-0.4-0.3-0.4-0.3c0.1-0.1,0.2-0.4,0.3-0.5c1.2-1.6,0.9-4.4,0.9-6.5c0-1.3,0.4-2.6,1.3-3.5
				v-0.1c0.6,0.1,1.2,0.2,1.8,0.2l0,0c-0.6,0.7-0.9,1.6-0.9,2.5c0,1.5,0.4,3.8,0.4,4.3c-0.1,0.7-0.2,1.4-0.4,2.1l-0.2,0.9l0.2,1.3
				c0,0,0.2,0.5-0.6,0.4c-0.5,0.2-1,0.1-1.4-0.3C8.2,172.6,7.8,172.5,7.4,172.5"/>
			<path class="st1" d="M11,177.6c-0.2-0.4-0.4-0.9-0.4-1.3h-0.2l0.1-0.1c0.5-0.4,1-0.7,1.6-0.9c0.1,0,0.6,0,1.1,0l0,0
				c-0.3-0.2-0.5-0.6-0.5-1c0-0.1,0-0.1,0-0.2c0.1-0.5,0.4-0.9,0.8-1.3c0.2-0.2,0.4-0.4,0.6-0.5c0.3-0.2,0.7-0.4,1.1-0.6l0,0
				c0.9,1,1.8,1.8,2.8,2.6h0.1c-0.2,0.7-0.3,1.4-0.2,2.2c0,0.6,0,1.3,0.1,1.9l0,0c-0.9,0.8-2.4,0.6-3.9,0.5
				c-1.1-0.1-2.1-0.5-2.9-1.2C11.1,177.7,11,177.6,11,177.6"/>
			<path class="st1" d="M5.7,172.1c0,0-0.3,0-0.3-0.1c0.2-0.3,0.4-0.6,0.6-0.9c0-0.1,0.2-0.5,0.3-0.8c0.1-0.3,0.2-0.7,0.3-1
				c0.2-0.4,0.3-0.7,0.4-1.1l0.2-3.4c0.1-1.2,0.5-2.4,1.2-3.4v-0.1c0.3,0.1,0.6,0.2,1,0.2v0.1c-0.9,0.9-1.4,2.2-1.3,3.5
				c0,2.1,0.6,4-0.3,5.6l-0.3,0.7l-0.4,1.1c0,0-0.4-0.2-0.6-0.2C6.2,172.4,5.8,172.3,5.7,172.1"/>
			<path class="st1" d="M4.3,171.1c-0.6-0.3,0.4-1.3,0.4-1.3l0.8-1.2c0.4-0.5,0.6-1.1,0.8-1.7c0.2-0.8,0.3-1.7,0.3-2.6
				c0.3-2.5,1.3-3.2,1.3-3.2c0.2,0.1,0.3,0.1,0.5,0.2l0,0v0.1c-0.7,1-1.1,2.1-1.2,3.4L7,168.2c-0.1,0.4-0.2,0.8-0.4,1.1
				c-0.1,0.3-0.2,0.7-0.4,1L5.4,172c0,0-0.4-0.3-0.6-0.4C4.6,171.5,4.3,171.1,4.3,171.1"/>
			<path class="st3" d="M9.5,161.6c-0.9,0.8-1.4,2-1.3,3.2c0,2.1,0.3,5-0.5,6.6c-0.1,0.1-0.1,0.2-0.2,0.3c0,0-0.7,0.8-0.1,0.8
				s0.9,0,1.2,0.3c0.1,0.1,0.2,0.2,0.4,0.3c0.4,0.1,0.8,0.1,1.2,0 M11.3,161.8c-0.6,0.7-0.9,1.6-0.9,2.5c0,1.5,0.4,3.8,0.4,4.3
				c-0.1,0.6-0.2,1.3-0.3,1.9c-0.2,0.9-0.2,1.8,0.1,2.7 M7.8,159.3L7.8,159.3c-0.1,0.1-0.6,0.6,0.2,1.9 M15.6,159.1
				c0,0-0.1,0-0.2,0.1c-0.3,0.2-0.9,0.7-1.6,1.1c-0.9,0.6-1.8-0.2-2.2-0.6c-0.5-0.3-1.5,0-2.4,0.1c-0.5,0-1-0.2-1.3-0.6
				c-0.2-0.2-0.4-0.5-0.5-0.5c-0.2-0.2-0.4-1.1-0.2-1.3c0.2-0.2,0.9-1,0.9-1c1.1-1.9,2.2-2.2,2.2-2.2 M20.2,167.2
				c0,0.1-0.1,0.4-0.2,0.5c0,0.2-0.1,0.4-0.1,0.6s0,0.4-0.1,0.4c-0.1,0.1-0.3,0.2-0.4,0.2c-0.2,0-0.4,0-0.6-0.1
				c-0.2-0.1-0.3-0.3-0.5-0.5l-0.1-0.1c-0.2-0.2-0.2-0.5-0.2-0.8c0.1-0.3,0.2-0.7,0.4-1c0-0.1-0.5-1.5-0.5-1.5s-0.8-1.1-1-1.4
				c-0.4-0.6-0.7-1.2-0.9-1.9c-0.1-0.5-0.2-1-0.3-1.5c-0.1-0.3-0.1-0.6-0.1-1c0-0.1,0-0.3,0-0.5c0.1-0.8,0.1-1.6,0.1-2.4
				c0-0.1,0-0.2,0-0.3c0.1-0.6,0.2-1.2,0.4-1.8c0.4-0.8,0.8-1.6,1.3-2.4 M20.2,167.2L20.2,167.2 M15.3,159.2l-1.3-0.4
				c-0.2-0.1-1.5-0.6-1.8-0.6c-0.4-0.1-0.9-0.2-1.2-0.5c-0.4-0.4-0.7-0.8-0.9-1.4c0-0.2,0.1-1.2,0.2-2c0-0.2,0.1-0.3,0.1-0.5
				c0.2-0.7,0.8-0.9,1.2-1.2c0.4-0.2,0.9-1.2,1.4-1.5c0.9-0.3,1.8-0.6,2.7-0.7c0.9-0.1,1.9-0.1,2.8,0c0,0,0.1,0,0.2,0
				c0.5,0,1,0.1,1.5,0.4c0.2,0.1,0.3,0.2,0.5,0.3c0.3,0.2,0.6,0.6,0.7,0.9c0.3,0.6,0.3,1.2,0.1,1.8c-0.1,0.3-0.3,0.7-0.5,1
				s-0.5,0.6-0.8,0.8c-0.3,0.2-0.6,0.2-0.8,0.7c-0.2,0.8-0.5,1.5-0.9,2.1c0,0-0.1,0,0,0.2c0,0.1,0.1,0.2,0.1,0.3
				c0.4,0.8,0.7,1.7,0.8,2.7c0,0.9,0.1,1.8,0.4,2.6c0.2,0.7,0.7,1.6,0.9,1.6c0.2,0,0.5,0.1,0.7,0.3s0.5,0.3,0.7,0.4
				c0.1,0,0.3,0.1,0.3,0.2c0,0.1,0,0.1-0.2,0.2c-0.3,0.1-0.6,0.1-0.9,0c-0.1-0.1-0.2-0.1-0.3-0.1c-0.1,0-0.2,0.1-0.3,0.2
				c-0.1,0-0.3,0.1-0.4,0.2l0,0l0,0 M15.7,156c-0.7,0.3-1.5-0.5-2.2-1.4c-0.7-0.9-0.2-1.7,0.8-2.8c0.9-1,3.7-1.3,4.3-1.3
				 M18.5,158.7l1.1-0.6l0.9-0.5c0,0,1.3-0.5,2.1-0.8c0.2-0.1,0.3-0.1,0.5-0.3c0-0.3,0.1-0.5,0-0.8 M23.4,154.4
				c0.1,0.5-0.1,1-0.3,1.4c-0.1,0.1-0.2,0.2-0.3,0.2l-0.8,0.5 M26.3,154.1c0,0,0.3,0.4,0.4-0.1c0.2-0.6,0.4-1.2,0.6-1.8
				c0-0.1,0.1-0.2,0.2-0.3 M21.1,154.9l2.2-0.6l0.1,0.1l0.9,0.5c0.2,0.1,0.5,0.2,0.8,0.3c0.2,0,0.2-0.1,0.2-0.2
				c0-0.1,0.1-0.2,0.2-0.3c0.1,0,0.2-0.2,0.2-0.2c0.1,0,0.2,0,0.4-0.1c0.1-0.1,0.2-0.1,0.2-0.2l0,0 M20.1,150.7
				c-0.1-0.3,0.2-0.7,0.4-0.8l0.3-0.1c0,0,0,0,0-0.1c0-0.5,1.5-0.7,1.5-0.7c0-1,2.3-0.6,2.3-0.6c0.8,0,1.6,0.2,2.2,0.6
				c0.9-0.2,1.3,0.9,1.3,0.9c0.8,0.2,0.5,1.4,0.4,1.5c0,0.1,0,0.3-0.4,0.4c-0.2,0-0.3,0-0.5-0.1c-0.3-0.1-0.6-0.2-0.9-0.4l-0.6-0.5
				c0,0,0,0.5-0.2,0.7s-0.3,0.2-0.4,0.2s-0.4,0.3-0.6,0.4c-0.3,0.2-0.6,0.4-1,0.5c-0.4,0.1-0.8,0.1-1.1,0.1
				c-0.2-0.1-0.8,0.1-0.9-0.1s-0.3-0.4-0.5-0.5 M25.4,154.1l0.3,0.3 M19.7,158.1c-0.1,0.3-0.1,0.6,0,0.9c0.3,0.8,1,1.3,1.9,1.4
				c0.1,0,1.4,0.1,1.4,0.1 M22.8,156.9c0,0,0.9,0.6,1,0.9 M18.2,168.3l-1.4,0.6c0,0-1.5,0.4-1.8,0.4c-0.4,0-1.8,0.3-1.7,1.2
				c0,0.8-0.1,1.1,0.2,1.3c0.2,0.1,0.4,0.3,0.6,0.4 M15.1,171.7c-0.4,0.2-0.7,0.4-1.1,0.6c-0.2,0.1-0.4,0.3-0.6,0.5
				c-0.4,0.4-0.6,0.8-0.8,1.3c-0.1,0.5,0.1,0.9,0.5,1.1 M12.5,174.1c-0.4-0.3-0.7-0.5-1.1-0.7c-0.1,0-0.3,0-0.6-0.1
				c-0.3,0-0.5-0.1-0.8-0.1s-1.4,0.6-1.5,1.3c-0.1,0.6-0.6,2.3,1,2.3c0.3-0.2,0.6-0.4,0.9-0.6l0.1-0.1c0.5-0.4,1-0.7,1.6-0.9
				c0.1,0,0.6,0,1.1,0c0.2,0,0.5,0.1,0.7,0.2c0.2,0.3,0.3,1.1,0.4,1.2c0.1,0.1,1,0.8,1,0.8 M20.8,180.9L20.8,180.9l0.7,0.9l0.4,0.6
				c0,0,0.2,0.2,0.3,0.2c0.1,0,0.3-0.1,0.2-0.4c-0.1-0.2-0.3-0.7-0.3-0.7c-0.2-0.3-0.3-0.6-0.6-0.8l0.6,0.2l0.9,0.5
				c0.1,0,0.1,0,0.2-0.1c0-0.1,0-0.2-0.1-0.3s-0.7-0.9-0.7-0.9c-0.1-0.1-0.3-0.2-0.4-0.3s-0.1-0.1-0.2-0.2c-0.1-0.2-0.3-0.3-0.4-0.5
				c-0.3-0.2-0.5-0.3-0.8-0.5c-0.2,0-0.7-0.1-0.7-0.4c0.2-0.6,0.4-1.2,0.6-1.7l0.4-0.9c0,0,0.1-0.1,0.2-0.3c0.2-0.4,0.4-0.9,0.5-1.4
				c0,0,1.1-0.1,1.1-0.7c0-0.5,0.4-1.3-2.7-2.4c-0.6,0.4-1,0.9-1.4,1.5c-0.3,0.5-0.5,1.1-0.6,1.7c-0.2,0.7-0.3,1.4-0.2,2.2
				c0,0.6,0,1.3,0.1,1.9 M20.3,181.6L20.3,181.6L21,183c0,0,0.2,0.1,0.3,0c0.1-0.1,0.1-0.1,0.1-0.2c0-0.1-0.2-0.5-0.2-0.5l-0.2-0.6
				l-0.1-0.4l-0.1-0.4 M17.9,178.4c0,0.8,0.2,1.5,0.6,2.1l0.5,0.4c0.2,0.1,0.4,0.3,0.5,0.4c0,0.1,0.2,0.4,0.1,0.5s-0.3,0.2-0.3,0.2
				s-0.1,0.3,0.1,0.4c0,0,0.1,0.1,0.2,0s0.2-0.1,0.3-0.2c0.1,0,0.5-0.2,0.5-0.4s0-0.3,0-0.3 M14.7,171.3c0,0,0.1,0.1,0.3,0.4
				c0.9,1,1.8,1.8,2.8,2.6 M10.5,176.3c0,0.5,0.2,0.9,0.4,1.3l0.1,0.1c0.8,0.7,1.8,1.2,2.9,1.2c1.5,0.1,3,0.3,3.9-0.5l0,0l0,0
				 M11.1,177.7c-0.2,1,0,1.9,0.7,2.7c0,0,0,0,0.1,0.1c1.1,1.1,2.3,2,3.6,2.8c1.4,0.7,4.4,1.9,4.7,2c0.1,0,0.2,0.1,0.4,0.1
				c0.7,0.2,1.3,0.5,1.9,0.9 M11.7,180.5c-0.2,0.1-0.2,0.3-0.3,0.5c0,0.5-0.1,1-0.3,1.4c-0.3,0.6-0.6,1.3-0.7,2
				c0.2,0.5,0.4,1,0.7,1.5c0.1,0.1,0.1,0.2,0.2,0.3c0.1,0,0.2,0,0.4,0c0.1,0,0.2,0,0.3,0s0.3-0.1,0.3-0.2s0-0.2,0.1-0.2
				s0.4-0.4,0.3-0.5c-0.1,0-0.3-0.1-0.4-0.2c-0.1,0-0.3,0-0.3-0.2c-0.1-0.1-0.1-0.2-0.1-0.4c0.1-0.1,0.2-0.3,0.3-0.4
				c0.5-0.4,1-0.7,1.6-0.9c0.3,0,0.6,0.2,0.9,0.3c0.7,0.7,1.5,1.3,2.3,1.8s1.7,0.9,2.7,1.2c0.9,0.1,1.8,0.3,2.7,0.5
				c0.6,0.2,1.8,0.4,2.3-0.2c0.5-0.6,0.8-0.7,0.8-1c0.1-0.7,0.1-1.4-0.1-2c-0.2-0.3-0.4-0.6-0.6-0.9 M22.3,166.7
				c0.8,0.2,1.6,0.5,2.3,0.9l0,0c0.1,0.1,0.1,0.1,0.2,0.2 M22.6,176.2c0.3,0.6,0.5,1.2,0.7,1.8c0,0.3,0.4,1.4,0.7,2.3
				c0.2,0.6,0.3,1.1,0.4,1.1c0.3,0.4,0.4,0.9,0.3,1.4v0.1c0,0.1-0.1,0.3-0.1,0.4c-0.5,1.1-0.6,2.2-3.3,2.1l-0.7-0.1 M25,174.7
				c1.5-0.2,1.8-2.1,1.9-2.7c0-0.2-0.1-0.4-0.1-0.6c0,0-0.1-0.6-0.3-1.1c-0.5-0.9-1-1.7-1.6-2.5 M24.7,167.6c0,0-0.2-1,0.2-1.2
				l0.1-0.1c0.1-0.1,0.2-0.2,0.3-0.3c0.1-0.1,0.4-0.5,0.6-0.5c0.2-0.1,0.4-0.2,0.5-0.3c0.2-0.4,0.7-0.6,1.1-0.6
				c0.7,0,1.4,0.1,2.1,0.3c0.3,0.3,0.7,0.5,1.1,0.7c0.1,0,0.2,0,0.3,0c0.3,0,0.5,0.2,0.6,0.5c0.2,0.2,0.2,0.5,0.1,0.7l0,0
				c0,0,0.6,0.4,0.7,0.7s0.2,0.9-0.4,1.1c0,0-0.7,0.1-0.8,0.1c0,0,0-0.3-0.2-0.3c-0.2-0.1-0.3,0-0.5,0.1c-0.3,0.2-0.6,0.3-0.8,0.5
				c-0.2,0-0.4,0.1-0.5,0.2c0,0.1-0.1,0.3-0.7,0.6l-2.1,0.5 M27,170.4c0.1,0.2,0.3,0.5,0.4,0.7c0.4,0.4,1,0.5,1.5,0.4
				c0.2-0.1,0.3-0.2,0.4-0.2s0.3-0.2,0.4-0.2c0.2,0,0.3-0.4,0.3-0.4s0.5,0.1,0.5-0.2s0-1.1,0-1.1c0.3-0.2,0.5-0.5,0.5-0.8
				 M29.5,171.1l-0.2-0.2 M30.1,170.7c0,0-0.4-0.1-0.4-0.2 M21.2,175.6c0.4,0.4,0.9,0.6,1.4,0.5l0,0c0.9-0.1,1.8-0.6,2.4-1.4
				c0.5-0.9,0.8-2.1-0.6-3.9 M31.8,160.4c-0.1,0.4,0.1,0.8,0.4,1c0.1,0.1,0.1,0.3,0.1,0.3c0.2,0,0.3,0,0.5-0.1
				c0.2-0.1,0.4-0.2,0.5-0.4c0.4-0.3,0.1-0.6,0.2-0.9c0-0.2,0-0.4-0.2-0.6c0.1,0,0.1,0,0.1-0.1l0,0c0-0.1-0.3-0.4-0.4-0.4
				c0,0,0-0.2,0-0.3c-0.1-0.2-0.1-0.4-0.2-0.6c0,0-0.1-0.3-0.1-0.4c0-0.2-0.2-0.4-0.4-0.5c0-0.2-0.3-0.4-0.3-0.4
				c0.1-0.5-0.4-0.4-0.5-0.6S31,156,31,156c-0.2-0.2-0.4-0.3-0.7-0.4c-0.3,0-0.6,0.1-0.9,0.3c-0.2,0-0.4,0-0.6,0.1
				c-0.5-0.1-0.9,0.2-1.1,0.6c-0.2,0.2-0.4,0.3-0.5,0.6c-0.3,0.7-0.5,1.5-0.6,2.2c-0.1,0.6,0,0.5-0.1,0.6c-0.1,0.3-1.3,1.3-0.7,1.7
				c0.6,0.4,0.8,0.5,0.9,0.8s1.8,0.5,2.1,0.3c0.4-0.2,0.6-1.4,0.6-1.4c0-0.3,0-0.6-0.1-0.9c0-0.1-0.1-0.3-0.1-0.4
				c-0.2-0.4-0.2-0.7-0.3-1.1c0-0.3-0.1-0.6-0.3-0.8c-0.2-0.2-0.4-0.5-0.3-0.8c0.1-0.4,0.3-0.8,0.6-1.1c0.5-0.2,1-0.3,1.5-0.2
				c0,0,0.3,0.3,0.4,0.4c0.1,0,0.3,0.2,0.5,0.4c0.1,0.1,0.2,0.3,0.3,0.4 M32.2,158c0,0.1,0.2,1,0.1,1.1c0,0.1,0.3,0.7,0.1,0.9
				c-0.2,0.2-0.5,0.3-0.7,0.4c-0.8,0-1.7-0.1-2.4-0.3 M26,161.9c0,0-2.5,1.4-2,5.4 M30.8,162.8l0.1,2.8 M26.1,179.7
				c0,0-0.2-3.4-0.1-3.9 M29.2,152.6c0,0,0-0.9,0.2-1.1s0.5-0.4,0.8-0.5c0.1,0,0.3,0,0.4,0c0.4,0.2,1.7,0.8,2,1.5
				c0.2,0.3,0.2,0.6,0,0.9c-0.1,0.1-0.2,0.2-0.3,0.2c-0.2,0.1-0.5,0.2-0.8,0.2 M34.9,147.9L34.9,147.9 M30.3,150.9
				c-0.3-0.6-0.1-1.3,0.3-1.7c0.8-0.9,1-1,1.3-1.1c0.3,0,0.9-0.1,0.9-0.1c0.6-0.4,1.4-0.5,2.1-0.1 M32.9,158.2c0,0,0.5-1.2,0.6-1.3
				c0.6-1.2,0.6-2.6,0-3.7c-0.1-0.4-0.7,0.3-0.7,0.3l0,0 M38.4,155.2c0,0-0.2,0.7-0.3,0.7s-0.4-0.5-0.4-0.5l0.3-1.1l0.1-1.4v-0.1
				l1.1-1.7c0-0.3-0.1-0.6-0.2-0.9c-0.2-0.2-0.4-0.4-0.5-0.7c0-0.2-0.1-0.7-0.1-0.7s-0.8,0.6-0.9,0.7c-0.3,0-0.6,0-0.9,0
				c-0.2,0-0.4,0.1-0.6,0.3c-0.1,0.2-0.4,0.7-0.5,0.8c-0.1,0.3-0.2,0.6-0.2,1c0,0.1-0.1,0.3-0.1,0.4c-0.1,0.1-0.1,0.2-0.2,0.3
				c-0.1,0.2,0,0.4,0.1,0.7c0,0.3,0,0.6-0.1,1c0,0.1-0.3,0.1-0.4,0.1c-0.1,0-0.3,0.1-0.4,0.2c0,0,0.1-0.4,0.1-0.5
				c-0.1-0.3-0.2-0.6-0.3-0.9c-0.1-0.7-0.2-1.3-0.3-2c0.1-0.5,0.2-0.9,0.4-1.4c0.1-0.4,0.2-0.8,0.4-1.2c0.1-0.1,0.2-0.3,0.3-0.4l0,0
				c0.2-0.2,0.4-0.5,0.7-0.7c0.4-0.2,0.8-0.3,1.2-0.4c0.7-0.1,1.3,0.1,1.9,0.5c0,0,0.7,0,1,0.5s0.5,0.9,0.6,1.5
				c0,0.2-0.2,0.5-0.2,0.6c0,0.3,0,0.7-0.1,1c0,0,0,0,0,0.1c-0.1,0.1-0.1,0.3-0.1,0.4c0,0.2,0.2,0.7,0.1,0.8
				c-0.1,0.1-0.3,0.2-0.3,0.3c0,0.1,0,0.6-0.2,0.7c-0.1,0.1-0.2,0.2-0.2,0.4c0,0.1,0.1,0.7-0.1,1c-0.1,0.1-0.1,0.2-0.2,0.2l0,0
				c-0.1,0-0.2,0-0.2,0.1L38.4,155.2z M35.2,152c0,0,0.4,1.3,1,1.5c0.7,0,1.3-0.2,1.9-0.6 M43.6,155.3v-0.1 M39.9,151.1
				c1.4,0.6,2.5,1.5,3.3,2.8c0.2,0.4,0.4,0.8,0.5,1.2c0,0.1,0,0.2,0,0.2l0,0 M44.6,156.3c-0.3-0.4-0.6-0.7-1-1s-0.8-0.5-1.3-0.7
				 M38.9,155c0,0-0.3,1.4,1.5,2.7 M35.5,161.7l-1.9-0.9 M34.7,180.7c0.4-0.5,0.5-1.1,0.3-1.6c-0.3-1.2-0.2-1.5-0.1-1.9
				c0.1-0.2,1.6-2,2.6-4c0.1-0.2,0.2-0.4,0.3-0.6c0.4-0.7,0.6-1.6,0.6-2.4l0.9-2l0,0 M32.7,185.1l-0.3,1.5L33,185l1.1-2.8l1.3,3.6
				l-0.8-5.1l-0.1-0.5c-0.3,0-0.6,0.2-0.8,0.5c-0.3,0.5-0.5,1.1-0.6,1.7c-0.1,0.2-0.1,0.4-0.3,0.6l0,0c-0.3,0-0.3-0.4-0.3-0.4
				l-0.1-2c-0.1-0.1-0.2-0.2-0.2-0.3c-0.1-0.4-0.2-0.8-0.1-1.2c0.1-0.6,0.4-1.1,0.7-1.6c0.1-0.3,0.4-1.1,0.6-1.8
				c0.3-0.9,0.5-1.8,0.5-1.8c0.1-0.9,0.3-1.7,0.5-2.5c0.2-0.7,0.5-1.2,1-1.7c0.2-0.3,0.3-0.6,0.4-0.9 M33,182.9l-0.3,2.1
				 M36.3,164.7c-0.1,0.2-0.2,0.4-0.3,0.6c-0.2,0.1-0.9,1.1-0.8,1.7c0.1,0.6,0.5,1.8,0.5,1.8H36l2.9-0.3c0.1,0,0.3-0.1,0.4-0.1
				c0.3-0.1,0.6-0.3,0.8-0.5c0.4-0.4,1.4-2.1,1.4-2.1 M28,186.2l4.5,1.5l8.4-2.4l-4.8-1L33,185l-0.3,0.1L28,186.2L28,186.2
				 M28,186.2v1.2l4.6,1.5l8.3-2.5v-1.2 M32.5,187.7v1.2 M35.7,162.6c-0.1-0.1-0.2-0.3-0.2-0.4c0.1-0.3-0.2-0.7,0-0.8
				c0.1-0.1,0.2-0.5,0.3-0.7c0.1-0.1,0.2-0.3,0.4-0.3c0.6-0.1,0.3-0.6,0.7-0.8c0.4-0.1,0.8-0.4,0.9-0.4c0.3-0.1,0.6-0.1,0.8-0.2
				c0.1,0,0.2,0,0.4-0.1c0.2,0,0.4,0,0.5,0c0.2,0.1,0.4,0.2,0.6,0.3c0.1,0.1,0.3,0.1,0.4,0.1c0.2,0,0.9,0.3,1,0.3s0.6,0,0.5,0.2
				c0,0.2-0.1,0.3-0.1,0.3c0.1,0,0.4,0.2,0.3,0.3c0,0.1-0.2,0.3-0.1,0.4c0,0.1,0.3,0.5,0.3,0.6c0,0.1,0.1,0.3,0,0.4
				c-0.1,0.1-0.2,0.2-0.1,0.2c0.1,0.1,0,0.2-0.1,0.3s-0.2,0.3-0.3,0.4c-0.1,0.2-0.3,0.4-0.4,0.5c-0.1,0.1-0.4,0-0.5,0.2
				c0,0.1-0.5,0.3-0.6,0.3s-0.7,0.4-0.8,0.1c-0.1-0.2-0.1-0.5,0-0.8c0-0.1,0.2-0.3,0.3-0.4c0-0.1,0-0.2,0-0.3
				c-0.1-0.1-0.3-0.3-0.1-0.5c0.3-0.4,0.6-0.9,0.8-1.3c0.1-0.2,0.1-0.4,0-0.5c-0.2-0.2-0.5-0.3-0.7-0.4c-0.3-0.1-0.7-0.2-1-0.2
				s-0.6,0-0.8,0.1c-0.2,0.1-0.7,0.3-0.8,0.4c-0.1,0.1-0.5,0.4-0.5,0.4l-0.5,0.4C35.8,161.2,35.6,161.9,35.7,162.6
				c-0.1,0.3-0.1,0.7,0,1c0.1,0.4,0.2,0.7,0.4,1c0.1,0.1,0.9,0.7,0.9,0.7s0.3,0.1,0.4,0.1c0.2,0,0.3,0.1,0.4,0.3
				c0.1,0.2,0.3,1,0.8,0.9l0.3-0.3c0,0,0.5,0.2,0.6,0.2s0.9,0.4,1.8-0.9c0.1-0.1,0.2-0.3,0.3-0.5c0,0,0.3-0.8,0.7-1.5
				c0.1,0,0.4-0.2,0.5-0.3c0.7-0.4,1.2-1,1.4-1.7c0,0,0-0.2,0-0.5 M43.4,164.7c0,0.3-0.4,1.8-0.5,2.1s0,0.7,0.1,1
				c0.2,0.6,0.3,1.2,0.3,1.8c-0.1,0.7-0.2,1.5-0.4,2.2c0,0.1-0.1,0.2-0.1,0.3l-0.1,0.3l-0.6,1.2c0,0-0.9,1.8-1.1,2.2
				c-0.6,1.2-0.6,2.6-0.1,3.9l0.3,1.1c0.5,1.7,0.7,1.8,1.3,1.9 M44.1,176.8c-0.1,1.2-0.3,2.4-0.6,3.6c-0.3,0.6-0.5,1.2-0.6,1.8
				c0,0.5-0.2,0.9-0.3,1.4c-0.1,0.2-0.2,0.4-0.3,0.7c0,0.1-0.1,0.3,0,0.5c0,0.4,0.1,0.8,0.4,0.8c0.3,0,0.5,0,0.8-0.1
				c0.2,0.1,0.4,0.1,0.7,0.2c0.2,0,0.4,0,0.7,0c0.2-0.1,0.5-0.2,0.6-0.3s0.6-0.5,0.5-0.7c-0.2-0.4-0.4-0.8-0.7-1.2
				c0,0,0-0.1-0.1-0.3c-0.2-0.5-0.2-1.1,0-1.7c0.3-0.6,3.7-5.3,3.5-8.7 M50.6,172.2c-0.7-0.1-1.4,0.1-2,0.4l0,0
				c-0.2,0.1-0.3,0.3-0.5,0.5c-1.3,1.3-2.6,2.5-4.1,3.6c-0.5,0.4-0.9,0.7-1.1,0.9c-0.2,0.2-0.4,0.5-0.5,0.7
				c0.5-5.2,2.5-10.1,5.7-14.1 M39.2,158.7c0.3-0.4,0.7-0.7,1.2-0.9c0.2-0.1,3.7-1.9,6.9-1.3 M44.1,160.4c0-0.1,0.9-3,2.8-3.8
				c0.5-0.2,1-0.2,1.4-0.1c0.4,0.2,1.5-0.3,2.7,0.7l1-0.3c1.2-0.2,2.3,0.6,2.5,1.8c0,0.1,0,0.2,0,0.3c0,0.9-1.3,2.1-1.3,2.1l-1.3,1
				c-0.4,0.6-1.7,1.3-2.1,1.6c-0.6,0.4-1.2,0.5-1.9,0.4c-2-0.4-3.9-2.9-3.9-2.9 M46.4,181.6c0.6,0.7,1.4,1.3,2.3,1.7 M39.6,166.4
				l0.3-0.2 M33,169.5c0,0-0.1-1.5-0.1-2.1c0-0.3,0.4-2,0.7-3.4 M34.2,168.7c0,0-2.5,1-1.5,3.3 M32.9,172c-0.4,0.6-0.4,0.5-0.5,0.7
				c-0.1,0.4-0.2,0.7-0.2,1.1c0,0.1,0,0.4-0.1,0.4s-0.4,0.3-0.5,0.2c0-0.1-0.3-0.5-0.5-0.5c-0.1,0-0.4-0.1-0.3,0.1
				c0.1,0.2-0.6,0.1-0.1,0.5l0.4,0.4c0.2,0.2,0.4,0.3,0.7,0.4c0.3,0.1,0.7,0,0.9-0.3 M32.9,172L32.9,172 M34.5,171.3
				c-0.4-0.2-0.8-0.2-1.1,0.2c-0.4,0.4-0.5,0.5-0.5,0.5l0,0l0,0l0,0l0,0l0,0 M32.8,173.6c0,0.2-0.2,0.8,0.2,0.8
				c0.2,0,0.4-0.1,0.4-0.3s0.1-0.5,0.2-0.7 M32.9,174.5c0,0,0,0.3-0.1,0.5c0,0.2-0.1,0.4-0.1,0.6c-0.1,0.2-0.2,0.5-0.2,0.8
				c0,0,0.2,0.5,0.5,0.2l0.3-0.4l0.3-0.5 M36.3,152.8c0.1,0.1,0.3,0.2,0.5,0.2 M36.6,152.4c0,0,0,0.1,0.3,0.1 M31.4,159
				c0.3-0.1,0.5-0.2,0.7-0.3 M29.6,157.8c0,0,0.5-0.7,0.8-0.5 M30.1,157.5L30.1,157.5 M29.9,169.7l-0.2,0.1 M26.2,152.7l-0.1,0.2
				 M36.3,151.2v0.1 M38.1,151.8v0.2 M39,165.1l0.1,0.2 M38.5,165.2l1.2-0.3 M49.1,164.3l-1.1,4.3 M50,163.8c-7-1.9-2.4-6.5-1.7-7.1
				 M25.8,152.4l0.7,0.5 M35.9,150.9c0.3,0.2,0.6,0.2,0.9,0.3 M37.8,151.7c0.3,0.2,0.6,0.2,0.9,0.3 M30.2,169.8c0,0-0.5-0.1-0.6-0.3
				 M24.3,158h0.3c0,0,0.7,0.1,0.8,0.1c0.1,0,0.8,0.1,0.8,0.1c0.1,0.2-0.3,0.3-0.3,0.3l-0.7,0.1l0.2,0.4c0.2,0.4-0.3,0.6-0.3,0.6
				c0.1,0.7-0.3,0.9-0.3,0.9c-0.6,0.3-1.3,0.2-1.8-0.2c-0.1-0.1-0.2-0.1-0.3-0.2c-0.5-0.2-0.3-0.6-0.4-1.1c0-0.4,0.1-0.7,0.3-1
				c0.2-0.2,0.4-0.3,0.7-0.4l0.5,0.1L24.3,158L24.3,158c0,0,0.2,0.3,0.1,0.4c-0.1,0.1-0.5,0.2-0.6,0.2l-0.2-0.1 M33.1,151.7l0.4,1.7
				 M52.3,183.3c0,0-2.7-0.5-2.8-4.8 M24.7,178.3c0,0,2.5,2.6,3.3,2.7 M29.3,174.6c-0.1,1.3-0.2,2.3-0.2,2.3
				c-0.2,1.5-0.6,2.9-1.2,4.2c0.7,0,1.3-0.1,1.9-0.3c0.9-0.3,1.5-1,2.4-0.5 M38,172.7c1.1-0.2,2.1-0.4,3.2-0.5l0,0
				c1-0.1,1.6-0.1,1.6-0.1 M37.9,172.8c0,0,0,2.8,0,3.1c0.1,0.5,0,1-0.2,1.5c-0.3,0.4-0.5,0.8-0.5,1.3c0,0.3,0,0.6,0,0.9
				c-0.1,0.1-0.3,1-0.3,1s-0.1,0.7,0.6,0.8c0.6,0.1,1.3,0.1,1.9-0.1c0.4-0.2,0.6-0.5,0.5-0.8c-0.1-0.2-0.4-0.4-0.5-0.6
				c-0.2-0.3-0.3-0.6-0.3-0.9c0.1-0.2,0.1-0.3,0.1-0.5c0-0.3,0-0.7,0.1-1c0.2-0.2,1.3-2,1.3-2c0.5-1,0.7-2.1,0.7-3.2 M31,153.5
				c0,0-0.1-0.2-0.2-0.4c-0.1-0.1-0.1-0.2-0.1-0.2c0-0.1,0-0.2,0-0.3c0.1-0.1,0.3,0,0.3,0c0.1,0.1,0.2,0.2,0.3,0.3
				c0.2,0.1,0.2,0,0.3,0.7c0,0.1,0,0.2,0,0.3c0,0.3-0.5,0.3-0.9,0.6c-0.4,0.2-0.8,0.2-1.2,0c0,0-0.9-0.9-1-0.9
				c-0.1-0.1-0.2-0.1-0.2,0c-0.1,0.1,0,0.1-0.4,0.1c-0.2,0-0.5-0.1-0.6-0.3c0-0.1,0.4-0.3,0.4-0.3c0.3-0.2,0.7-0.3,1.1-0.4
				c0.1,0,0.2,0,0.3,0c0.3-0.1,0.7,0,1,0.2l0.5,0.3 M7.1,172.5c0,0-1.5-0.3-1.5-0.5c0-0.1,0-0.1,0-0.2c0.2-0.1,0.3-0.3,0.4-0.5
				c0-0.1,0-0.1,0.2-0.4c0.2-0.5,0.6-1.2,0.6-1.2c0.3-0.8,0.3-0.9,0.3-0.9l0.3-4.3c0-1.1,0.4-2.2,1.2-3 M16,161.6
				c-1.5,0.2-3.1,0.3-4.6,0.2c-0.6,0-1.2-0.1-1.8-0.2c-0.3-0.1-0.7-0.1-1-0.2c-0.2,0-0.3-0.1-0.5-0.2c0,0-1,0.4-1.3,2.9
				c0,1.2-0.2,2.4-0.5,3.5c-0.5,1-1.2,1.9-2,2.7c-0.2,0.2-0.2,0.6,0,0.8l0,0l1,0.7 M54.1,160.5c0.7,2,1.1,4.1,1.3,6.3
				c0.3,4-0.1,8-1.2,11.9c-0.4,1.8,0.3,4.3,1.1,4.5c0,0-3,0.3-4.3,0.3c-0.5,0-0.6,0-1.2,0c-1.5,0-3-0.1-4.4-0.3"/>
			<path class="st4" d="M42.9,177.7c0,0-1.4,1.1,0.7,1.7"/>
			<path class="st3" d="M53.9,165c0.2,1.3,0.2,2.7,0,4c-0.4,2.1,0.4,8.3,0.2,9.6"/>
			<line class="st3" x1="49.5" y1="159.5" x2="50.7" y2="158.4"/>
			<path class="st3" d="M32.9,167.8c0,0,1.1-3.3,1.7-3.5 M23.8,169c0,0,2.5,1,2.9,2.2 M16.5,163c-0.1,0.9,0,1.8,0.2,2.7
				c0.3,1.6,0.8,3,0.8,3 M29.3,162.7c0,0,2.4,0.5,2.9-1.2 M26.5,173.5c-0.1,0.8-0.3,1.6-0.6,2.4c0,0-0.2,0.6-0.5,1.2
				c-0.2,0.7-1.8,2-1.8,2 M20,171.1c0.5-0.5,1.3-0.8,2-0.7c0,0,0.6,0,1.1,0 M42.2,159.6c0.9-0.2,1.8,0.3,2,1.2c0,0.2,0.1,0.3,0,0.5
				 M31.7,158.4c0.2-0.1,0.4-0.3,0.5-0.5c-0.3-0.2-0.7-0.4-1-0.6c-0.4-0.2,0-0.5,0-0.5 M42.2,163.5c-0.1,0.5-0.2,1.1-0.4,1.6
				 M42.6,164.6l2.7-0.1c0.3,0,0.7-0.1,1-0.3 M47.9,176.6c1.6,1.8,3.3,3.6,3.3,3.6 M44.5,167.6c0,0.8,0,1.5,0.1,2.3"/>
			<line class="st3" x1="27" y1="170.8" x2="26.7" y2="171"/>
			<path class="st5" d="M159.3,185.1c0.8,0.9,1.9,1.4,3.2,1.4c2.1,0,3.5-1.3,3.5-2.9c-0.1-1.1-0.8-2.1-1.9-2.6l0,0
				c0.9-0.5,1.5-1.4,1.6-2.4c-0.1-1.6-1.4-2.9-3-2.8c-0.1,0-0.1,0-0.2,0c-1.1,0.1-2.1,0.5-2.8,1.4c-0.1,0.1-0.1,0.3,0,0.4l0,0
				l0.6,0.5c0.1,0.1,0.3,0.1,0.4,0l0,0c0.4-0.5,1.1-0.9,1.8-0.9c0.9,0,1.7,0.7,1.8,1.6c0,0,0,0,0,0.1c0,0.9-0.7,1.6-2.2,1.6h-0.9
				c-0.2,0-0.3,0.1-0.3,0.3v0.7c0,0.2,0.1,0.3,0.2,0.3c0,0,0,0,0.1,0h0.9c1.6,0,2.4,0.9,2.4,1.8c-0.1,1-0.9,1.7-1.9,1.7
				c0,0,0,0-0.1,0c-0.8,0-1.5-0.4-2.1-1c-0.1-0.1-0.3-0.2-0.4-0.1l0,0l-0.6,0.6C159.2,184.8,159.2,185,159.3,185.1 M154.7,185.1
				c-1.7,0-2.2-1.8-2.1-3c0.4-0.7,1.2-1.2,2.1-1.2c1.2,0,2.1,1,2,2.2C156.7,184.1,155.8,185,154.7,185.1 M151.1,182.1
				c0,2.4,1.2,4.3,3.6,4.3c1.9,0,3.4-1.6,3.4-3.5c0.1-1.8-1.3-3.3-3-3.3c-0.1,0-0.1,0-0.2,0c-0.7,0-1.4,0.2-2,0.6
				c0.5-1.9,3-3.2,3.7-3.4c0.3-0.1,0.4-0.3,0.3-0.4l-0.3-0.6c0-0.2-0.2-0.2-0.3-0.2l0,0C154.7,176,151.1,177.8,151.1,182.1
				 M144,183.5c0.1-1.1,1-1.9,2.1-1.8c1,0.1,1.8,0.8,1.8,1.8s-0.9,1.7-1.9,1.7h-0.1C144.9,185.3,144.1,184.5,144,183.5L144,183.5
				 M145.9,180.2c-1.2-0.2-1.7-0.8-1.7-1.6c0-0.9,0.7-1.6,1.6-1.6c0,0,0,0,0.1,0c0.9-0.1,1.7,0.6,1.8,1.5v0.1
				C147.7,179.4,147.1,180,145.9,180.2 M142.4,183.5c0,1.7,1.4,3,3.5,3c2.2,0,3.6-1.3,3.6-3c-0.1-1.1-0.8-2.1-1.9-2.6v-0.1
				c0.9-0.4,1.5-1.4,1.6-2.4c0-1.7-1.4-2.8-3.3-2.8c-1.8,0-3.3,1.1-3.3,2.8c0.1,1,0.7,1.9,1.6,2.4l0,0
				C143.2,181.4,142.5,182.4,142.4,183.5 M135,186.3h5.3c0.2,0,0.3-0.1,0.3-0.3l0,0v-0.7c0-0.2-0.1-0.3-0.3-0.3l0,0h-1.7v-8.9
				c0-0.2-0.1-0.3-0.3-0.3h-0.8l-2.3,2.1c-0.1,0.1-0.1,0.2,0,0.3l0.2,0.5c0,0.1,0.2,0.2,0.3,0.1l0,0l1.3-0.7v6.9h-2
				c-0.2,0-0.3,0.1-0.3,0.3l0,0v0.7C134.7,186.2,134.8,186.3,135,186.3L135,186.3 M121,180.9c0-2.2,1.8-4,4-4s4,1.8,4,4s-1.8,4-4,4
				l0,0C122.8,184.9,121,183.1,121,180.9 M119.5,180.9c0,3.1,2.5,5.5,5.5,5.5c3.1,0,5.5-2.5,5.5-5.5s-2.5-5.5-5.5-5.5
				S119.5,177.8,119.5,180.9L119.5,180.9 M108.3,186c0,0.2,0.1,0.3,0.3,0.3h1c0.2,0,0.3-0.1,0.3-0.3v-7.5l0,0l6.7,7.9h0.4
				c0.2,0,0.3-0.1,0.3-0.3v-10.3c0-0.2-0.1-0.3-0.3-0.3h-1c-0.2,0-0.3,0.1-0.3,0.3v7.3l0,0l-6.7-7.7h-0.4c-0.2,0-0.3,0.1-0.3,0.3
				V186z M99.8,182.6l1.9-4.2h0.1l1.9,4.2H99.8z M97,186.3h1c0.2,0,0.3-0.1,0.4-0.2c0.3-0.7,0.6-1.4,0.9-2.1h5l1,2.1
				c0.1,0.1,0.2,0.2,0.4,0.2h1c0.1,0,0.3-0.1,0.3-0.2c0-0.1,0-0.1,0-0.2l-4.7-10.3c-0.1-0.1-0.2-0.2-0.3-0.2h-0.2
				c-0.1,0-0.2,0.1-0.3,0.2l-4.7,10.3C96.7,186,96.8,186.2,97,186.3C96.9,186.3,96.9,186.3,97,186.3 M89.7,186
				c0,0.2,0.1,0.3,0.3,0.3l0,0h5.5c0.2,0,0.3-0.1,0.3-0.3v-0.8c0-0.2-0.1-0.3-0.3-0.3h-4.2v-9c0-0.2-0.1-0.3-0.3-0.3h-1
				c-0.2,0-0.3,0.1-0.3,0.3l0,0V186z M85.1,186c0,0.2,0.1,0.3,0.3,0.3h1c0.2,0,0.3-0.1,0.3-0.3v-10.2c0-0.2-0.1-0.3-0.3-0.3h-1
				c-0.2,0-0.3,0.1-0.3,0.3V186z M71,185.9c0,0.1,0,0.3,0.2,0.3h0.1h1c0.1,0,0.2-0.1,0.3-0.2l1.1-6.9h0.1l2.8,7.1
				c0,0.1,0.1,0.2,0.3,0.2h0.3c0.1,0,0.2-0.1,0.3-0.2l2.8-7.1l0,0l1.1,6.9c0,0.1,0.2,0.2,0.3,0.2h1c0.1,0,0.3-0.1,0.3-0.2v-0.1
				l-2-10.3c0-0.1-0.1-0.2-0.3-0.2h-0.2c-0.1,0-0.2,0.1-0.3,0.2l-3.2,7.9l0,0l-3.2-7.9c-0.1-0.1-0.2-0.2-0.3-0.2h-0.2
				c-0.1,0-0.2,0.1-0.3,0.2L71,185.9z"/>
			<path class="st5" d="M200.5,160.6c0-2.8,2.2-5,5-5.1c2.8,0,5,2.2,5.1,5c0,2.8-2.2,5-5,5.1l0,0
				C202.7,165.6,200.5,163.3,200.5,160.6 M197.6,160.6c0,4.4,3.6,7.9,7.9,7.9c4.4,0,7.9-3.6,7.9-7.9c0-4.4-3.6-7.9-7.9-7.9
				c-4.3,0-7.9,3.5-7.9,7.8C197.6,160.5,197.6,160.5,197.6,160.6 M182.3,160.6c0,4.3,3.5,7.9,7.9,7.9c0,0,0,0,0.1,0
				c2,0,3.9-0.7,5.3-2.1c0.2-0.2,0.2-0.4,0-0.6l0,0l-1.4-1.4c-0.2-0.1-0.4-0.1-0.5,0c-0.9,0.8-2.1,1.2-3.4,1.3c-2.7,0-4.9-2.3-4.9-5
				l0,0c-0.1-2.7,2.1-5,4.8-5.1c0,0,0,0,0.1,0c1.2,0,2.4,0.5,3.4,1.3c0.1,0.2,0.3,0.2,0.5,0.1c0,0,0,0,0.1-0.1l1.3-1.4
				c0.2-0.2,0.2-0.4,0-0.6l0,0c-1.4-1.4-3.3-2.1-5.3-2C185.9,152.6,182.3,156.2,182.3,160.6C182.3,160.5,182.3,160.6,182.3,160.6
				 M176.6,167.8c0,0.2,0.2,0.4,0.4,0.4h2c0.2,0,0.4-0.2,0.4-0.4v-14.5c0-0.2-0.2-0.4-0.4-0.4h-2c-0.2,0-0.4,0.2-0.4,0.4V167.8z
				 M159.8,167.8c0,0.2,0.2,0.4,0.4,0.4h2c0.2,0,0.4-0.2,0.4-0.4l0,0v-9.4l0,0l9.2,10.1h0.5c0.2,0,0.4-0.2,0.4-0.4v-14.8
				c0-0.2-0.2-0.4-0.4-0.4h-2c-0.2,0-0.4,0.2-0.4,0.4l0,0v9.1l0,0l-9.1-9.7h-0.5c-0.2,0-0.4,0.2-0.4,0.4L159.8,167.8L159.8,167.8z
				 M143.6,160.6c0,4.3,3.5,7.9,7.9,7.9c0,0,0,0,0.1,0c2,0,3.9-0.7,5.3-2.1c0.2-0.2,0.2-0.4,0-0.6l0,0l-1.4-1.4
				c-0.2-0.1-0.4-0.1-0.5,0c-0.9,0.8-2.1,1.2-3.4,1.3c-2.7,0-4.9-2.3-4.9-5l0,0c-0.1-2.7,2.1-5,4.8-5.1c0,0,0,0,0.1,0
				c1.2,0,2.4,0.5,3.4,1.3c0.1,0.2,0.3,0.2,0.5,0.1c0,0,0,0,0.1-0.1l1.3-1.4c0.2-0.2,0.2-0.4,0-0.6l0,0c-1.4-1.4-3.3-2.1-5.3-2
				C147.2,152.6,143.6,156.2,143.6,160.6C143.6,160.5,143.6,160.6,143.6,160.6 M131.6,167.8c0,0.2,0.2,0.4,0.4,0.4l0,0h8.9
				c0.2,0,0.4-0.2,0.4-0.4l0,0V166c0-0.2-0.2-0.4-0.4-0.4l0,0h-6.5v-3.8h5.4c0.2,0,0.4-0.2,0.4-0.4l0,0v-1.8c0-0.2-0.2-0.4-0.4-0.4
				h-5.4v-3.6h6.5c0.2,0,0.4-0.2,0.4-0.4l0,0v-1.8c0-0.2-0.2-0.4-0.4-0.4l0,0H132c-0.2,0-0.4,0.2-0.4,0.4l0,0V167.8z M122.5,167.8
				c0,0.2,0.2,0.4,0.4,0.4h2c0.2,0,0.4-0.2,0.4-0.4v-12.3h3.4c0.2,0,0.4-0.2,0.4-0.4l0,0v-1.8c0-0.2-0.2-0.4-0.4-0.4l0,0h-9.6
				c-0.2,0-0.4,0.2-0.4,0.4l0,0v1.8c0,0.2,0.2,0.4,0.4,0.4l0,0h3.4V167.8z M113,167.8c0,0.2,0.2,0.4,0.4,0.4h2
				c0.2,0,0.4-0.2,0.4-0.4v-14.5c0-0.2-0.2-0.4-0.4-0.4h-2c-0.2,0-0.4,0.2-0.4,0.4V167.8z M101.3,167.8c0,0.2,0.2,0.4,0.4,0.4l0,0h8
				c0.2,0,0.4-0.2,0.4-0.4l0,0V166c0-0.2-0.2-0.4-0.4-0.4l0,0h-5.6v-12.3c0-0.2-0.2-0.4-0.4-0.4h-2c-0.2,0-0.4,0.2-0.4,0.4l0,0
				V167.8z M86.1,160.6c0-2.8,2.2-5,5-5.1c2.8,0,5,2.2,5.1,5c0,2.8-2.2,5-5,5.1l0,0C88.3,165.6,86.1,163.3,86.1,160.6 M83.2,160.6
				c0,4.4,3.6,7.9,7.9,7.9c4.4,0,7.9-3.6,7.9-7.9c0-4.4-3.6-7.9-7.9-7.9s-7.9,3.5-7.9,7.8C83.2,160.5,83.2,160.5,83.2,160.6
				 M73.9,160v-4.4h2.5c1.2,0,2.2,0.9,2.3,2.1l0,0c0,1.3-1,2.3-2.2,2.3l0,0H73.9z M71,167.8c0,0.2,0.2,0.4,0.4,0.4l0,0h2
				c0.2,0,0.4-0.2,0.4-0.4v-5.2h2.7c2.7,0,4.9-2.2,4.9-4.9c0-2.7-2.2-4.9-4.9-4.9h-5.2c-0.2,0-0.4,0.2-0.4,0.4l0,0L71,167.8z"/>
		</g>
	</g>
</g>
<g id="Layer_2_2_">
	<g id="Layer_1-2_1_">
		<g id="Page-1">
			<g id="Logo_DensityDesign">
				<rect id="Rectangle" x="132.9" y="11.3" class="st5" width="10.8" height="1.8"/>
				<polygon id="Path" class="st5" points="97.1,22.8 97.1,3.2 103.5,3.2 103.5,6 100.2,6 100.2,11.4 102.4,11.4 102.4,14 100.2,14 
					100.2,19.8 103.5,19.8 103.5,22.8 				"/>
				<polygon id="Path-2" class="st5" points="122.3,22.8 119,12.9 118,9.7 118,22.8 116,22.8 116,3.2 117.9,3.2 121,13.2 
					121.8,16.4 121.8,3.2 123.8,3.2 123.8,22.8 				"/>
				<polygon id="Path-3" class="st5" points="98.6,52 98.6,32.5 101.7,32.5 101.7,52 				"/>
				<path id="Path-4" class="st5" d="M82.5,80.4l-0.3-1c-0.4,0.8-1.2,1.3-2.1,1.3c-2.1,0-3.4-1.5-3.4-3.8V64.4
					c0-2.1,1.6-3.8,3.7-3.8h0.1c2.2,0,3.7,1.7,3.7,3.8V68h-2.8v-3.7c0-0.4-0.3-0.8-0.7-0.8h-0.1c-0.4,0-0.8,0.3-0.8,0.7v0.1v12.8
					c0,0.4,0.3,0.8,0.7,0.9h0.1c0.4,0,0.8-0.3,0.8-0.7v-0.1v-4h-0.8v-2.4h3.7v9.6C84.3,80.4,82.5,80.4,82.5,80.4z"/>
				<polygon id="Path-5" class="st5" points="101.5,80.4 99.3,71.6 98.6,68.9 98.6,80.4 96,80.4 96,60.9 98.9,60.9 100.8,69.6 
					101.4,72.4 101.4,60.9 104,60.9 104,80.4 				"/>
				<polygon id="Path-6" class="st5" points="121,34.4 121,52 118.9,52 118.9,34.4 116.3,34.4 116.3,32.4 123.5,32.4 123.5,34.4 
									"/>
				<polygon id="Path-7" class="st5" points="139.3,44.3 139.3,52 137.2,52 137.2,44.3 134.2,32.4 136.3,32.4 138.4,41.6 
					140.5,32.4 142.5,32.4 				"/>
				<rect id="Rectangle-2" x="114.5" y="69.1" class="st5" width="10.8" height="2.3"/>
				<rect id="Rectangle-3" x="118.8" y="64.8" class="st5" width="2.3" height="10.8"/>
				<path id="Shape" class="st5" d="M79,22.8h-2.3V3.2H79c5.3,0,5.7,2.1,5.7,9.8C84.8,20.7,84.4,22.8,79,22.8z M79.7,19.9
					c2,0,2.2-0.5,2.1-6.9c0-6.4-0.1-6.9-2.1-6.9V19.9z"/>
				<path id="Path-8" class="st5" d="M81.6,41.2c-1.2-2.2-1.9-3-1.9-5.2c0-0.7,0.4-1,0.9-1s0.8,0.4,0.8,1v1.5l2.6-0.3v-0.9
					c0-2.6-1.4-4.1-3.4-4.1c-2.6,0-3.9,2-3.9,4.4c0,2.3,1.6,5,2.7,6.8c1.1,2,1.8,3.3,1.8,5.1c0,0.7-0.3,1.2-1,1.2s-1-0.5-1-1.2v-1.6
					l-2.6,0.3v1c0,2.6,1.4,4.1,3.8,4.1c1.9,0,3.8-1.3,3.8-4.3C84.2,45.7,82.9,43.4,81.6,41.2z"/>
			</g>
		</g>
	</g>
</g>
</svg>
