<svg width="15" height="15" viewBox="0 0 15 15" fill="none" xmlns="http://www.w3.org/2000/svg">
<path fill-rule="evenodd" clip-rule="evenodd" d="M15 7.5C15 11.6421 11.6421 15 7.5 15C3.35786 15 0 11.6421 0 7.5C0 3.35786 3.35786 0 7.5 0C11.6421 0 15 3.35786 15 7.5ZM3.73742 5.34182C3.29111 4.89551 3.29111 4.17189 3.73742 3.72557L3.76264 3.70035C4.20896 3.25404 4.93257 3.25404 5.37889 3.70035L7.46236 5.78383L9.62079 3.6254C10.0671 3.17909 10.7907 3.17909 11.237 3.6254L11.4153 3.80365C11.8616 4.24996 11.8616 4.97358 11.4153 5.41989L9.25685 7.57832L11.3388 9.66025C11.7851 10.1066 11.7851 10.8302 11.3388 11.2765L11.3136 11.3017C10.8672 11.748 10.1436 11.748 9.69732 11.3017L7.61539 9.21979L5.45538 11.3798C5.00907 11.8261 4.28545 11.8261 3.83914 11.3798L3.66089 11.2015C3.21458 10.7552 3.21458 10.0316 3.66089 9.5853L5.8209 7.4253L3.73742 5.34182Z" fill="#656565"/>
</svg>
