<?xml version="1.0" encoding="utf-8"?>
<!-- Generator: Adobe Illustrator 21.0.2, SVG Export Plug-In . SVG Version: 6.00 Build 0)  -->
<svg version="1.1" id="Layer_1" xmlns="http://www.w3.org/2000/svg" xmlns:xlink="http://www.w3.org/1999/xlink" x="0px" y="0px"
	 width="99.4px" height="73px" viewBox="0 0 99.4 73" style="enable-background:new 0 0 99.4 73;" xml:space="preserve">
<style type="text/css">
	.st0{fill:none;stroke:#979796;stroke-width:0.369;stroke-miterlimit:10;}
	.st1{fill:#8AB0C7;}
	.st2{fill:none;stroke:#979796;stroke-width:0.2096;stroke-linecap:round;stroke-linejoin:round;}
	.st3{fill:none;stroke:#979796;stroke-width:0.1897;stroke-linecap:round;stroke-linejoin:round;}
	.st4{fill:#979796;}
</style>
<g>
	<path class="st0" d="M71.8,23.8l-2-0.2 M71.6,24.9l-2-0.2 M71.6,25.8l-1.9-0.3 M71.3,26.9l-1.9-0.4 M71.1,27.9l-1.9-0.5 M70.8,28.9
		l-1.9-0.6 M70.5,29.9l-1.8-0.6 M70.1,30.8l-1.8-0.7 M69.7,31.8l-1.8-0.9 M69.3,32.8l-1.8-1 M68.7,33.6l-1.7-1 M68.1,34.5l-1.7-1.1
		 M67.6,35.4L66,34.3 M66.9,36.2L65.4,35 M66.3,37l-1.5-1.3 M65.6,37.8l-1.4-1.4 M64.9,38.5l-1.4-1.4 M64.1,39.1l-1.3-1.4
		 M63.3,39.8l-1.2-1.6 M62.4,40.5l-1.1-1.6 M61.6,41l-1-1.7 M60.7,41.6l-1-1.7 M59.8,42.1l-0.9-1.8 M58.8,42.6L58,40.8 M57.9,43
		l-0.7-1.8 M56.9,43.3l-0.6-1.8 M55.9,43.6l-0.6-1.9 M54.9,43.9L54.4,42 M54,44.2l-0.4-1.9 M52.9,44.3l-0.3-1.9 M51.9,44.4l-0.2-1.9
		 M50.8,44.5l-0.1-2 M49.8,44.5v-2 M48.8,44.5l0.1-2 M47.7,44.5l0.2-2 M46.7,44.4l0.2-2 M45.7,44.2l0.3-1.9 M44.6,44l0.4-1.9
		 M43.7,43.8l0.6-1.9 M42.6,43.4l0.6-1.9 M41.7,43.1l0.7-1.8 M40.7,42.7l0.8-1.8 M39.8,42.3l0.9-1.8 M38.8,41.8l1-1.8 M37.9,41.3
		l1-1.7 M37.1,40.7l1.1-1.6 M36.3,40.1l1.2-1.6 M35.4,39.4l1.3-1.5 M34.7,38.8l1.4-1.4 M33.9,38.1l1.4-1.4 M33.2,37.3l1.4-1.4
		 M32.4,36.6l1.5-1.3 M31.8,35.7l1.6-1.2 M31.2,34.9l1.6-1.1 M30.7,34l1.7-1 M30.1,33.2l1.8-1 M29.6,32.2l1.8-0.9 M29.2,31.3
		l1.8-0.8 M28.8,30.3l1.8-0.7 M28.5,29.3l1.8-0.6 M28.1,28.4l1.9-0.6 M27.9,27.3l1.9-0.4 M27.7,26.3l1.9-0.4 M27.5,25.3l2-0.2
		 M27.4,24.3l2-0.2 M27.3,23.3l2-0.1 M27.3,22.2h2 M27.3,21.2l2,0.1 M27.4,20.2l2,0.2 M27.5,19.1l1.9,0.3 M27.7,18.1l1.9,0.4
		 M27.9,17.1l1.9,0.5 M28.2,16.1l1.9,0.6 M28.5,15.1l1.8,0.6 M28.8,14.1l1.8,0.7 M29.2,13.1l1.8,0.8 M29.7,12.2l1.8,0.9 M30.2,11.3
		l1.8,1 M30.8,10.4l1.7,1 M31.3,9.6l1.6,1.1 M32,8.7l1.6,1.2 M32.6,7.9l1.5,1.3 M33.2,7.1l1.4,1.4 M33.9,6.4l1.4,1.4 M34.7,5.7
		l1.4,1.4 M35.5,5l1.3,1.5 M36.3,4.4L37.5,6 M37.2,3.7l1.1,1.7 M38.1,3.2l1,1.7 M39,2.7l1,1.8 M39.9,2.2L40.8,4 M40.9,1.8l0.8,1.8
		 M41.8,1.4l0.7,1.8 M42.8,1l0.6,1.9 M43.8,0.8l0.5,1.9 M44.8,0.6l0.4,1.9 M45.8,0.3l0.3,1.9 M46.9,0.2l0.2,2 M47.9,0.1l0.2,2
		 M48.9,0L49,2 M50,0v2 M51,0.1L50.8,2 M52,0.2l-0.2,2 M53.1,0.3l-0.3,1.9 M54.1,0.5l-0.4,1.9 M55.1,0.7l-0.5,1.9 M56.1,1l-0.6,1.9
		 M57.1,1.3l-0.6,1.9 M58,1.7l-0.7,1.8 M59,2.1l-0.8,1.8 M59.9,2.6l-1,1.8 M60.8,3.1l-1,1.7 M61.7,3.6l-1.1,1.7 M62.6,4.2l-1.2,1.6
		 M63.4,4.9l-1.2,1.5 M64.2,5.5L62.9,7 M65,6.2l-1.4,1.4 M65.7,6.9l-1.4,1.4 M66.4,7.7L64.9,9 M67,8.5l-1.5,1.2 M67.7,9.3l-1.6,1.1
		 M68.3,10.2l-1.7,1 M68.8,11.1l-1.7,1 M69.3,12l-1.8,1 M69.7,12.9L68,13.7 M70.2,13.9l-1.8,0.7 M70.5,14.8l-1.8,0.6 M70.8,15.8
		l-1.9,0.6 M71.2,16.8l-1.9,0.5 M71.4,17.9l-1.9,0.4 M71.6,18.8l-1.9,0.3 M71.7,19.8l-2,0.2 M71.8,20.9l-2,0.2 M71.8,21.9h-2
		 M71.8,23h-2"/>
	<polyline class="st1" points="50.7,24.3 50.7,24.3 50.7,24.3 50.7,24.3 	"/>
	<path class="st1" d="M50.7,24.3L50.7,24.3L50.7,24.3z"/>
	<path class="st1" d="M50.7,24.3L50.7,24.3L50.7,24.3z"/>
	<path class="st2" d="M34,17c0,0-1,0.6-1,2.3c0,1.5,0.2,3.6-0.4,4.7c-0.1,0.1-0.1,0.2-0.2,0.2c0,0-0.5,0.6-0.1,0.6s0.6,0,0.8,0.2
		c0.1,0.1,0.2,0.2,0.2,0.2c0,0,0.4,0.1,0.9,0 M35.4,17.1c0,0-0.6,0.7-0.6,1.8c0,1.1,0.3,2.7,0.3,3c0,0.2-0.1,0.8-0.2,1.4
		c-0.1,0.3-0.2,1.1,0.1,1.9 M32.8,15.3L32.8,15.3c-0.1,0.1-0.5,0.4,0.2,1.4 M38.3,15.1c0,0-0.1,0-0.2,0.1c-0.2,0.2-0.6,0.5-1.1,0.8
		c-0.6,0.5-1.3-0.2-1.6-0.4s-1,0-1.7,0.1c-0.4,0.1-0.7-0.2-1-0.4c-0.2-0.2-0.3-0.3-0.3-0.4c-0.2-0.2-0.2-0.8-0.1-0.9
		c0.2-0.2,0.6-0.7,0.6-0.7c0.8-1.4,1.5-1.5,1.5-1.5 M41.7,20.9c0,0-0.1,0.2-0.1,0.3s-0.1,0.3-0.1,0.5c0,0.1,0,0.2-0.1,0.3
		c0,0-0.2,0.2-0.3,0.2c-0.1,0-0.3,0-0.4-0.1s-0.2-0.2-0.3-0.3l-0.1-0.1c-0.1-0.1-0.2-0.3-0.2-0.6c0.1-0.3,0.2-0.6,0.2-0.7
		S40,19.2,40,19.2s-0.6-0.8-0.7-1c-0.1-0.2-0.4-0.5-0.6-1.4c-0.1-0.3-0.2-0.6-0.2-1c0,0-0.1-0.2-0.1-0.7c0-0.1,0-0.2,0-0.3
		c0.1-0.6,0.1-1.5,0.1-1.7c0,0,0-0.1,0-0.2c0.1-0.3,0.2-0.9,0.2-1.3c0.2-0.5,1-1.8,1-1.8 M41.7,20.9L41.7,20.9 M38.2,15.2l-1-0.3
		c-0.2-0.1-1-0.4-1.3-0.4c-0.2,0-0.6-0.2-0.9-0.3c-0.2-0.2-0.6-0.8-0.6-1s0.1-0.9,0.2-1.4c0-0.2,0.1-0.2,0.1-0.3
		c0.2-0.5,0.6-0.6,0.9-0.9c0.3-0.2,0.6-0.8,1-1s1.2-0.4,1.9-0.6c0.7-0.2,2,0,2,0h0.1c0.2,0,0.6,0.1,1,0.2c0.1,0.1,0.2,0.2,0.3,0.2
		c0.2,0.2,0.4,0.4,0.6,0.6c0.2,0.4,0.2,0.9,0.1,1.3c-0.1,0.2-0.2,0.5-0.3,0.7c-0.2,0.3-0.4,0.5-0.6,0.6c-0.2,0.1-0.5,0.2-0.6,0.5
		c-0.1,0.3-0.3,1.1-0.6,1.4c0,0-0.1,0,0,0.2c0,0.1,0,0.1,0.1,0.2c0.2,0.3,0.6,1.2,0.6,1.9c0,0.6,0.1,1.4,0.2,1.8
		c0.2,0.6,0.5,1.2,0.6,1.2s0.4,0.1,0.5,0.2s0.4,0.2,0.6,0.3c0.1,0,0.2,0.1,0.2,0.2c0,0.1,0,0.1-0.2,0.2c-0.3,0.1-0.6,0-0.6,0
		s-0.2-0.1-0.2-0.1S42,20.6,42,20.6c-0.1,0-0.2,0.1-0.3,0.2l0,0l0,0 M38.5,12.9c-0.6,0.2-1-0.3-1.6-1c-0.5-0.6-0.2-1.2,0.6-2
		c0.6-0.7,2.6-0.9,3-1 M40.4,14.8l0.8-0.4l0.6-0.3c0,0,1-0.3,1.5-0.6c0.2-0.1,0.3-0.2,0.3-0.2c0-0.2,0-0.6,0-0.6 M43.9,11.8
		c0,0,0.1,0.6-0.2,1c-0.1,0.1-0.1,0.2-0.2,0.2L43,13.2 M46,11.6c0,0,0.2,0.2,0.3-0.1c0.1-0.3,0.4-1.1,0.5-1.3s0.2-0.2,0.2-0.2
		 M42.3,12.1l1.6-0.4l0.1,0.1l0.6,0.3c0,0,0.4,0.2,0.6,0.2c0.2,0,0.2-0.1,0.2-0.2c0-0.1,0.1-0.2,0.2-0.2c0.1,0,0.2-0.2,0.2-0.2
		s0.2,0,0.2-0.1s0.2-0.2,0.2-0.2 M41.6,9.2c-0.1-0.2,0.2-0.5,0.2-0.6L42,8.6c0,0,0,0,0-0.1C42,8.2,43,8,43,8c0-0.7,1.7-0.4,1.7-0.4
		C45.5,7.4,46.2,8,46.2,8c0.6-0.1,1,0.6,1,0.6c0.6,0.2,0.3,1,0.3,1.1c0,0.1,0,0.2-0.3,0.2c-0.1,0-0.2,0-0.3-0.1
		c-0.2-0.1-0.2-0.1-0.6-0.2l-0.4-0.3c0,0,0,0.3-0.1,0.5C45.6,10,45.5,10,45.4,10c-0.1,0-0.3,0.2-0.5,0.3c-0.2,0.1-0.3,0.3-0.7,0.3
		c0,0-0.6,0.2-0.8,0c-0.2-0.1-0.6,0.1-0.6-0.1c0-0.1-0.2-0.2-0.3-0.4 M45.3,11.6l0.2,0.2 M41.3,14.4c0,0-0.1,0.4,0,0.6
		c0,0,0.3,1,1.4,1c0.1,0,1,0.1,1,0.1 M43.5,13.5c0,0,0.6,0.5,0.7,0.6 M40.2,21.7l-1,0.5c0,0-1,0.2-1.3,0.3c-0.2,0-1.3,0.2-1.2,0.8
		c0,0.6-0.1,0.8,0.2,1s0.4,0.2,0.4,0.2 M38,24.1c0,0-0.4,0.2-0.8,0.4c-0.2,0.1-0.3,0.2-0.5,0.4c-0.2,0.3-0.5,0.6-0.6,1
		c0,0.1,0,0.1,0,0.2c0,0.3,0.2,0.6,0.4,0.7 M36.2,25.8c0,0-0.7-0.5-0.8-0.5s-0.2,0-0.5-0.1c-0.2,0-0.5-0.1-0.6-0.1
		c-0.2,0-1,0.5-1,0.9c-0.1,0.5-0.4,1.7,0.7,1.6c0,0,0.4-0.2,0.6-0.4l0.1-0.1c0.2-0.2,1-0.6,1.1-0.6c0.1,0,0.5,0,0.8,0
		c0.2,0,0.4,0.1,0.5,0.2c0.2,0.2,0.2,0.8,0.3,0.9c0.1,0.1,0.7,0.6,0.7,0.6 M42.1,30.7L42.1,30.7l0.5,0.6l0.2,0.4
		c0,0,0.2,0.2,0.2,0.1c0.1,0,0.2-0.1,0.1-0.2C43,31.4,42.9,31,42.9,31s-0.2-0.4-0.4-0.6l0.5,0.2l0.6,0.4c0,0,0.1,0,0.2-0.1
		c0-0.1,0-0.2-0.1-0.2c-0.1-0.1-0.5-0.6-0.5-0.6S43,30,42.9,30c0,0-0.1-0.1-0.2-0.2c0-0.1-0.2-0.3-0.3-0.3c-0.1-0.1-0.5-0.3-0.6-0.3
		c-0.2,0-0.5-0.1-0.5-0.3c0-0.2,0.5-1.2,0.5-1.2l0.3-0.6c0,0,0.1-0.1,0.2-0.2c0.2-0.3,0.4-0.8,0.4-1c0,0,0.7-0.1,0.8-0.5
		c0-0.4,0.3-0.9-1.9-1.7c0,0-0.6,0.4-1,1.1c-0.2,0.3-0.3,0.7-0.5,1.2c-0.1,0.5-0.2,1-0.2,1.5c0,0.5,0,1,0.1,1.4 M41.8,31.1
		L41.8,31.1l0.5,1c0,0,0.2,0.1,0.2,0c0.1,0,0.1-0.1,0.1-0.2c0-0.1-0.1-0.4-0.1-0.4l-0.2-0.4l-0.1-0.2l-0.1-0.2 M40,28.8
		c0.1,0.7,0.2,1.3,0.5,1.5c0,0,0.3,0.2,0.4,0.3c0,0,0.3,0.2,0.4,0.3c0,0.1,0.1,0.3,0.1,0.3c-0.1,0.1-0.2,0.2-0.2,0.2
		s-0.1,0.2,0.1,0.2c0,0,0.1,0.1,0.1,0c0.1-0.1,0.2-0.1,0.2-0.1s0.3-0.2,0.4-0.2c0-0.2,0-0.2,0-0.2 M37.8,23.8c0,0,0.1,0.1,0.2,0.2
		c0.5,0.5,1.5,1.6,2,1.9 M34.7,27.3c0,0,0.1,0.6,0.3,1l0.1,0.1c0.3,0.3,1.1,0.8,2.1,0.9c1,0.1,2.2,0.2,2.8-0.4l0,0l0,0 M35.1,28.4
		c0,0-0.2,1.2,0.5,1.9c0,0,0,0,0.1,0.1c0.9,0.7,1.6,1.5,2.6,2c1,0.5,3.1,1.4,3.3,1.4c0.1,0,0.2,0.1,0.2,0.1c0.4,0.2,1.2,0.5,1.4,0.6
		 M35.6,30.3c0,0-0.2,0.2-0.2,0.4s0,0.6-0.2,1c-0.2,0.4-0.6,1.2-0.5,1.4c0,0.2,0.5,1,0.5,1c0,0.1,0.2,0.2,0.2,0.2h0.2
		c0.1,0,0.2,0,0.2,0s0.2-0.1,0.2-0.1c0-0.1,0-0.2,0.1-0.2s0.3-0.3,0.2-0.3c-0.1,0-0.2-0.1-0.3-0.1c-0.1,0-0.2,0-0.2-0.2
		c-0.2-0.2-0.2-0.2-0.2-0.3c0-0.1,0.2-0.2,0.2-0.2s1-0.7,1.1-0.6c0.2,0,0.5,0.1,0.6,0.2c0.2,0.2,1.4,1.2,1.7,1.3
		c0.2,0.2,1.4,0.8,1.9,0.8c0.6,0.1,1.5,0.2,1.9,0.4c0.4,0.1,1.3,0.3,1.7-0.2c0.4-0.4,0.6-0.5,0.6-0.7c0-0.2,0.2-1-0.1-1.4
		s-0.5-0.6-0.5-0.6 M43.1,20.6c0,0,1.1,0.3,1.7,0.6l0,0c0.1,0.1,0.1,0.1,0.2,0.2 M43.4,27.3c0,0,0.5,1,0.5,1.3c0,0.2,0.3,1,0.5,1.7
		c0.2,0.4,0.2,0.7,0.2,0.8c0.1,0.2,0.3,0.5,0.2,1V32c0,0.1-0.1,0.2-0.1,0.2c-0.4,0.7-0.5,1.6-2.4,1.5l-0.5-0.1 M45,26.2
		c1.1-0.2,1.3-1.5,1.4-1.9c0-0.1-0.1-0.4-0.1-0.4s-0.1-0.4-0.2-0.8c-0.1-0.2-1.2-1.8-1.2-1.8 M44.8,21.2c0,0-0.2-0.7,0.2-0.8
		c0,0,0,0,0.1,0c0.1-0.1,0.2-0.2,0.2-0.2c0.1-0.1,0.3-0.3,0.4-0.4c0.2,0,0.2-0.2,0.3-0.2c0.1-0.1,0.4-0.5,0.8-0.4
		c0.4,0.1,1.4,0.1,1.5,0.2s0.7,0.5,0.8,0.5c0,0,0.1,0,0.2,0s0.4,0.1,0.5,0.3c0,0,0.2,0.2,0,0.5c0,0,0.5,0.2,0.6,0.5
		c0.1,0.2,0.2,0.6-0.2,0.8c0,0-0.5,0.1-0.6,0.1c0,0,0-0.2-0.2-0.2c-0.1,0-0.2,0-0.3,0.1c-0.1,0.1-0.5,0.3-0.6,0.3
		c-0.1,0-0.3,0.1-0.3,0.2s-0.1,0.2-0.5,0.4L46.2,23 M46.5,23.2c0,0,0.2,0.3,0.3,0.5s0.7,0.4,1,0.3c0.2-0.1,0.2-0.2,0.2-0.2
		s0.2-0.2,0.3-0.2c0.1,0,0.2-0.2,0.2-0.2s0.4,0.1,0.4-0.2s0-0.7,0-0.7s0.3-0.2,0.3-0.6 M48.2,23.7l-0.2-0.1 M48.7,23.4
		c0,0-0.2-0.1-0.2-0.2 M42.3,26.9c0,0,0.3,0.4,1,0.4l0,0c0.8-0.2,1.4-0.6,1.7-1c0.3-0.6,0.6-1.5-0.4-2.8 M49.9,16.1
		c0,0.6,0.2,0.6,0.3,0.7c0.1,0.1,0.1,0.2,0.1,0.2s0.2,0,0.3-0.1c0.2-0.1,0.4-0.2,0.4-0.2c0.3-0.2,0.1-0.4,0.2-0.6
		c0.1-0.2-0.2-0.4-0.2-0.4s0.1,0,0.1-0.1s-0.2-0.2-0.2-0.2s0-0.2,0-0.2c-0.1-0.1-0.1-0.4-0.1-0.4l-0.1-0.2c-0.1-0.2-0.2-0.3-0.2-0.3
		c0-0.2-0.2-0.2-0.2-0.2c0.1-0.3-0.3-0.3-0.3-0.5s-0.3-0.3-0.3-0.3c-0.2-0.2-0.5-0.2-0.5-0.2c-0.1,0-0.6,0.2-0.6,0.2
		s-0.2-0.1-0.5,0.1c0,0-0.5-0.1-0.8,0.4c0,0-0.2,0.2-0.4,0.4c0,0-0.4,1.2-0.5,1.6s0,0.3-0.1,0.5s-0.9,1-0.5,1.2
		c0.4,0.3,0.6,0.3,0.6,0.6c0.1,0.2,1.3,0.3,1.5,0.2c0.2-0.1,0.4-1,0.4-1c0-0.2,0-0.4-0.1-0.6c0-0.1-0.1-0.2-0.1-0.3
		c-0.2-0.3-0.2-0.6-0.2-0.8s-0.1-0.4-0.2-0.6c-0.1-0.2-0.3-0.3-0.2-0.6c0.1-0.3,0.3-0.7,0.4-0.8c0.2-0.1,0.5-0.2,1.1-0.1
		c0,0,0.2,0.2,0.3,0.2c0.1,0,0.2,0.2,0.4,0.2s0.2,0.2,0.2,0.3 M50.2,14.4c0,0.1,0.1,0.7,0.1,0.8s0.2,0.6,0.1,0.6
		c-0.2,0.1-0.3,0.2-0.5,0.3c-1.1,0-1.8-0.2-1.8-0.2 M45.7,17.1c0,0-1.8,1-1.4,3.8 M49.2,17.8l0.1,2 M45.8,29.7c0,0-0.2-2.4-0.1-2.8
		 M48.1,10.5c0,0,0-0.6,0.2-0.8c0.2-0.1,0.3-0.3,0.6-0.3c0.1,0,0.2,0,0.2,0c0.3,0.2,1.2,0.6,1.4,1c0.2,0.3,0.1,0.6,0,0.6
		s-0.2,0.2-0.2,0.2c-0.2,0.1-0.6,0.2-0.6,0.2 M52,7.2L52,7.2 M48.8,9.3c0,0-0.3-0.6,0.2-1.2s0.7-0.7,1-0.7s0.6-0.1,0.6-0.1
		s0.7-0.6,1.4-0.1 M50.6,14.5c0,0,0.4-0.9,0.4-1c0,0,0.6-1,0-2.6c-0.1-0.2-0.5,0.2-0.6,0.2l0,0 M54.6,12.4c0,0-0.1,0.5-0.2,0.5
		s-0.3-0.4-0.3-0.4l0.2-0.8l0.1-1v-0.1l0.7-1.2c0-0.1-0.1-0.6-0.2-0.6s-0.3-0.4-0.4-0.5c0-0.1-0.1-0.5-0.1-0.5S54,8.3,53.9,8.4
		c-0.2,0.1-0.6,0-0.6,0c-0.1,0-0.3,0.1-0.4,0.2c-0.1,0.2-0.2,0.5-0.3,0.6c-0.1,0.1-0.2,0.5-0.2,0.7c0,0.1-0.1,0.2-0.1,0.2
		c-0.1,0.1-0.1,0.2-0.2,0.2c-0.1,0.2,0,0.2,0.1,0.5c0,0.2,0,0.6-0.1,0.7c0,0.1-0.2,0.1-0.2,0.1c-0.1,0-0.2,0.2-0.2,0.2
		s0.1-0.3,0.1-0.4c0-0.1-0.2-0.5-0.2-0.6c-0.1-0.2-0.2-1.2-0.2-1.4s0.2-0.9,0.2-1c0-0.1,0.2-0.6,0.3-0.8C52,7.4,52,7.3,52.1,7.2l0,0
		c0.2-0.2,0.3-0.4,0.4-0.5c0.1-0.1,0.8-0.2,0.8-0.2s0.9-0.1,1.4,0.4c0,0,0.6,0,0.6,0.3c0.2,0.3,0.5,0.9,0.4,1c0,0.2-0.2,0.3-0.1,0.4
		c0,0.1,0,0.6-0.1,0.7c0,0,0,0,0,0.1c-0.1,0.1-0.1,0.2-0.1,0.3c0,0.2,0.2,0.5,0.1,0.6c-0.1,0.1-0.2,0.2-0.2,0.2c0,0.1,0,0.4-0.1,0.6
		c-0.1,0.1-0.2,0.2-0.2,0.3c0,0.1,0.1,0.6-0.1,0.7c-0.1,0.1-0.1,0.1-0.2,0.2l0,0c-0.1,0-0.1,0-0.2,0.1H54.6z M52.4,10.1
		c0,0,0.2,0.9,0.7,1c0,0,0.7,0,1.4-0.4 M58.3,12.4L58.3,12.4 M55.6,9.4c0,0,1.4,0.5,2.3,2c0,0,0.3,0.6,0.3,0.9c0,0.1,0,0.2,0,0.2
		 M59,13.1c0,0-0.2-0.3-0.7-0.7C58,12.3,57.7,12,57.4,12 M54.9,12.2c0,0-0.2,1,1.1,1.9 M52.5,17l-1.4-0.6 M52,30.5
		c0.2-0.2,0.4-0.6,0.2-1.1c-0.2-0.9-0.2-1-0.1-1.3c0.1-0.2,1.1-1.4,1.9-2.8c0.1-0.2,0.2-0.3,0.2-0.4c0.3-0.6,0.5-1.3,0.5-1.8
		l0.6-1.4l0,0 M50.5,33.6l-0.2,1l0.4-1.1l0.8-2l1,2.6l-0.6-3.7V30c0,0-0.4,0-0.6,0.3s-0.4,1-0.4,1.2c-0.1,0.2-0.2,0.4-0.2,0.5l0,0
		c-0.2,0-0.2-0.3-0.2-0.3l-0.1-1.4c-0.1-0.1-0.2-0.2-0.2-0.2c-0.2-0.2-0.1-0.6-0.1-0.8c0-0.3,0.3-0.7,0.5-1.1
		c0.1-0.2,0.2-0.8,0.4-1.3c0.2-0.6,0.4-1.3,0.4-1.3c0.1-0.8,0.2-1.4,0.4-1.8c0.3-0.9,0.6-1.1,0.7-1.2c0.1-0.1,0.3-0.6,0.3-0.6
		 M50.8,32.1l-0.2,1.5 M53.1,19.1c0,0-0.1,0.3-0.2,0.4c-0.1,0.1-0.6,0.8-0.6,1.2s0.3,1.3,0.3,1.3h0.2l2.1-0.2c0,0,0.2,0,0.3-0.1
		s0.5-0.2,0.6-0.3c0.2-0.3,1-1.4,1-1.4 M47.2,34.3l3.2,1l6-1.7L52.9,33l-2.2,0.5l-0.2,0.1L47.2,34.3L47.2,34.3 M47.2,34.3v0.9
		l3.3,1.1l5.9-1.8v-0.9 M50.4,35.5v0.8 M52.7,17.6c0,0-0.2-0.2-0.2-0.3c0.1-0.2-0.2-0.6,0-0.6c0.1-0.1,0.1-0.3,0.2-0.5
		c0.1-0.1,0.2-0.2,0.2-0.2c0.4-0.1,0.2-0.5,0.6-0.6c0.3-0.1,0.6-0.3,0.6-0.3c0.1,0,0.5-0.2,0.6-0.2c0.1,0,0.2,0,0.3-0.1
		c0.2,0,0.3,0,0.4,0s0.2,0.2,0.4,0.2c0.2,0.1,0.2,0.1,0.3,0.1c0.2,0,0.6,0.2,0.7,0.2s0.4,0,0.3,0.2c0,0.1-0.1,0.2-0.1,0.2
		c0.1,0,0.2,0.2,0.2,0.2c0,0.1-0.1,0.2-0.1,0.3c0,0.1,0.2,0.3,0.2,0.5c0,0.1,0.1,0.2,0,0.3s-0.2,0.1-0.1,0.2s0,0.2-0.1,0.2
		c-0.1,0.1-0.2,0.2-0.2,0.2c-0.1,0.1-0.2,0.3-0.3,0.4s-0.3,0-0.3,0.2c0,0.1-0.3,0.2-0.4,0.2c-0.1,0-0.5,0.2-0.6,0.1
		c-0.1-0.2-0.1-0.4,0-0.6c0-0.1,0.2-0.2,0.2-0.2c0-0.1,0-0.2,0-0.2c0-0.1-0.2-0.2-0.1-0.4c0.2-0.2,0.5-0.8,0.6-1
		c0.1-0.2,0-0.3,0-0.4s-0.5-0.2-0.6-0.3c-0.1,0-0.6-0.2-0.7-0.2c-0.1,0-0.5,0-0.6,0.1c-0.2,0.1-0.5,0.2-0.6,0.2
		c-0.1,0.1-0.3,0.3-0.3,0.3l-0.3,0.5C53.2,16.3,52.8,16.7,52.7,17.6c0.1,0.2,0.1,0.5,0.1,0.7c0,0,0.1,0.4,0.3,0.7
		c0.1,0.1,0.6,0.5,0.6,0.5l0.2,0.1c0.1,0,0.2,0.1,0.2,0.2c0.1,0.2,0.2,0.7,0.6,0.6l0.2-0.2c0,0,0.3,0.2,0.4,0.2s0.6,0.3,1.3-0.6
		c0.1-0.1,0.2-0.2,0.2-0.3c0,0,0.2-0.6,0.5-1c0.1,0,0.2-0.2,0.3-0.2c0.7-0.2,1-1.2,1-1.2s0-0.2,0-0.3 M58.1,19.1
		c0,0.2-0.3,1.3-0.3,1.5s-0.1,0.5,0.1,0.7c0.1,0.3,0.2,1,0.2,1.3c0,0.3-0.2,1.1-0.2,1.6c0,0.1,0,0.2-0.1,0.2l-0.1,0.2l-0.5,0.8
		c0,0-0.6,1.3-0.8,1.6c-0.1,0.3-0.6,1.3-0.1,2.7l0.2,0.8c0.4,1.2,0.5,1.3,1,1.4 M58.7,27.7c0,0-0.2,2-0.5,2.6
		c-0.2,0.6-0.4,1-0.4,1.3s-0.2,0.8-0.2,1c-0.1,0.1-0.2,0.2-0.2,0.5c0,0.1-0.1,0.2,0,0.3c0,0.3,0.1,0.6,0.2,0.6
		c0.2,0,0.6-0.1,0.6-0.1s0.3,0.1,0.5,0.2c0.2,0,0.3,0,0.5,0c0.1-0.1,0.3-0.2,0.5-0.2c0.1-0.1,0.4-0.3,0.4-0.6c0-0.2-0.5-0.9-0.5-0.9
		s0-0.1-0.1-0.2c-0.1-0.3-0.2-0.9,0-1.2c0.2-0.4,2.6-3.8,2.5-6.1 M63.3,24.5c0,0-0.8-0.1-1.4,0.3l0,0c-0.2,0.1-0.2,0.2-0.3,0.3
		c-0.4,0.6-1.9,1.8-2.9,2.6c-0.3,0.2-0.6,0.5-0.8,0.6c-0.1,0.1-0.4,0.5-0.4,0.5s0.3-5.7,4.1-10 M55.1,14.9c0,0,0.3-0.5,0.9-0.6
		c0.2-0.1,2.6-1.4,4.9-1 M58.7,16c0-0.1,0.6-2.2,2-2.7c0.5-0.2,1-0.1,1-0.1c0.2,0.1,1-0.2,1.9,0.5l0.7-0.2c1.2-0.2,1.8,0.9,1.8,1.5
		s-0.9,1.5-0.9,1.5l-1,0.9c-0.2,0.5-1.2,1-1.5,1.1c-0.4,0.3-0.9,0.3-1.4,0.2c-1.4-0.3-2.7-2-2.7-2 M60.2,31.1c0,0,0.9,1,1.7,1.2
		 M55.4,20.3l0.2-0.2 M50.8,22.6c0,0-0.1-1.1-0.1-1.5c0-0.2,0.2-1.4,0.5-2.4 M51.6,22c0,0-1.8,0.7-1,2.3 M50.7,24.3
		c-0.3,0.4-0.3,0.4-0.3,0.5s-0.2,0.7-0.2,0.8c0,0.1,0,0.2-0.1,0.3c-0.1,0-0.3,0.2-0.3,0.2s-0.2-0.3-0.3-0.4c-0.1,0-0.2,0-0.2,0.1
		c0.1,0.2-0.4,0.1-0.1,0.3l0.3,0.2c0,0,0.3,0.2,0.5,0.3c0.2,0.1,0.5,0,0.6-0.2 M50.7,24.3L50.7,24.3 M51.8,23.8c0,0-0.3-0.3-0.8,0.1
		c-0.3,0.3-0.4,0.3-0.4,0.3l0,0l0,0l0,0l0,0l0,0 M50.5,25.4c0,0.1-0.1,0.6,0.2,0.6c0,0,0.2,0,0.2-0.2s0.2-0.4,0.2-0.5 M50.7,26.1
		c0,0,0,0.2-0.1,0.4c0,0.2-0.1,0.3-0.1,0.4c-0.1,0.1-0.2,0.5-0.2,0.6c0,0,0.2,0.4,0.3,0.1l0.2-0.2l0.2-0.3 M53.1,10.7
		c0,0,0.2,0.1,0.3,0.2 M53.3,10.4c0,0,0,0.1,0.2,0.1 M49.6,15.1c0,0,0.3-0.1,0.6-0.2 M48.3,14.2c0,0,0.4-0.5,0.6-0.3 M48.7,14
		L48.7,14 M48.5,22.7L48.5,22.7 M45.9,10.6l-0.1,0.2 M53.1,9.5L53.1,9.5 M54.4,10v0.2 M55,19.4L55,19.4 M54.6,19.4l0.9-0.2
		 M62.2,18.8l-0.8,3.1 M62.8,18.5c-4.9-1.4-1.8-4.6-1.2-5.1 M45.7,10.4l0.6,0.3 M52.8,9.3c0,0,0.3,0.2,0.6,0.2 M54.1,9.9
		c0,0,0.3,0.2,0.6,0.2 M48.8,22.7c0,0-0.4-0.1-0.5-0.2 M44.5,14.4h0.2l0.6,0.1c0.1,0,0.6,0.1,0.6,0.1c0.1,0.2-0.2,0.2-0.2,0.2
		l-0.5,0.1l0.2,0.2c0.2,0.2-0.2,0.5-0.2,0.5c0.1,0.5-0.2,0.6-0.2,0.6c-0.5,0.3-1,0.1-1.3-0.2C43.6,16,43.5,16,43.4,16
		c-0.3-0.2-0.2-0.5-0.2-0.7c0-0.3,0.2-0.6,0.2-0.7c0.1-0.1,0.5-0.2,0.5-0.2l0.3,0.1H44.5L44.5,14.4c0,0,0.2,0.2,0.1,0.3
		s-0.3,0.2-0.5,0.1l-0.1-0.1 M50.8,9.9l0.3,1.2 M64.5,32.4c0,0-1.9-0.4-2-3.4 M44.9,28.8c0,0,1.8,1.8,2.3,1.9 M48.1,26.1
		c-0.1,1-0.2,1.6-0.2,1.6c-0.2,1.3-0.8,3-0.8,3s0.7,0,1.4-0.2s1-0.7,1.7-0.4 M54.3,24.9c0.9-0.2,1.7-0.3,2.3-0.4l0,0
		c0.7-0.1,1.1-0.1,1.1-0.1 M54.2,24.9c0,0,0,2,0,2.2c0,0.2,0.1,0.8-0.2,1.1c-0.2,0.2-0.4,0.7-0.4,1c0,0.2,0,0.6,0,0.6
		c0,0.1-0.2,0.7-0.2,0.7s-0.1,0.5,0.4,0.6c0.5,0.1,1.1,0.1,1.4-0.1c0.2-0.2,0.5-0.4,0.4-0.6s-0.2-0.3-0.4-0.5
		c-0.2-0.2-0.2-0.5-0.2-0.6c0,0,0.1-0.2,0.1-0.4c0-0.1,0-0.6,0.1-0.7c0.1-0.2,1-1.4,1-1.4s0.4-0.6,0.6-2.2 M49.3,11.2
		c0,0-0.1-0.2-0.2-0.2c-0.1-0.1-0.1-0.2-0.1-0.2c0-0.1-0.1-0.1,0-0.2c0.1-0.1,0.2,0,0.2,0s0.1,0.2,0.2,0.2s0.1,0,0.2,0.5
		c0,0.1,0,0.2,0,0.2c0,0.2-0.3,0.2-0.6,0.4c-0.4,0.2-0.9,0-0.9,0l-0.6-0.6c-0.1-0.1-0.1-0.1-0.2,0c-0.1,0.1,0,0.1-0.2,0.1
		s-0.4-0.2-0.4-0.2s0.3-0.2,0.3-0.2s0.4-0.2,0.8-0.2c0.1,0,0.2,0,0.2,0c0.3,0,0.5-0.1,0.7,0.1l0.4,0.2 M32.4,24.7c0,0-1-0.2-1.1-0.4
		c0,0,0-0.1,0-0.2c0.1-0.1,0.2-0.2,0.3-0.3c0-0.1,0-0.1,0.2-0.3c0.2-0.3,0.4-0.9,0.4-0.9c0.2-0.6,0.2-0.6,0.2-0.6l0.2-3
		c0-1.4,0.9-2.2,0.9-2.2 M38.7,16.9c0,0-1.6,0.2-3.3,0.2c-0.4,0-0.9-0.1-1.3-0.2c-0.2-0.1-0.5-0.1-0.7-0.2c-0.1,0-0.2-0.1-0.3-0.1
		c0,0-0.7,0.2-1,2.1c0,0-0.1,1.8-0.3,2.5c-0.5,1-1.4,1.9-1.4,1.9s-0.2,0.3,0.1,0.6l0.7,0.5 M65.7,16.1c0.4,1,0.7,2.5,0.9,4.5
		c0.5,3.7-0.6,7.2-0.9,8.4s0.2,3,0.7,3.2c0,0-2.2,0.2-3.1,0.2c-0.4,0-0.4,0-0.9,0c-1.5-0.1-3-0.2-3.1-0.2"/>
	<path class="st3" d="M57.7,28.4c0,0-1,0.8,0.5,1.2"/>
	<path class="st2" d="M65.6,19.4c0,0,0.2,1.4,0,2.9c-0.2,1.5,0.3,5.9,0.2,6.8"/>
	<line class="st2" x1="62.5" y1="15.5" x2="63.3" y2="14.7"/>
	<path class="st2" d="M50.7,21.4c0,0,0.7-2.3,1.2-2.6 M44.2,22.2c0,0,1.8,0.7,2.1,1.5 M39.1,17.9c0,0-0.1,0.8,0.2,1.9
		c0.2,1.1,0.6,2.2,0.6,2.2 M48.1,17.7c0,0,1.8,0.4,2.1-0.9 M46.1,25.4c-0.1,0.4-0.1,0.9-0.4,1.7c0,0-0.2,0.5-0.3,0.8
		c-0.2,0.5-1.3,1.4-1.3,1.4 M41.5,23.7c0,0,0.4-0.6,1.4-0.6c0,0,0.4,0,0.8,0 M57.3,15.5c0,0,1.4-0.2,1.4,1.2 M49.8,14.7
		c0.3-0.2,0.4-0.3,0.4-0.3s-0.5-0.3-0.7-0.4c-0.2-0.1,0-0.3,0-0.3 M57.3,18.2c0,0-0.1,0.7-0.2,1.1 M57.5,19.1l1.9-0.1
		c0,0,0.4-0.1,0.7-0.2 M61.4,27.6c1.1,1.3,2.4,2.6,2.4,2.6 M58.9,21.2c0,0,0,0.6,0.1,1.6"/>
	<line class="st2" x1="46.5" y1="23.4" x2="46.3" y2="23.6"/>
	<path class="st4" d="M78.2,72c0.2,0.2,0.9,1,2.2,1c1.5,0,2.4-0.9,2.4-2.1c0-1-0.8-1.6-1.3-1.8l0,0c0.5-0.2,1.1-0.9,1.1-1.7
		c0-1.2-1-2-2.2-2c-1.2,0-2,1-2,1c-0.1,0.1-0.1,0.2,0,0.2l0.4,0.3c0.1,0.1,0.2,0.1,0.2,0c0.2-0.2,0.6-0.6,1.3-0.6
		c0.6,0,1.2,0.5,1.2,1.2c0,0.6-0.5,1.1-1.5,1.1h-0.6c-0.2,0-0.2,0.1-0.2,0.2v0.5c0,0.2,0.1,0.2,0.2,0.2H80c1.1,0,1.7,0.6,1.7,1.3
		c0,0.7-0.6,1.2-1.4,1.2c-0.8,0-1.4-0.6-1.4-0.6s-0.2-0.1-0.3,0l-0.4,0.4C78.1,71.8,78.1,72,78.2,72 M75,72c-1.2,0-1.6-1.2-1.5-2.2
		c0.1-0.2,0.6-0.8,1.4-0.8s1.4,0.6,1.4,1.4S75.8,72,75,72 M72.4,70c0,1.7,0.8,3,2.6,3c1.3,0,2.4-1.1,2.4-2.5c0-1.5-1.1-2.3-2.2-2.3
		c-0.7,0-1.4,0.3-1.4,0.4c0.3-1.4,2.1-2.2,2.6-2.4c0.2-0.1,0.2-0.2,0.2-0.3l-0.2-0.5c-0.1-0.1-0.2-0.2-0.2-0.2
		C75,65.7,72.4,67,72.4,70 M67.5,70.9c0-0.6,0.5-1.2,1.4-1.3c0.9,0.2,1.4,0.7,1.4,1.3c0,0.7-0.6,1.2-1.4,1.2S67.5,71.6,67.5,70.9
		 M68.9,68.6c-0.8-0.2-1.2-0.6-1.2-1.1c0-0.6,0.6-1.1,1.2-1.1c0.7,0,1.2,0.5,1.2,1.1C70.1,68.1,69.7,68.5,68.9,68.6 M66.4,70.9
		c0,1.2,1,2.1,2.5,2.1c1.5,0,2.5-0.9,2.5-2.1c0-1-0.8-1.6-1.3-1.8v-0.1c0.5-0.2,1.1-0.8,1.1-1.7c0-1.2-1-2-2.3-2
		c-1.3,0-2.2,0.8-2.2,2c0,0.8,0.6,1.4,1.1,1.7l0,0C67.3,69.3,66.4,70,66.4,70.9 M61.3,72.8H65c0.1,0,0.2-0.1,0.2-0.2v-0.5
		c0-0.1-0.1-0.2-0.2-0.2h-1.2v-6.2c0-0.1-0.1-0.2-0.2-0.2h-0.6l-1.6,1.4c-0.1,0.1-0.1,0.2,0,0.2l0.2,0.4c0,0.1,0.2,0.1,0.2,0.1
		l1-0.5V72h-1.5c-0.1,0-0.2,0.1-0.2,0.2v0.5C61,72.8,61.1,72.8,61.3,72.8 M51.5,69.2c0-1.5,1.3-2.8,2.8-2.8s2.8,1.3,2.8,2.8
		c0,1.5-1.3,2.8-2.8,2.8C52.8,71.9,51.5,70.7,51.5,69.2 M50.4,69.2c0,2.2,1.7,3.8,3.8,3.8c2.2,0,3.8-1.7,3.8-3.8
		c0-2.2-1.7-3.9-3.8-3.9C52.1,65.3,50.4,67,50.4,69.2 M42.6,72.7c0,0.1,0.1,0.2,0.2,0.2h0.6c0.1,0,0.2-0.1,0.2-0.2v-5.2l0,0l4.6,5.5
		h0.3c0.1,0,0.2-0.1,0.2-0.2v-7.2c0-0.1-0.1-0.2-0.2-0.2H48c-0.1,0-0.2,0.1-0.2,0.2v5.1l0,0l-4.6-5.3h-0.2c-0.1,0-0.2,0.1-0.2,0.2
		V72.7z M36.7,70.3l1.3-2.9h0.1l1.4,2.9H36.7z M34.7,72.8h0.6c0.2,0,0.2-0.1,0.2-0.2c0.2-0.5,0.5-1,0.6-1.4h3.5l0.6,1.4
		c0.1,0.1,0.1,0.2,0.2,0.2h0.6c0.2,0,0.2-0.2,0.2-0.2l-3.3-7.2c0-0.1-0.2-0.1-0.2-0.1h-0.1c-0.1,0-0.2,0.1-0.2,0.1l-3.3,7.2
		C34.5,72.8,34.6,72.8,34.7,72.8 M29.7,72.7c0,0.1,0.1,0.2,0.2,0.2h3.8c0.1,0,0.2-0.1,0.2-0.2v-0.6c0-0.1-0.1-0.2-0.2-0.2h-2.9v-6.3
		c0-0.1-0.1-0.2-0.2-0.2H30c-0.1,0-0.2,0.1-0.2,0.2V72.7z M26.5,72.7c0,0.1,0.1,0.2,0.2,0.2h0.7c0.1,0,0.2-0.1,0.2-0.2v-7.1
		c0-0.1-0.1-0.2-0.2-0.2h-0.7c-0.1,0-0.2,0.1-0.2,0.2V72.7z M16.7,72.6c0,0.2,0.1,0.2,0.2,0.2h0.7c0.1,0,0.2-0.1,0.2-0.2l0.8-4.8
		h0.1l1.9,4.9c0,0.1,0.1,0.1,0.2,0.1h0.2c0.1,0,0.2-0.1,0.2-0.1l1.9-4.9l0,0l0.8,4.8c0,0.1,0.1,0.2,0.2,0.2h0.7
		c0.2,0,0.2-0.1,0.2-0.2l-1.4-7.2c0-0.1-0.1-0.2-0.2-0.2h-0.2c-0.1,0-0.2,0.1-0.2,0.1l-2.2,5.5h-0.1l-2.2-5.5c0-0.1-0.1-0.1-0.2-0.1
		h-0.2c-0.1,0-0.2,0.1-0.2,0.2L16.7,72.6z"/>
	<path class="st4" d="M90.2,55c0-1.9,1.6-3.5,3.5-3.5c1.9,0,3.5,1.6,3.5,3.5s-1.6,3.5-3.5,3.5C91.8,58.5,90.2,56.9,90.2,55 M88.2,55
		c0,3,2.5,5.5,5.5,5.5c3,0,5.5-2.5,5.5-5.5s-2.5-5.5-5.5-5.5C90.7,49.4,88.2,51.9,88.2,55 M77.6,55c0,3,2.5,5.5,5.5,5.5
		c1.4,0,2.7-0.5,3.7-1.5c0.1-0.1,0.2-0.3,0-0.4l-1-1c-0.1-0.1-0.2-0.1-0.4,0c-0.6,0.6-1.4,0.9-2.3,0.9c-2,0-3.4-1.6-3.4-3.5
		s1.4-3.6,3.4-3.6c0.9,0,1.7,0.3,2.4,0.9c0.2,0.2,0.2,0.2,0.4,0l1-1c0.2-0.2,0.2-0.3,0-0.4c-1-1-2.2-1.4-3.7-1.4
		C80,49.4,77.6,51.9,77.6,55 M73.6,60c0,0.2,0.2,0.3,0.3,0.3h1.4c0.2,0,0.3-0.2,0.3-0.3V49.9c0-0.2-0.2-0.3-0.3-0.3h-1.4
		c-0.2,0-0.3,0.2-0.3,0.3V60z M61.9,60c0,0.2,0.2,0.3,0.3,0.3h1.4c0.2,0,0.3-0.2,0.3-0.3v-6.6l0,0l6.4,7h0.4c0.2,0,0.3-0.2,0.3-0.2
		V49.9c0-0.2-0.2-0.3-0.3-0.3h-1.4c-0.2,0-0.3,0.2-0.3,0.3v6.3l0,0l-6.4-6.8h-0.4c-0.2,0-0.3,0.2-0.3,0.2L61.9,60L61.9,60z M50.6,55
		c0,3,2.5,5.5,5.5,5.5c1.4,0,2.7-0.5,3.7-1.5c0.1-0.1,0.2-0.3,0-0.4l-1-1c-0.1-0.1-0.2-0.1-0.4,0c-0.6,0.6-1.4,0.9-2.3,0.9
		c-2,0-3.4-1.6-3.4-3.5s1.4-3.6,3.4-3.6c0.9,0,1.7,0.3,2.4,0.9c0.2,0.2,0.2,0.2,0.4,0l1-1c0.2-0.2,0.2-0.3,0-0.4
		c-1-1-2.2-1.4-3.7-1.4C53.1,49.4,50.6,51.9,50.6,55 M42.2,60c0,0.2,0.2,0.3,0.3,0.3h6.2c0.2,0,0.3-0.2,0.3-0.3v-1.3
		c0-0.2-0.2-0.3-0.3-0.3h-4.5v-2.7H48c0.2,0,0.3-0.2,0.3-0.3v-1.3c0-0.2-0.2-0.3-0.3-0.3h-3.7v-2.5h4.5c0.2,0,0.3-0.2,0.3-0.3v-1.3
		c0-0.2-0.2-0.3-0.3-0.3h-6.2c-0.2,0-0.3,0.2-0.3,0.3V60z M35.9,60c0,0.2,0.2,0.3,0.3,0.3h1.4c0.2,0,0.3-0.2,0.3-0.3v-8.6h2.3
		c0.2,0,0.3-0.2,0.3-0.3v-1.3c0-0.2-0.2-0.3-0.3-0.3h-6.7c-0.2,0-0.3,0.2-0.3,0.3v1.3c0,0.2,0.2,0.3,0.3,0.3h2.3
		C35.9,51.4,35.9,60,35.9,60z M29.3,60c0,0.2,0.2,0.3,0.3,0.3h1.4c0.2,0,0.3-0.2,0.3-0.3V49.9c0-0.2-0.2-0.3-0.3-0.3h-1.4
		c-0.2,0-0.3,0.2-0.3,0.3V60z M21.1,60c0,0.2,0.2,0.3,0.3,0.3H27c0.2,0,0.3-0.2,0.3-0.3v-1.3c0-0.2-0.2-0.3-0.3-0.3h-3.9v-8.5
		c0-0.2-0.2-0.3-0.3-0.3h-1.4c-0.2,0-0.3,0.2-0.3,0.3L21.1,60L21.1,60z M10.5,55c0-1.9,1.6-3.5,3.5-3.5s3.5,1.6,3.5,3.5
		s-1.6,3.5-3.5,3.5S10.5,56.9,10.5,55 M8.5,55c0,3,2.5,5.5,5.5,5.5s5.5-2.5,5.5-5.5s-2.5-5.5-5.5-5.5C11,49.4,8.5,51.9,8.5,55
		 M2.1,54.5v-3.1h1.8c0.9,0,1.6,0.6,1.6,1.5s-0.7,1.6-1.6,1.6H2.1z M0.1,60c0,0.2,0.2,0.3,0.3,0.3h1.4c0.2,0,0.3-0.2,0.3-0.3v-3.6
		h1.9c1.8,0,3.4-1.5,3.4-3.4c0-1.8-1.5-3.3-3.4-3.3H0.3C0.2,49.6,0,49.8,0,50L0.1,60L0.1,60z"/>
</g>
</svg>
