<?xml version="1.0" encoding="utf-8"?>
<!-- Generator: Adobe Illustrator 24.1.2, SVG Export Plug-In . SVG Version: 6.00 Build 0)  -->
<svg version="1.1" id="Livello_1" xmlns="http://www.w3.org/2000/svg" xmlns:xlink="http://www.w3.org/1999/xlink" x="0px" y="0px"
	 viewBox="0 0 379.2 683.4" style="enable-background:new 0 0 379.2 683.4;" xml:space="preserve">
<style type="text/css">
	.st0{fill:none;}
	.st1{opacity:0.2;fill:none;stroke:#FFFFFF;stroke-miterlimit:10;enable-background:new    ;}
	.st2{fill:#1D1D1D;}
	.st3{enable-background:new    ;}
	.st4{fill:#FFFFFF;}
</style>
<g>
	<rect class="st0" width="379.2" height="683.4"/>
	<g>
		<line class="st1" x1="0" y1="683.4" x2="379.2" y2="1.2"/>
		<line class="st1" x1="0" y1="1.2" x2="379.2" y2="683.4"/>
		<g>
			<rect x="49.1" y="298.3" class="st2" width="277" height="79.3"/>
			<g class="st3">
				<path class="st4" d="M149.4,332.7c-0.7,0-1.3-0.1-2-0.4c-0.7-0.2-1.3-0.6-1.8-1.2c-0.5-0.5-1-1.2-1.3-2.1s-0.5-1.9-0.5-3.2
					s0.2-2.3,0.5-3.2c0.3-0.9,0.8-1.6,1.3-2.1s1.2-0.9,1.8-1.1c0.7-0.2,1.3-0.4,2-0.4c1.1,0,2,0.3,2.8,0.9c0.8,0.6,1.3,1.3,1.7,2.3
					l-2,1c-0.1-0.4-0.3-0.7-0.5-1.1c-0.2-0.4-0.5-0.7-0.8-0.9s-0.7-0.4-1.2-0.4c-0.5,0-1.1,0.2-1.6,0.5c-0.5,0.3-0.9,0.9-1.2,1.6
					c-0.3,0.7-0.5,1.7-0.5,2.9s0.2,2.2,0.5,2.9s0.7,1.3,1.2,1.6c0.5,0.3,1,0.5,1.5,0.5c0.5,0,0.9-0.1,1.2-0.4s0.6-0.6,0.8-0.9
					c0.2-0.4,0.4-0.7,0.5-1l2,1c-0.4,0.9-0.9,1.7-1.7,2.2C151.4,332.4,150.5,332.7,149.4,332.7z"/>
				<path class="st4" d="M156.4,332.5v-13.3h2.3v11.5h4.9v1.7H156.4z"/>
				<path class="st4" d="M166.9,332.5v-1.7h2.7v-9.8h-2.7v-1.7h7.7v1.7h-2.7v9.8h2.7v1.7H166.9z"/>
				<path class="st4" d="M183.5,332.7c-0.7,0-1.3-0.1-2-0.4c-0.7-0.2-1.3-0.6-1.8-1.2c-0.5-0.5-1-1.2-1.3-2.1s-0.5-1.9-0.5-3.2
					s0.2-2.3,0.5-3.2c0.3-0.9,0.8-1.6,1.3-2.1s1.2-0.9,1.8-1.1c0.7-0.2,1.3-0.4,2-0.4c1.1,0,2,0.3,2.8,0.9c0.8,0.6,1.3,1.3,1.7,2.3
					l-2,1c-0.1-0.4-0.3-0.7-0.5-1.1c-0.2-0.4-0.5-0.7-0.8-0.9s-0.7-0.4-1.2-0.4c-0.5,0-1.1,0.2-1.6,0.5c-0.5,0.3-0.9,0.9-1.2,1.6
					c-0.3,0.7-0.5,1.7-0.5,2.9s0.2,2.2,0.5,2.9s0.7,1.3,1.2,1.6c0.5,0.3,1,0.5,1.5,0.5c0.5,0,0.9-0.1,1.2-0.4s0.6-0.6,0.8-0.9
					c0.2-0.4,0.4-0.7,0.5-1l2,1c-0.4,0.9-0.9,1.7-1.7,2.2C185.6,332.4,184.6,332.7,183.5,332.7z"/>
				<path class="st4" d="M190.9,332.5v-13.3h2.3v5.6h0.8l3.6-5.6h2.5l-4.3,6.5l4.5,6.8h-2.5l-3.8-6h-0.8v6H190.9z"/>
				<path class="st4" d="M217.1,332.7c-0.7,0-1.4-0.1-2-0.4c-0.6-0.3-1.2-0.7-1.7-1.2c-0.5-0.5-0.9-1.2-1.2-2.1s-0.5-1.9-0.5-3.1
					c0-1.2,0.2-2.2,0.5-3.1s0.7-1.6,1.2-2.1c0.5-0.5,1.1-0.9,1.7-1.2c0.6-0.3,1.3-0.4,2-0.4c0.7,0,1.4,0.1,2,0.4
					c0.6,0.3,1.2,0.7,1.7,1.2c0.5,0.5,0.9,1.2,1.2,2.1c0.3,0.9,0.5,1.9,0.5,3.1c0,1.2-0.2,2.3-0.5,3.1c-0.3,0.9-0.7,1.6-1.2,2.1
					c-0.5,0.5-1.1,0.9-1.7,1.2C218.5,332.6,217.8,332.7,217.1,332.7z M217.1,330.9c0.5,0,1-0.2,1.5-0.5s0.9-0.9,1.2-1.6
					s0.4-1.7,0.4-2.9c0-1.2-0.1-2.2-0.4-2.9s-0.7-1.3-1.2-1.6c-0.5-0.3-1-0.5-1.5-0.5c-0.5,0-1,0.2-1.5,0.5
					c-0.5,0.3-0.9,0.9-1.2,1.6c-0.3,0.7-0.5,1.7-0.5,2.9c0,1.2,0.2,2.2,0.5,2.9c0.3,0.7,0.7,1.3,1.2,1.6S216.6,330.9,217.1,330.9z"
					/>
				<path class="st4" d="M224.6,332.5v-13.3h3.4l4,10.3v-10.3h2.3v13.3h-2.9l-4.5-11v11H224.6z"/>
			</g>
			<g class="st3">
				<path class="st4" d="M140.2,355.2v-11.5h-3.7v-1.7h9.8v1.7h-3.8v11.5H140.2z"/>
				<path class="st4" d="M148.9,355.2v-13.3h2.3v5.5h4.8v-5.5h2.3v13.3h-2.3v-6h-4.8v6H148.9z"/>
				<path class="st4" d="M161.9,355.2v-13.3h8.5v1.7h-6.2v4.2h5.5v1.7h-5.5v3.9h6.2v1.7H161.9z"/>
				<path class="st4" d="M187.8,355.4c-0.9,0-1.7-0.2-2.4-0.5c-0.7-0.3-1.3-0.9-1.7-1.7c-0.4-0.8-0.7-1.8-0.7-3.1v-8.2h2.3v8.1
					c0,1.3,0.2,2.2,0.7,2.7c0.4,0.6,1.1,0.8,1.8,0.8c0.8,0,1.4-0.3,1.8-0.8c0.4-0.6,0.6-1.5,0.6-2.7v-8.1h2.3v8.2
					c0,1.3-0.2,2.3-0.6,3.1c-0.4,0.8-1,1.3-1.7,1.7C189.5,355.2,188.7,355.4,187.8,355.4z"/>
				<path class="st4" d="M200.1,355.4c-0.8,0-1.6-0.1-2.2-0.4s-1.3-0.6-1.8-1s-0.8-1-1-1.6l2.2-0.9c0.2,0.6,0.6,1.1,1.1,1.5
					c0.5,0.4,1.2,0.6,1.9,0.6c0.8,0,1.3-0.2,1.8-0.5c0.4-0.3,0.6-0.8,0.6-1.4c0-0.4-0.2-0.8-0.5-1.1c-0.3-0.3-0.7-0.6-1.2-0.8
					c-0.5-0.2-1-0.4-1.5-0.5c-0.8-0.2-1.5-0.5-2.1-0.8c-0.6-0.3-1.1-0.7-1.4-1.3s-0.5-1.2-0.5-1.9c0-0.6,0.1-1.1,0.4-1.5
					c0.3-0.4,0.6-0.8,1.1-1.1c0.5-0.3,1-0.5,1.5-0.6c0.6-0.1,1.1-0.2,1.7-0.2c0.8,0,1.4,0.1,2.1,0.3c0.6,0.2,1.2,0.5,1.6,0.9
					c0.4,0.4,0.7,0.8,0.9,1.3l-2.2,0.9c-0.2-0.5-0.5-1-0.9-1.3c-0.4-0.3-1-0.5-1.6-0.5c-0.6,0-1.1,0.1-1.6,0.4s-0.7,0.7-0.7,1.2
					c0,0.6,0.2,1,0.7,1.4c0.5,0.3,1.1,0.6,1.9,0.8c0.5,0.1,1.1,0.3,1.6,0.5s1,0.5,1.5,0.8c0.5,0.3,0.8,0.7,1.1,1.1
					c0.3,0.5,0.4,1,0.4,1.6c0,0.7-0.1,1.3-0.4,1.8s-0.7,0.9-1.1,1.2s-1,0.5-1.6,0.7S200.7,355.4,200.1,355.4z"/>
				<path class="st4" d="M208.3,355.2v-13.3h8.5v1.7h-6.2v4.2h5.5v1.7h-5.5v3.9h6.2v1.7H208.3z"/>
				<path class="st4" d="M220.4,355.2v-13.3h5c0.4,0,0.9,0.1,1.3,0.2s0.9,0.3,1.3,0.6c0.4,0.3,0.7,0.6,1,1.1
					c0.3,0.5,0.4,1.1,0.4,1.9c0,0.7-0.1,1.2-0.3,1.7c-0.2,0.5-0.5,0.8-0.8,1.1c-0.3,0.3-0.7,0.5-1.1,0.7l2.4,6.1h-2.4l-2.2-5.7h-2.3
					v5.7H220.4z M222.7,347.8h2.2c0.6,0,1.1-0.2,1.6-0.5c0.4-0.3,0.7-0.9,0.7-1.6c0-0.5-0.1-1-0.3-1.3c-0.2-0.3-0.5-0.5-0.8-0.6
					c-0.3-0.1-0.7-0.2-1.1-0.2h-2.2V347.8z"/>
				<path class="st4" d="M237,355.4c-0.8,0-1.6-0.1-2.2-0.4s-1.3-0.6-1.8-1s-0.8-1-1-1.6l2.2-0.9c0.2,0.6,0.6,1.1,1.1,1.5
					c0.5,0.4,1.2,0.6,1.9,0.6c0.8,0,1.3-0.2,1.8-0.5c0.4-0.3,0.6-0.8,0.6-1.4c0-0.4-0.2-0.8-0.5-1.1c-0.3-0.3-0.7-0.6-1.2-0.8
					c-0.5-0.2-1-0.4-1.5-0.5c-0.8-0.2-1.5-0.5-2.1-0.8c-0.6-0.3-1.1-0.7-1.4-1.3s-0.5-1.2-0.5-1.9c0-0.6,0.1-1.1,0.4-1.5
					c0.3-0.4,0.6-0.8,1.1-1.1c0.5-0.3,1-0.5,1.5-0.6c0.6-0.1,1.1-0.2,1.7-0.2c0.8,0,1.4,0.1,2.1,0.3c0.6,0.2,1.2,0.5,1.6,0.9
					c0.4,0.4,0.7,0.8,0.9,1.3l-2.2,0.9c-0.2-0.5-0.5-1-0.9-1.3c-0.4-0.3-1-0.5-1.6-0.5c-0.6,0-1.1,0.1-1.6,0.4s-0.7,0.7-0.7,1.2
					c0,0.6,0.2,1,0.7,1.4c0.5,0.3,1.1,0.6,1.9,0.8c0.5,0.1,1.1,0.3,1.6,0.5s1,0.5,1.5,0.8c0.5,0.3,0.8,0.7,1.1,1.1
					c0.3,0.5,0.4,1,0.4,1.6c0,0.7-0.1,1.3-0.4,1.8s-0.7,0.9-1.1,1.2s-1,0.5-1.6,0.7S237.7,355.4,237,355.4z"/>
			</g>
		</g>
	</g>
</g>
</svg>
