<svg id="Capa_2" data-name="Capa 2" xmlns="http://www.w3.org/2000/svg" viewBox="0 0 240 270">
  <rect width="240" height="270" fill="#1a1a1a" opacity="0"/>
  <path d="M88.3634,198.40515l5.61621-4.89551c7.34375,8.35156,15.98339,12.52734,28.36718,12.52734,12.96,0,22.03223-4.8955,22.03223-15.26367,0-9.07129-6.91211-11.51953-15.98437-12.81543l-11.51954-1.584c-11.66406-1.72754-24.623-4.89551-24.623-19.87109,0-14.68848,12.38379-21.3125,28.65527-21.3125,13.82324,0,23.03906,5.04,29.51953,11.80859l-5.47168,5.18359c-4.03222-4.75195-10.94433-10.08008-24.48047-10.08008-12.52734,0-20.01464,4.6084-20.01464,13.82422,0,9.07129,6.91113,11.51953,15.83886,12.81543l11.66406,1.72852c11.66407,1.72754,24.4795,4.89551,24.4795,19.87109,0,14.832-12.38379,22.60742-30.23926,22.60742C107.22765,212.94909,96.28332,207.621,88.3634,198.40515Z" fill="#fff"/>
</svg>
