<svg id="Capa_2" data-name="Capa 2" xmlns="http://www.w3.org/2000/svg" viewBox="0 0 240 270">
  <rect width="240" height="270" fill="#1a1a1a" opacity="0"/>
  <path d="M88.3208,111.242h33.2627c16.27246,0,26.06347,9.648,26.06347,25.77588,0,12.38379-5.90332,19.43945-14.97558,22.31933v.28809c11.66406,2.44775,19.00781,10.36768,19.00781,24.19141,0,16.12793-10.36816,27.93554-26.207,27.93554H88.3208Zm32.543,45.35937c11.51953,0,17.71191-6.33593,17.71191-15.98388v-5.75977c0-9.648-6.19238-16.12744-17.71191-16.12744H96.96045v37.87109Zm2.44824,47.66309c12.52735,0,19.2959-6.91211,19.2959-17.27978v-5.90381c0-10.36768-6.76855-17.27979-19.2959-17.27979H96.96045v40.46338Z" fill="#fff"/>
</svg>
