<svg id="Capa_2" data-name="Capa 2" xmlns="http://www.w3.org/2000/svg" viewBox="0 0 240 270">
  <rect width="240" height="270" fill="#1a1a1a" opacity="0"/>
  <path d="M142.39209,198.01529h-.43262c-4.17578,8.06348-11.80761,13.53564-23.03906,13.53564-18.43164,0-29.51953-13.96777-29.51953-38.87939s11.08789-38.8794,29.51953-38.8794c11.23145,0,18.86328,5.47217,23.03906,13.53614h.43262V103.2648h8.207V209.82291h-8.207Zm0-10.65576V157.984c0-10.51172-9.64844-16.84766-20.73633-16.84766-14.97558,0-23.47168,10.22364-23.47168,26.35157v10.36767c0,16.12744,8.4961,26.35156,23.47168,26.35156C132.74365,204.20718,142.39209,197.87125,142.39209,187.35953Z" fill="#fff"/>
</svg>
