<svg id="Capa_2" data-name="Capa 2" xmlns="http://www.w3.org/2000/svg" viewBox="0 0 240 270">
  <rect width="240" height="270" fill="#1a1a1a" opacity="0"/>
  <path d="M117.98437,241.7489c-23.04,0-32.54394-6.91211-32.54394-18.57617,0-8.35157,4.89648-13.10352,13.10449-15.55176V206.4696c-4.752-1.87207-7.05664-5.18457-7.05664-10.08008,0-7.20019,5.76074-10.94336,12.96-12.81543v-.57617c-8.7832-3.74414-13.96777-11.80761-13.96777-22.46386,0-15.11915,10.65625-25.34375,27.21582-25.34375A29.9697,29.9697,0,0,1,132.96,138.93445V135.911c0-4.6084,2.01563-7.63184,7.05566-7.63184h14.54395v7.19922H137.56738V142.247c4.752,4.31933,7.48828,10.65527,7.48828,18.28711,0,14.97558-10.94336,25.20019-27.35937,25.20019a33.00446,33.00446,0,0,1-7.48828-.7207c-6.04785,1.44043-11.51953,4.46386-11.51953,9.64843,0,4.31934,3.88769,6.4795,12.0957,6.4795h17.71191c18,0,25.77539,7.34375,25.77539,18.86328C154.27148,234.83679,141.59961,241.7489,117.98437,241.7489Zm10.51172-32.97559H104.16016c-6.62305,2.16016-10.65528,6.19239-10.65528,12.81543,0,7.77637,6.4795,13.53614,19.43946,13.53614h9.64746c14.68847,0,23.90429-4.89551,23.90429-14.832C146.49609,213.23718,141.8877,208.77331,128.49609,208.77331Zm7.91993-45.93554v-4.751c0-9.64844-6.33594-16.416-18.71973-16.416-12.24024,0-18.57617,6.76758-18.57617,16.416v4.751c0,9.5039,6.48047,16.416,18.57617,16.416C130.08008,179.25378,136.416,172.34167,136.416,162.83777Z" fill="#fff"/>
</svg>
