<svg id="Capa_2" data-name="Capa 2" xmlns="http://www.w3.org/2000/svg" viewBox="0 0 240 270">
  <rect width="240" height="270" fill="#1a1a1a" opacity="0"/>
  <path d="M145.09619,211.22156c-6.624,0-9.21582-3.60059-9.64746-9.07227v-2.5918H134.728c-3.31152,7.77637-10.51171,13.3916-23.32714,13.3916-15.55176,0-25.05567-8.06347-25.05567-21.74316,0-13.10352,8.35156-21.31152,30.52735-21.31152h18.14355v-9.07227c0-12.38379-7.19922-18.57519-19.29492-18.57519-10.22461,0-17.28027,4.17578-21.31152,12.23925L88.79345,150.455c3.8877-8.49609,12.96-15.26464,27.35938-15.26464,16.7041,0,27.07129,9.21582,27.07129,24.76757v44.06348H154.312v7.2002ZM135.01611,189.7655V176.08581H116.87256c-15.40723,0-21.8877,5.04-21.8877,13.10352v3.74414c0,8.49609,7.05664,13.10351,17.71191,13.10351C125.22509,206.037,135.01611,199.70105,135.01611,189.7655Z" fill="#fff"/>
</svg>
