<svg id="Capa_2" data-name="Capa 2" xmlns="http://www.w3.org/2000/svg" viewBox="0 0 240 270">
  <rect width="240" height="270" fill="#1a1a1a" opacity="0"/>
  <g>
    <path d="M137.47985,189.82374c-4.60791,0-6.33593-2.0166-6.624-5.61621V182.48h-.43164c-2.16016,4.31934-7.20019,8.49512-16.12793,8.49512-10.36767,0-15.98389-5.47168-15.98389-13.82324,0-9.21582,6.76807-14.11133,20.44776-14.11133h11.80762v-5.61621c0-8.06445-4.46387-11.95215-12.38379-11.95215-6.4795,0-11.37549,2.87988-13.67969,7.91992l-4.46387-3.45605c2.73633-5.32715,8.64014-9.93555,18.43164-9.93555,11.66406,0,18.71973,6.19238,18.71973,16.99219V184.064h5.90381v5.75976ZM118.472,167.93605c-9.07177,0-13.3916,3.02343-13.3916,7.91992v1.584c0,5.47168,3.8877,8.06348,10.36768,8.06348,8.064,0,15.11963-3.8877,15.11963-10.65527v-6.91211Z" fill="#fff"/>
    <line x1="96.40839" y1="210.64262" x2="142.06278" y2="210.64262" fill="none" stroke="#fff" stroke-miterlimit="10" stroke-width="2"/>
  </g>
</svg>
