<svg id="Capa_2" data-name="Capa 2" xmlns="http://www.w3.org/2000/svg" viewBox="0 0 240 270">
  <rect width="240" height="270" fill="#1a1a1a" opacity="0"/>
  <path d="M87.81689,172.81558c0-24.62353,12.81543-39.02344,32.543-39.02344,19.87207,0,31.82325,14.97608,31.82325,36.86329v3.60009H96.45654v3.6001c0,15.83984,9.21582,26.49561,24.624,26.49561,10.7998,0,18.86328-5.18409,23.03906-14.832l6.19238,3.88818c-4.46387,10.7998-14.68847,18.14355-29.23144,18.14355C100.48877,211.55093,87.81689,197.151,87.81689,172.81558Zm8.63965-5.61572v.86377H143.3999v-1.15186c0-15.98388-8.78418-26.20752-23.04-26.20752C105.96045,140.70425,96.45654,151.36,96.45654,167.19986Z" fill="#fff"/>
</svg>
