<svg width="253" height="63" viewBox="0 0 253 63" fill="none" xmlns="http://www.w3.org/2000/svg">
<path d="M221.5 1C204.121 1 190 14.8727 190 31.9468C190 44.6456 197.712 55.5303 208.9 60.3324C208.791 58.1982 208.9 55.5303 209.443 53.1826C210.095 50.6215 213.462 36.322 213.462 36.322C213.462 36.322 212.484 34.2945 212.484 31.4132C212.484 26.8245 215.2 23.4097 218.567 23.4097C221.391 23.4097 222.803 25.5439 222.803 28.105C222.803 30.8796 220.957 35.148 219.979 39.0964C219.219 42.4046 221.609 45.0723 224.976 45.0723C230.95 45.0723 234.969 37.4956 234.969 28.6385C234.969 21.8088 230.298 16.7934 221.826 16.7934C212.267 16.7934 206.293 23.8364 206.293 31.6264C206.293 34.2942 207.053 36.2151 208.357 37.709C208.9 38.3493 209.009 38.6694 208.791 39.4164C208.683 39.95 208.248 41.3373 208.14 41.8707C207.922 42.6177 207.271 42.9379 206.51 42.6177C202.057 40.8036 200.102 36.1082 200.102 30.7726C200.102 22.0222 207.596 11.4576 222.586 11.4576C234.643 11.4576 242.572 19.9947 242.572 29.1719C242.572 41.3372 235.729 50.4078 225.628 50.4078C222.26 50.4078 219.002 48.5937 217.916 46.5662C217.916 46.5662 216.069 53.716 215.743 55.1033C215.091 57.451 213.788 59.9053 212.593 61.7195C215.417 62.5732 218.459 63 221.5 63C238.879 63 253 49.1273 253 32.0533C253 14.9792 238.879 1 221.5 1Z" fill="white"/>
<path fill-rule="evenodd" clip-rule="evenodd" d="M102.364 1H156.633C158.492 0.999535 159.999 2.50601 160 4.36432V58.6328V58.6342C159.999 60.4934 158.492 62.0004 156.633 61.9999H141.006V38.3724H148.99L150.187 29.1241H141.006V23.234C141.006 20.5625 141.75 18.7423 145.589 18.7423H150.456V10.493C149.609 10.3806 146.704 10.1294 143.324 10.1294C136.267 10.1294 131.437 14.4253 131.437 22.318V29.1241H123.483V38.3724H131.437V61.9999H102.367C100.508 62.0004 99.0009 60.4939 99 58.6356V4.36711C98.9995 2.50834 100.506 1.00093 102.364 1Z" fill="white"/>
<path d="M62.7331 18.6099C62.6984 16.0036 62.2105 13.4233 61.2913 10.9843C60.4941 8.92695 59.2766 7.05855 57.7165 5.49843C56.1563 3.93831 54.2879 2.72078 52.2306 1.92362C49.823 1.01982 47.2794 0.53112 44.7082 0.478328C41.3978 0.330357 40.3482 0.289062 31.9449 0.289062C23.5415 0.289062 22.4644 0.289063 19.1781 0.478328C16.6081 0.531508 14.0657 1.0202 11.6591 1.92362C9.60149 2.72022 7.7328 3.93756 6.17261 5.49775C4.61242 7.05794 3.39509 8.92663 2.59849 10.9843C1.69288 13.3901 1.20523 15.9331 1.15663 18.5032C1.00866 21.8171 0.963928 22.8667 0.963928 31.27C0.963928 39.6734 0.963928 40.747 1.15663 44.0368C1.20825 46.6108 1.69346 49.1504 2.59849 51.5627C3.39642 53.6197 4.61466 55.4876 6.17538 57.0471C7.73609 58.6067 9.60495 59.8235 11.6626 60.6199C14.0626 61.56 16.6054 62.0837 19.1815 62.1684C22.4954 62.3163 23.545 62.3611 31.9483 62.3611C40.3517 62.3611 41.4288 62.3611 44.7151 62.1684C47.2862 62.1177 49.8299 61.6302 52.2375 60.7265C54.2943 59.9284 56.1622 58.7106 57.7222 57.1506C59.2822 55.5906 60.5001 53.7227 61.2982 51.6659C62.2032 49.2571 62.6884 46.7175 62.74 44.14C62.888 40.8296 62.9327 39.7801 62.9327 31.3732C62.9258 22.9699 62.9258 21.9031 62.7331 18.6099ZM31.9242 47.1614C23.1355 47.1614 16.0157 40.0416 16.0157 31.2528C16.0157 22.464 23.1355 15.3442 31.9242 15.3442C36.1435 15.3442 40.1899 17.0203 43.1733 20.0037C46.1567 22.9872 47.8328 27.0336 47.8328 31.2528C47.8328 35.472 46.1567 39.5184 43.1733 42.5019C40.1899 45.4853 36.1435 47.1614 31.9242 47.1614ZM48.466 18.4654C46.4116 18.4654 44.7564 16.8067 44.7564 14.7558C44.7564 14.2689 44.8523 13.7867 45.0386 13.3368C45.225 12.887 45.4981 12.4782 45.8424 12.1339C46.1867 11.7896 46.5955 11.5165 47.0453 11.3302C47.4952 11.1438 47.9773 11.0479 48.4643 11.0479C48.9512 11.0479 49.4333 11.1438 49.8832 11.3302C50.3331 11.5165 50.7418 11.7896 51.0861 12.1339C51.4304 12.4782 51.7036 12.887 51.8899 13.3368C52.0762 13.7867 52.1721 14.2689 52.1721 14.7558C52.1721 16.8067 50.5135 18.4654 48.466 18.4654Z" fill="white"/>
<path d="M31.9239 41.5867C37.6312 41.5867 42.2578 36.96 42.2578 31.2528C42.2578 25.5456 37.6312 20.9189 31.9239 20.9189C26.2167 20.9189 21.5901 25.5456 21.5901 31.2528C21.5901 36.96 26.2167 41.5867 31.9239 41.5867Z" fill="white"/>
</svg>
