<svg width="112" height="77" viewBox="0 0 112 77" fill="none" xmlns="http://www.w3.org/2000/svg">
<path d="M109.571 12.2332C108.288 7.57229 104.529 3.89733 99.7617 2.64247C91.0525 0.312012 56.2154 0.312012 56.2154 0.312012C56.2154 0.312012 21.3784 0.312012 12.6692 2.55284C7.99366 3.8077 4.14325 7.57229 2.85978 12.2332C0.567871 20.7483 0.567871 38.4061 0.567871 38.4061C0.567871 38.4061 0.567871 56.1534 2.85978 64.5789C4.14325 69.2398 7.90198 72.9148 12.6692 74.1696C21.4701 76.5001 56.2154 76.5001 56.2154 76.5001C56.2154 76.5001 91.0525 76.5001 99.7617 74.2593C104.529 73.0044 108.288 69.3295 109.571 64.6685C111.863 56.1534 111.863 38.4957 111.863 38.4957C111.863 38.4957 111.955 20.7483 109.571 12.2332Z" fill="#FF0000"/>
<path d="M45.1226 54.7192L74.0923 38.406L45.1226 22.0928V54.7192Z" fill="white"/>
</svg>
