<svg width="1012" height="1013" viewBox="0 0 1012 1013" fill="none" xmlns="http://www.w3.org/2000/svg">
<path d="M506 0L560.294 233.278L699.638 38.555L660.615 274.873L863.796 148.35L737.398 351.732L973.483 312.671L778.953 452.153L1012 506.5L778.953 560.847L973.483 700.329L737.398 661.268L863.796 864.65L660.615 738.127L699.638 974.445L560.294 779.722L506 1013L451.706 779.722L312.362 974.445L351.385 738.127L148.204 864.65L274.602 661.268L38.517 700.329L233.047 560.847L0 506.5L233.047 452.153L38.517 312.671L274.602 351.732L148.204 148.35L351.385 274.873L312.362 38.555L451.706 233.278L506 0Z" fill="#FD3C3E"/>
</svg>
