<svg width="1920" height="1100" viewBox="0 0 1920 1100" fill="none" xmlns="http://www.w3.org/2000/svg">
<rect width="1920" height="1100" fill="#1C1C1C"/>
<rect x="959.837" y="1029.17" width="24" height="24" transform="rotate(45 959.837 1029.17)" fill="white"/>
<path d="M1001.01 53.0423L1000.89 36.2251C1006.27 36.1868 1011.35 38.729 1014.54 43.0595C1020.06 50.5395 1018.46 61.0666 1010.99 66.5813L1001.01 53.0423Z" fill="#00FFCC"/>
<path d="M1001.01 53.0429L991.215 66.7187C986.836 63.5858 984.222 58.5421 984.188 53.1619C984.123 43.8707 991.6 36.291 1000.89 36.2257L1001.01 53.0429Z" fill="#FF00CC"/>
<path d="M1001.01 53.0425L1010.99 66.5815C1005.12 70.9044 997.137 70.9608 991.215 66.7183L1001.01 53.0425Z" fill="#0099FF"/>
<path d="M1633.5 432C1637.64 432 1641 428.642 1641 424.5C1641 420.358 1637.64 417 1633.5 417C1629.36 417 1626 420.358 1626 424.5C1626 428.642 1629.36 432 1633.5 432Z" fill="#00FFCC"/>
<path d="M1292.5 105C1296.64 105 1300 108.358 1300 112.499C1300 116.639 1296.64 120 1292.5 120C1290.92 120 1289.38 119.497 1288.09 118.568L1292.5 112.501V105Z" fill="#00FFCC"/>
<path d="M1288.09 118.568C1284.74 116.133 1284 111.442 1286.43 108.093C1287.84 106.15 1290.1 105 1292.5 105V112.499L1288.09 118.568Z" fill="#FF00CC"/>
<path d="M1610.5 380C1614.09 380 1617 377.09 1617 373.5C1617 369.91 1614.09 367 1610.5 367C1606.91 367 1604 369.91 1604 373.5C1604 377.09 1606.91 380 1610.5 380Z" fill="#00FFCC"/>
<path d="M330.5 345C334.09 345 337 342.09 337 338.5C337 334.91 334.09 332 330.5 332C326.91 332 324 334.91 324 338.5C324 342.09 326.91 345 330.5 345Z" fill="#FF00CC"/>
<path d="M1505 246C1507.76 246 1510 243.761 1510 241C1510 238.239 1507.76 236 1505 236C1502.24 236 1500 238.239 1500 241C1500 243.761 1502.24 246 1505 246Z" fill="#00FFCC"/>
<path d="M1582.16 332C1584.92 332 1587.16 329.761 1587.16 327C1587.16 324.239 1584.92 322 1582.16 322C1579.4 322 1577.16 324.239 1577.16 327C1577.16 329.761 1579.4 332 1582.16 332Z" fill="#00FFCC"/>
<path d="M1548.16 289C1550.92 289 1553.16 286.761 1553.16 284C1553.16 281.239 1550.92 279 1548.16 279C1545.4 279 1543.16 281.239 1543.16 284C1543.16 286.761 1545.4 289 1548.16 289Z" fill="#00FFCC"/>
<path d="M564 146.173C566.761 146.173 569 143.934 569 141.173C569 138.412 566.761 136.173 564 136.173C561.239 136.173 559 138.412 559 141.173C559 143.934 561.239 146.173 564 146.173Z" fill="#FF00CC"/>
<path d="M726 86C728.761 86 731 83.7614 731 81C731 78.2386 728.761 76 726 76C723.239 76 721 78.2386 721 81C721 83.7614 723.239 86 726 86Z" fill="#FF00CC"/>
<path d="M504 180C506.761 180 509 177.761 509 175C509 172.239 506.761 170 504 170C501.239 170 499 172.239 499 175C499 177.761 501.239 180 504 180Z" fill="#FF00CC"/>
<path d="M1409 176C1411.76 176 1414 173.761 1414 171C1414 168.239 1411.76 166 1409 166C1406.24 166 1404 168.239 1404 171C1404 173.761 1406.24 176 1409 176Z" fill="#00FFCC"/>
<path d="M1649 489C1651.76 489 1654 486.761 1654 484C1654 481.239 1651.76 479 1649 479C1646.24 479 1644 481.239 1644 484C1644 486.761 1646.24 489 1649 489Z" fill="#00FFCC"/>
<path d="M406 253C408.761 253 411 250.761 411 248C411 245.239 408.761 243 406 243C403.239 243 401 245.239 401 248C401 250.761 403.239 253 406 253Z" fill="#FF00CC"/>
<path d="M373 288C375.761 288 378 285.761 378 283C378 280.239 375.761 278 373 278C370.239 278 368 280.239 368 283C368 285.761 370.239 288 373 288Z" fill="#FF00CC"/>
<path d="M449 217C451.761 217 454 214.761 454 212C454 209.239 451.761 207 449 207C446.239 207 444 209.239 444 212C444 214.761 446.239 217 449 217Z" fill="#FF00CC"/>
<path d="M643 112.173C645.761 112.173 648 109.934 648 107.173C648 104.412 645.761 102.173 643 102.173C640.239 102.173 638 104.412 638 107.173C638 109.934 640.239 112.173 643 112.173Z" fill="#FF00CC"/>
<path d="M818 69C820.761 69 823 66.7614 823 64C823 61.2386 820.761 59 818 59C815.239 59 813 61.2386 813 64C813 66.7614 815.239 69 818 69Z" fill="#FF00CC"/>
<path d="M1458 208C1460.76 208 1463 205.761 1463 203C1463 200.239 1460.76 198 1458 198C1455.24 198 1453 200.239 1453 203C1453 205.761 1455.24 208 1458 208Z" fill="#00FFCC"/>
<path d="M1140 82C1146.07 82 1151 77.0752 1151 71.0001C1151 64.925 1146.07 60.0001 1140 60.0001V82Z" fill="#00FFCC"/>
<path d="M1140 60C1133.92 60 1129 64.9248 1129 70.9999C1129 77.0751 1133.92 81.9999 1140 81.9999L1140 60Z" fill="#FF00CC"/>
<path d="M1057 58.0003L1057.09 48C1059.2 48.0186 1061.25 48.7066 1062.95 49.9639C1067.39 53.2465 1068.32 59.5103 1065.04 63.9508C1061.75 68.3882 1055.49 69.3224 1051.05 66.0368L1057 58.0003Z" fill="#00FFCC"/>
<path d="M1057 58.0006L1047.52 54.8266C1048.89 50.7195 1052.76 47.9621 1057.09 48.0025L1057 58.0006Z" fill="#FF00CC"/>
<path d="M1057 58.0006L1051.05 66.0371C1047.57 63.4597 1046.14 58.9307 1047.52 54.8236L1057 58.0006Z" fill="#0099FF"/>
<path d="M1211.06 95.8976C1215.47 99.113 1221.65 98.1375 1224.85 93.7195C1228.06 89.3015 1227.09 83.1075 1222.68 79.8921C1221 78.6617 1218.96 78.0006 1216.88 77.9963L1216.87 87.8934L1211.06 95.8976Z" fill="#00FFCC"/>
<path d="M1216.88 77.9966C1211.43 77.9909 1207 82.4198 1207 87.8846C1207 91.0546 1208.51 94.0336 1211.06 95.8979L1216.87 87.8966L1216.88 77.9966Z" fill="#FF00CC"/>
<path d="M923.043 44C927.377 44.0207 931.202 46.826 932.524 50.9503L923.001 53.9965L923.043 44Z" fill="#00FFCC"/>
<path d="M928.84 62.116C924.36 65.3413 918.11 64.3236 914.885 59.8434C911.659 55.3633 912.675 49.1107 917.155 45.8853C918.87 44.6511 920.93 43.9938 923.041 44.0004L922.996 53.9991L928.84 62.116Z" fill="#FF00CC"/>
<path d="M932.523 50.9507C933.842 55.0772 932.358 59.5836 928.84 62.1159L922.999 54.0022L932.523 50.9507Z" fill="#0099FF"/>
<rect x="959.837" y="982.173" width="24" height="24" transform="rotate(45 959.837 982.173)" fill="white"/>
<path d="M949 86.9999C952.449 86.9999 955.754 88.3699 958.192 90.8081L949 99.9998V86.9999Z" fill="#00FFCC"/>
<path d="M962 100C962 107.179 956.179 113 949 113C941.821 113 936 107.179 936 100C936 92.8209 941.821 87.0001 949 87.0001V100H962Z" fill="#FF00CC"/>
<path d="M958.192 90.8085C960.63 93.2467 962 96.5518 962 100H949L958.192 90.8085Z" fill="#0099FF"/>
<path d="M1029 102V90.9999H1029C1035.08 91.0037 1040 95.927 1040 102.004C1040 108.08 1035.07 113 1029 113V102Z" fill="#00FFCC"/>
<path d="M1019.47 96.5018C1021.44 93.0985 1025.07 91.0037 1029 91.0037V102L1019.47 96.5018Z" fill="#FF00CC"/>
<path d="M1029 113C1022.93 113 1018 108.077 1018 102C1018 100.068 1018.51 98.1731 1019.47 96.5018L1029 102V113Z" fill="#0099FF"/>
<path d="M1220.5 147C1224.09 147 1227 144.09 1227 140.5C1227 136.91 1224.09 134 1220.5 134V147Z" fill="#00FFCC"/>
<path d="M1220.5 134C1216.91 134 1214 136.91 1214 140.5C1214 144.09 1216.91 147 1220.5 147L1220.5 134Z" fill="#FF00CC"/>
<path d="M1126.5 123C1130.09 123 1133 120.09 1133 116.5C1133 112.91 1130.09 110 1126.5 110V123Z" fill="#00FFCC"/>
<path d="M1126.5 110C1122.91 110 1120 112.91 1120 116.5C1120 120.09 1122.91 123 1126.5 123L1126.5 110Z" fill="#FF00CC"/>
<path d="M1552 401C1554.76 401 1557 398.761 1557 396C1557 393.239 1554.76 391 1552 391V401Z" fill="#00FFCC"/>
<path d="M1552 391C1549.24 391 1547 393.238 1547 396C1547 398.761 1549.24 401 1552 401L1552 391Z" fill="#00FFCC"/>
<path d="M1446 269C1448.76 269 1451 266.761 1451 264C1451 261.238 1448.76 259 1446 259C1443.24 259 1441 261.238 1441 264C1441 266.761 1443.24 269 1446 269Z" fill="#00FFCC"/>
<path d="M1486 308C1488.76 308 1491 305.761 1491 303C1491 300.238 1488.76 298 1486 298C1483.24 298 1481 300.238 1481 303C1481 305.761 1483.24 308 1486 308Z" fill="#00FFCC"/>
<path d="M1404 236C1406.76 236 1409 233.761 1409 231C1409 228.238 1406.76 226 1404 226C1401.24 226 1399 228.238 1399 231C1399 233.761 1401.24 236 1404 236Z" fill="#00FFCC"/>
<path d="M1519 347C1521.76 347 1524 344.761 1524 342C1524 339.238 1521.76 337 1519 337C1516.24 337 1514 339.238 1514 342C1514 344.761 1516.24 347 1519 347Z" fill="#00FFCC"/>
<path d="M348 447C350.761 447 353 444.761 353 442C353 439.238 350.761 437 348 437C345.239 437 343 439.238 343 442C343 444.761 345.239 447 348 447Z" fill="#FF00CC"/>
<path d="M397 354C399.761 354 402 351.761 402 349C402 346.238 399.761 344 397 344C394.239 344 392 346.238 392 349C392 351.761 394.239 354 397 354Z" fill="#FF00CC"/>
<path d="M574.898 201.548C577.66 201.548 579.898 199.309 579.898 196.548C579.898 193.787 577.66 191.548 574.898 191.548C572.137 191.548 569.898 193.787 569.898 196.548C569.898 199.309 572.137 201.548 574.898 201.548Z" fill="#FF00CC"/>
<path d="M1293.4 935C1296.16 935 1298.4 932.761 1298.4 930C1298.4 927.238 1296.16 925 1293.4 925C1290.64 925 1288.4 927.238 1288.4 930C1288.4 932.761 1290.64 935 1293.4 935Z" fill="#0099FF"/>
<path d="M369 401C371.761 401 374 398.761 374 396C374 393.238 371.761 391 369 391C366.239 391 364 393.238 364 396C364 398.761 366.239 401 369 401Z" fill="#FF00CC"/>
<path d="M519.898 234.548C522.66 234.548 524.898 232.309 524.898 229.548C524.898 226.787 522.66 224.548 519.898 224.548C517.137 224.548 514.898 226.787 514.898 229.548C514.898 232.309 517.137 234.548 519.898 234.548Z" fill="#FF00CC"/>
<path d="M430 313C432.761 313 435 310.761 435 308C435 305.239 432.761 303 430 303C427.239 303 425 305.239 425 308C425 310.761 427.239 313 430 313Z" fill="#FF00CC"/>
<path d="M476.399 267.548C479.161 267.548 481.399 265.31 481.399 262.548C481.399 259.787 479.161 257.548 476.399 257.548C473.638 257.548 471.399 259.787 471.399 262.548C471.399 265.31 473.638 267.548 476.399 267.548Z" fill="#FF00CC"/>
<path d="M638.5 171C642.09 171 645 168.09 645 164.5C645 160.91 642.09 158 638.5 158C634.91 158 632 160.91 632 164.5C632 168.09 634.91 171 638.5 171Z" fill="#FF00CC"/>
<path d="M701.398 144.149C704.16 144.149 706.398 141.91 706.398 139.149C706.398 136.388 704.16 134.149 701.398 134.149C698.637 134.149 696.398 136.388 696.398 139.149C696.398 141.91 698.637 144.149 701.398 144.149Z" fill="#FF00CC"/>
<path d="M779 124C781.761 124 784 121.761 784 119C784 116.238 781.761 114 779 114C776.239 114 774 116.238 774 119C774 121.761 776.239 124 779 124Z" fill="#FF00CC"/>
<path d="M835 114C837.761 114 840 111.761 840 109C840 106.238 837.761 104 835 104C832.239 104 830 106.238 830 109C830 111.761 832.239 114 835 114Z" fill="#FF00CC"/>
<path d="M1211.5 968C1207.91 968 1205 965.09 1205 961.5C1205 957.91 1207.91 955 1211.5 955L1211.5 968Z" fill="#0099FF"/>
<path d="M1211.5 955C1215.09 955 1218 957.91 1218 961.5C1218 965.09 1215.09 968 1211.5 968L1211.5 955Z" fill="#0099FF"/>
<rect x="959.837" y="934.173" width="24" height="24" transform="rotate(45 959.837 934.173)" fill="white"/>
<path d="M1517.66 499.827C1521.81 499.827 1525.16 496.469 1525.16 492.327C1525.16 488.185 1521.81 484.827 1517.66 484.827C1513.52 484.827 1510.16 488.185 1510.16 492.327C1510.16 496.469 1513.52 499.827 1517.66 499.827Z" fill="#00FFCC"/>
<path d="M1468.5 383C1472.09 383 1475 380.09 1475 376.5C1475 372.91 1472.09 370 1468.5 370C1464.91 370 1462 372.91 1462 376.5C1462 380.09 1464.91 383 1468.5 383Z" fill="#00FFCC"/>
<path d="M1335.97 257.196C1338.02 260.798 1342.59 262.067 1346.19 260.025C1349.8 257.984 1351.07 253.405 1349.02 249.803C1347.7 247.474 1345.24 246.023 1342.56 246.001L1342.5 253.5L1335.97 257.196Z" fill="#00FFCC"/>
<path d="M1342.56 246C1338.42 245.967 1335.04 249.296 1335 253.437C1334.99 254.753 1335.32 256.047 1335.97 257.196L1342.5 253.499L1342.56 246Z" fill="#FF00CC"/>
<path d="M1298.5 234C1302.09 234 1305 231.09 1305 227.5C1305 223.91 1302.09 221 1298.5 221V234Z" fill="#00FFCC"/>
<path d="M1298.5 221C1294.91 221 1292 223.91 1292 227.5C1292 231.09 1294.91 234 1298.5 234L1298.5 221Z" fill="#FF00CC"/>
<path d="M1248.5 210C1252.09 210 1255 207.09 1255 203.5C1255 199.91 1252.09 197 1248.5 197V210Z" fill="#00FFCC"/>
<path d="M1248.5 197C1244.91 197 1242 199.91 1242 203.5C1242 207.09 1244.91 210 1248.5 210L1248.5 197Z" fill="#FF00CC"/>
<path d="M1406.5 800C1409.26 800 1411.5 797.761 1411.5 795C1411.5 792.239 1409.26 790 1406.5 790C1403.74 790 1401.5 792.239 1401.5 795C1401.5 797.761 1403.74 800 1406.5 800Z" fill="#00FFCC"/>
<path d="M1523 555C1525.76 555 1528 552.761 1528 550C1528 547.239 1525.76 545 1523 545C1520.24 545 1518 547.239 1518 550C1518 552.761 1520.24 555 1523 555Z" fill="#00FFCC"/>
<path d="M1188.5 188C1192.09 188 1195 185.09 1195 181.5C1195 177.91 1192.09 175 1188.5 175L1188.5 188Z" fill="#00FFCC"/>
<path d="M1188.5 175C1184.91 175 1182 177.91 1182 181.5C1182 185.09 1184.91 188 1188.5 188L1188.5 175Z" fill="#FF00CC"/>
<path d="M1521 600C1523.76 600 1526 597.761 1526 595C1526 592.239 1523.76 590 1521 590C1518.24 590 1516 592.239 1516 595C1516 597.761 1518.24 600 1521 600Z" fill="#00FFCC"/>
<path d="M1435 339C1437.76 339 1440 336.761 1440 334C1440 331.239 1437.76 329 1435 329C1432.24 329 1430 331.239 1430 334C1430 336.761 1432.24 339 1435 339Z" fill="#00FFCC"/>
<path d="M1493 422C1495.76 422 1498 419.761 1498 417C1498 414.239 1495.76 412 1493 412C1490.24 412 1488 414.239 1488 417C1488 419.761 1490.24 422 1493 422Z" fill="#00FFCC"/>
<path d="M1456 745C1458.76 745 1461 742.761 1461 740C1461 737.239 1458.76 735 1456 735C1453.24 735 1451 737.239 1451 740C1451 742.761 1453.24 745 1456 745Z" fill="#00FFCC"/>
<path d="M1202 916C1204.76 916 1207 913.761 1207 911C1207 908.239 1204.76 906 1202 906C1199.24 906 1197 908.239 1197 911C1197 913.761 1199.24 916 1202 916Z" fill="#0099FF"/>
<path d="M1491 689C1493.76 689 1496 686.761 1496 684C1496 681.239 1493.76 679 1491 679C1488.24 679 1486 681.239 1486 684C1486 686.761 1488.24 689 1491 689Z" fill="#00FFCC"/>
<path d="M1508 648C1510.76 648 1513 645.761 1513 643C1513 640.239 1510.76 638 1508 638C1505.24 638 1503 640.239 1503 643C1503 645.761 1505.24 648 1508 648Z" fill="#00FFCC"/>
<path d="M1507 458C1509.76 458 1512 455.761 1512 453C1512 450.239 1509.76 448 1507 448C1504.24 448 1502 450.239 1502 453C1502 455.761 1504.24 458 1507 458Z" fill="#00FFCC"/>
<path d="M1396 301C1398.76 301 1401 298.761 1401 296C1401 293.239 1398.76 291 1396 291C1393.24 291 1391 293.239 1391 296C1391 298.761 1393.24 301 1396 301Z" fill="#00FFCC"/>
<path d="M1289 880C1291.76 880 1294 877.761 1294 875C1294 872.239 1291.76 870 1289 870C1286.24 870 1284 872.239 1284 875C1284 877.761 1286.24 880 1289 880Z" fill="#0099FF"/>
<path d="M750.5 929C746.91 929 744 926.09 744 922.5C744 918.91 746.91 916 750.5 916V929Z" fill="#FF00CC"/>
<path d="M750.5 916C754.09 916 757 918.91 757 922.5C757 926.09 754.09 929 750.5 929L750.5 916Z" fill="#0099FF"/>
<path d="M557.5 275C561.642 275 565 271.642 565 267.5C565 263.358 561.642 260 557.5 260C553.358 260 550 263.358 550 267.5C550 271.642 553.358 275 557.5 275Z" fill="#FF00CC"/>
<path d="M723.5 191C727.09 191 730 188.09 730 184.5C730 180.91 727.09 178 723.5 178C719.91 178 717 180.91 717 184.5C717 188.09 719.91 191 723.5 191Z" fill="#FF00CC"/>
<path d="M813 167C815.761 167 818 164.761 818 162C818 159.239 815.761 157 813 157C810.239 157 808 159.239 808 162C808 164.761 810.239 167 813 167Z" fill="#FF00CC"/>
<path d="M660 215C662.761 215 665 212.761 665 210C665 207.239 662.761 205 660 205C657.239 205 655 207.239 655 210C655 212.761 657.239 215 660 215Z" fill="#FF00CC"/>
<path d="M518 307C520.761 307 523 304.761 523 302C523 299.239 520.761 297 518 297C515.239 297 513 299.239 513 302C513 304.761 515.239 307 518 307Z" fill="#FF00CC"/>
<path d="M609.5 240C612.261 240 614.5 237.761 614.5 235C614.5 232.239 612.261 230 609.5 230C606.739 230 604.5 232.239 604.5 235C604.5 237.761 606.739 240 609.5 240Z" fill="#FF00CC"/>
<path d="M425 427C427.761 427 430 424.761 430 422C430 419.239 427.761 417 425 417C422.239 417 420 419.239 420 422C420 424.761 422.239 427 425 427Z" fill="#FF00CC"/>
<path d="M482 341C484.761 341 487 338.761 487 336C487 333.239 484.761 331 482 331C479.239 331 477 333.239 477 336C477 338.761 479.239 341 482 341Z" fill="#FF00CC"/>
<path d="M1115 153C1120.52 153 1125 157.477 1125 162.998C1125 168.519 1120.52 173 1115 173C1112.89 173 1110.83 172.33 1109.12 171.091L1115 163.002V153Z" fill="#00FFCC"/>
<path d="M1109.12 171.091C1104.65 167.845 1103.66 161.59 1106.91 157.124C1108.79 154.533 1111.8 153 1115 153V162.998L1109.12 171.091Z" fill="#FF00CC"/>
<path d="M454 378C456.761 378 459 375.761 459 373C459 370.239 456.761 368 454 368C451.239 368 449 370.239 449 373C449 375.761 451.239 378 454 378Z" fill="#FF00CC"/>
<path d="M1032 150L1032.09 140C1034.2 140.019 1036.25 140.707 1037.95 141.964C1042.39 145.247 1043.32 151.51 1040.04 155.95C1036.75 160.391 1030.49 161.321 1026.05 158.036L1032 150Z" fill="#00FFCC"/>
<path d="M1032 150L1022.52 146.826C1023.89 142.719 1027.76 139.962 1032.09 140.003L1032 150Z" fill="#FF00CC"/>
<path d="M1032 150L1026.05 158.036C1022.57 155.458 1021.14 150.929 1022.52 146.823L1032 150Z" fill="#0099FF"/>
<path d="M966.491 138.361C963.869 135.761 960.29 134.317 956.587 134.317L956.587 148.182L966.491 138.361Z" fill="#00FFCC"/>
<path d="M956.587 134.317C949.498 134.317 943.712 140.286 943.712 147.687C943.712 155.089 949.46 161.057 956.587 161.057L956.587 147.687L956.587 134.317Z" fill="#FF00CC"/>
<path d="M956.587 161.057C964.262 161.057 970.452 155.055 970.452 147.7C970.452 144.162 969.008 140.743 966.408 138.279L956.587 147.74L956.587 161.057Z" fill="#0099FF"/>
<path d="M893.059 131C903.55 131.032 912.028 139.563 912.001 150.054C911.982 155.493 909.637 160.662 905.558 164.257L893.003 150.001L893.059 131Z" fill="#00FFCC"/>
<path d="M897.493 168.457C887.298 170.938 877.024 164.684 874.543 154.488C872.062 144.292 878.32 134.02 888.51 131.541C889.997 131.179 891.524 130.999 893.059 131L893.001 149.997L897.493 168.457Z" fill="#FF00CC"/>
<path d="M905.557 164.257C903.248 166.29 900.484 167.729 897.493 168.457L893.001 149.997L905.557 164.257Z" fill="#0099FF"/>
<rect x="959.837" y="887.173" width="24" height="24" transform="rotate(45 959.837 887.173)" fill="white"/>
<path d="M1189 869C1191.76 869 1194 866.761 1194 864C1194 861.239 1191.76 859 1189 859C1186.24 859 1184 861.239 1184 864C1184 866.761 1186.24 869 1189 869Z" fill="#0099FF"/>
<path d="M1405 713C1407.76 713 1410 710.761 1410 708C1410 705.239 1407.76 703 1405 703C1402.24 703 1400 705.239 1400 708C1400 710.761 1402.24 713 1405 713Z" fill="#00FFCC"/>
<path d="M1348.87 335.721C1352.46 335.721 1355.37 332.811 1355.37 329.221C1355.37 325.631 1352.46 322.721 1348.87 322.721C1345.28 322.721 1342.37 325.631 1342.37 329.221C1342.37 332.811 1345.28 335.721 1348.87 335.721Z" fill="#00FFCC"/>
<path d="M1112.5 205C1116.64 205 1120 208.358 1120 212.499C1120 216.639 1116.64 220 1112.5 220C1110.92 220 1109.38 219.497 1108.09 218.568L1112.5 212.501V205Z" fill="#00FFCC"/>
<path d="M1108.09 218.568C1104.74 216.133 1104 211.442 1106.43 208.093C1107.84 206.15 1110.1 205 1112.5 205V212.499L1108.09 218.568Z" fill="#FF00CC"/>
<path d="M1381.66 368.827C1385.25 368.827 1388.16 365.917 1388.16 362.327C1388.16 358.737 1385.25 355.827 1381.66 355.827C1378.07 355.827 1375.16 358.737 1375.16 362.327C1375.16 365.917 1378.07 368.827 1381.66 368.827Z" fill="#00FFCC"/>
<path d="M784.5 888C780.91 888 778 885.09 778 881.5C778 877.91 780.91 875 784.5 875L784.5 888Z" fill="#FF00CC"/>
<path d="M784.5 875C788.09 875 791 877.91 791 881.5C791 885.09 788.09 888 784.5 888L784.5 875Z" fill="#0099FF"/>
<path d="M1256.5 271C1260.09 271 1263 268.09 1263 264.5C1263 260.91 1260.09 258 1256.5 258L1256.5 271Z" fill="#00FFCC"/>
<path d="M1256.5 258C1252.91 258 1250 260.91 1250 264.5C1250 268.09 1252.91 271 1256.5 271L1256.5 258Z" fill="#FF00CC"/>
<path d="M1155 213C1160.52 213 1165 217.477 1165 222.998C1165 228.519 1160.52 233 1155 233C1152.89 233 1150.83 232.33 1149.12 231.091L1155 223.002V213Z" fill="#00FFCC"/>
<path d="M1149.12 231.091C1144.65 227.845 1143.66 221.59 1146.91 217.124C1148.79 214.533 1151.8 213 1155 213V222.998L1149.12 231.091Z" fill="#FF00CC"/>
<path d="M1200.5 246C1204.09 246 1207 243.09 1207 239.5C1207 235.91 1204.09 233 1200.5 233V246Z" fill="#00FFCC"/>
<path d="M1200.5 233C1196.91 233 1194 235.91 1194 239.5C1194 243.09 1196.91 246 1200.5 246L1200.5 233Z" fill="#FF00CC"/>
<path d="M1305.5 302C1309.09 302 1312 299.09 1312 295.5C1312 291.91 1309.09 289 1305.5 289L1305.5 302Z" fill="#00FFCC"/>
<path d="M1305.5 289C1301.91 289 1299 291.91 1299 295.5C1299 299.09 1301.91 302 1305.5 302L1305.5 289Z" fill="#FF00CC"/>
<path d="M1447 623C1449.76 623 1452 620.761 1452 618C1452 615.239 1449.76 613 1447 613C1444.24 613 1442 615.239 1442 618C1442 620.761 1444.24 623 1447 623Z" fill="#00FFCC"/>
<path d="M1371 752C1373.76 752 1376 749.761 1376 747C1376 744.239 1373.76 742 1371 742C1368.24 742 1366 744.239 1366 747C1366 749.761 1368.24 752 1371 752Z" fill="#00FFCC"/>
<path d="M1455 576C1457.76 576 1460 573.761 1460 571C1460 568.239 1457.76 566 1455 566C1452.24 566 1450 568.239 1450 571C1450 573.761 1452.24 576 1455 576Z" fill="#00FFCC"/>
<path d="M1269.9 832C1272.66 832 1274.9 829.761 1274.9 827C1274.9 824.239 1272.66 822 1269.9 822C1267.14 822 1264.9 824.239 1264.9 827C1264.9 829.761 1267.14 832 1269.9 832Z" fill="#0099FF"/>
<path d="M1432 445C1434.76 445 1437 442.761 1437 440C1437 437.239 1434.76 435 1432 435C1429.24 435 1427 437.239 1427 440C1427 442.761 1429.24 445 1432 445Z" fill="#00FFCC"/>
<path d="M1456 529C1458.76 529 1461 526.761 1461 524C1461 521.239 1458.76 519 1456 519C1453.24 519 1451 521.239 1451 524C1451 526.761 1453.24 529 1456 529Z" fill="#00FFCC"/>
<path d="M1411 405C1413.76 405 1416 402.761 1416 400C1416 397.239 1413.76 395 1411 395C1408.24 395 1406 397.239 1406 400C1406 402.761 1408.24 405 1411 405Z" fill="#00FFCC"/>
<path d="M463 561.149C465.761 561.149 468 558.911 468 556.149C468 553.388 465.761 551.149 463 551.149C460.239 551.149 458 553.388 458 556.149C458 558.911 460.239 561.149 463 561.149Z" fill="#FF00CC"/>
<path d="M650 277C652.761 277 655 274.761 655 272C655 269.239 652.761 267 650 267C647.239 267 645 269.239 645 272C645 274.761 647.239 277 650 277Z" fill="#FF00CC"/>
<path d="M605 306C607.761 306 610 303.761 610 301C610 298.239 607.761 296 605 296C602.239 296 600 298.239 600 301C600 303.761 602.239 306 605 306Z" fill="#FF00CC"/>
<path d="M795 221C797.761 221 800 218.761 800 216C800 213.239 797.761 211 795 211C792.239 211 790 213.239 790 216C790 218.761 792.239 221 795 221Z" fill="#FF00CC"/>
<path d="M702 253C704.761 253 707 250.761 707 248C707 245.239 704.761 243 702 243C699.239 243 697 245.239 697 248C697 250.761 699.239 253 702 253Z" fill="#FF00CC"/>
<path d="M752 233C754.761 233 757 230.761 757 228C757 225.239 754.761 223 752 223C749.239 223 747 225.239 747 228C747 230.761 749.239 233 752 233Z" fill="#FF00CC"/>
<path d="M568 338C570.761 338 573 335.761 573 333C573 330.239 570.761 328 568 328C565.239 328 563 330.239 563 333C563 335.761 565.239 338 568 338Z" fill="#FF00CC"/>
<path d="M469.5 609C473.09 609 476 606.09 476 602.5C476 598.91 473.09 596 469.5 596C465.91 596 463 598.91 463 602.5C463 606.09 465.91 609 469.5 609Z" fill="#FF00CC"/>
<path d="M481.5 653.074C485.09 653.074 488 650.164 488 646.574C488 642.985 485.09 640.074 481.5 640.074C477.91 640.074 475 642.985 475 646.574C475 650.164 477.91 653.074 481.5 653.074Z" fill="#FF00CC"/>
<path d="M468 506C470.761 506 473 503.761 473 501C473 498.239 470.761 496 468 496C465.239 496 463 498.239 463 501C463 503.761 465.239 506 468 506Z" fill="#FF00CC"/>
<path d="M481 463C483.761 463 486 460.761 486 458C486 455.239 483.761 453 481 453C478.239 453 476 455.239 476 458C476 460.761 478.239 463 481 463Z" fill="#FF00CC"/>
<path d="M501 418C503.761 418 506 415.761 506 413C506 410.239 503.761 408 501 408C498.239 408 496 410.239 496 413C496 415.761 498.239 418 501 418Z" fill="#FF00CC"/>
<path d="M531.575 377.149C535.758 377.149 539.149 373.758 539.149 369.575C539.149 365.391 535.758 362 531.575 362C527.391 362 524 365.391 524 369.575C524 373.758 527.391 377.149 531.575 377.149Z" fill="#FF00CC"/>
<path d="M735 874C730.029 874 726 869.97 726 865C726 860.029 730.029 856 735 856L735 874Z" fill="#FF00CC"/>
<path d="M735 856C739.971 856 744 860.029 744 865C744 869.971 739.971 874 735 874L735 856Z" fill="#0099FF"/>
<path d="M1430 670C1432.76 670 1435 667.761 1435 665C1435 662.239 1432.76 660 1430 660C1427.24 660 1425 662.239 1425 665C1425 667.761 1427.24 670 1430 670Z" fill="#00FFCC"/>
<path d="M1448 488C1450.76 488 1453 485.761 1453 483C1453 480.239 1450.76 478 1448 478C1445.24 478 1443 480.239 1443 483C1443 485.761 1445.24 488 1448 488Z" fill="#00FFCC"/>
<rect x="959.837" y="840.173" width="24" height="24" transform="rotate(45 959.837 840.173)" fill="white"/>
<path d="M1140.5 276C1144.09 276 1147 273.09 1147 269.5C1147 265.91 1144.09 263 1140.5 263V276Z" fill="#00FFCC"/>
<path d="M1140.5 263C1136.91 263 1134 265.91 1134 269.5C1134 273.09 1136.91 276 1140.5 276L1140.5 263Z" fill="#FF00CC"/>
<path d="M907 861C909.761 861 912 858.762 912 856C912 853.239 909.761 851 907 851C904.239 851 902 853.239 902 856C902 858.762 904.239 861 907 861Z" fill="#0099FF"/>
<path d="M1172 822C1174.76 822 1177 819.762 1177 817C1177 814.239 1174.76 812 1172 812C1169.24 812 1167 814.239 1167 817C1167 819.762 1169.24 822 1172 822Z" fill="#0099FF"/>
<path d="M1388 518C1390.76 518 1393 515.762 1393 513C1393 510.239 1390.76 508 1388 508C1385.24 508 1383 510.239 1383 513C1383 515.762 1385.24 518 1388 518Z" fill="#00FFCC"/>
<path d="M1093 847C1095.76 847 1098 844.762 1098 842C1098 839.239 1095.76 837 1093 837C1090.24 837 1088 839.239 1088 842C1088 844.762 1090.24 847 1093 847Z" fill="#0099FF"/>
<path d="M1022 860C1024.76 860 1027 857.762 1027 855C1027 852.239 1024.76 850 1022 850C1019.24 850 1017 852.239 1017 855C1017 857.762 1019.24 860 1022 860Z" fill="#0099FF"/>
<path d="M846 852C848.761 852 851 849.762 851 847C851 844.239 848.761 842 846 842C843.239 842 841 844.239 841 847C841 849.762 843.239 852 846 852Z" fill="#0099FF"/>
<path d="M1242 787C1244.76 787 1247 784.762 1247 782C1247 779.239 1244.76 777 1242 777C1239.24 777 1237 779.239 1237 782C1237 784.762 1239.24 787 1242 787Z" fill="#0099FF"/>
<path d="M1376 475C1378.76 475 1381 472.762 1381 470C1381 467.239 1378.76 465 1376 465C1373.24 465 1371 467.239 1371 470C1371 472.762 1373.24 475 1376 475Z" fill="#00FFCC"/>
<path d="M1391 561C1393.76 561 1396 558.762 1396 556C1396 553.239 1393.76 551 1391 551C1388.24 551 1386 553.239 1386 556C1386 558.762 1388.24 561 1391 561Z" fill="#00FFCC"/>
<path d="M1354 431C1356.76 431 1359 428.762 1359 426C1359 423.239 1356.76 421 1354 421C1351.24 421 1349 423.239 1349 426C1349 428.762 1351.24 431 1354 431Z" fill="#00FFCC"/>
<path d="M1321 387C1323.76 387 1326 384.762 1326 382C1326 379.239 1323.76 377 1321 377C1318.24 377 1316 379.239 1316 382C1316 384.762 1318.24 387 1321 387Z" fill="#00FFCC"/>
<path d="M680 321C682.761 321 685 318.761 685 316C685 313.239 682.761 311 680 311C677.239 311 675 313.239 675 316C675 318.761 677.239 321 680 321Z" fill="#FF00CC"/>
<path d="M544 478C546.761 478 549 475.761 549 473C549 470.239 546.761 468 544 468C541.239 468 539 470.239 539 473C539 475.761 541.239 478 544 478Z" fill="#FF00CC"/>
<path d="M730 296C732.761 296 735 293.761 735 291C735 288.239 732.761 286 730 286C727.239 286 725 288.239 725 291C725 293.761 727.239 296 730 296Z" fill="#FF00CC"/>
<path d="M597 391C599.761 391 602 388.761 602 386C602 383.239 599.761 381 597 381C594.239 381 592 383.239 592 386C592 388.761 594.239 391 597 391Z" fill="#FF00CC"/>
<path d="M636 354C638.761 354 641 351.761 641 349C641 346.239 638.761 344 636 344C633.239 344 631 346.239 631 349C631 351.761 633.239 354 636 354Z" fill="#FF00CC"/>
<path d="M794 272C796.761 272 799 269.761 799 267C799 264.239 796.761 262 794 262C791.239 262 789 264.239 789 267C789 269.761 791.239 272 794 272Z" fill="#FF00CC"/>
<path d="M564 435C566.761 435 569 432.761 569 430C569 427.239 566.761 425 564 425C561.239 425 559 427.239 559 430C559 432.761 561.239 435 564 435Z" fill="#FF00CC"/>
<rect x="959.837" y="792.173" width="24" height="24" transform="rotate(45 959.837 792.173)" fill="white"/>
<path d="M1197 753C1199.76 753 1202 750.761 1202 748C1202 745.239 1199.76 743 1197 743C1194.24 743 1192 745.239 1192 748C1192 750.761 1194.24 753 1197 753Z" fill="#0099FF"/>
<path d="M596 570C598.761 570 601 567.761 601 565C601 562.239 598.761 560 596 560C593.239 560 591 562.239 591 565C591 567.761 593.239 570 596 570Z" fill="#FF00CC"/>
<path d="M889 809C891.761 809 894 806.761 894 804C894 801.239 891.761 799 889 799C886.239 799 884 801.239 884 804C884 806.761 886.239 809 889 809Z" fill="#0099FF"/>
<path d="M724 358C726.761 358 729 355.761 729 353C729 350.239 726.761 348 724 348C721.239 348 719 350.239 719 353C719 355.761 721.239 358 724 358Z" fill="#FF00CC"/>
<path d="M681 388C683.761 388 686 385.761 686 383C686 380.239 683.761 378 681 378C678.239 378 676 380.239 676 383C676 385.761 678.239 388 681 388Z" fill="#FF00CC"/>
<path d="M614 475C616.761 475 619 472.761 619 470C619 467.239 616.761 465 614 465C611.239 465 609 467.239 609 470C609 472.761 611.239 475 614 475Z" fill="#FF00CC"/>
<path d="M1146 778C1148.76 778 1151 775.761 1151 773C1151 770.239 1148.76 768 1146 768C1143.24 768 1141 770.239 1141 773C1141 775.761 1143.24 778 1146 778Z" fill="#0099FF"/>
<path d="M793 324C795.761 324 798 321.761 798 319C798 316.239 795.761 314 793 314C790.239 314 788 316.239 788 319C788 321.761 790.239 324 793 324Z" fill="#FF00CC"/>
<path d="M600 521C602.761 521 605 518.761 605 516C605 513.239 602.761 511 600 511C597.239 511 595 513.239 595 516C595 518.761 597.239 521 600 521Z" fill="#FF00CC"/>
<path d="M638 435C640.761 435 643 432.761 643 430C643 427.239 640.761 425 638 425C635.239 425 633 427.239 633 430C633 432.761 635.239 435 638 435Z" fill="#FF00CC"/>
<path d="M1229.5 730C1233.09 730 1236 727.09 1236 723.5C1236 719.91 1233.09 717 1229.5 717L1229.5 730Z" fill="#00FFCC"/>
<path d="M1229.5 717C1225.91 717 1223 719.91 1223 723.5C1223 727.09 1225.91 730 1229.5 730L1229.5 717Z" fill="#0099FF"/>
<path d="M1080 800C1082.76 800 1085 797.761 1085 795C1085 792.239 1082.76 790 1080 790C1077.24 790 1075 792.239 1075 795C1075 797.761 1077.24 800 1080 800Z" fill="#0099FF"/>
<path d="M1017 811C1019.76 811 1022 808.761 1022 806C1022 803.239 1019.76 801 1017 801C1014.24 801 1012 803.239 1012 806C1012 808.761 1014.24 811 1017 811Z" fill="#0099FF"/>
<path d="M1271 420C1273.76 420 1276 417.761 1276 415C1276 412.239 1273.76 410 1271 410C1268.24 410 1266 412.239 1266 415C1266 417.761 1268.24 420 1271 420Z" fill="#00FFCC"/>
<path d="M1324 539C1326.76 539 1329 536.761 1329 534C1329 531.239 1326.76 529 1324 529C1321.24 529 1319 531.239 1319 534C1319 536.761 1321.24 539 1324 539Z" fill="#00FFCC"/>
<path d="M1306 475C1308.76 475 1311 472.761 1311 470C1311 467.239 1308.76 465 1306 465C1303.24 465 1301 467.239 1301 470C1301 472.761 1303.24 475 1306 475Z" fill="#00FFCC"/>
<path d="M1322 587C1324.76 587 1327 584.761 1327 582C1327 579.239 1324.76 577 1322 577C1319.24 577 1317 579.239 1317 582C1317 584.761 1319.24 587 1322 587Z" fill="#00FFCC"/>
<path d="M1147.99 328.249C1150.06 324.661 1148.84 320.074 1145.25 318.003C1144.11 317.346 1142.82 317 1141.5 317V324.5L1147.99 328.249Z" fill="#00FFCC"/>
<path d="M1141.5 317C1137.36 317 1134 320.358 1134 324.5C1134 328.642 1137.36 332.001 1141.5 332.001C1144.18 332.001 1146.66 330.571 1147.99 328.252L1141.5 324.504V317Z" fill="#FF00CC"/>
<path d="M1308 633C1310.76 633 1313 630.761 1313 628C1313 625.239 1310.76 623 1308 623C1305.24 623 1303 625.239 1303 628C1303 630.761 1305.24 633 1308 633Z" fill="#00FFCC"/>
<path d="M1283.5 676C1287.09 676 1290 673.09 1290 669.5C1290 665.91 1287.09 663 1283.5 663C1279.91 663 1277 665.91 1277 669.5C1277 673.09 1279.91 676 1283.5 676Z" fill="#00FFCC"/>
<rect x="959.837" y="745.173" width="24" height="24" transform="rotate(45 959.837 745.173)" fill="white"/>
<path d="M668 597C670.761 597 673 594.761 673 592C673 589.239 670.761 587 668 587C665.239 587 663 589.239 663 592C663 594.761 665.239 597 668 597Z" fill="#FF00CC"/>
<path d="M662.5 548C666.09 548 669 545.09 669 541.5C669 537.91 666.09 535 662.5 535C658.91 535 656 537.91 656 541.5C656 545.09 658.91 548 662.5 548Z" fill="#FF00CC"/>
<path d="M781 386C783.761 386 786 383.761 786 381C786 378.239 783.761 376 781 376C778.239 376 776 378.239 776 381C776 383.761 778.239 386 781 386Z" fill="#FF00CC"/>
<path d="M697 453C699.761 453 702 450.761 702 448C702 445.239 699.761 443 697 443C694.239 443 692 445.239 692 448C692 450.761 694.239 453 697 453Z" fill="#FF00CC"/>
<path d="M733 417C735.761 417 738 414.761 738 412C738 409.239 735.761 407 733 407C730.239 407 728 409.239 728 412C728 414.761 730.239 417 733 417Z" fill="#FF00CC"/>
<path d="M876.534 333C880.337 333.008 883.927 334.752 886.293 337.731L876.502 345.498L876.534 333Z" fill="#00FFCC"/>
<path d="M888.68 348.31C887.128 355.035 880.415 359.23 873.69 357.677C866.965 356.124 862.77 349.412 864.323 342.687C865.635 337.004 870.703 332.985 876.533 333L876.502 345.498L888.68 348.31Z" fill="#FF00CC"/>
<path d="M886.294 337.728C888.659 340.711 889.536 344.604 888.681 348.31L876.502 345.498L886.294 337.728Z" fill="#0099FF"/>
<path d="M1012.01 341.007L1022.46 337.622C1023.19 339.812 1023.19 342.205 1022.47 344.406C1020.59 350.186 1014.39 353.344 1008.6 351.465C1002.82 349.587 999.662 343.388 1001.54 337.609L1012.01 341.007Z" fill="#0099FF"/>
<path d="M1012.01 341.007L1011.98 330C1016.73 329.978 1020.98 333.096 1022.46 337.621L1012.01 341.007Z" fill="#00FFCC"/>
<path d="M1012.01 341.008L1001.54 337.609C1003.02 333.088 1007.23 330.023 1011.98 330L1012.01 341.008Z" fill="#FF00CC"/>
<path d="M944.977 310.664C958.23 310.653 968.985 321.385 969 334.641C969.001 336.864 968.699 339.073 968.089 341.21L944.996 334.665L944.977 310.664Z" fill="#00FFCC"/>
<path d="M964.168 349.107C956.191 359.692 941.144 361.807 930.559 353.83C919.973 345.854 917.856 330.81 925.835 320.221C930.363 314.212 937.451 310.671 944.979 310.667L945.005 334.667L964.168 349.107Z" fill="#FF00CC"/>
<path d="M968.089 341.209C967.282 344.063 965.951 346.743 964.169 349.107L945.003 334.664L968.089 341.209Z" fill="#0099FF"/>
<path d="M755.5 697C751.358 697 748 700.358 748 704.5C748 708.642 751.358 712 755.5 712C758.179 712 760.655 710.571 761.993 708.252L755.5 704.504V697Z" fill="#FF00CC"/>
<path d="M761.994 708.248C764.065 704.66 762.836 700.074 759.248 698.003C758.111 697.346 756.817 697 755.5 697V704.5L761.994 708.248Z" fill="#0099FF"/>
<path d="M798.5 734C794.91 734 792 731.09 792 727.5C792 723.91 794.91 721 798.5 721V734Z" fill="#FF00CC"/>
<path d="M798.5 721C802.09 721 805 723.91 805 727.5C805 731.09 802.09 734 798.5 734L798.5 721Z" fill="#0099FF"/>
<path d="M1167.5 708C1171.09 708 1174 705.09 1174 701.5C1174 697.91 1171.09 695 1167.5 695V708Z" fill="#00FFCC"/>
<path d="M1167.5 695C1163.91 695 1161 697.91 1161 701.5C1161 705.09 1163.91 708 1167.5 708L1167.5 695Z" fill="#0099FF"/>
<path d="M1237 477C1239.76 477 1242 474.761 1242 472C1242 469.239 1239.76 467 1237 467C1234.24 467 1232 469.239 1232 472C1232 474.761 1234.24 477 1237 477Z" fill="#00FFCC"/>
<path d="M1116 735C1118.76 735 1121 732.761 1121 730C1121 727.239 1118.76 725 1116 725C1113.24 725 1111 727.239 1111 730C1111 732.761 1113.24 735 1116 735Z" fill="#0099FF"/>
<path d="M1254 521C1256.76 521 1259 518.761 1259 516C1259 513.239 1256.76 511 1254 511C1251.24 511 1249 513.239 1249 516C1249 518.761 1251.24 521 1254 521Z" fill="#00FFCC"/>
<path d="M1257.5 570C1261.09 570 1264 567.09 1264 563.5C1264 559.91 1261.09 557 1257.5 557C1253.91 557 1251 559.91 1251 563.5C1251 567.09 1253.91 570 1257.5 570Z" fill="#00FFCC"/>
<path d="M1027 761C1029.76 761 1032 758.761 1032 756C1032 753.239 1029.76 751 1027 751C1024.24 751 1022 753.239 1022 756C1022 758.761 1024.24 761 1027 761Z" fill="#0099FF"/>
<path d="M872.469 743C867.239 743 863 747.239 863 752.469C863.001 754.127 863.439 755.761 864.27 757.2L872.47 752.465L872.469 743Z" fill="#FF00CC"/>
<path d="M864 757.202C866.615 761.73 872.406 763.282 876.934 760.667C881.463 758.053 883.014 752.262 880.4 747.734C878.708 744.804 875.583 742.999 872.203 743L872.204 752.465L864 757.202Z" fill="#0099FF"/>
<path d="M669.5 507C673.642 507 677 503.642 677 499.5C677 495.358 673.642 492 669.5 492C665.358 492 662 495.358 662 499.5C662 503.642 665.358 507 669.5 507Z" fill="#FF00CC"/>
<path d="M1070 352.992L1069.76 342.004C1072.07 341.942 1074.36 342.626 1076.27 343.945C1081.26 347.409 1082.5 354.26 1079.04 359.26C1075.58 364.259 1068.73 365.502 1063.74 362.038L1070 352.992Z" fill="#00FFCC"/>
<path d="M1070 352.992L1059.45 349.853C1060.79 345.297 1065 342.125 1069.76 342.004L1070 352.992Z" fill="#FF00CC"/>
<path d="M1070 352.992L1063.74 362.038C1059.83 359.328 1058.11 354.408 1059.45 349.853L1070 352.992Z" fill="#0099FF"/>
<rect x="959.837" y="697.173" width="24" height="24" transform="rotate(45 959.837 697.173)" fill="white"/>
<path d="M791 444C795.971 444 800 439.971 800 435C800 430.029 795.971 426 791 426C786.029 426 782 430.029 782 435C782 439.971 786.029 444 791 444Z" fill="#FF00CC"/>
<path d="M730.5 538C734.642 538 738 534.642 738 530.5C738 526.358 734.642 523 730.5 523C726.358 523 723 526.358 723 530.5C723 534.642 726.358 538 730.5 538Z" fill="#FF00CC"/>
<path d="M750.5 485C754.09 485 757 482.09 757 478.5C757 474.91 754.09 472 750.5 472C746.91 472 744 474.91 744 478.5C744 482.09 746.91 485 750.5 485Z" fill="#FF00CC"/>
<path d="M774.163 652C776.925 652 779.163 649.761 779.163 647C779.163 644.239 776.925 642 774.163 642C771.402 642 769.163 644.239 769.163 647C769.163 649.761 771.402 652 774.163 652Z" fill="#FF00CC"/>
<path d="M737 596C739.761 596 742 593.761 742 591C742 588.239 739.761 586 737 586C734.239 586 732 588.239 732 591C732 593.761 734.239 596 737 596Z" fill="#FF00CC"/>
<rect x="959.837" y="650.173" width="24" height="24" transform="rotate(45 959.837 650.173)" fill="white"/>
<path d="M962.499 479.704C1006.69 479.339 1043.02 514.845 1043.66 559.17C1043.78 569.714 1041.83 580.146 1038.01 589.968L963.574 559.968L962.499 479.704Z" fill="#00FFCC"/>
<path d="M1002.34 630.111C963.512 651.458 914.835 637.376 893.538 598.633C872.241 559.891 886.436 511.247 925.269 489.9C936.808 483.557 949.781 480.173 962.949 479.949L963.807 560.006L1002.34 630.111Z" fill="#FF00CC"/>
<path d="M1038.11 589.693C1031.24 606.921 1018.51 621.222 1002.18 630.201L963.644 560.095L1038.11 589.693Z" fill="#0099FF"/>
<path d="M1103 504.248C1105.07 507.835 1109.66 509.064 1113.24 506.997C1116.83 504.929 1118.06 500.339 1115.99 496.752C1114.65 494.429 1112.18 493 1109.5 493V500.5L1103 504.248Z" fill="#00FFCC"/>
<path d="M1109.5 493C1105.36 493 1102 496.354 1102 500.496C1102 501.812 1102.35 503.106 1103 504.244L1109.5 500.5V493Z" fill="#FF00CC"/>
<path d="M814 611C816.761 611 819 608.761 819 606C819 603.239 816.761 601 814 601C811.239 601 809 603.239 809 606C809 608.761 811.239 611 814 611Z" fill="#FF00CC"/>
<path d="M796 542C798.761 542 801 539.761 801 537C801 534.239 798.761 532 796 532C793.239 532 791 534.239 791 537C791 539.761 793.239 542 796 542Z" fill="#FF00CC"/>
<path d="M810 505C812.761 505 815 502.761 815 500C815 497.239 812.761 495 810 495C807.239 495 805 497.239 805 500C805 502.761 807.239 505 810 505Z" fill="#FF00CC"/>
<path d="M1117 592C1119.76 592 1122 589.761 1122 587C1122 584.239 1119.76 582 1117 582C1114.24 582 1112 584.239 1112 587C1112 589.761 1114.24 592 1117 592Z" fill="#00FFCC"/>
<path d="M797 576C799.761 576 802 573.761 802 571C802 568.239 799.761 566 797 566C794.239 566 792 568.239 792 571C792 573.761 794.239 576 797 576Z" fill="#FF00CC"/>
<path d="M1124.5 553C1128.09 553 1131 550.09 1131 546.5C1131 542.91 1128.09 540 1124.5 540L1124.5 553Z" fill="#00FFCC"/>
<path d="M1124.5 540C1120.91 540 1118 542.91 1118 546.5C1118 550.09 1120.91 553 1124.5 553L1124.5 540Z" fill="#00FFCC"/>
<path d="M1020.52 476.971C1043.05 474.823 1059.58 454.761 1057.43 432.172C1055.43 411.192 1037.89 395.129 1016.87 394.947L1016.62 436.064L1020.52 476.971Z" fill="#00FFCC"/>
<path d="M1016.85 394.961C993.783 395.038 975.023 413.46 975 436.048C974.961 447.999 980.325 459.33 989.573 467.025L1016.81 435.844L1016.85 394.961Z" fill="#FF00CC"/>
<path d="M989.439 467.099C998.009 474.507 1009.23 478.047 1020.52 476.972L1016.62 436.157L989.439 467.099Z" fill="#0099FF"/>
<path d="M948.888 404.988C944.614 403.112 939.943 402.182 935.289 402.142L935.067 436.495L948.888 404.988Z" fill="#00FFCC"/>
<path d="M935.204 402.003C916.455 401.893 901.11 417.038 901.001 435.789C900.891 454.54 916.035 469.888 934.783 469.998C953.532 470.109 968.877 454.963 968.987 436.212C969.009 434.496 968.872 432.751 968.64 431.07L935.023 436.023L935.204 402.003Z" fill="#FF00CC"/>
<path d="M968.637 431.045C966.931 419.445 959.333 409.542 948.611 404.846L934.998 436L968.637 431.045Z" fill="#0099FF"/>
<path d="M865.003 455.547L865.121 438.549C868.382 438.572 871.565 439.53 874.294 441.313L865.003 455.547Z" fill="#00FFCC"/>
<path d="M865.002 455.547L881.811 458.091C880.548 466.452 873.331 472.611 864.879 472.548C855.488 472.481 847.93 464.817 848 455.428C848.071 446.04 855.733 438.483 865.119 438.549L865.002 455.547Z" fill="#FF00CC"/>
<path d="M865.002 455.546L874.293 441.312C879.867 444.953 882.805 451.51 881.811 458.091L865.002 455.546Z" fill="#0099FF"/>
<path d="M1078 466.075L1078 475.075C1082.98 475.075 1087 471.054 1087 466.075C1087 461.095 1082.98 457.075 1078 457.075L1078 466.075Z" fill="#00FFCC"/>
<path d="M1069 466.075C1069 471.685 1073.5 475.075 1078 475.044L1078 466.075L1069 466.075Z" fill="#0099FF"/>
<path d="M1078 457.075C1073.02 457.075 1069 461.095 1069 466.075L1078 466.075L1078 457.075Z" fill="#FF00CC"/>
</svg>
