<svg width="131" height="26" viewBox="0 0 131 26" fill="none" xmlns="http://www.w3.org/2000/svg">
<rect width="131" height="26" rx="13" fill="#1874EA"/>
<path d="M15.9512 13.502V12.6992H12.5117V13.625H14.8965V13.7773C14.8965 15.1953 13.8652 16.168 12.3652 16.168C10.6426 16.168 9.57617 14.8496 9.57617 12.7227C9.57617 10.6309 10.625 9.37695 12.3652 9.37695C13.5547 9.37695 14.4395 10.0273 14.791 11.1699H15.8984C15.582 9.48828 14.1934 8.4043 12.3652 8.4043C9.99805 8.4043 8.49219 10.0859 8.49219 12.7285C8.49219 15.418 10.0039 17.1406 12.3652 17.1406C14.6211 17.1406 15.9512 15.7871 15.9512 13.502ZM20.873 8.4043C18.4766 8.4043 16.9766 10.0918 16.9766 12.7754C16.9766 15.459 18.4766 17.1406 20.873 17.1406C23.2695 17.1406 24.7695 15.459 24.7695 12.7754C24.7695 10.0918 23.2695 8.4043 20.873 8.4043ZM20.873 9.37695C22.6016 9.37695 23.6855 10.6895 23.6855 12.7754C23.6855 14.8555 22.6016 16.168 20.873 16.168C19.1445 16.168 18.0605 14.8555 18.0605 12.7754C18.0605 10.6895 19.1445 9.37695 20.873 9.37695ZM31.7363 17V9.49414H34.4023V8.54492H28.0156V9.49414H30.6816V17H31.7363ZM38.5566 8.4043C36.1602 8.4043 34.6602 10.0918 34.6602 12.7754C34.6602 15.459 36.1602 17.1406 38.5566 17.1406C40.9531 17.1406 42.4531 15.459 42.4531 12.7754C42.4531 10.0918 40.9531 8.4043 38.5566 8.4043ZM38.5566 9.37695C40.2852 9.37695 41.3691 10.6895 41.3691 12.7754C41.3691 14.8555 40.2852 16.168 38.5566 16.168C36.8281 16.168 35.7441 14.8555 35.7441 12.7754C35.7441 10.6895 36.8281 9.37695 38.5566 9.37695ZM49.4199 17V9.49414H52.0859V8.54492H45.6992V9.49414H48.3652V17H49.4199ZM59.9492 17V8.54492H58.8945V12.2012H54.2539V8.54492H53.1992V17H54.2539V13.1504H58.8945V17H59.9492ZM66.8281 16.0508H62.6445V13.1445H66.6113V12.207H62.6445V9.49414H66.8281V8.54492H61.5898V17H66.8281V16.0508ZM75.9219 16.0508H71.7383V13.1445H75.7051V12.207H71.7383V9.49414H75.9219V8.54492H70.6836V17H75.9219V16.0508ZM77.3164 8.54492V17H78.3711V13.9824H80.3223C81.9102 13.9824 83.041 12.8633 83.041 11.2578C83.041 9.6582 81.9219 8.54492 80.334 8.54492H77.3164ZM78.3711 9.48242H80.0586C81.2715 9.48242 81.957 10.1387 81.957 11.2578C81.957 12.3828 81.2656 13.0449 80.0586 13.0449H78.3711V9.48242ZM85.3086 17V8.54492H84.2539V17H85.3086ZM86.5391 14.7324C86.6387 16.1914 87.8691 17.1406 89.7148 17.1406C91.6074 17.1406 92.8379 16.1621 92.8379 14.5977C92.8379 13.4023 92.1406 12.6992 90.377 12.3125L89.4395 12.1074C88.2852 11.8555 87.834 11.3984 87.834 10.7305C87.834 9.86914 88.6484 9.35352 89.7031 9.35352C90.8047 9.35352 91.5371 9.92188 91.6309 10.8477H92.6855C92.6387 9.41211 91.4199 8.4043 89.7324 8.4043C87.9805 8.4043 86.75 9.38281 86.75 10.7773C86.75 11.9785 87.4824 12.7461 89.1758 13.1152L90.1133 13.3203C91.2852 13.5781 91.7539 14.0469 91.7539 14.7559C91.7539 15.5879 90.9219 16.1914 89.7734 16.1914C88.5605 16.1914 87.7168 15.6406 87.5938 14.7324H86.5391ZM97.6426 8.4043C95.2461 8.4043 93.7461 10.0918 93.7461 12.7754C93.7461 15.459 95.2461 17.1406 97.6426 17.1406C100.039 17.1406 101.539 15.459 101.539 12.7754C101.539 10.0918 100.039 8.4043 97.6426 8.4043ZM97.6426 9.37695C99.3711 9.37695 100.455 10.6895 100.455 12.7754C100.455 14.8555 99.3711 16.168 97.6426 16.168C95.9141 16.168 94.8301 14.8555 94.8301 12.7754C94.8301 10.6895 95.9141 9.37695 97.6426 9.37695ZM102.852 8.54492V17H105.693C108.207 17 109.684 15.4355 109.684 12.7695C109.684 10.1094 108.201 8.54492 105.693 8.54492H102.852ZM103.906 9.49414H105.623C107.545 9.49414 108.605 10.666 108.605 12.7812C108.605 14.8789 107.539 16.0508 105.623 16.0508H103.906V9.49414ZM116.234 16.0508H112.051V13.1445H116.018V12.207H112.051V9.49414H116.234V8.54492H110.996V17H116.234V16.0508ZM117.219 14.7324C117.318 16.1914 118.549 17.1406 120.395 17.1406C122.287 17.1406 123.518 16.1621 123.518 14.5977C123.518 13.4023 122.82 12.6992 121.057 12.3125L120.119 12.1074C118.965 11.8555 118.514 11.3984 118.514 10.7305C118.514 9.86914 119.328 9.35352 120.383 9.35352C121.484 9.35352 122.217 9.92188 122.311 10.8477H123.365C123.318 9.41211 122.1 8.4043 120.412 8.4043C118.66 8.4043 117.43 9.38281 117.43 10.7773C117.43 11.9785 118.162 12.7461 119.855 13.1152L120.793 13.3203C121.965 13.5781 122.434 14.0469 122.434 14.7559C122.434 15.5879 121.602 16.1914 120.453 16.1914C119.24 16.1914 118.396 15.6406 118.273 14.7324H117.219Z" fill="white"/>
</svg>
