<svg width="250" height="187" viewBox="0 0 250 187" fill="none" xmlns="http://www.w3.org/2000/svg">
<g filter="url(#filter0_d)">
<rect x="9" y="3" width="232" height="169" rx="10" fill="#F0F0F0"/>
<rect x="9.5" y="3.5" width="231" height="168" rx="9.5" stroke="#CACED4"/>
</g>
<path d="M20 3.5H231C236.247 3.5 240.5 7.75329 240.5 13V32.5H10.5V13C10.5 7.75329 14.7533 3.5 20 3.5Z" fill="#E9EDF2" stroke="#CACED4"/>
<path d="M21.7683 79.0355L36.1145 51.6881C36.489 50.9741 37.511 50.9741 37.8855 51.6881L52.2317 79.0354C52.581 79.7013 52.0981 80.5 51.3462 80.5H22.6538C21.9019 80.5 21.419 79.7013 21.7683 79.0355Z" fill="#EABC00" stroke="#EABC00"/>
<rect x="35" y="60" width="4" height="12" rx="1" fill="#F2F2F2"/>
<rect x="35" y="74" width="4" height="4" rx="1" fill="#F2F2F2"/>
<path d="M77.957 60.1357V70H81.2725C84.2051 70 85.9277 68.1748 85.9277 65.0645C85.9277 61.9609 84.1982 60.1357 81.2725 60.1357H77.957ZM79.1875 61.2432H81.1904C83.4326 61.2432 84.6699 62.6104 84.6699 65.0781C84.6699 67.5254 83.4258 68.8926 81.1904 68.8926H79.1875V61.2432ZM90.2207 70.123C92.1826 70.123 93.5088 68.708 93.5088 66.4453C93.5088 64.1758 92.1826 62.7676 90.2207 62.7676C88.252 62.7676 86.9258 64.1758 86.9258 66.4453C86.9258 68.708 88.252 70.123 90.2207 70.123ZM90.2207 69.0771C88.9629 69.0771 88.1357 68.1201 88.1357 66.4453C88.1357 64.7705 88.9629 63.8135 90.2207 63.8135C91.4785 63.8135 92.2988 64.7705 92.2988 66.4453C92.2988 68.1201 91.4785 69.0771 90.2207 69.0771ZM98.1777 72.6592C99.4629 72.6592 100.051 72.1602 100.659 70.499L103.455 62.8906H102.204L100.235 68.8105H100.215L98.2461 62.8906H96.9746L99.5996 70.0068L99.4355 70.5059C99.1621 71.333 98.793 71.6543 98.1299 71.6543C97.9795 71.6543 97.7949 71.6475 97.665 71.6201V72.6182C97.7949 72.6455 98.0342 72.6592 98.1777 72.6592ZM107.133 70.123C109.095 70.123 110.421 68.708 110.421 66.4453C110.421 64.1758 109.095 62.7676 107.133 62.7676C105.164 62.7676 103.838 64.1758 103.838 66.4453C103.838 68.708 105.164 70.123 107.133 70.123ZM107.133 69.0771C105.875 69.0771 105.048 68.1201 105.048 66.4453C105.048 64.7705 105.875 63.8135 107.133 63.8135C108.391 63.8135 109.211 64.7705 109.211 66.4453C109.211 68.1201 108.391 69.0771 107.133 69.0771ZM117.462 62.8906H116.272V67.0674C116.272 68.2773 115.575 69.0703 114.42 69.0703C113.319 69.0703 112.779 68.4482 112.779 67.293V62.8906H111.59V67.5049C111.59 69.1182 112.499 70.123 114.051 70.123C115.145 70.123 115.883 69.665 116.307 68.8447H116.334V70H117.462V62.8906ZM130.922 62.8906H129.746L128.324 68.6738H128.297L126.684 62.8906H125.535L123.929 68.6738H123.901L122.479 62.8906H121.297L123.286 70H124.496L126.096 64.4971H126.123L127.729 70H128.939L130.922 62.8906ZM133.841 70.123C134.798 70.123 135.7 69.5898 136.124 68.7764H136.151V70H137.279V65.085C137.279 63.6699 136.227 62.7676 134.559 62.7676C132.877 62.7676 131.824 63.7109 131.742 64.9414H132.891C133.041 64.2441 133.615 63.8135 134.531 63.8135C135.516 63.8135 136.09 64.333 136.09 65.2012V65.7959L134.053 65.9121C132.412 66.0078 131.476 66.7734 131.476 67.9902C131.476 69.2686 132.426 70.123 133.841 70.123ZM134.107 69.1113C133.253 69.1113 132.686 68.667 132.686 67.9902C132.686 67.3203 133.232 66.8965 134.189 66.835L136.09 66.7188V67.2998C136.09 68.3252 135.229 69.1113 134.107 69.1113ZM138.79 70H139.979V65.8164C139.979 64.6133 140.711 63.8203 141.832 63.8203C142.926 63.8203 143.466 64.4492 143.466 65.5977V70H144.655V65.3857C144.655 63.7725 143.753 62.7676 142.194 62.7676C141.094 62.7676 140.335 63.2598 139.938 64.0254H139.911V62.8906H138.79V70ZM146.556 61.1748V62.8906H145.496V63.8682H146.556V68.1543C146.556 69.5215 147.062 70.0547 148.367 70.0547C148.647 70.0547 148.976 70.0342 149.119 70V69.002C149.037 69.0156 148.764 69.0361 148.627 69.0361C148.019 69.0361 147.745 68.7422 147.745 68.0928V63.8682H149.126V62.8906H147.745V61.1748H146.556ZM153.651 61.1748V62.8906H152.592V63.8682H153.651V68.1543C153.651 69.5215 154.157 70.0547 155.463 70.0547C155.743 70.0547 156.071 70.0342 156.215 70V69.002C156.133 69.0156 155.859 69.0361 155.723 69.0361C155.114 69.0361 154.841 68.7422 154.841 68.0928V63.8682H156.222V62.8906H154.841V61.1748H153.651ZM160.234 70.123C162.196 70.123 163.522 68.708 163.522 66.4453C163.522 64.1758 162.196 62.7676 160.234 62.7676C158.266 62.7676 156.939 64.1758 156.939 66.4453C156.939 68.708 158.266 70.123 160.234 70.123ZM160.234 69.0771C158.977 69.0771 158.149 68.1201 158.149 66.4453C158.149 64.7705 158.977 63.8135 160.234 63.8135C161.492 63.8135 162.312 64.7705 162.312 66.4453C162.312 68.1201 161.492 69.0771 160.234 69.0771ZM167.979 70H169.169V63.8682H170.618V62.8906H169.162V62.1045C169.162 61.4004 169.47 61.0586 170.112 61.0586C170.311 61.0586 170.509 61.0791 170.652 61.0996V60.1357C170.481 60.1084 170.194 60.0811 169.928 60.0811C168.615 60.0811 167.979 60.7305 167.979 62.0977V62.8906H166.988V63.8682H167.979V70ZM172.505 61.626C172.922 61.626 173.25 61.291 173.25 60.8809C173.25 60.4639 172.922 60.1357 172.505 60.1357C172.095 60.1357 171.76 60.4639 171.76 60.8809C171.76 61.291 172.095 61.626 172.505 61.626ZM171.91 70H173.1V62.8906H171.91V70ZM174.706 70H175.896V65.8164C175.896 64.6133 176.627 63.8203 177.748 63.8203C178.842 63.8203 179.382 64.4492 179.382 65.5977V70H180.571V65.3857C180.571 63.7725 179.669 62.7676 178.11 62.7676C177.01 62.7676 176.251 63.2598 175.854 64.0254H175.827V62.8906H174.706V70ZM184.782 70.123C185.808 70.123 186.621 69.6172 187.079 68.7969H187.1V70H188.234V60.1357H187.045V64.0459H187.018C186.594 63.2666 185.773 62.7676 184.755 62.7676C182.964 62.7676 181.74 64.2168 181.74 66.4453C181.74 68.6738 182.971 70.123 184.782 70.123ZM185.008 63.8135C186.231 63.8135 187.052 64.8594 187.052 66.4453C187.052 68.0381 186.231 69.0771 185.008 69.0771C183.75 69.0771 182.957 68.0586 182.957 66.4453C182.957 64.8389 183.75 63.8135 185.008 63.8135ZM195.658 70.123C197.62 70.123 198.946 68.708 198.946 66.4453C198.946 64.1758 197.62 62.7676 195.658 62.7676C193.689 62.7676 192.363 64.1758 192.363 66.4453C192.363 68.708 193.689 70.123 195.658 70.123ZM195.658 69.0771C194.4 69.0771 193.573 68.1201 193.573 66.4453C193.573 64.7705 194.4 63.8135 195.658 63.8135C196.916 63.8135 197.736 64.7705 197.736 66.4453C197.736 68.1201 196.916 69.0771 195.658 69.0771ZM205.987 62.8906H204.798V67.0674C204.798 68.2773 204.101 69.0703 202.945 69.0703C201.845 69.0703 201.305 68.4482 201.305 67.293V62.8906H200.115V67.5049C200.115 69.1182 201.024 70.123 202.576 70.123C203.67 70.123 204.408 69.665 204.832 68.8447H204.859V70H205.987V62.8906ZM207.915 61.1748V62.8906H206.855V63.8682H207.915V68.1543C207.915 69.5215 208.421 70.0547 209.727 70.0547C210.007 70.0547 210.335 70.0342 210.479 70V69.002C210.396 69.0156 210.123 69.0361 209.986 69.0361C209.378 69.0361 209.104 68.7422 209.104 68.0928V63.8682H210.485V62.8906H209.104V61.1748H207.915ZM77.834 87H79.0234V82.8574C79.0234 81.627 79.7549 80.8203 80.9375 80.8203C82.0518 80.8203 82.6191 81.4971 82.6191 82.625V87H83.8086V82.4062C83.8086 80.8203 82.8652 79.7676 81.3066 79.7676C80.2266 79.7676 79.4473 80.2324 79.0508 81.0254H79.0234V77.1357H77.834V87ZM88.2656 87.123C90.2275 87.123 91.5537 85.708 91.5537 83.4453C91.5537 81.1758 90.2275 79.7676 88.2656 79.7676C86.2969 79.7676 84.9707 81.1758 84.9707 83.4453C84.9707 85.708 86.2969 87.123 88.2656 87.123ZM88.2656 86.0771C87.0078 86.0771 86.1807 85.1201 86.1807 83.4453C86.1807 81.7705 87.0078 80.8135 88.2656 80.8135C89.5234 80.8135 90.3438 81.7705 90.3438 83.4453C90.3438 85.1201 89.5234 86.0771 88.2656 86.0771ZM101.801 79.8906H100.625L99.2031 85.6738H99.1758L97.5625 79.8906H96.4141L94.8076 85.6738H94.7803L93.3584 79.8906H92.1758L94.165 87H95.375L96.9746 81.4971H97.002L98.6084 87H99.8184L101.801 79.8906ZM108.596 87.123C110.558 87.123 111.884 85.708 111.884 83.4453C111.884 81.1758 110.558 79.7676 108.596 79.7676C106.627 79.7676 105.301 81.1758 105.301 83.4453C105.301 85.708 106.627 87.123 108.596 87.123ZM108.596 86.0771C107.338 86.0771 106.511 85.1201 106.511 83.4453C106.511 81.7705 107.338 80.8135 108.596 80.8135C109.854 80.8135 110.674 81.7705 110.674 83.4453C110.674 85.1201 109.854 86.0771 108.596 86.0771ZM118.925 79.8906H117.735V84.0674C117.735 85.2773 117.038 86.0703 115.883 86.0703C114.782 86.0703 114.242 85.4482 114.242 84.293V79.8906H113.053V84.5049C113.053 86.1182 113.962 87.123 115.514 87.123C116.607 87.123 117.346 86.665 117.77 85.8447H117.797V87H118.925V79.8906ZM120.47 87H121.659V82.5703C121.659 81.5654 122.261 80.9023 123.184 80.9023C123.471 80.9023 123.724 80.9365 123.819 80.9707V79.8154C123.724 79.8018 123.546 79.7676 123.341 79.7676C122.507 79.7676 121.851 80.2666 121.618 81.0527H121.591V79.8906H120.47V87ZM128.311 78.626C128.728 78.626 129.056 78.291 129.056 77.8809C129.056 77.4639 128.728 77.1357 128.311 77.1357C127.9 77.1357 127.565 77.4639 127.565 77.8809C127.565 78.291 127.9 78.626 128.311 78.626ZM128.912 79.8906H127.723V87.3623C127.723 88.1553 127.442 88.4492 126.67 88.4492H126.485V89.4404C126.499 89.4473 126.69 89.4473 126.711 89.4473C128.229 89.4473 128.912 88.791 128.912 87.3486V79.8906ZM133.465 87.123C135.427 87.123 136.753 85.708 136.753 83.4453C136.753 81.1758 135.427 79.7676 133.465 79.7676C131.496 79.7676 130.17 81.1758 130.17 83.4453C130.17 85.708 131.496 87.123 133.465 87.123ZM133.465 86.0771C132.207 86.0771 131.38 85.1201 131.38 83.4453C131.38 81.7705 132.207 80.8135 133.465 80.8135C134.723 80.8135 135.543 81.7705 135.543 83.4453C135.543 85.1201 134.723 86.0771 133.465 86.0771ZM143.794 79.8906H142.604V84.0674C142.604 85.2773 141.907 86.0703 140.752 86.0703C139.651 86.0703 139.111 85.4482 139.111 84.293V79.8906H137.922V84.5049C137.922 86.1182 138.831 87.123 140.383 87.123C141.477 87.123 142.215 86.665 142.639 85.8447H142.666V87H143.794V79.8906ZM145.339 87H146.528V82.5703C146.528 81.5654 147.13 80.9023 148.053 80.9023C148.34 80.9023 148.593 80.9365 148.688 80.9707V79.8154C148.593 79.8018 148.415 79.7676 148.21 79.7676C147.376 79.7676 146.72 80.2666 146.487 81.0527H146.46V79.8906H145.339V87ZM149.659 87H150.849V82.8164C150.849 81.6133 151.58 80.8203 152.701 80.8203C153.795 80.8203 154.335 81.4492 154.335 82.5977V87H155.524V82.3857C155.524 80.7725 154.622 79.7676 153.063 79.7676C151.963 79.7676 151.204 80.2598 150.808 81.0254H150.78V79.8906H149.659V87ZM161.759 84.9629C161.561 85.6328 160.897 86.0908 159.995 86.0908C158.717 86.0908 157.917 85.1953 157.917 83.835V83.7666H163.017V83.3154C163.017 81.1621 161.834 79.7676 159.913 79.7676C157.951 79.7676 156.693 81.2646 156.693 83.4727C156.693 85.708 157.931 87.123 159.968 87.123C161.52 87.123 162.723 86.207 162.928 84.9629H161.759ZM159.893 80.7998C161.014 80.7998 161.759 81.6475 161.786 82.8369H157.924C157.999 81.6543 158.778 80.7998 159.893 80.7998ZM164.814 89.6592C166.1 89.6592 166.688 89.1602 167.296 87.499L170.092 79.8906H168.841L166.872 85.8105H166.852L164.883 79.8906H163.611L166.236 87.0068L166.072 87.5059C165.799 88.333 165.43 88.6543 164.767 88.6543C164.616 88.6543 164.432 88.6475 164.302 88.6201V89.6182C164.432 89.6455 164.671 89.6592 164.814 89.6592ZM182.943 79.8906H181.768L180.346 85.6738H180.318L178.705 79.8906H177.557L175.95 85.6738H175.923L174.501 79.8906H173.318L175.308 87H176.518L178.117 81.4971H178.145L179.751 87H180.961L182.943 79.8906ZM188.638 84.9629C188.439 85.6328 187.776 86.0908 186.874 86.0908C185.596 86.0908 184.796 85.1953 184.796 83.835V83.7666H189.896V83.3154C189.896 81.1621 188.713 79.7676 186.792 79.7676C184.83 79.7676 183.572 81.2646 183.572 83.4727C183.572 85.708 184.81 87.123 186.847 87.123C188.398 87.123 189.602 86.207 189.807 84.9629H188.638ZM186.771 80.7998C187.893 80.7998 188.638 81.6475 188.665 82.8369H184.803C184.878 81.6543 185.657 80.7998 186.771 80.7998ZM191.099 87H192.288V82.8164C192.288 81.6133 193.02 80.8203 194.141 80.8203C195.234 80.8203 195.774 81.4492 195.774 82.5977V87H196.964V82.3857C196.964 80.7725 196.062 79.7676 194.503 79.7676C193.402 79.7676 192.644 80.2598 192.247 81.0254H192.22V79.8906H191.099V87ZM198.864 78.1748V79.8906H197.805V80.8682H198.864V85.1543C198.864 86.5215 199.37 87.0547 200.676 87.0547C200.956 87.0547 201.284 87.0342 201.428 87V86.002C201.346 86.0156 201.072 86.0361 200.936 86.0361C200.327 86.0361 200.054 85.7422 200.054 85.0928V80.8682H201.435V79.8906H200.054V78.1748H198.864ZM202.316 79.7129H203.485C203.561 78.7354 204.217 78.127 205.249 78.127C206.268 78.127 206.924 78.749 206.924 79.5967C206.924 80.3281 206.616 80.7588 205.823 81.2441C204.887 81.8047 204.449 82.4199 204.456 83.3223V83.9512H205.652V83.5068C205.652 82.7891 205.898 82.4062 206.767 81.8936C207.642 81.3672 208.195 80.6084 208.195 79.5352C208.195 78.127 207.02 77.0605 205.297 77.0605C203.376 77.0605 202.392 78.2432 202.316 79.7129ZM205.058 87.0684C205.502 87.0684 205.837 86.7266 205.837 86.2891C205.837 85.8447 205.502 85.5098 205.058 85.5098C204.62 85.5098 204.278 85.8447 204.278 86.2891C204.278 86.7266 204.62 87.0684 205.058 87.0684Z" fill="black"/>
<defs>
<filter id="filter0_d" x="0" y="0" width="250" height="187" filterUnits="userSpaceOnUse" color-interpolation-filters="sRGB">
<feFlood flood-opacity="0" result="BackgroundImageFix"/>
<feColorMatrix in="SourceAlpha" type="matrix" values="0 0 0 0 0 0 0 0 0 0 0 0 0 0 0 0 0 0 127 0"/>
<feOffset dy="6"/>
<feGaussianBlur stdDeviation="4.5"/>
<feColorMatrix type="matrix" values="0 0 0 0 0 0 0 0 0 0 0 0 0 0 0 0 0 0 0.15 0"/>
<feBlend mode="normal" in2="BackgroundImageFix" result="effect1_dropShadow"/>
<feBlend mode="normal" in="SourceGraphic" in2="effect1_dropShadow" result="shape"/>
</filter>
</defs>
</svg>
