<svg width="117" height="26" viewBox="0 0 117 26" fill="none" xmlns="http://www.w3.org/2000/svg">
<rect width="117" height="26" rx="13" fill="#1874EA"/>
<path d="M27.9531 16.0508H23.875V8.54492H22.8203V17H27.9531V16.0508ZM34.3516 16.0508H30.168V13.1445H34.1348V12.207H30.168V9.49414H34.3516V8.54492H29.1133V17H34.3516V16.0508ZM41.2422 17H42.3496L39.2324 8.54492H38.1895L35.0723 17H36.1797L37.0293 14.5801H40.3926L41.2422 17ZM38.6934 9.82812H38.7285L40.082 13.6836H37.3398L38.6934 9.82812ZM44.3711 13.6543H46.3926L48.2031 17H49.4395L47.4824 13.4902C48.543 13.1562 49.1816 12.2422 49.1816 11.0645C49.1816 9.54102 48.1152 8.54492 46.4863 8.54492H43.3164V17H44.3711V13.6543ZM44.3711 9.48242H46.3457C47.4355 9.48242 48.0918 10.0859 48.0918 11.0996C48.0918 12.1367 47.4766 12.7227 46.3926 12.7227H44.3711V9.48242ZM51.5547 17V10.3848H51.6074L56.2363 17H57.2617V8.54492H56.2188V15.1836H56.166L51.5371 8.54492H50.5117V17H51.5547ZM69.6953 17V8.54492H68.4707L65.5527 15.6582H65.5059L62.5879 8.54492H61.3633V17H62.3477V10.4844H62.3887L65.084 17H65.9746L68.6699 10.4844H68.7109V17H69.6953ZM74.9043 8.4043C72.5078 8.4043 71.0078 10.0918 71.0078 12.7754C71.0078 15.459 72.5078 17.1406 74.9043 17.1406C77.3008 17.1406 78.8008 15.459 78.8008 12.7754C78.8008 10.0918 77.3008 8.4043 74.9043 8.4043ZM74.9043 9.37695C76.6328 9.37695 77.7168 10.6895 77.7168 12.7754C77.7168 14.8555 76.6328 16.168 74.9043 16.168C73.1758 16.168 72.0918 14.8555 72.0918 12.7754C72.0918 10.6895 73.1758 9.37695 74.9043 9.37695ZM81.168 13.6543H83.1895L85 17H86.2363L84.2793 13.4902C85.3398 13.1562 85.9785 12.2422 85.9785 11.0645C85.9785 9.54102 84.9121 8.54492 83.2832 8.54492H80.1133V17H81.168V13.6543ZM81.168 9.48242H83.1426C84.2324 9.48242 84.8887 10.0859 84.8887 11.0996C84.8887 12.1367 84.2734 12.7227 83.1895 12.7227H81.168V9.48242ZM92.5469 16.0508H88.3633V13.1445H92.3301V12.207H88.3633V9.49414H92.5469V8.54492H87.3086V17H92.5469V16.0508Z" fill="white"/>
</svg>
