<svg width="235" height="153" viewBox="0 0 235 153" fill="none" xmlns="http://www.w3.org/2000/svg">
<g filter="url(#filter0_d)">
<rect x="9" y="3" width="217" height="135" rx="10" fill="#F0F0F0"/>
<rect x="9.5" y="3.5" width="216" height="134" rx="9.5" stroke="#CACED4"/>
</g>
<path d="M19 3.5H216C221.247 3.5 225.5 7.7533 225.5 13V32.5H9.5V13C9.5 7.75329 13.7533 3.5 19 3.5Z" fill="#E9EDF2" stroke="#CACED4"/>
<path d="M21.7683 79.0355L36.1145 51.6881C36.489 50.9741 37.511 50.9741 37.8855 51.6881L52.2317 79.0354C52.581 79.7013 52.0981 80.5 51.3462 80.5H22.6538C21.9019 80.5 21.419 79.7013 21.7683 79.0355Z" fill="#EABC00" stroke="#EABC00"/>
<rect x="35" y="60" width="4" height="12" rx="1" fill="#F2F2F2"/>
<rect x="35" y="74" width="4" height="4" rx="1" fill="#F2F2F2"/>
<path d="M83.4326 62.1729H83.501L85.7773 70H86.9395L89.626 60.1357H88.3408L86.3652 68.1885H86.3105L84.0889 60.1357H82.8447L80.623 68.1885H80.5684L78.5928 60.1357H77.3076L79.9941 70H81.1562L83.4326 62.1729ZM90.7676 70H91.957V65.8574C91.957 64.627 92.6885 63.8203 93.8711 63.8203C94.9854 63.8203 95.5527 64.4971 95.5527 65.625V70H96.7422V65.4062C96.7422 63.8203 95.7988 62.7676 94.2402 62.7676C93.1602 62.7676 92.3809 63.2324 91.9844 64.0254H91.957V60.1357H90.7676V70ZM98.8477 72.6592C100.133 72.6592 100.721 72.1602 101.329 70.499L104.125 62.8906H102.874L100.905 68.8105H100.885L98.916 62.8906H97.6445L100.27 70.0068L100.105 70.5059C99.832 71.333 99.4629 71.6543 98.7998 71.6543C98.6494 71.6543 98.4648 71.6475 98.335 71.6201V72.6182C98.4648 72.6455 98.7041 72.6592 98.8477 72.6592ZM110.011 70.123C110.968 70.123 111.87 69.5898 112.294 68.7764H112.321V70H113.449V65.085C113.449 63.6699 112.396 62.7676 110.729 62.7676C109.047 62.7676 107.994 63.7109 107.912 64.9414H109.061C109.211 64.2441 109.785 63.8135 110.701 63.8135C111.686 63.8135 112.26 64.333 112.26 65.2012V65.7959L110.223 65.9121C108.582 66.0078 107.646 66.7734 107.646 67.9902C107.646 69.2686 108.596 70.123 110.011 70.123ZM110.277 69.1113C109.423 69.1113 108.855 68.667 108.855 67.9902C108.855 67.3203 109.402 66.8965 110.359 66.835L112.26 66.7188V67.2998C112.26 68.3252 111.398 69.1113 110.277 69.1113ZM114.96 70H116.149V65.5703C116.149 64.5654 116.751 63.9023 117.674 63.9023C117.961 63.9023 118.214 63.9365 118.31 63.9707V62.8154C118.214 62.8018 118.036 62.7676 117.831 62.7676C116.997 62.7676 116.341 63.2666 116.108 64.0527H116.081V62.8906H114.96V70ZM123.655 67.9629C123.457 68.6328 122.794 69.0908 121.892 69.0908C120.613 69.0908 119.813 68.1953 119.813 66.835V66.7666H124.913V66.3154C124.913 64.1621 123.73 62.7676 121.81 62.7676C119.848 62.7676 118.59 64.2646 118.59 66.4727C118.59 68.708 119.827 70.123 121.864 70.123C123.416 70.123 124.619 69.207 124.824 67.9629H123.655ZM121.789 63.7998C122.91 63.7998 123.655 64.6475 123.683 65.8369H119.82C119.896 64.6543 120.675 63.7998 121.789 63.7998ZM129.37 61.1748V62.8906H128.311V63.8682H129.37V68.1543C129.37 69.5215 129.876 70.0547 131.182 70.0547C131.462 70.0547 131.79 70.0342 131.934 70V69.002C131.852 69.0156 131.578 69.0361 131.441 69.0361C130.833 69.0361 130.56 68.7422 130.56 68.0928V63.8682H131.94V62.8906H130.56V61.1748H129.37ZM133.273 70H134.463V65.8574C134.463 64.627 135.194 63.8203 136.377 63.8203C137.491 63.8203 138.059 64.4971 138.059 65.625V70H139.248V65.4062C139.248 63.8203 138.305 62.7676 136.746 62.7676C135.666 62.7676 134.887 63.2324 134.49 64.0254H134.463V60.1357H133.273V70ZM145.476 67.9629C145.277 68.6328 144.614 69.0908 143.712 69.0908C142.434 69.0908 141.634 68.1953 141.634 66.835V66.7666H146.733V66.3154C146.733 64.1621 145.551 62.7676 143.63 62.7676C141.668 62.7676 140.41 64.2646 140.41 66.4727C140.41 68.708 141.647 70.123 143.685 70.123C145.236 70.123 146.439 69.207 146.645 67.9629H145.476ZM143.609 63.7998C144.73 63.7998 145.476 64.6475 145.503 65.8369H141.641C141.716 64.6543 142.495 63.7998 143.609 63.7998ZM148.531 72.6592C149.816 72.6592 150.404 72.1602 151.013 70.499L153.809 62.8906H152.558L150.589 68.8105H150.568L148.6 62.8906H147.328L149.953 70.0068L149.789 70.5059C149.516 71.333 149.146 71.6543 148.483 71.6543C148.333 71.6543 148.148 71.6475 148.019 71.6201V72.6182C148.148 72.6455 148.388 72.6592 148.531 72.6592ZM157.616 70H158.806V65.5703C158.806 64.5654 159.407 63.9023 160.33 63.9023C160.617 63.9023 160.87 63.9365 160.966 63.9707V62.8154C160.87 62.8018 160.692 62.7676 160.487 62.7676C159.653 62.7676 158.997 63.2666 158.765 64.0527H158.737V62.8906H157.616V70ZM166.312 67.9629C166.113 68.6328 165.45 69.0908 164.548 69.0908C163.27 69.0908 162.47 68.1953 162.47 66.835V66.7666H167.569V66.3154C167.569 64.1621 166.387 62.7676 164.466 62.7676C162.504 62.7676 161.246 64.2646 161.246 66.4727C161.246 68.708 162.483 70.123 164.521 70.123C166.072 70.123 167.275 69.207 167.48 67.9629H166.312ZM164.445 63.7998C165.566 63.7998 166.312 64.6475 166.339 65.8369H162.477C162.552 64.6543 163.331 63.7998 164.445 63.7998ZM168.834 70H170.023V60.1357H168.834V70ZM176.347 67.9629C176.148 68.6328 175.485 69.0908 174.583 69.0908C173.305 69.0908 172.505 68.1953 172.505 66.835V66.7666H177.604V66.3154C177.604 64.1621 176.422 62.7676 174.501 62.7676C172.539 62.7676 171.281 64.2646 171.281 66.4727C171.281 68.708 172.519 70.123 174.556 70.123C176.107 70.123 177.311 69.207 177.516 67.9629H176.347ZM174.48 63.7998C175.602 63.7998 176.347 64.6475 176.374 65.8369H172.512C172.587 64.6543 173.366 63.7998 174.48 63.7998ZM184.639 62.8906H183.401L181.433 68.7354H181.405L179.443 62.8906H178.192L180.811 70H182.027L184.639 62.8906ZM187.517 70.123C188.474 70.123 189.376 69.5898 189.8 68.7764H189.827V70H190.955V65.085C190.955 63.6699 189.902 62.7676 188.234 62.7676C186.553 62.7676 185.5 63.7109 185.418 64.9414H186.566C186.717 64.2441 187.291 63.8135 188.207 63.8135C189.191 63.8135 189.766 64.333 189.766 65.2012V65.7959L187.729 65.9121C186.088 66.0078 185.151 66.7734 185.151 67.9902C185.151 69.2686 186.102 70.123 187.517 70.123ZM187.783 69.1113C186.929 69.1113 186.361 68.667 186.361 67.9902C186.361 67.3203 186.908 66.8965 187.865 66.835L189.766 66.7188V67.2998C189.766 68.3252 188.904 69.1113 187.783 69.1113ZM192.466 70H193.655V65.8164C193.655 64.6133 194.387 63.8203 195.508 63.8203C196.602 63.8203 197.142 64.4492 197.142 65.5977V70H198.331V65.3857C198.331 63.7725 197.429 62.7676 195.87 62.7676C194.77 62.7676 194.011 63.2598 193.614 64.0254H193.587V62.8906H192.466V70ZM200.231 61.1748V62.8906H199.172V63.8682H200.231V68.1543C200.231 69.5215 200.737 70.0547 202.043 70.0547C202.323 70.0547 202.651 70.0342 202.795 70V69.002C202.713 69.0156 202.439 69.0361 202.303 69.0361C201.694 69.0361 201.421 68.7422 201.421 68.0928V63.8682H202.802V62.8906H201.421V61.1748H200.231ZM203.684 62.7129H204.853C204.928 61.7354 205.584 61.127 206.616 61.127C207.635 61.127 208.291 61.749 208.291 62.5967C208.291 63.3281 207.983 63.7588 207.19 64.2441C206.254 64.8047 205.816 65.4199 205.823 66.3223V66.9512H207.02V66.5068C207.02 65.7891 207.266 65.4062 208.134 64.8936C209.009 64.3672 209.562 63.6084 209.562 62.5352C209.562 61.127 208.387 60.0605 206.664 60.0605C204.743 60.0605 203.759 61.2432 203.684 62.7129ZM206.425 70.0684C206.869 70.0684 207.204 69.7266 207.204 69.2891C207.204 68.8447 206.869 68.5098 206.425 68.5098C205.987 68.5098 205.646 68.8447 205.646 69.2891C205.646 69.7266 205.987 70.0684 206.425 70.0684Z" fill="black"/>
<defs>
<filter id="filter0_d" x="0" y="0" width="235" height="153" filterUnits="userSpaceOnUse" color-interpolation-filters="sRGB">
<feFlood flood-opacity="0" result="BackgroundImageFix"/>
<feColorMatrix in="SourceAlpha" type="matrix" values="0 0 0 0 0 0 0 0 0 0 0 0 0 0 0 0 0 0 127 0"/>
<feOffset dy="6"/>
<feGaussianBlur stdDeviation="4.5"/>
<feColorMatrix type="matrix" values="0 0 0 0 0 0 0 0 0 0 0 0 0 0 0 0 0 0 0.15 0"/>
<feBlend mode="normal" in2="BackgroundImageFix" result="effect1_dropShadow"/>
<feBlend mode="normal" in="SourceGraphic" in2="effect1_dropShadow" result="shape"/>
</filter>
</defs>
</svg>
