<svg width="314" height="166" viewBox="0 0 314 166" fill="none" xmlns="http://www.w3.org/2000/svg">
<g filter="url(#filter0_d)">
<rect x="9" y="3" width="296" height="148" rx="10" fill="#F0F0F0"/>
<rect x="9.5" y="3.5" width="295" height="147" rx="9.5" stroke="#CACED4"/>
</g>
<path d="M19 3.5H295C300.247 3.5 304.5 7.7533 304.5 13V32.5H9.5V13C9.5 7.75329 13.7533 3.5 19 3.5Z" fill="#E9EDF2" stroke="#CACED4"/>
<path d="M21.7683 79.0355L36.1145 51.6881C36.489 50.9741 37.511 50.9741 37.8855 51.6881L52.2317 79.0354C52.581 79.7013 52.0981 80.5 51.3462 80.5H22.6538C21.9019 80.5 21.419 79.7013 21.7683 79.0355Z" fill="#EABC00" stroke="#EABC00"/>
<rect x="35" y="60" width="4" height="12" rx="1" fill="#F2F2F2"/>
<rect x="35" y="74" width="4" height="4" rx="1" fill="#F2F2F2"/>
<path d="M83.4326 62.1729H83.501L85.7773 70H86.9395L89.626 60.1357H88.3408L86.3652 68.1885H86.3105L84.0889 60.1357H82.8447L80.623 68.1885H80.5684L78.5928 60.1357H77.3076L79.9941 70H81.1562L83.4326 62.1729ZM94.6709 67.9629C94.4727 68.6328 93.8096 69.0908 92.9072 69.0908C91.6289 69.0908 90.8291 68.1953 90.8291 66.835V66.7666H95.9287V66.3154C95.9287 64.1621 94.7461 62.7676 92.8252 62.7676C90.8633 62.7676 89.6055 64.2646 89.6055 66.4727C89.6055 68.708 90.8428 70.123 92.8799 70.123C94.4316 70.123 95.6348 69.207 95.8398 67.9629H94.6709ZM92.8047 63.7998C93.9258 63.7998 94.6709 64.6475 94.6982 65.8369H90.8359C90.9111 64.6543 91.6904 63.7998 92.8047 63.7998ZM100.659 61.626C101.076 61.626 101.404 61.291 101.404 60.8809C101.404 60.4639 101.076 60.1357 100.659 60.1357C100.249 60.1357 99.9141 60.4639 99.9141 60.8809C99.9141 61.291 100.249 61.626 100.659 61.626ZM100.064 70H101.254V62.8906H100.064V70ZM102.86 70H104.05V65.8164C104.05 64.6133 104.781 63.8203 105.902 63.8203C106.996 63.8203 107.536 64.4492 107.536 65.5977V70H108.726V65.3857C108.726 63.7725 107.823 62.7676 106.265 62.7676C105.164 62.7676 104.405 63.2598 104.009 64.0254H103.981V62.8906H102.86V70ZM116.074 62.8906H114.837L112.868 68.7354H112.841L110.879 62.8906H109.628L112.246 70H113.463L116.074 62.8906ZM121.522 67.9629C121.324 68.6328 120.661 69.0908 119.759 69.0908C118.48 69.0908 117.681 68.1953 117.681 66.835V66.7666H122.78V66.3154C122.78 64.1621 121.598 62.7676 119.677 62.7676C117.715 62.7676 116.457 64.2646 116.457 66.4727C116.457 68.708 117.694 70.123 119.731 70.123C121.283 70.123 122.486 69.207 122.691 67.9629H121.522ZM119.656 63.7998C120.777 63.7998 121.522 64.6475 121.55 65.8369H117.688C117.763 64.6543 118.542 63.7998 119.656 63.7998ZM123.86 64.8525C123.86 65.8779 124.51 66.5 125.85 66.8213L126.978 67.0947C127.791 67.293 128.071 67.5869 128.071 68.0996C128.071 68.7422 127.477 69.1523 126.513 69.1523C125.549 69.1523 125.002 68.7627 124.858 67.9492H123.669C123.806 69.2822 124.845 70.123 126.513 70.123C128.099 70.123 129.268 69.248 129.268 68.0107C129.268 66.9922 128.748 66.4316 127.312 66.083L126.185 65.8096C125.392 65.6182 125.029 65.2832 125.029 64.791C125.029 64.1689 125.604 63.7383 126.472 63.7383C127.347 63.7383 127.894 64.1963 127.982 64.9414H129.117C129.069 63.6836 128.03 62.7676 126.472 62.7676C124.934 62.7676 123.86 63.6357 123.86 64.8525ZM130.888 61.1748V62.8906H129.828V63.8682H130.888V68.1543C130.888 69.5215 131.394 70.0547 132.699 70.0547C132.979 70.0547 133.308 70.0342 133.451 70V69.002C133.369 69.0156 133.096 69.0361 132.959 69.0361C132.351 69.0361 132.077 68.7422 132.077 68.0928V63.8682H133.458V62.8906H132.077V61.1748H130.888ZM135.386 61.626C135.803 61.626 136.131 61.291 136.131 60.8809C136.131 60.4639 135.803 60.1357 135.386 60.1357C134.976 60.1357 134.641 60.4639 134.641 60.8809C134.641 61.291 134.976 61.626 135.386 61.626ZM134.791 70H135.98V62.8906H134.791V70ZM140.52 72.6797C142.481 72.6797 143.732 71.5518 143.732 69.8564V62.8906H142.598V64.0869H142.577C142.105 63.2598 141.271 62.7676 140.267 62.7676C138.428 62.7676 137.238 64.1895 137.238 66.418C137.238 68.626 138.428 70.0547 140.239 70.0547C141.237 70.0547 142.078 69.5488 142.516 68.7764H142.543V69.8975C142.543 70.957 141.798 71.668 140.567 71.668C139.679 71.668 138.975 71.2373 138.742 70.5879H137.519C137.717 71.7979 138.954 72.6797 140.52 72.6797ZM140.479 69.0088C139.255 69.0088 138.455 68.0107 138.455 66.418C138.455 64.8252 139.255 63.8135 140.479 63.8135C141.716 63.8135 142.543 64.8525 142.543 66.418C142.543 67.9834 141.716 69.0088 140.479 69.0088ZM147.362 70.123C148.319 70.123 149.222 69.5898 149.646 68.7764H149.673V70H150.801V65.085C150.801 63.6699 149.748 62.7676 148.08 62.7676C146.398 62.7676 145.346 63.7109 145.264 64.9414H146.412C146.562 64.2441 147.137 63.8135 148.053 63.8135C149.037 63.8135 149.611 64.333 149.611 65.2012V65.7959L147.574 65.9121C145.934 66.0078 144.997 66.7734 144.997 67.9902C144.997 69.2686 145.947 70.123 147.362 70.123ZM147.629 69.1113C146.774 69.1113 146.207 68.667 146.207 67.9902C146.207 67.3203 146.754 66.8965 147.711 66.835L149.611 66.7188V67.2998C149.611 68.3252 148.75 69.1113 147.629 69.1113ZM152.694 61.1748V62.8906H151.635V63.8682H152.694V68.1543C152.694 69.5215 153.2 70.0547 154.506 70.0547C154.786 70.0547 155.114 70.0342 155.258 70V69.002C155.176 69.0156 154.902 69.0361 154.766 69.0361C154.157 69.0361 153.884 68.7422 153.884 68.0928V63.8682H155.265V62.8906H153.884V61.1748H152.694ZM161.048 67.9629C160.85 68.6328 160.187 69.0908 159.284 69.0908C158.006 69.0908 157.206 68.1953 157.206 66.835V66.7666H162.306V66.3154C162.306 64.1621 161.123 62.7676 159.202 62.7676C157.24 62.7676 155.982 64.2646 155.982 66.4727C155.982 68.708 157.22 70.123 159.257 70.123C160.809 70.123 162.012 69.207 162.217 67.9629H161.048ZM159.182 63.7998C160.303 63.7998 161.048 64.6475 161.075 65.8369H157.213C157.288 64.6543 158.067 63.7998 159.182 63.7998ZM166.202 70.123C167.228 70.123 168.041 69.6172 168.499 68.7969H168.52V70H169.654V60.1357H168.465V64.0459H168.438C168.014 63.2666 167.193 62.7676 166.175 62.7676C164.384 62.7676 163.16 64.2168 163.16 66.4453C163.16 68.6738 164.391 70.123 166.202 70.123ZM166.428 63.8135C167.651 63.8135 168.472 64.8594 168.472 66.4453C168.472 68.0381 167.651 69.0771 166.428 69.0771C165.17 69.0771 164.377 68.0586 164.377 66.4453C164.377 64.8389 165.17 63.8135 166.428 63.8135ZM175.547 70V60.1357H174.316V70H175.547ZM177.276 70H178.466V65.8164C178.466 64.6133 179.197 63.8203 180.318 63.8203C181.412 63.8203 181.952 64.4492 181.952 65.5977V70H183.142V65.3857C183.142 63.7725 182.239 62.7676 180.681 62.7676C179.58 62.7676 178.821 63.2598 178.425 64.0254H178.397V62.8906H177.276V70ZM184.536 64.8525C184.536 65.8779 185.186 66.5 186.525 66.8213L187.653 67.0947C188.467 67.293 188.747 67.5869 188.747 68.0996C188.747 68.7422 188.152 69.1523 187.188 69.1523C186.225 69.1523 185.678 68.7627 185.534 67.9492H184.345C184.481 69.2822 185.521 70.123 187.188 70.123C188.774 70.123 189.943 69.248 189.943 68.0107C189.943 66.9922 189.424 66.4316 187.988 66.083L186.86 65.8096C186.067 65.6182 185.705 65.2832 185.705 64.791C185.705 64.1689 186.279 63.7383 187.147 63.7383C188.022 63.7383 188.569 64.1963 188.658 64.9414H189.793C189.745 63.6836 188.706 62.7676 187.147 62.7676C185.609 62.7676 184.536 63.6357 184.536 64.8525ZM191.563 61.1748V62.8906H190.504V63.8682H191.563V68.1543C191.563 69.5215 192.069 70.0547 193.375 70.0547C193.655 70.0547 193.983 70.0342 194.127 70V69.002C194.045 69.0156 193.771 69.0361 193.635 69.0361C193.026 69.0361 192.753 68.7422 192.753 68.0928V63.8682H194.134V62.8906H192.753V61.1748H191.563ZM197.347 70.123C198.304 70.123 199.206 69.5898 199.63 68.7764H199.657V70H200.785V65.085C200.785 63.6699 199.732 62.7676 198.064 62.7676C196.383 62.7676 195.33 63.7109 195.248 64.9414H196.396C196.547 64.2441 197.121 63.8135 198.037 63.8135C199.021 63.8135 199.596 64.333 199.596 65.2012V65.7959L197.559 65.9121C195.918 66.0078 194.981 66.7734 194.981 67.9902C194.981 69.2686 195.932 70.123 197.347 70.123ZM197.613 69.1113C196.759 69.1113 196.191 68.667 196.191 67.9902C196.191 67.3203 196.738 66.8965 197.695 66.835L199.596 66.7188V67.2998C199.596 68.3252 198.734 69.1113 197.613 69.1113ZM205.229 72.6797C207.19 72.6797 208.441 71.5518 208.441 69.8564V62.8906H207.307V64.0869H207.286C206.814 63.2598 205.98 62.7676 204.976 62.7676C203.137 62.7676 201.947 64.1895 201.947 66.418C201.947 68.626 203.137 70.0547 204.948 70.0547C205.946 70.0547 206.787 69.5488 207.225 68.7764H207.252V69.8975C207.252 70.957 206.507 71.668 205.276 71.668C204.388 71.668 203.684 71.2373 203.451 70.5879H202.228C202.426 71.7979 203.663 72.6797 205.229 72.6797ZM205.188 69.0088C203.964 69.0088 203.164 68.0107 203.164 66.418C203.164 64.8252 203.964 63.8135 205.188 63.8135C206.425 63.8135 207.252 64.8525 207.252 66.418C207.252 67.9834 206.425 69.0088 205.188 69.0088ZM209.993 70H211.183V65.5703C211.183 64.5654 211.784 63.9023 212.707 63.9023C212.994 63.9023 213.247 63.9365 213.343 63.9707V62.8154C213.247 62.8018 213.069 62.7676 212.864 62.7676C212.03 62.7676 211.374 63.2666 211.142 64.0527H211.114V62.8906H209.993V70ZM216.255 70.123C217.212 70.123 218.114 69.5898 218.538 68.7764H218.565V70H219.693V65.085C219.693 63.6699 218.641 62.7676 216.973 62.7676C215.291 62.7676 214.238 63.7109 214.156 64.9414H215.305C215.455 64.2441 216.029 63.8135 216.945 63.8135C217.93 63.8135 218.504 64.333 218.504 65.2012V65.7959L216.467 65.9121C214.826 66.0078 213.89 66.7734 213.89 67.9902C213.89 69.2686 214.84 70.123 216.255 70.123ZM216.521 69.1113C215.667 69.1113 215.1 68.667 215.1 67.9902C215.1 67.3203 215.646 66.8965 216.604 66.835L218.504 66.7188V67.2998C218.504 68.3252 217.643 69.1113 216.521 69.1113ZM221.204 70H222.394V65.543C222.394 64.5586 223.077 63.8203 224.021 63.8203C224.902 63.8203 225.477 64.3809 225.477 65.2354V70H226.666V65.4814C226.666 64.5176 227.329 63.8203 228.272 63.8203C229.209 63.8203 229.749 64.3945 229.749 65.3652V70H230.938V65.0918C230.938 63.6836 230.029 62.7676 228.621 62.7676C227.623 62.7676 226.789 63.2734 226.393 64.1211H226.365C226.058 63.2598 225.34 62.7676 224.369 62.7676C223.412 62.7676 222.688 63.2734 222.353 64.0254H222.325V62.8906H221.204V70ZM237.405 70.123C238.362 70.123 239.265 69.5898 239.688 68.7764H239.716V70H240.844V65.085C240.844 63.6699 239.791 62.7676 238.123 62.7676C236.441 62.7676 235.389 63.7109 235.307 64.9414H236.455C236.605 64.2441 237.18 63.8135 238.096 63.8135C239.08 63.8135 239.654 64.333 239.654 65.2012V65.7959L237.617 65.9121C235.977 66.0078 235.04 66.7734 235.04 67.9902C235.04 69.2686 235.99 70.123 237.405 70.123ZM237.672 69.1113C236.817 69.1113 236.25 68.667 236.25 67.9902C236.25 67.3203 236.797 66.8965 237.754 66.835L239.654 66.7188V67.2998C239.654 68.3252 238.793 69.1113 237.672 69.1113ZM248.261 65.2217C248.11 63.9434 247.051 62.7676 245.273 62.7676C243.312 62.7676 242.006 64.2031 242.006 66.4453C242.006 68.7354 243.318 70.123 245.287 70.123C246.9 70.123 248.09 69.125 248.274 67.71H247.105C246.9 68.5645 246.265 69.0771 245.294 69.0771C244.063 69.0771 243.216 68.0996 243.216 66.4453C243.216 64.832 244.05 63.8135 245.28 63.8135C246.326 63.8135 246.928 64.4492 247.099 65.2217H248.261ZM255.274 65.2217C255.124 63.9434 254.064 62.7676 252.287 62.7676C250.325 62.7676 249.02 64.2031 249.02 66.4453C249.02 68.7354 250.332 70.123 252.301 70.123C253.914 70.123 255.104 69.125 255.288 67.71H254.119C253.914 68.5645 253.278 69.0771 252.308 69.0771C251.077 69.0771 250.229 68.0996 250.229 66.4453C250.229 64.832 251.063 63.8135 252.294 63.8135C253.34 63.8135 253.941 64.4492 254.112 65.2217H255.274ZM259.328 70.123C261.29 70.123 262.616 68.708 262.616 66.4453C262.616 64.1758 261.29 62.7676 259.328 62.7676C257.359 62.7676 256.033 64.1758 256.033 66.4453C256.033 68.708 257.359 70.123 259.328 70.123ZM259.328 69.0771C258.07 69.0771 257.243 68.1201 257.243 66.4453C257.243 64.7705 258.07 63.8135 259.328 63.8135C260.586 63.8135 261.406 64.7705 261.406 66.4453C261.406 68.1201 260.586 69.0771 259.328 69.0771ZM269.657 62.8906H268.468V67.0674C268.468 68.2773 267.771 69.0703 266.615 69.0703C265.515 69.0703 264.975 68.4482 264.975 67.293V62.8906H263.785V67.5049C263.785 69.1182 264.694 70.123 266.246 70.123C267.34 70.123 268.078 69.665 268.502 68.8447H268.529V70H269.657V62.8906ZM271.202 70H272.392V65.8164C272.392 64.6133 273.123 63.8203 274.244 63.8203C275.338 63.8203 275.878 64.4492 275.878 65.5977V70H277.067V65.3857C277.067 63.7725 276.165 62.7676 274.606 62.7676C273.506 62.7676 272.747 63.2598 272.351 64.0254H272.323V62.8906H271.202V70ZM278.968 61.1748V62.8906H277.908V63.8682H278.968V68.1543C278.968 69.5215 279.474 70.0547 280.779 70.0547C281.06 70.0547 281.388 70.0342 281.531 70V69.002C281.449 69.0156 281.176 69.0361 281.039 69.0361C280.431 69.0361 280.157 68.7422 280.157 68.0928V63.8682H281.538V62.8906H280.157V61.1748H278.968ZM282.687 64.8525C282.687 65.8779 283.336 66.5 284.676 66.8213L285.804 67.0947C286.617 67.293 286.897 67.5869 286.897 68.0996C286.897 68.7422 286.303 69.1523 285.339 69.1523C284.375 69.1523 283.828 68.7627 283.685 67.9492H282.495C282.632 69.2822 283.671 70.123 285.339 70.123C286.925 70.123 288.094 69.248 288.094 68.0107C288.094 66.9922 287.574 66.4316 286.139 66.083L285.011 65.8096C284.218 65.6182 283.855 65.2832 283.855 64.791C283.855 64.1689 284.43 63.7383 285.298 63.7383C286.173 63.7383 286.72 64.1963 286.809 64.9414H287.943C287.896 63.6836 286.856 62.7676 285.298 62.7676C283.76 62.7676 282.687 63.6357 282.687 64.8525ZM290.145 71.9619L291.081 68.4824H289.816L289.153 71.9619H290.145ZM78.1553 87H79.3447V80.8682H80.7939V79.8906H79.3379V79.1045C79.3379 78.4004 79.6455 78.0586 80.2881 78.0586C80.4863 78.0586 80.6846 78.0791 80.8281 78.0996V77.1357C80.6572 77.1084 80.3701 77.0811 80.1035 77.0811C78.791 77.0811 78.1553 77.7305 78.1553 79.0977V79.8906H77.1641V80.8682H78.1553V87ZM84.6289 87.123C86.5908 87.123 87.917 85.708 87.917 83.4453C87.917 81.1758 86.5908 79.7676 84.6289 79.7676C82.6602 79.7676 81.334 81.1758 81.334 83.4453C81.334 85.708 82.6602 87.123 84.6289 87.123ZM84.6289 86.0771C83.3711 86.0771 82.5439 85.1201 82.5439 83.4453C82.5439 81.7705 83.3711 80.8135 84.6289 80.8135C85.8867 80.8135 86.707 81.7705 86.707 83.4453C86.707 85.1201 85.8867 86.0771 84.6289 86.0771ZM95.0264 82.2217C94.876 80.9434 93.8164 79.7676 92.0391 79.7676C90.0771 79.7676 88.7715 81.2031 88.7715 83.4453C88.7715 85.7354 90.084 87.123 92.0527 87.123C93.666 87.123 94.8555 86.125 95.04 84.71H93.8711C93.666 85.5645 93.0303 86.0771 92.0596 86.0771C90.8291 86.0771 89.9814 85.0996 89.9814 83.4453C89.9814 81.832 90.8154 80.8135 92.0459 80.8135C93.0918 80.8135 93.6934 81.4492 93.8643 82.2217H95.0264ZM101.972 79.8906H100.782V84.0674C100.782 85.2773 100.085 86.0703 98.9297 86.0703C97.8291 86.0703 97.2891 85.4482 97.2891 84.293V79.8906H96.0996V84.5049C96.0996 86.1182 97.0088 87.123 98.5605 87.123C99.6543 87.123 100.393 86.665 100.816 85.8447H100.844V87H101.972V79.8906ZM103.394 81.8525C103.394 82.8779 104.043 83.5 105.383 83.8213L106.511 84.0947C107.324 84.293 107.604 84.5869 107.604 85.0996C107.604 85.7422 107.01 86.1523 106.046 86.1523C105.082 86.1523 104.535 85.7627 104.392 84.9492H103.202C103.339 86.2822 104.378 87.123 106.046 87.123C107.632 87.123 108.801 86.248 108.801 85.0107C108.801 83.9922 108.281 83.4316 106.846 83.083L105.718 82.8096C104.925 82.6182 104.562 82.2832 104.562 81.791C104.562 81.1689 105.137 80.7383 106.005 80.7383C106.88 80.7383 107.427 81.1963 107.516 81.9414H108.65C108.603 80.6836 107.563 79.7676 106.005 79.7676C104.467 79.7676 103.394 80.6357 103.394 81.8525ZM110.694 78.626C111.111 78.626 111.439 78.291 111.439 77.8809C111.439 77.4639 111.111 77.1357 110.694 77.1357C110.284 77.1357 109.949 77.4639 109.949 77.8809C109.949 78.291 110.284 78.626 110.694 78.626ZM110.1 87H111.289V79.8906H110.1V87ZM112.896 87H114.085V82.8164C114.085 81.6133 114.816 80.8203 115.938 80.8203C117.031 80.8203 117.571 81.4492 117.571 82.5977V87H118.761V82.3857C118.761 80.7725 117.858 79.7676 116.3 79.7676C115.199 79.7676 114.44 80.2598 114.044 81.0254H114.017V79.8906H112.896V87ZM123.211 89.6797C125.173 89.6797 126.424 88.5518 126.424 86.8564V79.8906H125.289V81.0869H125.269C124.797 80.2598 123.963 79.7676 122.958 79.7676C121.119 79.7676 119.93 81.1895 119.93 83.418C119.93 85.626 121.119 87.0547 122.931 87.0547C123.929 87.0547 124.77 86.5488 125.207 85.7764H125.234V86.8975C125.234 87.957 124.489 88.668 123.259 88.668C122.37 88.668 121.666 88.2373 121.434 87.5879H120.21C120.408 88.7979 121.646 89.6797 123.211 89.6797ZM123.17 86.0088C121.946 86.0088 121.146 85.0107 121.146 83.418C121.146 81.8252 121.946 80.8135 123.17 80.8135C124.407 80.8135 125.234 81.8525 125.234 83.418C125.234 84.9834 124.407 86.0088 123.17 86.0088ZM133.793 87.123C135.755 87.123 137.081 85.708 137.081 83.4453C137.081 81.1758 135.755 79.7676 133.793 79.7676C131.824 79.7676 130.498 81.1758 130.498 83.4453C130.498 85.708 131.824 87.123 133.793 87.123ZM133.793 86.0771C132.535 86.0771 131.708 85.1201 131.708 83.4453C131.708 81.7705 132.535 80.8135 133.793 80.8135C135.051 80.8135 135.871 81.7705 135.871 83.4453C135.871 85.1201 135.051 86.0771 133.793 86.0771ZM138.284 87H139.474V82.8164C139.474 81.6133 140.205 80.8203 141.326 80.8203C142.42 80.8203 142.96 81.4492 142.96 82.5977V87H144.149V82.3857C144.149 80.7725 143.247 79.7676 141.688 79.7676C140.588 79.7676 139.829 80.2598 139.433 81.0254H139.405V79.8906H138.284V87ZM154.369 79.8906H153.132L151.163 85.7354H151.136L149.174 79.8906H147.923L150.541 87H151.758L154.369 79.8906ZM159.817 84.9629C159.619 85.6328 158.956 86.0908 158.054 86.0908C156.775 86.0908 155.976 85.1953 155.976 83.835V83.7666H161.075V83.3154C161.075 81.1621 159.893 79.7676 157.972 79.7676C156.01 79.7676 154.752 81.2646 154.752 83.4727C154.752 85.708 155.989 87.123 158.026 87.123C159.578 87.123 160.781 86.207 160.986 84.9629H159.817ZM157.951 80.7998C159.072 80.7998 159.817 81.6475 159.845 82.8369H155.982C156.058 81.6543 156.837 80.7998 157.951 80.7998ZM162.278 87H163.468V82.5703C163.468 81.5654 164.069 80.9023 164.992 80.9023C165.279 80.9023 165.532 80.9365 165.628 80.9707V79.8154C165.532 79.8018 165.354 79.7676 165.149 79.7676C164.315 79.7676 163.659 80.2666 163.427 81.0527H163.399V79.8906H162.278V87ZM167.255 78.626C167.672 78.626 168 78.291 168 77.8809C168 77.4639 167.672 77.1357 167.255 77.1357C166.845 77.1357 166.51 77.4639 166.51 77.8809C166.51 78.291 166.845 78.626 167.255 78.626ZM166.66 87H167.85V79.8906H166.66V87ZM169.839 87H171.028V80.8682H172.478V79.8906H171.021V79.1045C171.021 78.4004 171.329 78.0586 171.972 78.0586C172.17 78.0586 172.368 78.0791 172.512 78.0996V77.1357C172.341 77.1084 172.054 77.0811 171.787 77.0811C170.475 77.0811 169.839 77.7305 169.839 79.0977V79.8906H168.848V80.8682H169.839V87ZM174.364 78.626C174.781 78.626 175.109 78.291 175.109 77.8809C175.109 77.4639 174.781 77.1357 174.364 77.1357C173.954 77.1357 173.619 77.4639 173.619 77.8809C173.619 78.291 173.954 78.626 174.364 78.626ZM173.77 87H174.959V79.8906H173.77V87ZM181.282 84.9629C181.084 85.6328 180.421 86.0908 179.519 86.0908C178.24 86.0908 177.44 85.1953 177.44 83.835V83.7666H182.54V83.3154C182.54 81.1621 181.357 79.7676 179.437 79.7676C177.475 79.7676 176.217 81.2646 176.217 83.4727C176.217 85.708 177.454 87.123 179.491 87.123C181.043 87.123 182.246 86.207 182.451 84.9629H181.282ZM179.416 80.7998C180.537 80.7998 181.282 81.6475 181.31 82.8369H177.447C177.522 81.6543 178.302 80.7998 179.416 80.7998ZM186.437 87.123C187.462 87.123 188.275 86.6172 188.733 85.7969H188.754V87H189.889V77.1357H188.699V81.0459H188.672C188.248 80.2666 187.428 79.7676 186.409 79.7676C184.618 79.7676 183.395 81.2168 183.395 83.4453C183.395 85.6738 184.625 87.123 186.437 87.123ZM186.662 80.8135C187.886 80.8135 188.706 81.8594 188.706 83.4453C188.706 85.0381 187.886 86.0771 186.662 86.0771C185.404 86.0771 184.611 85.0586 184.611 83.4453C184.611 81.8389 185.404 80.8135 186.662 80.8135ZM197.818 79.7676C196.786 79.7676 195.959 80.2939 195.521 81.0938H195.494V79.8906H194.366V89.3721H195.556V85.8447H195.583C196.007 86.624 196.827 87.123 197.846 87.123C199.637 87.123 200.86 85.6738 200.86 83.4453C200.86 81.2168 199.63 79.7676 197.818 79.7676ZM197.586 86.0771C196.369 86.0771 195.549 85.0312 195.549 83.4453C195.549 81.8662 196.369 80.8135 197.586 80.8135C198.851 80.8135 199.644 81.8389 199.644 83.4453C199.644 85.0586 198.851 86.0771 197.586 86.0771ZM202.063 87H203.253V82.5703C203.253 81.5654 203.854 80.9023 204.777 80.9023C205.064 80.9023 205.317 80.9365 205.413 80.9707V79.8154C205.317 79.8018 205.14 79.7676 204.935 79.7676C204.101 79.7676 203.444 80.2666 203.212 81.0527H203.185V79.8906H202.063V87ZM208.988 87.123C210.95 87.123 212.276 85.708 212.276 83.4453C212.276 81.1758 210.95 79.7676 208.988 79.7676C207.02 79.7676 205.693 81.1758 205.693 83.4453C205.693 85.708 207.02 87.123 208.988 87.123ZM208.988 86.0771C207.73 86.0771 206.903 85.1201 206.903 83.4453C206.903 81.7705 207.73 80.8135 208.988 80.8135C210.246 80.8135 211.066 81.7705 211.066 83.4453C211.066 85.1201 210.246 86.0771 208.988 86.0771ZM213.862 87H215.052V80.8682H216.501V79.8906H215.045V79.1045C215.045 78.4004 215.353 78.0586 215.995 78.0586C216.193 78.0586 216.392 78.0791 216.535 78.0996V77.1357C216.364 77.1084 216.077 77.0811 215.811 77.0811C214.498 77.0811 213.862 77.7305 213.862 79.0977V79.8906H212.871V80.8682H213.862V87ZM218.388 78.626C218.805 78.626 219.133 78.291 219.133 77.8809C219.133 77.4639 218.805 77.1357 218.388 77.1357C217.978 77.1357 217.643 77.4639 217.643 77.8809C217.643 78.291 217.978 78.626 218.388 78.626ZM217.793 87H218.982V79.8906H217.793V87ZM220.65 87H221.84V77.1357H220.65V87ZM228.163 84.9629C227.965 85.6328 227.302 86.0908 226.399 86.0908C225.121 86.0908 224.321 85.1953 224.321 83.835V83.7666H229.421V83.3154C229.421 81.1621 228.238 79.7676 226.317 79.7676C224.355 79.7676 223.098 81.2646 223.098 83.4727C223.098 85.708 224.335 87.123 226.372 87.123C227.924 87.123 229.127 86.207 229.332 84.9629H228.163ZM226.297 80.7998C227.418 80.7998 228.163 81.6475 228.19 82.8369H224.328C224.403 81.6543 225.183 80.7998 226.297 80.7998ZM230.501 81.8525C230.501 82.8779 231.15 83.5 232.49 83.8213L233.618 84.0947C234.432 84.293 234.712 84.5869 234.712 85.0996C234.712 85.7422 234.117 86.1523 233.153 86.1523C232.189 86.1523 231.643 85.7627 231.499 84.9492H230.31C230.446 86.2822 231.485 87.123 233.153 87.123C234.739 87.123 235.908 86.248 235.908 85.0107C235.908 83.9922 235.389 83.4316 233.953 83.083L232.825 82.8096C232.032 82.6182 231.67 82.2832 231.67 81.791C231.67 81.1689 232.244 80.7383 233.112 80.7383C233.987 80.7383 234.534 81.1963 234.623 81.9414H235.758C235.71 80.6836 234.671 79.7676 233.112 79.7676C231.574 79.7676 230.501 80.6357 230.501 81.8525ZM238.15 87.0684C238.588 87.0684 238.93 86.7266 238.93 86.2891C238.93 85.8516 238.588 85.5098 238.15 85.5098C237.713 85.5098 237.371 85.8516 237.371 86.2891C237.371 86.7266 237.713 87.0684 238.15 87.0684Z" fill="black"/>
<defs>
<filter id="filter0_d" x="0" y="0" width="314" height="166" filterUnits="userSpaceOnUse" color-interpolation-filters="sRGB">
<feFlood flood-opacity="0" result="BackgroundImageFix"/>
<feColorMatrix in="SourceAlpha" type="matrix" values="0 0 0 0 0 0 0 0 0 0 0 0 0 0 0 0 0 0 127 0"/>
<feOffset dy="6"/>
<feGaussianBlur stdDeviation="4.5"/>
<feColorMatrix type="matrix" values="0 0 0 0 0 0 0 0 0 0 0 0 0 0 0 0 0 0 0.15 0"/>
<feBlend mode="normal" in2="BackgroundImageFix" result="effect1_dropShadow"/>
<feBlend mode="normal" in="SourceGraphic" in2="effect1_dropShadow" result="shape"/>
</filter>
</defs>
</svg>
