<svg width="404" height="231" viewBox="0 0 404 231" fill="none" xmlns="http://www.w3.org/2000/svg">
<g clip-path="url(#clip0)">
<rect width="404" height="231" fill="#1C1C1C"/>
<path d="M934.496 145.045C945.65 247.448 870.577 334.519 832.936 384.738C626.436 660.238 623.799 473.349 382.436 392.738C124.936 306.738 103.89 315.325 71.4359 176.238C43.5524 56.7383 34.9367 -277.541 161.937 -317.262C404.936 -393.262 900.641 -165.762 934.496 145.045Z" fill="#00FFCC" fill-opacity="0.08"/>
<path d="M-530.07 150.238C-536.795 263.357 -530.07 361.738 -441.733 480.411C-317.372 647.479 -153.563 724.738 -66.5635 682.738C20.4365 640.738 27.4141 530.327 115.937 433.238C146.937 399.238 335.435 174.738 470.436 68.7379C605.437 -37.2619 733.436 -242.345 393.436 -307.262C9.68845 -380.531 -507.448 -230.262 -530.07 150.238Z" fill="#FF00CC" fill-opacity="0.08"/>
<path d="M238.436 -308.762C90.9365 -312.606 73.4365 -220.261 64.4365 17.7386C60.6091 118.952 87.6783 145.111 80.9362 250.738C73.4362 368.238 -267.869 399.738 -104.234 642.91C14.9365 820.005 597.437 795.238 551.936 528.238C512.656 297.738 297.408 368.738 314.437 202.238C324.786 101.045 322.937 -66.7614 322.937 -123.261C322.937 -179.761 335.936 -306.221 238.436 -308.762Z" fill="#0099FF" fill-opacity="0.08"/>
<g opacity="0.2">
<path opacity="0.2" d="M881.455 224.029C881.455 361.091 803.678 485.225 677.835 575.113C551.994 665 378.119 720.611 186.04 720.611C-6.03958 720.611 -179.914 665 -305.756 575.113C-431.598 485.225 -509.375 361.091 -509.375 224.029C-509.375 86.9675 -431.598 -37.1661 -305.756 -127.054C-179.914 -216.941 -6.03958 -272.552 186.04 -272.552C378.119 -272.552 551.994 -216.941 677.835 -127.054C803.678 -37.1661 881.455 86.9675 881.455 224.029Z" stroke="white"/>
</g>
<g opacity="0.2">
<path opacity="0.2" d="M815.177 224.029C815.177 348.019 744.818 460.317 630.97 541.637C517.122 622.957 359.817 673.27 186.039 673.27C12.2622 673.27 -145.043 622.957 -258.891 541.637C-372.739 460.317 -443.098 348.019 -443.098 224.029C-443.098 100.04 -372.739 -12.2579 -258.891 -93.5785C-145.043 -174.898 12.2622 -225.211 186.039 -225.211C359.817 -225.211 517.122 -174.898 630.97 -93.5785C744.818 -12.2579 815.177 100.04 815.177 224.029Z" stroke="white"/>
</g>
<g opacity="0.2">
<path opacity="0.2" d="M748.9 224.029C748.9 334.946 685.96 435.409 584.105 508.162C482.251 580.915 341.515 625.929 186.04 625.929C30.565 625.929 -110.171 580.915 -212.025 508.162C-313.879 435.409 -376.819 334.946 -376.819 224.029C-376.819 113.113 -313.879 12.6503 -212.025 -60.1032C-110.171 -132.856 30.565 -177.87 186.04 -177.87C341.515 -177.87 482.251 -132.856 584.105 -60.1032C685.96 12.6503 748.9 113.113 748.9 224.029Z" stroke="white"/>
</g>
<g opacity="0.2">
<path opacity="0.2" d="M682.622 224.03C682.622 321.873 627.1 410.5 537.239 474.687C447.379 538.873 323.213 578.588 186.04 578.588C48.8668 578.588 -75.2994 538.873 -165.159 474.687C-255.02 410.5 -310.542 321.873 -310.542 224.03C-310.542 126.186 -255.02 37.5585 -165.159 -26.6279C-75.2994 -90.8137 48.8668 -130.529 186.04 -130.529C323.213 -130.529 447.379 -90.8137 537.239 -26.6279C627.1 37.5585 682.622 126.186 682.622 224.03Z" stroke="white"/>
</g>
<g opacity="0.2">
<path opacity="0.2" d="M616.344 224.029C616.344 308.8 568.241 385.592 490.374 441.212C412.508 496.83 304.911 531.247 186.04 531.247C67.1686 531.247 -40.4282 496.83 -118.294 441.212C-196.161 385.592 -244.265 308.8 -244.265 224.029C-244.265 139.259 -196.161 62.4666 -118.294 6.84722C-40.4282 -48.7715 67.1686 -83.188 186.04 -83.188C304.911 -83.188 412.508 -48.7715 490.374 6.84722C568.241 62.4666 616.344 139.259 616.344 224.029Z" stroke="white"/>
</g>
<g opacity="0.2">
<path opacity="0.2" d="M550.066 224.029C550.066 295.727 509.381 360.684 443.508 407.736C377.636 454.788 286.609 483.906 186.039 483.906C85.4704 483.906 -5.55696 454.788 -71.4293 407.736C-137.303 360.684 -177.987 295.727 -177.987 224.029C-177.987 152.332 -137.303 87.3748 -71.4293 40.3225C-5.55696 -6.72913 85.4704 -35.8468 186.039 -35.8468C286.609 -35.8468 377.636 -6.72913 443.508 40.3225C509.381 87.3748 550.066 152.332 550.066 224.029Z" stroke="white"/>
<path d="M373.93 2.48686C376.001 -1.10106 374.773 -5.68805 371.185 -7.75912C370.047 -8.41545 368.753 -8.76184 367.436 -8.76184V-1.26149L373.93 2.48686Z" fill="#00FFCC"/>
<path d="M367.437 -8.76184C363.295 -8.76184 359.936 -5.40364 359.936 -1.26149C359.936 2.88065 363.295 6.23885 367.437 6.23885C370.117 6.23885 372.592 4.80952 373.931 2.4905L367.437 -1.25785V-8.76184Z" fill="#FF00CC"/>
</g>
<g opacity="0.2">
<path opacity="0.2" d="M483.789 224.029C483.789 282.654 450.523 335.776 396.644 374.261C342.765 412.746 268.307 436.565 186.04 436.565C103.773 436.565 29.3152 412.746 -24.5632 374.261C-78.4426 335.776 -111.709 282.654 -111.709 224.029C-111.709 165.405 -78.4426 112.283 -24.5632 73.7977C29.3152 35.3131 103.773 11.4943 186.04 11.4943C268.307 11.4943 342.765 35.3131 396.644 73.7977C450.523 112.283 483.789 165.405 483.789 224.029Z" stroke="white"/>
<path d="M6.93652 60.2382C9.69795 60.2382 11.9365 57.9996 11.9365 55.2382C11.9365 52.4767 9.69795 50.2382 6.93652 50.2382C4.1751 50.2382 1.93652 52.4767 1.93652 55.2382C1.93652 57.9996 4.1751 60.2382 6.93652 60.2382Z" fill="#FF00CC"/>
<g filter="url(#filter0_d)">
<rect x="-36.0635" y="32.2382" width="86" height="18" fill="#1C1C1C" fill-opacity="0.75"/>
<path d="M-32.6714 46.7382V36.5882H-26.2697V38.3354H-30.2789V41.5762H-26.9729V43.3234H-30.2789V46.7382H-32.6714ZM-16.8779 46.7382H-19.2994L-19.7344 44.5632H-22.4169L-22.8519 46.7382H-25.2734L-22.9534 36.5882H-19.1979L-16.8779 46.7382ZM-21.1554 38.3354L-22.0761 42.8159H-20.0751L-20.9959 38.3354H-21.1554ZM-15.7267 46.7382V36.5882H-13.3342V40.6699H-12.8629L-10.3834 36.5882H-7.79519L-11.2462 41.9459V41.1049L-7.67919 46.7382H-10.2819L-12.8557 42.3954H-13.3342V46.7382H-15.7267ZM-6.16553 46.7382V36.5882H0.73647V38.3354H-3.77303V40.8874H0.22897V42.6129H-3.77303V44.9909H0.73647V46.7382H-6.16553ZM9.28263 46.7382V36.5882H12.8279L15.3581 44.7662H14.9014V36.5882H17.2939V46.7382H14.2779L11.5809 38.5892H11.6751V46.7382H9.28263ZM19.0758 46.7382V36.5882H25.9778V38.3354H21.4683V40.8874H25.4703V42.6129H21.4683V44.9909H25.9778V46.7382H19.0758ZM34.2702 46.7382L32.9942 39.7419L32.726 36.6027H34.031L35.7855 45.2954L35.4012 46.7382H34.2702ZM28.753 46.7382L27.1797 36.5882H29.7027L30.5002 45.2157L30.7177 46.7382H28.753ZM30.5437 46.7382L30.2247 45.2954L32.001 36.6027H33.3205L33.1102 39.7419L31.7617 46.7382H30.5437ZM35.2272 46.7382L35.51 45.2157L36.3437 36.5882H38.8667L37.279 46.7382H35.2272ZM43.5518 46.8977C42.8848 46.8977 42.2685 46.7962 41.703 46.5932C41.1424 46.3902 40.6663 46.105 40.2748 45.7377C39.8881 45.3703 39.6295 44.9426 39.499 44.4544L41.7755 43.5047C41.8529 43.7705 41.9785 44.0242 42.1525 44.2659C42.3265 44.5027 42.5465 44.7009 42.8123 44.8604C43.0781 45.0151 43.3826 45.0924 43.7258 45.0924C44.0255 45.0924 44.2768 45.0537 44.4798 44.9764C44.6876 44.8942 44.8447 44.7734 44.951 44.6139C45.0622 44.4544 45.1178 44.2562 45.1178 44.0194C45.1178 43.8454 45.0622 43.6859 44.951 43.5409C44.8399 43.3959 44.6852 43.263 44.487 43.1422C44.2937 43.0165 44.0665 42.9029 43.8055 42.8014C43.5494 42.6951 43.2715 42.5936 42.9718 42.4969C42.5271 42.3567 42.1115 42.1997 41.7248 42.0257C41.3381 41.8517 40.9974 41.6438 40.7025 41.4022C40.4125 41.1557 40.1854 40.8632 40.021 40.5249C39.8567 40.1817 39.7745 39.7757 39.7745 39.3069C39.7745 38.9154 39.847 38.5698 39.992 38.2702C40.1419 37.9657 40.3449 37.7022 40.601 37.4799C40.862 37.2576 41.1593 37.0739 41.4928 36.9289C41.8263 36.7839 42.1791 36.6776 42.5513 36.6099C42.9235 36.5374 43.298 36.5012 43.675 36.5012C44.3082 36.5012 44.8882 36.5954 45.415 36.7839C45.9419 36.9724 46.3817 37.2262 46.7345 37.5452C47.0922 37.8642 47.3315 38.2242 47.4523 38.6254L45.2048 39.5897C45.1275 39.3383 45.0139 39.116 44.864 38.9227C44.7142 38.7293 44.5305 38.5795 44.313 38.4732C44.1004 38.362 43.8563 38.3064 43.5808 38.3064C43.3971 38.3064 43.2255 38.3257 43.066 38.3644C42.9114 38.4031 42.7736 38.4611 42.6528 38.5384C42.532 38.6157 42.4377 38.7124 42.37 38.8284C42.3072 38.9444 42.2758 39.0797 42.2758 39.2344C42.2758 39.4422 42.341 39.6283 42.4715 39.7927C42.6069 39.9522 42.8026 40.0972 43.0588 40.2277C43.315 40.3533 43.6219 40.4742 43.9795 40.5902C44.2889 40.6868 44.6103 40.798 44.9438 40.9237C45.2821 41.0493 45.6084 41.1967 45.9225 41.3659C46.2415 41.5351 46.5267 41.7357 46.778 41.9677C47.0342 42.1997 47.2372 42.4703 47.387 42.7797C47.5369 43.0842 47.6118 43.4394 47.6118 43.8454C47.6118 44.2997 47.5345 44.6985 47.3798 45.0417C47.2251 45.38 47.0125 45.6676 46.7418 45.9044C46.476 46.1364 46.169 46.3273 45.821 46.4772C45.473 46.6222 45.1033 46.7285 44.7118 46.7962C44.3251 46.8638 43.9385 46.8977 43.5518 46.8977Z" fill="white"/>
<rect x="-36.1385" y="32.1632" width="86.15" height="18.15" stroke="white" stroke-width="0.15"/>
</g>
<path d="M102.47 7.23816C106.273 7.24657 109.864 8.99 112.23 11.9695L102.438 19.7362L102.47 7.23816Z" fill="#00FFCC"/>
<path d="M114.617 22.5481C113.064 29.2732 106.352 33.4678 99.6266 31.9152C92.9015 30.3626 88.7069 23.6498 90.2595 16.9248C91.5714 11.2424 96.6391 7.22329 102.47 7.23845L102.438 19.7365L114.617 22.5481Z" fill="#FF00CC"/>
<path d="M112.23 11.9659C114.596 14.9493 115.473 18.8426 114.617 22.5482L102.438 19.7365L112.23 11.9659Z" fill="#0099FF"/>
<g filter="url(#filter1_d)">
<rect x="66.9365" y="-8.76184" width="71" height="18" fill="#1C1C1C" fill-opacity="0.75"/>
<path d="M72.3639 5.73816V-2.66459H69.6886V-4.41184H77.4461V-2.66459H74.7564V5.73816H72.3639ZM85.405 5.73816L84.129 -1.25809L83.8608 -4.39734H85.1658L86.9203 4.29541L86.536 5.73816H85.405ZM79.8878 5.73816L78.3145 -4.41184H80.8375L81.635 4.21566L81.8525 5.73816H79.8878ZM81.6785 5.73816L81.3595 4.29541L83.1358 -4.39734H84.4553L84.245 -1.25809L82.8965 5.73816H81.6785ZM86.362 5.73816L86.6448 4.21566L87.4785 -4.41184H90.0015L88.4138 5.73816H86.362ZM91.5111 5.73816V3.99091H93.5339V-2.66459H91.5111V-4.41184H97.9636V-2.66459H95.9264V3.99091H97.9636V5.73816H91.5111ZM102.675 5.73816V-2.66459H99.9993V-4.41184H107.757V-2.66459H105.067V5.73816H102.675ZM111.815 5.73816V-2.66459H109.14V-4.41184H116.897V-2.66459H114.208V5.73816H111.815ZM118.803 5.73816V-4.41184H125.705V-2.66459H121.195V-0.112591H125.197V1.61291H121.195V3.99091H125.705V5.73816H118.803ZM127.675 5.73816V-4.41184H131.771C132.047 -4.41184 132.342 -4.38526 132.656 -4.33209C132.975 -4.27892 133.284 -4.18951 133.584 -4.06384C133.883 -3.93817 134.154 -3.76176 134.396 -3.53459C134.642 -3.31226 134.838 -3.02951 134.983 -2.68634C135.133 -2.34317 135.208 -1.92751 135.208 -1.43934C135.208 -0.902841 135.126 -0.450925 134.961 -0.0835911C134.797 0.278909 134.582 0.573742 134.316 0.800909C134.055 1.02808 133.765 1.20208 133.446 1.32291C133.132 1.44374 132.818 1.52591 132.504 1.56941C132.189 1.60808 131.909 1.62741 131.663 1.62741H130.068V5.73816H127.675ZM132.844 5.73816L131.09 1.00391L133.432 0.757409L135.382 5.73816H132.844ZM130.068 -0.0400912H131.264C131.573 -0.0400912 131.844 -0.0835912 132.076 -0.170591C132.308 -0.257591 132.489 -0.397758 132.62 -0.591091C132.755 -0.784424 132.823 -1.04301 132.823 -1.36684C132.823 -1.71001 132.755 -1.97342 132.62 -2.15709C132.489 -2.34559 132.305 -2.47609 132.069 -2.54859C131.832 -2.62592 131.559 -2.66459 131.249 -2.66459H130.068V-0.0400912Z" fill="white"/>
<rect x="66.8615" y="-8.83684" width="71.15" height="18.15" stroke="white" stroke-width="0.15"/>
</g>
<path d="M237.946 15.2456L248.401 11.8597C249.124 14.0505 249.128 16.4429 248.411 18.6445C246.529 24.4238 240.324 27.5817 234.54 25.7034C228.757 23.8251 225.599 17.6261 227.48 11.8468L237.946 15.2456Z" fill="#0099FF"/>
<path d="M237.946 15.2455L237.919 4.23828C242.668 4.2157 246.917 7.33439 248.401 11.8595L237.946 15.2455Z" fill="#00FFCC"/>
<path d="M237.945 15.2458L227.48 11.847C228.952 7.3258 233.17 4.26122 237.919 4.23865L237.945 15.2458Z" fill="#FF00CC"/>
<g filter="url(#filter2_d)">
<rect x="209.937" y="-13.7618" width="56" height="18" fill="#1C1C1C" fill-opacity="0.75"/>
<path d="M216.151 0.897659C215.711 0.897659 215.281 0.837243 214.86 0.716409C214.44 0.595576 214.046 0.407076 213.678 0.150909C213.316 -0.110091 212.994 -0.443591 212.714 -0.849591C212.434 -1.26042 212.214 -1.75101 212.054 -2.32134C211.9 -2.89651 211.822 -3.55867 211.822 -4.30784C211.822 -5.05217 211.9 -5.70951 212.054 -6.27984C212.214 -6.85501 212.434 -7.34559 212.714 -7.75159C212.994 -8.15759 213.316 -8.48867 213.678 -8.74484C214.046 -9.00584 214.44 -9.19676 214.86 -9.31759C215.281 -9.43842 215.711 -9.49884 216.151 -9.49884C216.581 -9.49884 217.004 -9.43842 217.419 -9.31759C217.84 -9.19676 218.234 -9.00584 218.601 -8.74484C218.968 -8.48867 219.29 -8.15759 219.565 -7.75159C219.846 -7.34559 220.063 -6.85501 220.218 -6.27984C220.377 -5.70951 220.457 -5.05217 220.457 -4.30784C220.457 -3.55867 220.377 -2.89651 220.218 -2.32134C220.063 -1.75101 219.846 -1.26042 219.565 -0.849591C219.29 -0.443591 218.968 -0.110091 218.601 0.150909C218.234 0.407076 217.84 0.595576 217.419 0.716409C217.004 0.837243 216.581 0.897659 216.151 0.897659ZM216.151 -0.871341C216.397 -0.871341 216.634 -0.934174 216.861 -1.05984C217.088 -1.19034 217.289 -1.39092 217.463 -1.66159C217.642 -1.93709 217.782 -2.29234 217.883 -2.72734C217.985 -3.16717 218.036 -3.69401 218.036 -4.30784C218.036 -4.91684 217.985 -5.43884 217.883 -5.87384C217.782 -6.30884 217.642 -6.66167 217.463 -6.93234C217.289 -7.20784 217.088 -7.40842 216.861 -7.53409C216.634 -7.66459 216.397 -7.72984 216.151 -7.72984C215.899 -7.72984 215.658 -7.66459 215.426 -7.53409C215.198 -7.40842 214.995 -7.20784 214.817 -6.93234C214.643 -6.66167 214.502 -6.30884 214.396 -5.87384C214.295 -5.43884 214.244 -4.91684 214.244 -4.30784C214.244 -3.69401 214.295 -3.16717 214.396 -2.72734C214.502 -2.29234 214.643 -1.93709 214.817 -1.66159C214.995 -1.39092 215.198 -1.19034 215.426 -1.05984C215.658 -0.934174 215.899 -0.871341 216.151 -0.871341ZM221.304 0.738159V-9.41184H224.849L227.379 -1.23384H226.923V-9.41184H229.315V0.738159H226.299L223.602 -7.41084H223.696V0.738159H221.304ZM230.589 0.738159V-9.41184H232.996V-1.00909H236.491V0.738159H230.589ZM238.187 0.738159V-1.00909H240.21V-7.66459H238.187V-9.41184H244.64V-7.66459H242.603V-1.00909H244.64V0.738159H238.187ZM246.545 0.738159V-9.41184H250.09L252.621 -1.23384H252.164V-9.41184H254.556V0.738159H251.54L248.843 -7.41084H248.938V0.738159H246.545ZM256.338 0.738159V-9.41184H263.24V-7.66459H258.731V-5.11259H262.733V-3.38709H258.731V-1.00909H263.24V0.738159H256.338Z" fill="white"/>
<rect x="209.862" y="-13.8368" width="56.15" height="18.15" stroke="white" stroke-width="0.15"/>
</g>
<path d="M170.913 -15.0975C184.166 -15.1087 194.922 -4.37692 194.937 8.87942C194.938 11.1019 194.636 13.3109 194.026 15.4477L170.933 8.90348L170.913 -15.0975Z" fill="#00FFCC"/>
<path d="M190.104 23.3448C182.128 33.9302 167.08 36.0451 156.495 28.0685C145.91 20.0919 143.792 5.0485 151.772 -5.54082C156.3 -11.5499 163.387 -15.0906 170.915 -15.0951L170.942 8.90494L190.104 23.3448Z" fill="#FF00CC"/>
<path d="M194.025 15.4476C193.219 18.3016 191.887 20.9808 190.106 23.3453L170.939 8.90247L194.025 15.4476Z" fill="#0099FF"/>
<path d="M295.938 27.2298L295.701 16.242C298.007 16.1801 300.3 16.864 302.202 18.1836C307.196 21.6475 308.437 28.4986 304.975 33.4978C301.513 38.4971 294.668 39.7399 289.674 36.276L295.938 27.2298Z" fill="#00FFCC"/>
<path d="M295.938 27.2299L285.388 24.0909C286.731 19.5356 290.94 16.3632 295.701 16.2421L295.938 27.2299Z" fill="#FF00CC"/>
<path d="M295.938 27.2299L289.674 36.2762C285.767 33.5663 284.044 28.6462 285.388 24.0909L295.938 27.2299Z" fill="#0099FF"/>
<g filter="url(#filter3_d)">
<rect x="265.937" y="-1.76184" width="59" height="18" fill="#1C1C1C" fill-opacity="0.75"/>
<path d="M271.379 12.7382V4.33541H268.703V2.58816H276.461V4.33541H273.771V12.7382H271.379ZM278.496 12.7382V10.9909H280.519V4.33541H278.496V2.58816H284.949V4.33541H282.912V10.9909H284.949V12.7382H278.496ZM287.086 12.7382V2.58816H289.479V6.66991H289.95L292.429 2.58816H295.018L291.567 7.94591V7.10491L295.134 12.7382H292.531L289.957 8.39541H289.479V12.7382H287.086ZM298.801 12.7382V4.33541H296.125V2.58816H303.883V4.33541H301.193V12.7382H298.801ZM309.123 12.8977C308.683 12.8977 308.253 12.8372 307.832 12.7164C307.412 12.5956 307.018 12.4071 306.651 12.1509C306.288 11.8899 305.967 11.5564 305.686 11.1504C305.406 10.7396 305.186 10.249 305.027 9.67866C304.872 9.10349 304.795 8.44133 304.795 7.69216C304.795 6.94783 304.872 6.29049 305.027 5.72016C305.186 5.14499 305.406 4.65441 305.686 4.24841C305.967 3.84241 306.288 3.51133 306.651 3.25516C307.018 2.99416 307.412 2.80324 307.832 2.68241C308.253 2.56158 308.683 2.50116 309.123 2.50116C309.553 2.50116 309.976 2.56158 310.392 2.68241C310.812 2.80324 311.206 2.99416 311.573 3.25516C311.941 3.51133 312.262 3.84241 312.538 4.24841C312.818 4.65441 313.036 5.14499 313.19 5.72016C313.35 6.29049 313.429 6.94783 313.429 7.69216C313.429 8.44133 313.35 9.10349 313.19 9.67866C313.036 10.249 312.818 10.7396 312.538 11.1504C312.262 11.5564 311.941 11.8899 311.573 12.1509C311.206 12.4071 310.812 12.5956 310.392 12.7164C309.976 12.8372 309.553 12.8977 309.123 12.8977ZM309.123 11.1287C309.369 11.1287 309.606 11.0658 309.833 10.9402C310.061 10.8097 310.261 10.6091 310.435 10.3384C310.614 10.0629 310.754 9.70766 310.856 9.27266C310.957 8.83283 311.008 8.30599 311.008 7.69216C311.008 7.08316 310.957 6.56116 310.856 6.12616C310.754 5.69116 310.614 5.33833 310.435 5.06766C310.261 4.79216 310.061 4.59158 309.833 4.46591C309.606 4.33541 309.369 4.27016 309.123 4.27016C308.872 4.27016 308.63 4.33541 308.398 4.46591C308.171 4.59158 307.968 4.79216 307.789 5.06766C307.615 5.33833 307.475 5.69116 307.368 6.12616C307.267 6.56116 307.216 7.08316 307.216 7.69216C307.216 8.30599 307.267 8.83283 307.368 9.27266C307.475 9.70766 307.615 10.0629 307.789 10.3384C307.968 10.6091 308.171 10.8097 308.398 10.9402C308.63 11.0658 308.872 11.1287 309.123 11.1287ZM314.508 12.7382V2.58816H316.901V6.66991H317.372L319.851 2.58816H322.44L318.989 7.94591V7.10491L322.556 12.7382H319.953L317.379 8.39541H316.901V12.7382H314.508Z" fill="white"/>
<rect x="265.862" y="-1.83684" width="59.15" height="18.15" stroke="white" stroke-width="0.15"/>
</g>
</g>
<g opacity="0.2">
<path opacity="0.2" d="M417.512 224.029C417.512 269.581 391.663 310.868 349.778 340.786C307.893 370.703 250.005 389.223 186.04 389.223C122.075 389.223 64.1864 370.703 22.3019 340.786C-19.5836 310.868 -45.4316 269.581 -45.4316 224.029C-45.4316 178.478 -19.5836 137.191 22.3019 107.273C64.1864 77.3554 122.075 58.8354 186.04 58.8354C250.005 58.8354 307.893 77.3554 349.778 107.273C391.663 137.191 417.512 178.478 417.512 224.029Z" stroke="white"/>
<path d="M16.9365 118.238C21.9071 118.238 25.9365 114.209 25.9365 109.238C25.9365 104.268 21.9071 100.238 16.9365 100.238C11.966 100.238 7.93652 104.268 7.93652 109.238C7.93652 114.209 11.966 118.238 16.9365 118.238Z" fill="#FF00CC"/>
<g filter="url(#filter4_d)">
<rect x="-11.0635" y="82.2382" width="56" height="18" fill="#1C1C1C" fill-opacity="0.75"/>
<path d="M-8.32939 96.7382V86.5882H-4.77689C-4.49655 86.5882 -4.18964 86.6172 -3.85614 86.6752C-3.5178 86.7332 -3.18189 86.8371 -2.84839 86.9869C-2.51489 87.1368 -2.21039 87.3446 -1.93489 87.6104C-1.65455 87.8763 -1.4298 88.217 -1.26064 88.6327C-1.09147 89.0435 -1.00689 89.5438 -1.00689 90.1334C-1.00689 90.7231 -1.09147 91.2282 -1.26064 91.6487C-1.4298 92.0644 -1.65455 92.4075 -1.93489 92.6782C-2.21039 92.944 -2.51489 93.1543 -2.84839 93.3089C-3.18189 93.4636 -3.5178 93.5724 -3.85614 93.6352C-4.18964 93.6932 -4.49655 93.7222 -4.77689 93.7222H-5.92964V96.7382H-8.32939ZM-5.92964 91.9749H-4.99439C-4.79139 91.9749 -4.59805 91.9435 -4.41439 91.8807C-4.22589 91.813 -4.05914 91.7091 -3.91414 91.5689C-3.76914 91.4239 -3.65555 91.233 -3.57339 90.9962C-3.48639 90.7594 -3.44289 90.4742 -3.44289 90.1407C-3.44289 89.8024 -3.48639 89.5196 -3.57339 89.2924C-3.65555 89.0604 -3.76914 88.8744 -3.91414 88.7342C-4.05914 88.5892 -4.22589 88.4877 -4.41439 88.4297C-4.59805 88.3669 -4.79139 88.3354 -4.99439 88.3354H-5.92964V91.9749ZM4.29128 96.8977C3.85144 96.8977 3.42128 96.8373 3.00078 96.7164C2.58028 96.5956 2.18636 96.4071 1.81903 96.1509C1.45653 95.8899 1.13511 95.5564 0.854778 95.1504C0.574444 94.7396 0.354528 94.249 0.195028 93.6787C0.0403611 93.1035 -0.0369722 92.4414 -0.0369722 91.6922C-0.0369722 90.9479 0.0403611 90.2905 0.195028 89.7202C0.354528 89.145 0.574444 88.6544 0.854778 88.2484C1.13511 87.8424 1.45653 87.5114 1.81903 87.2552C2.18636 86.9942 2.58028 86.8033 3.00078 86.6824C3.42128 86.5616 3.85144 86.5012 4.29128 86.5012C4.72144 86.5012 5.14436 86.5616 5.56003 86.6824C5.98053 86.8033 6.37444 86.9942 6.74178 87.2552C7.10911 87.5114 7.43053 87.8424 7.70603 88.2484C7.98636 88.6544 8.20386 89.145 8.35853 89.7202C8.51803 90.2905 8.59778 90.9479 8.59778 91.6922C8.59778 92.4414 8.51803 93.1035 8.35853 93.6787C8.20386 94.249 7.98636 94.7396 7.70603 95.1504C7.43053 95.5564 7.10911 95.8899 6.74178 96.1509C6.37444 96.4071 5.98053 96.5956 5.56003 96.7164C5.14436 96.8373 4.72144 96.8977 4.29128 96.8977ZM4.29128 95.1287C4.53778 95.1287 4.77461 95.0659 5.00178 94.9402C5.22894 94.8097 5.42953 94.6091 5.60353 94.3384C5.78236 94.0629 5.92253 93.7077 6.02403 93.2727C6.12553 92.8329 6.17628 92.306 6.17628 91.6922C6.17628 91.0832 6.12553 90.5612 6.02403 90.1262C5.92253 89.6912 5.78236 89.3384 5.60353 89.0677C5.42953 88.7922 5.22894 88.5916 5.00178 88.4659C4.77461 88.3354 4.53778 88.2702 4.29128 88.2702C4.03994 88.2702 3.79828 88.3354 3.56628 88.4659C3.33911 88.5916 3.13611 88.7922 2.95728 89.0677C2.78328 89.3384 2.64311 89.6912 2.53678 90.1262C2.43528 90.5612 2.38453 91.0832 2.38453 91.6922C2.38453 92.306 2.43528 92.8329 2.53678 93.2727C2.64311 93.7077 2.78328 94.0629 2.95728 94.3384C3.13611 94.6091 3.33911 94.8097 3.56628 94.9402C3.79828 95.0659 4.03994 95.1287 4.29128 95.1287ZM9.58944 96.7382V86.5882H11.9964V94.9909H15.4909V96.7382H9.58944ZM17.1874 96.7382V94.9909H19.2102V88.3354H17.1874V86.5882H23.6399V88.3354H21.6027V94.9909H23.6399V96.7382H17.1874ZM29.8589 96.8977C29.448 96.8977 29.0324 96.8445 28.6119 96.7382C28.1914 96.6367 27.7902 96.4675 27.4084 96.2307C27.0314 95.989 26.693 95.6676 26.3934 95.2664C26.0985 94.8653 25.8641 94.3723 25.6901 93.7874C25.5209 93.1978 25.4364 92.4994 25.4364 91.6922C25.4364 90.885 25.5209 90.189 25.6901 89.6042C25.8641 89.0145 26.0985 88.5215 26.3934 88.1252C26.693 87.724 27.0338 87.405 27.4156 87.1682C27.7974 86.9314 28.1986 86.7622 28.6191 86.6607C29.0396 86.5544 29.4553 86.5012 29.8661 86.5012C30.3059 86.5012 30.7168 86.5592 31.0986 86.6752C31.4853 86.7912 31.8381 86.9604 32.1571 87.1827C32.4761 87.405 32.7564 87.6781 32.9981 88.0019C33.2398 88.3209 33.4379 88.6883 33.5926 89.1039L31.5119 90.1479C31.4539 89.9546 31.3814 89.7516 31.2944 89.5389C31.2074 89.3214 31.0986 89.116 30.9681 88.9227C30.8424 88.7294 30.6878 88.5723 30.5041 88.4514C30.3253 88.3306 30.1126 88.2702 29.8661 88.2702C29.6099 88.2702 29.361 88.333 29.1194 88.4587C28.8825 88.5844 28.6699 88.7849 28.4814 89.0604C28.2929 89.3311 28.143 89.6839 28.0319 90.1189C27.9255 90.5491 27.8724 91.0735 27.8724 91.6922C27.8724 92.3109 27.9255 92.8401 28.0319 93.2799C28.143 93.7149 28.2929 94.0702 28.4814 94.3457C28.6699 94.6164 28.8825 94.8145 29.1194 94.9402C29.3562 95.0659 29.6027 95.1287 29.8589 95.1287C30.1054 95.1287 30.318 95.0683 30.4969 94.9474C30.6805 94.8218 30.8376 94.6647 30.9681 94.4762C31.0986 94.2829 31.2074 94.0799 31.2944 93.8672C31.3814 93.6545 31.4539 93.4539 31.5119 93.2654L33.5926 94.3022C33.4379 94.713 33.2398 95.0804 32.9981 95.4042C32.7564 95.7232 32.4761 95.9939 32.1571 96.2162C31.8381 96.4385 31.4853 96.6077 31.0986 96.7237C30.7168 96.8397 30.3035 96.8977 29.8589 96.8977ZM35.3383 96.7382V86.5882H42.2403V88.3354H37.7308V90.8874H41.7328V92.6129H37.7308V94.9909H42.2403V96.7382H35.3383Z" fill="white"/>
<rect x="-11.1385" y="82.1632" width="56.15" height="18.15" stroke="white" stroke-width="0.15"/>
</g>
<g filter="url(#filter5_d)">
<rect x="-73.0635" y="128.238" width="98" height="18" fill="#1C1C1C" fill-opacity="0.75"/>
<path d="M-70.4281 142.738V132.588H-67.1874C-66.8345 132.588 -66.4769 132.615 -66.1144 132.668C-65.7519 132.716 -65.4015 132.806 -65.0631 132.936C-64.72 133.062 -64.401 133.246 -64.1061 133.487C-63.8113 133.724 -63.5527 134.029 -63.3304 134.401C-63.1032 134.773 -62.9268 135.227 -62.8011 135.764C-62.6755 136.3 -62.6126 136.933 -62.6126 137.663C-62.6126 138.388 -62.6755 139.021 -62.8011 139.563C-62.9268 140.099 -63.1032 140.554 -63.3304 140.926C-63.5527 141.298 -63.8113 141.605 -64.1061 141.846C-64.401 142.083 -64.72 142.267 -65.0631 142.397C-65.4015 142.523 -65.7519 142.613 -66.1144 142.666C-66.4769 142.714 -66.8345 142.738 -67.1874 142.738H-70.4281ZM-68.0356 140.991H-67.3759C-67.0085 140.991 -66.6823 140.933 -66.3971 140.817C-66.1071 140.701 -65.8655 140.515 -65.6721 140.259C-65.474 139.998 -65.3241 139.655 -65.2226 139.229C-65.1211 138.804 -65.0704 138.282 -65.0704 137.663C-65.0704 137.045 -65.1211 136.523 -65.2226 136.097C-65.3241 135.672 -65.474 135.331 -65.6721 135.075C-65.8655 134.814 -66.1071 134.625 -66.3971 134.509C-66.6823 134.393 -67.0085 134.335 -67.3759 134.335H-68.0356V140.991ZM-60.8597 142.738V132.588H-53.9577V134.335H-58.4672V136.887H-54.4652V138.613H-58.4672V140.991H-53.9577V142.738H-60.8597ZM-51.8641 142.738V132.588H-48.3116C-48.0312 132.588 -47.7243 132.617 -47.3908 132.675C-47.0525 132.733 -46.7166 132.837 -46.3831 132.987C-46.0496 133.137 -45.7451 133.345 -45.4696 133.61C-45.1892 133.876 -44.9645 134.217 -44.7953 134.633C-44.6261 135.044 -44.5416 135.544 -44.5416 136.133C-44.5416 136.723 -44.6261 137.228 -44.7953 137.649C-44.9645 138.064 -45.1892 138.408 -45.4696 138.678C-45.7451 138.944 -46.0496 139.154 -46.3831 139.309C-46.7166 139.464 -47.0525 139.572 -47.3908 139.635C-47.7243 139.693 -48.0312 139.722 -48.3116 139.722H-49.4643V142.738H-51.8641ZM-49.4643 137.975H-48.5291C-48.3261 137.975 -48.1327 137.944 -47.9491 137.881C-47.7606 137.813 -47.5938 137.709 -47.4488 137.569C-47.3038 137.424 -47.1902 137.233 -47.1081 136.996C-47.0211 136.759 -46.9776 136.474 -46.9776 136.141C-46.9776 135.802 -47.0211 135.52 -47.1081 135.292C-47.1902 135.06 -47.3038 134.874 -47.4488 134.734C-47.5938 134.589 -47.7606 134.488 -47.9491 134.43C-48.1327 134.367 -48.3261 134.335 -48.5291 134.335H-49.4643V137.975ZM-35.0094 142.738H-37.4309L-37.8659 140.563H-40.5484L-40.9834 142.738H-43.4049L-41.0849 132.588H-37.3294L-35.0094 142.738ZM-39.2869 134.335L-40.2076 138.816H-38.2066L-39.1274 134.335H-39.2869ZM-33.706 142.738V132.588H-29.6097C-29.3342 132.588 -29.0394 132.615 -28.7252 132.668C-28.4062 132.721 -28.0969 132.811 -27.7972 132.936C-27.4976 133.062 -27.2269 133.238 -26.9852 133.465C-26.7387 133.688 -26.543 133.971 -26.398 134.314C-26.2481 134.657 -26.1732 135.073 -26.1732 135.561C-26.1732 136.097 -26.2554 136.549 -26.4197 136.916C-26.5841 137.279 -26.7991 137.574 -27.065 137.801C-27.326 138.028 -27.616 138.202 -27.935 138.323C-28.2491 138.444 -28.5633 138.526 -28.8775 138.569C-29.1916 138.608 -29.472 138.627 -29.7185 138.627H-31.3135V142.738H-33.706ZM-28.5367 142.738L-30.2912 138.004L-27.9495 137.757L-25.9992 142.738H-28.5367ZM-31.3135 136.96H-30.1172C-29.8079 136.96 -29.5372 136.916 -29.3052 136.829C-29.0732 136.742 -28.892 136.602 -28.7615 136.409C-28.6261 136.216 -28.5585 135.957 -28.5585 135.633C-28.5585 135.29 -28.6261 135.027 -28.7615 134.843C-28.892 134.654 -29.0756 134.524 -29.3125 134.451C-29.5493 134.374 -29.8224 134.335 -30.1317 134.335H-31.3135V136.96ZM-22.1438 142.738V134.335H-24.8191V132.588H-17.0616V134.335H-19.7513V142.738H-22.1438ZM-10.7629 141.39L-10.2191 138.345L-8.68215 132.588H-7.3989L-7.3699 134.575L-9.36365 141.39H-10.7629ZM-15.9176 142.738L-15.1201 132.588H-12.9161L-13.4671 142.738H-15.9176ZM-11.3429 141.39L-13.3439 134.575L-13.3149 132.588H-12.0316L-10.4511 138.345L-9.97265 141.39H-11.3429ZM-7.24665 142.738L-7.79765 132.588H-5.59365L-4.8034 142.738H-7.24665ZM-3.12706 142.738V132.588H3.77494V134.335H-0.734561V136.887H3.26744V138.613H-0.734561V140.991H3.77494V142.738H-3.12706ZM5.3611 142.738V132.588H8.90635L11.4366 140.766H10.9799V132.588H13.3724V142.738H10.3564L7.65935 134.589H7.7536V142.738H5.3611ZM17.3075 142.738V134.335H14.6323V132.588H22.3898V134.335H19.7V142.738H17.3075Z" fill="white"/>
<rect x="-73.1385" y="128.163" width="98.15" height="18.15" stroke="white" stroke-width="0.15"/>
</g>
</g>
<path opacity="0.2" d="M351.234 224.03C351.234 256.508 332.804 285.96 302.912 307.311C273.022 328.661 231.703 341.882 186.04 341.882C140.377 341.882 99.0576 328.661 69.167 307.311C39.2754 285.96 20.8457 256.508 20.8457 224.03C20.8457 191.551 39.2754 162.099 69.167 140.748C99.0576 119.398 140.377 106.177 186.04 106.177C231.703 106.177 273.022 119.398 302.912 140.748C332.804 162.099 351.234 191.551 351.234 224.03Z" stroke="white"/>
<g opacity="0.2">
<path d="M188.435 153.942C232.628 153.577 268.961 189.083 269.593 233.408C269.72 243.952 267.768 254.384 263.942 264.206L189.51 234.206L188.435 153.942Z" fill="#00FFCC"/>
<path d="M228.281 304.349C189.449 325.696 140.772 311.614 119.475 272.871C98.1773 234.129 112.373 185.485 151.205 164.138C162.744 157.795 175.717 154.411 188.886 154.187L189.743 234.244L228.281 304.349Z" fill="#FF00CC"/>
<path d="M264.049 263.931C257.181 281.16 244.451 295.461 228.119 304.439L189.581 234.333L264.049 263.931Z" fill="#0099FF"/>
<g filter="url(#filter6_d)">
<rect x="141.5" y="215.238" width="101" height="37" fill="#1C1C1C" fill-opacity="0.75"/>
<path d="M145.155 244.738V223.738H150.105V232.183H151.08L156.21 223.738H161.565L154.425 234.823V233.083L161.805 244.738H156.42L151.095 235.753H150.105V244.738H145.155ZM167.652 237.583V233.653H177.327V237.583H167.652ZM184.749 244.738V223.738H192.099C192.679 223.738 193.314 223.798 194.004 223.918C194.704 224.038 195.399 224.253 196.089 224.563C196.779 224.873 197.409 225.303 197.979 225.853C198.559 226.403 199.024 227.108 199.374 227.968C199.724 228.818 199.899 229.853 199.899 231.073C199.899 232.293 199.724 233.338 199.374 234.208C199.024 235.068 198.559 235.778 197.979 236.338C197.409 236.888 196.779 237.323 196.089 237.643C195.399 237.963 194.704 238.188 194.004 238.318C193.314 238.438 192.679 238.498 192.099 238.498H189.714V244.738H184.749ZM189.714 234.883H191.649C192.069 234.883 192.469 234.818 192.849 234.688C193.239 234.548 193.584 234.333 193.884 234.043C194.184 233.743 194.419 233.348 194.589 232.858C194.769 232.368 194.859 231.778 194.859 231.088C194.859 230.388 194.769 229.803 194.589 229.333C194.419 228.853 194.184 228.468 193.884 228.178C193.584 227.878 193.239 227.668 192.849 227.548C192.469 227.418 192.069 227.353 191.649 227.353H189.714V234.883ZM211.46 245.068C210.55 245.068 209.66 244.943 208.79 244.693C207.92 244.443 207.105 244.053 206.345 243.523C205.595 242.983 204.93 242.293 204.35 241.453C203.77 240.603 203.315 239.588 202.985 238.408C202.665 237.218 202.505 235.848 202.505 234.298C202.505 232.758 202.665 231.398 202.985 230.218C203.315 229.028 203.77 228.013 204.35 227.173C204.93 226.333 205.595 225.648 206.345 225.118C207.105 224.578 207.92 224.183 208.79 223.933C209.66 223.683 210.55 223.558 211.46 223.558C212.35 223.558 213.225 223.683 214.085 223.933C214.955 224.183 215.77 224.578 216.53 225.118C217.29 225.648 217.955 226.333 218.525 227.173C219.105 228.013 219.555 229.028 219.875 230.218C220.205 231.398 220.37 232.758 220.37 234.298C220.37 235.848 220.205 237.218 219.875 238.408C219.555 239.588 219.105 240.603 218.525 241.453C217.955 242.293 217.29 242.983 216.53 243.523C215.77 244.053 214.955 244.443 214.085 244.693C213.225 244.943 212.35 245.068 211.46 245.068ZM211.46 241.408C211.97 241.408 212.46 241.278 212.93 241.018C213.4 240.748 213.815 240.333 214.175 239.773C214.545 239.203 214.835 238.468 215.045 237.568C215.255 236.658 215.36 235.568 215.36 234.298C215.36 233.038 215.255 231.958 215.045 231.058C214.835 230.158 214.545 229.428 214.175 228.868C213.815 228.298 213.4 227.883 212.93 227.623C212.46 227.353 211.97 227.218 211.46 227.218C210.94 227.218 210.44 227.353 209.96 227.623C209.49 227.883 209.07 228.298 208.7 228.868C208.34 229.428 208.05 230.158 207.83 231.058C207.62 231.958 207.515 233.038 207.515 234.298C207.515 235.568 207.62 236.658 207.83 237.568C208.05 238.468 208.34 239.203 208.7 239.773C209.07 240.333 209.49 240.748 209.96 241.018C210.44 241.278 210.94 241.408 211.46 241.408ZM223.772 244.738V223.738H231.122C231.702 223.738 232.337 223.798 233.027 223.918C233.727 224.038 234.422 224.253 235.112 224.563C235.802 224.873 236.432 225.303 237.002 225.853C237.582 226.403 238.047 227.108 238.397 227.968C238.747 228.818 238.922 229.853 238.922 231.073C238.922 232.293 238.747 233.338 238.397 234.208C238.047 235.068 237.582 235.778 237.002 236.338C236.432 236.888 235.802 237.323 235.112 237.643C234.422 237.963 233.727 238.188 233.027 238.318C232.337 238.438 231.702 238.498 231.122 238.498H228.737V244.738H223.772ZM228.737 234.883H230.672C231.092 234.883 231.492 234.818 231.872 234.688C232.262 234.548 232.607 234.333 232.907 234.043C233.207 233.743 233.442 233.348 233.612 232.858C233.792 232.368 233.882 231.778 233.882 231.088C233.882 230.388 233.792 229.803 233.612 229.333C233.442 228.853 233.207 228.468 232.907 228.178C232.607 227.878 232.262 227.668 231.872 227.548C231.492 227.418 231.092 227.353 230.672 227.353H228.737V234.883Z" fill="white"/>
<rect x="141.625" y="215.363" width="100.75" height="36.75" stroke="white" stroke-width="0.25"/>
</g>
</g>
<g opacity="0.2">
<path d="M328.939 178.486C331.01 182.073 335.596 183.302 339.18 181.235C342.764 179.168 344 174.577 341.929 170.99C340.591 168.667 338.116 167.238 335.436 167.238V174.738L328.939 178.486Z" fill="#00FFCC"/>
<path d="M335.437 167.238C331.295 167.238 327.937 170.592 327.937 174.734C327.937 176.05 328.283 177.345 328.94 178.482L335.437 174.738V167.238Z" fill="#FF00CC"/>
<g filter="url(#filter7_d)">
<rect x="310.937" y="149.238" width="49" height="18" fill="#1C1C1C" fill-opacity="0.75"/>
<path d="M317.279 163.898C316.612 163.898 315.995 163.796 315.43 163.593C314.869 163.39 314.393 163.105 314.002 162.738C313.615 162.37 313.356 161.943 313.226 161.454L315.502 160.505C315.58 160.771 315.705 161.024 315.879 161.266C316.053 161.503 316.273 161.701 316.539 161.86C316.805 162.015 317.109 162.092 317.453 162.092C317.752 162.092 318.004 162.054 318.207 161.976C318.414 161.894 318.572 161.773 318.678 161.614C318.789 161.454 318.845 161.256 318.845 161.019C318.845 160.845 318.789 160.686 318.678 160.541C318.567 160.396 318.412 160.263 318.214 160.142C318.021 160.017 317.793 159.903 317.532 159.801C317.276 159.695 316.998 159.594 316.699 159.497C316.254 159.357 315.838 159.2 315.452 159.026C315.065 158.852 314.724 158.644 314.429 158.402C314.139 158.156 313.912 157.863 313.748 157.525C313.584 157.182 313.501 156.776 313.501 156.307C313.501 155.915 313.574 155.57 313.719 155.27C313.869 154.966 314.072 154.702 314.328 154.48C314.589 154.258 314.886 154.074 315.22 153.929C315.553 153.784 315.906 153.678 316.278 153.61C316.65 153.537 317.025 153.501 317.402 153.501C318.035 153.501 318.615 153.595 319.142 153.784C319.669 153.972 320.109 154.226 320.461 154.545C320.819 154.864 321.058 155.224 321.179 155.625L318.932 156.59C318.854 156.338 318.741 156.116 318.591 155.923C318.441 155.729 318.257 155.58 318.04 155.473C317.827 155.362 317.583 155.306 317.308 155.306C317.124 155.306 316.952 155.326 316.793 155.364C316.638 155.403 316.5 155.461 316.38 155.538C316.259 155.616 316.165 155.712 316.097 155.828C316.034 155.944 316.003 156.08 316.003 156.234C316.003 156.442 316.068 156.628 316.198 156.793C316.334 156.952 316.529 157.097 316.786 157.228C317.042 157.353 317.349 157.474 317.706 157.59C318.016 157.687 318.337 157.798 318.671 157.924C319.009 158.049 319.335 158.197 319.649 158.366C319.968 158.535 320.254 158.736 320.505 158.968C320.761 159.2 320.964 159.47 321.114 159.78C321.264 160.084 321.339 160.439 321.339 160.845C321.339 161.3 321.261 161.699 321.107 162.042C320.952 162.38 320.739 162.668 320.469 162.904C320.203 163.136 319.896 163.327 319.548 163.477C319.2 163.622 318.83 163.729 318.439 163.796C318.052 163.864 317.665 163.898 317.279 163.898ZM325.267 163.738V155.335H322.591V153.588H330.349V155.335H327.659V163.738H325.267ZM339.469 163.738H337.047L336.612 161.563H333.93L333.495 163.738H331.073L333.393 153.588H337.149L339.469 163.738ZM335.191 155.335L334.271 159.816H336.272L335.351 155.335H335.191ZM340.772 163.738V153.588H344.869C345.144 153.588 345.439 153.615 345.753 153.668C346.072 153.721 346.381 153.811 346.681 153.936C346.981 154.062 347.251 154.238 347.493 154.465C347.74 154.688 347.935 154.971 348.08 155.314C348.23 155.657 348.305 156.073 348.305 156.561C348.305 157.097 348.223 157.549 348.059 157.916C347.894 158.279 347.679 158.574 347.413 158.801C347.152 159.028 346.862 159.202 346.543 159.323C346.229 159.444 345.915 159.526 345.601 159.569C345.287 159.608 345.006 159.627 344.76 159.627H343.165V163.738H340.772ZM345.942 163.738L344.187 159.004L346.529 158.757L348.479 163.738H345.942ZM343.165 157.96H344.361C344.67 157.96 344.941 157.916 345.173 157.829C345.405 157.742 345.586 157.602 345.717 157.409C345.852 157.216 345.92 156.957 345.92 156.633C345.92 156.29 345.852 156.027 345.717 155.843C345.586 155.654 345.403 155.524 345.166 155.451C344.929 155.374 344.656 155.335 344.347 155.335H343.165V157.96ZM353.487 163.898C352.82 163.898 352.204 163.796 351.639 163.593C351.078 163.39 350.602 163.105 350.21 162.738C349.824 162.37 349.565 161.943 349.435 161.454L351.711 160.505C351.788 160.771 351.914 161.024 352.088 161.266C352.262 161.503 352.482 161.701 352.748 161.86C353.014 162.015 353.318 162.092 353.661 162.092C353.961 162.092 354.212 162.054 354.415 161.976C354.623 161.894 354.78 161.773 354.887 161.614C354.998 161.454 355.053 161.256 355.053 161.019C355.053 160.845 354.998 160.686 354.887 160.541C354.775 160.396 354.621 160.263 354.423 160.142C354.229 160.017 354.002 159.903 353.741 159.801C353.485 159.695 353.207 159.594 352.907 159.497C352.463 159.357 352.047 159.2 351.66 159.026C351.274 158.852 350.933 158.644 350.638 158.402C350.348 158.156 350.121 157.863 349.957 157.525C349.792 157.182 349.71 156.776 349.71 156.307C349.71 155.915 349.783 155.57 349.928 155.27C350.077 154.966 350.28 154.702 350.537 154.48C350.798 154.258 351.095 154.074 351.428 153.929C351.762 153.784 352.115 153.678 352.487 153.61C352.859 153.537 353.234 153.501 353.611 153.501C354.244 153.501 354.824 153.595 355.351 153.784C355.877 153.972 356.317 154.226 356.67 154.545C357.028 154.864 357.267 155.224 357.388 155.625L355.14 156.59C355.063 156.338 354.949 156.116 354.8 155.923C354.65 155.729 354.466 155.58 354.249 155.473C354.036 155.362 353.792 155.306 353.516 155.306C353.333 155.306 353.161 155.326 353.002 155.364C352.847 155.403 352.709 155.461 352.588 155.538C352.467 155.616 352.373 155.712 352.306 155.828C352.243 155.944 352.211 156.08 352.211 156.234C352.211 156.442 352.277 156.628 352.407 156.793C352.542 156.952 352.738 157.097 352.994 157.228C353.25 157.353 353.557 157.474 353.915 157.59C354.224 157.687 354.546 157.798 354.879 157.924C355.218 158.049 355.544 158.197 355.858 158.366C356.177 158.535 356.462 158.736 356.714 158.968C356.97 159.2 357.173 159.47 357.323 159.78C357.472 160.084 357.547 160.439 357.547 160.845C357.547 161.3 357.47 161.699 357.315 162.042C357.161 162.38 356.948 162.668 356.677 162.904C356.411 163.136 356.105 163.327 355.757 163.477C355.409 163.622 355.039 163.729 354.647 163.796C354.261 163.864 353.874 163.898 353.487 163.898Z" fill="white"/>
<rect x="310.862" y="149.163" width="49.15" height="18.15" stroke="white" stroke-width="0.15"/>
</g>
</g>
<g opacity="0.2">
<path d="M21.9365 216.238C24.6979 216.238 26.9365 214 26.9365 211.238C26.9365 208.477 24.6979 206.238 21.9365 206.238C19.1751 206.238 16.9365 208.477 16.9365 211.238C16.9365 214 19.1751 216.238 21.9365 216.238Z" fill="#FF00CC"/>
<g filter="url(#filter8_d)">
<rect x="-13.0635" y="188.238" width="70" height="18" fill="#1C1C1C" fill-opacity="0.75"/>
<path d="M-9.62109 202.738V192.588H-3.21933V194.335H-7.22858V197.576H-3.92258V199.323H-7.22858V202.738H-9.62109ZM6.17247 202.738H3.75097L3.31597 200.563H0.633474L0.198474 202.738H-2.22303L0.0969736 192.588H3.85247L6.17247 202.738ZM1.89497 194.335L0.974224 198.816H2.97522L2.05447 194.335H1.89497ZM7.09164 202.738V192.588H10.6369L13.1671 200.766H12.7104V192.588H15.1029V202.738H12.0869L9.38989 194.589H9.48414V202.738H7.09164ZM16.4571 202.738V192.588H19.6978C20.0506 192.588 20.4083 192.615 20.7708 192.668C21.1333 192.716 21.4837 192.806 21.8221 192.936C22.1652 193.062 22.4842 193.246 22.7791 193.487C23.0739 193.724 23.3325 194.029 23.5548 194.401C23.782 194.773 23.9584 195.227 24.0841 195.764C24.2097 196.3 24.2726 196.933 24.2726 197.663C24.2726 198.388 24.2097 199.021 24.0841 199.563C23.9584 200.099 23.782 200.554 23.5548 200.926C23.3325 201.298 23.0739 201.605 22.7791 201.846C22.4842 202.083 22.1652 202.267 21.8221 202.397C21.4837 202.523 21.1333 202.613 20.7708 202.666C20.4083 202.714 20.0506 202.738 19.6978 202.738H16.4571ZM18.8496 200.991H19.5093C19.8766 200.991 20.2029 200.933 20.4881 200.817C20.7781 200.701 21.0197 200.515 21.2131 200.259C21.4112 199.998 21.5611 199.655 21.6626 199.229C21.7641 198.804 21.8148 198.282 21.8148 197.663C21.8148 197.045 21.7641 196.523 21.6626 196.097C21.5611 195.672 21.4112 195.331 21.2131 195.075C21.0197 194.814 20.7781 194.625 20.4881 194.509C20.2029 194.393 19.8766 194.335 19.5093 194.335H18.8496V200.991ZM29.3605 202.898C28.9206 202.898 28.4905 202.837 28.07 202.716C27.6495 202.596 27.2555 202.407 26.8882 202.151C26.5257 201.89 26.2043 201.556 25.924 201.15C25.6436 200.74 25.4237 200.249 25.2642 199.679C25.1095 199.104 25.0322 198.441 25.0322 197.692C25.0322 196.948 25.1095 196.291 25.2642 195.72C25.4237 195.145 25.6436 194.654 25.924 194.248C26.2043 193.842 26.5257 193.511 26.8882 193.255C27.2555 192.994 27.6495 192.803 28.07 192.682C28.4905 192.562 28.9206 192.501 29.3605 192.501C29.7906 192.501 30.2135 192.562 30.6292 192.682C31.0497 192.803 31.4436 192.994 31.811 193.255C32.1783 193.511 32.4997 193.842 32.7752 194.248C33.0555 194.654 33.273 195.145 33.4277 195.72C33.5872 196.291 33.667 196.948 33.667 197.692C33.667 198.441 33.5872 199.104 33.4277 199.679C33.273 200.249 33.0555 200.74 32.7752 201.15C32.4997 201.556 32.1783 201.89 31.811 202.151C31.4436 202.407 31.0497 202.596 30.6292 202.716C30.2135 202.837 29.7906 202.898 29.3605 202.898ZM29.3605 201.129C29.607 201.129 29.8438 201.066 30.071 200.94C30.2981 200.81 30.4987 200.609 30.6727 200.338C30.8515 200.063 30.9917 199.708 31.0932 199.273C31.1947 198.833 31.2455 198.306 31.2455 197.692C31.2455 197.083 31.1947 196.561 31.0932 196.126C30.9917 195.691 30.8515 195.338 30.6727 195.068C30.4987 194.792 30.2981 194.592 30.071 194.466C29.8438 194.335 29.607 194.27 29.3605 194.27C29.1091 194.27 28.8675 194.335 28.6355 194.466C28.4083 194.592 28.2053 194.792 28.0265 195.068C27.8525 195.338 27.7123 195.691 27.606 196.126C27.5045 196.561 27.4537 197.083 27.4537 197.692C27.4537 198.306 27.5045 198.833 27.606 199.273C27.7123 199.708 27.8525 200.063 28.0265 200.338C28.2053 200.609 28.4083 200.81 28.6355 200.94C28.8675 201.066 29.1091 201.129 29.3605 201.129ZM39.5596 201.39L40.1034 198.345L41.6404 192.588H42.9236L42.9526 194.575L40.9589 201.39H39.5596ZM34.4049 202.738L35.2024 192.588H37.4064L36.8554 202.738H34.4049ZM38.9796 201.39L36.9786 194.575L37.0076 192.588H38.2909L39.8714 198.345L40.3499 201.39H38.9796ZM43.0759 202.738L42.5249 192.588H44.7289L45.5191 202.738H43.0759ZM50.5015 202.898C49.8345 202.898 49.2182 202.796 48.6527 202.593C48.092 202.39 47.616 202.105 47.2245 201.738C46.8378 201.37 46.5792 200.943 46.4487 200.454L48.7252 199.505C48.8025 199.771 48.9282 200.024 49.1022 200.266C49.2762 200.503 49.4961 200.701 49.762 200.86C50.0278 201.015 50.3323 201.092 50.6755 201.092C50.9751 201.092 51.2265 201.054 51.4295 200.976C51.6373 200.894 51.7944 200.773 51.9007 200.614C52.0119 200.454 52.0675 200.256 52.0675 200.019C52.0675 199.845 52.0119 199.686 51.9007 199.541C51.7895 199.396 51.6349 199.263 51.4367 199.142C51.2434 199.017 51.0162 198.903 50.7552 198.801C50.499 198.695 50.2211 198.594 49.9215 198.497C49.4768 198.357 49.0611 198.2 48.6745 198.026C48.2878 197.852 47.947 197.644 47.6522 197.402C47.3622 197.156 47.135 196.863 46.9707 196.525C46.8064 196.182 46.7242 195.776 46.7242 195.307C46.7242 194.915 46.7967 194.57 46.9417 194.27C47.0915 193.966 47.2945 193.702 47.5507 193.48C47.8117 193.258 48.109 193.074 48.4425 192.929C48.776 192.784 49.1288 192.678 49.501 192.61C49.8731 192.537 50.2477 192.501 50.6247 192.501C51.2579 192.501 51.8379 192.595 52.3647 192.784C52.8915 192.972 53.3314 193.226 53.6842 193.545C54.0419 193.864 54.2811 194.224 54.402 194.625L52.1545 195.59C52.0771 195.338 51.9635 195.116 51.8137 194.923C51.6639 194.729 51.4802 194.58 51.2627 194.473C51.05 194.362 50.806 194.306 50.5305 194.306C50.3468 194.306 50.1752 194.326 50.0157 194.364C49.861 194.403 49.7233 194.461 49.6025 194.538C49.4816 194.616 49.3874 194.712 49.3197 194.828C49.2569 194.944 49.2255 195.08 49.2255 195.234C49.2255 195.442 49.2907 195.628 49.4212 195.793C49.5565 195.952 49.7523 196.097 50.0085 196.228C50.2646 196.353 50.5715 196.474 50.9292 196.59C51.2385 196.687 51.56 196.798 51.8935 196.924C52.2318 197.049 52.558 197.197 52.8722 197.366C53.1912 197.535 53.4764 197.736 53.7277 197.968C53.9839 198.2 54.1869 198.47 54.3367 198.78C54.4865 199.084 54.5615 199.439 54.5615 199.845C54.5615 200.3 54.4841 200.699 54.3295 201.042C54.1748 201.38 53.9621 201.668 53.6915 201.904C53.4256 202.136 53.1187 202.327 52.7707 202.477C52.4227 202.622 52.053 202.729 51.6615 202.796C51.2748 202.864 50.8881 202.898 50.5015 202.898Z" fill="white"/>
<rect x="-13.1385" y="188.163" width="70.15" height="18.15" stroke="white" stroke-width="0.15"/>
</g>
</g>
<g opacity="0.2">
<path d="M35.9365 179.238C38.6979 179.238 40.9365 177 40.9365 174.238C40.9365 171.477 38.6979 169.238 35.9365 169.238C33.1751 169.238 30.9365 171.477 30.9365 174.238C30.9365 177 33.1751 179.238 35.9365 179.238Z" fill="#FF00CC"/>
<g filter="url(#filter9_d)">
<rect x="10.9365" y="151.238" width="49" height="18" fill="#1C1C1C" fill-opacity="0.75"/>
<path d="M14.5701 165.738V155.588H20.9719V157.335H16.9626V160.576H20.2686V162.323H16.9626V165.738H14.5701ZM30.3637 165.738H27.9422L27.5072 163.563H24.8247L24.3897 165.738H21.9682L24.2882 155.588H28.0437L30.3637 165.738ZM26.0862 157.335L25.1654 161.816H27.1664L26.2457 157.335H26.0862ZM33.1077 165.738L30.7514 155.588H33.1802L34.9782 163.991H35.0724L36.8559 155.588H39.2919L36.9284 165.738H33.1077ZM40.8636 165.738V155.588H47.7656V157.335H43.2561V159.887H47.2581V161.613H43.2561V163.991H47.7656V165.738H40.8636ZM53.3103 165.898C52.6433 165.898 52.027 165.796 51.4615 165.593C50.9008 165.39 50.4248 165.105 50.0333 164.738C49.6466 164.37 49.388 163.943 49.2575 163.454L51.534 162.505C51.6113 162.771 51.737 163.024 51.911 163.266C52.085 163.503 52.3049 163.701 52.5708 163.86C52.8366 164.015 53.1411 164.092 53.4843 164.092C53.7839 164.092 54.0353 164.054 54.2383 163.976C54.4461 163.894 54.6032 163.773 54.7095 163.614C54.8207 163.454 54.8763 163.256 54.8763 163.019C54.8763 162.845 54.8207 162.686 54.7095 162.541C54.5983 162.396 54.4437 162.263 54.2455 162.142C54.0522 162.017 53.825 161.903 53.564 161.801C53.3078 161.695 53.0299 161.594 52.7303 161.497C52.2856 161.357 51.8699 161.2 51.4833 161.026C51.0966 160.852 50.7558 160.644 50.461 160.402C50.171 160.156 49.9438 159.863 49.7795 159.525C49.6152 159.182 49.533 158.776 49.533 158.307C49.533 157.915 49.6055 157.57 49.7505 157.27C49.9003 156.966 50.1033 156.702 50.3595 156.48C50.6205 156.258 50.9178 156.074 51.2513 155.929C51.5848 155.784 51.9376 155.678 52.3098 155.61C52.6819 155.537 53.0565 155.501 53.4335 155.501C54.0667 155.501 54.6467 155.595 55.1735 155.784C55.7003 155.972 56.1402 156.226 56.493 156.545C56.8507 156.864 57.0899 157.224 57.2108 157.625L54.9633 158.59C54.8859 158.338 54.7723 158.116 54.6225 157.923C54.4727 157.729 54.289 157.58 54.0715 157.473C53.8588 157.362 53.6148 157.306 53.3393 157.306C53.1556 157.306 52.984 157.326 52.8245 157.364C52.6698 157.403 52.5321 157.461 52.4113 157.538C52.2904 157.616 52.1962 157.712 52.1285 157.828C52.0657 157.944 52.0343 158.08 52.0343 158.234C52.0343 158.442 52.0995 158.628 52.23 158.793C52.3653 158.952 52.5611 159.097 52.8173 159.228C53.0734 159.353 53.3803 159.474 53.738 159.59C54.0473 159.687 54.3688 159.798 54.7023 159.924C55.0406 160.049 55.3668 160.197 55.681 160.366C56 160.535 56.2852 160.736 56.5365 160.968C56.7927 161.2 56.9957 161.47 57.1455 161.78C57.2953 162.084 57.3703 162.439 57.3703 162.845C57.3703 163.3 57.2929 163.699 57.1383 164.042C56.9836 164.38 56.7709 164.668 56.5003 164.904C56.2344 165.136 55.9275 165.327 55.5795 165.477C55.2315 165.622 54.8618 165.729 54.4703 165.796C54.0836 165.864 53.6969 165.898 53.3103 165.898Z" fill="white"/>
<rect x="10.8615" y="151.163" width="49.15" height="18.15" stroke="white" stroke-width="0.15"/>
</g>
</g>
<g opacity="0.2">
<g filter="url(#filter10_d)">
<rect x="-23.0635" y="222.238" width="92" height="18" fill="#1C1C1C" fill-opacity="0.75"/>
<path d="M-16.2131 236.898C-16.624 236.898 -17.0396 236.845 -17.4601 236.738C-17.8806 236.637 -18.2818 236.468 -18.6636 236.231C-19.0406 235.989 -19.379 235.668 -19.6786 235.266C-19.9735 234.865 -20.2079 234.372 -20.3819 233.787C-20.5511 233.198 -20.6356 232.499 -20.6356 231.692C-20.6356 230.885 -20.5511 230.189 -20.3819 229.604C-20.2079 229.015 -19.9735 228.522 -19.6786 228.125C-19.379 227.724 -19.0382 227.405 -18.6564 227.168C-18.2746 226.931 -17.8734 226.762 -17.4529 226.661C-17.0324 226.554 -16.6167 226.501 -16.2059 226.501C-15.7661 226.501 -15.3552 226.559 -14.9734 226.675C-14.5867 226.791 -14.2339 226.96 -13.9149 227.183C-13.5959 227.405 -13.3156 227.678 -13.0739 228.002C-12.8322 228.321 -12.6341 228.688 -12.4794 229.104L-14.5601 230.148C-14.6181 229.955 -14.6906 229.752 -14.7776 229.539C-14.8646 229.321 -14.9734 229.116 -15.1039 228.923C-15.2296 228.729 -15.3842 228.572 -15.5679 228.451C-15.7467 228.331 -15.9594 228.27 -16.2059 228.27C-16.4621 228.27 -16.711 228.333 -16.9526 228.459C-17.1895 228.584 -17.4021 228.785 -17.5906 229.06C-17.7791 229.331 -17.929 229.684 -18.0401 230.119C-18.1465 230.549 -18.1996 231.074 -18.1996 231.692C-18.1996 232.311 -18.1465 232.84 -18.0401 233.28C-17.929 233.715 -17.7791 234.07 -17.5906 234.346C-17.4021 234.616 -17.1895 234.815 -16.9526 234.94C-16.7158 235.066 -16.4693 235.129 -16.2131 235.129C-15.9666 235.129 -15.754 235.068 -15.5751 234.947C-15.3915 234.822 -15.2344 234.665 -15.1039 234.476C-14.9734 234.283 -14.8646 234.08 -14.7776 233.867C-14.6906 233.655 -14.6181 233.454 -14.5601 233.265L-12.4794 234.302C-12.6341 234.713 -12.8322 235.08 -13.0739 235.404C-13.3156 235.723 -13.5959 235.994 -13.9149 236.216C-14.2339 236.439 -14.5867 236.608 -14.9734 236.724C-15.3552 236.84 -15.7685 236.898 -16.2131 236.898ZM-7.39872 236.898C-7.83856 236.898 -8.26872 236.837 -8.68922 236.716C-9.10972 236.596 -9.50364 236.407 -9.87097 236.151C-10.2335 235.89 -10.5549 235.556 -10.8352 235.15C-11.1156 234.74 -11.3355 234.249 -11.495 233.679C-11.6496 233.104 -11.727 232.441 -11.727 231.692C-11.727 230.948 -11.6496 230.291 -11.495 229.72C-11.3355 229.145 -11.1156 228.654 -10.8352 228.248C-10.5549 227.842 -10.2335 227.511 -9.87097 227.255C-9.50364 226.994 -9.10972 226.803 -8.68922 226.682C-8.26872 226.562 -7.83856 226.501 -7.39872 226.501C-6.96856 226.501 -6.54564 226.562 -6.12997 226.682C-5.70947 226.803 -5.31556 226.994 -4.94822 227.255C-4.58089 227.511 -4.25947 227.842 -3.98397 228.248C-3.70364 228.654 -3.48614 229.145 -3.33147 229.72C-3.17197 230.291 -3.09222 230.948 -3.09222 231.692C-3.09222 232.441 -3.17197 233.104 -3.33147 233.679C-3.48614 234.249 -3.70364 234.74 -3.98397 235.15C-4.25947 235.556 -4.58089 235.89 -4.94822 236.151C-5.31556 236.407 -5.70947 236.596 -6.12997 236.716C-6.54564 236.837 -6.96856 236.898 -7.39872 236.898ZM-7.39872 235.129C-7.15222 235.129 -6.91539 235.066 -6.68822 234.94C-6.46106 234.81 -6.26047 234.609 -6.08647 234.338C-5.90764 234.063 -5.76747 233.708 -5.66597 233.273C-5.56447 232.833 -5.51372 232.306 -5.51372 231.692C-5.51372 231.083 -5.56447 230.561 -5.66597 230.126C-5.76747 229.691 -5.90764 229.338 -6.08647 229.068C-6.26047 228.792 -6.46106 228.592 -6.68822 228.466C-6.91539 228.335 -7.15222 228.27 -7.39872 228.27C-7.65006 228.27 -7.89172 228.335 -8.12372 228.466C-8.35089 228.592 -8.55389 228.792 -8.73272 229.068C-8.90672 229.338 -9.04689 229.691 -9.15322 230.126C-9.25472 230.561 -9.30547 231.083 -9.30547 231.692C-9.30547 232.306 -9.25472 232.833 -9.15322 233.273C-9.04689 233.708 -8.90672 234.063 -8.73272 234.338C-8.55389 234.609 -8.35089 234.81 -8.12372 234.94C-7.89172 235.066 -7.65006 235.129 -7.39872 235.129ZM2.80044 235.39L3.34419 232.345L4.88119 226.588H6.16444L6.19344 228.575L4.19969 235.39H2.80044ZM-2.35431 236.738L-1.55681 226.588H0.647191L0.0961915 236.738H-2.35431ZM2.22044 235.39L0.219441 228.575L0.248441 226.588H1.53169L3.11219 232.345L3.59069 235.39H2.22044ZM6.31669 236.738L5.76569 226.588H7.96969L8.75994 236.738H6.31669ZM14.8298 235.39L15.3735 232.345L16.9105 226.588H18.1938L18.2228 228.575L16.229 235.39H14.8298ZM9.67503 236.738L10.4725 226.588H12.6765L12.1255 236.738H9.67503ZM14.2498 235.39L12.2488 228.575L12.2778 226.588H13.561L15.1415 232.345L15.62 235.39H14.2498ZM18.346 236.738L17.795 226.588H19.999L20.7893 236.738H18.346ZM25.8369 236.898C25.3197 236.898 24.8291 236.83 24.3651 236.695C23.9059 236.559 23.4951 236.339 23.1326 236.035C22.7749 235.73 22.4922 235.327 22.2844 234.824C22.0814 234.322 21.9799 233.703 21.9799 232.968V226.588H24.3724V232.867C24.3724 233.403 24.4279 233.833 24.5391 234.157C24.6551 234.476 24.8219 234.708 25.0394 234.853C25.2569 234.993 25.5227 235.063 25.8369 235.063C26.151 235.063 26.4144 234.993 26.6271 234.853C26.8446 234.708 27.0089 234.476 27.1201 234.157C27.2313 233.833 27.2869 233.403 27.2869 232.867V226.588H29.6794V232.968C29.6794 233.703 29.5779 234.322 29.3749 234.824C29.1719 235.327 28.8915 235.73 28.5339 236.035C28.181 236.339 27.7726 236.559 27.3086 236.695C26.8494 236.83 26.3589 236.898 25.8369 236.898ZM30.9538 236.738V226.588H34.499L37.0293 234.766H36.5725V226.588H38.965V236.738H35.949L33.252 228.589H33.3463V236.738H30.9538ZM40.8774 236.738V234.991H42.9002V228.335H40.8774V226.588H47.3299V228.335H45.2927V234.991H47.3299V236.738H40.8774ZM52.0409 236.738V228.335H49.3656V226.588H57.1231V228.335H54.4334V236.738H52.0409ZM61.1235 236.738V233.468L58.1293 226.588H60.587L62.3125 231.279L64.038 226.588H66.4958L63.516 233.468V236.738H61.1235Z" fill="white"/>
<rect x="-23.1385" y="222.163" width="92.15" height="18.15" stroke="white" stroke-width="0.15"/>
</g>
</g>
<g opacity="0.2">
<path d="M350.436 227.238C354.025 227.238 356.935 224.328 356.935 220.738C356.935 217.148 354.025 214.238 350.436 214.238L350.436 227.238Z" fill="#00FFCC"/>
<path d="M350.436 214.238C346.847 214.238 343.937 217.148 343.937 220.738C343.936 224.328 346.847 227.238 350.436 227.238L350.436 214.238Z" fill="#00FFCC"/>
<g filter="url(#filter11_d)">
<rect x="334.937" y="196.238" width="31" height="18" fill="#1C1C1C" fill-opacity="0.75"/>
<path d="M337.762 210.738V200.588H341.482C341.723 200.588 341.996 200.605 342.301 200.639C342.605 200.668 342.912 200.728 343.222 200.82C343.536 200.912 343.821 201.05 344.077 201.233C344.338 201.412 344.546 201.652 344.701 201.951C344.86 202.246 344.94 202.618 344.94 203.068C344.94 203.575 344.848 203.998 344.664 204.336C344.485 204.67 344.266 204.924 344.005 205.098C343.748 205.272 343.502 205.373 343.265 205.402C343.478 205.422 343.705 205.482 343.947 205.583C344.193 205.685 344.423 205.832 344.635 206.026C344.853 206.219 345.029 206.466 345.165 206.765C345.305 207.065 345.375 207.425 345.375 207.845C345.375 208.488 345.242 209.025 344.976 209.455C344.71 209.88 344.348 210.202 343.889 210.419C343.434 210.632 342.919 210.738 342.344 210.738H337.762ZM340.155 208.991H341.409C341.699 208.991 341.962 208.952 342.199 208.875C342.436 208.793 342.622 208.657 342.758 208.469C342.898 208.276 342.968 208.01 342.968 207.671C342.968 207.304 342.893 207.029 342.743 206.845C342.598 206.656 342.405 206.531 342.163 206.468C341.926 206.4 341.67 206.366 341.395 206.366H340.155V208.991ZM340.155 204.641H341.17C341.46 204.641 341.714 204.602 341.931 204.525C342.149 204.448 342.318 204.322 342.439 204.148C342.559 203.969 342.62 203.732 342.62 203.437C342.62 203.225 342.586 203.048 342.518 202.908C342.455 202.763 342.361 202.65 342.236 202.567C342.11 202.48 341.955 202.42 341.772 202.386C341.593 202.352 341.385 202.335 341.148 202.335H340.155V204.641ZM349.23 210.738V202.335H346.555V200.588H354.312V202.335H351.623V210.738H349.23ZM359.524 210.898C358.857 210.898 358.24 210.796 357.675 210.593C357.114 210.39 356.638 210.105 356.247 209.738C355.86 209.37 355.601 208.943 355.471 208.454L357.747 207.505C357.825 207.771 357.95 208.024 358.124 208.266C358.298 208.503 358.518 208.701 358.784 208.86C359.05 209.015 359.354 209.092 359.698 209.092C359.997 209.092 360.249 209.054 360.452 208.976C360.659 208.894 360.817 208.773 360.923 208.614C361.034 208.454 361.09 208.256 361.09 208.019C361.09 207.845 361.034 207.686 360.923 207.541C360.812 207.396 360.657 207.263 360.459 207.142C360.266 207.017 360.038 206.903 359.777 206.801C359.521 206.695 359.243 206.594 358.944 206.497C358.499 206.357 358.083 206.2 357.697 206.026C357.31 205.852 356.969 205.644 356.674 205.402C356.384 205.156 356.157 204.863 355.993 204.525C355.829 204.182 355.746 203.776 355.746 203.307C355.746 202.915 355.819 202.57 355.964 202.27C356.114 201.966 356.317 201.702 356.573 201.48C356.834 201.258 357.131 201.074 357.465 200.929C357.798 200.784 358.151 200.678 358.523 200.61C358.895 200.537 359.27 200.501 359.647 200.501C360.28 200.501 360.86 200.595 361.387 200.784C361.914 200.972 362.354 201.226 362.706 201.545C363.064 201.864 363.303 202.224 363.424 202.625L361.177 203.59C361.099 203.338 360.986 203.116 360.836 202.923C360.686 202.729 360.502 202.58 360.285 202.473C360.072 202.362 359.828 202.306 359.553 202.306C359.369 202.306 359.197 202.326 359.038 202.364C358.883 202.403 358.745 202.461 358.625 202.538C358.504 202.616 358.41 202.712 358.342 202.828C358.279 202.944 358.248 203.08 358.248 203.234C358.248 203.442 358.313 203.628 358.443 203.793C358.579 203.952 358.774 204.097 359.031 204.228C359.287 204.353 359.594 204.474 359.951 204.59C360.261 204.687 360.582 204.798 360.916 204.924C361.254 205.049 361.58 205.197 361.894 205.366C362.213 205.535 362.499 205.736 362.75 205.968C363.006 206.2 363.209 206.47 363.359 206.78C363.509 207.084 363.584 207.439 363.584 207.845C363.584 208.3 363.506 208.699 363.352 209.042C363.197 209.38 362.984 209.668 362.714 209.904C362.448 210.136 362.141 210.327 361.793 210.477C361.445 210.622 361.075 210.729 360.684 210.796C360.297 210.864 359.91 210.898 359.524 210.898Z" fill="white"/>
<rect x="334.862" y="196.163" width="31.15" height="18.15" stroke="white" stroke-width="0.15"/>
</g>
</g>
<path d="M246.453 151.21C268.99 149.061 285.521 128.999 283.367 106.41C281.367 85.4305 263.822 69.3674 242.807 69.1854L242.552 110.302L246.453 151.21Z" fill="#00FFCC"/>
<path d="M242.787 69.1995C219.72 69.2757 200.96 87.6983 200.937 110.287C200.898 122.237 206.261 133.568 215.509 141.263L242.743 110.083L242.787 69.1995Z" fill="#FF00CC"/>
<path d="M215.375 141.337C223.946 148.745 235.168 152.286 246.453 151.21L242.561 110.395L215.375 141.337Z" fill="#0099FF"/>
<g filter="url(#filter12_d)">
<rect x="222.553" y="58.2382" width="40" height="18" fill="#1C1C1C" fill-opacity="0.75"/>
<path d="M226.151 72.7382V62.5882H232.553V64.3354H228.544V67.5762H231.85V69.3234H228.544V72.7382H226.151ZM241.945 72.7382H239.523L239.088 70.5632H236.406L235.971 72.7382H233.549L235.869 62.5882H239.625L241.945 72.7382ZM237.667 64.3354L236.746 68.8159H238.747L237.827 64.3354H237.667ZM242.864 72.7382V62.5882H246.409L248.939 70.7662H248.483V62.5882H250.875V72.7382H247.859L245.162 64.5892H245.256V72.7382H242.864ZM255.963 72.8977C255.296 72.8977 254.68 72.7962 254.114 72.5932C253.554 72.3902 253.078 72.105 252.686 71.7377C252.299 71.3704 252.041 70.9426 251.91 70.4544L254.187 69.5047C254.264 69.7705 254.39 70.0243 254.564 70.2659C254.738 70.5028 254.958 70.7009 255.224 70.8604C255.489 71.0151 255.794 71.0924 256.137 71.0924C256.437 71.0924 256.688 71.0538 256.891 70.9764C257.099 70.8943 257.256 70.7734 257.362 70.6139C257.473 70.4544 257.529 70.2563 257.529 70.0194C257.529 69.8454 257.473 69.6859 257.362 69.5409C257.251 69.3959 257.096 69.263 256.898 69.1422C256.705 69.0165 256.478 68.9029 256.217 68.8014C255.961 68.6951 255.683 68.5936 255.383 68.4969C254.938 68.3568 254.523 68.1997 254.136 68.0257C253.749 67.8517 253.409 67.6439 253.114 67.4022C252.824 67.1557 252.597 66.8633 252.432 66.5249C252.268 66.1818 252.186 65.7758 252.186 65.3069C252.186 64.9154 252.258 64.5699 252.403 64.2702C252.553 63.9657 252.756 63.7023 253.012 63.4799C253.273 63.2576 253.571 63.0739 253.904 62.9289C254.238 62.7839 254.59 62.6776 254.963 62.6099C255.335 62.5374 255.709 62.5012 256.086 62.5012C256.719 62.5012 257.299 62.5954 257.826 62.7839C258.353 62.9724 258.793 63.2262 259.146 63.5452C259.503 63.8642 259.743 64.2243 259.864 64.6254L257.616 65.5897C257.539 65.3384 257.425 65.116 257.275 64.9227C257.125 64.7294 256.942 64.5795 256.724 64.4732C256.512 64.362 256.268 64.3064 255.992 64.3064C255.808 64.3064 255.637 64.3258 255.477 64.3644C255.323 64.4031 255.185 64.4611 255.064 64.5384C254.943 64.6158 254.849 64.7124 254.781 64.8284C254.718 64.9444 254.687 65.0798 254.687 65.2344C254.687 65.4423 254.752 65.6284 254.883 65.7927C255.018 65.9522 255.214 66.0972 255.47 66.2277C255.726 66.3534 256.033 66.4742 256.391 66.5902C256.7 66.6869 257.022 66.798 257.355 66.9237C257.693 67.0494 258.02 67.1968 258.334 67.3659C258.653 67.5351 258.938 67.7357 259.189 67.9677C259.445 68.1997 259.648 68.4704 259.798 68.7797C259.948 69.0842 260.023 69.4394 260.023 69.8454C260.023 70.2998 259.946 70.6985 259.791 71.0417C259.636 71.38 259.424 71.6676 259.153 71.9044C258.887 72.1364 258.58 72.3274 258.232 72.4772C257.884 72.6222 257.515 72.7285 257.123 72.7962C256.736 72.8639 256.35 72.8977 255.963 72.8977Z" fill="white"/>
<rect x="222.478" y="58.1632" width="40.15" height="18.15" stroke="white" stroke-width="0.15"/>
</g>
<path d="M174.824 79.2263C170.55 77.3497 165.879 76.4201 161.226 76.3804L161.003 110.734L174.824 79.2263Z" fill="#00FFCC"/>
<path d="M161.14 76.2413C142.392 76.1309 127.047 91.2763 126.937 110.027C126.827 128.778 141.971 144.126 160.72 144.236C179.469 144.347 194.814 129.201 194.923 110.45C194.946 108.735 194.809 106.989 194.577 105.308L160.959 110.261L161.14 76.2413Z" fill="#FF00CC"/>
<path d="M194.573 105.283C192.868 93.6836 185.27 83.7804 174.548 79.0838L160.935 110.238L194.573 105.283Z" fill="#0099FF"/>
<g filter="url(#filter13_d)">
<rect x="136.935" y="63.2382" width="49" height="18" fill="#1C1C1C" fill-opacity="0.75"/>
<path d="M143.277 77.8977C142.61 77.8977 141.994 77.7962 141.428 77.5932C140.868 77.3902 140.392 77.105 140 76.7377C139.613 76.3704 139.355 75.9426 139.224 75.4544L141.501 74.5047C141.578 74.7705 141.704 75.0243 141.878 75.2659C142.052 75.5028 142.272 75.7009 142.538 75.8604C142.803 76.0151 143.108 76.0924 143.451 76.0924C143.751 76.0924 144.002 76.0538 144.205 75.9764C144.413 75.8943 144.57 75.7734 144.676 75.6139C144.788 75.4544 144.843 75.2563 144.843 75.0194C144.843 74.8454 144.788 74.6859 144.676 74.5409C144.565 74.3959 144.411 74.263 144.212 74.1422C144.019 74.0165 143.792 73.9029 143.531 73.8014C143.275 73.6951 142.997 73.5936 142.697 73.4969C142.252 73.3568 141.837 73.1997 141.45 73.0257C141.063 72.8517 140.723 72.6439 140.428 72.4022C140.138 72.1557 139.911 71.8633 139.746 71.5249C139.582 71.1818 139.5 70.7758 139.5 70.3069C139.5 69.9154 139.572 69.5699 139.717 69.2702C139.867 68.9657 140.07 68.7023 140.326 68.4799C140.587 68.2576 140.885 68.0739 141.218 67.9289C141.552 67.7839 141.904 67.6776 142.277 67.6099C142.649 67.5374 143.023 67.5012 143.4 67.5012C144.034 67.5012 144.614 67.5954 145.14 67.7839C145.667 67.9724 146.107 68.2262 146.46 68.5452C146.818 68.8642 147.057 69.2243 147.178 69.6254L144.93 70.5897C144.853 70.3384 144.739 70.116 144.589 69.9227C144.44 69.7294 144.256 69.5795 144.038 69.4732C143.826 69.362 143.582 69.3064 143.306 69.3064C143.122 69.3064 142.951 69.3258 142.791 69.3644C142.637 69.4031 142.499 69.4611 142.378 69.5384C142.257 69.6158 142.163 69.7124 142.095 69.8284C142.033 69.9444 142.001 70.0798 142.001 70.2344C142.001 70.4423 142.066 70.6284 142.197 70.7927C142.332 70.9522 142.528 71.0972 142.784 71.2277C143.04 71.3534 143.347 71.4742 143.705 71.5902C144.014 71.6869 144.336 71.798 144.669 71.9237C145.007 72.0494 145.334 72.1968 145.648 72.3659C145.967 72.5351 146.252 72.7357 146.503 72.9677C146.76 73.1997 146.963 73.4704 147.112 73.7797C147.262 74.0842 147.337 74.4394 147.337 74.8454C147.337 75.2998 147.26 75.6985 147.105 76.0417C146.95 76.38 146.738 76.6676 146.467 76.9044C146.201 77.1364 145.894 77.3274 145.546 77.4772C145.198 77.6222 144.829 77.7285 144.437 77.7962C144.05 77.8639 143.664 77.8977 143.277 77.8977ZM151.265 77.7382V69.3354H148.59V67.5882H156.347V69.3354H153.658V77.7382H151.265ZM165.467 77.7382H163.046L162.611 75.5632H159.928L159.493 77.7382H157.072L159.392 67.5882H163.147L165.467 77.7382ZM161.19 69.3354L160.269 73.8159H162.27L161.349 69.3354H161.19ZM166.387 77.7382V67.5882H169.932L172.462 75.7662H172.005V67.5882H174.398V77.7382H171.382L168.685 69.5892H168.779V77.7382H166.387ZM179.486 77.8977C178.819 77.8977 178.203 77.7962 177.637 77.5932C177.076 77.3902 176.6 77.105 176.209 76.7377C175.822 76.3704 175.564 75.9426 175.433 75.4544L177.71 74.5047C177.787 74.7705 177.913 75.0243 178.087 75.2659C178.261 75.5028 178.48 75.7009 178.746 75.8604C179.012 76.0151 179.317 76.0924 179.66 76.0924C179.959 76.0924 180.211 76.0538 180.414 75.9764C180.622 75.8943 180.779 75.7734 180.885 75.6139C180.996 75.4544 181.052 75.2563 181.052 75.0194C181.052 74.8454 180.996 74.6859 180.885 74.5409C180.774 74.3959 180.619 74.263 180.421 74.1422C180.228 74.0165 180.001 73.9029 179.74 73.8014C179.483 73.6951 179.205 73.5936 178.906 73.4969C178.461 73.3568 178.045 73.1997 177.659 73.0257C177.272 72.8517 176.931 72.6439 176.637 72.4022C176.347 72.1557 176.119 71.8633 175.955 71.5249C175.791 71.1818 175.709 70.7758 175.709 70.3069C175.709 69.9154 175.781 69.5699 175.926 69.2702C176.076 68.9657 176.279 68.7023 176.535 68.4799C176.796 68.2576 177.093 68.0739 177.427 67.9289C177.76 67.7839 178.113 67.6776 178.485 67.6099C178.857 67.5374 179.232 67.5012 179.609 67.5012C180.242 67.5012 180.822 67.5954 181.349 67.7839C181.876 67.9724 182.316 68.2262 182.669 68.5452C183.026 68.8642 183.265 69.2243 183.386 69.6254L181.139 70.5897C181.061 70.3384 180.948 70.116 180.798 69.9227C180.648 69.7294 180.465 69.5795 180.247 69.4732C180.034 69.362 179.79 69.3064 179.515 69.3064C179.331 69.3064 179.16 69.3258 179 69.3644C178.845 69.4031 178.708 69.4611 178.587 69.5384C178.466 69.6158 178.372 69.7124 178.304 69.8284C178.241 69.9444 178.21 70.0798 178.21 70.2344C178.21 70.4423 178.275 70.6284 178.406 70.7927C178.541 70.9522 178.737 71.0972 178.993 71.2277C179.249 71.3534 179.556 71.4742 179.914 71.5902C180.223 71.6869 180.544 71.798 180.878 71.9237C181.216 72.0494 181.542 72.1968 181.857 72.3659C182.176 72.5351 182.461 72.7357 182.712 72.9677C182.968 73.1997 183.171 73.4704 183.321 73.7797C183.471 74.0842 183.546 74.4394 183.546 74.8454C183.546 75.2998 183.468 75.6985 183.314 76.0417C183.159 76.38 182.946 76.6676 182.676 76.9044C182.41 77.1364 182.103 77.3274 181.755 77.4772C181.407 77.6222 181.037 77.7285 180.646 77.7962C180.259 77.8639 179.872 77.8977 179.486 77.8977Z" fill="white"/>
<rect x="136.86" y="63.1632" width="49.15" height="18.15" stroke="white" stroke-width="0.15"/>
</g>
<g opacity="0.2">
<path d="M90.9395 129.785L91.0572 112.787C94.3186 112.81 97.5017 113.768 100.231 115.551L90.9395 129.785Z" fill="#00FFCC"/>
<path d="M90.9381 129.785L107.747 132.33C106.484 140.69 99.2673 146.849 90.8154 146.787C81.4244 146.719 73.8662 139.055 73.937 129.666C74.0079 120.278 81.6692 112.721 91.0559 112.787L90.9381 129.785Z" fill="#FF00CC"/>
<path d="M90.9385 129.785L100.23 115.551C105.803 119.191 108.742 125.748 107.748 132.329L90.9385 129.785Z" fill="#0099FF"/>
<g filter="url(#filter14_d)">
<rect x="55.9365" y="97.2382" width="70" height="18" fill="#1C1C1C" fill-opacity="0.75"/>
<path d="M59.3789 111.738V101.588H65.7807V103.335H61.7714V106.576H65.0774V108.323H61.7714V111.738H59.3789ZM75.1725 111.738H72.751L72.316 109.563H69.6335L69.1985 111.738H66.777L69.097 101.588H72.8525L75.1725 111.738ZM70.895 103.335L69.9742 107.816H71.9752L71.0545 103.335H70.895ZM76.0916 111.738V101.588H79.6369L82.1671 109.766H81.7104V101.588H84.1029V111.738H81.0869L78.3899 103.589H78.4841V111.738H76.0916ZM89.5461 111.898C89.1352 111.898 88.7196 111.845 88.2991 111.738C87.8786 111.637 87.4774 111.468 87.0956 111.231C86.7186 110.989 86.3802 110.668 86.0806 110.266C85.7857 109.865 85.5513 109.372 85.3773 108.787C85.2081 108.198 85.1236 107.499 85.1236 106.692C85.1236 105.885 85.2081 105.189 85.3773 104.604C85.5513 104.015 85.7857 103.522 86.0806 103.125C86.3802 102.724 86.721 102.405 87.1028 102.168C87.4846 101.931 87.8858 101.762 88.3063 101.661C88.7268 101.554 89.1425 101.501 89.5533 101.501C89.9931 101.501 90.404 101.559 90.7858 101.675C91.1725 101.791 91.5253 101.96 91.8443 102.183C92.1633 102.405 92.4436 102.678 92.6853 103.002C92.927 103.321 93.1251 103.688 93.2798 104.104L91.1991 105.148C91.1411 104.955 91.0686 104.752 90.9816 104.539C90.8946 104.321 90.7858 104.116 90.6553 103.923C90.5296 103.729 90.375 103.572 90.1913 103.451C90.0125 103.331 89.7998 103.27 89.5533 103.27C89.2971 103.27 89.0482 103.333 88.8066 103.459C88.5697 103.584 88.3571 103.785 88.1686 104.06C87.9801 104.331 87.8302 104.684 87.7191 105.119C87.6127 105.549 87.5596 106.074 87.5596 106.692C87.5596 107.311 87.6127 107.84 87.7191 108.28C87.8302 108.715 87.9801 109.07 88.1686 109.346C88.3571 109.616 88.5697 109.815 88.8066 109.94C89.0434 110.066 89.2899 110.129 89.5461 110.129C89.7926 110.129 90.0052 110.068 90.1841 109.947C90.3677 109.822 90.5248 109.665 90.6553 109.476C90.7858 109.283 90.8946 109.08 90.9816 108.867C91.0686 108.655 91.1411 108.454 91.1991 108.265L93.2798 109.302C93.1251 109.713 92.927 110.08 92.6853 110.404C92.4436 110.723 92.1633 110.994 91.8443 111.216C91.5253 111.439 91.1725 111.608 90.7858 111.724C90.404 111.84 89.9907 111.898 89.5461 111.898ZM102.594 111.738H100.173L99.738 109.563H97.0555L96.6205 111.738H94.199L96.519 101.588H100.274L102.594 111.738ZM98.317 103.335L97.3962 107.816H99.3972L98.4765 103.335H98.317ZM108.56 110.39L109.103 107.345L110.64 101.588H111.924L111.953 103.575L109.959 110.39H108.56ZM103.405 111.738L104.202 101.588H106.406L105.855 111.738H103.405ZM107.98 110.39L105.979 103.575L106.008 101.588H107.291L108.871 107.345L109.35 110.39H107.98ZM112.076 111.738L111.525 101.588H113.729L114.519 111.738H112.076ZM119.501 111.898C118.834 111.898 118.218 111.796 117.653 111.593C117.092 111.39 116.616 111.105 116.224 110.738C115.838 110.37 115.579 109.943 115.449 109.454L117.725 108.505C117.803 108.771 117.928 109.024 118.102 109.266C118.276 109.503 118.496 109.701 118.762 109.86C119.028 110.015 119.332 110.092 119.675 110.092C119.975 110.092 120.226 110.054 120.429 109.976C120.637 109.894 120.794 109.773 120.901 109.614C121.012 109.454 121.067 109.256 121.067 109.019C121.067 108.845 121.012 108.686 120.901 108.541C120.79 108.396 120.635 108.263 120.437 108.142C120.243 108.017 120.016 107.903 119.755 107.801C119.499 107.695 119.221 107.594 118.921 107.497C118.477 107.357 118.061 107.2 117.674 107.026C117.288 106.852 116.947 106.644 116.652 106.402C116.362 106.156 116.135 105.863 115.971 105.525C115.806 105.182 115.724 104.776 115.724 104.307C115.724 103.915 115.797 103.57 115.942 103.27C116.092 102.966 116.295 102.702 116.551 102.48C116.812 102.258 117.109 102.074 117.442 101.929C117.776 101.784 118.129 101.678 118.501 101.61C118.873 101.537 119.248 101.501 119.625 101.501C120.258 101.501 120.838 101.595 121.365 101.784C121.892 101.972 122.331 102.226 122.684 102.545C123.042 102.864 123.281 103.224 123.402 103.625L121.154 104.59C121.077 104.338 120.964 104.116 120.814 103.923C120.664 103.729 120.48 103.58 120.263 103.473C120.05 103.362 119.806 103.306 119.53 103.306C119.347 103.306 119.175 103.326 119.016 103.364C118.861 103.403 118.723 103.461 118.602 103.538C118.482 103.616 118.387 103.712 118.32 103.828C118.257 103.944 118.225 104.08 118.225 104.234C118.225 104.442 118.291 104.628 118.421 104.793C118.557 104.952 118.752 105.097 119.008 105.228C119.265 105.353 119.572 105.474 119.929 105.59C120.239 105.687 120.56 105.798 120.893 105.924C121.232 106.049 121.558 106.197 121.872 106.366C122.191 106.535 122.476 106.736 122.728 106.968C122.984 107.2 123.187 107.47 123.337 107.78C123.487 108.084 123.561 108.439 123.561 108.845C123.561 109.3 123.484 109.699 123.329 110.042C123.175 110.38 122.962 110.668 122.691 110.904C122.426 111.136 122.119 111.327 121.771 111.477C121.423 111.622 121.053 111.729 120.661 111.796C120.275 111.864 119.888 111.898 119.501 111.898Z" fill="white"/>
<rect x="55.8615" y="97.1632" width="70.15" height="18.15" stroke="white" stroke-width="0.15"/>
</g>
</g>
<g opacity="0.2">
<path d="M303.937 140.313L303.937 149.313C308.916 149.313 312.937 145.292 312.937 140.313C312.937 135.334 308.916 131.313 303.937 131.313L303.937 140.313Z" fill="#00FFCC"/>
<path d="M294.937 140.313C294.937 145.923 299.437 149.313 303.937 149.282L303.937 140.313L294.937 140.313Z" fill="#0099FF"/>
<path d="M303.937 131.313C298.957 131.313 294.937 135.334 294.937 140.313L303.937 140.313L303.937 131.313Z" fill="#FF00CC"/>
<g filter="url(#filter15_d)">
<rect x="279.937" y="113.238" width="49" height="18" fill="#1C1C1C" fill-opacity="0.75"/>
<path d="M284.949 127.738V119.335H282.274V117.588H290.031V119.335H287.341V127.738H284.949ZM291.936 127.738V117.588H298.838V119.335H294.329V121.887H298.331V123.613H294.329V125.991H298.838V127.738H291.936ZM301.077 127.738V117.588H307.979V119.335H303.469V121.887H307.471V123.613H303.469V125.991H307.979V127.738H301.077ZM309.565 127.738V117.588H313.11L315.641 125.766H315.184V117.588H317.576V127.738H314.56L311.863 119.589H311.958V127.738H309.565ZM322.664 127.898C321.997 127.898 321.381 127.796 320.816 127.593C320.255 127.39 319.779 127.105 319.387 126.738C319.001 126.37 318.742 125.943 318.612 125.454L320.888 124.505C320.965 124.771 321.091 125.024 321.265 125.266C321.439 125.503 321.659 125.701 321.925 125.86C322.191 126.015 322.495 126.092 322.838 126.092C323.138 126.092 323.389 126.054 323.592 125.976C323.8 125.894 323.957 125.773 324.064 125.614C324.175 125.454 324.23 125.256 324.23 125.019C324.23 124.845 324.175 124.686 324.064 124.541C323.952 124.396 323.798 124.263 323.6 124.142C323.406 124.017 323.179 123.903 322.918 123.801C322.662 123.695 322.384 123.594 322.084 123.497C321.64 123.357 321.224 123.2 320.837 123.026C320.451 122.852 320.11 122.644 319.815 122.402C319.525 122.156 319.298 121.863 319.134 121.525C318.969 121.182 318.887 120.776 318.887 120.307C318.887 119.915 318.96 119.57 319.105 119.27C319.254 118.966 319.457 118.702 319.714 118.48C319.975 118.258 320.272 118.074 320.605 117.929C320.939 117.784 321.292 117.678 321.664 117.61C322.036 117.537 322.411 117.501 322.788 117.501C323.421 117.501 324.001 117.595 324.528 117.784C325.054 117.972 325.494 118.226 325.847 118.545C326.205 118.864 326.444 119.224 326.565 119.625L324.317 120.59C324.24 120.338 324.126 120.116 323.977 119.923C323.827 119.729 323.643 119.58 323.426 119.473C323.213 119.362 322.969 119.306 322.693 119.306C322.51 119.306 322.338 119.326 322.179 119.364C322.024 119.403 321.886 119.461 321.765 119.538C321.644 119.616 321.55 119.712 321.483 119.828C321.42 119.944 321.388 120.08 321.388 120.234C321.388 120.442 321.454 120.628 321.584 120.793C321.719 120.952 321.915 121.097 322.171 121.228C322.427 121.353 322.734 121.474 323.092 121.59C323.401 121.687 323.723 121.798 324.056 121.924C324.395 122.049 324.721 122.197 325.035 122.366C325.354 122.535 325.639 122.736 325.891 122.968C326.147 123.2 326.35 123.47 326.5 123.78C326.649 124.084 326.724 124.439 326.724 124.845C326.724 125.3 326.647 125.699 326.492 126.042C326.338 126.38 326.125 126.668 325.854 126.904C325.588 127.136 325.282 127.327 324.934 127.477C324.586 127.622 324.216 127.729 323.824 127.796C323.438 127.864 323.051 127.898 322.664 127.898Z" fill="white"/>
<rect x="279.862" y="113.163" width="49.15" height="18.15" stroke="white" stroke-width="0.15"/>
</g>
</g>
</g>
<defs>
<filter id="filter0_d" x="-42.2135" y="30.0882" width="94.3" height="26.3" filterUnits="userSpaceOnUse" color-interpolation-filters="sRGB">
<feFlood flood-opacity="0" result="BackgroundImageFix"/>
<feColorMatrix in="SourceAlpha" type="matrix" values="0 0 0 0 0 0 0 0 0 0 0 0 0 0 0 0 0 0 127 0"/>
<feOffset dx="-2" dy="2"/>
<feGaussianBlur stdDeviation="2"/>
<feColorMatrix type="matrix" values="0 0 0 0 0 0 0 0 0 0 0 0 0 0 0 0 0 0 0.9 0"/>
<feBlend mode="normal" in2="BackgroundImageFix" result="effect1_dropShadow"/>
<feBlend mode="normal" in="SourceGraphic" in2="effect1_dropShadow" result="shape"/>
</filter>
<filter id="filter1_d" x="60.7865" y="-10.9118" width="79.3" height="26.3" filterUnits="userSpaceOnUse" color-interpolation-filters="sRGB">
<feFlood flood-opacity="0" result="BackgroundImageFix"/>
<feColorMatrix in="SourceAlpha" type="matrix" values="0 0 0 0 0 0 0 0 0 0 0 0 0 0 0 0 0 0 127 0"/>
<feOffset dx="-2" dy="2"/>
<feGaussianBlur stdDeviation="2"/>
<feColorMatrix type="matrix" values="0 0 0 0 0 0 0 0 0 0 0 0 0 0 0 0 0 0 0.9 0"/>
<feBlend mode="normal" in2="BackgroundImageFix" result="effect1_dropShadow"/>
<feBlend mode="normal" in="SourceGraphic" in2="effect1_dropShadow" result="shape"/>
</filter>
<filter id="filter2_d" x="203.786" y="-15.9118" width="64.3" height="26.3" filterUnits="userSpaceOnUse" color-interpolation-filters="sRGB">
<feFlood flood-opacity="0" result="BackgroundImageFix"/>
<feColorMatrix in="SourceAlpha" type="matrix" values="0 0 0 0 0 0 0 0 0 0 0 0 0 0 0 0 0 0 127 0"/>
<feOffset dx="-2" dy="2"/>
<feGaussianBlur stdDeviation="2"/>
<feColorMatrix type="matrix" values="0 0 0 0 0 0 0 0 0 0 0 0 0 0 0 0 0 0 0.9 0"/>
<feBlend mode="normal" in2="BackgroundImageFix" result="effect1_dropShadow"/>
<feBlend mode="normal" in="SourceGraphic" in2="effect1_dropShadow" result="shape"/>
</filter>
<filter id="filter3_d" x="259.786" y="-3.91183" width="67.3" height="26.3" filterUnits="userSpaceOnUse" color-interpolation-filters="sRGB">
<feFlood flood-opacity="0" result="BackgroundImageFix"/>
<feColorMatrix in="SourceAlpha" type="matrix" values="0 0 0 0 0 0 0 0 0 0 0 0 0 0 0 0 0 0 127 0"/>
<feOffset dx="-2" dy="2"/>
<feGaussianBlur stdDeviation="2"/>
<feColorMatrix type="matrix" values="0 0 0 0 0 0 0 0 0 0 0 0 0 0 0 0 0 0 0.9 0"/>
<feBlend mode="normal" in2="BackgroundImageFix" result="effect1_dropShadow"/>
<feBlend mode="normal" in="SourceGraphic" in2="effect1_dropShadow" result="shape"/>
</filter>
<filter id="filter4_d" x="-17.2135" y="80.0882" width="64.3" height="26.3" filterUnits="userSpaceOnUse" color-interpolation-filters="sRGB">
<feFlood flood-opacity="0" result="BackgroundImageFix"/>
<feColorMatrix in="SourceAlpha" type="matrix" values="0 0 0 0 0 0 0 0 0 0 0 0 0 0 0 0 0 0 127 0"/>
<feOffset dx="-2" dy="2"/>
<feGaussianBlur stdDeviation="2"/>
<feColorMatrix type="matrix" values="0 0 0 0 0 0 0 0 0 0 0 0 0 0 0 0 0 0 0.9 0"/>
<feBlend mode="normal" in2="BackgroundImageFix" result="effect1_dropShadow"/>
<feBlend mode="normal" in="SourceGraphic" in2="effect1_dropShadow" result="shape"/>
</filter>
<filter id="filter5_d" x="-79.2135" y="126.088" width="106.3" height="26.3" filterUnits="userSpaceOnUse" color-interpolation-filters="sRGB">
<feFlood flood-opacity="0" result="BackgroundImageFix"/>
<feColorMatrix in="SourceAlpha" type="matrix" values="0 0 0 0 0 0 0 0 0 0 0 0 0 0 0 0 0 0 127 0"/>
<feOffset dx="-2" dy="2"/>
<feGaussianBlur stdDeviation="2"/>
<feColorMatrix type="matrix" values="0 0 0 0 0 0 0 0 0 0 0 0 0 0 0 0 0 0 0.9 0"/>
<feBlend mode="normal" in2="BackgroundImageFix" result="effect1_dropShadow"/>
<feBlend mode="normal" in="SourceGraphic" in2="effect1_dropShadow" result="shape"/>
</filter>
<filter id="filter6_d" x="136.5" y="214.238" width="107" height="43" filterUnits="userSpaceOnUse" color-interpolation-filters="sRGB">
<feFlood flood-opacity="0" result="BackgroundImageFix"/>
<feColorMatrix in="SourceAlpha" type="matrix" values="0 0 0 0 0 0 0 0 0 0 0 0 0 0 0 0 0 0 127 0"/>
<feOffset dx="-2" dy="2"/>
<feGaussianBlur stdDeviation="1.5"/>
<feColorMatrix type="matrix" values="0 0 0 0 0 0 0 0 0 0 0 0 0 0 0 0 0 0 0.5 0"/>
<feBlend mode="normal" in2="BackgroundImageFix" result="effect1_dropShadow"/>
<feBlend mode="normal" in="SourceGraphic" in2="effect1_dropShadow" result="shape"/>
</filter>
<filter id="filter7_d" x="304.787" y="147.088" width="57.3" height="26.3" filterUnits="userSpaceOnUse" color-interpolation-filters="sRGB">
<feFlood flood-opacity="0" result="BackgroundImageFix"/>
<feColorMatrix in="SourceAlpha" type="matrix" values="0 0 0 0 0 0 0 0 0 0 0 0 0 0 0 0 0 0 127 0"/>
<feOffset dx="-2" dy="2"/>
<feGaussianBlur stdDeviation="2"/>
<feColorMatrix type="matrix" values="0 0 0 0 0 0 0 0 0 0 0 0 0 0 0 0 0 0 0.9 0"/>
<feBlend mode="normal" in2="BackgroundImageFix" result="effect1_dropShadow"/>
<feBlend mode="normal" in="SourceGraphic" in2="effect1_dropShadow" result="shape"/>
</filter>
<filter id="filter8_d" x="-19.2135" y="186.088" width="78.3" height="26.3" filterUnits="userSpaceOnUse" color-interpolation-filters="sRGB">
<feFlood flood-opacity="0" result="BackgroundImageFix"/>
<feColorMatrix in="SourceAlpha" type="matrix" values="0 0 0 0 0 0 0 0 0 0 0 0 0 0 0 0 0 0 127 0"/>
<feOffset dx="-2" dy="2"/>
<feGaussianBlur stdDeviation="2"/>
<feColorMatrix type="matrix" values="0 0 0 0 0 0 0 0 0 0 0 0 0 0 0 0 0 0 0.9 0"/>
<feBlend mode="normal" in2="BackgroundImageFix" result="effect1_dropShadow"/>
<feBlend mode="normal" in="SourceGraphic" in2="effect1_dropShadow" result="shape"/>
</filter>
<filter id="filter9_d" x="4.7865" y="149.088" width="57.3" height="26.3" filterUnits="userSpaceOnUse" color-interpolation-filters="sRGB">
<feFlood flood-opacity="0" result="BackgroundImageFix"/>
<feColorMatrix in="SourceAlpha" type="matrix" values="0 0 0 0 0 0 0 0 0 0 0 0 0 0 0 0 0 0 127 0"/>
<feOffset dx="-2" dy="2"/>
<feGaussianBlur stdDeviation="2"/>
<feColorMatrix type="matrix" values="0 0 0 0 0 0 0 0 0 0 0 0 0 0 0 0 0 0 0.9 0"/>
<feBlend mode="normal" in2="BackgroundImageFix" result="effect1_dropShadow"/>
<feBlend mode="normal" in="SourceGraphic" in2="effect1_dropShadow" result="shape"/>
</filter>
<filter id="filter10_d" x="-29.2135" y="220.088" width="100.3" height="26.3" filterUnits="userSpaceOnUse" color-interpolation-filters="sRGB">
<feFlood flood-opacity="0" result="BackgroundImageFix"/>
<feColorMatrix in="SourceAlpha" type="matrix" values="0 0 0 0 0 0 0 0 0 0 0 0 0 0 0 0 0 0 127 0"/>
<feOffset dx="-2" dy="2"/>
<feGaussianBlur stdDeviation="2"/>
<feColorMatrix type="matrix" values="0 0 0 0 0 0 0 0 0 0 0 0 0 0 0 0 0 0 0.9 0"/>
<feBlend mode="normal" in2="BackgroundImageFix" result="effect1_dropShadow"/>
<feBlend mode="normal" in="SourceGraphic" in2="effect1_dropShadow" result="shape"/>
</filter>
<filter id="filter11_d" x="328.787" y="194.088" width="39.3" height="26.3" filterUnits="userSpaceOnUse" color-interpolation-filters="sRGB">
<feFlood flood-opacity="0" result="BackgroundImageFix"/>
<feColorMatrix in="SourceAlpha" type="matrix" values="0 0 0 0 0 0 0 0 0 0 0 0 0 0 0 0 0 0 127 0"/>
<feOffset dx="-2" dy="2"/>
<feGaussianBlur stdDeviation="2"/>
<feColorMatrix type="matrix" values="0 0 0 0 0 0 0 0 0 0 0 0 0 0 0 0 0 0 0.9 0"/>
<feBlend mode="normal" in2="BackgroundImageFix" result="effect1_dropShadow"/>
<feBlend mode="normal" in="SourceGraphic" in2="effect1_dropShadow" result="shape"/>
</filter>
<filter id="filter12_d" x="216.403" y="56.0882" width="48.3" height="26.3" filterUnits="userSpaceOnUse" color-interpolation-filters="sRGB">
<feFlood flood-opacity="0" result="BackgroundImageFix"/>
<feColorMatrix in="SourceAlpha" type="matrix" values="0 0 0 0 0 0 0 0 0 0 0 0 0 0 0 0 0 0 127 0"/>
<feOffset dx="-2" dy="2"/>
<feGaussianBlur stdDeviation="2"/>
<feColorMatrix type="matrix" values="0 0 0 0 0 0 0 0 0 0 0 0 0 0 0 0 0 0 0.9 0"/>
<feBlend mode="normal" in2="BackgroundImageFix" result="effect1_dropShadow"/>
<feBlend mode="normal" in="SourceGraphic" in2="effect1_dropShadow" result="shape"/>
</filter>
<filter id="filter13_d" x="130.785" y="61.0882" width="57.3" height="26.3" filterUnits="userSpaceOnUse" color-interpolation-filters="sRGB">
<feFlood flood-opacity="0" result="BackgroundImageFix"/>
<feColorMatrix in="SourceAlpha" type="matrix" values="0 0 0 0 0 0 0 0 0 0 0 0 0 0 0 0 0 0 127 0"/>
<feOffset dx="-2" dy="2"/>
<feGaussianBlur stdDeviation="2"/>
<feColorMatrix type="matrix" values="0 0 0 0 0 0 0 0 0 0 0 0 0 0 0 0 0 0 0.9 0"/>
<feBlend mode="normal" in2="BackgroundImageFix" result="effect1_dropShadow"/>
<feBlend mode="normal" in="SourceGraphic" in2="effect1_dropShadow" result="shape"/>
</filter>
<filter id="filter14_d" x="49.7865" y="95.0882" width="78.3" height="26.3" filterUnits="userSpaceOnUse" color-interpolation-filters="sRGB">
<feFlood flood-opacity="0" result="BackgroundImageFix"/>
<feColorMatrix in="SourceAlpha" type="matrix" values="0 0 0 0 0 0 0 0 0 0 0 0 0 0 0 0 0 0 127 0"/>
<feOffset dx="-2" dy="2"/>
<feGaussianBlur stdDeviation="2"/>
<feColorMatrix type="matrix" values="0 0 0 0 0 0 0 0 0 0 0 0 0 0 0 0 0 0 0.9 0"/>
<feBlend mode="normal" in2="BackgroundImageFix" result="effect1_dropShadow"/>
<feBlend mode="normal" in="SourceGraphic" in2="effect1_dropShadow" result="shape"/>
</filter>
<filter id="filter15_d" x="273.786" y="111.088" width="57.3" height="26.3" filterUnits="userSpaceOnUse" color-interpolation-filters="sRGB">
<feFlood flood-opacity="0" result="BackgroundImageFix"/>
<feColorMatrix in="SourceAlpha" type="matrix" values="0 0 0 0 0 0 0 0 0 0 0 0 0 0 0 0 0 0 127 0"/>
<feOffset dx="-2" dy="2"/>
<feGaussianBlur stdDeviation="2"/>
<feColorMatrix type="matrix" values="0 0 0 0 0 0 0 0 0 0 0 0 0 0 0 0 0 0 0.9 0"/>
<feBlend mode="normal" in2="BackgroundImageFix" result="effect1_dropShadow"/>
<feBlend mode="normal" in="SourceGraphic" in2="effect1_dropShadow" result="shape"/>
</filter>
<clipPath id="clip0">
<rect width="404" height="231" fill="white"/>
</clipPath>
</defs>
</svg>
