<?xml version="1.0" encoding="utf-8"?>
<!-- Generator: Adobe Illustrator 24.0.1, SVG Export Plug-In . SVG Version: 6.00 Build 0)  -->
<svg version="1.1" id="Livello_1" xmlns="http://www.w3.org/2000/svg" xmlns:xlink="http://www.w3.org/1999/xlink" x="0px" y="0px"
	 viewBox="0 0 48 48" style="enable-background:new 0 0 48 48;" xml:space="preserve">
<g>
	<path class="st0" d="M29.6,13.3h9.8L28.4,3V12C28.4,12.7,28.9,13.3,29.6,13.3z"/>
	<path class="st0" d="M14.8,25.9h-1.5v2.7h1.5c1,0,1.5-0.6,1.5-1.4C16.4,26.4,15.8,25.9,14.8,25.9z"/>
	<path class="st0" d="M40.2,16.3H28.5c-1.7,0-3.1-1.4-3.1-3.1V2.4c0-0.5-0.4-0.9-0.9-0.9H8.4C7.6,1.6,6.9,2.2,6.9,3v42.1
		c0,0.8,0.7,1.5,1.5,1.5h31.2c0.8,0,1.5-0.7,1.5-1.5v-28C41.1,16.7,40.7,16.3,40.2,16.3z M14.8,30.3h-1.5V33h-1.9v-8.8H15
		c2.1,0,3.4,1.2,3.4,3.1C18.4,29.3,16.8,30.3,14.8,30.3z M23.7,33h-3.4v-8.8h3.4c2.8,0,4.7,1.9,4.7,4.4C28.4,31.1,26.5,33,23.7,33z
		 M37.2,25.9h-4.8v1.9h4.2v1.8h-4.2V33h-1.9v-8.8h6.7V25.9z"/>
	<path class="st0" d="M23.7,25.9h-1.5v5.3h1.5c1.6,0,2.7-1.1,2.7-2.7C26.4,27,25.3,25.9,23.7,25.9z"/>
</g>
</svg>
