<?xml version="1.0" encoding="utf-8"?>
<!-- Generator: Adobe Illustrator 24.1.2, SVG Export Plug-In . SVG Version: 6.00 Build 0)  -->
<svg version="1.1" id="Livello_1" xmlns="http://www.w3.org/2000/svg" xmlns:xlink="http://www.w3.org/1999/xlink" x="0px" y="0px"
	 viewBox="0 0 80 80" style="enable-background:new 0 0 80 80;" xml:space="preserve">
<style type="text/css">
	.st0{fill:#FFFFFF;stroke:#1D1D1B;stroke-width:0.5;stroke-linecap:round;stroke-linejoin:round;stroke-miterlimit:10;}
</style>
<path class="st0" d="M40,0.7l1.8,5.1l2.4-4.9l1.3,5.3l2.8-4.7L48.8,7l3.3-4.3l0.1,5.5l3.7-4l-0.5,5.4L59.6,6l-1,5.4l4.5-3.1
	l-1.7,5.2l4.8-2.6l-2.2,5l5-2.2l-2.6,4.8l5.2-1.6l-3,4.4l5.4-1l-3.6,4.1l5.4-0.5l-4,3.7l5.5,0.1l-4.3,3.3l5.4,0.7l-4.7,2.8l5.3,1.3
	L74,38.3l5.2,1.7l-5.1,1.8l4.9,2.4l-5.3,1.3l4.7,2.8l-5.5,0.6l4.3,3.3l-5.5,0.1l4,3.7l-5.4-0.5l3.5,4.1l-5.4-1l3.1,4.5l-5.2-1.7
	l2.6,4.8l-5-2.2l2.2,5l-4.8-2.6l1.6,5.2l-4.4-3l1,5.4l-4.1-3.6l0.5,5.4l-3.7-4l-0.1,5.5l-3.3-4.3l-0.7,5.4l-2.8-4.7L44,78.9L41.7,74
	L40,79.2l-1.8-5.1L35.9,79l-1.3-5.3l-2.8,4.7l-0.6-5.5l-3.3,4.3l-0.1-5.5l-3.7,4l0.5-5.4l-4.1,3.5l1-5.4l-4.5,3.1l1.6-5.2l-4.8,2.6
	l2.2-5l-5,2.2l2.6-4.8L8.2,63l3.1-4.5l-5.4,1l3.6-4l-5.4,0.5l4-3.7l-5.5-0.1l4.3-3.3l-5.4-0.7l4.7-2.8L1.1,44L6,41.6l-5.2-1.7
	l5.1-1.8L1,35.8l5.3-1.3l-4.7-2.8l5.5-0.6l-4.3-3.3l5.5-0.1l-4-3.7l5.4,0.5l-3.5-4.1l5.4,1l-3.1-4.5l5.2,1.6l-2.6-4.8l5,2.2l-2.2-5
	l4.8,2.6L17,8.2l4.5,3.1l-1-5.4l4,3.6L24,4.2l3.7,4l0.1-5.5L31.2,7l0.7-5.4l2.8,4.7L36,1l2.4,4.9L40,0.7z"/>
</svg>
