<svg xmlns="http://www.w3.org/2000/svg" viewBox="0 0 1920 1000">
  <g id="Background">
    <rect y="-0.06232" width="1924.55218" height="1000.06232" fill="#224"/>
  </g>
  <g id="Continents">
    <polygon points="489.947 405.369 489.947 876.058 972.028 876.058 972.028 708.744 972.028 708.744 972.028 380.469 782.969 380.469 782.969 32.43 309.54 32.43 309.54 406.229 489.947 405.369" fill="none" stroke="#587ef9" stroke-miterlimit="10"/>
    <rect x="203.64801" y="32.42968" width="105.89182" height="30.9929" fill="none" stroke="#587ef9" stroke-miterlimit="10"/>
    <g>
      <path d="M227.769,40.604h2.54688l4.77685,12.294h-2.21289l-1.15918-3.00342h-5.46191L225.09961,52.898H222.9043Zm1.21192,2.19532-2.002,5.19873h4.00391Z" fill="#587ef9"/>
      <path d="M238.46631,52.898h-2.01953V44.1167h2.01953v1.24658a3.054,3.054,0,0,1,2.63476-1.42236,2.89636,2.89636,0,0,1,2.77491,1.563,3.25648,3.25648,0,0,1,2.89746-1.563c2.17822,0,3.144,1.3872,3.144,3.2666V52.898h-2.02v-5.374c0-1.19434-.45654-1.8794-1.54541-1.8794h-.123a2.17074,2.17074,0,0,0-2.03711,2.35352V52.898h-2.01953v-5.374c0-1.19434-.457-1.8794-1.5459-1.8794h-.12255a2.17109,2.17109,0,0,0-2.0376,2.35352Z" fill="#587ef9"/>
      <path d="M255.94287,53.07373c-2.19531,0-4.16211-1.59814-4.16211-4.56641,0-2.81,1.73877-4.5664,4.127-4.5664,2.49415,0,3.89893,1.77392,3.89893,4.19726,0,.15821-.01758.7378-.03516.896h-6.02392a2.35635,2.35635,0,0,0,2.21289,2.38867h.10547a1.64457,1.64457,0,0,0,1.70361-1.22949h2.002A3.62584,3.62584,0,0,1,255.94287,53.07373Zm1.8794-5.60254a1.82623,1.82623,0,0,0-1.897-1.87939h-.12256a1.97175,1.97175,0,0,0-2.00244,1.87939Z" fill="#587ef9"/>
      <path d="M261.72217,44.1167h1.98437v1.82617a2.54225,2.54225,0,0,1,2.54688-1.91406h.59717v1.89648h-.75538a2.16206,2.16206,0,0,0-2.35351,2.459V52.898h-2.01953Z" fill="#587ef9"/>
      <path d="M268.36133,40.604h2.19531v2.17774h-2.19531Zm.07031,3.5127h2.01953V52.898h-2.01953Z" fill="#587ef9"/>
      <path d="M280.40918,49.89453c-.17529,2.07276-1.6333,3.1792-3.79346,3.1792-2.52881,0-4.21484-1.86182-4.21484-4.56641s1.686-4.5664,4.21484-4.5664c2.16016,0,3.61817,1.10644,3.79346,3.17871h-2.01953a1.65405,1.65405,0,0,0-1.72119-1.52783h-.123c-1.4751,0-2.125,1.35254-2.125,2.91552s.6499,2.91553,2.125,2.91553h.123a1.6541,1.6541,0,0,0,1.72119-1.52832Z" fill="#587ef9"/>
      <path d="M284.6084,53.07373a2.664,2.664,0,0,1-2.88037-2.582c0-1.94922,1.59814-2.70459,3.19629-2.82764l2.30078-.19287V47.2251a1.51236,1.51236,0,0,0-1.59815-1.6333h-.10547a1.46151,1.46151,0,0,0-1.59814,1.17675h-2.02c.14063-1.6333,1.56348-2.82763,3.6709-2.82763,2.248,0,3.63574,1.2998,3.63574,3.23144v3.79346a14.95507,14.95507,0,0,0,.0874,1.93213h-1.89648a10.6,10.6,0,0,1-.10547-1.21191A3.08332,3.08332,0,0,1,284.6084,53.07373Zm.47412-1.65088a2.10282,2.10282,0,0,0,2.14258-1.93213v-.50927l-2.01953.17578c-.773.07031-1.49317.45654-1.49317,1.21191a1.12312,1.12312,0,0,0,1.24707,1.05371Z" fill="#587ef9"/>
    </g>
    <rect x="1041.13361" y="845.06506" width="105.89182" height="30.9929" fill="none" stroke="#587ef9" stroke-miterlimit="10"/>
    <g>
      <path d="M1081.61719,853.23926h2.5459l4.77734,12.29394h-2.21289l-1.15918-3.00293h-5.46191l-1.15918,3.00293H1076.752Zm1.21191,2.19531-2.00293,5.19824h4.00488Z" fill="#587ef9"/>
      <path d="M1089.64355,862.70605h2.03809a1.51815,1.51815,0,0,0,1.68555,1.4043h.14062c.79,0,1.37012-.38574,1.37012-.9834,0-.50879-.29883-.82519-1.03613-.9834l-1.19434-.26367c-1.66894-.38574-2.65234-1.1416-2.65234-2.59863,0-1.65137,1.44043-2.70508,3.44238-2.70508,2.30078,0,3.54785,1.17676,3.54785,3.00293h-2.01953a1.41925,1.41925,0,0,0-1.49316-1.4043h-.15821c-.75488,0-1.2998.4209-1.2998.9834,0,.49121.36914.80762,1.15918.9834l1.26465.29883c1.5459.35059,2.459,1.124,2.459,2.59863,0,1.52832-1.31738,2.66992-3.54785,2.66992C1090.99609,865.709,1089.67871,864.53223,1089.64355,862.70605Z" fill="#587ef9"/>
      <path d="M1098.86523,853.23926h2.19532V855.417h-2.19532Zm.07032,3.51269h2.01953v8.78125h-2.01953Z" fill="#587ef9"/>
      <path d="M1105.7334,865.709a2.66411,2.66411,0,0,1-2.88086-2.582c0-1.94922,1.59863-2.7041,3.19726-2.82715l2.30079-.19335v-.2461a1.51312,1.51312,0,0,0-1.59864-1.63379h-.10547a1.46245,1.46245,0,0,0-1.59863,1.17676h-2.01953c.14063-1.63281,1.56348-2.82715,3.6709-2.82715,2.248,0,3.63574,1.29981,3.63574,3.23145v3.79394a14.86861,14.86861,0,0,0,.08789,1.93164h-1.89746a10.60923,10.60923,0,0,1-.10547-1.21191A3.08225,3.08225,0,0,1,1105.7334,865.709Zm.47363-1.65136a2.10335,2.10335,0,0,0,2.14356-1.93164v-.50977l-2.02051.17578c-.77246.07031-1.49219.457-1.49219,1.21192a1.12226,1.12226,0,0,0,1.24707,1.05371Z" fill="#587ef9"/>
    </g>
    <polyline points="1316.22 133.21 1316.2 127.82 1316.2 32 1861.03 32 1861.03 845.07 1041.13 845.07 1041.13 552.34 1064.49 552.34" fill="none" stroke="#587ef9" stroke-linecap="round" stroke-miterlimit="10"/>
    <polyline points="1317.06 370.45 1317.06 360.89 1316.54 230.17 1316.51 221.77" fill="none" stroke="#587ef9" stroke-linecap="round" stroke-miterlimit="10"/>
    <rect x="1196.12876" y="85.60381" width="105.89182" height="30.9929" fill="none" stroke="#587ef9" stroke-miterlimit="10"/>
    <g>
      <path d="M1221.62109,93.77832h9.168v1.87939h-7.06054v3.16114h6.00586v1.87939h-6.00586v3.49463h7.23535v1.8794h-9.34278Z" fill="#587ef9"/>
      <path d="M1240.37891,106.07227h-2.01953v-1.43995a2.86769,2.86769,0,0,1-2.66993,1.61573c-2.002,0-2.96777-1.37012-2.96777-3.2666V97.291h2.01953v5.3916c0,1.26465.52734,1.91455,1.49317,1.91455h.1582a2.24288,2.24288,0,0,0,1.9668-2.47656V97.291h2.01953Z" fill="#587ef9"/>
      <path d="M1242.83887,97.291h1.98437v1.82617a2.54223,2.54223,0,0,1,2.54688-1.91407h.59668v1.89649h-.75489a2.16185,2.16185,0,0,0-2.35351,2.459v4.51368h-2.01953Z" fill="#587ef9"/>
      <path d="M1248.77539,101.68164a4.3191,4.3191,0,1,1,4.30371,4.56641A4.27156,4.27156,0,0,1,1248.77539,101.68164Zm6.58691,0c0-1.84424-.89648-2.91553-2.19628-2.91553h-.15723c-1.29981,0-2.21289,1.07129-2.21289,2.91553s.91308,2.91553,2.21289,2.91553h.15723C1254.46582,104.59717,1255.3623,103.52588,1255.3623,101.68164Z" fill="#587ef9"/>
      <path d="M1267.88477,101.68164c0,2.59912-1.50977,4.56641-3.916,4.56641a3.08567,3.08567,0,0,1-2.61719-1.35254V109.585H1259.332V97.291h2.01953v1.17675a3.223,3.223,0,0,1,2.6875-1.35254C1266.44531,97.11523,1267.88477,99.082,1267.88477,101.68164Zm-6.53321,0c0,1.86133,1.07129,2.91553,2.21289,2.91553h.14063c1.22949,0,2.16015-1.0542,2.16015-2.898,0-1.86182-.93066-2.93311-2.16015-2.93311h-.14063C1262.42285,98.76611,1261.35156,99.81982,1261.35156,101.68164Z" fill="#587ef9"/>
      <path d="M1273.48926,106.24805c-2.19531,0-4.16309-1.59815-4.16309-4.56641,0-2.81006,1.73926-4.56641,4.12793-4.56641,2.49317,0,3.89844,1.77393,3.89844,4.19727,0,.1582-.01758.73779-.03516.896H1271.294a2.35634,2.35634,0,0,0,2.21289,2.38867h.10546a1.6439,1.6439,0,0,0,1.70313-1.22949h2.00195A3.62532,3.62532,0,0,1,1273.48926,106.24805Zm1.8789-5.60254a1.82611,1.82611,0,0,0-1.89648-1.8794h-.12305a1.971,1.971,0,0,0-2.00195,1.8794Z" fill="#587ef9"/>
    </g>
    <polyline points="1302.02 215.84 1302.02 224.93 1302.02 313.36 1302.02 354.69 1302.02 363.61" fill="none" stroke="#587ef9" stroke-linecap="round" stroke-miterlimit="10"/>
    <rect x="1597.44887" y="860.96317" width="105.89182" height="30.9929" fill="none" stroke="#587ef9" stroke-miterlimit="10"/>
    <g>
      <path d="M1618.43555,875.28418c0-3.95117,2.459-6.32227,5.88379-6.32227,3.44238,0,5.90136,2.3711,5.90136,6.32227,0,3.95215-2.459,6.32324-5.90136,6.32324C1620.89453,881.60742,1618.43555,879.23633,1618.43555,875.28418Zm5.97168,4.44434c2.23047,0,3.70605-1.65137,3.70605-4.44434,0-2.792-1.47558-4.44336-3.70605-4.44336h-.17578c-2.23047,0-3.68848,1.65137-3.68848,4.44336,0,2.793,1.458,4.44434,3.68848,4.44434Z" fill="#587ef9"/>
      <path d="M1639.75781,878.42871c-.17578,2.07227-1.63281,3.17871-3.793,3.17871-2.52929,0-4.21582-1.86133-4.21582-4.5664s1.68653-4.56641,4.21582-4.56641c2.16016,0,3.61719,1.10644,3.793,3.17871h-2.01953a1.654,1.654,0,0,0-1.7207-1.52832h-.123c-1.47558,0-2.125,1.35254-2.125,2.916s.64942,2.915,2.125,2.915h.123a1.65319,1.65319,0,0,0,1.7207-1.52734Z" fill="#587ef9"/>
      <path d="M1645.292,881.60742c-2.19531,0-4.16308-1.59863-4.16308-4.5664,0-2.81055,1.73925-4.56641,4.12793-4.56641,2.49316,0,3.89843,1.77344,3.89843,4.19727,0,.1582-.01757.73828-.03515.8955h-6.02344a2.356,2.356,0,0,0,2.21289,2.38867h.10547a1.6434,1.6434,0,0,0,1.70312-1.22949h2.002A3.62527,3.62527,0,0,1,1645.292,881.60742Zm1.87891-5.60254a1.82652,1.82652,0,0,0-1.89649-1.87988h-.123a1.97149,1.97149,0,0,0-2.002,1.87988Z" fill="#587ef9"/>
      <path d="M1653.38867,881.60742a2.66411,2.66411,0,0,1-2.88086-2.582c0-1.94922,1.59864-2.7041,3.19727-2.82715l2.30078-.19336v-.24609a1.51311,1.51311,0,0,0-1.59863-1.63379h-.10547a1.46246,1.46246,0,0,0-1.59864,1.17676h-2.01953c.14063-1.63281,1.56348-2.82715,3.6709-2.82715,2.24805,0,3.63574,1.2998,3.63574,3.23144V879.5a14.86869,14.86869,0,0,0,.08789,1.93164h-1.89746a10.6068,10.6068,0,0,1-.10546-1.21191A3.08228,3.08228,0,0,1,1653.38867,881.60742Zm.47363-1.65137a2.10333,2.10333,0,0,0,2.14356-1.93164v-.50976l-2.02051.17578c-.77246.07031-1.49219.457-1.49219,1.21191a1.12226,1.12226,0,0,0,1.24707,1.05371Z" fill="#587ef9"/>
      <path d="M1662.39941,881.43164h-2.01953v-8.78125h2.01953V873.915a3.116,3.116,0,0,1,2.72266-1.44043,2.91271,2.91271,0,0,1,3.1084,3.23144v5.72559h-2.01953v-5.42676c0-1.17676-.52735-1.87988-1.5459-1.87988h-.1582a2.23962,2.23962,0,0,0-2.10743,2.40625Z" fill="#587ef9"/>
      <path d="M1670.53223,869.1377h2.19531v2.17773h-2.19531Zm.07031,3.51269h2.01953v8.78125h-2.01953Z" fill="#587ef9"/>
      <path d="M1677.39941,881.60742a2.66411,2.66411,0,0,1-2.88086-2.582c0-1.94922,1.59864-2.7041,3.19727-2.82715l2.30078-.19336v-.24609a1.51311,1.51311,0,0,0-1.59863-1.63379h-.10547a1.46244,1.46244,0,0,0-1.59863,1.17676h-2.01953c.14062-1.63281,1.56347-2.82715,3.67089-2.82715,2.248,0,3.63575,1.2998,3.63575,3.23144V879.5a14.86869,14.86869,0,0,0,.08789,1.93164h-1.89746a10.607,10.607,0,0,1-.10547-1.21191A3.08228,3.08228,0,0,1,1677.39941,881.60742Zm.47364-1.65137a2.10333,2.10333,0,0,0,2.14355-1.93164v-.50976l-2.02051.17578c-.77246.07031-1.49218.457-1.49218,1.21191a1.12225,1.12225,0,0,0,1.24707,1.05371Z" fill="#587ef9"/>
    </g>
    <rect x="1703.34069" y="860.96317" width="157.26236" height="110.85707" fill="none" stroke="#587ef9" stroke-miterlimit="10"/>
  </g>
  <g id="Continents-Body">
    <polygon points="489.947 405.369 489.947 876.058 972.028 876.058 972.028 708.744 972.028 708.744 972.028 380.469 782.969 380.469 782.969 32.43 309.54 32.43 309.54 406.229 489.947 405.369" fill="none" stroke="#587ef9" stroke-miterlimit="10"/>
    <rect x="203.64801" y="32.42968" width="105.89182" height="30.9929" fill="none" stroke="#587ef9" stroke-miterlimit="10"/>
    <g>
      <path d="M227.769,40.604h2.54688l4.77685,12.294h-2.21289l-1.15918-3.00342h-5.46191L225.09961,52.898H222.9043Zm1.21192,2.19532-2.002,5.19873h4.00391Z" fill="#587ef9"/>
      <path d="M238.46631,52.898h-2.01953V44.1167h2.01953v1.24658a3.054,3.054,0,0,1,2.63476-1.42236,2.89636,2.89636,0,0,1,2.77491,1.563,3.25648,3.25648,0,0,1,2.89746-1.563c2.17822,0,3.144,1.3872,3.144,3.2666V52.898h-2.02v-5.374c0-1.19434-.45654-1.8794-1.54541-1.8794h-.123a2.17074,2.17074,0,0,0-2.03711,2.35352V52.898h-2.01953v-5.374c0-1.19434-.457-1.8794-1.5459-1.8794h-.12255a2.17109,2.17109,0,0,0-2.0376,2.35352Z" fill="#587ef9"/>
      <path d="M255.94287,53.07373c-2.19531,0-4.16211-1.59814-4.16211-4.56641,0-2.81,1.73877-4.5664,4.127-4.5664,2.49415,0,3.89893,1.77392,3.89893,4.19726,0,.15821-.01758.7378-.03516.896h-6.02392a2.35635,2.35635,0,0,0,2.21289,2.38867h.10547a1.64457,1.64457,0,0,0,1.70361-1.22949h2.002A3.62584,3.62584,0,0,1,255.94287,53.07373Zm1.8794-5.60254a1.82623,1.82623,0,0,0-1.897-1.87939h-.12256a1.97175,1.97175,0,0,0-2.00244,1.87939Z" fill="#587ef9"/>
      <path d="M261.72217,44.1167h1.98437v1.82617a2.54225,2.54225,0,0,1,2.54688-1.91406h.59717v1.89648h-.75538a2.16206,2.16206,0,0,0-2.35351,2.459V52.898h-2.01953Z" fill="#587ef9"/>
      <path d="M268.36133,40.604h2.19531v2.17774h-2.19531Zm.07031,3.5127h2.01953V52.898h-2.01953Z" fill="#587ef9"/>
      <path d="M280.40918,49.89453c-.17529,2.07276-1.6333,3.1792-3.79346,3.1792-2.52881,0-4.21484-1.86182-4.21484-4.56641s1.686-4.5664,4.21484-4.5664c2.16016,0,3.61817,1.10644,3.79346,3.17871h-2.01953a1.65405,1.65405,0,0,0-1.72119-1.52783h-.123c-1.4751,0-2.125,1.35254-2.125,2.91552s.6499,2.91553,2.125,2.91553h.123a1.6541,1.6541,0,0,0,1.72119-1.52832Z" fill="#587ef9"/>
      <path d="M284.6084,53.07373a2.664,2.664,0,0,1-2.88037-2.582c0-1.94922,1.59814-2.70459,3.19629-2.82764l2.30078-.19287V47.2251a1.51236,1.51236,0,0,0-1.59815-1.6333h-.10547a1.46151,1.46151,0,0,0-1.59814,1.17675h-2.02c.14063-1.6333,1.56348-2.82763,3.6709-2.82763,2.248,0,3.63574,1.2998,3.63574,3.23144v3.79346a14.95507,14.95507,0,0,0,.0874,1.93213h-1.89648a10.6,10.6,0,0,1-.10547-1.21191A3.08332,3.08332,0,0,1,284.6084,53.07373Zm.47412-1.65088a2.10282,2.10282,0,0,0,2.14258-1.93213v-.50927l-2.01953.17578c-.773.07031-1.49317.45654-1.49317,1.21191a1.12312,1.12312,0,0,0,1.24707,1.05371Z" fill="#587ef9"/>
    </g>
    <rect x="1041.13361" y="845.06506" width="105.89182" height="30.9929" fill="none" stroke="#587ef9" stroke-miterlimit="10"/>
    <g>
      <path d="M1081.61719,853.23926h2.5459l4.77734,12.29394h-2.21289l-1.15918-3.00293h-5.46191l-1.15918,3.00293H1076.752Zm1.21191,2.19531-2.00293,5.19824h4.00488Z" fill="#587ef9"/>
      <path d="M1089.64355,862.70605h2.03809a1.51815,1.51815,0,0,0,1.68555,1.4043h.14062c.79,0,1.37012-.38574,1.37012-.9834,0-.50879-.29883-.82519-1.03613-.9834l-1.19434-.26367c-1.66894-.38574-2.65234-1.1416-2.65234-2.59863,0-1.65137,1.44043-2.70508,3.44238-2.70508,2.30078,0,3.54785,1.17676,3.54785,3.00293h-2.01953a1.41925,1.41925,0,0,0-1.49316-1.4043h-.15821c-.75488,0-1.2998.4209-1.2998.9834,0,.49121.36914.80762,1.15918.9834l1.26465.29883c1.5459.35059,2.459,1.124,2.459,2.59863,0,1.52832-1.31738,2.66992-3.54785,2.66992C1090.99609,865.709,1089.67871,864.53223,1089.64355,862.70605Z" fill="#587ef9"/>
      <path d="M1098.86523,853.23926h2.19532V855.417h-2.19532Zm.07032,3.51269h2.01953v8.78125h-2.01953Z" fill="#587ef9"/>
      <path d="M1105.7334,865.709a2.66411,2.66411,0,0,1-2.88086-2.582c0-1.94922,1.59863-2.7041,3.19726-2.82715l2.30079-.19335v-.2461a1.51312,1.51312,0,0,0-1.59864-1.63379h-.10547a1.46245,1.46245,0,0,0-1.59863,1.17676h-2.01953c.14063-1.63281,1.56348-2.82715,3.6709-2.82715,2.248,0,3.63574,1.29981,3.63574,3.23145v3.79394a14.86861,14.86861,0,0,0,.08789,1.93164h-1.89746a10.60923,10.60923,0,0,1-.10547-1.21191A3.08225,3.08225,0,0,1,1105.7334,865.709Zm.47363-1.65136a2.10335,2.10335,0,0,0,2.14356-1.93164v-.50977l-2.02051.17578c-.77246.07031-1.49219.457-1.49219,1.21192a1.12226,1.12226,0,0,0,1.24707,1.05371Z" fill="#587ef9"/>
    </g>
    <polyline points="1316.22 133.21 1316.2 127.82 1316.2 32 1861.03 32 1861.03 845.07 1041.13 845.07 1041.13 552.34 1317.06 552.34" fill="none" stroke="#587ef9" stroke-linecap="round" stroke-miterlimit="10"/>
    <polyline points="1316.51 133.21 1316.54 230.17 1317.06 360.89 1317.06 552.34" fill="none" stroke="#587ef9" stroke-linecap="round" stroke-miterlimit="10"/>
    <rect x="1196.12876" y="85.60381" width="105.89182" height="30.9929" fill="none" stroke="#587ef9" stroke-miterlimit="10"/>
    <g>
      <path d="M1221.62109,93.77832h9.168v1.87939h-7.06054v3.16114h6.00586v1.87939h-6.00586v3.49463h7.23535v1.8794h-9.34278Z" fill="#587ef9"/>
      <path d="M1240.37891,106.07227h-2.01953v-1.43995a2.86769,2.86769,0,0,1-2.66993,1.61573c-2.002,0-2.96777-1.37012-2.96777-3.2666V97.291h2.01953v5.3916c0,1.26465.52734,1.91455,1.49317,1.91455h.1582a2.24288,2.24288,0,0,0,1.9668-2.47656V97.291h2.01953Z" fill="#587ef9"/>
      <path d="M1242.83887,97.291h1.98437v1.82617a2.54223,2.54223,0,0,1,2.54688-1.91407h.59668v1.89649h-.75489a2.16185,2.16185,0,0,0-2.35351,2.459v4.51368h-2.01953Z" fill="#587ef9"/>
      <path d="M1248.77539,101.68164a4.3191,4.3191,0,1,1,4.30371,4.56641A4.27156,4.27156,0,0,1,1248.77539,101.68164Zm6.58691,0c0-1.84424-.89648-2.91553-2.19628-2.91553h-.15723c-1.29981,0-2.21289,1.07129-2.21289,2.91553s.91308,2.91553,2.21289,2.91553h.15723C1254.46582,104.59717,1255.3623,103.52588,1255.3623,101.68164Z" fill="#587ef9"/>
      <path d="M1267.88477,101.68164c0,2.59912-1.50977,4.56641-3.916,4.56641a3.08567,3.08567,0,0,1-2.61719-1.35254V109.585H1259.332V97.291h2.01953v1.17675a3.223,3.223,0,0,1,2.6875-1.35254C1266.44531,97.11523,1267.88477,99.082,1267.88477,101.68164Zm-6.53321,0c0,1.86133,1.07129,2.91553,2.21289,2.91553h.14063c1.22949,0,2.16015-1.0542,2.16015-2.898,0-1.86182-.93066-2.93311-2.16015-2.93311h-.14063C1262.42285,98.76611,1261.35156,99.81982,1261.35156,101.68164Z" fill="#587ef9"/>
      <path d="M1273.48926,106.24805c-2.19531,0-4.16309-1.59815-4.16309-4.56641,0-2.81006,1.73926-4.56641,4.12793-4.56641,2.49317,0,3.89844,1.77393,3.89844,4.19727,0,.1582-.01758.73779-.03516.896H1271.294a2.35634,2.35634,0,0,0,2.21289,2.38867h.10546a1.6439,1.6439,0,0,0,1.70313-1.22949h2.00195A3.62532,3.62532,0,0,1,1273.48926,106.24805Zm1.8789-5.60254a1.82611,1.82611,0,0,0-1.89648-1.8794h-.12305a1.971,1.971,0,0,0-2.00195,1.8794Z" fill="#587ef9"/>
    </g>
    <polyline points="1301.959 536.332 1053.109 536.332 986.579 536.332 986.64 365.86 796.72 365.86 796.72 32 1172.26 32 1172.26 116.65 1302.02 116.65 1302.02 131.26 1302.02 221.77" fill="none" stroke="#587ef9" stroke-linecap="round" stroke-miterlimit="10"/>
    <polyline points="1302.02 215.84 1302.02 224.93 1302.02 313.36 1302.02 354.69 1301.959 536.332" fill="none" stroke="#587ef9" stroke-linecap="round" stroke-miterlimit="10"/>
    <rect x="1597.44887" y="860.96317" width="105.89182" height="30.9929" fill="none" stroke="#587ef9" stroke-miterlimit="10"/>
    <g>
      <path d="M1618.43555,875.28418c0-3.95117,2.459-6.32227,5.88379-6.32227,3.44238,0,5.90136,2.3711,5.90136,6.32227,0,3.95215-2.459,6.32324-5.90136,6.32324C1620.89453,881.60742,1618.43555,879.23633,1618.43555,875.28418Zm5.97168,4.44434c2.23047,0,3.70605-1.65137,3.70605-4.44434,0-2.792-1.47558-4.44336-3.70605-4.44336h-.17578c-2.23047,0-3.68848,1.65137-3.68848,4.44336,0,2.793,1.458,4.44434,3.68848,4.44434Z" fill="#587ef9"/>
      <path d="M1639.75781,878.42871c-.17578,2.07227-1.63281,3.17871-3.793,3.17871-2.52929,0-4.21582-1.86133-4.21582-4.5664s1.68653-4.56641,4.21582-4.56641c2.16016,0,3.61719,1.10644,3.793,3.17871h-2.01953a1.654,1.654,0,0,0-1.7207-1.52832h-.123c-1.47558,0-2.125,1.35254-2.125,2.916s.64942,2.915,2.125,2.915h.123a1.65319,1.65319,0,0,0,1.7207-1.52734Z" fill="#587ef9"/>
      <path d="M1645.292,881.60742c-2.19531,0-4.16308-1.59863-4.16308-4.5664,0-2.81055,1.73925-4.56641,4.12793-4.56641,2.49316,0,3.89843,1.77344,3.89843,4.19727,0,.1582-.01757.73828-.03515.8955h-6.02344a2.356,2.356,0,0,0,2.21289,2.38867h.10547a1.6434,1.6434,0,0,0,1.70312-1.22949h2.002A3.62527,3.62527,0,0,1,1645.292,881.60742Zm1.87891-5.60254a1.82652,1.82652,0,0,0-1.89649-1.87988h-.123a1.97149,1.97149,0,0,0-2.002,1.87988Z" fill="#587ef9"/>
      <path d="M1653.38867,881.60742a2.66411,2.66411,0,0,1-2.88086-2.582c0-1.94922,1.59864-2.7041,3.19727-2.82715l2.30078-.19336v-.24609a1.51311,1.51311,0,0,0-1.59863-1.63379h-.10547a1.46246,1.46246,0,0,0-1.59864,1.17676h-2.01953c.14063-1.63281,1.56348-2.82715,3.6709-2.82715,2.24805,0,3.63574,1.2998,3.63574,3.23144V879.5a14.86869,14.86869,0,0,0,.08789,1.93164h-1.89746a10.6068,10.6068,0,0,1-.10546-1.21191A3.08228,3.08228,0,0,1,1653.38867,881.60742Zm.47363-1.65137a2.10333,2.10333,0,0,0,2.14356-1.93164v-.50976l-2.02051.17578c-.77246.07031-1.49219.457-1.49219,1.21191a1.12226,1.12226,0,0,0,1.24707,1.05371Z" fill="#587ef9"/>
      <path d="M1662.39941,881.43164h-2.01953v-8.78125h2.01953V873.915a3.116,3.116,0,0,1,2.72266-1.44043,2.91271,2.91271,0,0,1,3.1084,3.23144v5.72559h-2.01953v-5.42676c0-1.17676-.52735-1.87988-1.5459-1.87988h-.1582a2.23962,2.23962,0,0,0-2.10743,2.40625Z" fill="#587ef9"/>
      <path d="M1670.53223,869.1377h2.19531v2.17773h-2.19531Zm.07031,3.51269h2.01953v8.78125h-2.01953Z" fill="#587ef9"/>
      <path d="M1677.39941,881.60742a2.66411,2.66411,0,0,1-2.88086-2.582c0-1.94922,1.59864-2.7041,3.19727-2.82715l2.30078-.19336v-.24609a1.51311,1.51311,0,0,0-1.59863-1.63379h-.10547a1.46244,1.46244,0,0,0-1.59863,1.17676h-2.01953c.14062-1.63281,1.56347-2.82715,3.67089-2.82715,2.248,0,3.63575,1.2998,3.63575,3.23144V879.5a14.86869,14.86869,0,0,0,.08789,1.93164h-1.89746a10.607,10.607,0,0,1-.10547-1.21191A3.08228,3.08228,0,0,1,1677.39941,881.60742Zm.47364-1.65137a2.10333,2.10333,0,0,0,2.14355-1.93164v-.50976l-2.02051.17578c-.77246.07031-1.49218.457-1.49218,1.21191a1.12225,1.12225,0,0,0,1.24707,1.05371Z" fill="#587ef9"/>
    </g>
    <rect x="1703.34069" y="860.96317" width="157.26236" height="110.85707" fill="none" stroke="#587ef9" stroke-miterlimit="10"/>
  </g>
  <g id="Body">
    <g id="Body-Shape">
      <path d="M312.41158,750.57864c.00293-.13793.0081-.276.01033-.41394.02974-1.86.223-3.72756.11169-5.57793-.40473-6.7251-1.40838-13.45537-1.26109-20.1633a93.08377,93.08377,0,0,0-5.22542-34.17669,6.67891,6.67891,0,0,1-.49631-2.69989c.99178-12.1806-7.18512-61.119-11.077-68.86057-3.29408-6.55227-8.17871-11.44528-15.50218-13.06977a36.98183,36.98183,0,0,1-11.92009-5.0269c-3.31389-2.09609-6.62556-4.22764-10.10238-6.02636a12.05247,12.05247,0,0,1-6.77256-8.55607c1.0761-1.4645,2.48824-2.7482,3.09987-4.33947,1.12567-2.92829,2.15556-5.8975,3.1137-8.88862,5.407-1.20594,6.67624-10.3809,3.99379-12.89037-1.37264-1.28412-2.53488-1.1198-3.38957-.583.80122-2.468,2.05749-11.0352.143-15.82834-2.583-6.46686-10.58323-10.3779-18.91836-10.56249-8.2387-.18246-17.81631,3.07126-20.49387,10.55248-2.67491,7.47424-1.28231,12.5937-.48458,15.97824l-.00028.00768c-.86949-.64834-2.11773-.9626-3.61224.43544-2.71247,2.53767-1.3873,11.89678,4.17458,12.933a48.82608,48.82608,0,0,0,2.24268,5.84836c.952,2.1275,2.12429,4.15588,3.18588,6.23494.27516.53917.8195,1.19854.69092,1.64417-.80736,2.79707-1.79872,5.40273-4.6251,7.03308-4.57639,2.63972-8.91892,5.68292-13.47757,8.35531a21.85914,21.85914,0,0,1-6.75833,2.89242c-11.12879,2.07306-17.26376,9.25412-20.55714,19.471-2.22341,6.89766-9.79817,50.28644-8.82384,63.1736a7.4202,7.4202,0,0,1-.54671,2.94407,78.78845,78.78845,0,0,0-4.791,21.918c-.61721,10.20876-1.03659,20.42939-1.541,30.645-.09228,1.86867-.29388,3.73957-.257,5.60572.01005.50636.02974,1.01244.0416,1.51867h.10639L162.54,756.398s.18568,12.5454.97322,15.99095a41.45179,41.45179,0,0,0,3.54369,8.39315s3.15,4.064,4.88254,5.21258c1.73241,1.14842,4.33123,2.562,3.62244,0-.67-2.42194-4.64242-5.553-5.47491-7.754,1.46576.55969,4.12949,1.57618,4.80548,1.82971.945.35433.98438-.8269.98438-.8269-.7254-2.2801-4.409-4.51942-6.84935-5.78889a15.53516,15.53516,0,0,1,.2344-6.05721c1.1025-4.37325,2.36247-6.22851,4.41-6.14014,2.0475.08823,2.59882,4.24062,4.96128,5.65416s2.99238-.7067,2.99238-.7067c-2.205-2.29712-1.41745-7.86305-2.1261-11.13186a9.50768,9.50768,0,0,0-2.945-4.969,10.13321,10.13321,0,0,1,.43725-3.33581c3.70243-12.1376,7.5488-24.25273,10.58068-36.56414,1.48754-6.04,1.63287-12.48188,1.74693-18.75339a21.83682,21.83682,0,0,1,.91667-7.15831c2.01568-5.70386,3.87331-11.4637,5.80173-17.19856.1981-.58957.44451-1.16294.66845-1.74372q.40731.0268.81448.054c.93147,12.40091,2.0535,24.7919,2.71343,37.20718a115.56506,115.56506,0,0,1-.43585,18.37407c-1.48935,13.9003-4.01753,27.709-5.04547,41.63431-1.32154,17.90387,1.5343,35.64384,5.25628,53.07a143.69566,143.69566,0,0,1,3.55081,32.17484c-.04426,3.1747-.91667,6.34634-1.50136,9.50248-.55759,3.01108-1.46645,5.97317-1.81882,9.00366-1.38143,11.87737.338,23.54784,3.41623,34.94439,2.61641,9.68691,5.99844,19.17417,9.23555,28.68391,1.55427,4.56619,3.136,9.08519,3.413,13.84767a33.39344,33.39344,0,0,0-1.99152,8.06842c-.21011,3.465-10.92007,11.02492-12.39,15.11993s.84,4.97608.84,4.97608h26.56479c2.73,0,4.2-2.03606,4.2-5.396,0-3.22245-2.93569-21.60685-3.17624-23.1089-1.23358-15.784-1.67028-31.56935.53359-47.32841,1.67921-12.00874.35558-23.83459-2.27284-35.556a26.2985,26.2985,0,0,1,.805-14.08794,54.10558,54.10558,0,0,0,2.47345-11.66237c1.74679-20.65751,3.26168-41.33471,4.86216-62.00465.197-2.54521.42329-5.088.63606-7.632a1.51345,1.51345,0,0,1,.65351,1.2125c1.60117,21.09756,3.14176,42.2,4.831,63.29059.44661,5.57543.40152,11.24508,2.74821,16.5593,2.065,4.67634,2.081,9.53054.96525,14.53524-2.53683,11.37939-3.84748,22.871-2.3256,34.5447a105.52093,105.52093,0,0,1,1.25285,11.65846c.21807,12.13146.70111,24.27045-.51949,36.36324l-.04774-.00154s-3.1937,19.8577-3.1937,23.2178c0,3.36,1.47008,5.396,4.2,5.396h26.56492s2.30983-.88107.84-4.97608c-1.47009-4.095-12.18-11.655-12.39-15.11993a33.40189,33.40189,0,0,0-1.99181-8.06884l-.0973-.00307c.201-4.75229,1.73687-9.30116,3.53043-13.78121a199.34026,199.34026,0,0,0,10.33273-33.41945c2.3411-11.23614,3.88015-22.55983,1.73185-34.02521-.76464-4.08077-2.46731-8.0733-2.65927-12.157-.55439-11.79291,1.13544-23.33284,3.43522-34.98419,3.88852-19.70133,7.43515-39.599,4.44375-59.91833-1.25411-8.51824-2.09009-17.1007-3.00117-25.66613-.74733-7.02512-1.88584-14.07216-1.83921-21.10287.062-9.36566,1.00407-18.73314,1.76842-28.08331.38728-4.73749,1.21432-9.439,1.84242-14.15662,2.897,7.05262,5.30221,14.05457,7.675,21.06754a5.17814,5.17814,0,0,1,.08628,1.51043c.10652,5.2546-.3507,10.593.41939,15.748,2.16156,14.46977,6.87015,28.292,11.54286,42.1094a10.55683,10.55683,0,0,1,.54811,3.59465,9.51627,9.51627,0,0,0-3.12724,5.12407c-.7088,3.26894.07874,8.83487-2.12625,11.13186,0,0,.63006,2.12038,2.99253.70684s2.91363-5.56593,4.96113-5.6543,3.30748,1.767,4.41,6.14014a15.53593,15.53593,0,0,1,.2344,6.05735c-2.44022,1.26946-6.12394,3.50879-6.84935,5.78874,0,0,.03937,1.18137.98438.82691.676-.25339,3.33987-1.27,4.80548-1.82972-.83249,2.20122-4.80478,5.33222-5.47476,7.754-.7088,2.5621,1.88988,1.14856,3.62243,0,1.73241-1.14856,4.8824-5.21258,4.8824-5.21258a41.4468,41.4468,0,0,0,3.54384-8.393c.78739-3.44555.97307-15.99094.97307-15.99094Z" fill="#587ef9"/>
    </g>
    <g id="Body-off">
      <g id="Hair-Body">
        <circle id="Hair_2" cx="233.00813" cy="535.39641" r="10.60149" fill="#ec4029"/>
        <line x1="233.4579" y1="535.60856" x2="185.35307" y2="503.91199" fill="none" stroke="#fff" stroke-miterlimit="10"/>
        <rect x="137.0525" y="492.01083" width="49.09181" height="23.83801" fill="#224" stroke="#ec4029" stroke-miterlimit="10" stroke-width="2.5"/>
        <g>
          <path d="M147.42969,498.58057h1.5122v3.73095h4.12159v-3.73095h1.51269v8.82275h-1.51269v-3.73047h-4.12159v3.73047h-1.5122Z" fill="#fff"/>
          <path d="M159.21582,498.58057h1.82764l3.42822,8.82275h-1.58789l-.832-2.15527h-3.91992l-.83155,2.15527h-1.57568Zm.86963,1.57568-1.43652,3.73047h2.87353Z" fill="#fff"/>
          <path d="M165.64551,498.58057h1.5122v8.82275h-1.5122Z" fill="#fff"/>
          <path d="M169.32617,498.58057h3.97022a2.50946,2.50946,0,0,1,2.73486,2.395,2.13712,2.13712,0,0,1-1.46191,2.23046c.958,0,1.33593.416,1.33593,1.248v2.94922h-1.51269V504.832c0-.65527-.189-.84424-.84424-.84424h-2.71v3.41553h-1.51221Zm3.5918,4.07129c1.04639,0,1.60107-.56739,1.60107-1.41163,0-.86962-.55468-1.311-1.60107-1.311h-2.07959v2.72266Z" fill="#fff"/>
        </g>
        <circle cx="233.00813" cy="535.39641" r="2.60664" fill="#fff"/>
      </g>
    </g>
    <g id="Body-on-hover">
      <g id="Hair-Body-PIENO_copy" data-name="Hair-Body-PIENO copy">
        <rect x="137.0525" y="492.01083" width="49.09181" height="23.83801" fill="#ec4029" stroke="#ec4029" stroke-miterlimit="10" stroke-width="2.5"/>
        <g>
          <path d="M147.29736,498.58057h1.70118v3.65527h3.84423v-3.65527h1.70166v8.82275h-1.70166v-3.65527h-3.84423v3.65527h-1.70118Z" fill="#224"/>
          <path d="M161.894,505.32373h-3.70556l-.79395,2.07959H155.605l3.49121-8.82275h1.99121l3.40283,8.82275H162.688Zm-1.85254-4.85254-1.273,3.33985h2.5459Z" fill="#224"/>
          <path d="M165.60107,498.58057h1.70118v8.82275h-1.70118Z" fill="#224"/>
          <path d="M169.37061,498.58057h4.09619a2.51594,2.51594,0,0,1,2.70947,2.395,2.158,2.158,0,0,1-1.49951,2.23046c.95752,0,1.37353.45411,1.37353,1.248v2.94922h-1.70117v-2.52051c0-.63037-.18945-.81933-.81933-.81933h-2.458v3.33984h-1.70117Zm3.59179,3.9956c1.0083,0,1.5127-.45361,1.5127-1.27295s-.5044-1.21-1.5127-1.21h-1.89062v2.48291Z" fill="#224"/>
        </g>
      </g>
    </g>
  </g>
  <g id="Circles">
    <g id="Hair-Circles">
      <circle cx="1618.82547" cy="569.44479" r="55.89947" fill="none" stroke="#fff" stroke-miterlimit="10" stroke-width="1.5"/>
      <g>
        <path d="M1649.32129,507.4165l-2.55469,4.75342-1.13476-.61133,3.23339-6.01513,1.80567.97021-1.02832,5.53955,4.002-3.9414,1.79688.96533-3.23438,6.0166-1.13476-.61035,2.55078-4.74414-4.0459,3.9414-1.27246-.68359Z" fill="#fff"/>
        <path d="M1657.41992,516.79541l-2.3457-1.65088-1.42969.96192-1.13281-.79786,6.1416-4.0288,1.25977.8872-1.77735,7.10108-1.14062-.80274Zm.98828-3.89795-2.293,1.54785,1.61133,1.13428Z" fill="#fff"/>
        <path d="M1662.93945,514.436l.998.85839-3.69043,4.28711,2.91895,2.51319-.7627.88672-3.918-3.37207Z" fill="#fff"/>
        <path d="M1666.86035,525.2876l-1.98047-2.07471-1.58984.667-.95606-1.00195,6.80567-2.76172,1.06445,1.11524-3.12012,6.62109-.96386-1.00879Zm1.72656-3.63135-2.55078,1.07227,1.36133,1.42529Z" fill="#fff"/>
        <path d="M1667.9668,529.0459l2.13476-1.707,1.61719-4.54541.93359,1.16748-1.15039,3.15771,3.31543-.45117.90235,1.12842-4.79395.57129-2.13574,1.708Z" fill="#fff"/>
        <path d="M1676.55664,531.023l-.05371-.08154c-.4043-.61133-.97363-.76172-1.33887-.51807-.375.24707-.41113.56445-.18554,1.11768l.3955.96826a1.96686,1.96686,0,0,1-.582,2.65674c-.97754.647-2.26758.37744-3.20117-1.02979-1.03516-1.56348-.69531-2.81885.458-3.6416l.72851,1.09912a1.34954,1.34954,0,0,0-.15527,1.97656l.05371.08155c.4043.60986.94043.71191,1.30664.4707.32617-.2168.42969-.48389.20117-1.05957l-.46289-1.1582a1.90069,1.90069,0,0,1,.67481-2.5542c.85449-.56641,2.21094-.37549,3.13769,1.02539.918,1.38379.63965,2.68066-.44336,3.39648l-.72754-1.09814A1.134,1.134,0,0,0,1676.55664,531.023Z" fill="#fff"/>
        <path d="M1679.50977,533.73828l.65234,1.146-5.93945,3.3833-.65332-1.145Z" fill="#fff"/>
        <path d="M1678.07422,542.333l-1.23438-2.58985-1.71875.1377-.59472-1.25049,7.32715-.498.66406,1.39209-5.0332,5.31543-.59961-1.25976Zm2.77344-2.91016-2.75782.22217.84766,1.77881Z" fill="#fff"/>
      </g>
      <circle cx="1237.34341" cy="526.06009" r="174.8089" fill="#224" stroke="#fff" stroke-miterlimit="10" stroke-width="1.5"/>
      <g>
        <path d="M1056.22656,470.92627l-.68652,2.26025-1.12012-.33984,1.75781-5.78955,1.1211.33984-.68945,2.269,5.416,1.64648-.38281,1.25977Z" fill="#fff"/>
        <path d="M1060.74316,467.43652l-4.18847-1.46679.43554-1.24317,4.00391,1.40283c1.0127.35547,1.57227.08545,1.86328-.74316l.03125-.0918c.291-.82861.02149-1.38769-.99219-1.74316l-4.0039-1.40186.43554-1.24316,4.18848,1.4668c1.47363.51611,2.07324,1.606,1.46094,3.35449C1063.36523,467.47656,1062.2168,467.95264,1060.74316,467.43652Z" fill="#fff"/>
        <path d="M1058.9375,459.271l1.168-2.94971a1.947,1.947,0,0,1,2.49609-1.26953,1.67261,1.67261,0,0,1,1.18067,1.71631c.27246-.69043.71875-.86084,1.29-.63477l2.125.84131-.48438,1.22607-1.81641-.71923c-.4541-.17969-.64453-.09717-.82421.35644l-.7002,1.77051,2.40625.95215-.48535,1.22607Zm3.90234-1.44825c.28711-.72656.10352-1.21826-.48632-1.45214s-1.01563.01757-1.30274.74414l-.53906,1.36279,1.78906.70654Z" fill="#fff"/>
        <path d="M1065.88672,452.43994l.5039,1.20361,1.88282.83106-.53125,1.20459-6.249-2.75635.53223-1.20508,2.80273,1.23633-1.63281-3.88769.65723-1.49073,1.50586,3.59668,4.7666-.89355-.6582,1.49121Z" fill="#fff"/>
        <path d="M1064.32422,446.62012l2.28516-4.63867,1.05078.51611-1.70313,3.458,1.4082.69482,1.44532-2.93262,1.05078.51807L1068.416,447.167l1.56738.77246,1.74609-3.54541,1.04981.51856-2.32813,4.72607Z" fill="#fff"/>
        <path d="M1074.16113,442.354l-2.39746-1.314-4.81836.25537.71778-1.311,3.35937-.15235-1.69238-2.88769.69433-1.26856,2.37207,4.207,2.39844,1.31543Z" fill="#fff"/>
      </g>
    </g>
  </g>
  <g id="Labels-Cities">
    <g id="Hair-Labels">
      <circle cx="1650.27534" cy="569.44479" r="21.02906" fill="#ec4029"/>
      <circle cx="1164.06372" cy="540.8629" r="73.09168" fill="#ec4029"/>
      <g>
        <rect x="1051.91919" y="525.33073" width="112.14453" height="31.06435" fill="#224" stroke="#ec4029" stroke-miterlimit="10"/>
        <g>
          <path d="M1059.543,528.72314h1.88476l3.53614,9.10059h-1.6377l-.8584-2.22266h-4.043l-.85742,2.22266h-1.625Zm.89746,1.62549-1.48242,3.84815h2.96387Z" fill="#fff"/>
          <path d="M1067.46,537.82373h-1.49512v-6.5H1067.46v.93555a2.30566,2.30566,0,0,1,2.01465-1.06592,2.15665,2.15665,0,0,1,2.30176,2.39209v4.23828h-1.49512v-4.01758c0-.87109-.39063-1.39062-1.14453-1.39062h-.11719a1.65746,1.65746,0,0,0-1.55957,1.78125Z" fill="#fff"/>
          <path d="M1077.35254,537.82373h-1.61231a1.41939,1.41939,0,0,1-1.57324-1.57324v-3.69238h-1.37793v-1.23438h1.37793v-2.10644h1.49512v2.10644h1.49512v1.23438h-1.49512v3.34179c0,.50684.13086.63672.63769.63672h1.05274Z" fill="#fff"/>
          <path d="M1080.34277,537.95361a1.97165,1.97165,0,0,1-2.13183-1.91113c0-1.44336,1.18261-2.00195,2.36621-2.09277l1.70312-.14356v-.18164a1.11982,1.11982,0,0,0-1.18359-1.209h-.07813a1.08108,1.08108,0,0,0-1.18261.87109h-1.49512a2.4578,2.4578,0,0,1,2.7168-2.09326,2.39065,2.39065,0,0,1,2.6914,2.39209V536.394a10.94463,10.94463,0,0,0,.06543,1.42969h-1.40429a7.84836,7.84836,0,0,1-.07813-.89746A2.28247,2.28247,0,0,1,1080.34277,537.95361Zm.35157-1.22168a1.55711,1.55711,0,0,0,1.58593-1.43066v-.377l-1.49511.12988c-.57227.05273-1.10547.33887-1.10547.89746a.83159.83159,0,0,0,.92285.78027Z" fill="#fff"/>
          <path d="M1085.5166,528.72314h1.49512v9.10059h-1.49512Z" fill="#fff"/>
          <path d="M1088.51953,540.35889v-1.31348h1.76856c.50683,0,.63671-.12988.63671-.624v-.92285l-2.79492-6.17481h1.65137l1.8584,4.31641,1.80762-4.31641h1.625l-2.73047,6.11035v1.36426a1.38576,1.38576,0,0,1-1.54688,1.56055Z" fill="#fff"/>
          <path d="M1097.60645,537.95361a1.97166,1.97166,0,0,1-2.13184-1.91113c0-1.44336,1.18262-2.00195,2.36621-2.09277l1.70313-.14356v-.18164a1.11983,1.11983,0,0,0-1.1836-1.209h-.07812a1.08109,1.08109,0,0,0-1.18262.87109h-1.49512a2.4578,2.4578,0,0,1,2.7168-2.09326,2.39066,2.39066,0,0,1,2.69141,2.39209V536.394a10.94629,10.94629,0,0,0,.06542,1.42969h-1.40429a7.84836,7.84836,0,0,1-.07813-.89746A2.28245,2.28245,0,0,1,1097.60645,537.95361Zm.35156-1.22168a1.55712,1.55712,0,0,0,1.58594-1.43066v-.377l-1.49512.12988c-.57227.05273-1.10547.33887-1.10547.89746a.83159.83159,0,0,0,.92285.78027Z" fill="#fff"/>
          <path d="M1102.27344,539.72217v-.92383h.45508a.73543.73543,0,0,0,.80566-.81836v-.15625h-.81934v-1.74219h1.74219v1.96289a1.6146,1.6146,0,0,1-1.68945,1.67774Z" fill="#fff"/>
          <path d="M1109.501,528.72314h1.55957v9.10059H1109.501Z" fill="#fff"/>
          <path d="M1112.60742,535.731h1.50879a1.12412,1.12412,0,0,0,1.24805,1.04h.10351c.585,0,1.01368-.28614,1.01368-.72852,0-.37695-.22071-.61133-.76661-.72754l-.88379-.19531c-1.23535-.28613-1.96289-.84473-1.96289-1.92383,0-1.22217,1.06543-2.00244,2.54786-2.00244,1.70312,0,2.626.87109,2.626,2.22314h-1.49511a1.05057,1.05057,0,0,0-1.10547-1.04h-.11621c-.55958,0-.96192.3125-.96192.72852,0,.36328.27246.59766.85742.72754l.93653.2207c1.14355.26074,1.81933.832,1.81933,1.92481,0,1.13086-.97461,1.97558-2.626,1.97558C1113.6084,537.95361,1112.63379,537.08252,1112.60742,535.731Z" fill="#fff"/>
          <path d="M1123.35938,537.82373h-1.61231a1.41939,1.41939,0,0,1-1.57324-1.57324v-3.69238h-1.37793v-1.23438h1.37793v-2.10644h1.49512v2.10644h1.49511v1.23438H1121.669v3.34179c0,.50684.12988.63672.63769.63672h1.05274Z" fill="#fff"/>
          <path d="M1126.34863,537.95361a1.97165,1.97165,0,0,1-2.13183-1.91113c0-1.44336,1.18261-2.00195,2.36621-2.09277l1.70312-.14356v-.18164a1.11983,1.11983,0,0,0-1.18359-1.209h-.07813a1.08107,1.08107,0,0,0-1.18261.87109h-1.49512a2.4578,2.4578,0,0,1,2.7168-2.09326,2.39065,2.39065,0,0,1,2.6914,2.39209V536.394a10.94463,10.94463,0,0,0,.06543,1.42969H1128.416a7.84836,7.84836,0,0,1-.07813-.89746A2.28247,2.28247,0,0,1,1126.34863,537.95361Zm.35157-1.22168a1.55711,1.55711,0,0,0,1.58593-1.43066v-.377l-1.49511.12988c-.57227.05273-1.10547.33887-1.10547.89746a.83159.83159,0,0,0,.92285.78027Z" fill="#fff"/>
          <path d="M1133.01855,537.82373h-1.49511v-6.5h1.49511v.93555a2.30566,2.30566,0,0,1,2.01465-1.06592,2.15665,2.15665,0,0,1,2.30176,2.39209v4.23828h-1.49512v-4.01758c0-.87109-.39062-1.39062-1.14453-1.39062h-.11719a1.65746,1.65746,0,0,0-1.55957,1.78125Z" fill="#fff"/>
          <path d="M1142.57324,537.95361a2.38542,2.38542,0,0,1-1.98926-1.001v.87109h-1.49511v-9.10059h1.49511v3.4712a2.28374,2.28374,0,0,1,1.93653-1.001c1.78125,0,2.89941,1.45654,2.89941,3.38037S1144.35352,537.95361,1142.57324,537.95361Zm-.35156-1.22168h.10449c.91016,0,1.59863-.793,1.59863-2.17089,0-1.36524-.68847-2.14551-1.59863-2.14551h-.10449c-.84473,0-1.6377.78027-1.6377,2.1582S1141.377,536.73193,1142.22168,536.73193Z" fill="#fff"/>
          <path d="M1152.46582,537.82373h-1.49512v-1.06641a2.21576,2.21576,0,0,1-4.17382-1.22168v-4.21191h1.49511v3.99121c0,.93555.39063,1.417,1.10547,1.417h.11719a1.66089,1.66089,0,0,0,1.45605-1.833v-3.5752h1.49512Z" fill="#fff"/>
          <path d="M1154.28613,528.72314h1.49512v9.10059h-1.49512Z" fill="#fff"/>
          <path d="M1157.09375,539.72217v-.92383h.45508a.73543.73543,0,0,0,.80566-.81836v-.15625h-.81933v-1.74219h1.74218v1.96289a1.6146,1.6146,0,0,1-1.68945,1.67774Z" fill="#fff"/>
          <path d="M1073.05566,543.56445v7.501h-1.54687v-9.10059h2.49609l2.46973,7.46289,2.40527-7.46289h2.46973v9.10059h-1.5332v-7.54l-2.44434,7.54h-1.82031Z" fill="#fff"/>
          <path d="M1086.0166,551.19531a3.08993,3.08993,0,0,1-3.08105-3.37988,3.058,3.058,0,0,1,3.05468-3.37988,2.81133,2.81133,0,0,1,2.88672,3.10644c0,.11719-.01367.5459-.02636.66309h-4.459a1.744,1.744,0,0,0,1.6377,1.76855h.07812a1.21659,1.21659,0,0,0,1.26074-.91015h1.48243A2.68466,2.68466,0,0,1,1086.0166,551.19531Zm1.39063-4.14746a1.35127,1.35127,0,0,0-1.40332-1.39062h-.0918a1.45975,1.45975,0,0,0-1.48145,1.39062Z" fill="#fff"/>
          <path d="M1095.84473,548.84277a2.50713,2.50713,0,0,1-2.80762,2.35254,3.39069,3.39069,0,0,1,0-6.75976,2.50654,2.50654,0,0,1,2.80762,2.35254h-1.49512a1.22368,1.22368,0,0,0-1.27344-1.13086h-.09082c-1.09277,0-1.57324,1.001-1.57324,2.1582s.48047,2.1582,1.57324,2.1582h.09082a1.22369,1.22369,0,0,0,1.27344-1.13086Z" fill="#fff"/>
          <path d="M1097.18359,541.96484h1.625v1.61231h-1.625Zm.05176,2.60059h1.49512v6.5h-1.49512Z" fill="#fff"/>
          <path d="M1100.17383,547.81543c0-1.92383,1.11816-3.37988,2.89844-3.37988a2.28428,2.28428,0,0,1,1.9375,1.001v-3.47168h1.49511v9.10059h-1.49511v-.87109a2.38542,2.38542,0,0,1-1.98926,1.001C1101.23926,551.19531,1100.17383,549.73926,1100.17383,547.81543Zm4.83594,0c0-1.37793-.793-2.1582-1.6377-2.1582h-.10449c-.91016,0-1.59863.78027-1.59863,2.1455,0,1.37793.68847,2.1709,1.59863,2.1709h.10449C1104.2168,549.97363,1105.00977,549.19336,1105.00977,547.81543Z" fill="#fff"/>
          <path d="M1108.27246,541.96484h1.625v1.61231h-1.625Zm.05176,2.60059h1.49512v6.5h-1.49512Z" fill="#fff"/>
          <path d="M1111.32617,553.60059v-1.31348h1.76856c.50683,0,.63672-.12988.63672-.624v-.92286l-2.79493-6.1748h1.65137l1.8584,4.31543,1.80762-4.31543h1.625l-2.73047,6.11035V552.04a1.38576,1.38576,0,0,1-1.54688,1.56055Z" fill="#fff"/>
          <path d="M1121.36328,551.19531a3.08993,3.08993,0,0,1-3.08105-3.37988,3.058,3.058,0,0,1,3.05468-3.37988,2.81133,2.81133,0,0,1,2.88672,3.10644c0,.11719-.01367.5459-.02636.66309h-4.459a1.744,1.744,0,0,0,1.6377,1.76855h.07812a1.21659,1.21659,0,0,0,1.26074-.91015h1.48243A2.68466,2.68466,0,0,1,1121.36328,551.19531Zm1.39063-4.14746a1.35127,1.35127,0,0,0-1.40332-1.39062h-.0918a1.45914,1.45914,0,0,0-1.48145,1.39062Z" fill="#fff"/>
          <path d="M1127.95312,548.20508l-.81835.81933v2.041h-1.49512v-9.10059h1.49512v5.2002l2.57421-2.59961h1.88477l-2.58691,2.58691,2.71679,3.91309h-1.79394Z" fill="#fff"/>
          <path d="M1131.957,547.81543a3.19712,3.19712,0,1,1,3.18555,3.37988A3.16114,3.16114,0,0,1,1131.957,547.81543Zm1.19629-5.78516h1.44336v1.54688h-1.44336Zm3.67969,5.78516c0-1.36523-.66309-2.1582-1.625-2.1582h-.11719c-.96191,0-1.63867.793-1.63867,2.1582s.67676,2.1582,1.63867,2.1582h.11719C1136.16992,549.97363,1136.833,549.18066,1136.833,547.81543Zm-1.13184-5.78516h1.44336v1.54688h-1.44336Z" fill="#fff"/>
          <path d="M1139.251,553.60059v-1.31348h1.76855c.50684,0,.63672-.12988.63672-.624v-.92286l-2.79492-6.1748h1.65137l1.85839,4.31543,1.80762-4.31543h1.625l-2.73047,6.11035V552.04a1.38575,1.38575,0,0,1-1.54687,1.56055Z" fill="#fff"/>
        </g>
      </g>
      <g>
        <rect x="1650.27534" y="578.15083" width="61.11454" height="32.14794" fill="#224" stroke="#ec4029" stroke-miterlimit="10"/>
        <g>
          <path d="M1668.28125,586.999l-1.36523,1.417v2.76953h-1.55957V582.085h1.55957v4.26465l4.13476-4.26465h1.96289l-3.60156,3.74414,3.67969,5.35645h-1.9375Z" fill="#fff"/>
          <path d="M1679.41016,591.18555H1677.915v-1.06641a2.21576,2.21576,0,0,1-4.17383-1.22168v-4.21191h1.49512v3.99121c0,.93554.39062,1.417,1.10547,1.417h.11718a1.6609,1.6609,0,0,0,1.45606-1.833v-3.57519h1.49512Z" fill="#fff"/>
          <path d="M1682.94531,591.31543a1.97165,1.97165,0,0,1-2.13183-1.91113c0-1.44336,1.18261-2.002,2.36621-2.09278l1.70312-.14355v-.18164a1.11983,1.11983,0,0,0-1.18359-1.209h-.07813a1.08108,1.08108,0,0,0-1.18261.8711h-1.49512a2.45685,2.45685,0,0,1,2.7168-2.09278,2.39031,2.39031,0,0,1,2.6914,2.39161v2.80859a10.94463,10.94463,0,0,0,.06543,1.42969h-1.40429a7.84836,7.84836,0,0,1-.07813-.89746A2.28249,2.28249,0,0,1,1682.94531,591.31543Zm.35157-1.22168a1.55712,1.55712,0,0,0,1.58593-1.43066v-.377l-1.49511.12989c-.57227.05273-1.10547.33886-1.10547.89746a.8316.8316,0,0,0,.92285.78027Z" fill="#fff"/>
          <path d="M1688.11914,582.085h1.49512v9.10059h-1.49512Z" fill="#fff"/>
          <path d="M1693.15039,591.31543a1.97166,1.97166,0,0,1-2.13184-1.91113c0-1.44336,1.18262-2.002,2.36622-2.09278l1.70312-.14355v-.18164a1.11983,1.11983,0,0,0-1.18359-1.209h-.07813a1.0811,1.0811,0,0,0-1.18262.8711h-1.49511a2.45684,2.45684,0,0,1,2.71679-2.09278,2.39031,2.39031,0,0,1,2.69141,2.39161v2.80859a10.94463,10.94463,0,0,0,.06543,1.42969h-1.4043a7.8482,7.8482,0,0,1-.07812-.89746A2.28249,2.28249,0,0,1,1693.15039,591.31543Zm.35156-1.22168a1.55712,1.55712,0,0,0,1.58594-1.43066v-.377l-1.49512.12989c-.57226.05273-1.10547.33886-1.10547.89746a.83161.83161,0,0,0,.92286.78027Z" fill="#fff"/>
          <path d="M1659.90918,595.32617h1.55957v7.71h5.22656v1.39063h-6.78613Z" fill="#fff"/>
          <path d="M1673.42969,604.42676h-1.49512v-1.06641a2.21576,2.21576,0,0,1-4.17383-1.22168v-4.21191h1.49512V601.918c0,.93555.39062,1.417,1.10547,1.417h.11719a1.6609,1.6609,0,0,0,1.45605-1.833v-3.57519h1.49512Z" fill="#fff"/>
          <path d="M1676.74414,604.42676H1675.249v-6.5h1.49512v.92285a2.25981,2.25981,0,0,1,1.9502-1.05273,2.14361,2.14361,0,0,1,2.05371,1.15624,2.41075,2.41075,0,0,1,2.1455-1.15624,2.16369,2.16369,0,0,1,2.32715,2.418v4.21192h-1.49511v-3.97852c0-.88379-.33887-1.39062-1.14454-1.39062h-.09082a1.60653,1.60653,0,0,0-1.50781,1.74218v3.627h-1.49512v-3.97852c0-.88379-.33789-1.39062-1.14453-1.39062h-.09082a1.60652,1.60652,0,0,0-1.50781,1.74218Z" fill="#fff"/>
          <path d="M1693.30664,601.17676c0,1.92383-1.11816,3.37988-2.89941,3.37988a2.28374,2.28374,0,0,1-1.93653-1.001v3.47168h-1.49511v-9.10058h1.49511v.87109a2.38541,2.38541,0,0,1,1.98926-1.001C1692.24023,597.79688,1693.30664,599.25293,1693.30664,601.17676Zm-4.83594,0c0,1.37793.793,2.1582,1.6377,2.1582h.10449c.91016,0,1.59863-.78027,1.59863-2.14551,0-1.37793-.68847-2.1709-1.59863-2.1709h-.10449C1689.26367,599.01855,1688.4707,599.79883,1688.4707,601.17676Z" fill="#fff"/>
          <path d="M1700.35254,604.42676h-1.49512v-1.06641a2.21576,2.21576,0,0,1-4.17383-1.22168v-4.21191h1.49512V601.918c0,.93555.39063,1.417,1.10547,1.417h.11719a1.6609,1.6609,0,0,0,1.45605-1.833v-3.57519h1.49512Z" fill="#fff"/>
          <path d="M1702.17188,597.92676h1.46874v1.35156a1.882,1.882,0,0,1,1.88477-1.417h.44238v1.40429h-.55859a1.5999,1.5999,0,0,0-1.74219,1.82032v3.34082h-1.49511Z" fill="#fff"/>
        </g>
      </g>
    </g>
  </g>
</svg>
