<svg width="634" height="329" viewBox="0 0 634 329" fill="none" xmlns="http://www.w3.org/2000/svg">
<rect x="428" width="206" height="278" fill="white"/>
<rect y="249" width="206" height="29" fill="#151515"/>
<rect x="215" y="146" width="204" height="132" fill="#151515"/>
<path d="M85.4279 299.108C85.4279 301.404 87.0659 303.196 89.8379 303.196C92.6099 303.196 94.2479 301.404 94.2479 299.108C94.2479 296.826 92.6099 295.034 89.8379 295.034C87.0659 295.034 85.4279 296.826 85.4279 299.108ZM87.2199 299.108C87.2199 297.428 88.2139 296.28 89.8379 296.28C91.4339 296.28 92.4559 297.428 92.4559 299.108C92.4559 300.788 91.4339 301.95 89.8379 301.95C88.2139 301.95 87.2199 300.788 87.2199 299.108ZM95.3679 296.28H97.1039V300.368C97.1039 302.314 98.1259 303.196 99.7919 303.196C101.514 303.196 102.256 302.076 102.256 302.076L101.92 300.83C101.92 300.83 101.5 301.95 100.142 301.95C99.2459 301.95 98.7839 301.404 98.7839 300.186V296.28H101.976V295.23H98.7839V292.346L97.1739 293.466V295.23H95.3679V296.28ZM105.479 292.122C105.479 292.122 104.793 292.276 103.799 292.276V303H105.479V298.38C105.479 297.904 105.759 296.28 107.873 296.28C109.273 296.28 110.071 296.91 110.071 298.212V303H111.751V298.184C111.751 296.224 110.799 295.034 108.489 295.034C105.829 295.034 105.479 297.19 105.479 297.19V292.122ZM122.35 300.41L120.614 299.906C120.614 299.906 120.614 301.95 118.374 301.95C116.82 301.95 115.672 300.956 115.644 299.178L122.14 299.318C122.14 299.318 122.532 295.034 118.164 295.034C115.42 295.034 113.852 296.784 113.852 299.108C113.852 301.74 115.896 303.196 118.164 303.196C121.86 303.196 122.35 300.41 122.35 300.41ZM120.362 298.254L115.714 298.324C115.952 297.092 116.764 296.28 118.066 296.28C120.264 296.28 120.362 298.254 120.362 298.254ZM126.124 298.394C126.124 297.946 126.586 296.28 127.664 296.28C128.126 296.28 128.35 296.63 128.35 297.302C128.35 298.198 128.056 299.094 128.056 299.094L129.792 298.59C129.792 298.59 130.072 297.932 130.072 296.938C130.072 295.916 129.666 295.034 128.378 295.034C126.236 295.034 125.97 297.54 125.97 297.54L125.256 295.23H124.444V303H126.124V298.394ZM136.676 297.876L138.412 297.372C138.412 297.372 138.188 295.034 134.632 295.034C132.798 295.034 131.342 295.888 131.342 297.358C131.342 298.296 131.986 299.15 133.722 299.458L135.43 299.766C136.662 299.99 137.054 300.382 137.054 300.9C137.054 301.488 136.452 301.95 135.402 301.95C132.392 301.95 132.644 299.906 132.644 299.906L130.908 300.41C130.908 300.41 131.314 303.196 135.388 303.196C137.306 303.196 138.846 302.258 138.846 300.76C138.846 299.738 138.202 298.912 136.466 298.604L134.562 298.268C133.498 298.086 132.994 297.722 132.994 297.274C132.994 296.714 133.47 296.28 134.604 296.28C136.844 296.28 136.676 297.876 136.676 297.876Z" fill="#151515"/>
<path d="M306.501 303H308.181V298.184C308.181 296.224 307.509 295.034 305.339 295.034C303.169 295.034 302.469 296.504 302.259 297.19C302.035 295.832 301.251 295.034 299.487 295.034C296.659 295.034 296.323 297.54 296.323 297.54L295.609 295.23H294.797V303H296.477V298.38C296.477 297.904 296.757 296.28 298.731 296.28C299.949 296.28 300.607 296.882 300.649 298.114V303H302.329V298.38C302.329 297.904 302.609 296.28 304.583 296.28C305.843 296.28 306.501 296.91 306.501 298.212V303ZM310.698 293.466H312.378V292.122H310.698V293.466ZM310.698 303H312.378V295.23H310.698V303ZM314.895 303H316.575V292.122C316.575 292.122 315.791 292.276 314.895 292.276V303ZM319.092 303H320.772V292.122C320.772 292.122 319.988 292.276 319.092 292.276V303ZM331.367 300.41L329.631 299.906C329.631 299.906 329.631 301.95 327.391 301.95C325.837 301.95 324.689 300.956 324.661 299.178L331.157 299.318C331.157 299.318 331.549 295.034 327.181 295.034C324.437 295.034 322.869 296.784 322.869 299.108C322.869 301.74 324.913 303.196 327.181 303.196C330.877 303.196 331.367 300.41 331.367 300.41ZM329.379 298.254L324.731 298.324C324.969 297.092 325.781 296.28 327.083 296.28C329.281 296.28 329.379 298.254 329.379 298.254ZM339.733 303H341.413V298.184C341.413 296.224 340.461 295.034 338.151 295.034C335.183 295.034 334.987 297.54 334.987 297.54L334.273 295.23H333.461V303H335.141V298.38C335.141 297.904 335.421 296.28 337.535 296.28C338.935 296.28 339.733 296.91 339.733 298.212V303ZM350.206 303H351.886V298.184C351.886 296.224 350.934 295.034 348.624 295.034C345.656 295.034 345.46 297.54 345.46 297.54L344.746 295.23H343.934V303H345.614V298.38C345.614 297.904 345.894 296.28 348.008 296.28C349.408 296.28 350.206 296.91 350.206 298.212V303ZM354.406 293.466H356.086V292.122H354.406V293.466ZM354.406 303H356.086V295.23H354.406V303ZM365.254 301.138L365.338 297.876C365.38 296.28 364.246 295.034 361.922 295.034C358.8 295.034 358.044 297.344 358.044 297.344L359.78 297.848C359.78 297.848 360.158 296.28 361.978 296.28C363.784 296.28 363.644 297.904 363.644 297.904C359.472 298.38 358.324 300.186 358.324 301.488C358.324 302.454 359.052 303.196 360.2 303.196C362.524 303.196 363.644 300.06 363.644 300.06V301.39C363.644 302.762 364.512 303.196 365.38 303.196C366.682 303.196 367.2 302.496 367.2 302.496L366.864 301.25C366.864 301.25 366.556 301.95 365.87 301.95C365.422 301.95 365.24 301.628 365.254 301.138ZM360.102 301.138C360.102 300.452 360.522 299.178 363.644 298.38V298.87C363.672 299.458 362.328 301.95 360.844 301.95C360.382 301.95 360.102 301.67 360.102 301.138ZM368.461 303H370.141V292.122C370.141 292.122 369.357 292.276 368.461 292.276V303ZM377.726 297.876L379.462 297.372C379.462 297.372 379.238 295.034 375.682 295.034C373.848 295.034 372.392 295.888 372.392 297.358C372.392 298.296 373.036 299.15 374.772 299.458L376.48 299.766C377.712 299.99 378.104 300.382 378.104 300.9C378.104 301.488 377.502 301.95 376.452 301.95C373.442 301.95 373.694 299.906 373.694 299.906L371.958 300.41C371.958 300.41 372.364 303.196 376.438 303.196C378.356 303.196 379.896 302.258 379.896 300.76C379.896 299.738 379.252 298.912 377.516 298.604L375.612 298.268C374.548 298.086 374.044 297.722 374.044 297.274C374.044 296.714 374.52 296.28 375.654 296.28C377.894 296.28 377.726 297.876 377.726 297.876Z" fill="#151515"/>
<path d="M512.492 300.452C515.25 300.452 516.454 299.15 516.454 297.75C516.454 297.162 516.244 296.602 515.796 296.14C515.334 295.538 515.894 294.866 517.392 295.132L517.056 293.886C515.082 293.634 514.578 294.488 515.25 295.692C514.606 295.286 513.682 295.034 512.45 295.034C509.65 295.034 508.446 296.35 508.446 297.75C508.446 298.758 509.076 299.724 510.49 300.172C509.832 300.228 508.334 300.466 508.334 301.516C508.334 302.846 510.49 302.902 510.49 302.902C509.146 302.902 508.054 303.49 508.054 304.498C508.054 305.226 508.586 306.262 511.176 306.262H512.996C515.908 306.262 517.112 305.422 517.112 304.036C517.112 302.986 516.412 301.95 513.99 301.95H511.33C510.532 301.95 510.126 301.684 510.126 301.18C510.126 300.592 510.714 300.396 511.148 300.34C511.54 300.41 511.988 300.452 512.492 300.452ZM510.238 297.75C510.238 296.868 510.826 296.084 512.45 296.084C514.074 296.084 514.648 296.868 514.648 297.75C514.648 298.604 514.074 299.402 512.45 299.402C510.826 299.402 510.238 298.604 510.238 297.75ZM513.864 303.182C514.942 303.266 515.306 303.63 515.306 304.218C515.306 305.1 514.494 305.408 512.646 305.408C510.546 305.408 509.86 305.1 509.86 304.218C509.86 303 511.484 303 511.484 303L513.864 303.182ZM526.864 300.41L525.128 299.906C525.128 299.906 525.128 301.95 522.888 301.95C521.334 301.95 520.186 300.956 520.158 299.178L526.654 299.318C526.654 299.318 527.046 295.034 522.678 295.034C519.934 295.034 518.366 296.784 518.366 299.108C518.366 301.74 520.41 303.196 522.678 303.196C526.374 303.196 526.864 300.41 526.864 300.41ZM524.876 298.254L520.228 298.324C520.466 297.092 521.278 296.28 522.58 296.28C524.778 296.28 524.876 298.254 524.876 298.254ZM535.23 303H536.91V298.184C536.91 296.224 535.958 295.034 533.648 295.034C530.68 295.034 530.484 297.54 530.484 297.54L529.77 295.23H528.958V303H530.638V298.38C530.638 297.904 530.918 296.28 533.032 296.28C534.432 296.28 535.23 296.91 535.23 298.212V303ZM554.363 301.81H546.831L554.363 293.452V292.122H544.521V293.312H552.053L544.521 301.67V303H554.363V301.81Z" fill="#151515"/>
</svg>
