<svg width="560" height="561" viewBox="0 0 560 561" fill="none" xmlns="http://www.w3.org/2000/svg">
<path d="M311.638 32.1823L323.402 149.809L403.883 63.3152L369.823 176.522L477.198 127.454L402.499 219.005L520.42 214.833L416.454 270.792L526.97 312.15L409.565 323.998L495.85 404.591L382.88 370.522L431.799 478.08L340.462 403.283L344.566 521.431L288.768 417.292L247.434 528.043L235.669 410.417L155.188 496.91L189.248 383.704L81.8735 432.772L156.573 341.22L38.6511 345.392L142.617 289.433L32.1012 248.075L149.506 236.228L63.2209 155.635L176.191 189.703L127.273 82.1453L218.609 156.942L214.505 38.7946L270.303 142.933L311.638 32.1823Z" fill="#FD3C3E"/>
<path d="M201.351 306.115L242.5 310.662L243.173 304.579L211.327 301.06L216.799 251.537L207.496 250.509L201.351 306.115ZM314.774 290.543C316.625 273.797 305.223 260.295 285.471 258.112C265.72 255.929 251.716 266.624 249.866 283.37C248.023 300.044 259.353 313.539 279.105 315.721C298.857 317.904 312.932 307.217 314.774 290.543ZM304.97 289.459C303.618 301.697 293.414 310.131 279.888 308.636C266.434 307.15 258.318 296.691 259.67 284.453C261.03 272.144 271.234 263.71 284.688 265.197C298.214 266.692 306.33 277.15 304.97 289.459ZM322.465 319.499L363.615 324.046L364.287 317.963L332.441 314.444L337.913 264.921L328.61 263.893L322.465 319.499Z" fill="#151515"/>
</svg>
