<svg width="499" height="500" viewBox="0 0 499 500" fill="none" xmlns="http://www.w3.org/2000/svg">
<path d="M249.5 0L276.271 115.142L344.98 19.0301L325.738 135.673L425.923 73.2233L363.598 173.609L480.008 154.329L384.088 223.175L499 250L384.088 276.825L480.008 345.671L363.598 326.391L425.923 426.777L325.738 364.327L344.98 480.97L276.271 384.858L249.5 500L222.729 384.858L154.02 480.97L173.262 364.327L73.0769 426.777L135.402 326.391L18.9921 345.671L114.912 276.825L0 250L114.912 223.175L18.9921 154.329L135.402 173.609L73.0769 73.2233L173.262 135.673L154.02 19.0301L222.729 115.142L249.5 0Z" fill="#A582FB"/>
<path d="M244.098 235.393L234.092 235.189L217.385 284.683L203.427 234.564L191.981 234.331L175.994 283.84L161.315 233.707L151.309 233.503L169.246 289.824L182.492 290.094L197.47 244.165L210.638 290.667L223.883 290.937L244.098 235.393ZM245.421 241.541L269.176 242.025L268.161 291.838L277.303 292.025L278.318 242.211L302.073 242.695L302.197 236.576L245.545 235.422L245.421 241.541ZM307.545 292.641L316.903 292.831L317.412 267.852L348.221 268.48L348.346 262.361L317.536 261.734L317.917 243.017L350.743 243.686L350.867 237.567L308.684 236.708L307.545 292.641Z" fill="#F2F2F2"/>
</svg>
