<?xml version="1.0" encoding="utf-8"?>
<!-- Generator: Adobe Illustrator 25.0.1, SVG Export Plug-In . SVG Version: 6.00 Build 0)  -->
<svg version="1.1" id="Livello_1" xmlns="http://www.w3.org/2000/svg" xmlns:xlink="http://www.w3.org/1999/xlink" x="0px" y="0px"
	 viewBox="0 0 499 501" style="enable-background:new 0 0 499 501;" xml:space="preserve">
<style type="text/css">
	.st0{fill:#F980E6;}
	.st1{fill:#FFFFFF;}
</style>
<path class="st0" d="M249.5,0.8l26.8,115.1L345,19.8l-19.2,116.6L425.9,74l-62.3,100.4L480,155.1L384.1,224L499,250.8l-114.9,26.8
	l95.9,68.8l-116.4-19.3l62.3,100.4l-100.2-62.5L345,481.8l-68.7-96.1l-26.8,115.1l-26.8-115.1L154,481.8l19.2-116.6L73.1,427.6
	l62.3-100.4L19,346.5l95.9-68.8L0,250.8L114.9,224L19,155.1l116.4,19.3L73.1,74l100.2,62.4L154,19.8l68.7,96.1L249.5,0.8z"/>
<path class="st1" d="M196.3,250.1c0-16.8-12.8-29-32.7-29s-32.6,12.2-32.6,29c0,16.8,12.7,28.9,32.6,28.9S196.3,266.8,196.3,250.1z
	 M186.4,250.1c0,12.3-9.2,21.8-22.8,21.8c-13.5,0-22.8-9.5-22.8-21.8c0-12.4,9.2-21.9,22.8-21.9
	C177.2,228.2,186.4,237.7,186.4,250.1z M244.6,271.9l-23.1-49.8h-14.4V278h9.4v-46.2l22,46.2h12.2l22-46.2V278h9.4v-55.9h-14.4
	L244.6,271.9z M353.4,242.1c0,0-3.3-21-29.3-21c-19.9,0-31.2,12.2-31.2,29c0,16.8,11.3,28.9,29,28.9c17.3,0,21.2-11.8,21.2-11.8V278
	h9.4v-28.4H322v6.1h21.1c0,0-1.1,16.1-19.7,16.1c-12.8,0-20.6-9.5-20.6-21.8c0-12.4,7.8-21.9,21.3-21.9c18,0,19.7,16.8,19.7,16.8
	L353.4,242.1z"/>
</svg>
