<svg width="882" height="890" viewBox="0 0 882 890" fill="none" xmlns="http://www.w3.org/2000/svg">
<path d="M421.338 16.0841C425.791 -5.0956 456.029 -5.09559 460.482 16.0841L474.203 81.3407C478.041 99.5944 502.57 103.121 511.395 86.6881L542.945 27.9404C553.185 8.87331 582.198 17.3922 580.504 38.9686L575.284 105.448C573.824 124.043 596.365 134.337 609.463 121.056L656.286 73.5772C671.483 58.1674 696.92 74.515 689.216 94.7401L665.479 157.056C658.839 174.487 677.567 190.715 693.875 181.662L752.178 149.297C771.101 138.793 790.903 161.645 777.812 178.88L737.48 231.984C726.198 246.838 739.596 267.685 757.794 263.594L822.854 248.966C843.969 244.219 856.53 271.724 839.115 284.573L785.455 324.162C770.445 335.236 777.427 359.013 796.041 360.215L862.586 364.509C884.184 365.903 888.487 395.833 868.157 403.255L805.517 426.123C787.995 432.52 787.995 457.301 805.517 463.697L868.157 486.566C888.487 493.988 884.184 523.918 862.586 525.311L796.041 529.606C777.427 530.807 770.445 554.584 785.455 565.658L839.115 605.248C856.53 618.097 843.969 645.602 822.854 640.854L757.794 626.227C739.596 622.135 726.198 642.982 737.48 657.836L777.812 710.94C790.903 728.175 771.101 751.027 752.178 740.523L693.875 708.159C677.567 699.106 658.839 715.334 665.479 732.765L689.216 795.08C696.92 815.305 671.483 831.653 656.286 816.243L609.463 768.764C596.365 755.483 573.824 765.777 575.284 784.373L580.504 850.852C582.198 872.428 553.185 880.947 542.945 861.88L511.395 803.132C502.57 786.699 478.041 790.226 474.203 808.48L460.482 873.736C456.029 894.916 425.791 894.916 421.338 873.736L407.617 808.48C403.779 790.226 379.25 786.699 370.425 803.132L338.875 861.88C328.635 880.947 299.623 872.428 301.317 850.852L306.536 784.373C307.996 765.777 285.455 755.483 272.358 768.764L225.534 816.243C210.337 831.653 184.9 815.305 192.604 795.08L216.342 732.765C222.982 715.334 204.254 699.106 187.945 708.159L129.642 740.523C110.719 751.027 90.9178 728.175 104.008 710.94L144.34 657.836C155.622 642.982 142.225 622.135 124.026 626.227L58.9667 640.854C37.8511 645.602 25.2899 618.097 42.7057 605.248L96.3653 565.658C111.375 554.584 104.393 530.807 85.7794 529.606L19.2343 525.311C-2.36357 523.918 -6.66682 493.988 13.6635 486.566L76.3032 463.697C93.8249 457.301 93.8249 432.52 76.3032 426.123L13.6635 403.255C-6.66682 395.833 -2.36357 365.903 19.2343 364.509L85.7794 360.215C104.393 359.013 111.375 335.236 96.3653 324.162L42.7057 284.573C25.2899 271.724 37.8511 244.218 58.9667 248.966L124.026 263.594C142.225 267.685 155.622 246.838 144.34 231.984L104.008 178.88C90.9178 161.645 110.719 138.793 129.642 149.297L187.945 181.662C204.254 190.715 222.982 174.487 216.342 157.056L192.604 94.7401C184.9 74.515 210.337 58.1674 225.534 73.5772L272.358 121.057C285.455 134.337 307.996 124.043 306.536 105.448L301.317 38.9686C299.623 17.3922 328.635 8.87334 338.875 27.9404L370.425 86.6881C379.25 103.121 403.779 99.5944 407.617 81.3407L421.338 16.0841Z" fill="#A582FB"/>
</svg>
