<?xml version="1.0" encoding="utf-8"?>
<!-- Generator: Adobe Illustrator 24.2.1, SVG Export Plug-In . SVG Version: 6.00 Build 0)  -->
<svg version="1.1" id="Livello_1" xmlns="http://www.w3.org/2000/svg" xmlns:xlink="http://www.w3.org/1999/xlink" x="0px" y="0px"
	 viewBox="0 0 590 97" style="enable-background:new 0 0 590 97;" xml:space="preserve">
<style type="text/css">
	.st0{fill:#151515;stroke:#000000;}
	.st1{fill:#151515;stroke:#151515;}
	.st2{fill:#151515;}
	.st3{font-family:'SportingGrotesque-Regular';}
	.st4{font-size:30px;}
</style>
<path class="st0" d="M482.1,26.6l0.3,1.1l0.6-0.9l9.1-12.7l-2.5,15.4l-0.2,1.1l0.9-0.6l13.2-8.2L495.3,35l-0.6,0.9l1.1-0.2l15.4-2.5
	l-12.7,9.1l-0.9,0.6l1.1,0.3l15.2,3.5l-15.2,3.5l-1.1,0.3l0.9,0.6l12.7,9.1l-15.4-2.5l-1.1-0.2l0.6,0.9l8.2,13.2l-13.2-8.2l-0.9-0.6
	l0.2,1.1l2.5,15.4L483,66.7l-0.6-0.9l-0.3,1.1L478.6,82L475,66.8l-0.3-1.1l-0.6,0.9l-9.1,12.7l2.5-15.4l0.2-1.1l-0.9,0.6l-13.2,8.2
	l8.2-13.2l0.6-0.9l-1.1,0.2L446,60.2l12.7-9.1l0.9-0.6l-1.1-0.3l-15.2-3.5l15.2-3.5l1.1-0.3l-0.9-0.6L446,33.2l15.4,2.5l1.1,0.2
	l-0.6-0.9l-8.2-13.2l13.2,8.2l0.9,0.6l-0.2-1.1l-2.5-15.4l9.1,12.7l0.6,0.9l0.3-1.1l3.5-15.2L482.1,26.6z"/>
<path class="st0" d="M387.3,16.1c0.4-1.9,3.2-1.9,3.6,0c0.5,2.6,4,3.1,5.3,0.8c0.9-1.7,3.6-1,3.4,1c-0.2,2.6,3,4.1,4.8,2.2
	c1.4-1.4,3.7,0.1,3,1.9c-0.9,2.5,1.7,4.8,4,3.5c1.7-1,3.5,1.1,2.3,2.7c-1.6,2.1,0.3,5,2.9,4.5c1.9-0.4,3.1,2.1,1.5,3.2
	c-2.1,1.6-1.1,4.9,1.5,5.1c2,0.1,2.4,2.9,0.5,3.5c-2.5,0.9-2.5,4.4,0,5.3c1.9,0.7,1.5,3.4-0.5,3.5c-2.6,0.2-3.6,3.5-1.5,5.1
	c1.6,1.2,0.4,3.7-1.5,3.2c-2.6-0.6-4.5,2.4-2.9,4.5c1.2,1.6-0.6,3.7-2.3,2.7c-2.3-1.3-4.9,1-4,3.5c0.7,1.8-1.6,3.3-3,1.9
	c-1.9-1.9-5-0.4-4.8,2.2c0.2,2-2.5,2.7-3.4,1c-1.2-2.3-4.7-1.8-5.3,0.8c-0.4,1.9-3.2,1.9-3.6,0c-0.5-2.6-4-3.1-5.3-0.8
	c-0.9,1.7-3.6,1-3.4-1c0.2-2.6-3-4.1-4.8-2.2c-1.4,1.4-3.7-0.1-3-1.9c0.9-2.5-1.7-4.8-4-3.5c-1.7,1-3.5-1.1-2.3-2.7
	c1.6-2.1-0.3-5-2.9-4.5c-1.9,0.4-3.1-2.1-1.5-3.2c2.1-1.6,1.1-4.9-1.5-5.1c-2-0.1-2.4-2.9-0.5-3.5c2.5-0.9,2.5-4.4,0-5.3
	c-1.9-0.7-1.5-3.4,0.5-3.5c2.6-0.2,3.6-3.5,1.5-5.1c-1.6-1.2-0.4-3.7,1.5-3.2c2.6,0.6,4.5-2.4,2.9-4.5c-1.2-1.6,0.6-3.7,2.3-2.7
	c2.3,1.3,5-1,4-3.5c-0.7-1.8,1.6-3.3,3-1.9c1.9,1.9,5,0.4,4.8-2.2c-0.2-2,2.5-2.7,3.4-1C383.3,19.2,386.7,18.7,387.3,16.1z"/>
<rect x="9.1" y="23.3" transform="matrix(0.9075 -0.4201 0.4201 0.9075 -17.3933 19.1886)" class="st0" width="51.5" height="51.5"/>
<path class="st1" d="M529.3,51.4l50.4-34.9l5,61.1L529.3,51.4z"/>
<ellipse transform="matrix(0.7002 -0.7139 0.7139 0.7002 57.9013 231.3182)" class="st2" cx="304.4" cy="46.7" rx="23.6" ry="36.7"/>
<text transform="matrix(1 0 0 1 80.2443 60.4202)" class="st3 st4">PROJECT</text>
</svg>
