<svg width="660" height="97" viewBox="0 0 660 97" fill="none" xmlns="http://www.w3.org/2000/svg">
<path d="M174.7 36.9048V60.2148H178.6V49.5348H182.5C187.45 49.5348 189.01 50.4948 189.64 53.1348C190.9 58.4448 191.17 59.6148 191.62 60.2148H195.67C195.22 59.6148 194.95 58.5948 193.36 52.4748C192.67 49.7748 190.21 48.7548 188.02 48.4848C192.07 48.4848 195.07 46.7748 195.07 43.2048C195.07 38.9148 191.8 36.9048 184.6 36.9048H174.7ZM178.6 46.9848V39.4548H184.6C188.2 39.4548 190.96 40.2048 190.96 43.2048C190.96 46.2048 188.2 46.9848 184.6 46.9848H178.6ZM200.159 60.2148H218.609V57.6648H204.059V49.8048H216.899V47.2548H204.059V39.4548H217.739V36.9048H200.159V60.2148ZM230.253 45.9348C227.673 45.3648 226.143 44.5848 226.143 42.8148C226.143 40.8348 228.153 39.4548 231.303 39.4548C238.323 39.4548 237.903 44.5248 237.903 44.5248L241.923 43.4448C241.923 43.4448 241.683 36.4848 231.483 36.4848C224.943 36.4848 222.093 39.6648 222.093 43.1748C222.093 45.9648 224.043 48.1848 228.033 49.1148L233.703 50.4348C237.123 51.2448 238.983 51.9048 238.983 54.1548C238.983 56.0748 236.733 57.6648 232.953 57.6648C224.313 57.6648 225.033 51.1548 225.033 51.1548L221.013 52.3248C221.163 55.4748 223.953 60.6348 233.043 60.6348C238.683 60.6348 243.033 58.3548 243.033 53.9748C243.033 50.9448 241.263 48.3948 236.193 47.2548L230.253 45.9348ZM246.946 60.2148H265.396V57.6648H250.846V49.8048H263.686V47.2548H250.846V39.4548H264.526V36.9048H246.946V60.2148ZM291.05 60.2148H295.22L284.42 36.9048H278L267.2 60.2148H271.34L274.67 52.8048H287.72L291.05 60.2148ZM280.7 39.4548H281.75L286.58 50.2548H275.84L280.7 39.4548ZM298.509 36.9048V60.2148H302.409V49.5348H306.309C311.259 49.5348 312.819 50.4948 313.449 53.1348C314.709 58.4448 314.979 59.6148 315.429 60.2148H319.479C319.029 59.6148 318.759 58.5948 317.169 52.4748C316.479 49.7748 314.019 48.7548 311.829 48.4848C315.879 48.4848 318.879 46.7748 318.879 43.2048C318.879 38.9148 315.609 36.9048 308.409 36.9048H298.509ZM302.409 46.9848V39.4548H308.409C312.009 39.4548 314.769 40.2048 314.769 43.2048C314.769 46.2048 312.009 46.9848 308.409 46.9848H302.409ZM347.772 46.1448C347.772 46.1448 346.812 36.4848 335.472 36.4848C327.192 36.4848 322.482 41.5548 322.482 48.5748C322.482 55.5648 327.492 60.6348 335.772 60.6348C347.472 60.6348 348.402 51.4248 348.402 51.4248L344.382 50.2548C344.382 50.2548 344.202 57.6648 335.772 57.6648C330.132 57.6648 326.592 53.7048 326.592 48.5748C326.592 43.4148 329.832 39.4548 335.472 39.4548C343.452 39.4548 343.752 47.3448 343.752 47.3448L347.772 46.1448ZM371.513 60.2148H375.413V36.9048H371.513V47.2548H356.813V36.9048H352.913V60.2148H356.813V49.8048H371.513V60.2148Z" fill="#151515"/>
<path d="M529.037 26.5996L529.287 27.6749L529.93 26.7773L539.007 14.1053L536.465 29.4842L536.285 30.5735L537.223 29.9903L550.458 21.7566L542.225 34.9921L541.641 35.9296L542.731 35.7495L558.11 33.2075L545.438 42.2846L544.54 42.9276L545.615 43.1781L560.796 46.7148L545.615 50.2516L544.54 50.5021L545.438 51.1451L558.11 60.2222L542.731 57.6802L541.641 57.5001L542.225 58.4376L550.458 71.6731L537.223 63.4394L536.285 62.8562L536.465 63.9454L539.007 79.3244L529.93 66.6524L529.287 65.7548L529.037 66.8301L525.5 82.0112L521.963 66.8301L521.713 65.7548L521.07 66.6524L511.993 79.3244L514.535 63.9454L514.715 62.8562L513.777 63.4394L500.542 71.6731L508.775 58.4376L509.359 57.5001L508.269 57.6802L492.89 60.2222L505.562 51.1451L506.46 50.5021L505.385 50.2516L490.204 46.7148L505.385 43.1781L506.46 42.9276L505.562 42.2846L492.89 33.2075L508.269 35.7495L509.359 35.9296L508.775 34.9921L500.542 21.7566L513.777 29.9903L514.715 30.5735L514.535 29.4842L511.993 14.1053L521.07 26.7773L521.713 27.6749L521.963 26.5996L525.5 11.4185L529.037 26.5996Z" fill="#151515" stroke="black"/>
<path d="M434.214 16.1408C434.62 14.2077 437.38 14.2077 437.786 16.1408C438.329 18.7195 441.794 19.2177 443.041 16.8962C443.975 15.1559 446.623 15.9335 446.469 17.9028C446.262 20.5298 449.447 21.9841 451.297 20.1079C452.684 18.7014 455.006 20.1935 454.303 22.0395C453.365 24.502 456.01 26.7945 458.314 25.5156C460.041 24.5569 461.849 26.6426 460.654 28.2157C459.06 30.3142 460.953 33.2593 463.524 32.6813C465.451 32.248 466.598 34.7584 465.008 35.9312C462.888 37.4956 463.874 40.8546 466.504 41.0243C468.475 41.1516 468.868 43.8833 467.012 44.5607C464.537 45.4644 464.537 48.9653 467.012 49.8689C468.868 50.5464 468.475 53.2781 466.504 53.4053C463.874 53.575 462.888 56.9341 465.008 58.4985C466.598 59.6713 465.451 62.1817 463.524 61.7484C460.953 61.1704 459.06 64.1155 460.654 66.214C461.849 67.7871 460.041 69.8728 458.314 68.9141C456.01 67.6351 453.365 69.9277 454.303 72.3902C455.006 74.2362 452.684 75.7283 451.297 74.3218C449.447 72.4456 446.262 73.8999 446.469 76.5269C446.623 78.4962 443.975 79.2738 443.041 77.5335C441.794 75.2119 438.329 75.7102 437.786 78.2889C437.38 80.222 434.62 80.222 434.214 78.2889C433.671 75.7102 430.206 75.2119 428.959 77.5335C428.025 79.2738 425.377 78.4962 425.531 76.5269C425.738 73.8999 422.553 72.4456 420.703 74.3218C419.316 75.7283 416.994 74.2362 417.697 72.3902C418.635 69.9277 415.99 67.6351 413.686 68.9141C411.959 69.8728 410.151 67.7871 411.346 66.214C412.94 64.1155 411.047 61.1704 408.476 61.7484C406.549 62.1817 405.402 59.6713 406.992 58.4985C409.112 56.9341 408.126 53.575 405.496 53.4053C403.525 53.2781 403.132 50.5464 404.988 49.8689C407.463 48.9653 407.463 45.4644 404.988 44.5607C403.132 43.8833 403.525 41.1516 405.496 41.0243C408.126 40.8546 409.112 37.4956 406.992 35.9312C405.402 34.7584 406.549 32.248 408.476 32.6813C411.047 33.2593 412.94 30.3142 411.346 28.2157C410.151 26.6426 411.959 24.5569 413.686 25.5156C415.99 26.7945 418.635 24.502 417.697 22.0395C416.994 20.1935 419.316 18.7014 420.703 20.1079C422.553 21.9841 425.738 20.5298 425.531 17.9028C425.377 15.9335 428.025 15.1559 428.959 16.8962C430.206 19.2177 433.671 18.7195 434.214 16.1408Z" fill="#151515" stroke="black"/>
<rect x="0.663781" y="36.5259" width="51.5324" height="51.5324" transform="rotate(-24.839 0.663781 36.5259)" fill="#151515" stroke="black"/>
<path d="M576.186 51.3622L626.6 16.464L631.616 77.5725L576.186 51.3622Z" fill="#151515" stroke="#151515"/>
<ellipse cx="112.678" cy="46.7148" rx="36.657" ry="23.577" transform="rotate(44.4436 112.678 46.7148)" fill="#151515"/>
</svg>
