<svg width="616" height="97" viewBox="0 0 616 97" fill="none" xmlns="http://www.w3.org/2000/svg">
<path d="M377.01 48.36C377.01 41.34 371.67 36.27 363.39 36.27C355.11 36.27 349.8 41.34 349.8 48.36C349.8 55.35 355.11 60.42 363.39 60.42C371.67 60.42 377.01 55.35 377.01 48.36ZM372.9 48.36C372.9 53.49 369.06 57.45 363.39 57.45C357.75 57.45 353.91 53.49 353.91 48.36C353.91 43.2 357.75 39.24 363.39 39.24C369.06 39.24 372.9 43.2 372.9 48.36ZM399.7 36.69V50.37C399.7 56.43 396.97 57.45 392.56 57.45C388.15 57.45 385.42 56.43 385.42 50.37V36.69H381.52V50.37C381.52 57.09 385.24 60.42 392.56 60.42C399.88 60.42 403.6 57.09 403.6 50.37V36.69H399.7ZM406.301 39.24H416.201V60H420.011V39.24H429.911V36.69H406.301V39.24ZM432.614 36.69V60H436.514V49.32H442.514C449.714 49.32 452.984 47.28 452.984 42.99C452.984 38.7 449.714 36.69 442.514 36.69H432.614ZM436.514 46.77V39.24H442.514C446.114 39.24 448.874 39.99 448.874 42.99C448.874 45.99 446.114 46.77 442.514 46.77H436.514ZM474.466 36.69V50.37C474.466 56.43 471.736 57.45 467.326 57.45C462.916 57.45 460.186 56.43 460.186 50.37V36.69H456.286V50.37C456.286 57.09 460.006 60.42 467.326 60.42C474.646 60.42 478.366 57.09 478.366 50.37V36.69H474.466ZM481.066 39.24H490.966V60H494.776V39.24H504.676V36.69H481.066V39.24Z" fill="#151515"/>
<path d="M291.037 26.5996L291.287 27.6749L291.93 26.7773L301.007 14.1053L298.465 29.4842L298.285 30.5735L299.223 29.9903L312.458 21.7566L304.225 34.9921L303.641 35.9296L304.731 35.7495L320.11 33.2075L307.438 42.2846L306.54 42.9276L307.615 43.1781L322.796 46.7148L307.615 50.2516L306.54 50.5021L307.438 51.1451L320.11 60.2222L304.731 57.6802L303.641 57.5001L304.225 58.4376L312.458 71.6731L299.223 63.4394L298.285 62.8562L298.465 63.9454L301.007 79.3244L291.93 66.6524L291.287 65.7548L291.037 66.8301L287.5 82.0112L283.963 66.8301L283.713 65.7548L283.07 66.6524L273.993 79.3244L276.535 63.9454L276.715 62.8562L275.777 63.4394L262.542 71.6731L270.775 58.4376L271.359 57.5001L270.269 57.6802L254.89 60.2222L267.562 51.1451L268.46 50.5021L267.385 50.2516L252.204 46.7148L267.385 43.1781L268.46 42.9276L267.562 42.2846L254.89 33.2075L270.269 35.7495L271.359 35.9296L270.775 34.9921L262.542 21.7566L275.777 29.9903L276.715 30.5735L276.535 29.4842L273.993 14.1053L283.07 26.7773L283.713 27.6749L283.963 26.5996L287.5 11.4185L291.037 26.5996Z" fill="#151515" stroke="black"/>
<path d="M196.214 16.1408C196.62 14.2077 199.38 14.2077 199.786 16.1408C200.329 18.7195 203.794 19.2177 205.041 16.8962C205.975 15.1559 208.623 15.9335 208.469 17.9028C208.262 20.5298 211.447 21.9841 213.297 20.1079C214.684 18.7014 217.006 20.1935 216.303 22.0395C215.365 24.502 218.01 26.7945 220.314 25.5156C222.041 24.5569 223.849 26.6426 222.654 28.2157C221.06 30.3142 222.953 33.2593 225.524 32.6813C227.451 32.248 228.598 34.7584 227.008 35.9312C224.888 37.4956 225.874 40.8546 228.504 41.0243C230.475 41.1516 230.868 43.8833 229.012 44.5607C226.537 45.4644 226.537 48.9653 229.012 49.8689C230.868 50.5464 230.475 53.2781 228.504 53.4053C225.874 53.575 224.888 56.9341 227.008 58.4985C228.598 59.6713 227.451 62.1817 225.524 61.7484C222.953 61.1704 221.06 64.1155 222.654 66.214C223.849 67.7871 222.041 69.8728 220.314 68.9141C218.01 67.6351 215.365 69.9277 216.303 72.3902C217.006 74.2362 214.684 75.7283 213.297 74.3218C211.447 72.4456 208.262 73.8999 208.469 76.5269C208.623 78.4962 205.975 79.2738 205.041 77.5335C203.794 75.2119 200.329 75.7102 199.786 78.2889C199.38 80.222 196.62 80.222 196.214 78.2889C195.671 75.7102 192.206 75.2119 190.959 77.5335C190.025 79.2738 187.377 78.4962 187.531 76.5269C187.738 73.8999 184.553 72.4456 182.703 74.3218C181.316 75.7283 178.994 74.2362 179.697 72.3902C180.635 69.9277 177.99 67.6351 175.686 68.9141C173.959 69.8728 172.151 67.7871 173.346 66.214C174.94 64.1155 173.047 61.1704 170.476 61.7484C168.549 62.1817 167.402 59.6713 168.992 58.4985C171.112 56.9341 170.126 53.575 167.496 53.4053C165.525 53.2781 165.132 50.5464 166.988 49.8689C169.463 48.9653 169.463 45.4644 166.988 44.5607C165.132 43.8833 165.525 41.1516 167.496 41.0243C170.126 40.8546 171.112 37.4956 168.992 35.9312C167.402 34.7584 168.549 32.248 170.476 32.6813C173.047 33.2593 174.94 30.3142 173.346 28.2157C172.151 26.6426 173.959 24.5569 175.686 25.5156C177.99 26.7945 180.635 24.502 179.697 22.0395C178.994 20.1935 181.316 18.7014 182.703 20.1079C184.553 21.9841 187.738 20.5298 187.531 17.9028C187.377 15.9335 190.025 15.1559 190.959 16.8962C192.206 19.2177 195.671 18.7195 196.214 16.1408Z" fill="#151515" stroke="black"/>
<rect x="0.663781" y="36.525" width="51.5324" height="51.5324" transform="rotate(-24.839 0.663781 36.525)" fill="#151515" stroke="black"/>
<path d="M532.186 51.3622L582.6 16.464L587.616 77.5725L532.186 51.3622Z" fill="#151515" stroke="#151515"/>
<ellipse cx="112.678" cy="46.7148" rx="36.657" ry="23.577" transform="rotate(44.4436 112.678 46.7148)" fill="#151515"/>
</svg>
