<svg width="635" height="97" viewBox="0 0 635 97" fill="none" xmlns="http://www.w3.org/2000/svg">
<path d="M284.09 46.1448C284.09 46.1448 283.13 36.4848 271.79 36.4848C263.51 36.4848 258.8 41.5548 258.8 48.5748C258.8 55.5648 263.81 60.6348 272.09 60.6348C283.79 60.6348 284.72 51.4248 284.72 51.4248L280.7 50.2548C280.7 50.2548 280.52 57.6648 272.09 57.6648C266.45 57.6648 262.91 53.7048 262.91 48.5748C262.91 43.4148 266.15 39.4548 271.79 39.4548C279.77 39.4548 280.07 47.3448 280.07 47.3448L284.09 46.1448ZM315.541 48.5748C315.541 41.5548 310.201 36.4848 301.921 36.4848C293.641 36.4848 288.331 41.5548 288.331 48.5748C288.331 55.5648 293.641 60.6348 301.921 60.6348C310.201 60.6348 315.541 55.5648 315.541 48.5748ZM311.431 48.5748C311.431 53.7048 307.591 57.6648 301.921 57.6648C296.281 57.6648 292.441 53.7048 292.441 48.5748C292.441 43.4148 296.281 39.4548 301.921 39.4548C307.591 39.4548 311.431 43.4148 311.431 48.5748ZM342.582 36.9048H338.682V56.1648L324.852 36.9048H320.052V60.2148H323.952V40.9548L337.782 60.2148H342.582V36.9048ZM372.361 46.1448C372.361 46.1448 371.401 36.4848 360.061 36.4848C351.781 36.4848 347.071 41.5548 347.071 48.5748C347.071 55.5648 352.081 60.6348 360.361 60.6348C372.061 60.6348 372.991 51.4248 372.991 51.4248L368.971 50.2548C368.971 50.2548 368.791 57.6648 360.361 57.6648C354.721 57.6648 351.181 53.7048 351.181 48.5748C351.181 43.4148 354.421 39.4548 360.061 39.4548C368.041 39.4548 368.341 47.3448 368.341 47.3448L372.361 46.1448ZM377.503 60.2148H395.953V57.6648H381.403V49.8048H394.243V47.2548H381.403V39.4548H395.083V36.9048H377.503V60.2148ZM399.856 36.9048V60.2148H403.756V49.5348H409.756C416.956 49.5348 420.226 47.4948 420.226 43.2048C420.226 38.9148 416.956 36.9048 409.756 36.9048H399.856ZM403.756 46.9848V39.4548H409.756C413.356 39.4548 416.116 40.2048 416.116 43.2048C416.116 46.2048 413.356 46.9848 409.756 46.9848H403.756ZM420.828 39.4548H430.728V60.2148H434.538V39.4548H444.438V36.9048H420.828V39.4548Z" fill="#151515"/>
<path d="M504.037 26.5996L504.287 27.6749L504.93 26.7773L514.007 14.1053L511.465 29.4842L511.285 30.5735L512.223 29.9903L525.458 21.7566L517.225 34.9921L516.641 35.9296L517.731 35.7495L533.11 33.2075L520.438 42.2846L519.54 42.9276L520.615 43.1781L535.796 46.7148L520.615 50.2516L519.54 50.5021L520.438 51.1451L533.11 60.2222L517.731 57.6802L516.641 57.5001L517.225 58.4376L525.458 71.6731L512.223 63.4394L511.285 62.8562L511.465 63.9454L514.007 79.3244L504.93 66.6524L504.287 65.7548L504.037 66.8301L500.5 82.0112L496.963 66.8301L496.713 65.7548L496.07 66.6524L486.993 79.3244L489.535 63.9454L489.715 62.8562L488.777 63.4394L475.542 71.6731L483.775 58.4376L484.359 57.5001L483.269 57.6802L467.89 60.2222L480.562 51.1451L481.46 50.5021L480.385 50.2516L465.204 46.7148L480.385 43.1781L481.46 42.9276L480.562 42.2846L467.89 33.2075L483.269 35.7495L484.359 35.9296L483.775 34.9921L475.542 21.7566L488.777 29.9903L489.715 30.5735L489.535 29.4842L486.993 14.1053L496.07 26.7773L496.713 27.6749L496.963 26.5996L500.5 11.4185L504.037 26.5996Z" fill="#151515" stroke="black"/>
<path d="M195.214 16.1408C195.62 14.2077 198.38 14.2077 198.786 16.1408C199.329 18.7195 202.794 19.2177 204.041 16.8962C204.975 15.1559 207.623 15.9335 207.469 17.9028C207.262 20.5298 210.447 21.9841 212.297 20.1079C213.684 18.7014 216.006 20.1935 215.303 22.0395C214.365 24.502 217.01 26.7945 219.314 25.5156C221.041 24.5569 222.849 26.6426 221.654 28.2157C220.06 30.3142 221.953 33.2593 224.524 32.6813C226.451 32.248 227.598 34.7584 226.008 35.9312C223.888 37.4956 224.874 40.8546 227.504 41.0243C229.475 41.1516 229.868 43.8833 228.012 44.5607C225.537 45.4644 225.537 48.9653 228.012 49.8689C229.868 50.5464 229.475 53.2781 227.504 53.4053C224.874 53.575 223.888 56.9341 226.008 58.4985C227.598 59.6713 226.451 62.1817 224.524 61.7484C221.953 61.1704 220.06 64.1155 221.654 66.214C222.849 67.7871 221.041 69.8728 219.314 68.9141C217.01 67.6351 214.365 69.9277 215.303 72.3902C216.006 74.2362 213.684 75.7283 212.297 74.3218C210.447 72.4456 207.262 73.8999 207.469 76.5269C207.623 78.4962 204.975 79.2738 204.041 77.5335C202.794 75.2119 199.329 75.7102 198.786 78.2889C198.38 80.222 195.62 80.222 195.214 78.2889C194.671 75.7102 191.206 75.2119 189.959 77.5335C189.025 79.2738 186.377 78.4962 186.531 76.5269C186.738 73.8999 183.553 72.4456 181.703 74.3218C180.316 75.7283 177.994 74.2362 178.697 72.3902C179.635 69.9277 176.99 67.6351 174.686 68.9141C172.959 69.8728 171.151 67.7871 172.346 66.214C173.94 64.1155 172.047 61.1704 169.476 61.7484C167.549 62.1817 166.402 59.6713 167.992 58.4985C170.112 56.9341 169.126 53.575 166.496 53.4053C164.525 53.2781 164.132 50.5464 165.988 49.8689C168.463 48.9653 168.463 45.4644 165.988 44.5607C164.132 43.8833 164.525 41.1516 166.496 41.0243C169.126 40.8546 170.112 37.4956 167.992 35.9312C166.402 34.7584 167.549 32.248 169.476 32.6813C172.047 33.2593 173.94 30.3142 172.346 28.2157C171.151 26.6426 172.959 24.5569 174.686 25.5156C176.99 26.7945 179.635 24.502 178.697 22.0395C177.994 20.1935 180.316 18.7014 181.703 20.1079C183.553 21.9841 186.738 20.5298 186.531 17.9028C186.377 15.9335 189.025 15.1559 189.959 16.8962C191.206 19.2177 194.671 18.7195 195.214 16.1408Z" fill="#151515" stroke="black"/>
<rect x="0.663781" y="36.5259" width="51.5324" height="51.5324" transform="rotate(-24.839 0.663781 36.5259)" fill="#151515" stroke="black"/>
<path d="M551.186 51.3622L601.6 16.464L606.616 77.5725L551.186 51.3622Z" fill="#151515" stroke="#151515"/>
<ellipse cx="112.678" cy="46.7148" rx="36.657" ry="23.577" transform="rotate(44.4436 112.678 46.7148)" fill="#151515"/>
</svg>
