<svg width="85" height="83" viewBox="0 0 85 83" fill="none" xmlns="http://www.w3.org/2000/svg">
<path d="M1.76758 29.4961C1.76758 19.0027 10.2742 10.4961 20.7676 10.4961H56.7676C67.261 10.4961 75.7676 19.0027 75.7676 29.4961V62.4961C75.7676 72.9895 67.261 81.4961 56.7676 81.4961H20.7676C10.2742 81.4961 1.76758 72.9895 1.76758 62.4961V29.4961Z" fill="#DDDFE0" stroke="#151515" stroke-width="2"/>
<path d="M9.76758 20.4961C9.76758 10.0027 18.2742 1.49609 28.7676 1.49609H64.7676C75.261 1.49609 83.7676 10.0027 83.7676 20.4961V53.4961C83.7676 63.9895 75.261 72.4961 64.7676 72.4961H28.7676C18.2742 72.4961 9.76758 63.9895 9.76758 53.4961V20.4961Z" fill="black" stroke="#DDDFE0" stroke-width="2"/>
<line x1="27.4747" y1="16.789" x2="68.4747" y2="57.789" stroke="#DDDFE0" stroke-width="2"/>
<line x1="26.052" y1="58.7976" x2="67.052" y2="16.7976" stroke="#DDDFE0" stroke-width="2"/>
</svg>
