<svg id="Livello_1" data-name="Livello 1" xmlns="http://www.w3.org/2000/svg" viewBox="0 0 460 464">
  <path d="M220.4,9.3c2.2-10.4,17-10.4,19.2,0l6.1,28.9c2.5,11.7,18.2,13.9,23.8,3.4l14-26c5-9.3,19.2-5.2,18.4,5.4l-2.3,29.5c-.9,11.9,13.5,18.5,21.9,10l20.8-21.1c7.5-7.5,19.9.5,16.1,10.4L347.9,77.4c-4.3,11.1,7.7,21.5,18.2,15.7L392,78.7c9.3-5.1,19,6,12.6,14.5l-17.9,23.5c-7.2,9.5,1.4,22.8,13,20.2l28.9-6.5c10.4-2.3,16.5,11.1,8,17.4l-23.8,17.6c-9.6,7.1-5.1,22.3,6.8,23l29.5,1.9c10.6.7,12.7,15.3,2.7,19L424,219.4a12.77142,12.77142,0,0,0,0,24l27.8,10.1c10,3.6,7.9,18.3-2.7,19l-29.5,1.9c-11.9.8-16.4,16-6.8,23L436.6,315c8.5,6.3,2.4,19.7-8,17.4l-28.9-6.5c-11.6-2.6-20.2,10.7-13,20.2l17.9,23.5c6.4,8.4-3.3,19.6-12.6,14.5L366,370c-10.4-5.8-22.4,4.6-18.2,15.7l10.5,27.6c3.8,9.9-8.7,17.9-16.1,10.4l-20.8-21.1c-8.4-8.5-22.8-1.9-21.9,10l2.3,29.5c.8,10.5-13.4,14.7-18.4,5.4l-14-26c-5.6-10.5-21.3-8.3-23.8,3.4l-6.1,28.9c-2.2,10.4-17,10.4-19.2,0l-6.1-28.9c-2.5-11.7-18.2-13.9-23.8-3.4l-14,26c-5,9.3-19.2,5.2-18.4-5.4l2.3-29.5c.9-11.9-13.5-18.5-21.9-10l-20.8,21.1c-7.4,7.5-19.9-.5-16.1-10.4L112,385.7c4.3-11.1-7.7-21.5-18.2-15.7L67.9,384.4c-9.3,5.1-19-6-12.6-14.5l17.9-23.5c7.2-9.5-1.4-22.8-13-20.2l-28.9,6.5c-10.4,2.3-16.5-11.1-8-17.4l23.8-17.6c9.6-7.1,5.1-22.3-6.8-23l-29.5-1.9c-10.6-.7-12.7-15.3-2.7-19l27.8-10.1a12.77143,12.77143,0,0,0,0-24L8.4,209.4c-10-3.6-7.9-18.3,2.7-19l29.5-1.9c11.9-.8,16.4-16,6.8-23L23.6,148c-8.5-6.3-2.4-19.7,8-17.4l28.9,6.5c11.6,2.6,20.2-10.7,13-20.2L55.6,93.3c-6.4-8.4,3.3-19.6,12.6-14.5L94,93.1c10.4,5.8,22.4-4.6,18.2-15.7L101.7,49.8c-3.8-9.9,8.7-17.9,16.1-10.4l20.8,21.1c8.4,8.5,22.8,1.9,21.9-10L158.1,21c-.8-10.6,13.4-14.7,18.4-5.4l14,26c5.6,10.5,21.3,8.3,23.8-3.4Z" fill="none" stroke="#000" stroke-width="3"/>
</svg>
