<svg id="Livello_1" data-name="Livello 1" xmlns="http://www.w3.org/2000/svg" viewBox="0 0 494.87 495.86">
  <path d="M311.64,32.18,323.4,149.81l80.48-86.49-34.06,113.2L477.2,127.45,402.5,219l117.92-4.18-104,56L527,312.15,409.57,324l86.28,80.59-113-34.07L431.8,478.08l-91.34-74.8,4.11,118.15-55.8-104.14L247.43,528,235.67,410.42l-80.48,86.49L189.25,383.7,81.87,432.77l74.7-91.55L38.65,345.39l104-56L32.1,248.07l117.41-11.84-86.29-80.6,113,34.07L127.27,82.15l91.34,74.79-4.1-118.15L270.3,142.93Z" transform="translate(-32.1 -32.18)" fill="#a582fb"/>
</svg>
