<?xml version="1.0" encoding="utf-8"?>
<!-- Generator: Adobe Illustrator 25.0.1, SVG Export Plug-In . SVG Version: 6.00 Build 0)  -->
<svg version="1.1" id="Layer_1" xmlns="http://www.w3.org/2000/svg" xmlns:xlink="http://www.w3.org/1999/xlink" x="0px" y="0px"
	 viewBox="0 0 1160 1161" style="enable-background:new 0 0 1160 1161;" xml:space="preserve">
<style type="text/css">
	.st0{fill:#F2F2F2;}
</style>
<ellipse transform="matrix(0.7071 -0.7071 0.7071 0.7071 -240.6808 579.9347)" class="st0" cx="579.7" cy="580.5" rx="443.3" ry="690.9"/>
<g>
	<path d="M418.3,399.4c24,0,34.9,6.7,34.9,21c0,11.9-10,17.6-23.5,17.6c7.3,0.9,15.5,4.3,17.8,13.3c5.3,20.4,6.2,23.8,7.7,25.8
		h-13.5c-1.5-2-2.4-5.9-6.6-23.6c-2.1-8.8-7.3-12-23.8-12h-13v35.6h-13v-77.8H418.3z M418.3,433c12,0,21.2-2.6,21.2-12.6
		s-9.2-12.5-21.2-12.5h-20V433H418.3z"/>
	<path d="M470.3,399.4h12v9.6h-12V399.4z M470.3,421.6h12v55.6h-12V421.6z"/>
	<path d="M518.4,458.1c-3.1,0.4-7.3,1.8-7.3,6c0,3.6,2.9,5.5,8.6,5.5h19c17.3,0,22.3,7.4,22.3,14.9c0,9.9-8.6,15.9-29.4,15.9h-13
		c-18.5,0-22.3-7.4-22.3-12.6c0-7.2,7.8-11.4,17.4-11.4c0,0-15.4-0.4-15.4-9.9c0-7.5,10.7-9.2,15.4-9.6
		c-10.1-3.2-14.6-10.1-14.6-17.3c0-10,8.6-19.4,28.6-19.4c8.8,0,15.4,1.8,20,4.7c-4.8-8.6-1.2-14.7,12.9-12.9l2.4,8.9
		c-10.7-1.9-14.7,2.9-11.4,7.2c3.2,3.3,4.7,7.3,4.7,11.5c0,10-8.6,19.3-28.3,19.3C524.4,458.9,521.2,458.6,518.4,458.1z
		 M520.8,477.1c0,0-11.6,0-11.6,8.7c0,6.3,4.9,8.5,19.9,8.5c13.2,0,19-2.2,19-8.5c0-4.2-2.6-6.8-10.3-7.4L520.8,477.1z M527.7,451.4
		c11.6,0,15.7-5.7,15.7-11.8c0-6.3-4.1-11.9-15.7-11.9c-11.6,0-15.8,5.6-15.8,11.9C511.9,445.7,516.1,451.4,527.7,451.4z"/>
	<path d="M591.2,458.1c-3.1,0.4-7.3,1.8-7.3,6c0,3.6,2.9,5.5,8.6,5.5h19c17.3,0,22.3,7.4,22.3,14.9c0,9.9-8.6,15.9-29.4,15.9h-13
		c-18.5,0-22.3-7.4-22.3-12.6c0-7.2,7.8-11.4,17.4-11.4c0,0-15.4-0.4-15.4-9.9c0-7.5,10.7-9.2,15.4-9.6
		c-10.1-3.2-14.6-10.1-14.6-17.3c0-10,8.6-19.4,28.6-19.4c8.8,0,15.4,1.8,20,4.7c-4.8-8.6-1.2-14.7,12.9-12.9l2.4,8.9
		c-10.7-1.9-14.7,2.9-11.4,7.2c3.2,3.3,4.7,7.3,4.7,11.5c0,10-8.6,19.3-28.3,19.3C597.2,458.9,594,458.6,591.2,458.1z M593.6,477.1
		c0,0-11.6,0-11.6,8.7c0,6.3,4.9,8.5,19.9,8.5c13.2,0,19-2.2,19-8.5c0-4.2-2.6-6.8-10.3-7.4L593.6,477.1z M600.5,451.4
		c11.6,0,15.7-5.7,15.7-11.8c0-6.3-4.1-11.9-15.7-11.9s-15.8,5.6-15.8,11.9C584.7,445.7,588.9,451.4,600.5,451.4z"/>
	<path d="M673.7,478.5c-16.2,0-30.8-10.4-30.8-29.2c0-16.6,11.2-29.1,30.8-29.1c31.2,0,28.4,30.6,28.4,30.6l-46.5-1
		c0.2,12.7,8.4,19.8,19.5,19.8c16,0,16-14.6,16-14.6l12.4,3.6C703.6,458.6,700.1,478.5,673.7,478.5z M673,429.1
		c-9.3,0-15.1,5.8-16.8,14.6l33.2-0.5C689.4,443.2,688.7,429.1,673,429.1z"/>
	<path d="M763.4,400.5c6.3,0,12-1.1,12-1.1v77.8h-6.8l-3.8-13.2c0,0-3.7,14.6-21.3,14.6c-16.6,0-27.8-12.1-27.8-29.1
		c0-17,11.2-29.2,27.8-29.2c15,0,19.9,11.7,19.9,11.7V400.5z M765.9,449.4c0-11-6.6-20.3-18.6-20.3c-11.8,0-18.8,8.3-18.8,20.3
		c0,12,7,20.2,18.8,20.2C759.3,469.6,765.9,460.4,765.9,449.4z"/>
	<path d="M246.2,541.6l3.8,13.2c0,0,3.7-14.6,21.3-14.6c16.6,0,27.8,12.1,27.8,29.1s-11.2,29.2-27.8,29.2
		c-15.3,0-19.9-11.8-19.9-11.8v32.7h-12v-77.9H246.2z M248.9,569.3c0,11,6.6,20.3,18.6,20.3c11.8,0,18.8-8.3,18.8-20.3
		c0-12-7-20.2-18.8-20.2C255.5,549.1,248.9,558.3,248.9,569.3z"/>
	<path d="M326.2,597.1h-12v-55.6h5.8l5.1,16.5c0,0,1.9-17.9,17.2-17.9c9.2,0,12.1,6.3,12.1,13.6c0,7.1-2,11.8-2,11.8l-12.4,3.6
		c0,0,2.1-6.4,2.1-12.8c0-4.8-1.6-7.3-4.9-7.3c-7.7,0-11,11.9-11,15.1V597.1z"/>
	<path d="M393.3,598.5c-16.2,0-30.8-10.4-30.8-29.2c0-16.6,11.2-29.1,30.8-29.1c31.2,0,28.4,30.6,28.4,30.6l-46.5-1
		c0.2,12.7,8.4,19.8,19.5,19.8c16,0,16-14.6,16-14.6l12.4,3.6C423.2,578.6,419.7,598.5,393.3,598.5z M392.6,549.1
		c-9.3,0-15.1,5.8-16.8,14.6l33.2-0.5C409,563.2,408.3,549.1,392.6,549.1z"/>
	<path d="M459.7,549.1c-8.1,0-11.5,3.1-11.5,7.1c0,3.2,3.6,5.8,11.2,7.1l13.6,2.4c12.4,2.2,17,8.1,17,15.4c0,10.7-11,17.4-24.7,17.4
		c-29.1,0-32-19.9-32-19.9l12.4-3.6c0,0-1.8,14.6,19.7,14.6c7.5,0,11.8-3.3,11.8-7.5c0-3.7-2.8-6.5-11.6-8.1l-12.2-2.2
		c-12.4-2.2-17-8.3-17-15c0-10.5,10.4-16.6,23.5-16.6c25.4,0,27,16.7,27,16.7l-12.4,3.6C474.5,560.5,475.7,549.1,459.7,549.1z"/>
	<path d="M503,519.4h12v9.6h-12V519.4z M503,541.6h12v55.6h-12V541.6z"/>
	<path d="M577.8,520.5c6.3,0,12-1.1,12-1.1v77.8H583l-3.8-13.2c0,0-3.7,14.6-21.3,14.6c-16.6,0-27.8-12.1-27.8-29.1
		c0-17,11.2-29.2,27.8-29.2c15,0,19.9,11.7,19.9,11.7V520.5z M580.3,569.4c0-11-6.6-20.3-18.6-20.3c-11.8,0-18.8,8.3-18.8,20.3
		c0,12,7,20.2,18.8,20.2C573.7,589.6,580.3,580.4,580.3,569.4z"/>
	<path d="M635.7,598.5c-16.2,0-30.8-10.4-30.8-29.2c0-16.6,11.2-29.1,30.8-29.1c31.2,0,28.4,30.6,28.4,30.6l-46.5-1
		c0.2,12.7,8.4,19.8,19.5,19.8c16,0,16-14.6,16-14.6l12.4,3.6C665.6,578.6,662.1,598.5,635.7,598.5z M635,549.1
		c-9.3,0-15.1,5.8-16.8,14.6l33.2-0.5C651.4,563.2,650.7,549.1,635,549.1z"/>
	<path d="M725.5,562.9c0-9.3-5.7-13.8-15.7-13.8c-15.1,0-17.1,11.6-17.1,15v33h-12v-55.6h5.8l5.1,16.5c0,0,1.4-17.9,22.6-17.9
		c16.5,0,23.3,8.5,23.3,22.5v34.4h-12V562.9z"/>
	<path d="M748.5,541.6h12.9V529l11.5-8v20.6h22.8v7.5h-22.8V577c0,8.7,3.3,12.6,9.7,12.6c9.7,0,12.7-8,12.7-8l2.4,8.9
		c0,0-5.3,8-17.6,8c-11.9,0-19.2-6.3-19.2-20.2v-29.2h-12.4V541.6z"/>
	<path d="M808.7,519.4h12v9.6h-12V519.4z M808.7,541.6h12v55.6h-12V541.6z"/>
	<path d="M890.7,589.6c4.9,0,7.1-5,7.1-5l2.4,8.9c0,0-3.7,5-13,5c-6.2,0-12.4-3.1-12.4-12.9v-9.5c0,0-8,22.4-24.6,22.4
		c-8.2,0-13.4-5.3-13.4-12.2c0-9.3,8.2-22.2,38-25.6c0,0,1-11.6-11.9-11.6c-13,0-15.7,11.2-15.7,11.2l-12.4-3.6
		c0,0,5.4-16.5,27.7-16.5c16.6,0,24.7,8.9,24.4,20.3l-0.6,23.3C886.2,587.3,887.5,589.6,890.7,589.6z M854.8,589.6
		c10.6,0,20.2-17.8,20-22v-3.5c-22.3,5.7-25.3,14.8-25.3,19.7C849.5,587.6,851.5,589.6,854.8,589.6z"/>
	<path d="M909.3,520.5c6.4,0,12-1.1,12-1.1v77.8h-12V520.5z"/>
	<path d="M376.4,718.5c-16.2,0-30.8-10.4-30.8-29.2c0-16.6,11.2-29.1,30.8-29.1c31.2,0,28.4,30.6,28.4,30.6l-46.5-1
		c0.2,12.7,8.4,19.8,19.5,19.8c16,0,16-14.6,16-14.6l12.4,3.6C406.3,698.6,402.8,718.5,376.4,718.5z M375.7,669.1
		c-9.3,0-15.1,5.8-16.8,14.6l33.2-0.5C392.1,683.2,391.4,669.1,375.7,669.1z"/>
	<path d="M421.3,640.5c6.4,0,12-1.1,12-1.1v77.8h-12V640.5z"/>
	<path d="M479.2,718.5c-16.2,0-30.8-10.4-30.8-29.2c0-16.6,11.2-29.1,30.8-29.1c31.2,0,28.4,30.6,28.4,30.6l-46.5-1
		c0.2,12.7,8.4,19.8,19.5,19.8c16,0,16-14.6,16-14.6l12.4,3.6C509.1,698.6,505.6,718.5,479.2,718.5z M478.5,669.1
		c-9.3,0-15.1,5.8-16.8,14.6l33.2-0.5C494.9,683.2,494.2,669.1,478.5,669.1z"/>
	<path d="M581.9,698.6c0,0-3.6,19.9-29.9,19.9c-16.2,0-30.8-10.4-30.8-29.2c0-16.6,11.3-29.1,30.3-29.1c22.7,0,28.3,15,28.8,25.5
		l-12.4,3.6c0.8-9.9-3.3-20.2-16.4-20.2c-11.4,0-17.5,8.4-17.5,20.2c0,13,8.2,20.3,19.5,20.3c15.9,0,16-14.6,16-14.6L581.9,698.6z"
		/>
	<path d="M589.9,661.6h12.9V649l11.5-8v20.6h22.8v7.5h-22.8V697c0,8.7,3.3,12.6,9.7,12.6c9.7,0,12.7-8,12.7-8l2.4,8.9
		c0,0-5.3,8-17.6,8c-11.9,0-19.2-6.3-19.2-20.2v-29.2h-12.4V661.6z"/>
	<path d="M650.2,639.4h12v9.6h-12V639.4z M650.2,661.6h12v55.6h-12V661.6z"/>
	<path d="M708.7,660.2c19.8,0,31.5,12.8,31.5,29.1c0,16.4-11.7,29.2-31.5,29.2s-31.5-12.8-31.5-29.2
		C677.2,673,688.9,660.2,708.7,660.2z M708.7,709.6c11.4,0,18.7-8.3,18.7-20.3s-7.3-20.2-18.7-20.2c-11.6,0-18.7,8.2-18.7,20.2
		S697.1,709.6,708.7,709.6z"/>
	<path d="M800.1,682.9c0-9.3-5.7-13.8-15.7-13.8c-15.1,0-17.1,11.6-17.1,15v33h-12v-55.6h5.8l5.1,16.5c0,0,1.4-17.9,22.6-17.9
		c16.5,0,23.3,8.5,23.3,22.5v34.4h-12V682.9z"/>
</g>
</svg>
