<svg id="Layer_1" data-name="Layer 1" xmlns="http://www.w3.org/2000/svg" viewBox="0 0 1160 1161">
  <ellipse cx="579.68468" cy="580.484" rx="690.89342" ry="443.29571" transform="translate(-240.67846 579.91879) rotate(-45)" fill="#f2f2f2"/>
  <g>
    <path d="M480.7876,431.17207s4.8999-11.70068,19.90088-11.70068c16.60107,0,27.80175,12.20068,27.80175,29.20166s-11.20068,29.10156-27.80175,29.10156c-17.60108,0-21.30127-14.60058-21.30127-14.60058l-3.8003,13.20068h-6.80029V399.77022a69.97279,69.97279,0,0,0,12.001-1.1001Zm34.90185,17.501c0-12.001-7.00049-20.30127-18.80127-20.30127-12.00048,0-18.60107,9.30078-18.60107,20.30127s6.60059,20.20117,18.60107,20.20117C508.689,468.87422,515.68945,460.67354,515.68945,448.67305Z"/>
    <path d="M543.48584,398.67012h12.001v9.60059h-12.001Zm0,22.20117h12.001v55.50342h-12.001Z"/>
    <path d="M625.38867,468.87422c4.90039,0,7.09961-5.00048,7.09961-5.00048l2.40039,8.90087s-3.70019,5-13.001,5c-6.2002,0-12.4004-3.10009-12.4004-12.90039v-9.501s-8,22.40136-24.60156,22.40136c-8.20068,0-13.40088-5.30029-13.40088-12.20068,0-9.30029,8.20069-22.20117,38.00244-25.60156,0,0,1-11.60059-11.90039-11.60059-13.001,0-15.70117,11.20069-15.70117,11.20069l-12.40088-3.6001s5.39991-16.501,27.70166-16.501c16.60157,0,24.70118,8.90039,24.40137,20.30127l-.59961,23.30127C620.8877,466.57393,622.18848,468.87422,625.38867,468.87422Zm-35.90234,0c10.60058,0,20.20117-17.80127,20.001-22.00146v-3.5c-22.30175,5.70019-25.30175,14.80078-25.30175,19.70117C584.18555,466.87422,586.18555,468.87422,589.48633,468.87422Z"/>
    <path d="M665.28613,428.37178c-8.10058,0-11.501,3.1001-11.501,7.10059,0,3.20019,3.60058,5.80029,11.20117,7.1001l13.60058,2.40039c12.40039,2.20019,17.001,8.10058,17.001,15.40088,0,10.70068-11.001,17.40087-24.70215,17.40087-29.10156,0-32.002-19.90087-32.002-19.90087l12.40137-3.60059s-1.79981,14.60107,19.70117,14.60107c7.5,0,11.80078-3.30029,11.80078-7.50048,0-3.7002-2.80078-6.50049-11.60059-8.10059l-12.20117-2.2002c-12.40039-2.1997-17.001-8.30029-17.001-15.00048,0-10.501,10.40039-16.60108,23.50195-16.60108,25.40137,0,27.001,16.70068,27.001,16.70068l-12.40039,3.60059S681.28711,428.37178,665.28613,428.37178Z"/>
    <path d="M530.63965,588.87422c4.90039,0,7.10058-5.001,7.10058-5.001l2.39991,8.90136s-3.7002,5-13.001,5c-6.2002,0-12.40039-3.10058-12.40039-12.90039v-9.501s-8.00049,22.40136-24.60156,22.40136c-8.20069,0-13.40088-5.30078-13.40088-12.20117,0-9.2998,8.20019-22.20068,38.00244-25.60107,0,0,1-11.60059-11.90088-11.60059-13.001,0-15.70117,11.20069-15.70117,11.20069l-12.40039-3.6001s5.40039-16.501,27.70166-16.501c16.60107,0,24.70117,8.90039,24.40137,20.30127l-.6001,23.30078C526.13916,586.57344,527.43945,588.87422,530.63965,588.87422Zm-35.90235,0c10.60059,0,20.20118-17.80127,20.00147-22.00146v-3.5C492.437,569.073,489.437,578.17354,489.437,583.07344,489.437,586.87422,491.437,588.87422,494.7373,588.87422Z"/>
    <path d="M593.93848,562.17256c0-9.30029-5.7002-13.80078-15.70069-13.80078-15.10107,0-17.10107,11.60059-17.10107,15.001v33.00146h-12.001V540.87129h5.8003l5.10058,16.501s1.3999-17.90088,22.60108-17.90088c16.501,0,23.30175,8.50049,23.30175,22.501v34.40185h-12.001Z"/>
    <path d="M668.6377,519.77022a71.49667,71.49667,0,0,0,12.001-1.1001v77.7041h-6.80078l-3.7998-13.20019s-3.7002,14.60058-21.30176,14.60058c-16.60059,0-27.80176-12.10058-27.80176-29.10156s11.20117-29.20166,27.80176-29.20166c15.001,0,19.90137,11.70068,19.90137,11.70068Zm2.5,48.90283c0-11.00049-6.60059-20.30127-18.60157-20.30127-11.7998,0-18.80078,8.30029-18.80078,20.30127,0,12,7.001,20.20117,18.80078,20.20117C664.53711,588.87422,671.1377,579.67354,671.1377,568.67305Z"/>
    <path d="M450.688,653.77071a10.20049,10.20049,0,0,0,3.00049,7.10058h20.40088v7.5H454.28809v48.00293H442.2876V668.37129H429.88672v-7.5h16.001s-6.9004-2-6.9004-9.10058c0-6.60059,6.00049-14.501,22.50147-14.501,23.60156,0,29.00146,16.501,29.00146,16.501l-12.40039,3.60058s-2.80029-12.20117-16.20117-12.20117C454.98828,645.17012,450.688,648.46993,450.688,653.77071Z"/>
    <path d="M508.28857,717.77461c-16.20117,0-30.80175-10.40039-30.80175-29.20214,0-16.60059,11.20068-29.10157,30.80175-29.10157,31.20166,0,28.40186,30.60157,28.40186,30.60157l-46.40283-1c.1997,12.70117,8.40039,19.80175,19.501,19.80175,16.001,0,16.001-14.60156,16.001-14.60156l12.40088,3.60059S534.69043,717.77461,508.28857,717.77461Zm-.70019-49.40332c-9.30029,0-15.10059,5.80078-16.80078,14.60157l33.20215-.5S523.28955,668.37129,507.58838,668.37129Z"/>
    <path d="M605.08887,708.87422c4.90039,0,7.10058-5.001,7.10058-5.001l2.40039,8.90136s-3.70019,5-13.001,5c-6.2002,0-12.40039-3.10058-12.40039-12.90039v-9.501s-8.001,22.40136-24.60205,22.40136c-8.20069,0-13.40088-5.30078-13.40088-12.20117,0-9.2998,8.20019-22.20117,38.00293-25.60156,0,0,1-11.60059-11.90137-11.60059-13.001,0-15.70117,11.20118-15.70117,11.20118l-12.40039-3.60059s5.40039-16.501,27.70166-16.501c16.60107,0,24.70166,8.90039,24.40185,20.30176l-.60058,23.30078C600.58887,706.57344,601.88867,708.87422,605.08887,708.87422Zm-35.90235,0c10.60059,0,20.20118-17.80175,20.002-22.002v-3.5c-22.30225,5.7002-25.30225,14.80078-25.30225,19.70117C563.88623,706.87422,565.88623,708.87422,569.18652,708.87422Z"/>
    <path d="M635.58594,716.37422H623.585V660.87129h5.80078l5.10059,16.501s1.89941-17.90137,17.20019-17.90137c9.20118,0,12.10157,6.30078,12.10157,13.60059a32.81565,32.81565,0,0,1-2.001,11.80078l-12.40039,3.60059a47.15656,47.15656,0,0,0,2.10058-12.80079c0-4.80078-1.60058-7.30078-4.90039-7.30078-7.70117,0-11.001,11.90137-11.001,15.10157Z"/>
    <path d="M696.18652,668.37129c-8.10058,0-11.501,3.10059-11.501,7.10059,0,3.20019,3.60058,5.80078,11.20117,7.10059l13.60058,2.40039c12.4004,2.20019,17.001,8.10058,17.001,15.40039,0,10.70117-11.001,17.40136-24.70215,17.40136-29.10156,0-32.00195-19.90136-32.00195-19.90136l12.40137-3.60059s-1.79981,14.60156,19.70117,14.60156c7.5,0,11.80078-3.30078,11.80078-7.501,0-3.7002-2.80078-6.5-11.60059-8.10059l-12.20117-2.20019c-12.40039-2.19922-17.001-8.29981-17.001-15,0-10.501,10.40039-16.60157,23.50195-16.60157,25.40137,0,27.001,16.70117,27.001,16.70117l-12.4004,3.60059S712.1875,668.37129,696.18652,668.37129Z"/>
  </g>
</svg>
