<svg width="880" height="882" viewBox="0 0 880 882" fill="none" xmlns="http://www.w3.org/2000/svg">
<path d="M440 0L487.212 203.111L608.381 33.5691L574.448 239.327L751.127 129.166L641.216 306.246L846.507 272.237L677.35 393.681L880 441L677.35 488.319L846.507 609.763L641.216 575.754L751.127 752.834L574.448 642.673L608.381 848.431L487.212 678.889L440 882L392.788 678.889L271.619 848.431L305.552 642.673L128.873 752.834L238.784 575.754L33.493 609.763L202.65 488.319L0 441L202.65 393.681L33.493 272.237L238.784 306.246L128.873 129.166L305.552 239.327L271.619 33.5691L392.788 203.111L440 0Z" fill="#DAFC53"/>
</svg>
