<svg id="Layer_1" data-name="Layer 1" xmlns="http://www.w3.org/2000/svg" viewBox="0 0 1160 1161">
  <ellipse cx="579.68468" cy="580.484" rx="690.89342" ry="443.29571" transform="translate(-240.67846 579.91879) rotate(-45)" fill="#f2f2f2"/>
  <g>
    <path d="M449.6875,413.77022a10.20117,10.20117,0,0,0,3,7.10059h20.40137v7.50048H453.2876v48.00293H441.28711V428.37129H428.88623v-7.50048h16.001s-6.90039-2-6.90039-9.10059c0-6.6001,6.00048-14.501,22.50146-14.501,23.60156,0,29.002,16.501,29.002,16.501l-12.40087,3.60059s-2.8003-12.20069-16.20118-12.20069C453.98779,405.17012,449.6875,408.46993,449.6875,413.77022Z"/>
    <path d="M531.38965,468.87374c4.90039,0,7.10058-5.00049,7.10058-5.00049l2.39991,8.90088s-3.7002,5-13.001,5c-6.2002,0-12.40039-3.1001-12.40039-12.90039v-9.501s-8.00049,22.40137-24.60156,22.40137c-8.20069,0-13.40088-5.3003-13.40088-12.20069,0-9.30029,8.20019-22.20117,38.00244-25.60156,0,0,1-11.60059-11.90088-11.60059-13.001,0-15.70117,11.20069-15.70117,11.20069l-12.40039-3.6001s5.40039-16.501,27.70166-16.501c16.60107,0,24.70117,8.90039,24.40137,20.30127l-.6001,23.30127C526.88916,466.57344,528.18945,468.87374,531.38965,468.87374Zm-35.90235,0c10.60059,0,20.20118-17.80127,20.00147-22.00147v-3.5c-22.30176,5.7002-25.30176,14.80078-25.30176,19.70117C490.187,466.87374,492.187,468.87374,495.4873,468.87374Z"/>
    <path d="M607.58984,457.87325s-3.60058,19.90088-29.90234,19.90088c-16.20117,0-30.80176-10.40039-30.80176-29.20166,0-16.60108,11.30078-29.10157,30.30176-29.10157,22.70117,0,28.30176,15.001,28.80176,25.50147l-12.40039,3.6001c.7998-9.9004-3.30078-20.20118-16.40137-20.20118-11.40088,0-17.501,8.40039-17.501,20.20118,0,13.001,8.2002,20.30127,19.501,20.30127,15.90137,0,16.001-14.60108,16.001-14.60108Z"/>
    <path d="M615.584,420.87081h12.90137V408.27022l11.5-8.00049v20.60108h22.80176v7.50048H639.98535v27.90186c0,8.70019,3.30078,12.60059,9.70117,12.60059a13.41,13.41,0,0,0,12.7002-8.00049l2.40039,8.90039s-5.29981,8.00049-17.60059,8.00049c-11.90136,0-19.20117-6.3003-19.20117-20.20118V428.37129H615.584Z"/>
    <path d="M697.18652,428.37129c-8.10058,0-11.501,3.1001-11.501,7.10059,0,3.20019,3.60058,5.80029,11.20117,7.1001l13.60058,2.40039c12.4004,2.20019,17.001,8.10058,17.001,15.40088,0,10.70068-11.001,17.40088-24.70215,17.40088-29.10156,0-32.00195-19.90088-32.00195-19.90088l12.40137-3.60059s-1.79981,14.60108,19.70117,14.60108c7.5,0,11.80078-3.3003,11.80078-7.50049,0-3.7002-2.80078-6.50049-11.60059-8.10059l-12.20117-2.20019c-12.40039-2.19971-17.001-8.3003-17.001-15.00049,0-10.501,10.40039-16.60108,23.50195-16.60108,25.40137,0,27.001,16.70069,27.001,16.70069l-12.4004,3.60058S713.1875,428.37129,697.18652,428.37129Z"/>
    <path d="M553.8374,596.37422H540.73682l-25.80176-55.50341h13.80078L547.33691,585.674l18.80127-44.80322h13.60108Z"/>
    <path d="M611.13672,548.37129c-8.10059,0-11.5,3.1001-11.5,7.10059,0,3.20019,3.59961,5.80029,11.20019,7.1001l13.60059,2.40039c12.40137,2.20019,17.001,8.10058,17.001,15.40088,0,10.70117-11,17.40136-24.70118,17.40136-29.10156,0-32.00195-19.90136-32.00195-19.90136l12.40039-3.60059s-1.7998,14.60156,19.70117,14.60156c7.501,0,11.80079-3.30078,11.80079-7.501,0-3.7002-2.79981-6.50049-11.60059-8.10059l-12.2002-2.20019c-12.40136-2.19971-17.001-8.3003-17.001-15.00049,0-10.501,10.40039-16.60108,23.501-16.60108,25.40137,0,27.002,16.70069,27.002,16.70069l-12.40137,3.60058S627.1377,548.37129,611.13672,548.37129Z"/>
    <path d="M400.04,659.4709c19.80127,0,31.502,12.80078,31.502,29.10157,0,16.40136-11.70068,29.20214-31.502,29.20214s-31.50195-12.80078-31.50195-29.20214C368.53809,672.27168,380.23877,659.4709,400.04,659.4709Zm0,49.40332c11.40039,0,18.70117-8.30078,18.70117-20.30175,0-12-7.30078-20.20118-18.70117-20.20118-11.60108,0-18.70117,8.20118-18.70117,20.20118C381.33887,700.57344,388.439,708.87422,400.04,708.87422Z"/>
    <path d="M453.33838,660.87129l3.80029,13.2002s3.7002-14.60059,21.30127-14.60059c16.60108,0,27.80176,12.10059,27.80176,29.10157s-11.20068,29.20214-27.80176,29.20214c-15.30078,0-19.90088-11.80078-19.90088-11.80078V738.676h-12.001V660.87129Zm2.70019,27.70118c0,11.001,6.60059,20.30175,18.60108,20.30175,11.80078,0,18.80127-8.30078,18.80127-20.30175,0-12-7.00049-20.20118-18.80127-20.20118C462.63916,668.37129,456.03857,677.57247,456.03857,688.57247Z"/>
    <path d="M521.2373,638.67012h12.001v9.60059h-12.001Zm0,22.20117h12.001v55.50293h-12.001Z"/>
    <path d="M596.03906,682.17207c0-9.2998-5.70019-13.80078-15.70019-13.80078-15.10157,0-17.10157,11.60059-17.10157,15.001v33.002h-12.001V660.87129h5.80029l5.10059,16.501s1.3999-17.90137,22.60107-17.90137c16.501,0,23.30176,8.501,23.30176,22.501v34.40234h-12.001Z"/>
    <path d="M626.03516,638.67012h12.001v9.60059h-12.001Zm0,22.20117h12.001v55.50293h-12.001Z"/>
    <path d="M684.53613,659.4709c19.80078,0,31.502,12.80078,31.502,29.10157,0,16.40136-11.70118,29.20214-31.502,29.20214-19.80175,0-31.50195-12.80078-31.50195-29.20214C653.03418,672.27168,664.73438,659.4709,684.53613,659.4709Zm0,49.40332c11.40039,0,18.70117-8.30078,18.70117-20.30175,0-12-7.30078-20.20118-18.70117-20.20118-11.60156,0-18.70117,8.20118-18.70117,20.20118C665.835,700.57344,672.93457,708.87422,684.53613,708.87422Z"/>
    <path d="M775.83691,682.17207c0-9.2998-5.70019-13.80078-15.70117-13.80078-15.10058,0-17.10058,11.60059-17.10058,15.001v33.002h-12.001V660.87129h5.7998l5.10059,16.501s1.40039-17.90137,22.60156-17.90137c16.501,0,23.30176,8.501,23.30176,22.501v34.40234h-12.001Z"/>
  </g>
</svg>
