<svg width="814" height="821" viewBox="0 0 814 821" fill="none" xmlns="http://www.w3.org/2000/svg">
<path d="M387.396 15.8925C391.857 -5.29749 422.143 -5.29749 426.604 15.8925L437.404 67.1998C441.248 85.4623 465.817 88.9907 474.656 72.5498L499.49 26.36C509.747 7.28365 538.807 15.8067 537.11 37.3935L533.001 89.662C531.539 108.267 554.117 118.566 567.235 105.278L604.091 67.9484C619.313 52.5311 644.792 68.8867 637.075 89.1216L618.39 138.117C611.74 155.556 630.498 171.792 646.833 162.734L692.725 137.288C711.679 126.779 731.512 149.642 718.401 166.886L686.654 208.638C675.354 223.499 688.773 244.356 707.001 240.263L758.212 228.762C779.362 224.012 791.943 251.531 774.499 264.386L732.262 295.513C717.228 306.592 724.221 330.381 742.865 331.583L795.245 334.959C816.878 336.354 821.188 366.298 800.824 373.724L751.519 391.704C733.969 398.104 733.969 422.896 751.519 429.296L800.824 447.276C821.188 454.702 816.878 484.646 795.245 486.041L742.865 489.417C724.221 490.619 717.228 514.408 732.262 525.487L774.499 556.614C791.943 569.469 779.361 596.988 758.212 592.238L707.001 580.737C688.773 576.643 675.354 597.501 686.654 612.362L718.401 654.114C731.512 671.358 711.679 694.221 692.725 683.712L646.833 658.266C630.498 649.208 611.74 665.444 618.39 682.883L637.075 731.878C644.792 752.113 619.313 768.469 604.091 753.052L567.235 715.721C554.117 702.434 531.539 712.733 533.001 731.338L537.11 783.606C538.807 805.193 509.747 813.716 499.49 794.64L474.656 748.45C465.817 732.009 441.248 735.538 437.404 753.8L426.604 805.108C422.143 826.297 391.857 826.297 387.396 805.108L376.596 753.8C372.752 735.538 348.183 732.009 339.344 748.45L314.51 794.64C304.253 813.716 275.193 805.193 276.89 783.606L280.999 731.338C282.461 712.733 259.883 702.434 246.765 715.721L209.909 753.052C194.687 768.469 169.208 752.113 176.925 731.878L195.61 682.883C202.26 665.444 183.502 649.208 167.167 658.266L121.275 683.712C102.321 694.221 82.4877 671.358 95.5991 654.114L127.346 612.362C138.646 597.501 125.227 576.643 106.999 580.737L55.7885 592.238C34.6386 596.988 22.0571 569.469 39.5011 556.614L81.7383 525.487C96.7724 514.408 89.7795 490.619 71.1352 489.417L18.7553 486.041C-2.87753 484.646 -7.18776 454.702 13.1755 447.276L62.4813 429.296C80.0314 422.896 80.0314 398.104 62.4813 391.704L13.1756 373.724C-7.18771 366.298 -2.8775 336.354 18.7554 334.959L71.1352 331.583C89.7795 330.381 96.7724 306.593 81.7383 295.513L39.501 264.386C22.0571 251.531 34.6385 224.012 55.7884 228.762L106.999 240.263C125.227 244.356 138.646 223.499 127.346 208.638L95.5991 166.886C82.4877 149.642 102.321 126.779 121.275 137.288L167.167 162.734C183.502 171.792 202.26 155.556 195.61 138.117L176.925 89.1216C169.208 68.8867 194.687 52.5311 209.909 67.9484L246.765 105.278C259.883 118.566 282.461 108.267 280.999 89.662L276.89 37.3935C275.193 15.8067 304.253 7.28365 314.51 26.36L339.344 72.5498C348.183 88.9907 372.752 85.4623 376.596 67.1998L387.396 15.8925Z" fill="#077AF2"/>
</svg>
