<svg id="Layer_1" data-name="Layer 1" xmlns="http://www.w3.org/2000/svg" viewBox="0 0 1160 1161">
  <ellipse cx="579.70271" cy="580.49468" rx="443.29572" ry="690.89342" transform="translate(-240.68073 579.93468) rotate(-45)" fill="#f2f2f2"/>
  <g style="isolation: isolate">
    <g style="isolation: isolate">
      <path d="M473.35742,611.675s-3.5,6.2002-16.20068,6.2002c-13.001,0-17.30127-7.7002-17.40137-14.30078a13.75725,13.75725,0,0,1,1.40039-6.40039,61.42584,61.42584,0,0,1-8.70068.60058c-27.60156,0-45.30274-16.90136-45.30274-40.20263,0-23.40137,17.70118-40.30176,45.30274-40.30176s45.40283,16.90039,45.40283,40.30176c0,18.10156-10.80078,32.40185-28.502,37.80224a4.71178,4.71178,0,0,0-2.8003,4.60059c0,5.59961,3.50049,8.10059,10.501,8.10059,12.00049,0,13.40088-7.10059,13.40088-7.10059Zm-40.90234-84.50439c-18.80127,0-31.60205,13.2002-31.60205,30.40137,0,17.10156,12.80078,30.30127,31.60205,30.30127,18.90088,0,31.70166-13.19971,31.70166-30.30127C464.15674,540.37081,451.356,527.17061,432.45508,527.17061Z"/>
      <path d="M544.75488,588.87422c4.90039,0,7.1001-5.001,7.1001-5.001l2.40039,8.90039s-3.70019,5.001-13.001,5.001c-6.20019,0-12.40039-3.10058-12.40039-12.90136v-9.49951s-8.00048,22.40087-24.60156,22.40087c-8.20068,0-13.40088-5.30078-13.40088-12.20117,0-9.30029,8.20069-22.20068,38.00244-25.60107,0,0,1-11.60059-11.90088-11.60059-13.001,0-15.70117,11.2002-15.70117,11.2002l-12.40039-3.59961s5.3999-16.501,27.70166-16.501c16.60108,0,24.70117,8.90039,24.40137,20.30078l-.6001,23.30127C540.25439,586.57344,541.55469,588.87422,544.75488,588.87422Zm-35.90234,0c10.60058,0,20.20117-17.80127,20.00146-22.00146v-3.5c-22.30175,5.70019-25.30175,14.80078-25.30175,19.70068C503.55225,586.87325,505.55225,588.87422,508.85254,588.87422Z"/>
      <path d="M608.05371,562.17256c0-9.30078-5.70019-13.80078-15.70019-13.80078-15.10157,0-17.10157,11.60059-17.10157,15.001v33.00146H563.251V540.87178h5.80029l5.10059,16.501s1.3999-17.90137,22.60107-17.90137c16.501,0,23.30176,8.5,23.30176,22.501v34.40185h-12.001Z"/>
      <path d="M666.55176,539.47139c19.80176,0,31.502,12.80078,31.502,29.10156,0,16.40088-11.70019,29.20166-31.502,29.20166-19.80078,0-31.502-12.80078-31.502-29.20166C635.0498,552.27217,646.751,539.47139,666.55176,539.47139Zm0,49.40283c11.40039,0,18.70117-8.30078,18.70117-20.30127,0-12.001-7.30078-20.20117-18.70117-20.20117-11.60059,0-18.70117,8.2002-18.70117,20.20117C647.85059,580.57344,654.95117,588.87422,666.55176,588.87422Z"/>
      <path d="M757.85254,562.17256c0-9.30078-5.7002-13.80078-15.7002-13.80078-15.10156,0-17.10156,11.60059-17.10156,15.001v33.00146h-12.001V540.87178h5.80079l5.10058,16.501s1.39942-17.90137,22.60059-17.90137c16.501,0,23.30176,8.5,23.30176,22.501v34.40185h-12.001Z"/>
    </g>
  </g>
</svg>
