<svg id="Livello_1" data-name="Livello 1" xmlns="http://www.w3.org/2000/svg" viewBox="0 0 814 821">
  <path d="M387.4,15.89c4.46-21.19,34.74-21.19,39.2,0L437.4,67.2c3.85,18.26,28.42,21.79,37.26,5.35l24.83-46.19c10.26-19.08,39.32-10.55,37.62,11L533,89.66c-1.46,18.61,21.12,28.91,34.23,15.62L604.09,68c15.22-15.42,40.7.94,33,21.17l-18.69,49c-6.65,17.44,12.11,33.67,28.44,24.61l45.89-25.44c19-10.51,38.79,12.35,25.68,29.6l-31.75,41.75c-11.3,14.86,2.12,35.72,20.35,31.62l51.21-11.5c21.15-4.75,33.73,22.77,16.29,35.63l-42.24,31.12c-15,11.08-8,34.87,10.6,36.07L795.24,335c21.64,1.39,26,31.34,5.58,38.76l-49.3,18c-17.55,6.4-17.55,31.2,0,37.6l49.3,18c20.37,7.42,16.06,37.37-5.58,38.76l-52.38,3.38c-18.64,1.2-25.63,25-10.6,36.07l42.24,31.12c17.44,12.86,4.86,40.38-16.29,35.63L707,580.74c-18.23-4.1-31.65,16.76-20.35,31.62l31.75,41.75c13.11,17.25-6.72,40.11-25.68,29.6l-45.89-25.44c-16.33-9.06-35.09,7.17-28.44,24.61l18.69,49c7.71,20.23-17.77,36.59-33,21.17l-36.86-37.33c-13.11-13.29-35.69-3-34.23,15.62l4.11,52.27c1.7,21.58-27.36,30.11-37.62,11l-24.83-46.19c-8.84-16.44-33.41-12.91-37.26,5.35l-10.8,51.31c-4.46,21.19-34.74,21.19-39.2,0L376.6,753.8c-3.85-18.26-28.42-21.79-37.26-5.35l-24.83,46.19c-10.26,19.08-39.32,10.55-37.62-11L281,731.34c1.46-18.61-21.12-28.91-34.24-15.62l-36.85,37.33c-15.22,15.42-40.7-.94-33-21.17l18.68-49c6.65-17.44-12.11-33.67-28.44-24.61l-45.89,25.44c-19,10.51-38.79-12.35-25.68-29.6l31.75-41.75c11.3-14.86-2.12-35.72-20.35-31.62l-51.21,11.5C34.64,597,22.06,569.47,39.5,556.61l42.24-31.12c15-11.08,8-34.87-10.6-36.07L18.76,486c-21.64-1.39-25.95-31.34-5.58-38.76l49.3-18c17.55-6.4,17.55-31.2,0-37.6l-49.3-18C-7.19,366.3-2.88,336.35,18.76,335l52.38-3.38c18.64-1.2,25.63-25,10.6-36.07L39.5,264.39C22.06,251.53,34.64,224,55.79,228.76L107,240.26c18.23,4.1,31.65-16.76,20.35-31.62L95.6,166.89c-13.11-17.25,6.72-40.11,25.68-29.6l45.89,25.44c16.33,9.06,35.09-7.17,28.44-24.61l-18.68-49c-7.72-20.23,17.76-36.59,33-21.17l36.85,37.33c13.12,13.29,35.7,3,34.24-15.62l-4.11-52.27c-1.7-21.58,27.36-30.11,37.62-11l24.83,46.19C348.18,89,372.75,85.46,376.6,67.2Z" transform="translate(0 0)" fill="#a582fb"/>
</svg>
