<svg id="Layer_1" data-name="Layer 1" xmlns="http://www.w3.org/2000/svg" viewBox="0 0 1160 1161">
  <ellipse cx="579.70271" cy="580.49468" rx="443.29572" ry="690.89342" transform="translate(-240.68073 579.93468) rotate(-45)" fill="#f2f2f2"/>
  <g style="isolation: isolate">
    <g style="isolation: isolate">
      <path d="M258.60986,493.47188s-1-26.30176-27.60156-26.30176c-18.80127,0-29.602,13.2002-29.602,30.40137,0,17.10156,11.80078,30.30176,30.602,30.30176,28.10156,0,28.70166-24.70118,28.70166-24.70118l13.40088,3.9004s-3.1001,30.70214-42.10254,30.70214c-27.602,0-44.30273-16.90136-44.30273-40.20312,0-23.40137,15.70068-40.30176,43.30273-40.30176,37.80225,0,41.00244,32.20117,41.00244,32.20117Z"/>
      <path d="M317.60693,479.4709c19.80127,0,31.502,12.80078,31.502,29.10157,0,16.40136-11.70069,29.20214-31.502,29.20214S286.105,524.97383,286.105,508.57247C286.105,492.27168,297.80566,479.4709,317.60693,479.4709Zm0,49.40332c11.40039,0,18.70118-8.30078,18.70118-20.30175s-7.30079-20.20118-18.70118-20.20118c-11.60107,0-18.70117,8.2002-18.70117,20.20118S306.00586,528.87422,317.60693,528.87422Z"/>
      <path d="M376.106,536.37422H364.105V480.87129h5.80029l5.10059,16.501s1.8999-17.90137,17.20068-17.90137c9.20069,0,12.10108,6.29981,12.10108,13.60059a32.82966,32.82966,0,0,1-2,11.80078l-12.40088,3.60059a47.16621,47.16621,0,0,0,2.1001-12.80079c0-4.80078-1.6001-7.30078-4.90039-7.30078-7.70069,0-11.00049,11.90039-11.00049,15.10059Z"/>
      <path d="M443.80615,479.4709c19.80127,0,31.502,12.80078,31.502,29.10157,0,16.40136-11.70069,29.20214-31.502,29.20214s-31.502-12.80078-31.502-29.20214C412.3042,492.27168,424.00488,479.4709,443.80615,479.4709Zm0,49.40332c11.40039,0,18.70117-8.30078,18.70117-20.30175s-7.30078-20.20118-18.70117-20.20118c-11.60107,0-18.70117,8.2002-18.70117,20.20118S432.20508,528.87422,443.80615,528.87422Z"/>
      <path d="M535.10693,502.17207c0-9.30078-5.70019-13.80078-15.70068-13.80078-15.10107,0-17.10107,11.60059-17.10107,15.001v33.002h-12.001V480.87129h5.80029l5.10059,16.501s1.3999-17.90137,22.60107-17.90137c16.501,0,23.30176,8.5,23.30176,22.501v34.40234h-12.001Z"/>
      <path d="M617.00586,528.87422c4.90039,0,7.10059-5.001,7.10059-5.001l2.40039,8.90039s-3.7002,5.001-13.001,5.001c-6.2002,0-12.40039-3.10058-12.40039-12.90136v-9.5s-8.001,22.40136-24.60156,22.40136c-8.20069,0-13.40088-5.30078-13.40088-12.20117,0-9.30078,8.20068-22.20117,38.00244-25.60156,0,0,1-11.60059-11.90137-11.60059-13.00049,0-15.70068,11.2002-15.70068,11.2002L561.103,495.97188s5.3999-16.501,27.70166-16.501c16.60058,0,24.70117,8.90039,24.40136,20.30078l-.5996,23.30176C612.50586,526.57344,613.80566,528.87422,617.00586,528.87422Zm-35.90234,0c10.60058,0,20.20117-17.80175,20.00195-22.002v-3.5c-22.30176,5.7002-25.30176,14.80078-25.30176,19.70117C575.80371,526.87325,577.80371,528.87422,581.10352,528.87422Z"/>
      <path d="M666.4043,536.37422H653.30371L627.502,480.87129h13.80078L659.9043,525.674l18.80078-44.80274h13.60058Z"/>
      <path d="M702.30273,458.66915h12v9.60058h-12Zm0,22.20214h12v55.50293h-12Z"/>
      <path d="M744.30176,536.37422h-12V480.87129h5.7998l5.10059,16.501s1.90039-17.90137,17.20117-17.90137c9.2002,0,12.10059,6.29981,12.10059,13.60059a32.82966,32.82966,0,0,1-2,11.80078l-12.40137,3.60059a47.15656,47.15656,0,0,0,2.10058-12.80079c0-4.80078-1.60058-7.30078-4.90039-7.30078-7.70019,0-11.001,11.90039-11.001,15.10059Z"/>
      <path d="M795.501,515.07247c0,9.30078,5.70019,13.80175,15.70117,13.80175,15.10058,0,17.10156-11.60156,17.10156-15.001v-33.002h12v55.50293h-5.7998l-5.10059-16.501s-1.40039,17.90136-22.60156,17.90136c-16.501,0-23.30078-8.501-23.30078-22.502V480.87129h12Z"/>
      <path d="M879.70117,488.37129c-8.10058,0-11.501,3.10059-11.501,7.10059,0,3.20019,3.5996,5.7998,11.20019,7.10059l13.60156,2.39941c12.40039,2.20019,17.001,8.10059,17.001,15.40137,0,10.70019-11.001,17.40136-24.70215,17.40136-29.10156,0-32.002-19.90136-32.002-19.90136l12.40137-3.60059s-1.80079,14.60156,19.70117,14.60156c7.5,0,11.80078-3.30078,11.80078-7.501,0-3.7002-2.80078-6.5-11.60156-8.10059l-12.2002-2.20019c-12.40039-2.2002-17.001-8.29981-17.001-15.001,0-10.5,10.40039-16.60059,23.501-16.60059,25.40234,0,27.00195,16.70117,27.00195,16.70117L894.502,499.77168S895.70117,488.37129,879.70117,488.37129Z"/>
    </g>
    <g style="isolation: isolate">
      <path d="M356.40527,656.37422h-12.001V600.87129h5.80029l5.10059,16.501s1.8999-17.90137,17.20068-17.90137c9.20068,0,12.10107,6.29981,12.10107,13.60059a32.82966,32.82966,0,0,1-2,11.80078l-12.40088,3.60059a47.16621,47.16621,0,0,0,2.1001-12.80079c0-4.80078-1.6001-7.30078-4.90039-7.30078-7.70068,0-11.00049,11.90039-11.00049,15.10059Z"/>
      <path d="M423.40527,657.77461c-16.20117,0-30.80175-10.40136-30.80175-29.20214,0-16.60059,11.20068-29.10157,30.80175-29.10157,31.20166,0,28.40186,30.60157,28.40186,30.60157l-46.40283-1c.1997,12.70117,8.40039,19.80175,19.501,19.80175,16.001,0,16.001-14.60156,16.001-14.60156l12.40088,3.60059S449.80713,657.77461,423.40527,657.77461Zm-.70019-49.40332c-9.30029,0-15.10059,5.80078-16.80078,14.60059l33.20215-.5S438.40625,608.37129,422.70508,608.37129Z"/>
      <path d="M468.30273,579.76973a69.94335,69.94335,0,0,0,12.001-1.10058v77.70507h-12.001Z"/>
      <path d="M550.20459,648.87422c4.90039,0,7.10059-5.001,7.10059-5.001l2.3999,8.90039s-3.7002,5.001-13.001,5.001c-6.20019,0-12.40039-3.10058-12.40039-12.90136v-9.5s-8.00049,22.40136-24.60156,22.40136c-8.20069,0-13.40088-5.30078-13.40088-12.20117,0-9.30078,8.20019-22.20117,38.00244-25.60156,0,0,1-11.60059-11.90088-11.60059-13.001,0-15.70117,11.2002-15.70117,11.2002l-12.40039-3.59961s5.40039-16.501,27.70166-16.501c16.60107,0,24.70117,8.90039,24.40137,20.30078l-.6001,23.30176C545.7041,646.57344,547.00439,648.87422,550.20459,648.87422Zm-35.90234,0c10.60058,0,20.20117-17.80175,20.00146-22.002v-3.5c-22.30176,5.7002-25.30176,14.80078-25.30176,19.70117C509.002,646.87325,511.002,648.87422,514.30225,648.87422Z"/>
      <path d="M561.7002,600.87129h12.90087V588.26973l11.50147-8v20.60156h22.80078v7.5H586.10254v27.90137c0,8.70117,3.2998,12.60156,9.70019,12.60156a13.4122,13.4122,0,0,0,12.70118-8.001l2.39941,8.90039s-5.2998,8.001-17.60059,8.001c-11.90136,0-19.20166-6.30078-19.20166-20.20117V608.37129H561.7002Z"/>
      <path d="M649.70215,657.77461c-16.20117,0-30.80176-10.40136-30.80176-29.20214,0-16.60059,11.20117-29.10157,30.80176-29.10157,31.20215,0,28.40234,30.60157,28.40234,30.60157l-46.40332-1c.2002,12.70117,8.40039,19.80175,19.501,19.80175,16.001,0,16.001-14.60156,16.001-14.60156l12.40137,3.60059S676.10449,657.77461,649.70215,657.77461Zm-.7002-49.40332c-9.2998,0-15.10058,5.80078-16.80078,14.60059l33.20215-.5S664.70312,608.37129,649.002,608.37129Z"/>
      <path d="M739.30273,579.76973a71.45158,71.45158,0,0,0,12.001-1.10058v77.70507h-6.80078l-3.79981-13.20117s-3.70019,14.60156-21.30175,14.60156c-16.60059,0-27.80176-12.10058-27.80176-29.10254,0-17.001,11.20117-29.20117,27.80176-29.20117,15.001,0,19.90136,11.7002,19.90136,11.7002Zm2.5,48.90234c0-11-6.60058-20.30078-18.60058-20.30078-11.80078,0-18.80176,8.30078-18.80176,20.30078,0,12.001,7.001,20.20215,18.80176,20.20215C735.20215,648.87422,741.80273,639.67305,741.80273,628.67207Z"/>
    </g>
  </g>
</svg>
