<?xml version="1.0" encoding="utf-8"?>
<!-- Generator: Adobe Illustrator 24.2.1, SVG Export Plug-In . SVG Version: 6.00 Build 0)  -->
<svg version="1.1" id="Livello_1" xmlns="http://www.w3.org/2000/svg" xmlns:xlink="http://www.w3.org/1999/xlink" x="0px" y="0px"
	 viewBox="0 0 469 471" style="enable-background:new 0 0 469 471;" xml:space="preserve">
<style type="text/css">
	.st0{fill:none;stroke:#FFFFFF;stroke-width:3;}
</style>
<path class="st0" d="M258.2,108.6l0.8,3.2l1.9-2.7L321.7,24l-17,103.3l-0.5,3.3l2.8-1.8l88.7-55.3l-55.2,88.9l-1.7,2.8l3.3-0.5
	l103.1-17.1l-84.9,61l-2.7,1.9l3.2,0.8L462.4,235l-101.7,23.8l-3.2,0.8l2.7,1.9l84.9,61L342,305.4l-3.3-0.5l1.7,2.8l55.2,88.9
	l-88.7-55.3l-2.8-1.8l0.5,3.3l17,103.3l-60.8-85.1l-1.9-2.7l-0.8,3.2l-23.7,102l-23.7-102l-0.8-3.2l-1.9,2.7l-60.8,85.1l17-103.3
	l0.5-3.3l-2.8,1.8l-88.7,55.3l55.2-88.9l1.7-2.8l-3.3,0.5L23.9,322.4l84.9-61l2.7-1.9l-3.2-0.8L6.6,235l101.7-23.8l3.2-0.8l-2.7-1.9
	l-84.9-61L127,164.7l3.3,0.5l-1.7-2.8L73.4,73.5l88.7,55.3l2.8,1.8l-0.5-3.3L147.3,24l60.8,85.1l1.9,2.7l0.8-3.2l23.7-102
	L258.2,108.6z"/>
</svg>
