<?xml version="1.0" encoding="utf-8"?>
<!-- Generator: Adobe Illustrator 24.0.0, SVG Export Plug-In . SVG Version: 6.00 Build 0)  -->
<svg version="1.1" id="Livello_1" xmlns="http://www.w3.org/2000/svg" xmlns:xlink="http://www.w3.org/1999/xlink" x="0px" y="0px"
	 viewBox="0 0 880 882" style="enable-background:new 0 0 880 882;" xml:space="preserve">
<style type="text/css">
	.st0{fill:#077AF2;}
</style>
<path class="st0" d="M440,0l47.2,203.1L608.4,33.6l-33.9,205.8l176.7-110.2l-110,177l205.3-34L677.3,393.7L880,441l-202.7,47.3
	l169.2,121.4l-205.3-34l109.9,177.1L574.4,642.7l33.9,205.8L487.2,678.9L440,882l-47.2-203.1L271.6,848.4l33.9-205.8L128.9,752.8
	l109.9-177.1l-205.3,34l169.2-121.4L0,441l202.6-47.3L33.5,272.2l205.3,34l-109.9-177l176.7,110.2l-34-205.8l121.2,169.5L440,0z"/>
</svg>
