<?xml version="1.0" encoding="utf-8"?>
<!-- Generator: Adobe Illustrator 24.2.1, SVG Export Plug-In . SVG Version: 6.00 Build 0)  -->
<svg version="1.1" id="Livello_1" xmlns="http://www.w3.org/2000/svg" xmlns:xlink="http://www.w3.org/1999/xlink" x="0px" y="0px"
	 viewBox="0 0 1887 438" style="enable-background:new 0 0 1887 438;" xml:space="preserve">
<style type="text/css">
	.st0{fill:#151515;stroke:#151515;stroke-width:2;}
	.st1{fill:#151515;stroke:#151515;stroke-width:2;stroke-miterlimit:4.0003;}
	.st2{fill:#E5E7EB;stroke:#151515;stroke-width:2;stroke-miterlimit:4.0003;}
	.st3{fill:#E5E7EB;stroke:#151515;stroke-width:2;}
	.st4{fill:#151515;}
	.st5{font-family:'SportingGrotesque-Regular';}
	.st6{font-size:30px;}
</style>
<g id="Shadows">
	<path class="st0" d="M900.6,107.2c1.8-8.5,13.9-8.5,15.7,0c1.9,9.1,14.2,10.9,18.6,2.7c4.1-7.6,15.7-4.2,15,4.4
		c-0.7,9.3,10.5,14.4,17.1,7.8c6.1-6.2,16.3,0.4,13.2,8.5c-3.3,8.7,6,16.8,14.2,12.3c7.6-4.2,15.5,4.9,10.3,11.8
		c-5.6,7.4,1,17.8,10.1,15.8c8.5-1.9,13.5,9.1,6.5,14.2c-7.5,5.5-4,17.4,5.3,18c8.6,0.6,10.4,12.5,2.2,15.5
		c-8.8,3.2-8.8,15.6,0,18.8c8.1,3,6.4,14.9-2.2,15.5c-9.3,0.6-12.8,12.5-5.3,18c7,5.1,1.9,16.1-6.5,14.2c-9.1-2-15.8,8.4-10.1,15.8
		c5.2,6.9-2.7,16-10.3,11.8c-8.2-4.5-17.5,3.6-14.2,12.3c3.1,8.1-7.1,14.6-13.2,8.5c-6.5-6.6-17.8-1.5-17.1,7.8
		c0.7,8.6-10.9,12-15,4.4c-4.4-8.2-16.7-6.5-18.6,2.7c-1.8,8.5-13.9,8.5-15.7,0c-1.9-9.1-14.2-10.9-18.6-2.7
		c-4.1,7.6-15.7,4.2-15-4.4c0.7-9.3-10.5-14.4-17.1-7.8c-6.1,6.2-16.3-0.4-13.2-8.5c3.3-8.7-6-16.8-14.2-12.3
		c-7.6,4.2-15.5-4.9-10.3-11.8c5.6-7.4-1.1-17.8-10.2-15.8c-8.4,1.9-13.5-9.1-6.5-14.2c7.5-5.5,4-17.4-5.3-18
		c-8.6-0.6-10.4-12.5-2.2-15.5c8.8-3.2,8.8-15.6,0-18.8c-8.1-3-6.4-14.9,2.2-15.5c9.3-0.6,12.8-12.5,5.3-18
		c-7-5.1-1.9-16.1,6.5-14.2c9.1,2,15.8-8.4,10.2-15.8c-5.2-6.9,2.7-16,10.3-11.8c8.2,4.5,17.5-3.6,14.2-12.3
		c-3.1-8.1,7.1-14.6,13.2-8.5c6.5,6.6,17.8,1.5,17.1-7.8c-0.7-8.6,10.9-12,15-4.4C886.4,118.1,898.7,116.4,900.6,107.2z"/>

		<rect x="65.3" y="129.7" transform="matrix(0.9075 -0.4201 0.4201 0.9075 -84.0027 95.0775)" class="st1" width="217.1" height="217.1"/>
	<path class="st0" d="M1527.3,238.3l224.5-155.4l22.3,272.1L1527.3,238.3z"/>
	<path class="st0" d="M1297.1,142.8l0.8,2.1l1.1-1.9l34.6-63.9l-2.8,72.6l-0.1,2.2l1.7-1.4l56.4-45.8l-30.4,66l-0.9,2l2.1-0.6
		l69.7-20.7l-53.3,49.4l-1.6,1.5l2.2,0.2l72.3,7.5l-68.2,25.2l-2.1,0.8l1.9,1.1l63.9,34.6l-72.6-2.8l-2.2-0.1l1.4,1.7l45.8,56.4
		l-66-30.4l-2-0.9l0.6,2.1l20.7,69.7l-49.4-53.3l-1.5-1.6l-0.2,2.2l-7.5,72.3l-25.2-68.2l-0.8-2.1l-1.1,1.9l-34.6,63.9l2.8-72.6
		l0.1-2.2l-1.7,1.4l-56.4,45.8l30.4-66l0.9-2l-2.1,0.6l-69.7,20.7l53.3-49.4l1.6-1.5l-2.2-0.2l-72.3-7.5l68.2-25.2l2.1-0.8l-2-1.1
		l-63.9-34.6l72.6,2.8l2.2,0.1l-1.4-1.7l-45.8-56.4l66,30.4l2,0.9l-0.6-2.1l-20.7-69.7l49.4,53.3l1.5,1.6l0.2-2.2l7.5-72.3
		L1297.1,142.8z"/>
	<path class="st0" d="M676.1,319.3c-15.6,23.6-44.7,35.2-79.3,34.7s-74.7-13-111.9-37.6s-64.4-56.5-78.4-88.2s-14.7-63,0.9-86.6
		s44.7-35.2,79.3-34.7s74.7,13,111.9,37.6S663,201,677,232.7S691.7,295.7,676.1,319.3z"/>
</g>
<g id="selected">
	<g id="Name" data-color="#F980E6">

			<rect x="70.3" y="116.4" transform="matrix(0.9075 -0.4201 0.4201 0.9075 -77.9556 95.9484)" class="st2" width="217.1" height="217.1"/>
	</g>
	<g id="Research" data-color="#FD3C3E">
		<path class="st3" d="M686.4,308.3c-15.6,23.6-44.7,35.2-79.3,34.7s-74.7-13-111.9-37.6s-64.4-56.5-78.4-88.2s-14.7-63,0.9-86.6
			s44.7-35.2,79.3-34.7s74.7,13,111.9,37.6s64.4,56.5,78.4,88.2C701.3,253.5,702,284.8,686.4,308.3z"/>
	</g>
	<g id="Concept" data-color="#A582FB">
		<path class="st3" d="M911.7,92.1c1.8-8.5,13.9-8.5,15.7,0c1.9,9.1,14.2,10.9,18.6,2.7c4.1-7.6,15.7-4.2,15,4.4
			c-0.7,9.3,10.5,14.4,17.1,7.8c6.1-6.2,16.3,0.4,13.2,8.5c-3.3,8.7,6,16.8,14.2,12.3c7.6-4.2,15.5,4.9,10.2,11.8
			c-5.6,7.4,1.1,17.9,10.2,15.8c8.4-1.9,13.5,9.1,6.5,14.2c-7.5,5.5-4,17.4,5.3,18c8.6,0.6,10.4,12.5,2.2,15.5
			c-8.8,3.2-8.8,15.6,0,18.8c8.1,3,6.4,14.9-2.2,15.5c-9.3,0.6-12.8,12.5-5.3,18c7,5.1,1.9,16.1-6.5,14.2c-9.1-2-15.8,8.4-10.2,15.8
			c5.2,6.9-2.7,16-10.2,11.8c-8.2-4.5-17.5,3.6-14.2,12.3c3.1,8.1-7.1,14.6-13.2,8.5c-6.5-6.6-17.8-1.5-17.1,7.8
			c0.7,8.6-10.9,12-15,4.4c-4.4-8.2-16.7-6.5-18.6,2.7c-1.8,8.5-13.9,8.5-15.7,0c-1.9-9.1-14.2-10.9-18.6-2.7
			c-4.1,7.6-15.7,4.2-15-4.4c0.7-9.3-10.5-14.4-17.1-7.8c-6.1,6.2-16.3-0.4-13.2-8.5c3.3-8.7-6-16.8-14.2-12.3
			c-7.6,4.2-15.5-4.9-10.3-11.8c5.6-7.4-1.1-17.9-10.2-15.8c-8.4,1.9-13.5-9.1-6.5-14.2c7.5-5.5,4-17.4-5.3-18
			c-8.6-0.6-10.4-12.5-2.2-15.5c8.8-3.2,8.8-15.6,0-18.8c-8.1-3-6.4-14.9,2.2-15.5c9.3-0.6,12.8-12.5,5.3-18
			c-7-5.1-1.9-16.1,6.5-14.2c9.1,2,15.8-8.4,10.2-15.8c-5.2-6.9,2.7-16,10.3-11.8c8.2,4.5,17.5-3.6,14.2-12.3
			c-3.1-8.1,7.1-14.6,13.2-8.5c6.5,6.6,17.8,1.5,17.1-7.8c-0.7-8.6,10.9-12,15-4.4C897.5,103,909.8,101.2,911.7,92.1z"/>
	</g>
	<g id="Output" data-color="#1D91FF">
		<path class="st3" d="M1304.2,130.7l0.8,2.1l1-1.9l34.6-63.9l-2.8,72.6l-0.1,2.2l1.7-1.4l56.4-45.8l-30.4,66l-0.9,2l2.1-0.6
			l69.7-20.7l-53.3,49.4l-1.6,1.5l2.2,0.2l72.3,7.5l-68.2,25.2l-2.1,0.8l1.9,1.1l63.9,34.6l-72.6-2.8l-2.2-0.1l1.4,1.7l45.8,56.4
			l-66-30.4l-2-0.9l0.6,2.1l20.7,69.7l-49.4-53.3l-1.5-1.6l-0.2,2.2l-7.5,72.3l-25.2-68.2l-0.8-2.1l-1,1.9l-34.6,63.9l2.8-72.6
			l0.1-2.2l-1.7,1.4l-56.4,45.8l30.4-66l0.9-2l-2.1,0.6l-69.7,20.7l53.3-49.4l1.6-1.5l-2.2-0.2l-72.3-7.5l68.2-25.2l2.1-0.8
			l-1.9-1.1l-63.9-34.6l72.6,2.8l2.2,0.1l-1.4-1.7l-45.8-56.4l66,30.4l2,0.9l-0.6-2.1L1220.3,82l49.4,53.3l1.5,1.6l0.2-2.2l7.5-72.3
			L1304.2,130.7z"/>
	</g>
	<g id="Team" data-color="#DAFC53">
		<path class="st3" d="M1529.4,225.5l224.5-155.4l22.3,272.1L1529.4,225.5z"/>
	</g>
</g>
<path class="st4" d="M451.8,210.6v23.3h3.9v-10.7h3.9c4.9,0,6.5,1,7.1,3.6c1.3,5.3,1.5,6.5,2,7.1h4c-0.4-0.6-0.7-1.6-2.3-7.7
	c-0.7-2.7-3.1-3.7-5.3-4c4,0,7-1.7,7-5.3c0-4.3-3.3-6.3-10.5-6.3L451.8,210.6L451.8,210.6z M455.7,220.7v-7.5h6
	c3.6,0,6.4,0.8,6.4,3.8s-2.8,3.8-6.4,3.8h-6V220.7z M477.3,233.9h18.4v-2.6h-14.5v-7.9H494v-2.6h-12.8V213h13.7v-2.5h-17.6
	L477.3,233.9L477.3,233.9z M507.4,219.6c-2.6-0.6-4.1-1.4-4.1-3.1c0-2,2-3.4,5.2-3.4c7,0,6.6,5.1,6.6,5.1l4-1.1c0,0-0.2-7-10.4-7
	c-6.5,0-9.4,3.2-9.4,6.7c0,2.8,2,5,5.9,5.9l5.7,1.3c3.4,0.8,5.3,1.5,5.3,3.7c0,1.9-2.2,3.5-6,3.5c-8.6,0-7.9-6.5-7.9-6.5l-4,1.2
	c0.1,3.1,2.9,8.3,12,8.3c5.6,0,10-2.3,10-6.7c0-3-1.8-5.6-6.8-6.7L507.4,219.6z M524.1,233.9h18.5v-2.6H528v-7.9h12.8v-2.6H528V213
	h13.7v-2.5h-17.6L524.1,233.9L524.1,233.9z M568.2,233.9h4.2l-10.8-23.3h-6.4l-10.8,23.3h4.1l3.3-7.4h13L568.2,233.9z M557.8,213.1
	h1l4.8,10.8h-10.7L557.8,213.1z M575.6,210.6v23.3h3.9v-10.7h3.9c4.9,0,6.5,1,7.1,3.6c1.3,5.3,1.5,6.5,2,7.1h4
	c-0.5-0.6-0.7-1.6-2.3-7.7c-0.7-2.7-3.2-3.7-5.3-4c4,0,7-1.7,7-5.3c0-4.3-3.3-6.3-10.5-6.3L575.6,210.6L575.6,210.6z M579.5,220.7
	v-7.5h6c3.6,0,6.4,0.8,6.4,3.8s-2.8,3.8-6.4,3.8h-6V220.7z M624.9,219.8c0,0-1-9.7-12.3-9.7c-8.3,0-13,5.1-13,12.1s5,12.1,13.3,12.1
	c11.7,0,12.6-9.2,12.6-9.2l-4-1.2c0,0-0.2,7.4-8.6,7.4c-5.6,0-9.2-4-9.2-9.1c0-5.2,3.2-9.1,8.9-9.1c8,0,8.3,7.9,8.3,7.9L624.9,219.8
	z M648.6,233.9h3.9v-23.3h-3.9v10.3h-14.7v-10.3H630v23.3h3.9v-10.4h14.7L648.6,233.9L648.6,233.9z"/>
<path class="st4" d="M853.5,219.8c0,0-1-9.7-12.3-9.7c-8.3,0-13,5.1-13,12.1s5,12.1,13.3,12.1c11.7,0,12.6-9.2,12.6-9.2l-4-1.2
	c0,0-0.2,7.4-8.6,7.4c-5.6,0-9.2-4-9.2-9.1c0-5.2,3.2-9.1,8.9-9.1c8,0,8.3,7.9,8.3,7.9L853.5,219.8z M885,222.3
	c0-7-5.3-12.1-13.6-12.1s-13.6,5.1-13.6,12.1s5.3,12.1,13.6,12.1S885,229.2,885,222.3z M880.9,222.3c0,5.1-3.8,9.1-9.5,9.1
	c-5.6,0-9.5-4-9.5-9.1c0-5.2,3.8-9.1,9.5-9.1C877,213.1,880.9,217.1,880.9,222.3z M912,210.6h-3.9v19.3l-13.8-19.3h-4.8v23.3h3.9
	v-19.3l13.8,19.3h4.8V210.6z M941.8,219.8c0,0-1-9.7-12.3-9.7c-8.3,0-13,5.1-13,12.1s5,12.1,13.3,12.1c11.7,0,12.6-9.2,12.6-9.2
	l-4-1.2c0,0-0.2,7.4-8.6,7.4c-5.6,0-9.2-4-9.2-9.1c0-5.2,3.2-9.1,8.9-9.1c8,0,8.3,7.9,8.3,7.9L941.8,219.8z M946.9,233.9h18.4v-2.6
	h-14.5v-7.9h12.8v-2.6h-12.8V213h13.7v-2.5h-17.6L946.9,233.9L946.9,233.9z M969.3,210.6v23.3h3.9v-10.7h6c7.2,0,10.5-2,10.5-6.3
	s-3.3-6.3-10.5-6.3H969.3z M973.2,220.7v-7.5h6c3.6,0,6.4,0.8,6.4,3.8s-2.8,3.8-6.4,3.8h-6V220.7z M990.3,213.1h9.9v20.8h3.8v-20.8
	h9.9v-2.5h-23.6L990.3,213.1L990.3,213.1z"/>
<path class="st4" d="M1247.3,222.3c0-7-5.3-12.1-13.6-12.1s-13.6,5.1-13.6,12.1s5.3,12.1,13.6,12.1S1247.3,229.2,1247.3,222.3z
	 M1243.2,222.3c0,5.1-3.8,9.1-9.5,9.1c-5.6,0-9.5-4-9.5-9.1c0-5.2,3.8-9.1,9.5-9.1C1239.4,213.1,1243.2,217.1,1243.2,222.3z
	 M1270,210.6v13.7c0,6.1-2.7,7.1-7.1,7.1s-7.1-1-7.1-7.1v-13.7h-3.9v13.7c0,6.7,3.7,10.1,11,10.1s11-3.3,11-10.1v-13.7H1270z
	 M1276.6,213.1h9.9v20.8h3.8v-20.8h9.9v-2.5h-23.6L1276.6,213.1L1276.6,213.1z M1303,210.6v23.3h3.9v-10.7h6c7.2,0,10.5-2,10.5-6.3
	s-3.3-6.3-10.5-6.3H1303z M1306.9,220.7v-7.5h6c3.6,0,6.4,0.8,6.4,3.8s-2.8,3.8-6.4,3.8h-6V220.7z M1344.8,210.6v13.7
	c0,6.1-2.7,7.1-7.1,7.1s-7.1-1-7.1-7.1v-13.7h-3.9v13.7c0,6.7,3.7,10.1,11,10.1s11-3.3,11-10.1v-13.7H1344.8z M1351.4,213.1h9.9
	v20.8h3.8v-20.8h9.9v-2.5h-23.6L1351.4,213.1L1351.4,213.1z"/>
<path class="st4" d="M1622.2,213.1h9.9v20.8h3.8v-20.8h9.9v-2.5h-23.6L1622.2,213.1L1622.2,213.1z M1648.6,233.9h18.4v-2.6h-14.6
	v-7.9h12.8v-2.6h-12.8V213h13.7v-2.5h-17.6L1648.6,233.9L1648.6,233.9z M1692.7,233.9h4.2l-10.8-23.3h-6.4l-10.8,23.3h4.1l3.3-7.4
	h13L1692.7,233.9z M1682.3,213.1h1l4.8,10.8h-10.7L1682.3,213.1z M1715.7,231.3l-9.6-20.8h-6v23.3h3.9v-19.3l9.2,19.3h5.1l9.2-19.3
	v19.3h3.9v-23.3h-6L1715.7,231.3z"/>
<text transform="matrix(1 0 0 1 89 234.4)" class="st5 st6">PROJECT</text>
</svg>
