<?xml version="1.0" encoding="utf-8"?>
<!-- Generator: Adobe Illustrator 25.0.1, SVG Export Plug-In . SVG Version: 6.00 Build 0)  -->
<svg version="1.1" id="Livello_1" xmlns="http://www.w3.org/2000/svg" xmlns:xlink="http://www.w3.org/1999/xlink" x="0px" y="0px"
	 viewBox="0 0 355.5 262.1" style="enable-background:new 0 0 355.5 262.1;" xml:space="preserve">
<style type="text/css">
	.st0{fill:#151515;stroke:#151515;stroke-width:3;}
	.st1{fill:#E5E7EB;stroke:#151515;stroke-width:3;}
	.st2{fill:#151515;}
</style>
<g>
	<path class="st0" d="M341.7,221.6c-12,24.3-41.3,37.5-79.6,38.8s-85.2-9.2-131.6-32.1s-83.3-53.6-105.6-84.8S-4.8,81.1,7.2,56.8
		S48.4,19.4,86.8,18s85.2,9.2,131.6,32.1s83.3,53.6,105.6,84.8S353.7,197.4,341.7,221.6z"/>
	<path class="st1" d="M348.3,205.2c-12,24.2-41.3,37.5-79.6,38.8s-85.2-9.2-131.6-32s-83.3-53.6-105.6-84.8S1.8,64.7,13.8,40.4
		S55,3,93.4,1.6s85.2,9.2,131.6,32.1s83.3,53.6,105.6,84.8S360.2,181,348.3,205.2z"/>
	<path class="st2" d="M125.4,112.8h4.2l-10.8-23.3h-6.4l-10.8,23.3h4.1l3.3-7.4h13L125.4,112.8z M115.1,92h1l4.8,10.8h-10.7
		L115.1,92z M132.9,112.8h17.2v-2.6h-13.4V89.5h-3.9V112.8z M152.9,112.8h18.4v-2.6h-14.6v-7.9h12.8v-2.5h-12.8V92h13.7v-2.5h-17.6
		L152.9,112.8z M183,98.5c-2.6-0.6-4.1-1.3-4.1-3.1c0-2,2-3.4,5.2-3.4c7,0,6.6,5.1,6.6,5.1l4-1.1c0,0-0.2-7-10.4-7
		c-6.5,0-9.4,3.2-9.4,6.7c0,2.8,1.9,5,5.9,5.9l5.7,1.3c3.4,0.8,5.3,1.5,5.3,3.7c0,1.9-2.2,3.5-6,3.5c-8.6,0-7.9-6.5-7.9-6.5l-4,1.2
		c0.1,3.2,2.9,8.3,12,8.3c5.6,0,10-2.3,10-6.7c0-3-1.8-5.6-6.8-6.7L183,98.5z M207.4,98.5c-2.6-0.6-4.1-1.3-4.1-3.1
		c0-2,2-3.4,5.2-3.4c7,0,6.6,5.1,6.6,5.1L219,96c0,0-0.2-7-10.4-7c-6.5,0-9.4,3.2-9.4,6.7c0,2.8,1.9,5,5.9,5.9l5.7,1.3
		c3.4,0.8,5.3,1.5,5.3,3.7c0,1.9-2.2,3.5-6,3.5c-8.6,0-7.9-6.5-7.9-6.5l-4,1.2c0.1,3.2,2.9,8.3,12,8.3c5.6,0,10-2.3,10-6.7
		c0-3-1.8-5.6-6.8-6.7L207.4,98.5z M224.1,89.5v23.3h3.9V89.5L224.1,89.5z M255.1,112.8h4.2l-10.8-23.3h-6.4l-10.8,23.3h4.1l3.3-7.4
		h13.1L255.1,112.8z M244.8,92h1.1l4.8,10.8h-10.7L244.8,92z M107.6,139.4v23.3h3.9v-10.7h3.9c5,0,6.5,1,7.1,3.6
		c1.3,5.3,1.5,6.5,2,7.1h4.1c-0.4-0.6-0.7-1.6-2.3-7.7c-0.7-2.7-3.2-3.7-5.3-4c4,0,7-1.7,7-5.3c0-4.3-3.3-6.3-10.5-6.3H107.6z
		 M111.5,149.5V142h6c3.6,0,6.4,0.8,6.4,3.8s-2.8,3.8-6.4,3.8H111.5z M158.7,151.1c0-7-5.3-12.1-13.6-12.1s-13.6,5.1-13.6,12.1
		s5.3,12.1,13.6,12.1S158.7,158.1,158.7,151.1L158.7,151.1z M154.6,151.1c0,5.1-3.8,9.1-9.5,9.1s-9.5-4-9.5-9.1s3.8-9.1,9.5-9.1
		S154.6,146,154.6,151.1L154.6,151.1z M173.7,139.4h-10.5v23.3h10.5c7.8,0,12.7-4.4,12.7-11.6S181.5,139.5,173.7,139.4L173.7,139.4z
		 M167.1,142h4.8c6.6,0,10.4,3.1,10.4,9.1s-3.8,9.1-10.4,9.1h-4.8V142z M190.9,162.8h17.2v-2.6h-13.3v-20.7h-3.9L190.9,162.8z
		 M210.9,162.8h18.4v-2.6h-14.5v-7.9h12.8v-2.6h-12.8V142h13.7v-2.6h-17.6L210.9,162.8z M233.2,139.4v23.3h3.9v-10.7h3.9
		c4.9,0,6.5,1,7.1,3.6c1.3,5.3,1.5,6.5,2,7.1h4c-0.4-0.6-0.7-1.6-2.3-7.7c-0.7-2.7-3.1-3.7-5.3-4c4,0,7-1.7,7-5.3
		c0-4.3-3.3-6.3-10.5-6.3H233.2z M237.1,149.5V142h6c3.6,0,6.4,0.8,6.4,3.8s-2.8,3.8-6.4,3.8H237.1z"/>
</g>
</svg>
