<?xml version="1.0" encoding="utf-8"?>
<!-- Generator: Adobe Illustrator 25.0.1, SVG Export Plug-In . SVG Version: 6.00 Build 0)  -->
<svg version="1.1" id="Livello_1" xmlns="http://www.w3.org/2000/svg" xmlns:xlink="http://www.w3.org/1999/xlink" x="0px" y="0px"
	 viewBox="0 0 252.1 288.4" style="enable-background:new 0 0 252.1 288.4;" xml:space="preserve">
<style type="text/css">
	.st0{fill:#151515;stroke:#151515;stroke-width:2;}
	.st1{fill:#E5E7EB;stroke:#151515;stroke-width:2;}
	.st2{fill:#151515;}
</style>
<g>
	<path class="st0" d="M2,170.1L226.5,14.6l22.3,272.1L2,170.1z"/>
	<path class="st1" d="M4.1,157.2L228.6,1.8l22.3,272.1L4.1,157.2z"/>
	<path class="st2" d="M96.9,144.9h9.9v20.8h3.8v-20.8h9.9v-2.6H96.9V144.9z M123.2,165.6h18.4v-2.5h-14.5v-7.9h12.8v-2.6h-12.8v-7.8
		h13.7v-2.6h-17.6V165.6z M167.3,165.6h4.2l-10.8-23.3h-6.4l-10.8,23.3h4.1l3.3-7.4H164L167.3,165.6z M157,144.9h1l4.8,10.8h-10.7
		L157,144.9z M190.4,163.1l-9.6-20.8h-6v23.3h3.9v-19.3l9.2,19.3h5.1l9.2-19.3v19.3h3.8v-23.3h-6L190.4,163.1z"/>
</g>
</svg>
