<?xml version="1.0" encoding="utf-8"?>
<!-- Generator: Adobe Illustrator 25.0.1, SVG Export Plug-In . SVG Version: 6.00 Build 0)  -->
<svg version="1.1" id="Livello_1" xmlns="http://www.w3.org/2000/svg" xmlns:xlink="http://www.w3.org/1999/xlink" x="0px" y="0px"
	 viewBox="0 0 304.1 260.1" style="enable-background:new 0 0 304.1 260.1;" xml:space="preserve">
<style type="text/css">
	.st0{fill:#151515;stroke:#000000;stroke-width:2;}
	.st1{fill:#E5E7EB;stroke:#000000;stroke-width:2;}
	.st2{fill:#151515;}
</style>
<g>
	<path class="st0" d="M281.3,224.3c-15.6,23.6-44.7,35.2-79.3,34.7s-74.7-13-111.9-37.6s-64.4-56.5-78.4-88.2s-14.7-63,0.9-86.6
		s44.7-35.1,79.3-34.7s74.7,13,111.9,37.6s64.4,56.5,78.4,88.2S296.9,200.8,281.3,224.3z"/>
	<path class="st1" d="M291.6,213.4c-15.6,23.6-44.7,35.2-79.3,34.7s-74.7-13-111.9-37.6S36,154,22,122.3s-14.7-63,0.9-86.6
		S67.5,0.5,102.2,1S176.8,14,214,38.6s64.4,56.5,78.4,88.2S307.2,189.8,291.6,213.4z"/>
	<path class="st2" d="M57,115.7V139h3.9v-10.7h3.9c4.9,0,6.5,1,7.1,3.6c1.3,5.3,1.5,6.5,2,7.1h4c-0.4-0.6-0.7-1.6-2.3-7.7
		c-0.7-2.7-3.2-3.7-5.3-4c4,0,7-1.7,7-5.3c0-4.3-3.3-6.3-10.5-6.3L57,115.7z M60.9,125.7v-7.5h6c3.6,0,6.4,0.8,6.4,3.8
		s-2.8,3.8-6.4,3.8H60.9z M82.4,139h18.4v-2.6H86.3v-7.9h12.8V126H86.3v-7.8H100v-2.6H82.4V139z M112.5,124.7
		c-2.6-0.6-4.1-1.3-4.1-3.1c0-2,2-3.4,5.2-3.4c7,0,6.6,5.1,6.6,5.1l4-1.1c0,0-0.2-7-10.4-7c-6.5,0-9.4,3.2-9.4,6.7
		c0,2.8,2,5,5.9,5.9l5.7,1.3c3.4,0.8,5.3,1.5,5.3,3.7c0,1.9-2.2,3.5-6,3.5c-8.6,0-7.9-6.5-7.9-6.5l-4,1.2c0.2,3.1,2.9,8.3,12,8.3
		c5.6,0,10-2.3,10-6.7c0-3-1.8-5.6-6.8-6.7L112.5,124.7z M129.2,139h18.4v-2.6h-14.5v-7.9H146V126h-12.9v-7.8h13.7v-2.6h-17.6V139z
		 M173.3,139h4.2l-10.8-23.3h-6.4L149.5,139h4.1l3.3-7.4h13L173.3,139z M163,118.2h1l4.8,10.8h-10.7L163,118.2z M180.8,115.7V139
		h3.9v-10.7h3.9c4.9,0,6.5,1,7.1,3.6c1.3,5.3,1.5,6.5,2,7.1h4c-0.4-0.6-0.7-1.6-2.3-7.7c-0.7-2.7-3.1-3.7-5.3-4c4,0,7-1.7,7-5.3
		c0-4.3-3.3-6.3-10.5-6.3L180.8,115.7z M184.7,125.7v-7.5h6c3.6,0,6.4,0.8,6.4,3.8s-2.8,3.8-6.4,3.8H184.7z M230.1,124.9
		c0,0-1-9.7-12.3-9.7c-8.3,0-13,5.1-13,12.1c0,7,5,12.1,13.3,12.1c11.7,0,12.6-9.2,12.6-9.2l-4-1.2c0,0-0.2,7.4-8.6,7.4
		c-4.8,0.3-8.9-3.4-9.2-8.3c0-0.3,0-0.6,0-0.8c0-5.2,3.2-9.1,8.9-9.1c8,0,8.3,7.9,8.3,7.9L230.1,124.9z M253.8,139h3.9v-23.3h-3.9
		V126h-14.7v-10.3h-3.9V139h3.9v-10.4h14.7V139z"/>
</g>
</svg>
