<?xml version="1.0" encoding="utf-8"?>
<!-- Generator: Adobe Illustrator 25.0.1, SVG Export Plug-In . SVG Version: 6.00 Build 0)  -->
<svg version="1.1" id="Livello_1" xmlns="http://www.w3.org/2000/svg" xmlns:xlink="http://www.w3.org/1999/xlink" x="0px" y="0px"
	 viewBox="0 0 312.1 312.2" style="enable-background:new 0 0 312.1 312.2;" xml:space="preserve">
<style type="text/css">
	.st0{fill:#151515;stroke:#151515;stroke-width:3;}
	.st1{fill:#E5E7EB;stroke:#151515;stroke-width:3;}
	.st2{fill:#151515;}
</style>
<g>
	<path class="st0" d="M139.9,20.6c2-9.6,15.7-9.6,17.8,0c1.4,6.5,7.8,10.7,14.3,9.3c3.5-0.7,6.5-3,8.2-6.1c4.6-8.6,17.8-4.8,17,5
		c-0.5,6.7,4.5,12.5,11.1,13c3.5,0.3,7-1,9.5-3.6c6.9-7,18.4,0.4,14.9,9.6c-2.4,6.2,0.7,13.2,6.9,15.6c3.4,1.3,7.1,1,10.3-0.7
		c8.6-4.8,17.6,5.6,11.6,13.4c-4,5.3-3,12.9,2.3,16.9c2.8,2.1,6.5,2.9,9.9,2.2c9.6-2.2,15.3,10.3,7.4,16.2c-5.4,4-6.5,11.5-2.5,16.9
		c2.1,2.9,5.4,4.6,8.9,4.9c9.8,0.6,11.8,14.2,2.5,17.6c-6.3,2.3-9.5,9.2-7.2,15.5c1.2,3.3,3.9,6,7.2,7.2c9.2,3.4,7.3,16.9-2.5,17.6
		c-6.7,0.4-11.7,6.2-11.3,12.8c0.2,3.5,2,6.8,4.9,8.9c7.9,5.8,2.2,18.3-7.4,16.1c-6.5-1.5-13,2.6-14.4,9.1c-0.8,3.5,0,7.1,2.2,10
		c5.9,7.8-3,18.2-11.6,13.4c-5.8-3.2-13.2-1.1-16.4,4.7c-1.7,3.1-2,6.8-0.7,10.2c3.5,9.2-8.1,16.6-14.9,9.6
		c-4.7-4.7-12.3-4.8-17.1-0.1c-2.5,2.5-3.8,6-3.6,9.5c0.8,9.8-12.4,13.7-17,5c-3.2-5.9-10.5-8.1-16.3-4.9c-3.1,1.7-5.4,4.7-6.1,8.2
		c-2,9.6-15.8,9.6-17.8,0c-1.4-6.5-7.8-10.7-14.3-9.3c-3.5,0.7-6.5,3-8.2,6.1c-4.7,8.6-17.8,4.8-17-5c0.5-6.7-4.5-12.5-11.1-13
		c-3.5-0.3-7,1-9.5,3.6c-6.9,7-18.4-0.4-14.9-9.6c2.4-6.2-0.8-13.2-7-15.6c-3.3-1.3-7-1-10.2,0.7c-8.7,4.8-17.6-5.6-11.7-13.4
		c4-5.3,3-12.9-2.3-16.9c-2.8-2.1-6.5-2.9-9.9-2.2c-9.6,2.2-15.3-10.3-7.4-16.1c5.4-4,6.5-11.5,2.5-16.9c-2.1-2.8-5.4-4.6-8.9-4.8
		c-9.8-0.6-11.8-14.2-2.5-17.6c6.3-2.3,9.5-9.2,7.2-15.5c-1.2-3.3-3.9-6-7.2-7.2c-9.2-3.4-7.3-17,2.5-17.6
		c6.7-0.4,11.7-6.2,11.3-12.8c-0.2-3.5-2-6.8-4.9-8.9c-7.9-5.8-2.2-18.3,7.4-16.2c6.5,1.4,13-2.7,14.4-9.2c0.8-3.5,0-7.1-2.2-9.9
		c-5.9-7.8,3-18.2,11.6-13.4c5.8,3.3,13.2,1.2,16.4-4.6c1.7-3.1,2-6.9,0.7-10.2c-3.5-9.2,8-16.6,14.9-9.6c4.7,4.7,12.3,4.8,17.1,0.1
		c2.5-2.5,3.8-6,3.6-9.5c-0.8-9.8,12.4-13.7,17-5c3.1,5.9,10.4,8.1,16.3,5C136.9,27.1,139.2,24.1,139.9,20.6z"/>
	<path class="st1" d="M154.5,8.7c2-9.6,15.7-9.6,17.8,0c1.4,6.5,7.8,10.7,14.3,9.3c3.5-0.7,6.5-3,8.2-6.1c4.6-8.7,17.8-4.8,17,5
		c-0.5,6.7,4.5,12.5,11.1,13c3.5,0.3,7-1,9.5-3.6c6.9-7,18.4,0.4,14.9,9.6c-2.4,6.2,0.7,13.2,7,15.6c3.3,1.3,7.1,1,10.2-0.7
		c8.6-4.8,17.6,5.6,11.6,13.4c-4,5.3-3,12.9,2.3,16.9c2.8,2.2,6.5,2.9,10,2.2c9.6-2.2,15.3,10.3,7.4,16.2c-5.4,4-6.5,11.5-2.5,16.9
		c2.1,2.9,5.4,4.6,8.9,4.9c9.8,0.6,11.8,14.2,2.5,17.6c-6.3,2.3-9.5,9.2-7.2,15.5c1.2,3.3,3.9,6,7.2,7.2c9.2,3.4,7.3,16.9-2.5,17.6
		c-6.7,0.4-11.7,6.2-11.3,12.8c0.2,3.5,2,6.8,4.9,8.9c7.9,5.8,2.2,18.3-7.4,16.2c-6.5-1.5-13,2.6-14.4,9.1c-0.8,3.5,0,7.1,2.2,10
		c5.9,7.8-3,18.2-11.6,13.4c-5.8-3.2-13.2-1.2-16.4,4.7c-1.7,3.1-2,6.8-0.7,10.2c3.5,9.2-8,16.6-14.9,9.6
		c-4.7-4.7-12.3-4.8-17.1-0.1c-2.5,2.5-3.8,6-3.6,9.5c0.8,9.8-12.4,13.7-17,5c-3.2-5.9-10.5-8.1-16.3-4.9c-3.1,1.7-5.4,4.7-6.1,8.2
		c-2,9.6-15.7,9.6-17.8,0c-1.4-6.5-7.7-10.7-14.3-9.4c-3.5,0.7-6.5,3-8.2,6.1c-4.7,8.7-17.8,4.8-17-5c0.5-6.7-4.4-12.5-11.1-13
		c-3.6-0.3-7,1-9.6,3.6c-6.9,7-18.4-0.4-14.9-9.6c2.4-6.2-0.7-13.2-7-15.6c-3.3-1.3-7.1-1-10.2,0.7c-8.6,4.8-17.6-5.6-11.6-13.4
		c4.1-5.3,3.1-12.9-2.2-16.9c-2.8-2.2-6.5-3-10-2.2c-9.6,2.1-15.3-10.3-7.4-16.2c5.4-4,6.5-11.6,2.5-16.9c-2.1-2.8-5.3-4.6-8.9-4.8
		c-9.8-0.6-11.8-14.2-2.5-17.6c6.3-2.3,9.5-9.2,7.2-15.5c-1.2-3.3-3.9-6-7.2-7.2c-9.2-3.4-7.3-17,2.5-17.6
		c6.7-0.4,11.7-6.2,11.3-12.8c-0.2-3.6-2-6.8-4.9-8.9c-7.9-5.8-2.2-18.3,7.4-16.2c6.5,1.5,13-2.6,14.4-9.1c0.8-3.5,0-7.1-2.2-9.9
		c-5.9-7.8,3-18.2,11.6-13.4c5.8,3.2,13.2,1.1,16.4-4.7c1.7-3.1,2-6.8,0.7-10.1c-3.5-9.2,8-16.6,14.9-9.6c4.7,4.8,12.3,4.8,17.1,0.1
		c2.5-2.5,3.9-6,3.6-9.6c-0.8-9.8,12.4-13.7,17-5c3.1,5.9,10.5,8.1,16.3,5C151.5,15.2,153.8,12.2,154.5,8.7z"/>
	<path class="st2" d="M129.8,123.7c0,0-1.4-8.8-12.2-8.8c-8.3,0-13,5.1-13,12.1c0,7,4.7,12,12.1,12c7.2,0,8.8-4.9,8.8-4.9v4.5h3.9
		v-11.8h-12.7v2.6h8.8c0,0-0.4,6.7-8.2,6.7c-5.3,0-8.6-4-8.6-9.1s3.2-9.1,8.9-9.1c4.1-0.2,7.7,2.9,8.2,7L129.8,123.7z M135,115.3
		v23.3h3.9v-23.3H135z M162.5,115.3V129c0,6.1-2.7,7.1-7.1,7.1s-7.1-1-7.1-7.1v-13.7h-3.9V129c0,6.7,3.7,10,11,10s11-3.3,11-10
		v-13.7H162.5z M171.8,138.6H189v-2.6h-13.4v-20.8h-3.9L171.8,138.6z M191.8,115.3v23.3h3.9v-23.3H191.8z M222.8,138.6h4.2
		l-10.8-23.3h-6.4l-10.8,23.3h4.1l3.3-7.4h13L222.8,138.6z M212.4,117.9h1.1l4.8,10.8h-10.8L212.4,117.9z M105.7,182
		c0-5.6-5.6-5.9-5.6-5.9s5-0.5,5-5.1c0-3.7-3.3-5.7-10.5-5.7h-9.9v23.3h10.5C102.4,188.6,105.7,186.4,105.7,182z M88.6,175.4v-7.5h6
		c3.6,0,6.4,0.8,6.4,3.8s-2.8,3.8-6.4,3.8H88.6z M88.6,177.9h6.6c3.6,0,6.4,0.8,6.4,4.1s-2.8,4.1-6.4,4.1h-6.6V177.9z M131.9,188.6
		h4.2l-10.8-23.3h-6.4l-10.8,23.3h4.1l3.3-7.4h13L131.9,188.6z M121.6,167.9h1.1l4.8,10.8h-10.7L121.6,167.9z M139.4,165.3v23.3h3.9
		v-10.7h3.9c4.9,0,6.5,1,7.1,3.6c1.3,5.3,1.5,6.5,2,7.1h4c-0.4-0.6-0.7-1.6-2.3-7.7c-0.7-2.7-3.1-3.7-5.3-4c4.1,0,7.1-1.7,7.1-5.3
		c0-4.3-3.3-6.3-10.5-6.3L139.4,165.3z M143.3,175.4v-7.5h6c3.6,0,6.4,0.8,6.4,3.8s-2.8,3.8-6.4,3.8H143.3z M186.6,188.6h4.2
		L180,165.3h-6.4l-10.8,23.3h4.1l3.3-7.4h13L186.6,188.6z M176.2,167.9h1l4.8,10.8h-10.7L176.2,167.9z M194,188.6h17.3v-2.6H198
		v-20.8h-3.9L194,188.6z M224.5,165.3H214v23.3h10.5c7.8,0,12.7-4.4,12.7-11.6S232.3,165.3,224.5,165.3L224.5,165.3z M217.9,167.9
		h4.8c6.6,0,10.4,3.1,10.4,9.1s-3.8,9.1-10.4,9.1h-4.8V167.9z M241.7,165.3v23.3h3.9v-23.3L241.7,165.3z"/>
</g>
</svg>
