<?xml version="1.0" encoding="utf-8"?>
<!-- Generator: Adobe Illustrator 25.0.1, SVG Export Plug-In . SVG Version: 6.00 Build 0)  -->
<svg version="1.1" id="Livello_1" xmlns="http://www.w3.org/2000/svg" xmlns:xlink="http://www.w3.org/1999/xlink" x="0px" y="0px"
	 viewBox="0 0 282.1 306.4" style="enable-background:new 0 0 282.1 306.4;" xml:space="preserve">
<style type="text/css">
	.st0{fill:#151515;stroke:#151515;stroke-width:3;}
	.st1{fill:#E5E7EB;stroke:#151515;stroke-width:3;}
	.st2{fill:#151515;}
</style>
<g>
	<path class="st0" d="M3,178.1L244.9,10.6L269,303.9L3,178.1z"/>
	<path class="st1" d="M14.4,170.2L256.3,2.7L280.4,296L14.4,170.2z"/>
	<path class="st2" d="M153.4,148.1h4.2l-10.8-23.3h-6.4l-10.8,23.3h4.1l3.3-7.4h13L153.4,148.1z M143,127.3h1.1l4.8,10.8h-10.7
		L143,127.3z M160.8,148.1h17.2v-2.6h-13.3v-20.8h-3.9L160.8,148.1z M180.8,124.8v23.3h3.9v-23.3L180.8,124.8z M211.8,148.1h4.2
		l-10.8-23.3h-6.4L188,148.1h4.1l3.3-7.4h13L211.8,148.1z M201.5,127.3h1l4.8,10.8h-10.7L201.5,127.3z M122.2,198.1h4.5l-12.3-14
		l10.5-9.3h-4.8l-12.1,11v-11h-3.9v23.3h3.9v-8.4l3.8-3.4L122.2,198.1z M151.7,198.1h4.2l-10.8-23.3h-6.4l-10.8,23.3h4.1l3.3-7.4h13
		L151.7,198.1z M141.4,177.3h1l4.8,10.8h-10.7L141.4,177.3z M177.4,174.8v13.7c0,6.1-2.7,7.1-7.1,7.1s-7.1-1-7.1-7.1v-13.7h-3.9
		v13.7c0,6.7,3.7,10.1,11,10.1s11-3.3,11-10.1v-13.7H177.4z M213,186.5c0-7-5.3-12.1-13.6-12.1s-13.6,5.1-13.6,12.1
		s5.3,12.1,13.6,12.1S213,193.4,213,186.5z M208.9,186.5c0,5.1-3.8,9.1-9.5,9.1s-9.5-4-9.5-9.1s3.8-9.1,9.5-9.1
		S208.9,181.3,208.9,186.5L208.9,186.5z M217.5,198.1H236v-2.6h-14.6v-7.9h12.8v-2.6h-12.8v-7.8h13.7v-2.6h-17.6L217.5,198.1z
		 M239.9,198.1h17.2v-2.6h-13.4v-20.8h-3.9L239.9,198.1z"/>
</g>
</svg>
