<?xml version="1.0" encoding="utf-8"?>
<!-- Generator: Adobe Illustrator 25.0.1, SVG Export Plug-In . SVG Version: 6.00 Build 0)  -->
<svg version="1.1" id="Livello_1" xmlns="http://www.w3.org/2000/svg" xmlns:xlink="http://www.w3.org/1999/xlink" x="0px" y="0px"
	 viewBox="0 0 443.8 450" style="enable-background:new 0 0 443.8 450;" xml:space="preserve">
<style type="text/css">
	.st0{fill:#151515;stroke:#151515;stroke-width:3;}
	.st1{fill:#E5E7EB;stroke:#151515;stroke-width:3;}
	.st2{fill:#151515;}
</style>
<g>
	<path class="st0" d="M223.8,111l1.1,3.1l1.6-2.9L274,23.6l-3.8,99.5l-0.1,3.3l2.6-2.1l77.3-62.8l-41.6,90.5l-1.4,3l3.2-1l95.5-28.4
		l-73.1,67.7l-2.5,2.3l3.3,0.3l99.1,10.3L339,240.9l-3.1,1.1l2.9,1.6l87.6,47.4l-99.5-3.8l-3.3-0.1l2.1,2.6l62.8,77.4l-90.5-41.6
		l-3-1.4l0.9,3.2l28.4,95.5l-67.7-73.1l-2.2-2.4l-0.3,3.3l-10.3,99.1L209.2,356l-1.2-3l-1.6,2.9L159,443.5l3.8-99.5l0.1-3.3
		l-2.6,2.1L83,405.5l41.6-90.5l1.4-3l-3.2,0.9l-95.5,28.4l73.1-67.7l2.4-2.2l-3.3-0.3L0.5,260.8L94,226.2l3.1-1.1l-2.9-1.6L6.5,176
		l99.6,3.8l3.3,0.1l-2.1-2.6l-62.8-77.3l90.5,41.6l3,1.4l-0.9-3.2l-28.4-95.5l67.7,73.1l2.2,2.4l0.3-3.3l10.3-99.1L223.8,111z"/>
	<path class="st1" d="M234.6,94l1.1,3.1l1.6-2.9l47.4-87.7l-3.8,99.5l-0.1,3.3l2.6-2.1l77.4-62.8L319.1,135l-1.4,3l3.2-0.9
		l95.5-28.4l-73.1,67.7l-2.4,2.2l3.3,0.3l99.1,10.3l-93.4,34.6l-3.1,1.2l2.9,1.6l87.6,47.4l-99.5-3.8l-3.3-0.1l2.1,2.6l62.8,77.3
		l-90.5-41.6l-3-1.4l1,3.2l28.4,95.5l-67.7-73.1l-2.3-2.5l-0.3,3.3l-10.3,99.1L220,339l-1.1-3.1l-1.6,2.9l-47.4,87.6l3.8-99.5
		l0.1-3.3l-2.6,2.1l-77.4,62.8l41.6-90.5l1.4-3l-3.2,0.9l-95.5,28.4l73.1-67.7l2.4-2.2l-3.3-0.4l-99.1-10.3l93.4-34.6l3.1-1.1
		l-2.9-1.6L17.4,159l99.5,3.8l3.3,0.1l-2.1-2.6L55.4,83l90.5,41.6l3,1.4l-0.9-3.2l-28.4-95.5l67.7,73.1l2.2,2.4l0.3-3.3l10.3-99.1
		L234.6,94z"/>
	<path class="st2" d="M180.2,184c0,0-1-9.7-12.3-9.7c-8.3,0-13,5.1-13,12.1s5,12.1,13.3,12.1c11.7,0,12.6-9.2,12.6-9.2l-4-1.2
		c0,0-0.2,7.4-8.6,7.4c-4.8,0.3-8.9-3.4-9.2-8.3c0-0.3,0-0.6,0-0.8c0-5.2,3.2-9.1,8.9-9.1c8,0,8.3,7.9,8.3,7.9L180.2,184z
		 M185.4,198.1h18.4v-2.6h-14.6v-7.9h12.8v-2.6h-12.8v-7.8h13.7v-2.6h-17.6V198.1z M232.1,184c0,0-1-9.7-12.3-9.7
		c-8.3,0-13,5.1-13,12.1s5,12.1,13.3,12.1c11.7,0,12.6-9.2,12.6-9.2l-4-1.2c0,0-0.2,7.4-8.6,7.4c-4.8,0.3-8.9-3.4-9.2-8.3
		c0-0.3,0-0.6,0-0.8c0-5.2,3.2-9.1,8.9-9.1c8,0,8.3,7.9,8.3,7.9L232.1,184z M237.2,174.8v23.3h3.9v-23.3L237.2,174.8z M246.5,198.1
		h17.3v-2.6h-13.4v-20.7h-3.9V198.1z M266.5,174.8v23.3h3.9v-23.3L266.5,174.8z M297.5,198.1h4.2l-10.8-23.3h-6.4l-10.8,23.3h4.1
		l3.3-7.4h13L297.5,198.1z M287.2,177.3h1l4.8,10.8h-10.7L287.2,177.3z M141.5,233.1c0,0-1.4-8.8-12.2-8.8c-8.3,0-13,5.1-13,12.1
		s4.7,12.1,12.1,12.1c7.2,0,8.8-4.9,8.8-4.9v4.5h3.9v-11.8h-12.7v2.6h8.8c0,0-0.4,6.7-8.2,6.7c-5.3,0-8.6-4-8.6-9.1s3.2-9.1,8.9-9.1
		c4.1-0.2,7.7,2.9,8.2,7L141.5,233.1z M168.5,248.1h4.2l-10.8-23.3h-6.4l-10.8,23.3h4.1l3.3-7.4h13L168.5,248.1z M158.2,227.4h1
		l4.8,10.8h-10.7L158.2,227.4z M176,248.1h18.4v-2.6h-14.6v-7.9h12.8v-2.6h-12.8v-7.8h13.7v-2.6h-17.6L176,248.1z M195.6,227.4h9.9
		v20.7h3.8v-20.8h9.9v-2.6h-23.7L195.6,227.4z M239.2,248.1h4.2l-10.8-23.3h-6.4l-10.8,23.3h4.1l3.3-7.4h13L239.2,248.1z
		 M228.8,227.4h1l4.8,10.8h-10.7L228.8,227.4z M246.6,224.8v23.3h3.9v-10.7h3.9c5,0,6.5,1,7.1,3.6c1.3,5.3,1.5,6.5,2,7.1h4
		c-0.5-0.6-0.7-1.6-2.3-7.7c-0.7-2.7-3.1-3.7-5.3-4c4,0,7-1.7,7-5.3c0-4.3-3.3-6.3-10.5-6.3L246.6,224.8z M250.5,234.9v-7.5h6
		c3.6,0,6.4,0.8,6.4,3.8s-2.8,3.8-6.4,3.8H250.5z M272,248.1h18.5v-2.6h-14.5v-7.9h12.8v-2.6h-12.8v-7.8h13.7v-2.6H272V248.1z
		 M294.4,248.1h17.2v-2.6h-13.3v-20.8h-3.9L294.4,248.1z M314.4,248.1h17.2v-2.6h-13.4v-20.8h-3.9L314.4,248.1z M334.3,224.8v23.3
		h3.9v-23.3L334.3,224.8z"/>
</g>
</svg>
