<?xml version="1.0" encoding="utf-8"?>
<!-- Generator: Adobe Illustrator 25.0.1, SVG Export Plug-In . SVG Version: 6.00 Build 0)  -->
<svg version="1.1" id="Livello_1" xmlns="http://www.w3.org/2000/svg" xmlns:xlink="http://www.w3.org/1999/xlink" x="0px" y="0px"
	 viewBox="0 0 312.1 312.2" style="enable-background:new 0 0 312.1 312.2;" xml:space="preserve">
<style type="text/css">
	.st0{fill:#151515;stroke:#151515;stroke-width:3;}
	.st1{fill:#E5E7EB;stroke:#151515;stroke-width:3;}
	.st2{fill:#151515;}
</style>
<g>
	<path class="st0" d="M139.9,20.6c2-9.6,15.8-9.6,17.8,0c1.4,6.5,7.8,10.7,14.3,9.3c3.5-0.7,6.5-3,8.2-6.1c4.6-8.6,17.8-4.8,17,5
		c-0.5,6.7,4.4,12.5,11.1,13c3.5,0.3,7-1,9.5-3.6c6.9-7,18.4,0.4,14.9,9.6c-2.4,6.2,0.7,13.2,7,15.6c3.4,1.3,7.1,1,10.2-0.7
		c8.6-4.8,17.6,5.6,11.6,13.4c-4,5.3-3,12.9,2.3,16.9c2.8,2.1,6.5,2.9,9.9,2.2c9.6-2.2,15.3,10.3,7.4,16.2c-5.4,4-6.5,11.5-2.5,16.9
		c2.1,2.9,5.4,4.6,8.9,4.9c9.8,0.6,11.8,14.2,2.5,17.6c-6.3,2.3-9.5,9.2-7.2,15.5c1.2,3.3,3.9,6,7.2,7.2c9.2,3.4,7.3,16.9-2.5,17.6
		c-6.7,0.4-11.7,6.2-11.3,12.8c0.2,3.6,2,6.8,4.9,8.9c7.9,5.8,2.2,18.3-7.4,16.2c-6.5-1.5-13,2.6-14.4,9.1c-0.8,3.5,0,7.1,2.2,10
		c5.9,7.8-3,18.2-11.6,13.4c-5.8-3.2-13.2-1.1-16.4,4.7c-1.7,3.1-2,6.8-0.7,10.2c3.5,9.2-8.1,16.6-14.9,9.6
		c-4.7-4.7-12.3-4.8-17.1-0.1c-2.5,2.5-3.8,6-3.6,9.5c0.8,9.8-12.4,13.7-17,5c-3.2-5.9-10.5-8.1-16.3-4.9c-3.1,1.7-5.4,4.7-6.1,8.2
		c-2,9.6-15.8,9.6-17.8,0c-1.4-6.5-7.8-10.7-14.3-9.3c-3.5,0.7-6.5,3-8.2,6.1c-4.7,8.6-17.8,4.8-17-5c0.5-6.7-4.5-12.5-11.1-13
		c-3.5-0.3-7,1-9.5,3.6c-6.9,7-18.4-0.4-14.9-9.6c2.4-6.2-0.8-13.2-7-15.6c-3.3-1.3-7-1-10.2,0.7c-8.7,4.8-17.6-5.6-11.7-13.4
		c4-5.3,3-12.9-2.3-16.9c-2.8-2.1-6.5-2.9-9.9-2.2c-9.6,2.2-15.3-10.3-7.4-16.2c5.4-4,6.5-11.5,2.5-16.9c-2.1-2.8-5.4-4.6-8.9-4.9
		c-9.8-0.6-11.8-14.2-2.5-17.6c6.3-2.3,9.5-9.2,7.2-15.5c-1.2-3.3-3.9-6-7.2-7.2c-9.2-3.4-7.3-17,2.5-17.6
		c6.7-0.4,11.7-6.2,11.3-12.8c-0.2-3.5-2-6.8-4.9-8.9c-7.9-5.8-2.2-18.3,7.4-16.2c6.5,1.4,13-2.7,14.4-9.2c0.8-3.5,0-7.1-2.2-9.9
		c-5.9-7.8,3-18.2,11.6-13.4c5.8,3.3,13.2,1.2,16.4-4.6c1.7-3.1,2-6.9,0.7-10.2c-3.5-9.2,8-16.6,14.9-9.6c4.7,4.7,12.3,4.8,17.1,0.1
		c2.5-2.5,3.8-6,3.6-9.5c-0.8-9.8,12.4-13.6,17-5c3.1,5.9,10.4,8.1,16.3,5C136.9,27.1,139.2,24.1,139.9,20.6z"/>
	<path class="st1" d="M154.5,8.7c2-9.6,15.7-9.6,17.8,0c1.4,6.5,7.8,10.7,14.3,9.3c3.5-0.7,6.5-3,8.1-6.1c4.6-8.7,17.8-4.8,17,5
		c-0.5,6.6,4.4,12.5,11.1,13c3.6,0.3,7-1,9.5-3.6c6.9-7,18.4,0.4,15,9.6c-2.4,6.2,0.8,13.2,7,15.6c3.3,1.3,7,1,10.2-0.7
		c8.6-4.8,17.6,5.6,11.6,13.4c-4,5.3-3,12.9,2.3,16.9c2.8,2.2,6.5,3,10,2.2c9.6-2.2,15.3,10.3,7.4,16.2c-5.4,4-6.5,11.5-2.5,16.9
		c2.1,2.9,5.4,4.6,8.9,4.9c9.8,0.6,11.8,14.2,2.5,17.6c-6.3,2.3-9.5,9.2-7.2,15.5c1.2,3.3,3.9,6,7.2,7.2c9.2,3.4,7.3,16.9-2.5,17.6
		c-6.7,0.4-11.7,6.2-11.3,12.8c0.2,3.5,2,6.8,4.9,8.9c7.9,5.8,2.2,18.3-7.4,16.2c-6.5-1.5-13,2.6-14.4,9.1c-0.8,3.5,0,7.1,2.2,10
		c5.9,7.8-3,18.2-11.6,13.4c-5.8-3.2-13.2-1.1-16.4,4.7c-1.7,3.1-2,6.8-0.7,10.2c3.5,9.2-8.1,16.6-15,9.6
		c-4.7-4.7-12.3-4.8-17.1-0.1c-2.5,2.5-3.8,6-3.6,9.5c0.8,9.8-12.4,13.7-17,5c-3.2-5.9-10.5-8.1-16.4-4.9c-3.1,1.7-5.4,4.7-6.1,8.1
		c-2,9.6-15.7,9.6-17.8,0c-1.4-6.5-7.7-10.7-14.3-9.4c-3.5,0.7-6.5,3-8.2,6.1c-4.6,8.7-17.8,4.8-17-5c0.5-6.6-4.4-12.5-11.1-13
		c-3.6-0.3-7.1,1-9.6,3.6c-6.9,7-18.4-0.4-15-9.6c2.4-6.2-0.8-13.2-7-15.6c-3.3-1.3-7-1-10.2,0.7c-8.6,4.8-17.6-5.6-11.6-13.4
		c4-5.3,3-12.9-2.3-16.9c-2.8-2.2-6.5-3-10-2.2c-9.6,2.1-15.3-10.3-7.4-16.2c5.4-4,6.5-11.6,2.5-16.9c-2.1-2.8-5.3-4.6-8.9-4.8
		c-9.8-0.6-11.8-14.2-2.5-17.6c6.3-2.3,9.5-9.2,7.2-15.5c-1.2-3.3-3.9-6-7.2-7.2c-9.2-3.4-7.3-17,2.5-17.6
		c6.7-0.4,11.7-6.2,11.3-12.8c-0.2-3.6-2-6.8-4.9-8.9c-7.9-5.8-2.2-18.3,7.4-16.2c6.5,1.5,13-2.6,14.4-9.1c0.8-3.5,0-7.1-2.2-10
		c-5.9-7.8,3-18.2,11.6-13.4c5.8,3.2,13.2,1.1,16.4-4.7c1.7-3.1,2-6.8,0.7-10.1c-3.5-9.2,8-16.6,15-9.6c4.7,4.7,12.3,4.7,17.1,0
		c2.5-2.5,3.8-6,3.5-9.5c-0.8-9.8,12.4-13.7,17-5c3.1,5.9,10.5,8.1,16.3,5C151.5,15.2,153.8,12.2,154.5,8.7z"/>
	<path class="st2" d="M77.7,121.5h-4.2l-8.9,20.8l-8.9-20.8h-4.2l10.4,23.3h5.5L77.7,121.5z M98.2,144.8h4.2l-10.8-23.3h-6.4
		l-10.8,23.3h4.1l3.3-7.4h13.1L98.2,144.8z M87.8,124.1h1.1l4.8,10.8H83L87.8,124.1z M105.7,144.8h17.2v-2.6h-13.3v-20.8h-3.9V144.8
		z M125.7,144.8h18.5v-2.6h-14.6v-7.9h12.8v-2.6h-12.8V124h13.7v-2.5h-17.6L125.7,144.8z M170.5,121.5h-3.9v19.3l-13.9-19.3H148
		v23.3h3.9v-19.3l13.8,19.3h4.8L170.5,121.5z M173.2,124.1h9.9v20.8h3.8v-20.8h9.9v-2.6h-23.7L173.2,124.1z M199.5,121.5v23.3h3.9
		v-23.3H199.5z M231.4,121.5h-3.9v19.3l-13.9-19.3h-4.8v23.3h3.9v-19.3l13.8,19.3h4.8L231.4,121.5z M258.5,144.8h4.2l-10.8-23.3
		h-6.5l-10.8,23.3h4.1l3.3-7.4h13.1L258.5,144.8z M248.1,124.1h1.1l4.8,10.8h-10.7L248.1,124.1z M72.9,171.5v23.3h3.9v-10.7h6
		c7.2,0,10.5-2,10.5-6.3s-3.3-6.3-10.5-6.3H72.9z M76.8,181.6v-7.5h6c3.6,0,6.4,0.8,6.4,3.8s-2.8,3.8-6.4,3.8H76.8z M114.7,194.8
		h4.2L108,171.5h-6.4l-10.8,23.3H95l3.3-7.4h13L114.7,194.8z M104.3,174.1h1l4.8,10.8H99.5L104.3,174.1z M122.1,194.8h17.2v-2.6H126
		v-20.8h-3.9L122.1,194.8z M142.1,194.8h17.2v-2.6H146v-20.8h-3.9L142.1,194.8z M183.8,194.8h4.2l-10.8-23.3h-6.4L160,194.8h4.1
		l3.3-7.4h13.1L183.8,194.8z M173.5,174.1h1.1l4.8,10.8h-10.8L173.5,174.1z M215.7,180.7c0,0-1-9.7-12.3-9.7c-8.3,0-13,5.1-13,12.1
		s5,12.1,13.3,12.1c11.7,0,12.6-9.2,12.6-9.2l-4-1.2c0,0-0.2,7.4-8.6,7.4c-4.8,0.3-8.9-3.4-9.2-8.3c0-0.3,0-0.6,0-0.8
		c0-5.2,3.2-9.1,8.9-9.1c8,0,8.3,7.9,8.3,7.9L215.7,180.7z M245.2,180.7c0,0-1-9.7-12.3-9.7c-8.3,0-13,5.1-13,12.1s5,12.1,13.3,12.1
		c11.7,0,12.6-9.2,12.6-9.2l-4-1.2c0,0-0.2,7.4-8.6,7.4c-4.8,0.3-8.9-3.4-9.2-8.3c0-0.3,0-0.6,0-0.8c0-5.2,3.2-9.1,8.9-9.1
		c8,0,8.3,7.9,8.3,7.9L245.2,180.7z M250.3,171.5v23.3h3.9v-23.3H250.3z"/>
</g>
</svg>
