<?xml version="1.0" encoding="utf-8"?>
<!-- Generator: Adobe Illustrator 25.0.1, SVG Export Plug-In . SVG Version: 6.00 Build 0)  -->
<svg version="1.1" id="Livello_1" xmlns="http://www.w3.org/2000/svg" xmlns:xlink="http://www.w3.org/1999/xlink" x="0px" y="0px"
	 viewBox="0 0 295.8 304.2" style="enable-background:new 0 0 295.8 304.2;" xml:space="preserve">
<style type="text/css">
	.st0{fill:#151515;stroke:#000000;stroke-width:2;}
	.st1{fill:#E5E7EB;stroke:#000000;stroke-width:2;}
	.st2{fill:#151515;}
</style>
<g>
	
		<rect x="36.9" y="50.2" transform="matrix(0.9075 -0.4201 0.4201 0.9075 -53.2483 75.7914)" class="st0" width="217.1" height="217.1"/>
	
		<rect x="41.8" y="36.9" transform="matrix(0.9075 -0.4201 0.4201 0.9075 -47.1879 76.6242)" class="st1" width="217.1" height="217.1"/>
	<path class="st2" d="M82.9,154.4h3.9V144h12.8v-2.6H86.8v-7.8h13.7v-2.6H82.9V154.4z M103.8,154.4h3.9V150h-3.9V154.4z
		 M134.8,154.4h4.2l-10.8-23.3h-6.4L111,154.4h4.1l3.3-7.4h13L134.8,154.4z M124.4,133.6h1l4.8,10.8h-10.7L124.4,133.6z
		 M142.2,154.4h3.9V150h-3.9V154.4z M175.9,140.3c0,0-1-9.7-12.3-9.7c-8.3,0-13,5.1-13,12.1s5,12.1,13.3,12.1
		c11.7,0,12.6-9.2,12.6-9.2l-4-1.2c0,0-0.2,7.4-8.6,7.4c-4.8,0.3-8.9-3.4-9.2-8.3c0-0.3,0-0.6,0-0.8c0-5.2,3.2-9.1,8.9-9.1
		c8,0,8.3,7.9,8.3,7.9L175.9,140.3z M181.1,154.4h3.9V150h-3.9L181.1,154.4z M187.6,133.6h9.9v20.8h3.8v-20.8h9.9v-2.6h-23.6
		L187.6,133.6z M214,154.4h3.9V150H214V154.4z"/>
</g>
</svg>
