<?xml version="1.0" encoding="utf-8"?>
<!-- Generator: Adobe Illustrator 25.0.1, SVG Export Plug-In . SVG Version: 6.00 Build 0)  -->
<svg version="1.1" id="Livello_1" xmlns="http://www.w3.org/2000/svg" xmlns:xlink="http://www.w3.org/1999/xlink" x="0px" y="0px"
	 viewBox="0 0 322 327.1" style="enable-background:new 0 0 322 327.1;" xml:space="preserve">
<style type="text/css">
	.st0{fill:#151515;stroke:#000000;stroke-width:2;}
	.st1{fill:#E5E7EB;stroke:#000000;stroke-width:2;}
	.st2{fill:#151515;}
</style>
<g>
	<path class="st0" d="M162.9,80.7l0.8,2.1l1.1-1.9l34.6-63.9l-2.8,72.6l-0.1,2.2l1.7-1.4l56.4-45.8l-30.4,66l-0.9,2l2.1-0.6
		L295,91.1l-53.3,49.4l-1.6,1.5l2.2,0.2l72.3,7.5L246.4,175l-2.1,0.8l1.9,1.1l63.9,34.6l-72.6-2.8l-2.2-0.1l1.4,1.7l45.8,56.4
		l-66-30.4l-2-0.9l0.6,2.1l20.7,69.7l-49.4-53.3l-1.5-1.6l-0.2,2.2l-7.5,72.3L152,258.5l-0.8-2.1l-1.1,1.9l-34.6,63.9l2.8-72.6
		l0.1-2.2l-1.7,1.4l-56.4,45.8l30.4-66l0.9-2l-2.1,0.6L19.9,248l53.3-49.4l1.6-1.5l-2.2-0.2l-72.3-7.5l68.2-25.2l2.1-0.8l-2-1
		L4.7,127.8l72.6,2.8l2.2,0.1l-1.4-1.7L32.4,72.5l66,30.4l2,0.9l-0.6-2.1L79.1,32l49.4,53.3l1.5,1.6l0.2-2.2l7.5-72.3L162.9,80.7z"
		/>
	<path class="st1" d="M169.9,68.5l0.8,2.1l1-2l34.7-63.9l-2.8,72.6l-0.1,2.2l1.7-1.4l56.4-45.8l-30.4,66l-0.9,2l2.1-0.6L302.1,79
		l-53.3,49.4l-1.6,1.5l2.2,0.2l72.3,7.5l-68.2,25.2l-2.1,0.8l1.9,1.1l63.9,34.6l-72.6-2.8l-2.2-0.1l1.4,1.7l45.8,56.4l-66-30.4
		l-2-0.9l0.6,2.1L243,295l-49.4-53.3l-1.5-1.6l-0.2,2.2l-7.5,72.3l-25.2-68.2l-0.8-2.1l-1,1.9l-34.7,63.9l2.8-72.6l0.1-2.2l-1.7,1.4
		l-56.4,45.8l30.4-66l0.9-2l-2.1,0.6L27,235.9l53.3-49.4l1.6-1.5l-2.2-0.2l-72.3-7.5L75.6,152l2.1-0.8l-1.9-1l-63.9-34.7l72.6,2.8
		l2.2,0.1l-1.4-1.7L39.4,60.4l66,30.4l2,0.9l-0.6-2.1L86.1,19.9l49.4,53.3l1.5,1.6l0.2-2.2l7.5-72.3L169.9,68.5z"/>
	<path class="st2" d="M113.1,160.1c0-7-5.3-12.1-13.6-12.1s-13.6,5.1-13.6,12.1s5.3,12.1,13.6,12.1S113.1,167.1,113.1,160.1z
		 M109,160.1c0,5.1-3.8,9.1-9.5,9.1s-9.5-4-9.5-9.1s3.8-9.1,9.5-9.1S109,155,109,160.1L109,160.1z M135.8,148.4v13.7
		c0,6.1-2.7,7.1-7.1,7.1s-7.1-1-7.1-7.1v-13.7h-3.9v13.7c0,6.7,3.7,10,11,10c7.3,0,11-3.3,11-10v-13.7H135.8z M142.4,151h9.9v20.8
		h3.8V151h9.9v-2.6h-23.6V151z M168.7,148.4v23.3h3.9v-10.7h6c7.2,0,10.5-2,10.5-6.3s-3.3-6.3-10.5-6.3H168.7z M172.6,158.5V151h6
		c3.6,0,6.4,0.8,6.4,3.8s-2.8,3.8-6.4,3.8L172.6,158.5z M210.6,148.4v13.7c0,6.1-2.7,7.1-7.1,7.1s-7.1-1-7.1-7.1v-13.7h-3.9v13.7
		c0,6.7,3.7,10,11,10s11-3.3,11-10v-13.7H210.6z M217.2,151h9.9v20.8h3.8V151h9.9v-2.6h-23.7L217.2,151z"/>
</g>
</svg>
