<?xml version="1.0" encoding="utf-8"?>
<!-- Generator: Adobe Illustrator 25.0.1, SVG Export Plug-In . SVG Version: 6.00 Build 0)  -->
<svg version="1.1" id="Livello_1" xmlns="http://www.w3.org/2000/svg" xmlns:xlink="http://www.w3.org/1999/xlink" x="0px" y="0px"
	 viewBox="0 0 264.3 270.7" style="enable-background:new 0 0 264.3 270.7;" xml:space="preserve">
<style type="text/css">
	.st0{fill:#151515;stroke:#000000;stroke-width:2;}
	.st1{fill:#E5E7EB;stroke:#000000;stroke-width:2;}
	.st2{fill:#151515;}
</style>
<g>
	<path class="st0" d="M118.8,22.5c1.8-8.5,13.9-8.5,15.7,0c1.1,5.4,6.5,8.8,11.9,7.7c2.9-0.6,5.3-2.4,6.7-5c4.1-7.6,15.7-4.2,15,4.4
		c-0.4,5.5,3.7,10.3,9.2,10.7c2.9,0.2,5.8-0.8,7.9-2.9c6.1-6.2,16.2,0.4,13.2,8.5c-2,5.2,0.6,10.9,5.8,12.9c2.8,1,5.8,0.8,8.4-0.6
		c7.6-4.2,15.5,4.9,10.3,11.8c-3.3,4.4-2.5,10.7,1.9,14c2.4,1.8,5.4,2.4,8.3,1.8c8.4-1.9,13.5,9.1,6.5,14.2c-4.4,3.3-5.4,9.6-2.1,14
		c1.7,2.3,4.4,3.8,7.3,4c8.6,0.6,10.4,12.5,2.2,15.5c-5.2,1.9-7.9,7.6-6,12.8c1,2.8,3.2,5,6,6c8.1,3,6.4,14.9-2.2,15.5
		c-5.5,0.4-9.7,5.1-9.3,10.7c0.2,2.9,1.7,5.6,4,7.3c7,5.1,1.9,16.1-6.5,14.2c-5.4-1.2-10.7,2.2-11.9,7.6c-0.6,2.9,0,5.9,1.8,8.2
		c5.2,6.9-2.7,16-10.2,11.8c-4.8-2.7-10.9-0.9-13.6,3.9c-1.4,2.6-1.7,5.7-0.6,8.4c3.1,8.1-7.1,14.6-13.2,8.5c-3.9-4-10.2-4-14.1-0.2
		c-2.2,2.1-3.2,5-3,8c0.7,8.6-10.9,12-15,4.4c-2.6-4.9-8.7-6.7-13.5-4.1c-2.6,1.4-4.5,3.9-5.1,6.8c-1.8,8.5-13.9,8.5-15.7,0
		c-1.1-5.4-6.4-8.9-11.8-7.7c-2.9,0.6-5.4,2.5-6.8,5.1c-4.1,7.6-15.7,4.2-15-4.4c0.4-5.5-3.7-10.3-9.2-10.7
		c-2.9-0.2-5.8,0.8-7.9,2.9c-6.1,6.2-16.2-0.4-13.2-8.5c2-5.2-0.6-10.9-5.8-12.9c-2.8-1.1-5.8-0.8-8.4,0.6
		c-7.6,4.2-15.5-4.9-10.2-11.8c3.3-4.4,2.5-10.7-1.9-14c-2.3-1.8-5.4-2.4-8.2-1.8c-8.4,1.9-13.5-9.1-6.5-14.2
		c4.4-3.3,5.4-9.6,2.1-14c-1.7-2.3-4.4-3.8-7.3-4c-8.6-0.6-10.4-12.5-2.2-15.5c5.2-1.9,7.9-7.6,6-12.8c-1-2.8-3.2-5-6-6
		c-8.1-3-6.4-14.9,2.2-15.5c5.5-0.4,9.7-5.1,9.3-10.7c-0.2-2.9-1.7-5.6-4-7.3c-7-5.1-1.9-16.1,6.5-14.2c5.4,1.2,10.7-2.1,12-7.5
		c0.7-2.9,0-5.9-1.8-8.3c-5.2-6.9,2.7-16,10.3-11.8c4.8,2.7,10.9,0.9,13.6-3.9c1.4-2.6,1.7-5.7,0.6-8.4c-3.1-8.1,7.1-14.6,13.2-8.5
		c3.9,3.9,10.2,4,14.1,0.1c2.1-2.1,3.2-5,2.9-7.9c-0.7-8.6,10.9-12,15-4.4c2.6,4.9,8.7,6.7,13.5,4.1
		C116.3,27.9,118.2,25.4,118.8,22.5z"/>
	<path class="st1" d="M129.9,7.3c1.8-8.5,13.9-8.5,15.7,0c1.2,5.4,6.5,8.8,11.9,7.7c2.9-0.6,5.3-2.5,6.7-5c4.1-7.6,15.7-4.2,15,4.4
		c-0.4,5.5,3.7,10.3,9.2,10.7c2.9,0.2,5.8-0.8,7.9-2.9c6.1-6.2,16.3,0.4,13.2,8.5c-2,5.2,0.6,10.9,5.7,12.9c2.8,1.1,5.9,0.8,8.5-0.6
		c7.6-4.2,15.5,4.9,10.2,11.8c-3.3,4.4-2.5,10.7,1.9,14c2.3,1.8,5.3,2.4,8.2,1.8c8.4-1.9,13.5,9.1,6.5,14.2c-4.4,3.3-5.4,9.6-2.1,14
		c1.7,2.3,4.4,3.8,7.3,4c8.6,0.6,10.4,12.5,2.2,15.5c-5.2,1.9-7.9,7.6-6,12.8c1,2.8,3.2,4.9,6,6c8.1,3,6.4,14.9-2.2,15.5
		c-5.5,0.4-9.7,5.1-9.3,10.7c0.2,2.9,1.7,5.6,4,7.3c7,5.1,1.9,16.1-6.5,14.2c-5.4-1.2-10.7,2.2-11.9,7.6c-0.6,2.9,0,5.9,1.8,8.2
		c5.2,6.9-2.7,16-10.2,11.8c-4.8-2.7-10.9-0.9-13.6,3.9c-1.4,2.6-1.6,5.6-0.6,8.4c3.1,8.1-7.1,14.6-13.2,8.5
		c-3.9-3.9-10.2-4-14.1-0.1c-2.1,2.1-3.2,4.9-2.9,7.9c0.7,8.6-10.9,12-15,4.4c-2.6-4.9-8.7-6.7-13.5-4.1c-2.6,1.4-4.4,3.9-5,6.7
		c-1.8,8.5-13.9,8.5-15.7,0c-1.1-5.4-6.4-8.9-11.8-7.7c-2.9,0.6-5.3,2.5-6.7,5c-4.1,7.6-15.7,4.2-15-4.4c0.4-5.5-3.7-10.3-9.2-10.7
		c-2.9-0.2-5.8,0.8-7.9,2.9c-6.1,6.2-16.2-0.4-13.2-8.5c2-5.2-0.6-10.9-5.8-12.9c-2.8-1-5.8-0.8-8.4,0.6
		c-7.6,4.2-15.5-4.9-10.2-11.8c3.3-4.4,2.3-10.7-2.1-14c-2.3-1.7-5.3-2.3-8.1-1.7c-8.5,1.9-13.5-9.1-6.5-14.2
		c4.4-3.3,5.3-9.6,2.1-14c-1.7-2.3-4.4-3.8-7.4-4c-8.6-0.6-10.4-12.5-2.2-15.5c5.2-1.9,7.9-7.6,6-12.8c-1-2.8-3.2-4.9-6-6
		c-8.1-3-6.4-14.9,2.2-15.5c5.5-0.4,9.7-5.1,9.3-10.6c-0.2-2.9-1.7-5.6-4-7.4c-7-5.1-2-16.1,6.5-14.2c5.4,1.2,10.7-2.2,11.9-7.6
		c0.6-2.9,0-5.9-1.8-8.2C36.3,48,44.2,38.8,51.8,43c4.8,2.7,10.9,0.9,13.6-3.9c1.4-2.6,1.6-5.6,0.6-8.4c-3.1-8.1,7.1-14.6,13.2-8.5
		c3.9,3.9,10.2,4,14.1,0.1c2.1-2.1,3.2-5,2.9-7.9c-0.7-8.6,10.9-12,15-4.4c2.6,4.9,8.6,6.7,13.5,4.1
		C127.4,12.8,129.3,10.3,129.9,7.3z"/>
	<path class="st2" d="M71.7,135.1c0,0-1-9.7-12.3-9.7c-8.3,0-13,5.1-13,12.1s5,12.1,13.3,12.1c11.7,0,12.6-9.2,12.6-9.2l-4-1.2
		c0,0-0.2,7.4-8.6,7.4c-4.8,0.3-8.9-3.4-9.2-8.3c0-0.3,0-0.6,0-0.8c0-5.2,3.2-9.1,8.9-9.1c8,0,8.3,7.9,8.3,7.9L71.7,135.1z
		 M103.1,137.5c0-7-5.3-12.1-13.6-12.1s-13.6,5.1-13.6,12.1s5.3,12.1,13.6,12.1S103.2,144.5,103.1,137.5L103.1,137.5z M99,137.5
		c0,5.1-3.8,9.1-9.5,9.1s-9.5-4-9.5-9.1s3.8-9.1,9.5-9.1S99,132.4,99,137.5L99,137.5z M130.2,125.8h-3.9v19.3l-13.8-19.3h-4.8v23.3
		h3.9v-19.3l13.8,19.3h4.8V125.8z M160,135.1c0,0-1-9.7-12.3-9.7c-8.3,0-13,5.1-13,12.1s5,12.1,13.3,12.1c11.7,0,12.6-9.2,12.6-9.2
		l-4-1.2c0,0-0.2,7.4-8.6,7.4c-4.8,0.3-8.9-3.4-9.2-8.3c0-0.3,0-0.6,0-0.8c0-5.2,3.2-9.1,8.9-9.1c8,0,8.3,7.9,8.3,7.9L160,135.1z
		 M165.1,149.2h18.4v-2.6H169v-7.9h12.8v-2.6H169v-7.8h13.7v-2.6h-17.6L165.1,149.2z M187.5,125.9v23.3h3.9v-10.7h6
		c7.2,0,10.5-2,10.5-6.3s-3.3-6.3-10.5-6.3L187.5,125.9z M191.4,135.9v-7.5h6c3.6,0,6.4,0.8,6.4,3.8s-2.8,3.8-6.4,3.8L191.4,135.9z
		 M208.5,128.4h9.9v20.8h3.8v-20.8h9.9v-2.6h-23.6L208.5,128.4z"/>
</g>
</svg>
