<?xml version="1.0" encoding="utf-8"?>
<!-- Generator: Adobe Illustrator 25.0.1, SVG Export Plug-In . SVG Version: 6.00 Build 0)  -->
<svg version="1.1" id="Livello_1" xmlns="http://www.w3.org/2000/svg" xmlns:xlink="http://www.w3.org/1999/xlink" x="0px" y="0px"
	 viewBox="0 0 387.8 405.3" style="enable-background:new 0 0 387.8 405.3;" xml:space="preserve">
<style type="text/css">
	.st0{fill:#151515;stroke:#151515;stroke-width:3;}
	.st1{fill:#E5E7EB;stroke:#151515;stroke-width:3;}
	.st2{fill:#151515;}
</style>
<g>
	
		<rect x="48.8" y="70.8" transform="matrix(0.9075 -0.4201 0.4201 0.9075 -72.0238 100.2851)" class="st0" width="285.8" height="285.8"/>
	
		<rect x="53.3" y="48.8" transform="matrix(0.9075 -0.4201 0.4201 0.9075 -62.3642 100.1363)" class="st1" width="285.8" height="285.8"/>
	<path class="st2" d="M156.9,154.8h9.9v20.8h3.8v-20.8h9.9v-2.6h-23.6V154.8z M183.2,152.2v23.3h3.9v-23.3H183.2z M208.1,173
		l-9.6-20.8h-6v23.3h3.9v-19.3l9.2,19.3h5.1l9.2-19.3v19.3h3.9v-23.3h-6L208.1,173z M136.5,213.9c0-7-5.3-12.1-13.6-12.1
		s-13.6,5.1-13.6,12.1s5.3,12.1,13.6,12.1S136.5,220.9,136.5,213.9z M132.4,213.9c0,5.1-3.8,9.1-9.5,9.1s-9.5-4-9.5-9.1
		s3.8-9.1,9.5-9.1S132.4,208.7,132.4,213.9z M141,225.5h17.2V223h-13.4v-20.8H141V225.5z M181.9,218.9c0-5.6-5.6-5.9-5.6-5.9
		s5-0.5,5-5.1c0-3.7-3.3-5.7-10.5-5.7h-9.9v23.3h10.5C178.6,225.5,181.9,223.3,181.9,218.9L181.9,218.9z M164.9,212.3v-7.5h6
		c3.6,0,6.4,0.8,6.4,3.8s-2.8,3.8-6.4,3.8H164.9z M164.9,214.9h6.6c3.6,0,6.4,0.8,6.4,4s-2.8,4.1-6.4,4.1h-6.6L164.9,214.9z
		 M186.4,202.2v23.3h3.9v-10.7h3.9c5,0,6.5,1,7.1,3.6c1.3,5.3,1.5,6.5,2,7.1h4.1c-0.4-0.6-0.7-1.6-2.3-7.7c-0.7-2.7-3.1-3.7-5.3-4
		c4.1,0,7.1-1.7,7.1-5.3c0-4.3-3.3-6.3-10.5-6.3L186.4,202.2z M190.3,212.3v-7.5h6c3.6,0,6.4,0.8,6.4,3.8s-2.8,3.8-6.4,3.8H190.3z
		 M211.9,202.2v23.3h3.9v-23.3L211.9,202.2z M245.5,211.5c0,0-1-9.7-12.3-9.7c-8.3,0-13,5.1-13,12.1s5,12.1,13.3,12.1
		c11.7,0,12.6-9.2,12.6-9.2l-4-1.2c0,0-0.2,7.4-8.6,7.4c-4.8,0.3-8.9-3.4-9.2-8.3c0-0.3,0-0.6,0-0.8c0-5.2,3.2-9.1,8.9-9.1
		c8,0,8.3,7.9,8.3,7.9L245.5,211.5z M269.3,225.5h3.9v-23.3h-3.9v10.4h-14.7v-10.4h-3.9v23.3h3.9v-10.4h14.7V225.5z"/>
</g>
</svg>
