<?xml version="1.0" encoding="utf-8"?>
<!-- Generator: Adobe Illustrator 25.0.1, SVG Export Plug-In . SVG Version: 6.00 Build 0)  -->
<svg version="1.1" id="Livello_1" xmlns="http://www.w3.org/2000/svg" xmlns:xlink="http://www.w3.org/1999/xlink" x="0px" y="0px"
	 viewBox="0 0 427.9 437.2" style="enable-background:new 0 0 427.9 437.2;" xml:space="preserve">
<style type="text/css">
	.st0{fill:#151515;stroke:#151515;stroke-width:3;}
	.st1{fill:#E5E7EB;stroke:#151515;stroke-width:3;}
	.st2{fill:#151515;}
</style>
<g>
	<path class="st0" d="M216,109.8l1.1,3.1l1.6-2.9l45.7-84.5l-3.7,96l-0.1,3.3l2.6-2.1l74.6-60.5l-40.1,87.2l-1.4,3l3.2-0.9l92-27.4
		L321,189.4l-2.4,2.2l3.3,0.3l95.5,9.9l-90.1,33.3l-3.1,1.1l2.9,1.6l84.5,45.7l-96-3.7l-3.3-0.1l2.1,2.6l60.6,74.5l-87.2-40.1
		l-3-1.4l1,3.2l27.4,92.1l-65.2-70.5l-2.2-2.4l-0.3,3.3l-9.9,95.5l-33.3-90.1l-1.1-3.1l-1.6,2.9l-45.7,84.5l3.7-96l0.1-3.3l-2.6,2.1
		l-74.6,60.6l40.1-87.2l1.4-3l-3.2,0.9l-92,27.4L96.9,267l2.4-2.2l-3.3-0.3l-95.5-9.9l90.1-33.3l3.1-1.2l-2.9-1.6L6.3,172.7l96,3.7
		l3.3,0.1l-2.1-2.5L43,99.4l87.2,40.1l3,1.4l-0.9-3.2l-27.4-92l65.2,70.5l2.2,2.4l0.3-3.3l9.9-95.5L216,109.8z"/>
	<path class="st1" d="M226,90.6l1.1,3.1l1.6-2.9l45.7-84.4l-3.7,96l-0.1,3.3l2.6-2.1L347.8,43l-40.1,87.2l-1.4,3l3.2-0.9l92.1-27.4
		L331,170.2l-2.4,2.2l3.3,0.3l95.5,9.9L337.3,216l-3.1,1.1l2.9,1.6l84.5,45.7l-96-3.7l-3.3-0.1l2.1,2.6l60.5,74.6l-87.3-40.1l-3-1.4
		l1,3.2l27.4,92.1L257.7,321l-2.2-2.4l-0.3,3.3l-9.9,95.5l-33.3-90.1l-1.1-3.1l-1.6,2.9l-45.7,84.5l3.7-96l0.1-3.3l-2.6,2.1
		l-74.6,60.5l40.1-87.2l1.4-3l-3.2,1L36.4,313l70.5-65.2l2.4-2.2l-3.3-0.3l-95.5-9.9l90.1-33.3l3.1-1.1l-2.9-1.6l-84.5-45.7l96,3.7
		l3.3,0.1l-2.1-2.6L53,80.2l87.2,40.1l3,1.4l-0.9-3.2l-27.4-92L180.2,97l2.2,2.4l0.4-3.3l9.9-95.6L226,90.6z"/>
	<path class="st2" d="M193.9,165.5h-4.2l-8.9,20.8l-8.9-20.8h-4.2l10.4,23.3h5.5L193.9,165.5z M197.2,188.8h18.4v-2.6h-14.5v-7.9
		H214v-2.6h-12.9V168h13.7v-2.5h-17.6V188.8z M219.6,165.5v23.3h3.9v-10.7h3.9c5,0,6.5,1,7.1,3.6c1.3,5.3,1.5,6.5,2,7.1h4.1
		c-0.4-0.6-0.7-1.6-2.3-7.7c-0.7-2.7-3.1-3.7-5.3-4c4.1,0,7.1-1.7,7.1-5.3c0-4.3-3.3-6.3-10.5-6.3L219.6,165.5z M223.5,175.6v-7.5h6
		c3.6,0,6.4,0.8,6.4,3.8s-2.8,3.8-6.4,3.8H223.5z M266.8,188.8h4.2l-10.8-23.3h-6.4L243,188.8h4.1l3.3-7.4h13L266.8,188.8z
		 M256.4,168.1h1l4.8,10.8h-10.7L256.4,168.1z M124.5,224.5c-2.6-0.6-4.1-1.4-4.1-3.1c0-2,2-3.4,5.2-3.4c7,0,6.6,5.1,6.6,5.1l4-1.1
		c0,0-0.2-7-10.4-7c-6.5,0-9.4,3.2-9.4,6.7c0,2.8,2,5,5.9,5.9l5.7,1.3c3.4,0.8,5.3,1.5,5.3,3.7c0,1.9-2.2,3.5-6,3.5
		c-8.6,0-7.9-6.5-7.9-6.5l-4,1.2c0.2,3.1,2.9,8.3,12,8.3c5.6,0,10-2.3,10-6.7c0-3-1.8-5.6-6.8-6.7L124.5,224.5z M163,238.8h4.2
		l-10.8-23.3h-6.4l-10.8,23.3h4.1l3.3-7.4h13L163,238.8z M152.6,218.1h1l4.8,10.8h-10.7L152.6,218.1z M170.5,238.8h17.2v-2.6h-13.4
		v-20.8h-3.9L170.5,238.8z M214.5,215.5h-4.2l-8.9,20.8l-8.9-20.8h-4.2l10.4,23.3h5.5L214.5,215.5z M235,238.8h4.2l-10.8-23.3H222
		l-10.8,23.3h4.1l3.3-7.4h13.1L235,238.8z M224.6,218.1h1.1l4.8,10.8h-10.7L224.6,218.1z M253,215.5h-10.5v23.3H253
		c7.8,0,12.7-4.4,12.7-11.6S260.8,215.5,253,215.5z M246.4,218.1h4.8c6.6,0,10.4,3.1,10.4,9.1s-3.8,9.1-10.4,9.1h-4.8L246.4,218.1z
		 M270.2,238.8h18.5v-2.6h-14.6v-7.9h12.8v-2.6h-12.8V218h13.7v-2.5h-17.6V238.8z M292.5,215.5v23.3h3.9v-10.7h3.9
		c5,0,6.5,1,7.1,3.6c1.3,5.3,1.5,6.5,2,7.1h4c-0.5-0.6-0.7-1.6-2.3-7.7c-0.7-2.7-3.1-3.7-5.3-4c4,0,7-1.7,7-5.3
		c0-4.3-3.3-6.3-10.5-6.3L292.5,215.5z M296.4,225.6v-7.5h6c3.6,0,6.4,0.8,6.4,3.8s-2.8,3.8-6.4,3.8H296.4z M318,215.5v23.3h3.9
		v-23.3H318z"/>
</g>
</svg>
