<svg id="Livello_1" data-name="Livello 1" xmlns="http://www.w3.org/2000/svg" viewBox="0 0 469 471">
  <path d="M258.2,108.6l.8,3.2,1.9-2.7L321.7,24l-17,103.3-.5,3.3,2.8-1.8,88.7-55.3-55.2,88.9-1.7,2.8,3.3-.5,103.1-17.1-84.9,61-2.7,1.9,3.2.8L462.4,235,360.7,258.8l-3.2.8,2.7,1.9,84.9,61L342,305.4l-3.3-.5,1.7,2.8,55.2,88.9-88.7-55.3-2.8-1.8.5,3.3,17,103.3-60.8-85.1-1.9-2.7-.8,3.2-23.7,102-23.7-102-.8-3.2-1.9,2.7-60.8,85.1,17-103.3.5-3.3-2.8,1.8-88.7,55.3,55.2-88.9,1.7-2.8-3.3.5L23.9,322.4l84.9-61,2.7-1.9-3.2-.8L6.6,235l101.7-23.8,3.2-.8-2.7-1.9-84.9-61L127,164.7l3.3.5-1.7-2.8L73.4,73.5l88.7,55.3,2.8,1.8-.5-3.3L147.3,24l60.8,85.1,1.9,2.7.8-3.2,23.7-102Z" fill="none" stroke="#000" stroke-width="3"/>
</svg>
