<svg xmlns="http://www.w3.org/2000/svg" viewBox="0 0 2099.93 401.17"><defs><style>.cls-1{fill:none;stroke:#757882;opacity:0;}.cls-1,.cls-57{stroke-miterlimit:10;}.cls-2{fill:#757882;}.cls-3{fill:#692dff;}.cls-4{font-size:16px;font-family:NimbusSan-Reg, Nimbus Sans;}.cls-5{letter-spacing:-0.04em;}.cls-6{letter-spacing:0em;}.cls-7{letter-spacing:0em;}.cls-8{letter-spacing:0em;}.cls-9{letter-spacing:0.01em;}.cls-10{font-size:13px;font-family:NimbusSan-Bol, Nimbus Sans;}.cls-10,.cls-19{fill:#fff;}.cls-11{letter-spacing:0.01em;}.cls-12{letter-spacing:0em;}.cls-13{letter-spacing:0em;}.cls-14{letter-spacing:0em;}.cls-15{letter-spacing:0em;}.cls-16{letter-spacing:-0.01em;}.cls-17{letter-spacing:0.01em;}.cls-18{letter-spacing:0.03em;}.cls-19{stroke:#fff;}.cls-19,.cls-57{stroke-width:3px;}.cls-20{letter-spacing:-0.05em;}.cls-21{letter-spacing:0.04em;}.cls-22{letter-spacing:-0.05em;}.cls-23{letter-spacing:-0.01em;}.cls-24{letter-spacing:0.01em;}.cls-25{fill:#2bfdaf;}.cls-26{letter-spacing:0em;}.cls-27{letter-spacing:0em;}.cls-28{letter-spacing:0.01em;}.cls-29{letter-spacing:0.01em;}.cls-30{letter-spacing:0.02em;}.cls-31{letter-spacing:0em;}.cls-32{letter-spacing:-0.01em;}.cls-33{fill:#feb5e8;}.cls-34{letter-spacing:-0.01em;}.cls-35{letter-spacing:0.01em;}.cls-36{letter-spacing:0.05em;}.cls-37{letter-spacing:-0.03em;}.cls-38{letter-spacing:0em;}.cls-39{fill:#d8fd5c;}.cls-40{letter-spacing:0.02em;}.cls-41{letter-spacing:-0.05em;}.cls-42{fill:#80fefe;}.cls-43{letter-spacing:0.03em;}.cls-44{letter-spacing:0.01em;}.cls-45{fill:#4af42f;}.cls-46{letter-spacing:-0.03em;}.cls-47{letter-spacing:-0.01em;}.cls-48{letter-spacing:-0.01em;}.cls-49{fill:#fffd97;}.cls-50{letter-spacing:0em;}.cls-51{fill:#a582fb;}.cls-52{letter-spacing:0em;}.cls-53{letter-spacing:0.01em;}.cls-54{fill:#ff9f7f;}.cls-55{letter-spacing:0.02em;}.cls-56{letter-spacing:0.01em;}.cls-57{fill:#c3c1c9;stroke:#c3c1c9;}.cls-58{fill:#0b24fa;}.cls-59{letter-spacing:0.02em;}.cls-60{fill:#fc29f4;}.cls-61{fill:#fc0e1f;}.cls-62{letter-spacing:-0.03em;}.cls-63{letter-spacing:0em;}</style></defs><g id="background"><rect class="cls-1" x="117.14" y="12.71" width="1920" height="237.6"/><rect class="cls-2" width="2099.93" height="279.99"/><path class="cls-3" d="M653.07,362.17v23.29H560.15V362.17h92.92m3-3H557.15v29.29h98.92V359.17Z" transform="translate(117.14 12.71)"/><text class="cls-4" transform="translate(795.59 392.46)"><tspan class="cls-5">V</tspan><tspan class="cls-6" x="8.8" y="0">a</tspan><tspan class="cls-7" x="17.15" y="0">c</tspan><tspan x="25.65" y="0">cin</tspan><tspan class="cls-8" x="46.35" y="0">a</tspan><tspan class="cls-9" x="54.69" y="0">t</tspan><tspan x="59.18" y="0">ions</tspan></text><text class="cls-10" transform="translate(147.41 48.19)">Speci<tspan class="cls-11" x="33.62" y="0">f</tspan><tspan class="cls-12" x="37.79" y="0">ic </tspan><tspan class="cls-13" x="52.13" y="0">c</tspan><tspan x="59.14" y="0">on</tspan><tspan class="cls-14" x="74.14" y="0">s</tspan><tspan x="80.74" y="0">pi</tspan><tspan class="cls-15" x="91.82" y="0">r</tspan><tspan x="96.72" y="0">a</tspan><tspan class="cls-16" x="103.95" y="0">c</tspan><tspan x="110.84" y="0">y </tspan><tspan class="cls-17" x="121.17" y="0">t</tspan><tspan x="125.6" y="0">heo</tspan><tspan class="cls-18" x="147.91" y="0">r</tspan><tspan x="153.2" y="0">y</tspan></text></g><g id="all"><text class="cls-10" transform="translate(179.04 80.74) rotate(0.39)">ALL</text><rect class="cls-19" x="32.36" y="54.04" width="21.22" height="19.02" transform="translate(117.58 12.42) rotate(0.39)"/></g><g id="_9-11_attack" data-name="9-11 attack"><text class="cls-10" transform="translate(179.04 125.22) rotate(0.39)">9/11 <tspan class="cls-20" x="31.38" y="0">A</tspan><tspan class="cls-21" x="39" y="0">T</tspan><tspan class="cls-22" x="46.84" y="0">T</tspan><tspan class="cls-23" x="53.49" y="0">A</tspan><tspan class="cls-24" x="61.58" y="0">C</tspan><tspan x="70.64" y="0">K</tspan></text><rect class="cls-25" x="32.17" y="97.33" width="22.02" height="21.38" transform="translate(52.01 163.18) rotate(-89.61)"/><path class="cls-25" d="M34.06,98.45l18.38.12-.13,19-18.38-.12.13-19m-3-3,0,3-.13,19,0,3,3,0,18.38.12,3,0,0-3,.13-19,0-3-3,0-18.38-.12-3,0Z" transform="translate(117.14 12.71)"/></g><g id="corporations"><text class="cls-10" transform="translate(179.04 169.71) rotate(0.39)"><tspan class="cls-26">C</tspan><tspan class="cls-27" x="8.97" y="0">O</tspan><tspan class="cls-28" x="18.69" y="0">R</tspan><tspan class="cls-29" x="27.26" y="0">P</tspan><tspan class="cls-27" x="35.27" y="0">O</tspan><tspan class="cls-30" x="44.99" y="0">R</tspan><tspan class="cls-20" x="53.75" y="0">A</tspan><tspan class="cls-31" x="61.37" y="0">T</tspan><tspan x="68.79" y="0">ION </tspan><tspan class="cls-26" x="95.08" y="0">C</tspan><tspan x="104.05" y="0">ONS</tspan><tspan class="cls-8" x="130.89" y="0">P</tspan><tspan x="138.81" y="0">I</tspan><tspan class="cls-30" x="142.59" y="0">R</tspan><tspan class="cls-23" x="151.36" y="0">A</tspan><tspan class="cls-32" x="159.44" y="0">C</tspan><tspan x="168.28" y="0">Y</tspan></text><rect class="cls-33" x="32.17" y="141.82" width="22.02" height="21.38" transform="translate(7.53 207.36) rotate(-89.61)"/><path class="cls-33" d="M34.06,142.93l18.38.13-.13,19L33.93,162l.13-19m-3-3,0,3-.13,19,0,3,3,0,18.38.13,3,0,0-3,.13-19,0-3-3,0-18.38-.13-3,0Z" transform="translate(117.14 12.71)"/></g><g id="covid_19" data-name="covid 19"><text class="cls-10" transform="translate(426.57 80.74) rotate(0.39)"><tspan class="cls-26">C</tspan><tspan class="cls-34" x="8.97" y="0">O</tspan><tspan class="cls-35" x="18.51" y="0">V</tspan><tspan x="26.29" y="0">I</tspan><tspan class="cls-36" x="30.07" y="0">D</tspan><tspan class="cls-27" x="39.67" y="0">-19 </tspan><tspan class="cls-37" x="61.67" y="0">P</tspan><tspan x="69.18" y="0">AN</tspan><tspan class="cls-38" x="86.28" y="0">D</tspan><tspan class="cls-27" x="95.27" y="0">EMIC</tspan></text><rect class="cls-39" x="279.99" y="52.85" width="22.02" height="21.38" transform="translate(342.61 366.8) rotate(-89.61)"/><path class="cls-39" d="M281.87,54l18.38.13-.13,19L281.74,73l.13-19m-3-3,0,3-.13,19,0,3,3,0,18.38.13,3,0,0-3,.13-19,0-3-3,0L281.89,51l-3,0Z" transform="translate(117.14 12.71)"/></g><g id="death_and_disappearances" data-name="death and disappearances"><text class="cls-10" transform="translate(426.57 125.22) rotate(0.39)"><tspan class="cls-38">D</tspan><tspan class="cls-40" x="9" y="0">E</tspan><tspan class="cls-41" x="17.26" y="0">A</tspan><tspan class="cls-38" x="24.88" y="0">T</tspan><tspan x="32.3" y="0">HS AND DI</tspan><tspan class="cls-8" x="96.04" y="0">S</tspan><tspan x="104.27" y="0">A</tspan><tspan class="cls-8" x="112.49" y="0">PP</tspan><tspan class="cls-40" x="128.32" y="0">E</tspan><tspan x="136.59" y="0">A</tspan><tspan class="cls-30" x="144.8" y="0">R</tspan><tspan x="153.57" y="0">A</tspan><tspan class="cls-11" x="161.78" y="0">N</tspan><tspan x="170.75" y="0">C</tspan><tspan class="cls-31" x="179.71" y="0">E</tspan><tspan x="187.73" y="0">S</tspan></text><rect class="cls-42" x="279.99" y="97.33" width="22.02" height="21.38" transform="translate(298.13 410.98) rotate(-89.61)"/><path class="cls-42" d="M281.87,98.45l18.38.12-.13,19-18.38-.12.13-19m-3-3,0,3-.13,19,0,3,3,0,18.38.12,3,0,0-3,.13-19,0-3-3,0-18.38-.12-3,0Z" transform="translate(117.14 12.71)"/></g><g id="extraterrestrials"><text class="cls-10" transform="translate(426.57 169.71) rotate(0.39)"><tspan class="cls-40">E</tspan><tspan class="cls-43" x="8.27" y="0">X</tspan><tspan class="cls-31" x="16.57" y="0">T</tspan><tspan class="cls-30" x="24" y="0">R</tspan><tspan class="cls-41" x="32.76" y="0">A</tspan><tspan class="cls-38" x="40.38" y="0">T</tspan><tspan class="cls-27" x="47.8" y="0">E</tspan><tspan class="cls-28" x="55.77" y="0">RR</tspan><tspan class="cls-31" x="72.9" y="0">E</tspan><tspan class="cls-24" x="80.92" y="0">S</tspan><tspan class="cls-31" x="89.27" y="0">T</tspan><tspan class="cls-24" x="96.69" y="0">R</tspan><tspan class="cls-11" x="105.26" y="0">I</tspan><tspan x="109.13" y="0">A</tspan><tspan class="cls-44" x="117.35" y="0">L</tspan><tspan x="124.78" y="0">S</tspan></text><rect class="cls-45" x="279.99" y="141.82" width="22.02" height="21.38" transform="translate(253.65 455.16) rotate(-89.61)"/><path class="cls-45" d="M281.87,142.93l18.38.13-.13,19L281.74,162l.13-19m-3-3,0,3-.13,19,0,3,3,0,18.38.13,3,0,0-3,.13-19,0-3-3,0-18.38-.13-3,0Z" transform="translate(117.14 12.71)"/></g><g id="false_history" data-name="false history"><text class="cls-10" transform="translate(674.66 80.74) rotate(0.39)"><tspan class="cls-46">F</tspan><tspan x="7.19" y="0">A</tspan><tspan class="cls-44" x="15.4" y="0">L</tspan><tspan x="22.84" y="0">SE </tspan><tspan class="cls-24" x="42.95" y="0">H</tspan><tspan x="51.99" y="0">I</tspan><tspan class="cls-24" x="55.77" y="0">S</tspan><tspan class="cls-47" x="64.11" y="0">T</tspan><tspan class="cls-27" x="71.39" y="0">O</tspan><tspan class="cls-48" x="81.12" y="0">R</tspan><tspan x="89.5" y="0">Y</tspan></text><rect class="cls-49" x="528.08" y="52.85" width="22.02" height="21.38" transform="translate(589.01 614.89) rotate(-89.61)"/><path class="cls-49" d="M530,54l18.38.13-.13,19L529.83,73,530,54m-3-3,0,3-.13,19,0,3,3,0,18.38.13,3,0,0-3,.13-19,0-3-3,0L530,51l-3,0Z" transform="translate(117.14 12.71)"/></g><g id="false_people" data-name="false people"><text class="cls-10" transform="translate(674.66 125.22) rotate(0.39)"><tspan class="cls-46">F</tspan><tspan x="7.19" y="0">A</tspan><tspan class="cls-44" x="15.4" y="0">L</tspan><tspan x="22.84" y="0">SE </tspan><tspan class="cls-8" x="42.95" y="0">P</tspan><tspan class="cls-50" x="50.87" y="0">E</tspan><tspan class="cls-38" x="58.8" y="0">O</tspan><tspan class="cls-8" x="68.57" y="0">P</tspan><tspan class="cls-27" x="76.49" y="0">LE</tspan></text><rect class="cls-51" x="528.08" y="97.33" width="22.02" height="21.38" transform="translate(544.53 659.07) rotate(-89.61)"/><path class="cls-51" d="M530,98.45l18.38.12-.13,19-18.38-.12.13-19m-3-3,0,3-.13,19,0,3,3,0,18.38.12,3,0,0-3,.13-19,0-3-3,0L530,95.45l-3,0Z" transform="translate(117.14 12.71)"/></g><g id="future_predictions" data-name="future predictions"><text class="cls-10" transform="translate(674.66 169.71) rotate(0.39)">F<tspan class="cls-13" x="7.63" y="0">U</tspan><tspan class="cls-31" x="16.47" y="0">T</tspan><tspan x="23.89" y="0">U</tspan><tspan class="cls-28" x="32.69" y="0">R</tspan><tspan class="cls-27" x="41.26" y="0">E </tspan><tspan class="cls-52" x="53.13" y="0">P</tspan><tspan class="cls-24" x="61.05" y="0">R</tspan><tspan x="69.61" y="0">EDI</tspan><tspan class="cls-53" x="90.31" y="0">C</tspan><tspan class="cls-38" x="99.4" y="0">T</tspan><tspan class="cls-27" x="106.82" y="0">IONS</tspan></text><rect class="cls-54" x="528.08" y="141.82" width="22.02" height="21.38" transform="translate(500.05 703.25) rotate(-89.61)"/><path class="cls-54" d="M530,142.93l18.38.13-.13,19L529.83,162l.13-19m-3-3,0,3-.13,19,0,3,3,0,18.38.13,3,0,0-3,.13-19,0-3-3,0L530,139.93l-3,0Z" transform="translate(117.14 12.71)"/></g><g id="government_secrets" data-name="government secrets"><text class="cls-10" transform="translate(923.04 80.74) rotate(0.39)">G<tspan class="cls-34" x="9.31" y="0">O</tspan><tspan class="cls-35" x="18.85" y="0">V</tspan><tspan x="26.62" y="0">E</tspan><tspan class="cls-24" x="34.59" y="0">R</tspan><tspan x="43.16" y="0">NME</tspan><tspan class="cls-31" x="70.42" y="0">N</tspan><tspan x="79.35" y="0">T SEC</tspan><tspan class="cls-24" x="115.79" y="0">R</tspan><tspan class="cls-55" x="124.36" y="0">E</tspan><tspan class="cls-56" x="132.53" y="0">T</tspan><tspan x="140.02" y="0">S </tspan></text><rect class="cls-57" x="778.28" y="54.03" width="18.38" height="19.02" transform="translate(117.59 7.34) rotate(0.39)"/></g><g id="illuminati"><text class="cls-10" transform="translate(923.04 125.22) rotate(0.39)">IL<tspan class="cls-15" x="11.06" y="0">L</tspan><tspan x="18.3" y="0">UMI</tspan><tspan class="cls-11" x="41.3" y="0">N</tspan><tspan class="cls-41" x="50.27" y="0">A</tspan><tspan class="cls-31" x="57.89" y="0">T</tspan><tspan x="65.31" y="0">I</tspan></text><rect class="cls-58" x="776.46" y="97.33" width="22.02" height="21.38" transform="translate(791.21 907.44) rotate(-89.61)"/><path class="cls-58" d="M778.34,98.45l18.38.12-.13,19-18.38-.12.13-19m-3-3,0,3-.13,19,0,3,3,0,18.38.12,3,0,0-3,.13-19,0-3-3,0-18.38-.12-3,0Z" transform="translate(117.14 12.71)"/></g><g id="new_world_order" data-name="new world order"><text class="cls-10" transform="translate(923.04 169.71) rotate(0.39)">N<tspan class="cls-59" x="8.88" y="0">E</tspan><tspan class="cls-27" x="17.09" y="0">W </tspan><tspan class="cls-48" x="31.93" y="0">W</tspan><tspan class="cls-27" x="42.78" y="0">O</tspan><tspan class="cls-28" x="52.51" y="0">R</tspan><tspan class="cls-27" x="61.07" y="0">LD O</tspan><tspan class="cls-24" x="90.92" y="0">R</tspan><tspan class="cls-38" x="99.49" y="0">D</tspan><tspan class="cls-27" x="108.48" y="0">ER</tspan></text><rect class="cls-60" x="776.46" y="141.82" width="22.02" height="21.38" transform="translate(746.73 951.62) rotate(-89.61)"/><path class="cls-60" d="M778.34,142.93l18.38.13-.13,19L778.21,162l.13-19m-3-3,0,3-.13,19,0,3,3,0,18.38.13,3,0,0-3,.13-19,0-3-3,0-18.38-.13-3,0Z" transform="translate(117.14 12.71)"/></g><g id="space_agencies" data-name="space agencies"><text class="cls-10" transform="translate(1168.01 80.74) rotate(0.39)">S<tspan class="cls-37" x="8.24" y="0">P</tspan><tspan class="cls-23" x="15.76" y="0">A</tspan><tspan class="cls-12" x="23.84" y="0">CE </tspan><tspan class="cls-23" x="44.67" y="0">A</tspan><tspan x="52.75" y="0">GE</tspan><tspan class="cls-11" x="70.03" y="0">N</tspan><tspan x="79" y="0">CI</tspan><tspan class="cls-38" x="91.74" y="0">E</tspan><tspan class="cls-27" x="99.76" y="0">S</tspan></text><rect class="cls-61" x="1022.56" y="52.85" width="22.02" height="21.38" transform="translate(1080.12 1109.36) rotate(-89.61)"/><path class="cls-61" d="M1024.45,54l18.38.13-.13,19L1024.32,73l.13-19m-3-3,0,3-.13,19,0,3,3,0,18.38.13,3,0,0-3,.13-19,0-3-3,0L1024.47,51l-3,0Z" transform="translate(117.14 12.71)"/></g><g id="vaccinations"><text class="cls-10" transform="translate(1168.01 125.22) rotate(0.39)"><tspan class="cls-62">V</tspan><tspan class="cls-23" x="7.29" y="0">A</tspan><tspan class="cls-63" x="15.38" y="0">C</tspan><tspan x="24.36" y="0">CI</tspan><tspan class="cls-11" x="37.1" y="0">N</tspan><tspan class="cls-41" x="46.07" y="0">A</tspan><tspan class="cls-38" x="53.69" y="0">T</tspan><tspan class="cls-27" x="61.11" y="0">IONS</tspan></text><rect class="cls-3" x="1021.43" y="97.33" width="22.02" height="21.38" transform="translate(1034.51 1152.41) rotate(-89.61)"/><path class="cls-3" d="M1023.32,98.45l18.37.12-.13,19-18.37-.12.13-19m-3-3,0,3-.13,19,0,3,3,0,18.37.12,3,0,0-3,.13-19,0-3-3,0-18.37-.12-3,0Z" transform="translate(117.14 12.71)"/></g></svg>