<svg id="fisso" xmlns="http://www.w3.org/2000/svg" viewBox="0 0 3866.44427 4603.9836">
  <title>griglia1</title>
  <rect y="-0.0034" width="3866.44246" height="4603.98305" fill="#191819" opacity="0"/>
  <g>
    <line x1="-966.61107" y1="44.47864" x2="4833.05534" y2="44.47864" fill="none" stroke="#f2f2f2" stroke-miterlimit="10" stroke-width="0.75"/>
    <line x1="-966.61107" y1="156.97864" x2="4833.05534" y2="156.97864" fill="none" stroke="#f2f2f2" stroke-miterlimit="10" stroke-width="0.75"/>
    <line x1="-966.61107" y1="269.47864" x2="4833.05534" y2="269.47864" fill="none" stroke="#f2f2f2" stroke-miterlimit="10" stroke-width="0.75"/>
    <line x1="-966.61107" y1="381.97864" x2="4833.05534" y2="381.97864" fill="none" stroke="#f2f2f2" stroke-miterlimit="10" stroke-width="0.75"/>
    <line x1="-966.61107" y1="494.47864" x2="4833.05534" y2="494.47864" fill="none" stroke="#f2f2f2" stroke-miterlimit="10" stroke-width="0.75"/>
    <line x1="-966.61107" y1="606.97864" x2="4833.05534" y2="606.97864" fill="none" stroke="#f2f2f2" stroke-miterlimit="10" stroke-width="0.75"/>
    <line x1="-966.61107" y1="719.47864" x2="4833.05534" y2="719.47864" fill="none" stroke="#f2f2f2" stroke-miterlimit="10" stroke-width="0.75"/>
    <line x1="-966.61107" y1="831.97864" x2="4833.05534" y2="831.97864" fill="none" stroke="#f2f2f2" stroke-miterlimit="10" stroke-width="0.75"/>
    <line x1="-966.61107" y1="944.47864" x2="4833.05534" y2="944.47864" fill="none" stroke="#f2f2f2" stroke-miterlimit="10" stroke-width="0.75"/>
    <line x1="-966.61107" y1="1056.97864" x2="4833.05534" y2="1056.97864" fill="none" stroke="#f2f2f2" stroke-miterlimit="10" stroke-width="0.75"/>
    <line x1="-966.61107" y1="1169.47864" x2="4833.05534" y2="1169.47864" fill="none" stroke="#f2f2f2" stroke-miterlimit="10" stroke-width="0.75"/>
    <line x1="-966.61107" y1="1281.97864" x2="4833.05534" y2="1281.97864" fill="none" stroke="#f2f2f2" stroke-miterlimit="10" stroke-width="0.75"/>
    <line x1="-966.61107" y1="1394.47864" x2="4833.05534" y2="1394.47864" fill="none" stroke="#f2f2f2" stroke-miterlimit="10" stroke-width="0.75"/>
    <line x1="-966.61107" y1="1506.97864" x2="4833.05534" y2="1506.97864" fill="none" stroke="#f2f2f2" stroke-miterlimit="10" stroke-width="0.75"/>
    <line x1="-966.61107" y1="1619.47864" x2="4833.05534" y2="1619.47864" fill="none" stroke="#f2f2f2" stroke-miterlimit="10" stroke-width="0.75"/>
    <line x1="-966.61107" y1="1731.97864" x2="4833.05534" y2="1731.97864" fill="none" stroke="#f2f2f2" stroke-miterlimit="10" stroke-width="0.75"/>
    <line x1="-966.61107" y1="1844.47864" x2="4833.05534" y2="1844.47864" fill="none" stroke="#f2f2f2" stroke-miterlimit="10" stroke-width="0.75"/>
    <line x1="-966.61107" y1="1956.97864" x2="4833.05534" y2="1956.97864" fill="none" stroke="#f2f2f2" stroke-miterlimit="10" stroke-width="0.75"/>
    <line x1="-966.61107" y1="2069.47864" x2="4833.05534" y2="2069.47864" fill="none" stroke="#f2f2f2" stroke-miterlimit="10" stroke-width="0.75"/>
    <line x1="-966.61107" y1="2181.97864" x2="4833.05534" y2="2181.97864" fill="none" stroke="#f2f2f2" stroke-miterlimit="10" stroke-width="0.75"/>
    <line x1="-966.61107" y1="2294.47864" x2="4833.05534" y2="2294.47864" fill="none" stroke="#f2f2f2" stroke-miterlimit="10" stroke-width="0.75"/>
    <line x1="-966.61107" y1="2406.97864" x2="4833.05534" y2="2406.97864" fill="none" stroke="#f2f2f2" stroke-miterlimit="10" stroke-width="0.75"/>
    <line x1="-966.61107" y1="2519.47864" x2="4833.05534" y2="2519.47864" fill="none" stroke="#f2f2f2" stroke-miterlimit="10" stroke-width="0.75"/>
    <line x1="-966.61107" y1="2631.97864" x2="4833.05534" y2="2631.97864" fill="none" stroke="#f2f2f2" stroke-miterlimit="10" stroke-width="0.75"/>
    <line x1="-966.61107" y1="2744.47864" x2="4833.05534" y2="2744.47864" fill="none" stroke="#f2f2f2" stroke-miterlimit="10" stroke-width="0.75"/>
    <line x1="-966.61107" y1="2856.97864" x2="4833.05534" y2="2856.97864" fill="none" stroke="#f2f2f2" stroke-miterlimit="10" stroke-width="0.75"/>
    <line x1="-966.61107" y1="2969.47864" x2="4833.05534" y2="2969.47864" fill="none" stroke="#f2f2f2" stroke-miterlimit="10" stroke-width="0.75"/>
    <line x1="-966.61107" y1="3081.97864" x2="4833.05534" y2="3081.97864" fill="none" stroke="#f2f2f2" stroke-miterlimit="10" stroke-width="0.75"/>
    <line x1="-966.61107" y1="3194.47864" x2="4833.05534" y2="3194.47864" fill="none" stroke="#f2f2f2" stroke-miterlimit="10" stroke-width="0.75"/>
    <line x1="-966.61107" y1="3306.97864" x2="4833.05534" y2="3306.97864" fill="none" stroke="#f2f2f2" stroke-miterlimit="10" stroke-width="0.75"/>
    <line x1="-966.61107" y1="3419.47864" x2="4833.05534" y2="3419.47864" fill="none" stroke="#f2f2f2" stroke-miterlimit="10" stroke-width="0.75"/>
    <line x1="-966.61107" y1="3531.97864" x2="4833.05534" y2="3531.97864" fill="none" stroke="#f2f2f2" stroke-miterlimit="10" stroke-width="0.75"/>
    <line x1="-966.61107" y1="3644.47864" x2="4833.05534" y2="3644.47864" fill="none" stroke="#f2f2f2" stroke-miterlimit="10" stroke-width="0.75"/>
    <line x1="-966.61107" y1="3756.97864" x2="4833.05534" y2="3756.97864" fill="none" stroke="#f2f2f2" stroke-miterlimit="10" stroke-width="0.75"/>
    <line x1="-966.61107" y1="3869.47864" x2="4833.05534" y2="3869.47864" fill="none" stroke="#f2f2f2" stroke-miterlimit="10" stroke-width="0.75"/>
    <line x1="-966.61107" y1="3981.97864" x2="4833.05534" y2="3981.97864" fill="none" stroke="#f2f2f2" stroke-miterlimit="10" stroke-width="0.75"/>
    <line x1="-966.61107" y1="4094.47864" x2="4833.05534" y2="4094.47864" fill="none" stroke="#f2f2f2" stroke-miterlimit="10" stroke-width="0.75"/>
    <line x1="-966.61107" y1="4206.97864" x2="4833.05534" y2="4206.97864" fill="none" stroke="#f2f2f2" stroke-miterlimit="10" stroke-width="0.75"/>
    <line x1="-966.61107" y1="4319.47864" x2="4833.05534" y2="4319.47864" fill="none" stroke="#f2f2f2" stroke-miterlimit="10" stroke-width="0.75"/>
    <line x1="-966.61107" y1="4431.97864" x2="4833.05534" y2="4431.97864" fill="none" stroke="#f2f2f2" stroke-miterlimit="10" stroke-width="0.75"/>
    <line x1="-966.61107" y1="4544.47864" x2="4833.05534" y2="4544.47864" fill="none" stroke="#f2f2f2" stroke-miterlimit="10" stroke-width="0.75"/>
    <line x1="108.05263" y1="5754.97541" x2="108.05263" y2="-1150.99917" fill="none" stroke="#f2f2f2" stroke-miterlimit="10" stroke-width="0.75"/>
    <line x1="220.55263" y1="5754.97541" x2="220.55263" y2="-1150.99917" fill="none" stroke="#f2f2f2" stroke-miterlimit="10" stroke-width="0.75"/>
    <line x1="333.05263" y1="5754.97541" x2="333.05263" y2="-1150.99917" fill="none" stroke="#f2f2f2" stroke-miterlimit="10" stroke-width="0.75"/>
    <line x1="445.55263" y1="5754.97541" x2="445.55263" y2="-1150.99917" fill="none" stroke="#f2f2f2" stroke-miterlimit="10" stroke-width="0.75"/>
    <line x1="558.05263" y1="5754.97541" x2="558.05263" y2="-1150.99917" fill="none" stroke="#f2f2f2" stroke-miterlimit="10" stroke-width="0.75"/>
    <line x1="670.55263" y1="5754.97541" x2="670.55263" y2="-1150.99917" fill="none" stroke="#f2f2f2" stroke-miterlimit="10" stroke-width="0.75"/>
    <line x1="783.05263" y1="5754.97541" x2="783.05263" y2="-1150.99917" fill="none" stroke="#f2f2f2" stroke-miterlimit="10" stroke-width="0.75"/>
    <line x1="895.55263" y1="5754.97541" x2="895.55263" y2="-1150.99917" fill="none" stroke="#f2f2f2" stroke-miterlimit="10" stroke-width="0.75"/>
    <line x1="1008.05263" y1="5754.97541" x2="1008.05263" y2="-1150.99917" fill="none" stroke="#f2f2f2" stroke-miterlimit="10" stroke-width="0.75"/>
    <line x1="1120.55263" y1="5754.97541" x2="1120.55263" y2="-1150.99917" fill="none" stroke="#f2f2f2" stroke-miterlimit="10" stroke-width="0.75"/>
    <line x1="1233.05263" y1="5754.97541" x2="1233.05263" y2="-1150.99917" fill="none" stroke="#f2f2f2" stroke-miterlimit="10" stroke-width="0.75"/>
    <line x1="1345.55263" y1="5754.97541" x2="1345.55263" y2="-1150.99917" fill="none" stroke="#f2f2f2" stroke-miterlimit="10" stroke-width="0.75"/>
    <line x1="1458.05263" y1="5754.97541" x2="1458.05263" y2="-1150.99917" fill="none" stroke="#f2f2f2" stroke-miterlimit="10" stroke-width="0.75"/>
    <line x1="1570.55263" y1="5754.97541" x2="1570.55263" y2="-1150.99917" fill="none" stroke="#f2f2f2" stroke-miterlimit="10" stroke-width="0.75"/>
    <line x1="1683.05263" y1="5754.97541" x2="1683.05263" y2="-1150.99917" fill="none" stroke="#f2f2f2" stroke-miterlimit="10" stroke-width="0.75"/>
    <line x1="1795.55263" y1="5754.97541" x2="1795.55263" y2="-1150.99917" fill="none" stroke="#f2f2f2" stroke-miterlimit="10" stroke-width="0.75"/>
    <line x1="1908.05263" y1="5754.97541" x2="1908.05263" y2="-1150.99917" fill="none" stroke="#f2f2f2" stroke-miterlimit="10" stroke-width="0.75"/>
    <line x1="2020.55263" y1="5754.97541" x2="2020.55263" y2="-1150.99917" fill="none" stroke="#f2f2f2" stroke-miterlimit="10" stroke-width="0.75"/>
    <line x1="2133.05263" y1="5754.97541" x2="2133.05263" y2="-1150.99917" fill="none" stroke="#f2f2f2" stroke-miterlimit="10" stroke-width="0.75"/>
    <line x1="2245.55263" y1="5754.97541" x2="2245.55263" y2="-1150.99917" fill="none" stroke="#f2f2f2" stroke-miterlimit="10" stroke-width="0.75"/>
    <line x1="2358.05263" y1="5754.97541" x2="2358.05263" y2="-1150.99917" fill="none" stroke="#f2f2f2" stroke-miterlimit="10" stroke-width="0.75"/>
    <line x1="2470.55263" y1="5754.97541" x2="2470.55263" y2="-1150.99917" fill="none" stroke="#f2f2f2" stroke-miterlimit="10" stroke-width="0.75"/>
    <line x1="2583.05263" y1="5754.97541" x2="2583.05263" y2="-1150.99917" fill="none" stroke="#f2f2f2" stroke-miterlimit="10" stroke-width="0.75"/>
    <line x1="2695.55263" y1="5754.97541" x2="2695.55263" y2="-1150.99917" fill="none" stroke="#f2f2f2" stroke-miterlimit="10" stroke-width="0.75"/>
    <line x1="2808.05263" y1="5754.97541" x2="2808.05263" y2="-1150.99917" fill="none" stroke="#f2f2f2" stroke-miterlimit="10" stroke-width="0.75"/>
    <line x1="2920.55263" y1="5754.97541" x2="2920.55263" y2="-1150.99917" fill="none" stroke="#f2f2f2" stroke-miterlimit="10" stroke-width="0.75"/>
    <line x1="3033.05263" y1="5754.97541" x2="3033.05263" y2="-1150.99917" fill="none" stroke="#f2f2f2" stroke-miterlimit="10" stroke-width="0.75"/>
    <line x1="3145.55263" y1="5754.97541" x2="3145.55263" y2="-1150.99917" fill="none" stroke="#f2f2f2" stroke-miterlimit="10" stroke-width="0.75"/>
    <line x1="3258.05263" y1="5754.97541" x2="3258.05263" y2="-1150.99917" fill="none" stroke="#f2f2f2" stroke-miterlimit="10" stroke-width="0.75"/>
    <line x1="3370.55263" y1="5754.97541" x2="3370.55263" y2="-1150.99917" fill="none" stroke="#f2f2f2" stroke-miterlimit="10" stroke-width="0.75"/>
    <line x1="3483.05263" y1="5754.97541" x2="3483.05263" y2="-1150.99917" fill="none" stroke="#f2f2f2" stroke-miterlimit="10" stroke-width="0.75"/>
    <line x1="3595.55263" y1="5754.97541" x2="3595.55263" y2="-1150.99917" fill="none" stroke="#f2f2f2" stroke-miterlimit="10" stroke-width="0.75"/>
    <line x1="3708.05263" y1="5754.97541" x2="3708.05263" y2="-1150.99917" fill="none" stroke="#f2f2f2" stroke-miterlimit="10" stroke-width="0.75"/>
    <line x1="3820.55263" y1="5754.97541" x2="3820.55263" y2="-1150.99917" fill="none" stroke="#f2f2f2" stroke-miterlimit="10" stroke-width="0.75"/>
  </g>
</svg>
