<svg xmlns="http://www.w3.org/2000/svg" viewBox="0 0 259.99915 144.71958">
  <g id="Livello_2" data-name="Livello 2">
    <g id="Livello_1-2" data-name="Livello 1">
      <ellipse cx="129.99957" cy="72.35979" rx="135.50038" ry="61.40143" transform="translate(-16.23015 44.9245) rotate(-18.47482)" fill="#76fa5a"/>
      <ellipse cx="129.99957" cy="72.35979" rx="119.97429" ry="48.3252" transform="translate(-16.23015 44.9245) rotate(-18.47482)" fill="#76fa5a" stroke="#0023f5" stroke-miterlimit="10"/>
      <g>
        <path d="M75.21141,74.18806a3.85317,3.85317,0,0,1,2.541.72607,4.69861,4.69861,0,0,1,1.56347,2.35059l1.47461,4.4126-2.67871.895L76.689,78.315a2.9133,2.9133,0,0,0-1.65137-1.96826,4.67442,4.67442,0,0,0-3.07422.21143L61.18211,80.16023l2.42481,7.2583-2.68945.89892L55.47313,72.02253l12.94824-4.32617a20.48558,20.48558,0,0,1,2.23242-.62207,9.4845,9.4845,0,0,1,1.96289-.21094,4.695,4.695,0,0,1,1.69336.28028,3.42255,3.42255,0,0,1,1.30664.9165,4.48759,4.48759,0,0,1,.90723,1.62451A3.69987,3.69987,0,0,1,75.21141,74.18806Zm-4.0459.23974a5.37408,5.37408,0,0,0,2.44239-1.41552,2.07988,2.07988,0,0,0,.26757-2.12158,2.5166,2.5166,0,0,0-.52929-.93555,1.88833,1.88833,0,0,0-.76075-.50488,2.67718,2.67718,0,0,0-1.02734-.11426,7.07977,7.07977,0,0,0-1.23047.18262q-.62988.14794-1.47461.43066l-9.96972,3.331L60.46141,78.004Z" fill="#0023f5"/>
        <path d="M85.76805,77.56745l15.63867-5.22461.73535,2.20118L83.83543,80.66023,78.39207,64.3653l18.2168-6.08642.73145,2.18945L81.79051,65.66364l1.56348,4.6792,14.82715-4.9541.72851,2.17871-14.82812,4.9541Z" fill="#0023f5"/>
        <path d="M112.63622,52.9239a18.22993,18.22993,0,0,1,2.30664-.62207,9.13917,9.13917,0,0,1,2.05664-.16846,4.85954,4.85954,0,0,1,1.77929.36963,3.88917,3.88917,0,0,1,1.39942,1.064,5.46881,5.46881,0,0,1,1.00195,1.85205,5.29774,5.29774,0,0,1,.27734,2.5332,3.78866,3.78866,0,0,1-.98046,2.002,7.73,7.73,0,0,1-1.91895,1.48731,15.96454,15.96454,0,0,1-2.71289,1.16015l-10.72656,3.583,2.21386,6.625-2.68945.89844L99.19872,57.41364Zm2.46582,7.56543a12.08134,12.08134,0,0,0,1.72851-.707,4.55957,4.55957,0,0,0,1.16895-.84766,2.05162,2.05162,0,0,0,.57715-1.11914,3.01062,3.01062,0,0,0-.16407-1.43408,2.30574,2.30574,0,0,0-1.75293-1.75049,7.12641,7.12641,0,0,0-3.35449.479l-10.69238,3.57276,1.79687,5.3789Z" fill="#0023f5"/>
        <path d="M138.18016,62.81159a21.70262,21.70262,0,0,1-4.36816,1.01465,12.51408,12.51408,0,0,1-3.625-.04931,8.56843,8.56843,0,0,1-2.85743-1.02784,7.24463,7.24463,0,0,1-2.1289-1.87793,9.62468,9.62468,0,0,1-1.85645-5.55761,7.24342,7.24342,0,0,1,.57227-2.7793,8.58786,8.58786,0,0,1,1.666-2.53955,12.54637,12.54637,0,0,1,2.86622-2.21826,21.72977,21.72977,0,0,1,4.10156-1.81446,20.26389,20.26389,0,0,1,5.33008-1.0957,10.37763,10.37763,0,0,1,4.19531.53809,7.743,7.743,0,0,1,2.97461,1.95312,9.13579,9.13579,0,0,1,2.28125,6.82422,7.73566,7.73566,0,0,1-1.20508,3.34863,10.35729,10.35729,0,0,1-3.0293,2.95215A20.25537,20.25537,0,0,1,138.18016,62.81159Zm-.73144-2.18945A17.10061,17.10061,0,0,0,140.73,59.16706a9.47592,9.47592,0,0,0,2.20312-1.71191,6.00473,6.00473,0,0,0,1.19727-1.90723,5.37562,5.37562,0,0,0,.36914-2.01953,7.39194,7.39194,0,0,0-1.31836-3.94629A5.34543,5.34543,0,0,0,141.67137,48.19a5.98437,5.98437,0,0,0-2.10351-.8042,9.49445,9.49445,0,0,0-2.78907-.04492,17.0858,17.0858,0,0,0-3.49707.81055,16.07137,16.07137,0,0,0-3.92285,1.84765,7.37065,7.37065,0,0,0-2.27734,2.2627,5.67306,5.67306,0,0,0-.8125,2.45215,6.96809,6.96809,0,0,0,1.63086,4.8789,5.67127,5.67127,0,0,0,2.12207,1.47168,7.36413,7.36413,0,0,0,3.17969.43848A16.10967,16.10967,0,0,0,137.44872,60.62214Z" fill="#0023f5"/>
        <path d="M166.45262,43.7032a3.855,3.855,0,0,1,2.541.72656,4.69858,4.69858,0,0,1,1.56347,2.35058l1.47461,4.4126-2.67871.895-1.42187-4.25781a2.91,2.91,0,0,0-1.65235-1.96777,4.677,4.677,0,0,0-3.07422.21093l-10.78125,3.60254,2.42481,7.25781-2.68945.89893-5.44434-16.29443L159.66356,37.212a20.2545,20.2545,0,0,1,2.23144-.62207,9.476,9.476,0,0,1,1.96192-.21093,4.7004,4.7004,0,0,1,1.69433.28027,3.41529,3.41529,0,0,1,1.30665.9165,4.49793,4.49793,0,0,1,.90722,1.62452A3.70177,3.70177,0,0,1,166.45262,43.7032Zm-4.04687.24023a5.36721,5.36721,0,0,0,2.44336-1.41553,2.08207,2.08207,0,0,0,.26757-2.12158,2.49552,2.49552,0,0,0-.52929-.93555,1.88461,1.88461,0,0,0-.76172-.50537,2.68,2.68,0,0,0-1.02637-.11377,7.03417,7.03417,0,0,0-1.23047.18262q-.62988.14795-1.47461.43066L150.1245,42.796l1.57812,4.72363Z" fill="#0023f5"/>
        <path d="M178.78563,33.24421l-9.78027,3.26758-.72852-2.17774,22.25195-7.43457.72852,2.17823-9.77051,3.26416,4.71582,14.11621-2.70117.90234Z" fill="#0023f5"/>
        <path d="M61.269,115.77546a21.72108,21.72108,0,0,1-4.36817,1.01465,12.54026,12.54026,0,0,1-3.624-.04981,8.58724,8.58724,0,0,1-2.8584-1.02783,7.24622,7.24622,0,0,1-2.12793-1.87744,9.635,9.635,0,0,1-1.85742-5.55713,7.24119,7.24119,0,0,1,.57324-2.77978,8.59263,8.59263,0,0,1,1.665-2.54,12.58744,12.58744,0,0,1,2.86719-2.21778,21.70174,21.70174,0,0,1,4.10156-1.81494,20.28112,20.28112,0,0,1,5.33008-1.09521,10.37762,10.37762,0,0,1,4.19531.53808,7.74181,7.74181,0,0,1,2.97461,1.95264,9.14049,9.14049,0,0,1,2.28028,6.82471,7.74484,7.74484,0,0,1-1.20411,3.34912,10.37444,10.37444,0,0,1-3.02929,2.95166A20.24574,20.24574,0,0,1,61.269,115.77546Zm-.73145-2.18994a17.0534,17.0534,0,0,0,3.28223-1.45508A9.507,9.507,0,0,0,66.022,110.419a5.98745,5.98745,0,0,0,1.19726-1.90723,5.35935,5.35935,0,0,0,.37012-2.02051A7.41432,7.41432,0,0,0,66.271,102.546a5.34675,5.34675,0,0,0-1.50976-1.39258,6.004,6.004,0,0,0-2.10352-.80469,9.54684,9.54684,0,0,0-2.78906-.04443,17.10337,17.10337,0,0,0-3.49707.81055,16.08913,16.08913,0,0,0-3.92285,1.84814,7.379,7.379,0,0,0-2.27832,2.26221,5.68413,5.68413,0,0,0-.81153,2.45215,6.95824,6.95824,0,0,0,1.63086,4.87939,5.67694,5.67694,0,0,0,2.12207,1.47168,7.38879,7.38879,0,0,0,3.18067.43848A16.08753,16.08753,0,0,0,60.53758,113.58552Z" fill="#0023f5"/>
        <path d="M86.99852,88.75691l2.6123-.87305,5.44336,16.29492-2.80078.93555L73.35106,96.42976l4.50879,13.49365-2.61231.87256L69.80418,94.502l3.10059-1.03613,18.501,8.48438Z" fill="#0023f5"/>
        <path d="M118.897,86.85945a3.84685,3.84685,0,0,1,2.54.72656,4.7024,4.7024,0,0,1,1.56445,2.3501l1.47461,4.41259-2.67969.895L120.3745,90.9864a2.91,2.91,0,0,0-1.65235-1.96777,4.67725,4.67725,0,0,0-3.07422.21093l-10.78125,3.602,2.42579,7.2583-2.69043.89844L99.1577,84.69441l12.94922-4.32618a20.09876,20.09876,0,0,1,2.23242-.62207,9.50864,9.50864,0,0,1,1.96094-.21142,4.69637,4.69637,0,0,1,1.69433.28076,3.41171,3.41171,0,0,1,1.30762.916,4.51921,4.51921,0,0,1,.90625,1.62451A3.70311,3.70311,0,0,1,118.897,86.85945Zm-4.04688.23974a5.36852,5.36852,0,0,0,2.44239-1.41553,2.0788,2.0788,0,0,0,.26757-2.12109,2.50361,2.50361,0,0,0-.52832-.93555,1.88905,1.88905,0,0,0-.76269-.50586,2.69939,2.69939,0,0,0-1.02637-.11377,7.08478,7.08478,0,0,0-1.22949.18262q-.62988.14868-1.47559.43067l-9.96972,3.33105,1.57812,4.72363Z" fill="#0023f5"/>
        <path d="M129.45262,90.23933l15.63867-5.22461.73536,2.20019L127.521,93.33113l-5.44433-16.29395,18.21679-6.08691.73145,2.18945L125.47606,78.335l1.56348,4.67969,14.82714-4.9541.72754,2.17871-14.82715,4.95361Z" fill="#0023f5"/>
        <path d="M152.36473,66.91755q5.54591-1.85376,9.25977-.77734a8.00759,8.00759,0,0,1,4.0498,12.1206q-2.31885,3.09814-7.86621,4.95117l-9.48047,3.16749L142.88329,70.085Zm4.709,14.09375q4.333-1.448,6.05957-3.71777a5.807,5.807,0,0,0-2.96-8.8584q-2.74218-.77637-7.07714.67187l-6.791,2.26905,3.97754,11.90429Z" fill="#0023f5"/>
        <path d="M175.97215,59.02986q5.54591-1.853,9.25977-.77735a7.28163,7.28163,0,0,1,5.04394,5.05469,7.28489,7.28489,0,0,1-.99414,7.06592q-2.31885,3.09815-7.86523,4.95117l-9.48145,3.168-5.44336-16.29492Zm4.709,14.09375q4.33447-1.448,6.06054-3.71778a5.807,5.807,0,0,0-2.96-8.8584q-2.74365-.77563-7.07812.67188l-6.791,2.269,3.97754,11.9043Z" fill="#0023f5"/>
        <path d="M190.09911,54.30964l2.68945-.89844,5.44434,16.29444-2.69043.89892Z" fill="#0023f5"/>
        <path d="M205.62059,51.546l-9.78125,3.26758-.72754-2.17871,22.252-7.43457.72754,2.17871-9.76953,3.26465,4.71582,14.11523-2.70019.90283Z" fill="#0023f5"/>
      </g>
    </g>
  </g>
</svg>
