<svg xmlns="http://www.w3.org/2000/svg" viewBox="0 0 211.00428 112.56203">
  <title>Risorsa 2</title>
  <g id="Livello_2" data-name="Livello 2">
    <g id="Livello_1-2" data-name="Livello 1">
      <ellipse cx="118.77724" cy="56.28101" rx="110.12807" ry="46.5512" transform="translate(-24.98845 40.53962) rotate(-18.47482)" fill="#76fa5a"/>
      <ellipse cx="118.77724" cy="56.28101" rx="97.50923" ry="36.63752" transform="translate(-24.98845 40.53962) rotate(-18.47482)" fill="#76fa5a" stroke="#0023f5" stroke-miterlimit="10"/>
      <g>
        <path d="M88.19409,76.04837,72.61889,81.2515,70.13257,59.30033l15.28417-5.10547.373,3.35742L74.02026,61.48392l.65723,5.67187,10.01367-3.3457.37305,3.35742L75.05053,70.51322l.708,6.208,12.0332-4.0205Z" transform="translate(-13.2751)" fill="#0023f5"/>
        <path d="M93.39428,56.34525l1.94434,17.31543-3.5127,1.17382L89.34057,52.88333l4.68457-1.56543,10.68848,14.6543-1.99316-17.55957,3.51367-1.17285L108.7185,69.191l-4.68359,1.56445Z" transform="translate(-13.2751)" fill="#0023f5"/>
        <path d="M120.25268,46.03763,122.364,64.63236l-3.51367,1.17382L116.738,47.21243l-7.17285,2.39649-.40136-3.34863,17.85839-5.9668.40235,3.34863Z" transform="translate(-13.2751)" fill="#0023f5"/>
        <path d="M148.04174,56.05228l-15.57519,5.2041-2.48633-21.95117,15.28418-5.10645.37305,3.3584L133.86792,41.4888l.65722,5.6709L144.53882,43.815l.373,3.35645-10.01367,3.3457.708,6.209,12.0332-4.02051Z" transform="translate(-13.2751)" fill="#0023f5"/>
        <path d="M151.67358,54.83939l-2.48535-21.95117,7.96387-2.66114c3.71875-1.24218,6.70605.10352,7.71386,3.11817a5.87947,5.87947,0,0,1-2.24023,6.93261c1.81543-.60644,3.15234-.11035,3.61133,1.26661a7.19807,7.19807,0,0,1,.24609,1.12207l.76563,6.96875-3.5127,1.17382-.7373-6.49023a5.54656,5.54656,0,0,0-.15625-.66406c-.30274-.90723-.9668-1.044-2.22657-.623l-6.38281,2.13184.95313,8.502Zm2.167-12.99317,5.124-1.71191a3.80293,3.80293,0,0,0,2.62207-4.91211c-.60547-1.81543-2.2461-2.24414-4.32422-1.54883L153.10424,35.062Z" transform="translate(-13.2751)" fill="#0023f5"/>
      </g>
    </g>
  </g>
</svg>
