<svg xmlns="http://www.w3.org/2000/svg" viewBox="0 0 1669.92055 1429.8224">
  <g id="图层_76" data-name="图层 76">
    <rect width="1669.92055" height="1429.8224"/>
    <path d="M1403.344,855.744c28.65882,1.58468,69.27,46.94992,67.68543,75.60876" fill="none" stroke="#f90a7a" stroke-opacity="0.69804" stroke-width="2" opacity="0.8"/>
    <path d="M1403.344,855.744c-150.85571-3.976-265.72722-144.6006-261.7512-295.45624" fill="none" stroke="#0063f2" stroke-opacity="0.69804" stroke-width="2" opacity="0.9"/>
    <circle cx="1403.34396" cy="855.74403" r="38.18179" fill="#666"/>
    <circle cx="1141.59276" cy="560.28779" r="100" fill="#0063f2"/>
    <g>
      <circle cx="1471.02913" cy="931.35282" r="37.18173" fill="#f90a7a"/>
      <path d="M1471.02937,895.1708a36.18189,36.18189,0,1,1-36.18164,36.18213,36.22317,36.22317,0,0,1,36.18164-36.18213m0-2a38.18189,38.18189,0,1,0,38.18189,38.18213,38.18188,38.18188,0,0,0-38.18189-38.18213Z" fill="#e0a900"/>
    </g>
    <g>
      <path d="M1316.41388,848.70264a5.73889,5.73889,0,0,0-3.36719-.9873,6.02762,6.02762,0,0,0-2.84668.624,5.61741,5.61741,0,0,0-1.9502,1.67676,7.22339,7.22339,0,0,0-1.13086,2.40527,10.73048,10.73048,0,0,0-.36425,2.80762,12.00249,12.00249,0,0,0,.36425,3.00293,7.15246,7.15246,0,0,0,1.13086,2.46972,5.59324,5.59324,0,0,0,1.96289,1.67774,6.11288,6.11288,0,0,0,2.86036.624,5.51317,5.51317,0,0,0,2.17089-.40332,4.894,4.894,0,0,0,1.6377-1.11816,5.14221,5.14221,0,0,0,1.0791-1.70313,7.07935,7.07935,0,0,0,.46875-2.13183h2.46973a8.4358,8.4358,0,0,1-2.418,5.46,7.826,7.826,0,0,1-5.61621,1.95019,8.94335,8.94335,0,0,1-3.76953-.74121,7.40083,7.40083,0,0,1-2.67871-2.041,8.74146,8.74146,0,0,1-1.59864-3.06739,13.08891,13.08891,0,0,1-.5332-3.79687,12.37047,12.37047,0,0,1,.57226-3.8086,9.17614,9.17614,0,0,1,1.67676-3.10742,7.82175,7.82175,0,0,1,2.75586-2.09277,8.89157,8.89157,0,0,1,3.78321-.7666,9.55159,9.55159,0,0,1,2.75585.38965,7.41367,7.41367,0,0,1,2.31446,1.14453,6.44113,6.44113,0,0,1,1.68945,1.88476,6.8978,6.8978,0,0,1,.88379,2.61328h-2.46973A4.59679,4.59679,0,0,0,1316.41388,848.70264Z" fill="#fff"/>
      <path d="M1333.92462,864.92725a1.89922,1.89922,0,0,1-1.36524-.48145,2.08966,2.08966,0,0,1-.50683-1.57226,5.29423,5.29423,0,0,1-2.11914,1.57226,6.99009,6.99009,0,0,1-2.61328.48145,7.28342,7.28342,0,0,1-1.71582-.19531,3.87158,3.87158,0,0,1-1.417-.64942,3.18818,3.18818,0,0,1-.96191-1.16992,3.9037,3.9037,0,0,1-.35059-1.72949,3.95155,3.95155,0,0,1,.38965-1.87207,3.39286,3.39286,0,0,1,1.02735-1.18262,4.69592,4.69592,0,0,1,1.45605-.68945q.81885-.23437,1.67676-.38965.90966-.18164,1.72851-.27344a9.52652,9.52652,0,0,0,1.44336-.25976,2.40286,2.40286,0,0,0,.98828-.49414,1.20793,1.20793,0,0,0,.36329-.94922,2.21185,2.21185,0,0,0-.27247-1.16992,1.87577,1.87577,0,0,0-.70214-.67579,2.84267,2.84267,0,0,0-.96192-.31152,7.16134,7.16134,0,0,0-1.05273-.07812,4.68082,4.68082,0,0,0-2.33985.53222,2.26306,2.26306,0,0,0-1.01464,2.01563h-2.21a4.7765,4.7765,0,0,1,.52051-2.10645,3.93945,3.93945,0,0,1,1.24805-1.39062,5.2025,5.2025,0,0,1,1.79394-.7666,9.43385,9.43385,0,0,1,2.13184-.23438,12.541,12.541,0,0,1,1.80664.12988,4.72624,4.72624,0,0,1,1.625.53321,3.1157,3.1157,0,0,1,1.16992,1.13086,3.618,3.618,0,0,1,.44239,1.89843v6.915a5.18124,5.18124,0,0,0,.09082,1.14453c.06054.24317.26367.36426.61132.36426a2.17974,2.17974,0,0,0,.67579-.12988v1.71582A3.13516,3.13516,0,0,1,1333.92462,864.92725Zm-3.09375-6.77344q-.67676.14356-1.417.23438-.74122.09081-1.49512.208a5.52218,5.52218,0,0,0-1.35254.377,2.46554,2.46554,0,0,0-.97461.74121,2.06917,2.06917,0,0,0-.37695,1.3125,1.79357,1.79357,0,0,0,.2207.92285,1.838,1.838,0,0,0,.57227.61133,2.39161,2.39161,0,0,0,.832.33789,4.59592,4.59592,0,0,0,.97461.10449,5.23456,5.23456,0,0,0,1.87207-.29883,3.93492,3.93492,0,0,0,1.27441-.75488,2.95631,2.95631,0,0,0,.72754-.9873,2.49765,2.49765,0,0,0,.23437-1.001v-2.2627A2.74384,2.74384,0,0,1,1330.83087,858.15381Z" fill="#fff"/>
      <path d="M1339.56622,851.19873v2.834h.05176a5.98865,5.98865,0,0,1,1.97656-2.418,4.97309,4.97309,0,0,1,2.96387-.72754v2.33984a6.23893,6.23893,0,0,0-2.26172.36426,3.56744,3.56744,0,0,0-1.50781,1.06543,4.40491,4.40491,0,0,0-.832,1.70313,9.16988,9.16988,0,0,0-.26074,2.30078v5.98047h-2.21V851.19873Z" fill="#fff"/>
      <path d="M1355.27032,863.78272a6.0962,6.0962,0,0,1-3.7959,1.14453,6.90013,6.90013,0,0,1-2.79492-.52051,5.49444,5.49444,0,0,1-1.98926-1.45605,6.17985,6.17985,0,0,1-1.209-2.23535,10.80461,10.80461,0,0,1-.45508-2.834,8.10532,8.10532,0,0,1,.46777-2.80859,6.7252,6.7252,0,0,1,1.31348-2.21,5.971,5.971,0,0,1,2.00195-1.45606,6.128,6.128,0,0,1,2.53516-.51953,5.512,5.512,0,0,1,2.97656.74121,5.89374,5.89374,0,0,1,1.89844,1.88477,7.46734,7.46734,0,0,1,.98828,2.49609,10.74694,10.74694,0,0,1,.2207,2.57422H1347.366a5.34879,5.34879,0,0,0,.208,1.67676,3.80452,3.80452,0,0,0,.75391,1.40429,3.71742,3.71742,0,0,0,1.32617.97461,4.56941,4.56941,0,0,0,1.89844.36426,3.823,3.823,0,0,0,2.30078-.65039,3.14038,3.14038,0,0,0,1.18262-1.97559h2.18457A5.37109,5.37109,0,0,1,1355.27032,863.78272Zm-.5332-8.63184a3.78822,3.78822,0,0,0-.80567-1.209,3.82977,3.82977,0,0,0-1.19629-.80567,3.779,3.779,0,0,0-1.5205-.29882,3.84754,3.84754,0,0,0-1.54688.29882,3.56526,3.56526,0,0,0-1.18359.81934,3.9294,3.9294,0,0,0-.78028,1.209,4.61593,4.61593,0,0,0-.33789,1.46875h7.72266A4.53569,4.53569,0,0,0,1354.73712,855.15088Z" fill="#fff"/>
      <path d="M1369.23223,863.78272a6.09908,6.09908,0,0,1-3.79687,1.14453,6.90662,6.90662,0,0,1-2.79492-.52051,5.49908,5.49908,0,0,1-1.98828-1.45605,6.16528,6.16528,0,0,1-1.209-2.23535,10.72444,10.72444,0,0,1-.45508-2.834,8.08243,8.08243,0,0,1,.46778-2.80859,6.70627,6.70627,0,0,1,1.3125-2.21,5.97457,5.97457,0,0,1,2.00293-1.45606,6.12009,6.12009,0,0,1,2.53418-.51953,5.51554,5.51554,0,0,1,2.97754.74121,5.8907,5.8907,0,0,1,1.89746,1.88477,7.44678,7.44678,0,0,1,.98828,2.49609,10.697,10.697,0,0,1,.2207,2.57422h-10.06152a5.32,5.32,0,0,0,.208,1.67676,3.8045,3.8045,0,0,0,.7539,1.40429,3.7089,3.7089,0,0,0,1.32617.97461,4.5679,4.5679,0,0,0,1.89746.36426,3.82608,3.82608,0,0,0,2.30176-.65039,3.14452,3.14452,0,0,0,1.18262-1.97559h2.18359A5.37,5.37,0,0,1,1369.23223,863.78272Zm-.5332-8.63184a3.77459,3.77459,0,0,0-.80664-1.209,3.82543,3.82543,0,0,0-1.19531-.80567,3.78712,3.78712,0,0,0-1.52149-.29882,3.84749,3.84749,0,0,0-1.54687.29882,3.57109,3.57109,0,0,0-1.18262.81934,3.89384,3.89384,0,0,0-.78027,1.209,4.56388,4.56388,0,0,0-.33789,1.46875h7.72168A4.53459,4.53459,0,0,0,1368.699,855.15088Z" fill="#fff"/>
      <path d="M1375.6795,851.19873v2.834h.05176a5.98865,5.98865,0,0,1,1.97656-2.418,4.97309,4.97309,0,0,1,2.96387-.72754v2.33984a6.23893,6.23893,0,0,0-2.26172.36426,3.56757,3.56757,0,0,0-1.50781,1.06543,4.40476,4.40476,0,0,0-.832,1.70313,9.16939,9.16939,0,0,0-.26075,2.30078v5.98047h-2.21V851.19873Z" fill="#fff"/>
      <path d="M1392.50177,846.07666v18.56446h-2.47071V846.07666Z" fill="#fff"/>
      <path d="M1398.37774,851.19873v2.13282h.05176a4.65127,4.65127,0,0,1,4.36816-2.44434,5.82545,5.82545,0,0,1,2.21.36426,3.63925,3.63925,0,0,1,1.42968,1.01367,3.76781,3.76781,0,0,1,.7666,1.54688,8.3069,8.3069,0,0,1,.22168,1.98925v8.83985h-2.21v-9.09961a2.67163,2.67163,0,0,0-.72851-1.97657,2.70456,2.70456,0,0,0-2.002-.72753,4.50483,4.50483,0,0,0-1.75488.31152,3.29386,3.29386,0,0,0-1.23535.88379,3.806,3.806,0,0,0-.74023,1.33984,5.43075,5.43075,0,0,0-.24707,1.67676v7.5918h-2.21V851.19873Z" fill="#fff"/>
      <path d="M1416.49981,851.19873v1.9502h-2.67871v8.3457a2.37528,2.37528,0,0,0,.06543.624.63472.63472,0,0,0,.24707.36425,1.07961,1.07961,0,0,0,.50684.169,7.2805,7.2805,0,0,0,.84472.03906h1.01465v1.9502h-1.69043a7.918,7.918,0,0,1-1.46875-.11719,2.15888,2.15888,0,0,1-.98828-.42871,1.83524,1.83524,0,0,1-.55859-.88379,5.08841,5.08841,0,0,1-.18262-1.50879v-8.55371h-2.28808v-1.9502h2.28808v-4.02929h2.21v4.02929Z" fill="#fff"/>
      <path d="M1428.4588,863.78272a6.0962,6.0962,0,0,1-3.7959,1.14453,6.90007,6.90007,0,0,1-2.79492-.52051,5.49435,5.49435,0,0,1-1.98926-1.45605,6.18,6.18,0,0,1-1.209-2.23535,10.80461,10.80461,0,0,1-.45507-2.834,8.10532,8.10532,0,0,1,.46777-2.80859,6.7252,6.7252,0,0,1,1.31348-2.21,5.97086,5.97086,0,0,1,2.00195-1.45606,6.12791,6.12791,0,0,1,2.53516-.51953,5.512,5.512,0,0,1,2.97656.74121,5.89374,5.89374,0,0,1,1.89844,1.88477,7.46734,7.46734,0,0,1,.98828,2.49609,10.74694,10.74694,0,0,1,.2207,2.57422h-10.0625a5.34821,5.34821,0,0,0,.208,1.67676,3.8045,3.8045,0,0,0,.7539,1.40429,3.71746,3.71746,0,0,0,1.32618.97461,4.5694,4.5694,0,0,0,1.89843.36426,3.823,3.823,0,0,0,2.30079-.65039,3.14037,3.14037,0,0,0,1.18261-1.97559h2.18457A5.371,5.371,0,0,1,1428.4588,863.78272Zm-.53321-8.63184a3.788,3.788,0,0,0-.80566-1.209,3.82977,3.82977,0,0,0-1.19629-.80567,3.779,3.779,0,0,0-1.52051-.29882,3.84749,3.84749,0,0,0-1.54687.29882,3.5654,3.5654,0,0,0-1.1836.81934,3.92938,3.92938,0,0,0-.78027,1.209,4.61593,4.61593,0,0,0-.33789,1.46875h7.72266A4.53571,4.53571,0,0,0,1427.92559,855.15088Z" fill="#fff"/>
      <path d="M1434.90606,851.19873v2.834h.05176a5.98865,5.98865,0,0,1,1.97656-2.418,4.97311,4.97311,0,0,1,2.96387-.72754v2.33984a6.239,6.239,0,0,0-2.26172.36426,3.56757,3.56757,0,0,0-1.50781,1.06543,4.40476,4.40476,0,0,0-.832,1.70313,9.16941,9.16941,0,0,0-.26074,2.30078v5.98047h-2.21V851.19873Z" fill="#fff"/>
      <path d="M1444.11016,851.19873v2.13282h.05176a4.65324,4.65324,0,0,1,4.36817-2.44434,5.82192,5.82192,0,0,1,2.21.36426,3.64288,3.64288,0,0,1,1.43066,1.01367,3.77988,3.77988,0,0,1,.7666,1.54688,8.30931,8.30931,0,0,1,.22071,1.98925v8.83985h-2.21v-9.09961a2.675,2.675,0,0,0-.72754-1.97657,2.70609,2.70609,0,0,0-2.002-.72753,4.498,4.498,0,0,0-1.75488.31152,3.29386,3.29386,0,0,0-1.23535.88379,3.82349,3.82349,0,0,0-.74121,1.33984,5.43075,5.43075,0,0,0-.24707,1.67676v7.5918h-2.21V851.19873Z" fill="#fff"/>
      <path d="M1466.80841,864.92725a1.89922,1.89922,0,0,1-1.36524-.48145,2.08966,2.08966,0,0,1-.50683-1.57226,5.29429,5.29429,0,0,1-2.11914,1.57226,6.9901,6.9901,0,0,1-2.61329.48145,7.28354,7.28354,0,0,1-1.71582-.19531,3.87154,3.87154,0,0,1-1.417-.64942,3.18818,3.18818,0,0,1-.96191-1.16992,3.9037,3.9037,0,0,1-.35059-1.72949,3.95143,3.95143,0,0,1,.38965-1.87207,3.39294,3.39294,0,0,1,1.02734-1.18262,4.69608,4.69608,0,0,1,1.45606-.68945q.81885-.23437,1.67676-.38965.90966-.18164,1.72851-.27344a9.52652,9.52652,0,0,0,1.44336-.25976,2.40286,2.40286,0,0,0,.98828-.49414,1.20792,1.20792,0,0,0,.36328-.94922,2.21185,2.21185,0,0,0-.27246-1.16992,1.87572,1.87572,0,0,0-.70215-.67579,2.84255,2.84255,0,0,0-.96191-.31152,7.16134,7.16134,0,0,0-1.05273-.07812,4.68082,4.68082,0,0,0-2.33985.53222,2.26309,2.26309,0,0,0-1.01465,2.01563h-2.21a4.7765,4.7765,0,0,1,.52051-2.10645,3.93935,3.93935,0,0,1,1.248-1.39062,5.2025,5.2025,0,0,1,1.79394-.7666,9.43378,9.43378,0,0,1,2.13184-.23438,12.54107,12.54107,0,0,1,1.80664.12988,4.72624,4.72624,0,0,1,1.625.53321,3.1157,3.1157,0,0,1,1.16992,1.13086,3.618,3.618,0,0,1,.44238,1.89843v6.915a5.18186,5.18186,0,0,0,.09082,1.14453c.06055.24317.26368.36426.61133.36426a2.17964,2.17964,0,0,0,.67578-.12988v1.71582A3.13509,3.13509,0,0,1,1466.80841,864.92725Zm-3.09375-6.77344q-.67677.14356-1.417.23438-.74121.09081-1.49511.208a5.52218,5.52218,0,0,0-1.35254.377,2.46554,2.46554,0,0,0-.97461.74121,2.06917,2.06917,0,0,0-.377,1.3125,1.79357,1.79357,0,0,0,.2207.92285,1.838,1.838,0,0,0,.57226.61133,2.39174,2.39174,0,0,0,.832.33789,4.59592,4.59592,0,0,0,.97461.10449,5.2346,5.2346,0,0,0,1.87207-.29883,3.93492,3.93492,0,0,0,1.27441-.75488,2.95631,2.95631,0,0,0,.72754-.9873,2.49765,2.49765,0,0,0,.23437-1.001v-2.2627A2.74384,2.74384,0,0,1,1463.71466,858.15381Z" fill="#fff"/>
      <path d="M1476.19415,851.19873v1.9502h-2.67871v8.3457a2.37485,2.37485,0,0,0,.06543.624.63472.63472,0,0,0,.24707.36425,1.07957,1.07957,0,0,0,.50683.169,7.28081,7.28081,0,0,0,.84473.03906h1.01465v1.9502h-1.69043a7.918,7.918,0,0,1-1.46875-.11719,2.15879,2.15879,0,0,1-.98828-.42871,1.83526,1.83526,0,0,1-.5586-.88379,5.08845,5.08845,0,0,1-.18261-1.50879v-8.55371h-2.28809v-1.9502h2.28809v-4.02929h2.21v4.02929Z" fill="#fff"/>
      <path d="M1478.76739,848.78077v-2.70411h2.21v2.70411Zm2.21,2.418v13.44239h-2.21V851.19873Z" fill="#fff"/>
      <path d="M1484.09747,855.16455a6.24339,6.24339,0,0,1,1.24805-2.23632,5.86368,5.86368,0,0,1,2.05371-1.49512,7.528,7.528,0,0,1,5.6289,0,5.91381,5.91381,0,0,1,2.041,1.49512,6.273,6.273,0,0,1,1.248,2.23632,8.94571,8.94571,0,0,1,.416,2.76856,8.82436,8.82436,0,0,1-.416,2.75586,6.29255,6.29255,0,0,1-1.248,2.22363,5.77016,5.77016,0,0,1-2.041,1.48145,7.69447,7.69447,0,0,1-5.6289,0,5.72377,5.72377,0,0,1-2.05371-1.48145,6.26249,6.26249,0,0,1-1.24805-2.22363,8.82436,8.82436,0,0,1-.416-2.75586A8.94571,8.94571,0,0,1,1484.09747,855.16455Zm2.249,4.93946a4.53516,4.53516,0,0,0,.89649,1.58593,3.89614,3.89614,0,0,0,1.33886.97559,4.07647,4.07647,0,0,0,3.25,0,3.887,3.887,0,0,0,1.33887-.97559,4.53654,4.53654,0,0,0,.89746-1.58593,7.40861,7.40861,0,0,0,0-4.3418,4.66966,4.66966,0,0,0-.89746-1.59863,3.81221,3.81221,0,0,0-1.33887-.98828,4.07647,4.07647,0,0,0-3.25,0,3.821,3.821,0,0,0-1.33886.98828,4.66823,4.66823,0,0,0-.89649,1.59863,7.40883,7.40883,0,0,0,0,4.3418Z" fill="#fff"/>
      <path d="M1501.4129,851.19873v2.13282h.05176a4.65323,4.65323,0,0,1,4.36816-2.44434,5.82192,5.82192,0,0,1,2.21.36426,3.64284,3.64284,0,0,1,1.43067,1.01367,3.77988,3.77988,0,0,1,.7666,1.54688,8.30933,8.30933,0,0,1,.2207,1.98925v8.83985h-2.21v-9.09961a2.67494,2.67494,0,0,0-.72754-1.97657,2.70607,2.70607,0,0,0-2.00195-.72753,4.4981,4.4981,0,0,0-1.75489.31152,3.29386,3.29386,0,0,0-1.23535.88379,3.82349,3.82349,0,0,0-.74121,1.33984,5.43075,5.43075,0,0,0-.24707,1.67676v7.5918h-2.21V851.19873Z" fill="#fff"/>
      <path d="M1524.11016,864.92725a1.89836,1.89836,0,0,1-1.36425-.48145,2.08977,2.08977,0,0,1-.50782-1.57226,5.28466,5.28466,0,0,1-2.11816,1.57226,6.99734,6.99734,0,0,1-2.61328.48145,7.27755,7.27755,0,0,1-1.71582-.19531,3.86407,3.86407,0,0,1-1.417-.64942,3.1691,3.1691,0,0,1-.96192-1.16992,3.89006,3.89006,0,0,1-.35156-1.72949,3.93932,3.93932,0,0,1,.39062-1.87207,3.3904,3.3904,0,0,1,1.02637-1.18262,4.70664,4.70664,0,0,1,1.45606-.68945q.81885-.23437,1.67675-.38965.91115-.18164,1.7295-.27344a9.54933,9.54933,0,0,0,1.44336-.25976,2.39857,2.39857,0,0,0,.9873-.49414,1.20513,1.20513,0,0,0,.36426-.94922,2.20247,2.20247,0,0,0-.27344-1.16992,1.88036,1.88036,0,0,0-.70117-.67579,2.84965,2.84965,0,0,0-.96191-.31152,7.1746,7.1746,0,0,0-1.05372-.07812,4.68334,4.68334,0,0,0-2.33984.53222,2.26251,2.26251,0,0,0-1.01367,2.01563h-2.21a4.77659,4.77659,0,0,1,.51953-2.10645,3.95794,3.95794,0,0,1,1.248-1.39062,5.21856,5.21856,0,0,1,1.79394-.7666,9.44,9.44,0,0,1,2.13184-.23438,12.56445,12.56445,0,0,1,1.80761.12988,4.73309,4.73309,0,0,1,1.625.53321,3.12284,3.12284,0,0,1,1.16993,1.13086,3.62757,3.62757,0,0,1,.4414,1.89843v6.915a5.10828,5.10828,0,0,0,.0918,1.14453q.09083.36476.61035.36426a2.17964,2.17964,0,0,0,.67578-.12988v1.71582A3.13017,3.13017,0,0,1,1524.11016,864.92725Zm-3.09375-6.77344q-.67676.14356-1.417.23438-.74121.09081-1.49511.208a5.51422,5.51422,0,0,0-1.35157.377,2.46876,2.46876,0,0,0-.97558.74121,2.07507,2.07507,0,0,0-.377,1.3125,1.79367,1.79367,0,0,0,.22168.92285,1.83527,1.83527,0,0,0,.57129.61133,2.39951,2.39951,0,0,0,.832.33789,4.60511,4.60511,0,0,0,.97559.10449,5.242,5.242,0,0,0,1.87207-.29883,3.92965,3.92965,0,0,0,1.27344-.75488,2.97318,2.97318,0,0,0,.72851-.9873,2.51175,2.51175,0,0,0,.2334-1.001v-2.2627A2.73771,2.73771,0,0,1,1521.01641,858.15381Z" fill="#fff"/>
      <path d="M1530.09063,846.07666v18.56446h-2.21V846.07666Z" fill="#fff"/>
    </g>
    <g style="isolation: isolate">
      <path d="M1445.13751,914.89893l10.02344,26.72754,10.06738-26.72754h5.791v31.80566h-4.00976v-26.46h-.08887l-9.93359,26.46h-3.6084l-9.93359-26.46h-.08887v26.46h-4.00977V914.89893Z" fill="#fff"/>
      <path d="M1491.19806,946.70459h-4.23243V933.69776l-12.29492-18.79883h5.03418l9.53223,15.14551,9.31054-15.14551h4.81153l-12.16113,18.79883Z" fill="#fff"/>
    </g>
    <g style="isolation: isolate">
      <path d="M1117.48516,535.188a22.9435,22.9435,0,0,0-13.46093-3.94922,24.10762,24.10762,0,0,0-11.38184,2.49414,22.45271,22.45271,0,0,0-7.79687,6.70508,28.92638,28.92638,0,0,0-4.52149,9.61524,42.97148,42.97148,0,0,0-1.45508,11.22558,48.05337,48.05337,0,0,0,1.45508,12.00586,28.68286,28.68286,0,0,0,4.52149,9.875,22.32287,22.32287,0,0,0,7.84863,6.70508,24.42162,24.42162,0,0,0,11.43359,2.49414,22.01651,22.01651,0,0,0,8.67969-1.61035,19.64754,19.64754,0,0,0,6.54883-4.46973,20.579,20.579,0,0,0,4.31347-6.80859,28.29647,28.29647,0,0,0,1.8711-8.52442h9.875q-1.456,14.03321-9.667,21.82911-8.21192,7.79589-22.45215,7.79589a35.77637,35.77637,0,0,1-15.07227-2.96191,29.5875,29.5875,0,0,1-10.707-8.16016,35.01643,35.01643,0,0,1-6.39258-12.26562,52.32521,52.32521,0,0,1-2.13086-15.17676,49.48641,49.48641,0,0,1,2.28711-15.22754,36.66562,36.66562,0,0,1,6.7041-12.42187,31.25863,31.25863,0,0,1,11.01856-8.36817,35.53463,35.53463,0,0,1,15.124-3.0664,38.16883,38.16883,0,0,1,11.01856,1.55957,29.61945,29.61945,0,0,1,9.251,4.57324,25.73456,25.73456,0,0,1,6.75684,7.53613,27.64018,27.64018,0,0,1,3.53418,10.44727h-9.875Q1123.14922,539.14014,1117.48516,535.188Z" fill="#fff"/>
      <path d="M1158.075,524.68994l39.084,60.18555h.208V524.68994h9.35449v74.21778H1195.911l-38.77149-59.56153h-.208v59.56153H1147.576V524.68994Z" fill="#fff"/>
    </g>
    <path d="M504.801,1127.28958c17.18758-119.052,221.54692-271.84863,340.5989-254.661" fill="none" stroke="#f90a7a" stroke-opacity="0.69804" stroke-width="2" opacity="0.8"/>
    <path d="M504.801,1127.28958c5.52654,17.60785-12.59542,52.30939-30.20326,57.83594" fill="none" stroke="#0063f2" stroke-opacity="0.69804" stroke-width="2" opacity="0.9"/>
    <circle cx="504.80099" cy="1127.28958" r="20" fill="#666"/>
    <circle cx="845.39989" cy="872.62857" r="61.21211" fill="#f90a7a"/>
    <g>
      <circle cx="474.59777" cy="1185.12554" r="19" fill="#0063f2"/>
      <path d="M474.59777,1167.12559a18,18,0,1,1-18,18,18.0203,18.0203,0,0,1,18-18m0-2a20,20,0,1,0,20,20,19.9999,19.9999,0,0,0-20-20Z" fill="#1dc1ed"/>
    </g>
    <g style="isolation: isolate">
      <path d="M454.44122,1123.55127a9.19417,9.19417,0,0,1,1.67773-3.10742,8.18922,8.18922,0,0,1,2.78125-2.1582,9.71687,9.71687,0,0,1,7.74805,0,8.19285,8.19285,0,0,1,2.78223,2.1582,9.20894,9.20894,0,0,1,1.67675,3.10742,12.20231,12.20231,0,0,1,0,7.30567,9.20433,9.20433,0,0,1-1.67675,3.10644,8.02969,8.02969,0,0,1-2.78223,2.14551,9.85969,9.85969,0,0,1-7.74805,0,8.02613,8.02613,0,0,1-2.78125-2.14551,9.18957,9.18957,0,0,1-1.67773-3.10644,12.22294,12.22294,0,0,1,0-7.30567Zm2.27539,6.42188a7.52253,7.52253,0,0,0,1.14355,2.457,5.86358,5.86358,0,0,0,2.002,1.75488,6.72614,6.72614,0,0,0,5.82422,0,5.8546,5.8546,0,0,0,2.002-1.75488,7.52426,7.52426,0,0,0,1.14453-2.457,10.73495,10.73495,0,0,0,0-5.53809,7.51489,7.51489,0,0,0-1.14453-2.457,5.83426,5.83426,0,0,0-2.002-1.75488,6.72614,6.72614,0,0,0-5.82422,0,5.84318,5.84318,0,0,0-2.002,1.75488,7.51317,7.51317,0,0,0-1.14355,2.457,10.707,10.707,0,0,0,0,5.53809Z" fill="#fff"/>
      <path d="M477.15216,1117.92139v16.48438h9.82812v2.08007H474.68243v-18.56445Z" fill="#fff"/>
      <path d="M487.44806,1117.92139h2.96386l4.62891,7.25488,4.83594-7.25488h2.75586l-6.13575,9.02246,6.52539,9.542h-3.01562l-4.99219-7.66992-5.14844,7.66992h-2.75586l6.44825-9.542Z" fill="#fff"/>
      <path d="M514.826,1117.92139v18.56445h-2.46972v-18.56445Z" fill="#fff"/>
      <path d="M520.702,1123.04346v2.13281h.05176a4.65324,4.65324,0,0,1,4.36816-2.44433,5.8221,5.8221,0,0,1,2.21.36425,3.64286,3.64286,0,0,1,1.43067,1.01368,3.7799,3.7799,0,0,1,.7666,1.54687,8.30941,8.30941,0,0,1,.2207,1.98926v8.83984h-2.21v-9.09961a2.6749,2.6749,0,0,0-.72754-1.97656,2.70607,2.70607,0,0,0-2.002-.72754,4.498,4.498,0,0,0-1.75488.31153,3.29383,3.29383,0,0,0-1.23535.88378,3.82349,3.82349,0,0,0-.74122,1.33985,5.43105,5.43105,0,0,0-.24707,1.67676v7.59179h-2.21v-13.44238Z" fill="#fff"/>
      <path d="M542.8797,1136.48584v-1.82031h-.05176a3.24892,3.24892,0,0,1-1.71582,1.61231,6.55615,6.55615,0,0,1-2.57422.49414,6.06879,6.06879,0,0,1-2.7168-.57227,5.576,5.576,0,0,1-1.92383-1.53418,6.6607,6.6607,0,0,1-1.15722-2.23535,9.19923,9.19923,0,0,1-.38965-2.7041,9.46425,9.46425,0,0,1,.37695-2.7041,6.35033,6.35033,0,0,1,1.14356-2.22266,5.53083,5.53083,0,0,1,1.92382-1.50879,6.12648,6.12648,0,0,1,2.69141-.55859,6.65177,6.65177,0,0,1,1.11817.10351,5.73535,5.73535,0,0,1,1.19628.35157,5.11916,5.11916,0,0,1,1.13086.64941,3.594,3.594,0,0,1,.89649,1.001h.05176v-6.916h2.21v18.56445Zm-7.94239-4.77148a4.93164,4.93164,0,0,0,.75391,1.59961,3.69051,3.69051,0,0,0,1.2998,1.11816,3.947,3.947,0,0,0,1.85938.416,3.65022,3.65022,0,0,0,3.17187-1.59961,4.837,4.837,0,0,0,.71485-1.625,7.88522,7.88522,0,0,0-.0127-3.75684,4.73531,4.73531,0,0,0-.74121-1.625,3.79109,3.79109,0,0,0-1.31348-1.13086,4.09931,4.09931,0,0,0-1.94921-.42871,3.80377,3.80377,0,0,0-1.89844.44141,3.53832,3.53832,0,0,0-1.24805,1.16992,5.10938,5.10938,0,0,0-.67578,1.66406,8.84665,8.84665,0,0,0-.208,1.92481A6.85439,6.85439,0,0,0,534.93731,1131.71436Z" fill="#fff"/>
      <path d="M548.62579,1120.62549v-2.7041h2.21v2.7041Zm2.21,2.418v13.44238h-2.21v-13.44238Z" fill="#fff"/>
      <path d="M564.58868,1136.772a1.89837,1.89837,0,0,1-1.36426-.48145,2.08979,2.08979,0,0,1-.50781-1.57226,5.28482,5.28482,0,0,1-2.11816,1.57226,6.99739,6.99739,0,0,1-2.61329.48145,7.277,7.277,0,0,1-1.71582-.19532,3.86421,3.86421,0,0,1-1.417-.64941,3.16917,3.16917,0,0,1-.96191-1.16992,3.88992,3.88992,0,0,1-.35156-1.72949,3.93932,3.93932,0,0,1,.39062-1.87207,3.39012,3.39012,0,0,1,1.02637-1.18262,4.7065,4.7065,0,0,1,1.45605-.68946q.81885-.23437,1.67676-.38964.91113-.18165,1.72949-.27344a9.55027,9.55027,0,0,0,1.44336-.25977,2.39837,2.39837,0,0,0,.98731-.49414,1.2051,1.2051,0,0,0,.36425-.94922,2.20258,2.20258,0,0,0-.27343-1.16992,1.88043,1.88043,0,0,0-.70118-.67578,2.84965,2.84965,0,0,0-.96191-.31152,7.17312,7.17312,0,0,0-1.05371-.07813,4.68331,4.68331,0,0,0-2.33984.53223,2.26248,2.26248,0,0,0-1.01368,2.01562h-2.21a4.7765,4.7765,0,0,1,.51953-2.10644,3.95807,3.95807,0,0,1,1.24805-1.39063,5.21889,5.21889,0,0,1,1.79395-.7666,9.44,9.44,0,0,1,2.13183-.23437,12.56449,12.56449,0,0,1,1.80762.12988,4.73308,4.73308,0,0,1,1.625.5332,3.123,3.123,0,0,1,1.16992,1.13086,3.62751,3.62751,0,0,1,.44141,1.89844v6.915a5.10848,5.10848,0,0,0,.09179,1.14453q.09083.36474.61036.36426a2.17969,2.17969,0,0,0,.67578-.12988v1.71582A3.13027,3.13027,0,0,1,564.58868,1136.772Zm-3.09375-6.77344q-.67675.14355-1.417.23437-.74121.09083-1.49512.208a5.51414,5.51414,0,0,0-1.35156.377,2.46872,2.46872,0,0,0-.97559.74122,2.07513,2.07513,0,0,0-.37695,1.3125,1.7937,1.7937,0,0,0,.22168.92285,1.83517,1.83517,0,0,0,.57129.61133,2.39943,2.39943,0,0,0,.832.33789,4.60576,4.60576,0,0,0,.97559.10449,5.242,5.242,0,0,0,1.87207-.29883,3.9296,3.9296,0,0,0,1.27343-.75488,2.97325,2.97325,0,0,0,.72852-.98731,2.51187,2.51187,0,0,0,.2334-1.001v-2.2627A2.738,2.738,0,0,1,561.49493,1129.99854Z" fill="#fff"/>
    </g>
    <g style="isolation: isolate">
      <path d="M823.01641,846.5669v53.81445h-7.16015V846.5669Z" fill="#fff"/>
      <path d="M842.61114,846.5669,870.95,890.20655h.15137V846.5669h6.7832v53.81445h-7.83887l-28.11328-43.1875H841.782v43.1875h-6.7832V846.5669Z" fill="#fff"/>
    </g>
    <g style="isolation: isolate">
      <path d="M462.29473,1175.88526l9.69825,14.93457h.05175v-14.93457H474.366v18.417h-2.68261l-9.6211-14.78027h-.05175v14.78027h-2.32129v-18.417Z" fill="#fff"/>
      <path d="M480.7879,1175.88526v16.35351h9.751v2.06348H478.3377v-18.417Z" fill="#fff"/>
    </g>
    <path d="M623.57187,343.96363c-13.11836,20.86865-64.09894,32.49426-84.96765,19.37585" fill="none" stroke="#f90a7a" stroke-opacity="0.69804" stroke-width="2" opacity="0.8"/>
    <path d="M452.8949,408.84839c8.0401-26.24365,59.46567-53.54895,85.70932-45.50891" fill="none" stroke="#f90a7a" stroke-opacity="0.69804" stroke-width="2" opacity="0.8"/>
    <path d="M452.8949,408.84839c-56.32465-27.94165-180.234-118.96338-152.29231-175.28808" fill="none" stroke="#0063f2" stroke-opacity="0.69804" stroke-width="2" opacity="0.9"/>
    <path d="M623.57187,343.96363c29.77942-28.34729,148.37933-45.77922,176.72657-15.9998" fill="none" stroke="#0063f2" stroke-opacity="0.69804" stroke-width="2" opacity="0.9"/>
    <circle cx="452.8949" cy="408.84839" r="23.63635" fill="#666"/>
    <circle cx="623.57187" cy="343.96363" r="20" fill="#666"/>
    <circle cx="300.60259" cy="233.56031" r="27.27272" fill="#0063f2"/>
    <g>
      <path d="M538.604,385.97582a22.63636,22.63636,0,1,1,22.63671-22.63623A22.66157,22.66157,0,0,1,538.604,385.97582Z" fill="#f90a7a"/>
      <path d="M538.60426,341.70316a21.63623,21.63623,0,1,1-21.63647,21.63623,21.66083,21.66083,0,0,1,21.63647-21.63623m0-2a23.63623,23.63623,0,1,0,23.63623,23.63623,23.63656,23.63656,0,0,0-23.63623-23.63623Z" fill="#e0a900"/>
    </g>
    <circle cx="800.29844" cy="327.96383" r="23.63636" fill="#0063f2"/>
    <g>
      <path d="M602.22149,335.98389q.59766,0,1.28711.01367.68849.01318,1.36524.07813a10.4947,10.4947,0,0,1,1.26074.19433,3.17471,3.17471,0,0,1,1.001.39063,4.8288,4.8288,0,0,1,1.54687,1.50781,4.19118,4.19118,0,0,1,.63672,2.36621,4.52854,4.52854,0,0,1-.71484,2.56055,4.21379,4.21379,0,0,1-2.041,1.59961v.05176a4.27434,4.27434,0,0,1,2.626,1.55957,4.67211,4.67211,0,0,1,.91015,2.91211,5.53424,5.53424,0,0,1-.36426,1.97656,4.94132,4.94132,0,0,1-1.0791,1.70215,5.37827,5.37827,0,0,1-1.76758,1.19629,6.07664,6.07664,0,0,1-2.43066.45507h-8.9707V335.98389Zm.67578,7.98242a4.86975,4.86975,0,0,0,3.0293-.74121,2.67933,2.67933,0,0,0,.92285-2.22266,3.28163,3.28163,0,0,0-.31152-1.56054,2.21955,2.21955,0,0,0-.8584-.88379,3.37161,3.37161,0,0,0-1.26074-.40234,12.09848,12.09848,0,0,0-1.52149-.0918h-4.93945v5.90234Zm1.248,8.502a3.55587,3.55587,0,0,0,2.56152-.88379,3.22416,3.22416,0,0,0,.92286-2.44434,3.04327,3.04327,0,0,0-.33789-1.50781,2.62806,2.62806,0,0,0-.89747-.94922,3.78171,3.78171,0,0,0-1.28711-.49414,7.84954,7.84954,0,0,0-1.50781-.14258h-5.6416v6.42188Z" fill="#fff"/>
      <path d="M615.87188,335.98389v18.56445h-2.4707V335.98389Z" fill="#fff"/>
      <path d="M631.21075,354.32764a8.796,8.796,0,0,1-3.25.63672,8.67417,8.67417,0,0,1-3.71777-.7666,8.40508,8.40508,0,0,1-2.78223-2.06739,9.05117,9.05117,0,0,1-1.74219-2.99023,10.44412,10.44412,0,0,1-.59765-3.50977,13.19121,13.19121,0,0,1,.55859-3.86132,9.52246,9.52246,0,0,1,1.66406-3.21094,8.09125,8.09125,0,0,1,2.75684-2.19629,8.5726,8.5726,0,0,1,3.86035-.81934,11.22943,11.22943,0,0,1,2.84766.35059,7.20763,7.20763,0,0,1,2.3916,1.10547,6.55626,6.55626,0,0,1,1.76758,1.91113,7.51781,7.51781,0,0,1,.97558,2.79492h-2.46972a4.86878,4.86878,0,0,0-.67676-1.833,4.35326,4.35326,0,0,0-1.22168-1.26172,5.44093,5.44093,0,0,0-1.65137-.74024,7.54849,7.54849,0,0,0-1.96289-.24707,5.64792,5.64792,0,0,0-4.875,2.457,7.748,7.748,0,0,0-1.13086,2.52149,11.58787,11.58787,0,0,0-.36426,2.89941,9.36469,9.36469,0,0,0,.416,2.79492,7.28709,7.28709,0,0,0,1.22266,2.36621,5.98936,5.98936,0,0,0,1.98828,1.6377,5.89894,5.89894,0,0,0,2.74316.61133,6.61117,6.61117,0,0,0,2.57422-.46875,5.29731,5.29731,0,0,0,3.042-3.21094,6.324,6.324,0,0,0,.33789-2.37891h-5.92773V344.772h8.13769v9.77636h-1.55957l-.65039-2.31445A6.162,6.162,0,0,1,631.21075,354.32764Z" fill="#fff"/>
      <path d="M639.284,341.61377a9.1919,9.1919,0,0,1,1.67676-3.10742,8.19285,8.19285,0,0,1,2.78223-2.1582,9.71684,9.71684,0,0,1,7.748,0,8.20222,8.20222,0,0,1,2.78223,2.1582,9.209,9.209,0,0,1,1.67676,3.10742,12.22294,12.22294,0,0,1,0,7.30567,9.20435,9.20435,0,0,1-1.67676,3.10644,8.03868,8.03868,0,0,1-2.78223,2.14551,9.85966,9.85966,0,0,1-7.748,0,8.02969,8.02969,0,0,1-2.78223-2.14551,9.1873,9.1873,0,0,1-1.67676-3.10644,12.20251,12.20251,0,0,1,0-7.30567Zm2.27442,6.42188a7.52426,7.52426,0,0,0,1.14453,2.457,5.84558,5.84558,0,0,0,2.00195,1.75488,6.72614,6.72614,0,0,0,5.82422,0,5.86355,5.86355,0,0,0,2.002-1.75488,7.54262,7.54262,0,0,0,1.14356-2.457,10.707,10.707,0,0,0,0-5.53809,7.5332,7.5332,0,0,0-1.14356-2.457,5.84315,5.84315,0,0,0-2.002-1.75488,6.72614,6.72614,0,0,0-5.82422,0,5.82531,5.82531,0,0,0-2.00195,1.75488,7.51489,7.51489,0,0,0-1.14453,2.457,10.73495,10.73495,0,0,0,0,5.53809Z" fill="#fff"/>
    </g>
    <g style="isolation: isolate">
      <path d="M791.62774,319.29688a6.30982,6.30982,0,0,0-3.80176-1.07959,9.1004,9.1004,0,0,0-1.84667.188,4.89778,4.89778,0,0,0-1.61133.626,3.2881,3.2881,0,0,0-1.127,1.17334,3.63281,3.63281,0,0,0-.42187,1.83057,2.32771,2.32771,0,0,0,.61035,1.67432,4.509,4.509,0,0,0,1.627,1.04834,13.63732,13.63732,0,0,0,2.29981.67236q1.2832.26659,2.61328.5791,1.32861.31349,2.6123.73535a8.62417,8.62417,0,0,1,2.29981,1.14209,5.45368,5.45368,0,0,1,1.62793,1.81494,6.35941,6.35941,0,0,1-.18848,5.80469,6.55685,6.55685,0,0,1-2.04883,2.06543,8.90789,8.90789,0,0,1-2.80078,1.15772,13.60072,13.60072,0,0,1-3.083.35986,13.09041,13.09041,0,0,1-3.55078-.46924,8.76618,8.76618,0,0,1-2.94238-1.42383,6.73719,6.73719,0,0,1-2.00195-2.44092,7.84027,7.84027,0,0,1-.73535-3.52h2.8164a5.04322,5.04322,0,0,0,.54688,2.4248,4.97652,4.97652,0,0,0,1.43945,1.67432,6.07389,6.07389,0,0,0,2.08106.97021,9.5587,9.5587,0,0,0,2.4414.313,11.10782,11.10782,0,0,0,2.01758-.188,5.94629,5.94629,0,0,0,1.83105-.6416,3.43129,3.43129,0,0,0,1.81446-3.23877,2.80692,2.80692,0,0,0-.60938-1.87744,4.49938,4.49938,0,0,0-1.62793-1.17334,11.90056,11.90056,0,0,0-2.2998-.73535q-1.2832-.282-2.61231-.5791-1.33154-.29664-2.61328-.68848a9.44418,9.44418,0,0,1-2.2998-1.03272,4.62255,4.62255,0,0,1-2.23731-4.20849,5.9115,5.9115,0,0,1,.68848-2.92627,6.00423,6.00423,0,0,1,1.83008-2.03369,8.22015,8.22015,0,0,1,2.59765-1.18946,11.479,11.479,0,0,1,2.98828-.39111,11.96809,11.96809,0,0,1,3.19141.40674,7.24283,7.24283,0,0,1,2.582,1.2832,6.19842,6.19842,0,0,1,1.752,2.20606,7.88381,7.88381,0,0,1,.7041,3.17627h-2.81641A4.65821,4.65821,0,0,0,791.62774,319.29688Z" fill="#fff"/>
      <path d="M814.17364,338.32276a10.56824,10.56824,0,0,1-3.91113.7666,10.43533,10.43533,0,0,1-4.47559-.92285,10.11175,10.11175,0,0,1-3.34765-2.4878,10.8735,10.8735,0,0,1-2.09668-3.59863,12.555,12.555,0,0,1-.71973-4.22461,15.82185,15.82185,0,0,1,.67285-4.647,11.42343,11.42343,0,0,1,2.00293-3.86475,9.71891,9.71891,0,0,1,3.31641-2.644,10.33846,10.33846,0,0,1,4.64746-.98584,13.46115,13.46115,0,0,1,3.42578.42285,8.67251,8.67251,0,0,1,2.87891,1.32959,7.886,7.886,0,0,1,2.12793,2.3003,9.02735,9.02735,0,0,1,1.17382,3.36376H816.8963a5.87214,5.87214,0,0,0-.81348-2.20605,5.24263,5.24263,0,0,0-1.4707-1.51758,6.53735,6.53735,0,0,0-1.98731-.89209,9.12893,9.12893,0,0,0-2.3623-.29736,6.79734,6.79734,0,0,0-5.86719,2.95752A9.3348,9.3348,0,0,0,803.034,324.21a13.92649,13.92649,0,0,0-.43847,3.48926,11.26366,11.26366,0,0,0,.501,3.36377,8.7491,8.7491,0,0,0,1.47071,2.84766,7.19615,7.19615,0,0,0,2.39355,1.97119,7.09137,7.09137,0,0,0,3.30176.73584,7.969,7.969,0,0,0,3.09765-.56348,6.38,6.38,0,0,0,3.66114-3.86474,7.59827,7.59827,0,0,0,.40722-2.86328h-7.13476v-2.50342h9.79394v11.76611h-1.877l-.78223-2.78516A7.42862,7.42862,0,0,1,814.17364,338.32276Z" fill="#fff"/>
    </g>
    <g style="isolation: isolate">
      <path d="M527.532,350.05469v27.42822h-3.64941V350.05469Z" fill="#fff"/>
      <path d="M543.08966,350.05469q6.33837,0,9.75683,3.22705,3.419,3.22632,3.41895,9.834a22.218,22.218,0,0,1-.76758,6.127,11.4549,11.4549,0,0,1-2.38184,4.49463,10.32073,10.32073,0,0,1-4.11035,2.78515,16.458,16.458,0,0,1-5.916.96045h-9.41211V350.05469Zm.30761,24.355a15.18228,15.18228,0,0,0,1.53614-.09619,8.57386,8.57386,0,0,0,1.959-.46094,8.95413,8.95413,0,0,0,2.05567-1.05615,6.94893,6.94893,0,0,0,1.82421-1.88232,10.51619,10.51619,0,0,0,1.3252-2.977,15.66389,15.66389,0,0,0,.51855-4.32178,18.40471,18.40471,0,0,0-.47949-4.39844,8.45763,8.45763,0,0,0-1.57519-3.30371,6.9299,6.9299,0,0,0-2.82325-2.07471,11.25368,11.25368,0,0,0-4.26464-.71045H537.327v21.28174Z" fill="#fff"/>
    </g>
    <g style="isolation: isolate">
      <path d="M297.30352,220.63868v2.97753H283.3836v8.44922h12.208V235.043h-12.208v12.1709h-3.53613V220.63868Z" fill="#fff"/>
      <path d="M313.71759,220.63868a8.7524,8.7524,0,0,1,5.93652,1.86084,6.4058,6.4058,0,0,1,2.13965,5.09912,8.05988,8.05988,0,0,1-1.09766,4.24316,5.64946,5.64946,0,0,1-3.51758,2.49365v.07471a4.74577,4.74577,0,0,1,1.88086.74414,4.10168,4.10168,0,0,1,1.15332,1.24707,5.68865,5.68865,0,0,1,.63282,1.61914,17.48368,17.48368,0,0,1,.3164,1.86084q.07471.96827.11133,1.97266a16.96376,16.96376,0,0,0,.18652,1.97265,12.09065,12.09065,0,0,0,.42774,1.84278,4.52127,4.52127,0,0,0,.83789,1.54443h-3.94531a2.212,2.212,0,0,1-.50293-1.1167,11.24678,11.24678,0,0,1-.167-1.58154q-.03809-.87452-.07519-1.87988a12.81148,12.81148,0,0,0-.22363-1.97266q-.14941-.96753-.3711-1.84229a4.34167,4.34167,0,0,0-.708-1.52636,3.50513,3.50513,0,0,0-1.26464-1.042,4.6965,4.6965,0,0,0-2.085-.39062h-8.63575v11.352h-3.53515V220.63868Zm.74414,12.05908a5.11484,5.11484,0,0,0,1.95508-.72559,3.98222,3.98222,0,0,0,1.33984-1.45166,4.88567,4.88567,0,0,0,.502-2.36328,4.764,4.764,0,0,0-1.11719-3.27539,4.58776,4.58776,0,0,0-3.60937-1.26563h-8.78516v9.26807H312.117A14.19548,14.19548,0,0,0,314.46173,232.69776Z" fill="#fff"/>
    </g>
    <g>
      <path d="M362.43927,398.25489v-2.08008H377.286v2.08008h-6.18848v16.48437h-2.46973V398.25489Z" fill="#fff"/>
      <path d="M385.60626,413.88086a6.09913,6.09913,0,0,1-3.79688,1.14453,6.90663,6.90663,0,0,1-2.79492-.5205,5.49919,5.49919,0,0,1-1.98828-1.45606,6.165,6.165,0,0,1-1.209-2.23535,10.724,10.724,0,0,1-.45508-2.834,8.08245,8.08245,0,0,1,.46777-2.8086,6.70637,6.70637,0,0,1,1.3125-2.21,5.97474,5.97474,0,0,1,2.00293-1.45605,6.12,6.12,0,0,1,2.53418-.51953,5.51551,5.51551,0,0,1,2.97754.74121,5.89057,5.89057,0,0,1,1.89746,1.88476,7.44691,7.44691,0,0,1,.98828,2.4961,10.69686,10.69686,0,0,1,.2207,2.57421H377.702a5.32,5.32,0,0,0,.208,1.67676,3.80464,3.80464,0,0,0,.75391,1.4043,3.70893,3.70893,0,0,0,1.32617.97461,4.568,4.568,0,0,0,1.89746.36426,3.82612,3.82612,0,0,0,2.30176-.65039,3.14451,3.14451,0,0,0,1.18261-1.97559h2.1836A5.37006,5.37006,0,0,1,385.60626,413.88086Zm-.5332-8.63183a3.77455,3.77455,0,0,0-.80665-1.209,3.82529,3.82529,0,0,0-1.19531-.80566,3.7869,3.7869,0,0,0-1.52148-.29883,3.84737,3.84737,0,0,0-1.54688.29883,3.57113,3.57113,0,0,0-1.18261.81933,3.89391,3.89391,0,0,0-.78028,1.209,4.564,4.564,0,0,0-.33789,1.46875h7.72168A4.53471,4.53471,0,0,0,385.07306,405.249Z" fill="#fff"/>
      <path d="M392.39141,396.17481v18.56445h-2.21V396.17481Z" fill="#fff"/>
      <path d="M405.33868,413.88086a6.0962,6.0962,0,0,1-3.7959,1.14453,6.90014,6.90014,0,0,1-2.79492-.5205,5.49446,5.49446,0,0,1-1.98926-1.45606,6.17968,6.17968,0,0,1-1.209-2.23535,10.80453,10.80453,0,0,1-.45508-2.834,8.10534,8.10534,0,0,1,.46777-2.8086,6.7253,6.7253,0,0,1,1.31348-2.21,5.97094,5.97094,0,0,1,2.002-1.45605,6.12779,6.12779,0,0,1,2.53516-.51953,5.512,5.512,0,0,1,2.97656.74121,5.89381,5.89381,0,0,1,1.89844,1.88476,7.46748,7.46748,0,0,1,.98828,2.4961,10.74682,10.74682,0,0,1,.2207,2.57421h-10.0625a5.34879,5.34879,0,0,0,.208,1.67676,3.80464,3.80464,0,0,0,.75391,1.4043,3.71754,3.71754,0,0,0,1.32617.97461,4.56957,4.56957,0,0,0,1.89844.36426,3.823,3.823,0,0,0,2.30078-.65039,3.14038,3.14038,0,0,0,1.18262-1.97559h2.18457A5.37109,5.37109,0,0,1,405.33868,413.88086Zm-.5332-8.63183a3.78816,3.78816,0,0,0-.80567-1.209,3.82974,3.82974,0,0,0-1.19629-.80566,3.77881,3.77881,0,0,0-1.5205-.29883,3.84737,3.84737,0,0,0-1.54688.29883,3.56523,3.56523,0,0,0-1.18359.81933,3.92945,3.92945,0,0,0-.78028,1.209,4.61581,4.61581,0,0,0-.33789,1.46875H405.157A4.53557,4.53557,0,0,0,404.80548,405.249Z" fill="#fff"/>
      <path d="M412.07306,401.29688v1.82031h.05175a3.30893,3.30893,0,0,1,1.71582-1.625,6.4074,6.4074,0,0,1,2.57422-.50683,6.05561,6.05561,0,0,1,2.7168.57226,5.51784,5.51784,0,0,1,1.92383,1.54688,6.81276,6.81276,0,0,1,1.15722,2.249,9.19923,9.19923,0,0,1,.38965,2.7041,9.49847,9.49847,0,0,1-.377,2.7041,6.375,6.375,0,0,1-1.14356,2.22266,5.40472,5.40472,0,0,1-1.92382,1.49512,6.25561,6.25561,0,0,1-2.69141.54589,6.633,6.633,0,0,1-1.10449-.10449,6.09944,6.09944,0,0,1-1.209-.33789,4.69569,4.69569,0,0,1-1.13183-.63672,3.55063,3.55063,0,0,1-.89649-1.001h-.05175v6.916h-2.21V401.29688Zm7.94238,4.77148a4.95609,4.95609,0,0,0-.75391-1.59863,3.68907,3.68907,0,0,0-1.2998-1.11816,3.94982,3.94982,0,0,0-1.85938-.416,3.64662,3.64662,0,0,0-3.17187,1.59863,4.84593,4.84593,0,0,0-.71485,1.625,7.88522,7.88522,0,0,0,.0127,3.75684,4.73522,4.73522,0,0,0,.74121,1.625,3.77212,3.77212,0,0,0,1.31348,1.13086,4.09658,4.09658,0,0,0,1.94921.42969,3.77486,3.77486,0,0,0,1.91114-.44239,3.55711,3.55711,0,0,0,1.23535-1.16992,5.10055,5.10055,0,0,0,.67578-1.66406,8.83764,8.83764,0,0,0,.208-1.92383A6.85624,6.85624,0,0,0,420.01544,406.06836Z" fill="#fff"/>
      <path d="M434.71856,413.88086a6.0991,6.0991,0,0,1-3.79687,1.14453,6.90663,6.90663,0,0,1-2.79492-.5205,5.49914,5.49914,0,0,1-1.98829-1.45606,6.16525,6.16525,0,0,1-1.209-2.23535,10.72436,10.72436,0,0,1-.45508-2.834,8.08245,8.08245,0,0,1,.46778-2.8086,6.70637,6.70637,0,0,1,1.3125-2.21,5.97454,5.97454,0,0,1,2.00293-1.45605,6.1199,6.1199,0,0,1,2.53418-.51953,5.5155,5.5155,0,0,1,2.97753.74121,5.8907,5.8907,0,0,1,1.89747,1.88476,7.44691,7.44691,0,0,1,.98828,2.4961,10.69686,10.69686,0,0,1,.2207,2.57421H426.81427a5.32,5.32,0,0,0,.208,1.67676,3.80464,3.80464,0,0,0,.75391,1.4043,3.709,3.709,0,0,0,1.32617.97461,4.568,4.568,0,0,0,1.89746.36426,3.82608,3.82608,0,0,0,2.30176-.65039,3.14452,3.14452,0,0,0,1.18262-1.97559h2.18359A5.37,5.37,0,0,1,434.71856,413.88086Zm-.5332-8.63183a3.77453,3.77453,0,0,0-.80664-1.209,3.82541,3.82541,0,0,0-1.19531-.80566,3.787,3.787,0,0,0-1.52149-.29883,3.84732,3.84732,0,0,0-1.54687.29883,3.57107,3.57107,0,0,0-1.18262.81933,3.89389,3.89389,0,0,0-.78027,1.209,4.56376,4.56376,0,0,0-.33789,1.46875H434.536A4.53447,4.53447,0,0,0,434.18536,405.249Z" fill="#fff"/>
      <path d="M441.16583,401.29688v2.834h.05176a5.98872,5.98872,0,0,1,1.97656-2.418,4.97309,4.97309,0,0,1,2.96387-.72753v2.33984a6.23871,6.23871,0,0,0-2.26172.36426,3.56736,3.56736,0,0,0-1.50782,1.06543,4.40506,4.40506,0,0,0-.832,1.70312,9.16988,9.16988,0,0,0-.26074,2.30078v5.98047h-2.21V401.29688Z" fill="#fff"/>
      <path d="M446.46954,403.24707v-1.95019h2.26269v-2.00195a3.14957,3.14957,0,0,1,.94825-2.48243,4.03967,4.03967,0,0,1,2.76953-.8457,5.578,5.578,0,0,1,.71484.05273,3.8542,3.8542,0,0,1,.71485.15528v1.9248a2.75433,2.75433,0,0,0-.624-.14355,5.62369,5.62369,0,0,0-.624-.03906,2.14273,2.14273,0,0,0-1.248.3125,1.37461,1.37461,0,0,0-.4414,1.19531v1.87207h2.59961v1.95019H450.9422v11.49219h-2.21V403.24707Z" fill="#fff"/>
      <path d="M455.20587,405.2627a6.24333,6.24333,0,0,1,1.248-2.23633,5.86393,5.86393,0,0,1,2.05372-1.49512,7.52815,7.52815,0,0,1,5.6289,0,5.91394,5.91394,0,0,1,2.041,1.49512,6.273,6.273,0,0,1,1.248,2.23633,8.94531,8.94531,0,0,1,.416,2.76855,8.82406,8.82406,0,0,1-.416,2.75586,6.29266,6.29266,0,0,1-1.248,2.22364,5.77013,5.77013,0,0,1-2.041,1.48144,7.69447,7.69447,0,0,1-5.6289,0,5.72387,5.72387,0,0,1-2.05372-1.48144,6.2626,6.2626,0,0,1-1.248-2.22364,8.82406,8.82406,0,0,1-.416-2.75586A8.94531,8.94531,0,0,1,455.20587,405.2627Zm2.249,4.93945a4.53529,4.53529,0,0,0,.89649,1.58594,3.89618,3.89618,0,0,0,1.33886.97559,4.07647,4.07647,0,0,0,3.25,0,3.88709,3.88709,0,0,0,1.33887-.97559,4.53683,4.53683,0,0,0,.89746-1.58594,7.40858,7.40858,0,0,0,0-4.34179,4.66987,4.66987,0,0,0-.89746-1.59864,3.81246,3.81246,0,0,0-1.33887-.98828,4.07647,4.07647,0,0,0-3.25,0,3.82117,3.82117,0,0,0-1.33886.98828,4.66828,4.66828,0,0,0-.89649,1.59864,7.4088,7.4088,0,0,0,0,4.34179Z" fill="#fff"/>
      <path d="M472.44317,401.29688v2.834h.05176a5.98872,5.98872,0,0,1,1.97656-2.418,4.9731,4.9731,0,0,1,2.96387-.72753v2.33984a6.23871,6.23871,0,0,0-2.26172.36426,3.56739,3.56739,0,0,0-1.50781,1.06543,4.40478,4.40478,0,0,0-.832,1.70312,9.16941,9.16941,0,0,0-.26074,2.30078v5.98047h-2.21V401.29688Z" fill="#fff"/>
      <path d="M481.1795,401.29688v1.97656h.05176a5.239,5.239,0,0,1,6.60351-1.76855,2.91482,2.91482,0,0,1,1.43067,1.76855,4.69272,4.69272,0,0,1,1.78027-1.69043,5.03214,5.03214,0,0,1,2.43164-.59765,7.07457,7.07457,0,0,1,1.833.2207,3.79159,3.79159,0,0,1,1.40332.68945,3.1146,3.1146,0,0,1,.91016,1.209,4.41677,4.41677,0,0,1,.32519,1.78125v9.85351h-2.21v-8.81445a6.33768,6.33768,0,0,0-.10351-1.16992,2.4082,2.4082,0,0,0-.39063-.94825,1.95006,1.95006,0,0,0-.793-.63769,3.16244,3.16244,0,0,0-1.3125-.2334,3.47736,3.47736,0,0,0-2.57422.93555,3.37382,3.37382,0,0,0-.93652,2.49609v8.37207h-2.21v-8.81445a5.76492,5.76492,0,0,0-.11621-1.19531,2.54231,2.54231,0,0,0-.40332-.94922,1.88686,1.88686,0,0,0-.76758-.624,2.96808,2.96808,0,0,0-1.23438-.2207,3.30218,3.30218,0,0,0-1.65136.38965,3.74451,3.74451,0,0,0-1.74219,2.06738,3.20515,3.20515,0,0,0-.19434.97461v8.37207h-2.21V401.29688Z" fill="#fff"/>
      <path d="M511.59845,415.02539a1.89836,1.89836,0,0,1-1.36426-.48144,2.0898,2.0898,0,0,1-.50781-1.57227,5.28472,5.28472,0,0,1-2.11817,1.57227,6.99734,6.99734,0,0,1-2.61328.48144,7.27755,7.27755,0,0,1-1.71582-.19531,3.86406,3.86406,0,0,1-1.417-.64941,3.1691,3.1691,0,0,1-.96192-1.16992,3.89014,3.89014,0,0,1-.35156-1.7295,3.93923,3.93923,0,0,1,.39063-1.87207,3.39015,3.39015,0,0,1,1.02636-1.18261,4.70666,4.70666,0,0,1,1.45606-.68946q.81885-.23437,1.67676-.38965.91113-.18164,1.72949-.27343a9.5505,9.5505,0,0,0,1.44336-.25977,2.39833,2.39833,0,0,0,.9873-.49414,1.20509,1.20509,0,0,0,.36426-.94922,2.20249,2.20249,0,0,0-.27344-1.16992,1.88033,1.88033,0,0,0-.70117-.67578,2.84943,2.84943,0,0,0-.96191-.31152,7.17312,7.17312,0,0,0-1.05371-.07813,4.68327,4.68327,0,0,0-2.33985.53223,2.26249,2.26249,0,0,0-1.01367,2.01562h-2.21a4.7765,4.7765,0,0,1,.51953-2.10644,3.95807,3.95807,0,0,1,1.248-1.39063,5.21856,5.21856,0,0,1,1.79394-.7666,9.44,9.44,0,0,1,2.13184-.23437,12.56326,12.56326,0,0,1,1.80762.12988,4.73322,4.73322,0,0,1,1.625.5332,3.123,3.123,0,0,1,1.16992,1.13086,3.62758,3.62758,0,0,1,.4414,1.89844v6.915a5.1084,5.1084,0,0,0,.0918,1.14453q.09082.36474.61035.36426a2.17939,2.17939,0,0,0,.67578-.12989v1.71582A3.13015,3.13015,0,0,1,511.59845,415.02539ZM508.5047,408.252q-.67677.14355-1.417.23437-.74121.09082-1.49511.208a5.51378,5.51378,0,0,0-1.35157.37695,2.46876,2.46876,0,0,0-.97558.74121,2.07511,2.07511,0,0,0-.377,1.3125,1.79371,1.79371,0,0,0,.22168.92286,1.83534,1.83534,0,0,0,.57129.61132,2.39931,2.39931,0,0,0,.832.33789,4.60512,4.60512,0,0,0,.97559.1045,5.242,5.242,0,0,0,1.87207-.29883,3.92965,3.92965,0,0,0,1.27344-.75488,2.97321,2.97321,0,0,0,.72851-.98731,2.51171,2.51171,0,0,0,.2334-1.001v-2.26269A2.73787,2.73787,0,0,1,508.5047,408.252Z" fill="#fff"/>
      <path d="M517.31915,401.29688v2.13281h.05176a4.65128,4.65128,0,0,1,4.36816-2.44433,5.82557,5.82557,0,0,1,2.21.36425,3.63938,3.63938,0,0,1,1.42969,1.01367,3.76787,3.76787,0,0,1,.7666,1.54688,8.30749,8.30749,0,0,1,.22168,1.98926v8.83984h-2.21v-9.09961a2.67156,2.67156,0,0,0-.72852-1.97656,2.70454,2.70454,0,0,0-2.002-.72754,4.505,4.505,0,0,0-1.75488.31152,3.29386,3.29386,0,0,0-1.23535.88379,3.806,3.806,0,0,0-.74024,1.33985,5.43073,5.43073,0,0,0-.24707,1.67675v7.5918h-2.21V401.29688Z" fill="#fff"/>
      <path d="M537.72931,403.6377a3.35417,3.35417,0,0,0-2.23633-.70215,4.12687,4.12687,0,0,0-2.002.44141,3.57088,3.57088,0,0,0-1.28711,1.16992,4.92186,4.92186,0,0,0-.68945,1.67773,9.1444,9.1444,0,0,0-.208,1.96289,7.46141,7.46141,0,0,0,.22168,1.81934,4.86262,4.86262,0,0,0,.68848,1.57324,3.49036,3.49036,0,0,0,1.22266,1.10547,3.65414,3.65414,0,0,0,1.79394.416,3.61458,3.61458,0,0,0,2.56055-.8584,3.8753,3.8753,0,0,0,1.13086-2.418h2.26172a6.18688,6.18688,0,0,1-1.8584,3.84766,5.83757,5.83757,0,0,1-4.06934,1.35253,7.00326,7.00326,0,0,1-2.71679-.49414,5.25146,5.25146,0,0,1-1.97559-1.40429,6.05789,6.05789,0,0,1-1.19629-2.1709,9.02614,9.02614,0,0,1-.40332-2.76856,9.8451,9.8451,0,0,1,.39062-2.82129,6.51636,6.51636,0,0,1,1.18262-2.28808,5.557,5.557,0,0,1,1.98926-1.53418,6.51271,6.51271,0,0,1,2.78125-.55859,8.14634,8.14634,0,0,1,2.14551.27246,5.24087,5.24087,0,0,1,1.76758.8457,4.61925,4.61925,0,0,1,1.26171,1.44238,5.327,5.327,0,0,1,.624,2.06738H538.8211A3.376,3.376,0,0,0,537.72931,403.6377Z" fill="#fff"/>
      <path d="M553.17266,413.88086a6.09908,6.09908,0,0,1-3.79687,1.14453,6.90663,6.90663,0,0,1-2.79492-.5205,5.49911,5.49911,0,0,1-1.98828-1.45606,6.16511,6.16511,0,0,1-1.209-2.23535,10.72436,10.72436,0,0,1-.45508-2.834,8.08245,8.08245,0,0,1,.46778-2.8086,6.70637,6.70637,0,0,1,1.3125-2.21,5.97454,5.97454,0,0,1,2.00293-1.45605,6.1199,6.1199,0,0,1,2.53418-.51953,5.51554,5.51554,0,0,1,2.97754.74121,5.89077,5.89077,0,0,1,1.89746,1.88476,7.44691,7.44691,0,0,1,.98828,2.4961,10.69686,10.69686,0,0,1,.2207,2.57421H545.26837a5.32,5.32,0,0,0,.208,1.67676,3.80462,3.80462,0,0,0,.7539,1.4043,3.709,3.709,0,0,0,1.32617.97461,4.56806,4.56806,0,0,0,1.89746.36426,3.82608,3.82608,0,0,0,2.30176-.65039,3.14452,3.14452,0,0,0,1.18262-1.97559h2.18359A5.37,5.37,0,0,1,553.17266,413.88086Zm-.5332-8.63183a3.77453,3.77453,0,0,0-.80664-1.209,3.82541,3.82541,0,0,0-1.19531-.80566,3.787,3.787,0,0,0-1.52149-.29883,3.84732,3.84732,0,0,0-1.54687.29883,3.57107,3.57107,0,0,0-1.18262.81933,3.89389,3.89389,0,0,0-.78027,1.209,4.56376,4.56376,0,0,0-.33789,1.46875h7.72168A4.53447,4.53447,0,0,0,552.63946,405.249Z" fill="#fff"/>
    </g>
    <path d="M263.81616,680.24919c-11.93421,13.61029-50.2511,16.12445-63.86133,4.19019" fill="none" stroke="#f90a7a" stroke-opacity="0.69804" stroke-width="2" opacity="0.8"/>
    <path d="M263.81616,680.24919c10.781-14.22241,48.28625-19.38452,62.50867-8.60351" fill="none" stroke="#0063f2" stroke-opacity="0.69804" stroke-width="2" opacity="0.9"/>
    <circle cx="263.81616" cy="680.24919" r="21.21213" fill="#666"/>
    <g>
      <circle cx="199.95493" cy="684.43936" r="20.21194" fill="#f90a7a"/>
      <path d="M199.95493,665.22718a19.21216,19.21216,0,1,1-19.21215,19.21241,19.23412,19.23412,0,0,1,19.21215-19.21241m0-2a21.21216,21.21216,0,1,0,21.21216,21.21241,21.21229,21.21229,0,0,0-21.21216-21.21241Z" fill="#e0a900"/>
    </g>
    <g>
      <circle cx="326.32475" cy="671.64574" r="20.21204" fill="#0063f2"/>
      <path d="M326.32475,652.43338a19.21216,19.21216,0,1,1-19.21216,19.2124,19.23411,19.23411,0,0,1,19.21216-19.2124m0-2a21.21216,21.21216,0,1,0,21.21215,21.2124,21.21229,21.21229,0,0,0-21.21215-21.2124Z" fill="#1dc1ed"/>
    </g>
    <g>
      <path d="M240.64727,668.811q.59766,0,1.28711.01367.68848.01318,1.36524.07813a10.49069,10.49069,0,0,1,1.26074.19433,3.17471,3.17471,0,0,1,1.001.39063,4.8288,4.8288,0,0,1,1.54687,1.50781,4.1911,4.1911,0,0,1,.63672,2.36621,4.52857,4.52857,0,0,1-.71484,2.56055,4.21379,4.21379,0,0,1-2.041,1.59961v.05175a4.27443,4.27443,0,0,1,2.626,1.55957,4.67215,4.67215,0,0,1,.91015,2.91211,5.53454,5.53454,0,0,1-.36425,1.97657,4.94136,4.94136,0,0,1-1.07911,1.70214,5.378,5.378,0,0,1-1.76757,1.19629,6.07672,6.07672,0,0,1-2.43067.45508h-8.9707V668.811Zm.67579,7.98242a4.86973,4.86973,0,0,0,3.02929-.74121,2.67935,2.67935,0,0,0,.92285-2.22266,3.28163,3.28163,0,0,0-.31152-1.56054,2.21955,2.21955,0,0,0-.8584-.88379,3.3718,3.3718,0,0,0-1.26074-.40235,12.10038,12.10038,0,0,0-1.52148-.09179H236.3836v5.90234Zm1.248,8.50195a3.55587,3.55587,0,0,0,2.56153-.88379,3.22416,3.22416,0,0,0,.92285-2.44433,3.04317,3.04317,0,0,0-.33789-1.50781,2.62811,2.62811,0,0,0-.89746-.94922,3.78187,3.78187,0,0,0-1.28711-.49414,7.84972,7.84972,0,0,0-1.50782-.14258h-5.6416v6.42187Z" fill="#fff"/>
      <path d="M260.87579,686.51709a6.09905,6.09905,0,0,1-3.79688,1.14453,6.90669,6.90669,0,0,1-2.79492-.5205,5.49919,5.49919,0,0,1-1.98828-1.45606,6.1651,6.1651,0,0,1-1.209-2.23535,10.72436,10.72436,0,0,1-.45508-2.834,8.08249,8.08249,0,0,1,.46777-2.8086,6.70672,6.70672,0,0,1,1.3125-2.21,5.97474,5.97474,0,0,1,2.00293-1.45605,6.12,6.12,0,0,1,2.53418-.51953,5.51551,5.51551,0,0,1,2.97754.74121,5.89057,5.89057,0,0,1,1.89746,1.88476,7.44691,7.44691,0,0,1,.98828,2.4961,10.6974,10.6974,0,0,1,.22071,2.57421H252.97149a5.32,5.32,0,0,0,.208,1.67676,3.80464,3.80464,0,0,0,.75391,1.4043,3.70893,3.70893,0,0,0,1.32617.97461,4.568,4.568,0,0,0,1.89746.36426,3.82612,3.82612,0,0,0,2.30176-.65039,3.14451,3.14451,0,0,0,1.18261-1.97559h2.1836A5.37006,5.37006,0,0,1,260.87579,686.51709Zm-.5332-8.63183a3.77469,3.77469,0,0,0-.80664-1.209,3.82534,3.82534,0,0,0-1.19532-.80566,3.7869,3.7869,0,0,0-1.52148-.29883,3.84737,3.84737,0,0,0-1.54688.29883,3.57128,3.57128,0,0,0-1.18261.81933,3.89391,3.89391,0,0,0-.78028,1.209,4.564,4.564,0,0,0-.33789,1.46875h7.72168A4.5342,4.5342,0,0,0,260.34259,677.88526Z" fill="#fff"/>
      <path d="M267.01056,684.37256a2.35275,2.35275,0,0,0,.81933.80567,3.66458,3.66458,0,0,0,1.14356.42968,6.53385,6.53385,0,0,0,1.31347.12989,8.13441,8.13441,0,0,0,1.0918-.07813,3.99337,3.99337,0,0,0,1.05273-.28613,1.96617,1.96617,0,0,0,.793-.61133,1.62651,1.62651,0,0,0,.3125-1.02637,1.47241,1.47241,0,0,0-.65039-1.30078,5.5651,5.5651,0,0,0-1.625-.71484q-.97411-.27246-2.11914-.49414a10.85353,10.85353,0,0,1-2.11816-.624,4.37589,4.37589,0,0,1-1.625-1.13086,2.93527,2.93527,0,0,1-.65039-2.02734,3.21608,3.21608,0,0,1,.45507-1.74219,3.72053,3.72053,0,0,1,1.16993-1.18359,5.38384,5.38384,0,0,1,1.6123-.67578,7.46016,7.46016,0,0,1,1.78027-.2207,10.55485,10.55485,0,0,1,2.10645.19531,4.88382,4.88382,0,0,1,1.70312.67578,3.49611,3.49611,0,0,1,1.18262,1.2998,4.94461,4.94461,0,0,1,.52051,2.041h-2.21a2.24817,2.24817,0,0,0-.33789-1.0791,2.21165,2.21165,0,0,0-.72852-.68848,3.27991,3.27991,0,0,0-.97461-.37695,5.0166,5.0166,0,0,0-1.0791-.11719,6.47451,6.47451,0,0,0-1.001.07813,3.35608,3.35608,0,0,0-.92286.27246,1.856,1.856,0,0,0-.67675.5205,1.31346,1.31346,0,0,0-.25977.84473,1.24085,1.24085,0,0,0,.40332.94922,3.22547,3.22547,0,0,0,1.02637.624,9.04525,9.04525,0,0,0,1.40429.416q.78077.16845,1.56055.35058a16.51314,16.51314,0,0,1,1.625.44239,5.278,5.278,0,0,1,1.40332.68847,3.38386,3.38386,0,0,1,.98828,1.07911,3.174,3.174,0,0,1,.377,1.6123,3.74272,3.74272,0,0,1-.50684,2.02734,3.95646,3.95646,0,0,1-1.32617,1.30079,5.54279,5.54279,0,0,1-1.8457.68847,10.94044,10.94044,0,0,1-2.041.19531,9.43379,9.43379,0,0,1-2.13184-.23437,5.2025,5.2025,0,0,1-1.79394-.7666,3.90093,3.90093,0,0,1-1.24805-1.4043,4.84855,4.84855,0,0,1-.52051-2.11914h2.21A2.4912,2.4912,0,0,0,267.01056,684.37256Z" fill="#fff"/>
      <path d="M287.83673,686.51709a6.09613,6.09613,0,0,1-3.7959,1.14453,6.90007,6.90007,0,0,1-2.79492-.5205,5.49438,5.49438,0,0,1-1.98926-1.45606,6.17985,6.17985,0,0,1-1.209-2.23535,10.80454,10.80454,0,0,1-.45507-2.834,8.10538,8.10538,0,0,1,.46777-2.8086,6.7253,6.7253,0,0,1,1.31348-2.21,5.97084,5.97084,0,0,1,2.002-1.45605,6.12775,6.12775,0,0,1,2.53516-.51953,5.512,5.512,0,0,1,2.97656.74121,5.89381,5.89381,0,0,1,1.89844,1.88476,7.46748,7.46748,0,0,1,.98828,2.4961,10.74682,10.74682,0,0,1,.2207,2.57421h-10.0625a5.34821,5.34821,0,0,0,.208,1.67676,3.80462,3.80462,0,0,0,.7539,1.4043,3.71758,3.71758,0,0,0,1.32618.97461,4.56956,4.56956,0,0,0,1.89843.36426,3.823,3.823,0,0,0,2.30078-.65039,3.14034,3.14034,0,0,0,1.18262-1.97559h2.18457A5.371,5.371,0,0,1,287.83673,686.51709Zm-.53321-8.63183a3.788,3.788,0,0,0-.80566-1.209,3.82974,3.82974,0,0,0-1.19629-.80566,3.77883,3.77883,0,0,0-1.52051-.29883,3.84732,3.84732,0,0,0-1.54687.29883,3.56552,3.56552,0,0,0-1.1836.81933,3.92943,3.92943,0,0,0-.78027,1.209,4.61581,4.61581,0,0,0-.33789,1.46875h7.72266A4.53558,4.53558,0,0,0,287.30352,677.88526Z" fill="#fff"/>
    </g>
    <g style="isolation: isolate">
      <path d="M320.01641,664.918a5.49925,5.49925,0,0,0-3.31347-.94092,7.91883,7.91883,0,0,0-1.6084.16358,4.27229,4.27229,0,0,0-1.4043.54541,2.86762,2.86762,0,0,0-.98242,1.02246,3.16527,3.16527,0,0,0-.36719,1.59521,2.029,2.029,0,0,0,.53125,1.459,3.92881,3.92881,0,0,0,1.418.91308,11.80521,11.80521,0,0,0,2.00391.58643q1.11768.23219,2.27734.5044,1.15723.27318,2.27637.64062a7.52237,7.52237,0,0,1,2.00391.99561,4.73579,4.73579,0,0,1,1.418,1.58154,5.54175,5.54175,0,0,1-.16308,5.05762,5.72283,5.72283,0,0,1-1.78711,1.7998,7.75623,7.75623,0,0,1-2.43945,1.00879,11.84178,11.84178,0,0,1-2.68555.31348,11.42434,11.42434,0,0,1-3.0957-.4087,7.64,7.64,0,0,1-2.5625-1.24072,5.87208,5.87208,0,0,1-1.74512-2.12695,6.83716,6.83716,0,0,1-.6416-3.06738h2.45508a4.39533,4.39533,0,0,0,.47656,2.11328,4.34079,4.34079,0,0,0,1.2539,1.45849,5.28342,5.28342,0,0,0,1.81446.84522,8.29028,8.29028,0,0,0,2.126.273,9.69257,9.69257,0,0,0,1.75879-.16358,5.19068,5.19068,0,0,0,1.59571-.55908,2.99452,2.99452,0,0,0,1.58105-2.82226,2.43843,2.43843,0,0,0-.53223-1.63575,3.89329,3.89329,0,0,0-1.418-1.02246,10.33087,10.33087,0,0,0-2.00391-.64111q-1.11768-.24537-2.27637-.5044-1.15869-.25854-2.27637-.5996a8.20605,8.20605,0,0,1-2.0039-.89991,4.29194,4.29194,0,0,1-1.418-1.44531,4.24628,4.24628,0,0,1-.53223-2.22217,5.16428,5.16428,0,0,1,.59961-2.54931,5.23894,5.23894,0,0,1,1.59473-1.77246,7.16358,7.16358,0,0,1,2.26367-1.03614,9.99353,9.99353,0,0,1,2.60352-.34082,10.397,10.397,0,0,1,2.78125.35449,6.29611,6.29611,0,0,1,2.25,1.11768,5.41016,5.41016,0,0,1,1.52734,1.92236,6.88765,6.88765,0,0,1,.61328,2.76758h-2.4541A4.05939,4.05939,0,0,0,320.01641,664.918Z" fill="#fff"/>
      <path d="M341.3797,662.25928v2.18115H330.52716v6.18994h10.11621v2.18116H330.52716v6.73535h10.93457V681.728H327.93634V662.25928Z" fill="#fff"/>
    </g>
    <g style="isolation: isolate">
      <path d="M190.18634,674.72315q.61962,0,1.334.01318.71484.01392,1.416.08106a10.8054,10.8054,0,0,1,1.30859.20214,3.31345,3.31345,0,0,1,1.03809.40479,5.02929,5.02929,0,0,1,1.60449,1.564,4.35512,4.35512,0,0,1,.66015,2.45411,4.69734,4.69734,0,0,1-.74121,2.65576,4.3729,4.3729,0,0,1-2.11621,1.65869v.05371a4.43378,4.43378,0,0,1,2.72266,1.61816,4.84324,4.84324,0,0,1,.94336,3.02,5.74073,5.74073,0,0,1-.37695,2.04981,5.14211,5.14211,0,0,1-1.11915,1.76611,5.58855,5.58855,0,0,1-1.834,1.24072,6.30834,6.30834,0,0,1-2.52148.47168H183.202v-19.2539Zm.70117,8.27881a5.04864,5.04864,0,0,0,3.14062-.76856,2.7796,2.7796,0,0,0,.958-2.30566,3.41008,3.41008,0,0,0-.32324-1.61817,2.31032,2.31032,0,0,0-.89063-.917,3.50425,3.50425,0,0,0-1.30761-.418,12.59934,12.59934,0,0,0-1.57715-.09424h-5.124V683.002Zm1.29394,8.81787a3.68149,3.68149,0,0,0,2.65625-.917,3.345,3.345,0,0,0,.958-2.53467,3.13852,3.13852,0,0,0-.35156-1.564,2.71341,2.71341,0,0,0-.92969-.98437,3.90964,3.90964,0,0,0-1.335-.5127,8.14873,8.14873,0,0,0-1.56348-.148h-5.85254v6.66065Z" fill="#fff"/>
      <path d="M210.73516,674.72315a6.33932,6.33932,0,0,1,4.30079,1.34814,4.64327,4.64327,0,0,1,1.55078,3.69434,5.84266,5.84266,0,0,1-.7959,3.07422,4.09213,4.09213,0,0,1-2.54785,1.80664v.0542a3.436,3.436,0,0,1,1.36133.53906,2.96677,2.96677,0,0,1,.83593.90332,4.10633,4.10633,0,0,1,.459,1.17334,12.65356,12.65356,0,0,1,.22851,1.34814q.05421.70167.08106,1.4292a12.46081,12.46081,0,0,0,.13476,1.4292,8.6946,8.6946,0,0,0,.30957,1.335,3.30845,3.30845,0,0,0,.60743,1.11914h-2.8584a1.60455,1.60455,0,0,1-.36426-.80908,8.3023,8.3023,0,0,1-.12109-1.146q-.02637-.63356-.05469-1.36182a9.35873,9.35873,0,0,0-.16114-1.4292q-.10692-.70092-.26953-1.335a3.13518,3.13518,0,0,0-.51269-1.10547,2.52566,2.52566,0,0,0-.916-.75488,3.40291,3.40291,0,0,0-1.51074-.28321h-6.25684v8.22461h-2.56054v-19.2539Zm.53907,8.73681a3.69074,3.69074,0,0,0,1.416-.52587,2.8812,2.8812,0,0,0,.97071-1.05127,3.53823,3.53823,0,0,0,.36328-1.71241,3.45463,3.45463,0,0,0-.8086-2.373,3.32449,3.32449,0,0,0-2.61523-.917h-6.36524v6.71485H209.575A10.274,10.274,0,0,0,211.27423,683.46Z" fill="#fff"/>
    </g>
  </g>
</svg>
