<svg xmlns="http://www.w3.org/2000/svg" viewBox="0 0 900 28">
  <g id="QuerySticky">
    <g>
      <rect x="0.75006" y="0.75006" width="898.5" height="26.5" fill="#1c1e25"/>
      <path d="M898.50006,1.50006v25h-897v-25h897m1.5-1.5h-900v28h900v-28Z" fill="#fff"/>
    </g>
    <line x1="300" x2="300" y2="28" fill="none" stroke="#fff" stroke-miterlimit="10" stroke-width="1.5"/>
    <line x1="600" x2="600" y2="28" fill="none" stroke="#fff" stroke-miterlimit="10" stroke-width="1.5"/>
    <g>
      <path d="M15.60472,12.07331H12.30394c-.07031.63525-.26856,1.82959-.34668,2.25341a2.09809,2.09809,0,0,1,1.65332-.63525,2.33647,2.33647,0,0,1,2.37695,2.61865,2.59853,2.59853,0,0,1-2.71972,2.88428,2.45916,2.45916,0,0,1-2.63672-2.12256h1.06933A1.549,1.549,0,0,0,13.303,18.32135c1.07324,0,1.60352-.76513,1.60352-1.93261,0-1.02-.42285-1.79981-1.51856-1.79981A1.54157,1.54157,0,0,0,11.761,15.62262l-.98145-.18066c.23438-1.03418.53614-3.28809.65235-4.28321h4.32129Z" fill="#fff"/>
      <path d="M24.40452,19.05036h-.85058a4.9313,4.9313,0,0,1-.10449-1.13086,2.77323,2.77323,0,0,1-2.5918,1.24365c-2.40625,0-3.68457-1.82617-3.68457-4.2002,0-2.498,1.37012-4.37695,3.88867-4.37695a3.11261,3.11261,0,0,1,3.39746,2.5415H23.35277a2.17184,2.17184,0,0,0-2.31543-1.61914c-1.93653,0-2.70508,1.54639-2.70508,3.40137,0,1.71973.77441,3.32276,2.66015,3.32276,1.86915,0,2.334-1.24415,2.334-2.65284v-.0874H20.97679V14.544h3.42773Z" fill="#fff"/>
    </g>
    <g>
      <path d="M317.86448,19.05036h-.85058a4.9313,4.9313,0,0,1-.10449-1.13086,2.77322,2.77322,0,0,1-2.5918,1.24365c-2.40625,0-3.68457-1.82617-3.68457-4.2002,0-2.498,1.37012-4.37695,3.88867-4.37695a3.11261,3.11261,0,0,1,3.39746,2.5415h-1.10644a2.17183,2.17183,0,0,0-2.31543-1.61914c-1.93653,0-2.70508,1.54639-2.70508,3.40137,0,1.71973.77441,3.32276,2.66016,3.32276,1.86914,0,2.334-1.24415,2.334-2.65284v-.0874h-2.34961V14.544h3.42773Z" fill="#fff"/>
      <path d="M327.08714,15.4942c0-1.5498.01563-3.125.05176-4.00293H327.095c-.35742,1.35254-1.708,4.93409-2.665,7.55909h-.99218c-.72266-2.13575-2.1211-6.15088-2.4961-7.5752h-.03613c.06348.96387.0918,2.8169.0918,4.24756v3.32764h-1.042V10.70612h1.65039c.94726,2.58935,2.10546,5.93066,2.39257,6.99267h.01954c.19628-.80273,1.56542-4.47021,2.54492-6.99267h1.60547v8.34424h-1.08106Z" fill="#fff"/>
      <path d="M337.64769,14.83112c0,2.29492-1.28711,4.33935-3.915,4.33935-2.457,0-3.82715-1.89843-3.82715-4.29248,0-2.3872,1.39941-4.292,3.92383-4.292C336.178,10.586,337.64769,12.35016,337.64769,14.83112Zm-6.584.01123c0,1.80322.92286,3.38428,2.7168,3.38428,1.9375,0,2.709-1.59668,2.709-3.3794,0-1.79785-.874-3.31738-2.70605-3.31738C331.89281,11.52985,331.0637,13.06207,331.0637,14.84235Z" fill="#fff"/>
    </g>
    <g>
      <path d="M613.14183,19.05036l-3.03711-8.34424h1.18848l1.46972,4.16015c.42969,1.22461.85938,2.458,1.043,3.22071h.02442c.17578-.68311.64941-1.97168,1.08789-3.18116l1.52929-4.1997h1.14258l-3.14062,8.34424Z" fill="#fff"/>
      <path d="M619.12718,16.54743l-.89746,2.50293h-1.10156l2.97168-8.34424h1.3623l3.09961,8.34424H623.383l-.92578-2.50293Zm3.0459-.94825c-.79492-2.19287-1.23242-3.35839-1.41309-3.99414h-.01172c-.2041.70752-.69238,2.11866-1.334,3.99414Z" fill="#fff"/>
      <path d="M630.60667,19.05036l-2.22558-3.42969h-.01172l-2.22656,3.42969h-1.22657l2.81934-4.22705-2.7168-4.11719h1.28711l2.10547,3.24609h.01172l2.1582-3.24609h1.21387l-2.7627,4.02246,2.86426,4.32178Z" fill="#fff"/>
    </g>
  </g>
</svg>
