<svg xmlns="http://www.w3.org/2000/svg" viewBox="0 0 1920 167.4998">
  <g id="Livello_2" data-name="Livello 2">
    <g id="Sfondo">
      <rect y="0.00002" width="1920" height="167.49979" style="fill: #e7e7ea"/>
    </g>
  </g>
  <g id="Livello_1" data-name="Livello 1">
    <g style="isolation: isolate">
      <path d="M69.77734,79.882a2.25619,2.25619,0,0,0-2.32714-1.833c-1.66407,0-2.75635,1.35156-2.75635,3.39258,0,2.09375,1.09228,3.51074,2.71728,3.51074a2.47153,2.47153,0,0,0,2.48291-2.418h1.248a3.88946,3.88946,0,0,1-.74072,2.01465,3.5023,3.5023,0,0,1-3.01612,1.48242,3.57924,3.57924,0,0,1-3.042-1.48242A5.10458,5.10458,0,0,1,63.394,81.468c0-2.63867,1.67676-4.498,4.05616-4.498a3.38871,3.38871,0,0,1,3.53613,2.79492Z"/>
      <path d="M78.27881,82.74239A3.0366,3.0366,0,1,1,75.25,79.3879C77.083,79.3879,78.27881,80.71407,78.27881,82.74239Zm-4.83594-.05274c0,1.46973.66309,2.31446,1.82031,2.31446,1.13086,0,1.80664-.84473,1.80664-2.27539,0-1.50782-.6499-2.33985-1.81982-2.33985C74.106,80.38887,73.44287,81.2336,73.44287,82.68965Z"/>
      <path d="M80.83984,79.55684v.71484a2.38309,2.38309,0,0,1,1.98877-.88378,2.11438,2.11438,0,0,1,1.70313.68945,2.34938,2.34938,0,0,1,.416,1.55957v4.19922h-1.1958v-4.1084c0-.85742-.39013-1.27344-1.209-1.27344a1.49012,1.49012,0,0,0-1.65137,1.57227v3.80957H79.6958v-6.2793Z"/>
      <path d="M90.31689,81.48067a1.25626,1.25626,0,0,0-1.43017-1.10449c-.71533,0-1.19629.29882-1.19629.74121,0,.31152.22119.51953.728.64941l1.45605.37695c1.31348.3379,1.85938.88379,1.85938,1.84668,0,1.23438-1.01416,2.01465-2.61328,2.01465-1.70313,0-2.7168-.832-2.84717-2.32715h1.1831c.06494.832.689,1.32618,1.68994,1.32618.8584,0,1.41748-.377,1.41748-.96192,0-.416-.27343-.63672-1.00146-.832l-1.24805-.3125a3.0915,3.0915,0,0,1-1.32568-.585,1.45978,1.45978,0,0,1-.46826-1.0791c0-1.0791,1.001-1.8457,2.418-1.8457a2.63087,2.63087,0,0,1,2.08007.832,2.09021,2.09021,0,0,1,.44239,1.26074Z"/>
      <path d="M94.28125,79.50508v.68848a2.52551,2.52551,0,0,1,1.91113-.81836c1.67725,0,2.78223,1.32617,2.78223,3.36719,0,1.98828-1.04,3.26269-2.67822,3.26269a2.49263,2.49263,0,0,1-2.01514-.88379V87.8254h-1.1958V79.50508Zm-.06494,3.14551c0,1.52148.624,2.35352,1.78125,2.35352,1.13086,0,1.76806-.832,1.76806-2.31446,0-1.48144-.6372-2.31347-1.76806-2.31347S94.21631,81.20821,94.21631,82.65059Z"/>
      <path d="M101.5874,78.55586h-1.1958V77.16524h1.1958Zm0,7.28028h-1.1958v-6.2793h1.1958Z"/>
      <path d="M104.47363,79.55684v.98828a3.42644,3.42644,0,0,1,.52-.66308,1.66409,1.66409,0,0,1,1.11817-.49414,1.45724,1.45724,0,0,1,.66308.15625v1.0791a2.32093,2.32093,0,0,0-.54638-.06543,1.82486,1.82486,0,0,0-1.70313,1.97656v3.30176h-1.1958v-6.2793Z"/>
      <path d="M107.76221,81.63692a2.38827,2.38827,0,0,1,.50732-1.53418,2.73165,2.73165,0,0,1,2.041-.71484c1.56006,0,2.44384.74121,2.44384,2.041v2.95117c0,.49414.06495.59766.3379.59766a.78932.78932,0,0,0,.3125-.06445v.92285a3.40608,3.40608,0,0,1-.78028.09082c-.57226,0-.832-.24707-.936-.84473a2.90442,2.90442,0,0,1-2.1709.92285,1.866,1.866,0,0,1-2.0542-1.85937c0-1.01367.624-1.6377,1.89795-1.89746l1.39111-.27344c.75391-.14258.91016-.25977.91016-.64941,0-.61133-.53321-.98829-1.37793-.98829a1.35568,1.35568,0,0,0-1.26123.53321,1.644,1.644,0,0,0-.14307.7666Zm3.92627.97461a4.96043,4.96043,0,0,1-.74121.23437l-1.22168.28614c-.728.16894-1.05323.46777-1.05323.96191,0,.57227.46778.96191,1.16993.96191a1.76019,1.76019,0,0,0,1.84619-1.63769Z"/>
      <path d="M118.95508,81.68868a1.48865,1.48865,0,0,0-1.58594-1.29981c-1.144,0-1.91113.91016-1.91113,2.28809,0,1.417.7539,2.32715,1.91113,2.32715a1.57413,1.57413,0,0,0,1.66406-1.52149h1.13086a2.61232,2.61232,0,0,1-2.8208,2.52246,3.31475,3.31475,0,0,1,.03906-6.61718,2.4814,2.4814,0,0,1,2.70411,2.30078Z"/>
      <path d="M122.63379,78.55586H121.438V77.16524h1.1958Zm0,7.28028H121.438v-6.2793h1.1958Z"/>
      <path d="M125.25977,82.98946c.0913,1.28613.74121,2.01465,1.82031,2.01465a1.50931,1.50931,0,0,0,1.521-1.0918h1.144a2.58981,2.58981,0,0,1-2.69092,2.09277,3.01731,3.01731,0,0,1-2.99024-3.31543,2.98454,2.98454,0,0,1,2.95118-3.30175A2.57678,2.57678,0,0,1,129.58936,81.26a5.54818,5.54818,0,0,1,.24658,1.72949Zm3.32812-.8711c-.05176-1.14453-.624-1.78125-1.57275-1.78125a1.75033,1.75033,0,0,0-1.74219,1.78125Z"/>
      <path d="M134.86719,81.48067a1.25653,1.25653,0,0,0-1.43018-1.10449c-.71484,0-1.19629.29882-1.19629.74121,0,.31152.22119.51953.728.64941l1.45605.37695c1.313.3379,1.85938.88379,1.85938,1.84668,0,1.23438-1.01416,2.01465-2.61328,2.01465-1.70313,0-2.71729-.832-2.84717-2.32715h1.18311c.06494.832.689,1.32618,1.68994,1.32618.8584,0,1.417-.377,1.417-.96192,0-.416-.27295-.63672-1.001-.832l-1.248-.3125a3.08858,3.08858,0,0,1-1.32569-.585,1.45978,1.45978,0,0,1-.46826-1.0791c0-1.0791,1.001-1.8457,2.418-1.8457a2.6302,2.6302,0,0,1,2.08008.832,2.08709,2.08709,0,0,1,.44238,1.26074Z"/>
      <path d="M143.9668,80.50606h-1.13135v3.93945c0,.36328.16943.57129.46826.57129a1.73358,1.73358,0,0,0,.66309-.16894v.97558a4.03112,4.03112,0,0,1-1.001.14258c-.897,0-1.32617-.48047-1.32617-1.52051V80.50606h-.84522v-.94922h.84522V77.56758h1.1958v1.98926h1.13135Z"/>
      <path d="M146.31934,80.12911a2.56633,2.56633,0,0,1,1.87207-.74121,1.98,1.98,0,0,1,2.18408,2.249v4.19922h-1.1958V81.83223a1.35966,1.35966,0,0,0-.26026-1.01465,1.2549,1.2549,0,0,0-.96191-.36328,1.51534,1.51534,0,0,0-1.63818,1.67676v3.70508h-1.1958v-8.6709h1.1958Z"/>
      <path d="M152.11719,81.63692a2.38827,2.38827,0,0,1,.50732-1.53418,2.73165,2.73165,0,0,1,2.041-.71484c1.56006,0,2.44385.74121,2.44385,2.041v2.95117c0,.49414.06494.59766.33837.59766a.78669.78669,0,0,0,.31153-.06445v.92285a3.399,3.399,0,0,1-.77979.09082c-.57178,0-.832-.24707-.936-.84473a2.90441,2.90441,0,0,1-2.1709.92285,1.866,1.866,0,0,1-2.0542-1.85937c0-1.01367.624-1.6377,1.89795-1.89746l1.39111-.27344c.75391-.14258.91016-.25977.91016-.64941,0-.61133-.5332-.98829-1.37842-.98829a1.35529,1.35529,0,0,0-1.26074.53321,1.65049,1.65049,0,0,0-.14307.7666Zm3.92627.97461a4.96043,4.96043,0,0,1-.74121.23437l-1.22168.28614c-.728.16894-1.05323.46777-1.05323.96191,0,.57227.46827.96191,1.16993.96191a1.76019,1.76019,0,0,0,1.84619-1.63769Z"/>
      <path d="M161.39893,80.50606h-1.13086v3.93945c0,.36328.16894.57129.46777.57129a1.73358,1.73358,0,0,0,.66309-.16894v.97558a4.0283,4.0283,0,0,1-1.001.14258c-.897,0-1.32617-.48047-1.32617-1.52051V80.50606h-.84522v-.94922h.84522V77.56758h1.19629v1.98926h1.13086Z"/>
      <path d="M166.3252,81.63692a2.38827,2.38827,0,0,1,.50732-1.53418,2.73165,2.73165,0,0,1,2.041-.71484c1.56005,0,2.44384.74121,2.44384,2.041v2.95117c0,.49414.06494.59766.33838.59766a.78669.78669,0,0,0,.31153-.06445v.92285a3.399,3.399,0,0,1-.77979.09082c-.57178,0-.832-.24707-.936-.84473a2.90439,2.90439,0,0,1-2.17089.92285,1.866,1.866,0,0,1-2.0542-1.85937c0-1.01367.624-1.6377,1.898-1.89746l1.39111-.27344c.75391-.14258.91016-.25977.91016-.64941,0-.61133-.53321-.98829-1.37842-.98829a1.35529,1.35529,0,0,0-1.26074.53321,1.65049,1.65049,0,0,0-.14307.7666Zm3.92626.97461a4.96,4.96,0,0,1-.74121.23437l-1.22168.28614c-.728.16894-1.05322.46777-1.05322.96191,0,.57227.46826.96191,1.16992.96191a1.76019,1.76019,0,0,0,1.84619-1.63769Z"/>
      <path d="M174.26807,79.55684v.98828a3.426,3.426,0,0,1,.52-.66308,1.6631,1.6631,0,0,1,1.11816-.49414,1.45524,1.45524,0,0,1,.6626.15625v1.0791a2.31457,2.31457,0,0,0-.5459-.06543,1.82487,1.82487,0,0,0-1.70313,1.97656v3.30176H173.124v-6.2793Z"/>
      <path d="M178.42773,82.98946c.09131,1.28613.74122,2.01465,1.82032,2.01465a1.50931,1.50931,0,0,0,1.521-1.0918h1.14405a2.58981,2.58981,0,0,1-2.69092,2.09277,3.01731,3.01731,0,0,1-2.99024-3.31543,2.98453,2.98453,0,0,1,2.95118-3.30175A2.57676,2.57676,0,0,1,182.75732,81.26a5.54785,5.54785,0,0,1,.24659,1.72949Zm3.32813-.8711c-.05176-1.14453-.624-1.78125-1.57275-1.78125a1.75033,1.75033,0,0,0-1.74219,1.78125Z"/>
      <path d="M188.30762,81.63692a2.38827,2.38827,0,0,1,.50732-1.53418,2.73165,2.73165,0,0,1,2.041-.71484c1.56006,0,2.44384.74121,2.44384,2.041v2.95117c0,.49414.06495.59766.33838.59766a.78669.78669,0,0,0,.31153-.06445v.92285a3.399,3.399,0,0,1-.77979.09082c-.57178,0-.832-.24707-.936-.84473a2.90442,2.90442,0,0,1-2.1709.92285,1.866,1.866,0,0,1-2.0542-1.85937c0-1.01367.624-1.6377,1.898-1.89746l1.39111-.27344c.75391-.14258.91016-.25977.91016-.64941,0-.61133-.53321-.98829-1.37842-.98829a1.35529,1.35529,0,0,0-1.26074.53321,1.65049,1.65049,0,0,0-.14307.7666Zm3.92627.97461a4.96043,4.96043,0,0,1-.74121.23437L190.271,83.132c-.728.16894-1.05323.46777-1.05323.96191,0,.57227.46827.96191,1.16993.96191a1.76019,1.76019,0,0,0,1.84619-1.63769Z"/>
      <path d="M196.30225,85.83614h-1.1958v-8.6709h1.1958Z"/>
      <path d="M199.18848,79.55684v.98828a3.426,3.426,0,0,1,.52-.66308,1.66407,1.66407,0,0,1,1.11816-.49414,1.45725,1.45725,0,0,1,.66309.15625v1.0791a2.321,2.321,0,0,0-.54639-.06543,1.82487,1.82487,0,0,0-1.70313,1.97656v3.30176h-1.1958v-6.2793Z"/>
      <path d="M203.34814,82.98946c.09131,1.28613.74122,2.01465,1.82032,2.01465a1.50893,1.50893,0,0,0,1.521-1.0918h1.144a2.58947,2.58947,0,0,1-2.69092,2.09277,3.01731,3.01731,0,0,1-2.99024-3.31543,2.98453,2.98453,0,0,1,2.95118-3.30175A2.57621,2.57621,0,0,1,207.67725,81.26a5.53194,5.53194,0,0,1,.24707,1.72949Zm3.32813-.8711c-.05176-1.14453-.624-1.78125-1.57275-1.78125a1.75033,1.75033,0,0,0-1.74219,1.78125Z"/>
      <path d="M209.27637,81.63692a2.38827,2.38827,0,0,1,.50732-1.53418,2.73165,2.73165,0,0,1,2.041-.71484c1.56006,0,2.44384.74121,2.44384,2.041v2.95117c0,.49414.06495.59766.33838.59766a.78669.78669,0,0,0,.31153-.06445v.92285a3.399,3.399,0,0,1-.77979.09082c-.57178,0-.832-.24707-.936-.84473a2.90442,2.90442,0,0,1-2.1709.92285,1.866,1.866,0,0,1-2.0542-1.85937c0-1.01367.624-1.6377,1.898-1.89746l1.39111-.27344c.75391-.14258.91016-.25977.91016-.64941,0-.61133-.53321-.98829-1.37842-.98829a1.35529,1.35529,0,0,0-1.26074.53321,1.65049,1.65049,0,0,0-.14307.7666Zm3.92627.97461a4.96043,4.96043,0,0,1-.74121.23437l-1.22168.28614c-.728.16894-1.05323.46777-1.05323.96191,0,.57227.46827.96191,1.16993.96191a1.76019,1.76019,0,0,0,1.84619-1.63769Z"/>
      <path d="M221.66553,85.83614h-1.19629v-.67578a2.602,2.602,0,0,1-1.98926.84472c-1.67676,0-2.73-1.2998-2.73-3.34082,0-2.00195,1.06592-3.27636,2.73-3.27636a2.60851,2.60851,0,0,1,1.98926.84472V77.16524h1.19629ZM216.959,82.68965c0,1.48242.6504,2.31446,1.78125,2.31446,1.144,0,1.79395-.832,1.79395-2.27539,0-1.50782-.63672-2.33985-1.79395-2.33985C217.60938,80.38887,216.959,81.2209,216.959,82.68965Z"/>
      <path d="M228.76318,79.55684l-2.769,7.0332c-.35107.8711-.81885,1.23536-1.58594,1.23536a2.5716,2.5716,0,0,1-.96191-.19532v-.97461a1.81564,1.81564,0,0,0,.75391.169.86692.86692,0,0,0,.87109-.65039l.16894-.49414-2.60009-6.12305h1.28711l1.39111,3.58789c.208.5459.24658.6377.46777,1.32617.14307-.46777.35108-1.11816.4292-1.32617l1.29981-3.58789Z"/>
      <path d="M67.21631,97.48067a1.25627,1.25627,0,0,0-1.43018-1.10449c-.71533,0-1.19629.29882-1.19629.74121,0,.31152.2212.51953.728.64941l1.45606.37695c1.31347.3379,1.85937.88379,1.85937,1.84668,0,1.23438-1.01416,2.01465-2.61328,2.01465-1.70313,0-2.7168-.832-2.84717-2.32715H64.356c.06494.832.689,1.32618,1.68994,1.32618.8584,0,1.41748-.377,1.41748-.96192,0-.416-.27344-.63672-1.00147-.832l-1.248-.3125a3.0915,3.0915,0,0,1-1.32569-.585,1.45978,1.45978,0,0,1-.46826-1.0791c0-1.0791,1.001-1.8457,2.418-1.8457a2.63091,2.63091,0,0,1,2.08008.832,2.09014,2.09014,0,0,1,.44238,1.26074Z"/>
      <path d="M71.11572,96.12911a2.56636,2.56636,0,0,1,1.87207-.74121,1.98,1.98,0,0,1,2.18409,2.249v4.19922H73.97607V97.83223a1.35971,1.35971,0,0,0-.26025-1.01465,1.25493,1.25493,0,0,0-.96191-.36328,1.51535,1.51535,0,0,0-1.63819,1.67676v3.70508h-1.1958v-8.6709h1.1958Z"/>
      <path d="M76.91357,97.63692a2.38832,2.38832,0,0,1,.50733-1.53418,2.73164,2.73164,0,0,1,2.041-.71484c1.56006,0,2.44385.74121,2.44385,2.041v2.95117c0,.49414.06494.59766.33789.59766a.78928.78928,0,0,0,.3125-.06445v.92285a3.40594,3.40594,0,0,1-.78027.09082c-.57227,0-.832-.24707-.936-.84473a2.90439,2.90439,0,0,1-2.17089.92285,1.866,1.866,0,0,1-2.0542-1.85937c0-1.01367.624-1.6377,1.89795-1.89746l1.39111-.27344c.7539-.14258.91015-.25977.91015-.64941,0-.61133-.5332-.98829-1.37792-.98829a1.35571,1.35571,0,0,0-1.26124.53321,1.64414,1.64414,0,0,0-.14306.7666Zm3.92627.97461a4.96043,4.96043,0,0,1-.74121.23437l-1.22168.28614c-.728.16894-1.05322.46777-1.05322.96191,0,.57227.46777.96191,1.16992.96191a1.76019,1.76019,0,0,0,1.84619-1.63769Z"/>
      <path d="M84.85645,95.55684v.98828a3.42649,3.42649,0,0,1,.52-.66308,1.66411,1.66411,0,0,1,1.11817-.49414,1.45718,1.45718,0,0,1,.66308.15625v1.0791a2.32093,2.32093,0,0,0-.54638-.06543,1.82486,1.82486,0,0,0-1.70313,1.97656v3.30176H83.7124v-6.2793Z"/>
      <path d="M89.01611,98.98946c.09131,1.28613.74121,2.01465,1.82032,2.01465a1.50893,1.50893,0,0,0,1.521-1.0918h1.144a2.58945,2.58945,0,0,1-2.69091,2.09277,3.01731,3.01731,0,0,1-2.99024-3.31543,2.98453,2.98453,0,0,1,2.95117-3.30175A2.57619,2.57619,0,0,1,93.34521,97.26a5.53191,5.53191,0,0,1,.24708,1.72949Zm3.32813-.8711c-.05176-1.14453-.624-1.78125-1.57276-1.78125a1.75033,1.75033,0,0,0-1.74218,1.78125Z"/>
      <path d="M100.59961,101.83614H99.40332v-.67578a2.60164,2.60164,0,0,1-1.98877.84472c-1.67725,0-2.73047-1.2998-2.73047-3.34082,0-2.00195,1.06641-3.27636,2.73047-3.27636a2.6082,2.6082,0,0,1,1.98877.84472V93.16524h1.19629Zm-4.70654-3.14649c0,1.48242.65039,2.31446,1.78125,2.31446,1.144,0,1.79394-.832,1.79394-2.27539,0-1.50782-.63672-2.33985-1.79394-2.33985C96.54346,96.38887,95.89307,97.2209,95.89307,98.68965Z"/>
      <path d="M107.437,94.55586h-1.1958V93.16524h1.1958Zm0,7.28028h-1.1958v-6.2793h1.1958Z"/>
      <path d="M110.32324,95.55684v.71484a2.38309,2.38309,0,0,1,1.98877-.88378,2.11438,2.11438,0,0,1,1.70313.68945,2.34938,2.34938,0,0,1,.416,1.55957v4.19922h-1.1958v-4.1084c0-.85742-.39014-1.27344-1.209-1.27344a1.49012,1.49012,0,0,0-1.65137,1.57227v3.80957h-1.1958v-6.2793Z"/>
      <path d="M122.582,96.50606h-1.13135v3.93945c0,.36328.16944.57129.46827.57129a1.73354,1.73354,0,0,0,.66308-.16894v.97558a4.03107,4.03107,0,0,1-1.001.14258c-.897,0-1.32617-.48047-1.32617-1.52051V96.50606h-.84521v-.94922h.84521V93.56758h1.1958v1.98926H122.582Z"/>
      <path d="M124.93408,96.12911a2.56636,2.56636,0,0,1,1.87207-.74121,1.98,1.98,0,0,1,2.18408,2.249v4.19922h-1.1958V97.83223a1.35971,1.35971,0,0,0-.26025-1.01465,1.25493,1.25493,0,0,0-.96191-.36328,1.51535,1.51535,0,0,0-1.63819,1.67676v3.70508h-1.1958v-8.6709h1.1958Z"/>
      <path d="M131.62891,98.98946c.0913,1.28613.74121,2.01465,1.82031,2.01465a1.50931,1.50931,0,0,0,1.521-1.0918h1.144a2.58981,2.58981,0,0,1-2.69092,2.09277,3.0173,3.0173,0,0,1-2.99023-3.31543,2.98453,2.98453,0,0,1,2.95117-3.30175A2.57678,2.57678,0,0,1,135.9585,97.26a5.54818,5.54818,0,0,1,.24658,1.72949Zm3.32812-.8711c-.05176-1.14453-.624-1.78125-1.57275-1.78125a1.75033,1.75033,0,0,0-1.74219,1.78125Z"/>
      <path d="M142.71777,95.50508v.68848a2.52553,2.52553,0,0,1,1.91114-.81836c1.67724,0,2.78222,1.32617,2.78222,3.36719,0,1.98828-1.04,3.26269-2.67822,3.26269a2.49263,2.49263,0,0,1-2.01514-.88379v2.70411H141.522V95.50508Zm-.06494,3.14551c0,1.52148.624,2.35352,1.78125,2.35352,1.13086,0,1.76807-.832,1.76807-2.31446,0-1.48144-.63721-2.31347-1.76807-2.31347S142.65283,97.20821,142.65283,98.65059Z"/>
      <path d="M152.936,101.83614v-.71485a2.38308,2.38308,0,0,1-1.98877.88379,2.1176,2.1176,0,0,1-1.70313-.68847,2.35226,2.35226,0,0,1-.416-1.56055V95.55684h1.19581v4.1084c0,.85742.39013,1.27344,1.209,1.27344a1.49013,1.49013,0,0,0,1.65137-1.57227V95.55684h1.1958v6.2793Z"/>
      <path d="M155.835,93.16524h1.1958v3.10644a2.62428,2.62428,0,0,1,2.00244-.88378c1.625,0,2.7041,1.2998,2.7041,3.27636,0,2.05371-1.0664,3.34082-2.74316,3.34082a2.47054,2.47054,0,0,1-1.96338-.87109v.70215H155.835Zm1.15674,5.499c0,1.50781.624,2.33985,1.76855,2.33985,1.13086,0,1.76758-.832,1.76758-2.31446,0-1.46875-.63672-2.30078-1.76758-2.30078C157.64209,96.38887,156.9917,97.2209,156.9917,98.66426Z"/>
      <path d="M164.36279,101.83614H163.167v-8.6709h1.1958Z"/>
      <path d="M167.30078,94.55586H166.105V93.16524h1.1958Zm0,7.28028H166.105v-6.2793h1.1958Z"/>
      <path d="M173.437,97.68868a1.48865,1.48865,0,0,0-1.58594-1.29981c-1.144,0-1.91113.91016-1.91113,2.28809,0,1.417.75391,2.32715,1.91113,2.32715a1.57415,1.57415,0,0,0,1.66407-1.52149H174.646a2.61233,2.61233,0,0,1-2.8208,2.52246,3.31476,3.31476,0,0,1,.03857-6.61718,2.48083,2.48083,0,0,1,2.7041,2.30078Z"/>
      <path d="M185.54,101.83614H184.084l-2.17138-3.28907-.897.793v2.4961h-1.1958v-8.6709h1.1958v4.75781l2.69141-2.36621H185.293l-2.53516,2.23633Z"/>
      <path d="M187.65869,95.55684v.71484a2.38341,2.38341,0,0,1,1.98926-.88378,2.11469,2.11469,0,0,1,1.70264.68945,2.34938,2.34938,0,0,1,.416,1.55957v4.19922h-1.1958v-4.1084c0-.85742-.39014-1.27344-1.209-1.27344a1.49012,1.49012,0,0,0-1.65137,1.57227v3.80957h-1.1958v-6.2793Z"/>
      <path d="M199.25439,98.74239a3.0366,3.0366,0,1,1-3.0288-3.35449C198.05859,95.3879,199.25439,96.71407,199.25439,98.74239Zm-4.83593-.05274c0,1.46973.66308,2.31446,1.82031,2.31446,1.13086,0,1.80664-.84473,1.80664-2.27539,0-1.50782-.6499-2.33985-1.81982-2.33985C195.08154,96.38887,194.41846,97.2336,194.41846,98.68965Z"/>
      <path d="M201.71143,101.83614l-1.898-6.2793h1.23486l.92334,3.26367c.02588.12989.05176.19434.23389.97461.02588.12988.03906.2207.14306.75391.06494-.25977.1167-.50684.16895-.7666a3.16478,3.16478,0,0,1,.104-.44239l.12988-.50683.84522-3.27637h1.13086l.87109,3.23731c.11719.49414.27295,1.23535.36377,1.75488.19531-.91016.28614-1.3125.40332-1.74219l.8711-3.25h1.248l-1.91113,6.2793h-1.209l-.793-2.92481c-.19532-.74121-.28614-1.13183-.40332-1.625l-.40284,1.625-.78027,2.92481Z"/>
      <path d="M210.68115,101.83614h-1.1958v-8.6709h1.1958Z"/>
      <path d="M213.30713,98.98946c.09131,1.28613.74121,2.01465,1.82031,2.01465a1.50894,1.50894,0,0,0,1.521-1.0918h1.144a2.58946,2.58946,0,0,1-2.69092,2.09277,3.01731,3.01731,0,0,1-2.99023-3.31543,2.98453,2.98453,0,0,1,2.95117-3.30175A2.5762,2.5762,0,0,1,217.63623,97.26a5.53165,5.53165,0,0,1,.24707,1.72949Zm3.32812-.8711c-.05175-1.14453-.624-1.78125-1.57275-1.78125a1.75033,1.75033,0,0,0-1.74219,1.78125Z"/>
      <path d="M224.89062,101.83614h-1.19628v-.67578a2.60165,2.60165,0,0,1-1.98877.84472c-1.67725,0-2.73047-1.2998-2.73047-3.34082,0-2.00195,1.0664-3.27636,2.73047-3.27636a2.6082,2.6082,0,0,1,1.98877.84472V93.16524h1.19628Zm-4.70654-3.14649c0,1.48242.65039,2.31446,1.78125,2.31446,1.144,0,1.79395-.832,1.79395-2.27539,0-1.50782-.63672-2.33985-1.79395-2.33985C220.83447,96.38887,220.18408,97.2209,220.18408,98.68965Z"/>
      <path d="M232.01465,95.55684v6.03223a2.07633,2.07633,0,0,1-.63721,1.74218,3.33468,3.33468,0,0,1-2.19726.66309,2.81109,2.81109,0,0,1-2.09278-.71484,1.72708,1.72708,0,0,1-.45508-1.15723h1.144c.06494.61133.5459.92285,1.44287.92285,1.13135,0,1.65137-.48047,1.65137-1.52148v-.71485a2.44857,2.44857,0,0,1-1.85938.81934,2.77044,2.77044,0,0,1-2.69092-3.06836c0-1.87207,1.11817-3.17187,2.71729-3.17187a2.18167,2.18167,0,0,1,1.85888.85839l-.02587-.68945ZM227.5293,98.508c0,1.28711.6372,2.08008,1.68994,2.08008,1.02734,0,1.67724-.793,1.67724-2.05371,0-1.31348-.624-2.10645-1.68994-2.10645C228.1665,96.42793,227.5293,97.2209,227.5293,98.508Z"/>
      <path d="M234.65283,98.98946c.09131,1.28613.74121,2.01465,1.82031,2.01465a1.50893,1.50893,0,0,0,1.521-1.0918h1.144a2.58945,2.58945,0,0,1-2.69091,2.09277,3.01731,3.01731,0,0,1-2.99024-3.31543,2.98453,2.98453,0,0,1,2.95117-3.30175A2.57619,2.57619,0,0,1,238.98193,97.26a5.53165,5.53165,0,0,1,.24707,1.72949Zm3.32813-.8711c-.05176-1.14453-.624-1.78125-1.57276-1.78125a1.75033,1.75033,0,0,0-1.74218,1.78125Z"/>
    </g>
    <g style="isolation: isolate">
      <path d="M70.11523,54.21065H65.604V55.9001h3.93946v1.53418H65.604v2.11914h4.58936v1.66407H63.65381v-8.6709h6.46142Z"/>
      <path d="M76.43262,55.26338v-.14355c0-.72754-.57178-1.14356-1.56006-1.14356-.92285,0-1.48194.33789-1.48194.88379,0,.36426.25977.61133.793.74121l1.75489.40332a3.969,3.969,0,0,1,1.91113.85743,2.13647,2.13647,0,0,1,.66309,1.65136c0,1.794-1.37793,2.89942-3.627,2.89942-2.34033,0-3.69238-1.11817-3.70508-3.05567h1.94971c.03906.98828.59815,1.43067,1.78125,1.43067,1.001,0,1.61231-.36426,1.61231-.97559,0-.42871-.3125-.72754-.93653-.88379l-1.57275-.38965a4.37282,4.37282,0,0,1-1.88526-.80664,2.19132,2.19132,0,0,1-.689-1.70312c0-1.67676,1.28711-2.67774,3.48437-2.67774a3.32214,3.32214,0,0,1,2.95069,1.23536,3.41,3.41,0,0,1,.50732,1.67675Z"/>
      <path d="M83.76416,61.21749H81.81445V54.21065H79.188V52.54659h7.20263v1.66406H83.76416Z"/>
      <path d="M88.418,59.4753l-.5459,1.74219H85.75293l3.0293-8.6709h2.43115l2.75586,8.6709h-2.21L91.291,59.4753Zm1.53418-4.99219-1.05322,3.39355H90.8623Z"/>
      <path d="M94.96973,52.54659h3.52343a4.24248,4.24248,0,0,1,2.27491.4414,2.05665,2.05665,0,0,1,.98828,1.76856,1.89378,1.89378,0,0,1-1.22217,1.81933,2.15253,2.15253,0,0,1,1.43018,2.11914,2.37353,2.37353,0,0,1-.89747,1.9502,3.557,3.557,0,0,1-2.40478.57227H94.96973Zm3.7705,3.36621c.70166,0,1.06592-.28516,1.06592-.85742,0-.55957-.36426-.84473-1.06592-.84473H96.88086V55.9128Zm-.02636,3.64062c.81933,0,1.26123-.36426,1.26123-1.05273,0-.68945-.4419-1.05371-1.26123-1.05371h-1.833v2.10644Z"/>
      <path d="M105.38281,61.21749h-1.95019v-8.6709h1.95019Z"/>
      <path d="M109.16553,59.55342h4.23828v1.66407h-6.18848v-8.6709h1.9502Z"/>
      <path d="M116.44531,61.21749h-1.95019v-8.6709h1.95019Z"/>
      <path d="M123.03613,55.26338v-.14355c0-.72754-.57177-1.14356-1.56006-1.14356-.92285,0-1.48193.33789-1.48193.88379,0,.36426.25977.61133.793.74121l1.75488.40332a3.96893,3.96893,0,0,1,1.91113.85743,2.13643,2.13643,0,0,1,.66309,1.65136c0,1.794-1.37793,2.89942-3.62695,2.89942-2.34033,0-3.69238-1.11817-3.70508-3.05567h1.94971c.03906.98828.59814,1.43067,1.78125,1.43067,1.001,0,1.6123-.36426,1.6123-.97559,0-.42871-.3125-.72754-.93652-.88379l-1.57276-.38965a4.37277,4.37277,0,0,1-1.88525-.80664,2.19132,2.19132,0,0,1-.689-1.70312c0-1.67676,1.2871-2.67774,3.48437-2.67774a3.3221,3.3221,0,0,1,2.95068,1.23536,3.41,3.41,0,0,1,.50733,1.67675Z"/>
      <path d="M128.46973,57.47334v3.74415h-1.9502v-8.6709h1.9502v3.26269h3.18506V52.54659H133.605v8.6709h-1.95019V57.47334Z"/>
      <path d="M141.91211,54.21065h-4.51123V55.9001h3.93945v1.53418h-3.93945v2.11914h4.58935v1.66407h-6.53955v-8.6709h6.46143Z"/>
      <path d="M143.41943,52.54659h2.93848c1.75488,0,2.67773.31152,3.458,1.19531a4.63025,4.63025,0,0,1,1.06592,3.09473A4.82178,4.82178,0,0,1,149.751,60.073a4.11009,4.11009,0,0,1-3.32813,1.14454h-3.00342Zm3.26319,7.00683a1.83181,1.83181,0,0,0,1.78125-.84472,3.51008,3.51008,0,0,0,.4292-1.833,3.46419,3.46419,0,0,0-.416-1.79492,1.72324,1.72324,0,0,0-1.66406-.87012h-1.44336v5.34277Z"/>
      <path d="M161.85352,55.31514a1.65794,1.65794,0,0,0-1.75489-1.3125c-1.43017,0-2.249,1.05274-2.249,2.873,0,1.80664.81885,2.88574,2.19678,2.88574a1.7177,1.7177,0,0,0,1.833-1.53418h2.06739a3.55627,3.55627,0,0,1-3.84815,3.18555c-2.561,0-4.19922-1.76856-4.19922-4.53711,0-2.78223,1.61182-4.52442,4.186-4.52442,2.09326,0,3.52344,1.11817,3.75732,2.96387Z"/>
      <path d="M173.4624,56.95381a4.30131,4.30131,0,1,1-8.59326-.07812,4.54125,4.54125,0,0,1,1.33887-3.41992,4.264,4.264,0,0,1,2.95117-1.1045C171.77246,52.35127,173.4624,54.15791,173.4624,56.95381Zm-6.55224-.07812c0,1.80664.84521,2.88574,2.2622,2.88574,1.39112,0,2.249-1.0791,2.249-2.84668,0-1.834-.832-2.91211-2.26221-2.91211C167.75537,54.00264,166.91016,55.08077,166.91016,56.87569Z"/>
      <path d="M180.05273,61.21749l-2.457-4.4336-.897-1.68945c.02588.45508.02588.78027.02588,1.04.01318.46777.01318.97461.01318,1.52051v3.5625h-1.78125v-8.6709h2.02832L179.377,56.862c.33789.65039.55909,1.10547.88379,1.75586-.02588-.35157-.02588-.58594-.02588-.84571l-.01269-.64941V52.54659h1.78076v8.6709Z"/>
      <path d="M188.59375,55.26338v-.14355c0-.72754-.57178-1.14356-1.56006-1.14356-.92285,0-1.48193.33789-1.48193.88379,0,.36426.25976.61133.793.74121l1.75488.40332a3.96893,3.96893,0,0,1,1.91113.85743,2.13643,2.13643,0,0,1,.66309,1.65136c0,1.794-1.37793,2.89942-3.627,2.89942-2.34034,0-3.69239-1.11817-3.70508-3.05567h1.9497c.03907.98828.59815,1.43067,1.78125,1.43067,1.001,0,1.61231-.36426,1.61231-.97559,0-.42871-.3125-.72754-.93652-.88379l-1.57276-.38965a4.37271,4.37271,0,0,1-1.88525-.80664,2.19129,2.19129,0,0,1-.689-1.70312c0-1.67676,1.28711-2.67774,3.48438-2.67774a3.3221,3.3221,0,0,1,2.95068,1.23536,3.41011,3.41011,0,0,1,.50733,1.67675Z"/>
      <path d="M194.02734,61.21749h-1.95019v-8.6709h3.40625a3.18664,3.18664,0,0,1,2.36621.66308,2.95129,2.95129,0,0,1,.936,2.26172,2.82313,2.82313,0,0,1-.74121,2.002,2.76649,2.76649,0,0,1-2.18408.793h-1.833Zm1.53418-4.61524a1.19642,1.19642,0,1,0,0-2.3916h-1.53418v2.3916Z"/>
      <path d="M201.94434,61.21749h-1.9502v-8.6709h1.9502Z"/>
      <path d="M205.688,61.21749h-1.91113v-8.6709h3.7832a3.5884,3.5884,0,0,1,2.26221.51953,2.17951,2.17951,0,0,1,.832,1.82031,2.02883,2.02883,0,0,1-1.44287,2.09277c.85791.27344,1.15673.72852,1.22168,1.87207l.06543,1.23536a1.82814,1.82814,0,0,0,.35058,1.13086H208.938c-.23389-.18165-.29883-.3125-.32471-.75391L208.53516,59.28c-.07813-1.06543-.5459-1.53321-1.54688-1.53321H205.688Zm1.91113-5.00489c.71484,0,1.105-.36426,1.105-1.001,0-.6377-.39014-1.001-1.105-1.001H205.688v2.002Z"/>
      <path d="M214.28076,59.4753l-.5459,1.74219h-2.11914l3.0293-8.6709h2.43066l2.75635,8.6709h-2.21l-.46826-1.74219Zm1.53418-4.99219-1.05322,3.39355h1.96338Z"/>
      <path d="M226.21484,55.31514a1.65793,1.65793,0,0,0-1.75488-1.3125c-1.43017,0-2.249,1.05274-2.249,2.873,0,1.80664.81885,2.88574,2.19677,2.88574a1.71771,1.71771,0,0,0,1.833-1.53418h2.06739A3.55627,3.55627,0,0,1,224.46,61.4128c-2.561,0-4.19922-1.76856-4.19922-4.53711,0-2.78223,1.61182-4.52442,4.186-4.52442,2.09326,0,3.52343,1.11817,3.75732,2.96387Z"/>
      <path d="M231.53174,61.21749h-1.9502v-8.6709h1.9502Z"/>
      <path d="M239.82568,54.21065h-4.51123V55.9001h3.939v1.53418h-3.939v2.11914h4.58936v1.66407h-6.53955v-8.6709h6.46142Z"/>
      <path d="M246.14307,55.26338v-.14355c0-.72754-.57178-1.14356-1.56006-1.14356-.92285,0-1.48194.33789-1.48194.88379,0,.36426.25977.61133.793.74121l1.75489.40332a3.969,3.969,0,0,1,1.91113.85743,2.13476,2.13476,0,0,1,.66308,1.65136c0,1.794-1.37793,2.89942-3.62695,2.89942-2.34033,0-3.69238-1.11817-3.70508-3.05567h1.94971c.03906.98828.59814,1.43067,1.78125,1.43067,1.001,0,1.61182-.36426,1.61182-.97559,0-.42871-.31153-.72754-.93555-.88379l-1.57324-.38965a4.37564,4.37564,0,0,1-1.88526-.80664,2.19132,2.19132,0,0,1-.689-1.70312c0-1.67676,1.28711-2.67774,3.48437-2.67774a3.32366,3.32366,0,0,1,2.95118,1.23536,3.41534,3.41534,0,0,1,.50683,1.67675Z"/>
    </g>
    <g id="SEZ-COLLAGE-on">
      <path d="M52.22667,52.85263l0,31.79472H31.96533l0-31.79472H52.22667m1-1H30.96532v1l0,31.79472v1H53.22668v-1l0-31.79472v-1Z"/>
    </g>
    <g style="isolation: isolate">
      <path d="M318.72949,85.528l-3.54931-5.47363c-.4292-.67578-.689-1.10449-.897-1.49512.02588.39063.03907,1.21.03907,1.63867V85.528h-1.17041v-8.6709h1.26123l3.40625,5.27735a20.53309,20.53309,0,0,1,1.02685,1.79492c-.02588-.48145-.03906-1.01465-.03906-1.626V76.90889h1.17041V85.528Z"/>
      <path d="M322.79736,82.68135c.09131,1.28614.74121,2.01465,1.82032,2.01465a1.50931,1.50931,0,0,0,1.521-1.0918h1.144A2.58981,2.58981,0,0,1,324.5918,85.697a3.01732,3.01732,0,0,1-2.99024-3.31543,2.98454,2.98454,0,0,1,2.95117-3.30176,2.57677,2.57677,0,0,1,2.57422,1.87207,5.54819,5.54819,0,0,1,.24659,1.72949Zm3.32813-.87109c-.05176-1.14453-.624-1.78125-1.57276-1.78125a1.75033,1.75033,0,0,0-1.74218,1.78125Z"/>
      <path d="M329.83057,85.528l-1.898-6.27929h1.23486l.92334,3.26367c.02588.12988.05176.19433.23389.97461.02588.12988.03906.2207.14306.7539.06494-.25976.1167-.50683.169-.7666a3.16406,3.16406,0,0,1,.104-.44238l.12989-.50684.84521-3.27636h1.13086l.87109,3.2373c.11719.49414.273,1.23535.36426,1.75488.19483-.91015.28565-1.3125.40283-1.74218l.8711-3.25h1.248L334.69287,85.528h-1.209l-.793-2.9248c-.19531-.74121-.28613-1.13184-.40332-1.625l-.40283,1.625-.78028,2.9248Z"/>
      <path d="M345.82031,81.38057a1.48864,1.48864,0,0,0-1.58593-1.2998c-1.144,0-1.91114.91015-1.91114,2.28808,0,1.417.75391,2.32715,1.91114,2.32715a1.57414,1.57414,0,0,0,1.66406-1.52148h1.13086a2.61233,2.61233,0,0,1-2.8208,2.52246,3.31477,3.31477,0,0,1,.03857-6.61719,2.48084,2.48084,0,0,1,2.7041,2.30078Z"/>
      <path d="M354.0625,82.43428a3.03683,3.03683,0,1,1-3.0293-3.35449C352.86621,79.07979,354.0625,80.406,354.0625,82.43428Zm-4.83643-.05273c0,1.46972.66309,2.31445,1.81983,2.31445,1.13135,0,1.80713-.84473,1.80713-2.27539,0-1.50781-.64991-2.33984-1.81983-2.33984C349.88916,80.08077,349.22607,80.92549,349.22607,82.38155Z"/>
      <path d="M356.62305,79.24874v.71484a2.38338,2.38338,0,0,1,1.98925-.88379,2.11466,2.11466,0,0,1,1.70264.68945,2.34932,2.34932,0,0,1,.416,1.55957V85.528h-1.1958v-4.1084c0-.85742-.39014-1.27343-1.209-1.27343a1.49012,1.49012,0,0,0-1.65137,1.57226V85.528H355.479V79.24874Z"/>
      <path d="M366.1001,81.17256a1.25654,1.25654,0,0,0-1.43018-1.10449c-.71484,0-1.19629.29883-1.19629.74121,0,.31153.22119.51953.728.64942l1.45605.377c1.313.33789,1.85938.88379,1.85938,1.84668,0,1.23437-1.01416,2.01465-2.61328,2.01465-1.70313,0-2.71729-.832-2.84717-2.32715h1.18311c.06494.832.689,1.32617,1.68994,1.32617.8584,0,1.417-.37695,1.417-.96191,0-.416-.27295-.63672-1.001-.832l-1.248-.3125a3.08857,3.08857,0,0,1-1.32569-.585,1.45976,1.45976,0,0,1-.46826-1.0791c0-1.0791,1.001-1.8457,2.418-1.8457a2.63023,2.63023,0,0,1,2.08008.832,2.08709,2.08709,0,0,1,.44238,1.26074Z"/>
      <path d="M370.06445,79.197v.68847a2.5248,2.5248,0,0,1,1.91114-.81836c1.67724,0,2.78222,1.32618,2.78222,3.36719,0,1.98828-1.04,3.2627-2.67822,3.2627a2.49329,2.49329,0,0,1-2.01514-.88379v2.7041h-1.1958V79.197Zm-.06494,3.14551c0,1.52148.624,2.35351,1.78125,2.35351,1.13086,0,1.76807-.832,1.76807-2.31445,0-1.48145-.63721-2.31348-1.76807-2.31348C370.64941,80.06807,369.99951,80.9001,369.99951,82.34249Z"/>
      <path d="M377.37061,78.24776H376.1748V76.85713h1.19581Zm0,7.28027H376.1748V79.24874h1.19581Z"/>
      <path d="M380.25684,79.24874V80.237a3.42619,3.42619,0,0,1,.52-.66309,1.6631,1.6631,0,0,1,1.11816-.49414,1.45537,1.45537,0,0,1,.6626.15625v1.0791a2.3151,2.3151,0,0,0-.5459-.06543,1.82486,1.82486,0,0,0-1.70313,1.97656V85.528h-1.1958V79.24874Z"/>
      <path d="M383.5459,81.32881a2.38829,2.38829,0,0,1,.50732-1.53418,2.73169,2.73169,0,0,1,2.041-.71484c1.56006,0,2.44385.74121,2.44385,2.041V84.072c0,.49414.06494.59765.33789.59765a.78914.78914,0,0,0,.3125-.06445V85.528a3.40608,3.40608,0,0,1-.78028.09082c-.57226,0-.832-.24707-.936-.84472a2.90444,2.90444,0,0,1-2.1709.92285,1.866,1.866,0,0,1-2.0542-1.85938c0-1.01367.624-1.63769,1.89795-1.89746l1.39111-.27344c.75391-.14257.91016-.25976.91016-.64941,0-.61133-.5332-.98828-1.37793-.98828a1.35567,1.35567,0,0,0-1.26123.5332,1.644,1.644,0,0,0-.14307.7666Zm3.92627.97461a4.96034,4.96034,0,0,1-.74121.23438l-1.22168.28613c-.728.16895-1.05323.46777-1.05323.96191,0,.57227.46778.96192,1.16993.96192a1.76019,1.76019,0,0,0,1.84619-1.6377Z"/>
      <path d="M394.73877,81.38057a1.48865,1.48865,0,0,0-1.58594-1.2998c-1.144,0-1.91113.91015-1.91113,2.28808,0,1.417.75391,2.32715,1.91113,2.32715a1.57413,1.57413,0,0,0,1.66406-1.52148h1.13086A2.61232,2.61232,0,0,1,393.127,85.697a3.31475,3.31475,0,0,1,.03907-6.61719,2.4814,2.4814,0,0,1,2.7041,2.30078Z"/>
      <path d="M398.41748,78.24776h-1.1958V76.85713h1.1958Zm0,7.28027h-1.1958V79.24874h1.1958Z"/>
      <path d="M401.04346,82.68135c.09131,1.28614.74121,2.01465,1.82031,2.01465a1.50933,1.50933,0,0,0,1.521-1.0918h1.144a2.58982,2.58982,0,0,1-2.69092,2.09278,3.01731,3.01731,0,0,1-2.99023-3.31543,2.98454,2.98454,0,0,1,2.95117-3.30176,2.57678,2.57678,0,0,1,2.57422,1.87207,5.54823,5.54823,0,0,1,.24658,1.72949Zm3.32812-.87109c-.05176-1.14453-.624-1.78125-1.57275-1.78125a1.75033,1.75033,0,0,0-1.74219,1.78125Z"/>
      <path d="M410.65088,81.17256a1.25653,1.25653,0,0,0-1.43018-1.10449c-.71484,0-1.19629.29883-1.19629.74121,0,.31153.2212.51953.728.64942l1.45606.377c1.313.33789,1.85937.88379,1.85937,1.84668,0,1.23437-1.01416,2.01465-2.61328,2.01465-1.70313,0-2.71729-.832-2.84717-2.32715h1.18311c.06494.832.689,1.32617,1.68994,1.32617.8584,0,1.417-.37695,1.417-.96191,0-.416-.273-.63672-1.001-.832l-1.248-.3125a3.08857,3.08857,0,0,1-1.32569-.585,1.45976,1.45976,0,0,1-.46826-1.0791c0-1.0791,1.001-1.8457,2.418-1.8457a2.63023,2.63023,0,0,1,2.08008.832,2.087,2.087,0,0,1,.44238,1.26074Z"/>
      <path d="M414.86182,84.22823v1.10449a1.801,1.801,0,0,1-1.33887,1.96289v-.7793a.96325.96325,0,0,0,.52-.98828h-.52v-1.2998Z"/>
      <path d="M420.5166,76.85713h1.1958v3.10645a2.625,2.625,0,0,1,2.00244-.88379c1.625,0,2.70411,1.2998,2.70411,3.27637,0,2.05371-1.06641,3.34082-2.74317,3.34082a2.47052,2.47052,0,0,1-1.96338-.8711V85.528h-1.1958Zm1.15723,5.499c0,1.50781.624,2.33984,1.76758,2.33984,1.13134,0,1.76855-.832,1.76855-2.31445,0-1.46875-.63721-2.30078-1.76855-2.30078C422.32373,80.08077,421.67383,80.9128,421.67383,82.35616Z"/>
      <path d="M433.582,82.43428a3.03683,3.03683,0,1,1-3.0293-3.35449C432.38574,79.07979,433.582,80.406,433.582,82.43428Zm-4.83642-.05273c0,1.46972.66308,2.31445,1.81982,2.31445,1.13135,0,1.80713-.84473,1.80713-2.27539,0-1.50781-.6499-2.33984-1.81983-2.33984C429.40869,80.08077,428.74561,80.92549,428.74561,82.38155Z"/>
      <path d="M436.14258,79.24874V80.237a3.42619,3.42619,0,0,1,.52-.66309,1.6631,1.6631,0,0,1,1.11816-.49414,1.45537,1.45537,0,0,1,.6626.15625v1.0791a2.315,2.315,0,0,0-.5459-.06543,1.82486,1.82486,0,0,0-1.70312,1.97656V85.528h-1.1958V79.24874Z"/>
      <path d="M440.6665,79.24874v.71484a2.38308,2.38308,0,0,1,1.98877-.88379,2.11438,2.11438,0,0,1,1.70313.68945,2.34938,2.34938,0,0,1,.416,1.55957V85.528h-1.1958v-4.1084c0-.85742-.39013-1.27343-1.209-1.27343a1.49012,1.49012,0,0,0-1.65137,1.57226V85.528h-1.1958V79.24874Z"/>
      <path d="M452.92529,80.198H451.794v3.93946c0,.36328.16943.57129.46826.57129a1.73361,1.73361,0,0,0,.66308-.16895v.97559a4.03093,4.03093,0,0,1-1.001.14257c-.897,0-1.32618-.48046-1.32618-1.5205V80.198h-.84521v-.94921h.84521V77.25948H451.794v1.98926h1.13134Z"/>
      <path d="M455.27783,79.821a2.5664,2.5664,0,0,1,1.87207-.74121,1.98,1.98,0,0,1,2.18408,2.249V85.528h-1.1958v-4.0039a1.3597,1.3597,0,0,0-.26025-1.01465,1.25493,1.25493,0,0,0-.96191-.36328,1.51535,1.51535,0,0,0-1.63819,1.67675V85.528H454.082v-8.6709h1.1958Z"/>
      <path d="M461.07568,81.32881a2.38834,2.38834,0,0,1,.50733-1.53418,2.73168,2.73168,0,0,1,2.041-.71484c1.56006,0,2.44385.74121,2.44385,2.041V84.072c0,.49414.06494.59765.33838.59765a.78643.78643,0,0,0,.31152-.06445V85.528a3.39889,3.39889,0,0,1-.77978.09082c-.57178,0-.832-.24707-.936-.84472a2.90443,2.90443,0,0,1-2.1709.92285,1.866,1.866,0,0,1-2.05419-1.85938c0-1.01367.624-1.63769,1.89794-1.89746l1.39112-.27344c.7539-.14257.91015-.25976.91015-.64941,0-.61133-.5332-.98828-1.37841-.98828a1.35532,1.35532,0,0,0-1.26075.5332,1.6506,1.6506,0,0,0-.14306.7666Zm3.92627.97461a4.96034,4.96034,0,0,1-.74121.23438l-1.22168.28613c-.728.16895-1.05322.46777-1.05322.96191,0,.57227.46826.96192,1.16992.96192a1.76019,1.76019,0,0,0,1.84619-1.6377Z"/>
      <path d="M469.01855,79.24874v.71484a2.3834,2.3834,0,0,1,1.98926-.88379,2.11466,2.11466,0,0,1,1.70264.68945,2.34932,2.34932,0,0,1,.416,1.55957V85.528h-1.1958v-4.1084c0-.85742-.39013-1.27343-1.209-1.27343a1.49012,1.49012,0,0,0-1.65137,1.57226V85.528h-1.1958V79.24874Z"/>
      <path d="M480.60156,85.528h-1.45605l-2.1709-3.28906-.89746.793V85.528h-1.1958v-8.6709h1.1958v4.75782l2.6914-2.36621h1.58594l-2.53515,2.23632Z"/>
      <path d="M484.95654,81.17256a1.25652,1.25652,0,0,0-1.43017-1.10449c-.71485,0-1.19629.29883-1.19629.74121,0,.31153.22119.51953.728.64942l1.45605.377c1.313.33789,1.85938.88379,1.85938,1.84668,0,1.23437-1.01416,2.01465-2.61329,2.01465-1.70312,0-2.71728-.832-2.84716-2.32715h1.1831c.06494.832.689,1.32617,1.68994,1.32617.8584,0,1.417-.37695,1.417-.96191,0-.416-.27294-.63672-1.001-.832l-1.24805-.3125a3.08851,3.08851,0,0,1-1.32568-.585,1.45976,1.45976,0,0,1-.46826-1.0791c0-1.0791,1.001-1.8457,2.418-1.8457a2.63021,2.63021,0,0,1,2.08008.832,2.08709,2.08709,0,0,1,.44239,1.26074Z"/>
      <path d="M494.05615,80.198H492.9248v3.93946c0,.36328.16944.57129.46827.57129a1.73361,1.73361,0,0,0,.66308-.16895v.97559a4.03093,4.03093,0,0,1-1.001.14257c-.897,0-1.32618-.48046-1.32618-1.5205V80.198h-.84521v-.94921h.84521V77.25948h1.1958v1.98926h1.13135Z"/>
      <path d="M500.77637,82.43428a3.0366,3.0366,0,1,1-3.02881-3.35449C499.58057,79.07979,500.77637,80.406,500.77637,82.43428Zm-4.83594-.05273c0,1.46972.66309,2.31445,1.82031,2.31445,1.13086,0,1.80664-.84473,1.80664-2.27539,0-1.50781-.6499-2.33984-1.81982-2.33984C496.60352,80.08077,495.94043,80.92549,495.94043,82.38155Z"/>
      <path d="M315.49219,95.79756h-1.13086V99.737c0,.36328.16894.57129.46777.57129a1.73364,1.73364,0,0,0,.66309-.169v.97559a4.02817,4.02817,0,0,1-1.001.14257c-.897,0-1.32617-.48046-1.32617-1.5205V95.79756h-.84522v-.94922h.84522V92.85909h1.19629v1.98925h1.13086Z"/>
      <path d="M317.84424,95.42061a2.56638,2.56638,0,0,1,1.87207-.74121,1.98,1.98,0,0,1,2.18408,2.249v4.19922h-1.1958v-4.0039a1.35968,1.35968,0,0,0-.26025-1.01465,1.25493,1.25493,0,0,0-.96192-.36328,1.51534,1.51534,0,0,0-1.63818,1.67675v3.70508h-1.1958v-8.6709h1.1958Z"/>
      <path d="M324.53906,98.281c.09131,1.28613.74121,2.01465,1.82032,2.01465a1.50893,1.50893,0,0,0,1.521-1.0918h1.144a2.58946,2.58946,0,0,1-2.69091,2.09278,3.01732,3.01732,0,0,1-2.99024-3.31543,2.98454,2.98454,0,0,1,2.95117-3.30176,2.5762,2.5762,0,0,1,2.57373,1.87207,5.53169,5.53169,0,0,1,.24707,1.72949Zm3.32813-.87109c-.05176-1.14453-.624-1.78125-1.57276-1.78125a1.75033,1.75033,0,0,0-1.74218,1.78125Z"/>
      <path d="M335.57617,94.84834v.793a1.79966,1.79966,0,0,1,1.70313-.96191,1.54664,1.54664,0,0,1,1.625,1.05273,2.00993,2.00993,0,0,1,1.898-1.05273,1.89707,1.89707,0,0,1,1.54736.65039,2.28212,2.28212,0,0,1,.40283,1.53418v4.26367h-1.19629V96.95479c0-.81934-.33789-1.209-1.04-1.209-.81884,0-1.32568.59765-1.32568,1.55957v3.82226h-1.19629V96.8503a.96475.96475,0,0,0-1.04-1.10449,1.32713,1.32713,0,0,0-1.32617,1.49511v3.88672h-1.1958v-6.2793Z"/>
      <path d="M345.39062,98.281c.09131,1.28613.74122,2.01465,1.82032,2.01465a1.50893,1.50893,0,0,0,1.521-1.0918H349.876a2.58948,2.58948,0,0,1-2.69092,2.09278,3.01732,3.01732,0,0,1-2.99024-3.31543A2.98454,2.98454,0,0,1,347.146,94.6794a2.57622,2.57622,0,0,1,2.57373,1.87207,5.532,5.532,0,0,1,.24707,1.72949Zm3.32813-.87109c-.05176-1.14453-.624-1.78125-1.57275-1.78125a1.75033,1.75033,0,0,0-1.74219,1.78125Z"/>
      <path d="M352.52783,94.84834v.793a1.79966,1.79966,0,0,1,1.70313-.96191,1.54664,1.54664,0,0,1,1.625,1.05273,2.00993,2.00993,0,0,1,1.898-1.05273,1.89471,1.89471,0,0,1,1.54687.65039,2.27932,2.27932,0,0,1,.40332,1.53418v4.26367h-1.19629V96.95479c0-.81934-.33789-1.209-1.04-1.209-.81884,0-1.32568.59765-1.32568,1.55957v3.82226H354.9458V96.8503a.96475.96475,0,0,0-1.04-1.10449,1.32713,1.32713,0,0,0-1.32617,1.49511v3.88672h-1.1958v-6.2793Z"/>
      <path d="M362.34229,98.281c.0913,1.28613.74121,2.01465,1.82031,2.01465a1.50931,1.50931,0,0,0,1.521-1.0918h1.144a2.58982,2.58982,0,0,1-2.69092,2.09278,3.01732,3.01732,0,0,1-2.99024-3.31543,2.98455,2.98455,0,0,1,2.95118-3.30176,2.57679,2.57679,0,0,1,2.57422,1.87207,5.54823,5.54823,0,0,1,.24658,1.72949Zm3.32812-.87109c-.05176-1.14453-.624-1.78125-1.57275-1.78125a1.75033,1.75033,0,0,0-1.74219,1.78125Z"/>
      <path d="M374.70557,95.79756h-1.105v5.33008H372.4043V95.79756h-.88379v-.94922h.88379V93.821c0-1.0918.46777-1.52051,1.66406-1.52051a3.11237,3.11237,0,0,1,.63721.06446v1.01464a3.32137,3.32137,0,0,0-.45508-.03906c-.52,0-.6499.16895-.6499.85742v.65039h1.105Z"/>
      <path d="M381.30957,98.03389a3.03683,3.03683,0,1,1-3.0293-3.35449C380.11328,94.6794,381.30957,96.00557,381.30957,98.03389Zm-4.83643-.05273c0,1.46972.66309,2.31445,1.81983,2.31445,1.13135,0,1.80713-.84473,1.80713-2.27539,0-1.50781-.6499-2.33984-1.81983-2.33984C377.13623,95.68038,376.47314,96.5251,376.47314,97.98116Z"/>
      <path d="M383.87012,94.84834v.98829a3.42619,3.42619,0,0,1,.52-.66309,1.6631,1.6631,0,0,1,1.11816-.49414,1.45537,1.45537,0,0,1,.6626.15625v1.0791a2.315,2.315,0,0,0-.5459-.06543,1.82486,1.82486,0,0,0-1.70312,1.97656v3.30176h-1.19581v-6.2793Z"/>
      <path d="M388.394,94.84834v.793a1.79966,1.79966,0,0,1,1.70313-.96191,1.54663,1.54663,0,0,1,1.625,1.05273,2.00993,2.00993,0,0,1,1.89795-1.05273,1.89471,1.89471,0,0,1,1.54687.65039,2.27932,2.27932,0,0,1,.40332,1.53418v4.26367H394.374V96.95479c0-.81934-.33789-1.209-1.04-1.209-.81884,0-1.32568.59765-1.32568,1.55957v3.82226H390.812V96.8503a.96475.96475,0,0,0-1.04-1.10449,1.32713,1.32713,0,0,0-1.32617,1.49511v3.88672H387.25v-6.2793Z"/>
      <path d="M397.31152,96.92842a2.38834,2.38834,0,0,1,.50733-1.53418,2.73164,2.73164,0,0,1,2.041-.71484c1.56006,0,2.44385.74121,2.44385,2.041v2.95118c0,.49414.06494.59765.33789.59765a.78911.78911,0,0,0,.3125-.06445v.92285a3.40594,3.40594,0,0,1-.78027.09082c-.57227,0-.832-.24707-.936-.84472a2.90443,2.90443,0,0,1-2.1709.92285,1.866,1.866,0,0,1-2.05419-1.85938c0-1.01367.624-1.63769,1.89794-1.89746l1.39112-.27344c.7539-.14257.91015-.25976.91015-.64941,0-.61133-.5332-.98828-1.37793-.98828a1.3557,1.3557,0,0,0-1.26123.5332,1.64417,1.64417,0,0,0-.14306.7666Zm3.92627.97461a4.96034,4.96034,0,0,1-.74121.23438l-1.22168.28613c-.728.16895-1.05322.46777-1.05322.96191,0,.57227.46777.96192,1.16992.96192a1.76019,1.76019,0,0,0,1.84619-1.6377Z"/>
      <path d="M406.59375,95.79756h-1.13086V99.737c0,.36328.16895.57129.46777.57129a1.73364,1.73364,0,0,0,.66309-.169v.97559a4.02812,4.02812,0,0,1-1.001.14257c-.897,0-1.32617-.48046-1.32617-1.5205V95.79756h-.84521v-.94922h.84521V92.85909h1.19629v1.98925h1.13086Z"/>
      <path d="M409.21924,99.82784v1.10449a1.801,1.801,0,0,1-1.33887,1.96289v-.7793a.96325.96325,0,0,0,.52-.98828h-.52v-1.2998Z"/>
      <path d="M420.25635,94.84834v6.03223a2.07636,2.07636,0,0,1-.63721,1.74219,3.33473,3.33473,0,0,1-2.19726.66308,2.81109,2.81109,0,0,1-2.09278-.71484,1.727,1.727,0,0,1-.45508-1.15723h1.14405c.06494.61133.54589.92286,1.44287.92286,1.13135,0,1.65136-.48047,1.65136-1.52149v-.71484a2.44853,2.44853,0,0,1-1.85937.81933,2.77044,2.77044,0,0,1-2.69092-3.06836c0-1.87207,1.11817-3.17187,2.71729-3.17187a2.18167,2.18167,0,0,1,1.85888.8584l-.02588-.68946ZM415.771,97.79952c0,1.28711.6372,2.08007,1.68994,2.08007,1.02734,0,1.67724-.793,1.67724-2.05371,0-1.31347-.624-2.10644-1.68994-2.10644C416.4082,95.71944,415.771,96.51241,415.771,97.79952Z"/>
      <path d="M422.89453,98.281c.09131,1.28613.74121,2.01465,1.82031,2.01465a1.50894,1.50894,0,0,0,1.521-1.0918h1.144a2.58947,2.58947,0,0,1-2.69092,2.09278,3.01731,3.01731,0,0,1-2.99023-3.31543,2.98454,2.98454,0,0,1,2.95117-3.30176,2.5762,2.5762,0,0,1,2.57373,1.87207,5.53169,5.53169,0,0,1,.24707,1.72949Zm3.32813-.87109c-.05176-1.14453-.624-1.78125-1.57276-1.78125a1.75033,1.75033,0,0,0-1.74219,1.78125Z"/>
      <path d="M430.03174,94.84834v.71485a2.38306,2.38306,0,0,1,1.98877-.88379,2.11435,2.11435,0,0,1,1.70312.68945,2.34932,2.34932,0,0,1,.416,1.55957v4.19922h-1.1958v-4.1084c0-.85742-.39014-1.27343-1.209-1.27343a1.49011,1.49011,0,0,0-1.65136,1.57226v3.80957h-1.1958v-6.2793Z"/>
      <path d="M436.77832,98.281c.09131,1.28613.74121,2.01465,1.82031,2.01465a1.50894,1.50894,0,0,0,1.521-1.0918h1.144a2.58947,2.58947,0,0,1-2.69092,2.09278,3.01731,3.01731,0,0,1-2.99023-3.31543,2.98454,2.98454,0,0,1,2.95117-3.30176,2.5762,2.5762,0,0,1,2.57373,1.87207,5.53169,5.53169,0,0,1,.24707,1.72949Zm3.32813-.87109c-.05176-1.14453-.624-1.78125-1.57276-1.78125a1.75033,1.75033,0,0,0-1.74219,1.78125Z"/>
      <path d="M443.91553,94.84834v.98829a3.42619,3.42619,0,0,1,.52-.66309,1.66407,1.66407,0,0,1,1.11816-.49414,1.45738,1.45738,0,0,1,.66309.15625v1.0791a2.32148,2.32148,0,0,0-.54639-.06543,1.82486,1.82486,0,0,0-1.70312,1.97656v3.30176h-1.19581v-6.2793Z"/>
      <path d="M447.20459,96.92842a2.38834,2.38834,0,0,1,.50732-1.53418,2.73167,2.73167,0,0,1,2.041-.71484c1.56006,0,2.44385.74121,2.44385,2.041v2.95118c0,.49414.06494.59765.33838.59765a.7865.7865,0,0,0,.31152-.06445v.92285a3.399,3.399,0,0,1-.77979.09082c-.57177,0-.832-.24707-.936-.84472a2.90444,2.90444,0,0,1-2.1709.92285,1.866,1.866,0,0,1-2.0542-1.85938c0-1.01367.624-1.63769,1.898-1.89746l1.39111-.27344c.75391-.14257.91016-.25976.91016-.64941,0-.61133-.5332-.98828-1.37842-.98828a1.3553,1.3553,0,0,0-1.26074.5332,1.65052,1.65052,0,0,0-.14307.7666Zm3.92627.97461a4.96034,4.96034,0,0,1-.74121.23438l-1.22168.28613c-.728.16895-1.05322.46777-1.05322.96191,0,.57227.46826.96192,1.16992.96192a1.76019,1.76019,0,0,0,1.84619-1.6377Z"/>
      <path d="M456.48633,95.79756h-1.13086V99.737c0,.36328.16894.57129.46777.57129a1.73364,1.73364,0,0,0,.66309-.169v.97559a4.02817,4.02817,0,0,1-1.001.14257c-.897,0-1.32617-.48046-1.32617-1.5205V95.79756H453.314v-.94922h.84522V92.85909h1.19629v1.98925h1.13086Z"/>
      <path d="M458.35791,98.281c.09131,1.28613.74121,2.01465,1.82031,2.01465a1.50931,1.50931,0,0,0,1.521-1.0918h1.144a2.58982,2.58982,0,0,1-2.69092,2.09278,3.01731,3.01731,0,0,1-2.99023-3.31543,2.98454,2.98454,0,0,1,2.95117-3.30176,2.57678,2.57678,0,0,1,2.57422,1.87207,5.54793,5.54793,0,0,1,.24658,1.72949Zm3.32813-.87109c-.05176-1.14453-.624-1.78125-1.57276-1.78125a1.75033,1.75033,0,0,0-1.74219,1.78125Z"/>
      <path d="M469.94141,101.12764h-1.19629v-.67578a2.60194,2.60194,0,0,1-1.98926.84473c-1.67676,0-2.73-1.29981-2.73-3.34082,0-2.002,1.06592-3.27637,2.73-3.27637a2.60849,2.60849,0,0,1,1.98926.84473V92.45674h1.19629Zm-4.70655-3.14648c0,1.48242.65039,2.31445,1.78125,2.31445,1.144,0,1.79395-.832,1.79395-2.27539,0-1.50781-.63672-2.33984-1.79395-2.33984C465.88525,95.68038,465.23486,96.51241,465.23486,97.98116Z"/>
      <path d="M475.56982,96.92842a2.38834,2.38834,0,0,1,.50733-1.53418,2.73164,2.73164,0,0,1,2.041-.71484c1.56006,0,2.44385.74121,2.44385,2.041v2.95118c0,.49414.06494.59765.33838.59765a.78643.78643,0,0,0,.31152-.06445v.92285a3.39889,3.39889,0,0,1-.77978.09082c-.57178,0-.832-.24707-.936-.84472a2.90442,2.90442,0,0,1-2.17089.92285,1.866,1.866,0,0,1-2.0542-1.85938c0-1.01367.624-1.63769,1.89795-1.89746l1.39111-.27344c.7539-.14257.91015-.25976.91015-.64941,0-.61133-.5332-.98828-1.37841-.98828a1.35532,1.35532,0,0,0-1.26075.5332,1.65056,1.65056,0,0,0-.14306.7666Zm3.92627.97461a4.96034,4.96034,0,0,1-.74121.23438l-1.22168.28613c-.728.16895-1.05322.46777-1.05322.96191,0,.57227.46826.96192,1.16992.96192a1.76019,1.76019,0,0,0,1.84619-1.6377Z"/>
      <path d="M483.5127,94.84834v.98829a3.42663,3.42663,0,0,1,.52-.66309,1.66314,1.66314,0,0,1,1.11817-.49414,1.45537,1.45537,0,0,1,.6626.15625v1.0791a2.31516,2.31516,0,0,0-.5459-.06543,1.82486,1.82486,0,0,0-1.70313,1.97656v3.30176h-1.1958v-6.2793Z"/>
      <path d="M492.50879,98.03389a3.03683,3.03683,0,1,1-3.0293-3.35449C491.3125,94.6794,492.50879,96.00557,492.50879,98.03389Zm-4.83643-.05273c0,1.46972.66309,2.31445,1.81983,2.31445,1.13135,0,1.80713-.84473,1.80713-2.27539,0-1.50781-.64991-2.33984-1.81983-2.33984C488.33545,95.68038,487.67236,96.5251,487.67236,97.98116Z"/>
      <path d="M498.0332,101.12764v-.71484a2.38309,2.38309,0,0,1-1.98877.88379,2.11757,2.11757,0,0,1-1.70312-.68848,2.35222,2.35222,0,0,1-.416-1.56055V94.84834h1.1958v4.1084c0,.85742.39014,1.27344,1.209,1.27344a1.49013,1.49013,0,0,0,1.65137-1.57227V94.84834h1.1958v6.2793Z"/>
      <path d="M502.07617,94.84834v.71485a2.3834,2.3834,0,0,1,1.98926-.88379,2.11469,2.11469,0,0,1,1.70264.68945,2.34938,2.34938,0,0,1,.416,1.55957v4.19922h-1.1958v-4.1084c0-.85742-.39014-1.27343-1.209-1.27343a1.49011,1.49011,0,0,0-1.65137,1.57226v3.80957h-1.1958v-6.2793Z"/>
      <path d="M513.5293,101.12764H512.333v-.67578a2.60194,2.60194,0,0,1-1.98926.84473c-1.67676,0-2.73-1.29981-2.73-3.34082,0-2.002,1.06592-3.27637,2.73-3.27637a2.60849,2.60849,0,0,1,1.98926.84473V92.45674h1.19629Zm-4.70655-3.14648c0,1.48242.65039,2.31445,1.78125,2.31445,1.144,0,1.794-.832,1.794-2.27539,0-1.50781-.63672-2.33984-1.794-2.33984C509.47314,95.68038,508.82275,96.51241,508.82275,97.98116Z"/>
      <path d="M317.104,116.72725v-.71484a2.38309,2.38309,0,0,1-1.98877.88379,2.11757,2.11757,0,0,1-1.70312-.68848,2.355,2.355,0,0,1-.416-1.56055V110.448h1.1958v4.1084c0,.85742.39014,1.27344,1.20948,1.27344a1.49,1.49,0,0,0,1.65088-1.57227V110.448h1.1958v6.2793Z"/>
      <path d="M321.147,110.448v.71485a2.38308,2.38308,0,0,1,1.98877-.88379,2.11438,2.11438,0,0,1,1.70313.68945,2.34938,2.34938,0,0,1,.416,1.55957v4.19922h-1.1958v-4.1084c0-.85742-.39013-1.27344-1.209-1.27344a1.49012,1.49012,0,0,0-1.65137,1.57227v3.80957h-1.1958V110.448Z"/>
      <path d="M331.11768,116.72725v-.71484a2.3831,2.3831,0,0,1-1.98877.88379,2.1176,2.1176,0,0,1-1.70313-.68848,2.355,2.355,0,0,1-.416-1.56055V110.448h1.1958v4.1084c0,.85742.39013,1.27344,1.20947,1.27344a1.49,1.49,0,0,0,1.65088-1.57227V110.448h1.1958v6.2793Z"/>
      <path d="M337.63086,112.37178a1.25628,1.25628,0,0,0-1.43018-1.10449c-.71533,0-1.19629.29883-1.19629.74121,0,.31152.2212.51953.728.64941l1.45606.377c1.31347.33789,1.85937.88379,1.85937,1.84668,0,1.23437-1.01416,2.01465-2.61328,2.01465-1.70312,0-2.7168-.832-2.84717-2.32715h1.18311c.06494.832.689,1.32617,1.68994,1.32617.8584,0,1.41748-.37695,1.41748-.96191,0-.416-.27344-.63672-1.00147-.832l-1.248-.3125a3.09137,3.09137,0,0,1-1.32569-.585,1.45976,1.45976,0,0,1-.46826-1.0791c0-1.0791,1.001-1.8457,2.418-1.8457a2.63094,2.63094,0,0,1,2.08008.832,2.09014,2.09014,0,0,1,.44238,1.26074Z"/>
      <path d="M344.44238,116.72725v-.71484a2.38309,2.38309,0,0,1-1.98877.88379,2.11757,2.11757,0,0,1-1.70312-.68848,2.35224,2.35224,0,0,1-.416-1.56055V110.448h1.1958v4.1084c0,.85742.39014,1.27344,1.209,1.27344a1.49012,1.49012,0,0,0,1.65136-1.57227V110.448h1.19581v6.2793Z"/>
      <path d="M347.32812,112.528a2.38832,2.38832,0,0,1,.50733-1.53418,2.73164,2.73164,0,0,1,2.041-.71484c1.56006,0,2.44385.74121,2.44385,2.041v2.95118c0,.49414.06494.59765.33789.59765a.78907.78907,0,0,0,.3125-.06445v.92285a3.40594,3.40594,0,0,1-.78027.09082c-.57227,0-.832-.24707-.936-.84473a2.9044,2.9044,0,0,1-2.17089.92286,1.866,1.866,0,0,1-2.0542-1.85938c0-1.01367.624-1.63769,1.898-1.89746l1.39111-.27344c.75391-.14258.91016-.25976.91016-.64941,0-.61133-.53321-.98828-1.37793-.98828a1.35567,1.35567,0,0,0-1.26123.5332,1.644,1.644,0,0,0-.14307.7666Zm3.92627.97461a4.96,4.96,0,0,1-.74121.23438l-1.22168.28613c-.728.16894-1.05322.46777-1.05322.96191,0,.57227.46777.96192,1.16992.96192a1.76019,1.76019,0,0,0,1.84619-1.6377Z"/>
      <path d="M355.32275,116.72725H354.127v-8.6709h1.1958Z"/>
      <path d="M363.46094,111.39717h-1.13086v3.93946c0,.36328.16894.57128.46777.57128a1.73358,1.73358,0,0,0,.66309-.16894v.97559a4.02817,4.02817,0,0,1-1.001.14257c-.897,0-1.32617-.48047-1.32617-1.5205v-3.93946h-.84522V110.448h.84522V108.4587h1.19629V110.448h1.13086Z"/>
      <path d="M370.18164,113.6335a3.0366,3.0366,0,1,1-3.02881-3.35449C368.98584,110.279,370.18164,111.60518,370.18164,113.6335Zm-4.83594-.05273c0,1.46972.66309,2.31445,1.82032,2.31445,1.13086,0,1.80664-.84473,1.80664-2.27539,0-1.50781-.64991-2.33984-1.81983-2.33984C366.00879,111.28,365.3457,112.12471,365.3457,113.58077Z"/>
      <path d="M372.79443,110.3962v.68847a2.52553,2.52553,0,0,1,1.91114-.81836c1.67724,0,2.78222,1.32618,2.78222,3.36719,0,1.98828-1.04,3.2627-2.67822,3.2627a2.49263,2.49263,0,0,1-2.01514-.88379v2.7041h-1.1958V110.3962Zm-.06494,3.1455c0,1.52149.624,2.35352,1.78125,2.35352,1.13086,0,1.76807-.832,1.76807-2.31445,0-1.48145-.63721-2.31348-1.76807-2.31348S372.72949,112.09932,372.72949,113.5417Z"/>
      <path d="M380.10059,109.447h-1.1958v-1.39063h1.1958Zm0,7.28027h-1.1958V110.448h1.1958Z"/>
      <path d="M386.23682,112.57979a1.48865,1.48865,0,0,0-1.58594-1.2998c-1.144,0-1.91113.91015-1.91113,2.28808,0,1.417.7539,2.32715,1.91113,2.32715a1.57414,1.57414,0,0,0,1.66406-1.52148h1.13086a2.61233,2.61233,0,0,1-2.8208,2.52246,3.31475,3.31475,0,0,1,.03906-6.61719,2.4814,2.4814,0,0,1,2.7041,2.30078Z"/>
      <path d="M392.45068,112.37178a1.25652,1.25652,0,0,0-1.43017-1.10449c-.71485,0-1.19629.29883-1.19629.74121,0,.31152.22119.51953.728.64941l1.45605.377c1.313.33789,1.85938.88379,1.85938,1.84668,0,1.23437-1.01416,2.01465-2.61329,2.01465-1.70312,0-2.71728-.832-2.84716-2.32715h1.1831c.06494.832.689,1.32617,1.68994,1.32617.8584,0,1.417-.37695,1.417-.96191,0-.416-.27295-.63672-1.001-.832l-1.248-.3125a3.0884,3.0884,0,0,1-1.32568-.585,1.45976,1.45976,0,0,1-.46826-1.0791c0-1.0791,1.001-1.8457,2.418-1.8457a2.6302,2.6302,0,0,1,2.08007.832,2.08709,2.08709,0,0,1,.44239,1.26074Z"/>
    </g>
    <g style="isolation: isolate">
      <path d="M320.002,52.34639V58.2087a2.53248,2.53248,0,0,1-.936,2.26269,4.72865,4.72865,0,0,1-5.0835,0,2.53248,2.53248,0,0,1-.936-2.26269V52.34639h1.95019v5.73242a1.28837,1.28837,0,0,0,.35108,1.09278,1.971,1.971,0,0,0,2.353,0,1.28837,1.28837,0,0,0,.35108-1.09278V52.34639Z"/>
      <path d="M326.94336,61.01729l-2.457-4.43359-.897-1.68946c.02587.45508.02587.78028.02587,1.04.01319.46778.01319.97461.01319,1.52051v3.5625h-1.78125v-8.6709h2.02832l2.39209,4.31543c.33789.65039.55908,1.10547.88379,1.75586-.02588-.35156-.02588-.58594-.02588-.8457l-.0127-.64942V52.34639h1.78076v8.6709Z"/>
      <path d="M337.68164,52.34639V58.2087a2.53248,2.53248,0,0,1-.936,2.26269,4.72865,4.72865,0,0,1-5.0835,0,2.53248,2.53248,0,0,1-.936-2.26269V52.34639h1.9502v5.73242a1.2884,1.2884,0,0,0,.35107,1.09278,1.971,1.971,0,0,0,2.353,0,1.2884,1.2884,0,0,0,.35108-1.09278V52.34639Z"/>
      <path d="M344.3501,55.06319v-.14356c0-.72754-.57178-1.14355-1.56006-1.14355-.92285,0-1.48193.33789-1.48193.88379,0,.36426.25976.61133.793.74121l1.75489.40332a3.969,3.969,0,0,1,1.91113.85742,2.13479,2.13479,0,0,1,.66309,1.65137c0,1.79394-1.37793,2.89941-3.627,2.89941-2.34033,0-3.69238-1.11816-3.70508-3.05566h1.94971c.03906.98828.59815,1.43066,1.78125,1.43066,1.001,0,1.61182-.36426,1.61182-.97558,0-.42871-.31153-.72754-.93555-.88379l-1.57324-.38965a4.37553,4.37553,0,0,1-1.88525-.80664,2.19133,2.19133,0,0,1-.689-1.70313c0-1.67675,1.28711-2.67773,3.48438-2.67773a3.32364,3.32364,0,0,1,2.95117,1.23535,3.41535,3.41535,0,0,1,.50683,1.67676Z"/>
      <path d="M354.78906,52.34639V58.2087a2.53248,2.53248,0,0,1-.936,2.26269,4.72865,4.72865,0,0,1-5.0835,0,2.53248,2.53248,0,0,1-.936-2.26269V52.34639h1.95019v5.73242a1.28837,1.28837,0,0,0,.35108,1.09278,1.971,1.971,0,0,0,2.353,0,1.28837,1.28837,0,0,0,.35108-1.09278V52.34639Z"/>
      <path d="M358.20752,59.2751l-.5459,1.74219h-2.11914l3.0293-8.6709h2.43066l2.75635,8.6709h-2.21l-.46826-1.74219Zm1.53418-4.99219-1.05322,3.39356h1.96338Z"/>
      <path d="M366.63135,59.35323h4.23828v1.66406h-6.18848v-8.6709h1.9502Z"/>
      <path d="M381.45117,55.115a1.65792,1.65792,0,0,0-1.75488-1.3125c-1.43018,0-2.249,1.05273-2.249,2.873,0,1.80664.81884,2.88575,2.19677,2.88575a1.71772,1.71772,0,0,0,1.833-1.53418h2.06738a3.55625,3.55625,0,0,1-3.84814,3.18554c-2.561,0-4.19922-1.76855-4.19922-4.53711,0-2.78222,1.61182-4.52441,4.186-4.52441,2.09326,0,3.52343,1.11816,3.75732,2.96387Z"/>
      <path d="M393.06055,56.75362a4.30131,4.30131,0,1,1-8.59326-.07813,4.54125,4.54125,0,0,1,1.33886-3.41992,4.264,4.264,0,0,1,2.95117-1.10449C391.37061,52.15108,393.06055,53.95772,393.06055,56.75362Zm-6.55225-.07813c0,1.80664.84522,2.88575,2.26221,2.88575,1.39111,0,2.249-1.07911,2.249-2.84668,0-1.834-.832-2.91211-2.26221-2.91211C387.35352,53.80245,386.5083,54.88057,386.5083,56.67549Z"/>
      <path d="M399.65088,61.01729l-2.457-4.43359-.897-1.68946c.02587.45508.02587.78028.02587,1.04.01319.46778.01319.97461.01319,1.52051v3.5625h-1.78125v-8.6709H396.583l2.39209,4.31543c.33789.65039.55908,1.10547.88379,1.75586-.02588-.35156-.02588-.58594-.02588-.8457l-.01319-.64942V52.34639h1.78125v8.6709Z"/>
      <path d="M408.19189,55.06319v-.14356c0-.72754-.57177-1.14355-1.56-1.14355-.92286,0-1.48194.33789-1.48194.88379,0,.36426.25977.61133.793.74121l1.75488.40332a3.969,3.969,0,0,1,1.91114.85742,2.13479,2.13479,0,0,1,.66308,1.65137c0,1.79394-1.37793,2.89941-3.627,2.89941-2.34033,0-3.69238-1.11816-3.70508-3.05566h1.94971c.03906.98828.59814,1.43066,1.78125,1.43066,1.001,0,1.61181-.36426,1.61181-.97558,0-.42871-.31152-.72754-.93554-.88379l-1.57324-.38965a4.37558,4.37558,0,0,1-1.88526-.80664,2.19136,2.19136,0,0,1-.689-1.70313c0-1.67675,1.28711-2.67773,3.48437-2.67773a3.32363,3.32363,0,0,1,2.95117,1.23535,3.41534,3.41534,0,0,1,.50684,1.67676Z"/>
      <path d="M413.62549,61.01729h-1.9502v-8.6709h3.40625a3.18662,3.18662,0,0,1,2.36621.66309,2.95124,2.95124,0,0,1,.936,2.26172,2.82315,2.82315,0,0,1-.74121,2.002,2.7665,2.7665,0,0,1-2.18408.793h-1.833Zm1.53418-4.61523a1.19642,1.19642,0,1,0,0-2.39161h-1.53418v2.39161Z"/>
      <path d="M421.542,61.01729H419.5918v-8.6709H421.542Z"/>
      <path d="M425.28564,61.01729h-1.91113v-8.6709h3.7832a3.58845,3.58845,0,0,1,2.26221.51953,2.17952,2.17952,0,0,1,.832,1.82032,2.02884,2.02884,0,0,1-1.44287,2.09277c.85791.27344,1.15674.72851,1.22168,1.87207l.06543,1.23535a1.82818,1.82818,0,0,0,.35059,1.13086h-1.91114c-.23388-.18164-.29882-.3125-.3247-.75391l-.07813-1.18359c-.07812-1.06543-.5459-1.5332-1.54687-1.5332h-1.3003Zm1.91114-5.00488c.71484,0,1.105-.36426,1.105-1.001,0-.63769-.39014-1.001-1.105-1.001h-1.91114v2.002Z"/>
      <path d="M433.87842,59.2751l-.5459,1.74219h-2.11914l3.0293-8.6709h2.43066l2.75635,8.6709h-2.21l-.46827-1.74219Zm1.53418-4.99219-1.05322,3.39356h1.96337Z"/>
      <path d="M445.8125,55.115a1.65792,1.65792,0,0,0-1.75488-1.3125c-1.43018,0-2.249,1.05273-2.249,2.873,0,1.80664.81885,2.88575,2.19678,2.88575a1.71772,1.71772,0,0,0,1.833-1.53418h2.06738a3.55625,3.55625,0,0,1-3.84814,3.18554c-2.561,0-4.19922-1.76855-4.19922-4.53711,0-2.78222,1.61181-4.52441,4.186-4.52441,2.09327,0,3.52344,1.11816,3.75733,2.96387Z"/>
      <path d="M451.12939,61.01729H449.1792v-8.6709h1.95019Z"/>
      <path d="M459.42334,54.01045h-4.51123v1.68946h3.939v1.53418h-3.939v2.11914h4.58935v1.66406h-6.53955v-8.6709h6.46143Z"/>
      <path d="M465.74121,55.06319v-.14356c0-.72754-.57178-1.14355-1.56006-1.14355-.92285,0-1.48193.33789-1.48193.88379,0,.36426.25976.61133.793.74121l1.75488.40332a3.96894,3.96894,0,0,1,1.91113.85742,2.13645,2.13645,0,0,1,.66309,1.65137c0,1.79394-1.37793,2.89941-3.62695,2.89941-2.34034,0-3.69239-1.11816-3.70508-3.05566h1.9497c.03907.98828.59815,1.43066,1.78125,1.43066,1.001,0,1.61231-.36426,1.61231-.97558,0-.42871-.3125-.72754-.93652-.88379l-1.57276-.38965a4.37271,4.37271,0,0,1-1.88525-.80664,2.19133,2.19133,0,0,1-.689-1.70313c0-1.67675,1.28711-2.67773,3.48438-2.67773a3.3221,3.3221,0,0,1,2.95068,1.23535,3.41012,3.41012,0,0,1,.50733,1.67676Z"/>
    </g>
    <g>
      <path d="M622.21289,79.29952a2.25621,2.25621,0,0,0-2.32715-1.833c-1.66406,0-2.75635,1.35156-2.75635,3.39258,0,2.09375,1.09229,3.51074,2.71729,3.51074a2.47153,2.47153,0,0,0,2.48291-2.418h1.248a3.88947,3.88947,0,0,1-.74073,2.01465,3.50228,3.50228,0,0,1-3.01611,1.48242,3.58134,3.58134,0,0,1-3.04248-1.48242,5.10427,5.10427,0,0,1-.94873-3.08106c0-2.63867,1.67725-4.498,4.05615-4.498a3.38872,3.38872,0,0,1,3.53614,2.79492Z"/>
      <path d="M626.08643,85.25362h-1.19581v-8.6709h1.19581Z"/>
      <path d="M629.02441,77.97334h-1.1958V76.58272h1.1958Zm0,7.28028h-1.1958v-6.2793h1.1958Z"/>
      <path d="M635.16064,81.10616a1.48865,1.48865,0,0,0-1.58593-1.29981c-1.144,0-1.91114.91016-1.91114,2.28809,0,1.417.75391,2.32715,1.91114,2.32715a1.57415,1.57415,0,0,0,1.66406-1.52149h1.13086a2.61233,2.61233,0,0,1-2.8208,2.52246,3.31475,3.31475,0,0,1,.03906-6.61718,2.48139,2.48139,0,0,1,2.7041,2.30078Z"/>
      <path d="M643.38965,85.25362h-1.45606l-2.17089-3.28906-.89747.793v2.4961h-1.1958v-8.6709h1.1958v4.75781l2.69141-2.36621h1.58594l-2.53516,2.23633Z"/>
      <path d="M653.93262,82.15987a3.03683,3.03683,0,1,1-3.0293-3.35449C652.73633,78.80538,653.93262,80.13155,653.93262,82.15987Zm-4.83643-.05274c0,1.46973.66309,2.31446,1.81983,2.31446,1.13134,0,1.80712-.84473,1.80712-2.27539,0-1.50782-.6499-2.33985-1.81982-2.33985C649.75928,79.80635,649.09619,80.65108,649.09619,82.10713Z"/>
      <path d="M656.49316,78.97432v.71484a2.38342,2.38342,0,0,1,1.98926-.88378,2.11469,2.11469,0,0,1,1.70264.68945,2.34932,2.34932,0,0,1,.416,1.55957v4.19922h-1.1958v-4.1084c0-.85742-.39013-1.27344-1.209-1.27344a1.49013,1.49013,0,0,0-1.65137,1.57227v3.80957h-1.1958v-6.2793Z"/>
      <path d="M668.752,79.92354h-1.13086V83.863c0,.36328.16895.57129.46778.57129a1.73354,1.73354,0,0,0,.66308-.16894v.97558a3.9814,3.9814,0,0,1-1.001.14258c-.897,0-1.32618-.48047-1.32618-1.52051V79.92354h-.84521v-.94922h.84521V76.98506h1.19629v1.98926H668.752Z"/>
      <path d="M671.104,79.54659a2.56636,2.56636,0,0,1,1.87207-.74121,1.981,1.981,0,0,1,2.18409,2.249v4.19922h-1.1958V81.24971a1.35971,1.35971,0,0,0-.26026-1.01465,1.25493,1.25493,0,0,0-.96191-.36328,1.51536,1.51536,0,0,0-1.63819,1.67676v3.70508h-1.1958v-8.6709h1.1958Z"/>
      <path d="M677.79883,82.40694c.09131,1.28711.74121,2.01465,1.82031,2.01465a1.50894,1.50894,0,0,0,1.521-1.0918h1.144a2.58946,2.58946,0,0,1-2.69092,2.09277,3.01731,3.01731,0,0,1-2.99023-3.31543,2.98453,2.98453,0,0,1,2.95117-3.30175,2.5762,2.5762,0,0,1,2.57373,1.87207,5.532,5.532,0,0,1,.24707,1.72949Zm3.32812-.8711c-.05175-1.14453-.624-1.78125-1.57275-1.78125a1.75033,1.75033,0,0,0-1.74219,1.78125Z"/>
      <path d="M692.08643,81.10616a1.48866,1.48866,0,0,0-1.58594-1.29981c-1.144,0-1.91113.91016-1.91113,2.28809,0,1.417.7539,2.32715,1.91113,2.32715a1.57414,1.57414,0,0,0,1.66406-1.52149h1.13086a2.61233,2.61233,0,0,1-2.8208,2.52246,3.31475,3.31475,0,0,1,.03906-6.61718,2.48139,2.48139,0,0,1,2.7041,2.30078Z"/>
      <path d="M700.32812,82.15987a3.0366,3.0366,0,1,1-3.0288-3.35449C699.13232,78.80538,700.32812,80.13155,700.32812,82.15987Zm-4.83593-.05274c0,1.46973.66308,2.31446,1.82031,2.31446,1.13086,0,1.80664-.84473,1.80664-2.27539,0-1.50782-.6499-2.33985-1.81982-2.33985C696.15527,79.80635,695.49219,80.65108,695.49219,82.10713Z"/>
      <path d="M702.94092,85.25362h-1.1958v-8.6709h1.1958Z"/>
      <path d="M708.791,85.25362v-.71485a2.38308,2.38308,0,0,1-1.98877.88379,2.11507,2.11507,0,0,1-1.70313-.68945,2.34932,2.34932,0,0,1-.416-1.55957V78.97432h1.1958v4.1084c0,.85742.39013,1.27344,1.209,1.27344a1.49013,1.49013,0,0,0,1.65137-1.57227V78.97432h1.1958v6.2793Z"/>
      <path d="M712.834,78.97432v.793a1.79967,1.79967,0,0,1,1.70313-.96191,1.54663,1.54663,0,0,1,1.625,1.05273,2.00991,2.00991,0,0,1,1.898-1.05273,1.89707,1.89707,0,0,1,1.54736.65039,2.28081,2.28081,0,0,1,.40283,1.5332v4.26465H718.814V81.08077c0-.81934-.33789-1.209-1.04-1.209-.81885,0-1.32569.59766-1.32569,1.55957v3.82227H715.252V80.97627a.96476.96476,0,0,0-1.04-1.10449,1.32714,1.32714,0,0,0-1.32617,1.49512v3.88672h-1.1958v-6.2793Z"/>
      <path d="M725.37891,80.89815a1.25627,1.25627,0,0,0-1.43018-1.10449c-.71533,0-1.19629.29883-1.19629.74121,0,.31152.22119.51953.728.64941l1.45605.377c1.31348.33789,1.85938.88476,1.85938,1.84667,0,1.23438-1.01416,2.01465-2.61328,2.01465-1.70313,0-2.7168-.832-2.84717-2.32715h1.1831c.06495.832.689,1.32618,1.68995,1.32618.85839,0,1.41748-.377,1.41748-.96192,0-.416-.27344-.63672-1.00147-.832l-1.24805-.3125a3.09138,3.09138,0,0,1-1.32568-.585,1.45978,1.45978,0,0,1-.46826-1.0791c0-1.0791,1.001-1.8457,2.418-1.8457a2.63091,2.63091,0,0,1,2.08008.832,2.0902,2.0902,0,0,1,.44238,1.26074Z"/>
      <path d="M734.47852,79.92354h-1.13086V83.863c0,.36328.16894.57129.46777.57129a1.73358,1.73358,0,0,0,.66309-.16894v.97558a3.98147,3.98147,0,0,1-1.001.14258c-.897,0-1.32617-.48047-1.32617-1.52051V79.92354h-.84522v-.94922h.84522V76.98506h1.19629v1.98926h1.13086Z"/>
      <path d="M741.19922,82.15987a3.03683,3.03683,0,1,1-3.0293-3.35449C740.00293,78.80538,741.19922,80.13155,741.19922,82.15987Zm-4.83643-.05274c0,1.46973.66309,2.31446,1.81983,2.31446,1.13134,0,1.80713-.84473,1.80713-2.27539,0-1.50782-.64991-2.33985-1.81983-2.33985C737.02588,79.80635,736.36279,80.65108,736.36279,82.10713Z"/>
      <path d="M750.12988,80.89815a1.25626,1.25626,0,0,0-1.43017-1.10449c-.71533,0-1.19629.29883-1.19629.74121,0,.31152.22119.51953.728.64941l1.45605.377c1.31348.33789,1.85938.88476,1.85938,1.84667,0,1.23438-1.01417,2.01465-2.61329,2.01465-1.70312,0-2.71679-.832-2.84716-2.32715h1.1831c.06494.832.689,1.32618,1.68994,1.32618.8584,0,1.41748-.377,1.41748-.96192,0-.416-.27343-.63672-1.00146-.832l-1.24805-.3125a3.09126,3.09126,0,0,1-1.32568-.585,1.45974,1.45974,0,0,1-.46826-1.0791c0-1.0791,1.001-1.8457,2.418-1.8457a2.63088,2.63088,0,0,1,2.08008.832,2.09021,2.09021,0,0,1,.44239,1.26074Z"/>
      <path d="M753.71729,82.40694c.0913,1.28711.74121,2.01465,1.82031,2.01465a1.50931,1.50931,0,0,0,1.521-1.0918h1.144a2.58981,2.58981,0,0,1-2.69092,2.09277,3.01731,3.01731,0,0,1-2.99024-3.31543,2.98454,2.98454,0,0,1,2.95118-3.30175,2.57678,2.57678,0,0,1,2.57422,1.87207,5.54823,5.54823,0,0,1,.24658,1.72949Zm3.32812-.8711c-.05176-1.14453-.624-1.78125-1.57275-1.78125a1.75033,1.75033,0,0,0-1.74219,1.78125Z"/>
      <path d="M760.59424,82.40694c.09131,1.28711.74121,2.01465,1.82031,2.01465a1.50933,1.50933,0,0,0,1.521-1.0918h1.144a2.58981,2.58981,0,0,1-2.69092,2.09277,3.01731,3.01731,0,0,1-2.99023-3.31543,2.98453,2.98453,0,0,1,2.95117-3.30175,2.57677,2.57677,0,0,1,2.57422,1.87207,5.54823,5.54823,0,0,1,.24658,1.72949Zm3.32812-.8711c-.05175-1.14453-.624-1.78125-1.57275-1.78125a1.75033,1.75033,0,0,0-1.74219,1.78125Z"/>
      <path d="M616.02441,96.0544a2.38832,2.38832,0,0,1,.50733-1.53418,2.73164,2.73164,0,0,1,2.041-.71484c1.56006,0,2.44385.74121,2.44385,2.041v2.95117c0,.49414.06494.59766.33789.59766a.78928.78928,0,0,0,.3125-.06445v.92285a3.40594,3.40594,0,0,1-.78027.09082c-.57227,0-.832-.24707-.936-.84473a2.90439,2.90439,0,0,1-2.17089.92285,1.866,1.866,0,0,1-2.0542-1.85937c0-1.01367.624-1.6377,1.898-1.89746l1.39111-.27344c.7539-.14258.91015-.25977.91015-.64941,0-.61133-.5332-.98829-1.37792-.98829a1.35781,1.35781,0,0,0-1.26124.53321,1.64414,1.64414,0,0,0-.14306.7666Zm3.92627.97559a5.08489,5.08489,0,0,1-.74121.23339l-1.22168.28614c-.728.16894-1.05322.46777-1.05322.96191,0,.57227.46777.96191,1.16992.96191a1.76019,1.76019,0,0,0,1.84619-1.63769Z"/>
      <path d="M624.019,100.25362h-1.1958v-8.6709h1.1958Z"/>
      <path d="M626.957,100.25362h-1.1958v-8.6709h1.1958Z"/>
      <path d="M635.09521,94.92354h-1.13134V98.863c0,.36328.16943.57129.46826.57129a1.73354,1.73354,0,0,0,.66308-.16894v.97558a3.9841,3.9841,0,0,1-1.001.14258c-.897,0-1.32617-.48047-1.32617-1.52051V94.92354h-.84522v-.94922h.84522V91.98506h1.1958v1.98926h1.13134Z"/>
      <path d="M637.44727,94.54659a2.56633,2.56633,0,0,1,1.87207-.74121,1.981,1.981,0,0,1,2.18408,2.249v4.19922h-1.1958V96.24971a1.35966,1.35966,0,0,0-.26026-1.01465,1.25491,1.25491,0,0,0-.96191-.36328,1.51535,1.51535,0,0,0-1.63818,1.67676v3.70508h-1.19581v-8.6709h1.19581Z"/>
      <path d="M644.14209,97.40694c.09131,1.28711.74121,2.01465,1.82031,2.01465a1.50932,1.50932,0,0,0,1.521-1.0918h1.144a2.58981,2.58981,0,0,1-2.69092,2.09277,3.01731,3.01731,0,0,1-2.99023-3.31543,2.98453,2.98453,0,0,1,2.95117-3.30175,2.57677,2.57677,0,0,1,2.57422,1.87207,5.54793,5.54793,0,0,1,.24658,1.72949Zm3.32812-.8711c-.05175-1.14453-.624-1.78125-1.57275-1.78125a1.75033,1.75033,0,0,0-1.74219,1.78125Z"/>
      <path d="M655.1792,93.97432v.98828a3.426,3.426,0,0,1,.52-.66308,1.66407,1.66407,0,0,1,1.11816-.49414,1.45725,1.45725,0,0,1,.66309.15625v1.0791a2.321,2.321,0,0,0-.54639-.06543,1.82486,1.82486,0,0,0-1.70312,1.97656v3.30176h-1.1958v-6.2793Z"/>
      <path d="M659.33887,97.40694c.09131,1.28711.74121,2.01465,1.82031,2.01465a1.50894,1.50894,0,0,0,1.521-1.0918h1.144a2.58947,2.58947,0,0,1-2.69092,2.09277,3.0173,3.0173,0,0,1-2.99023-3.31543,2.98453,2.98453,0,0,1,2.95117-3.30175,2.5762,2.5762,0,0,1,2.57373,1.87207,5.532,5.532,0,0,1,.24707,1.72949Zm3.32812-.8711c-.05176-1.14453-.624-1.78125-1.57275-1.78125a1.75033,1.75033,0,0,0-1.74219,1.78125Z"/>
      <path d="M666.52783,100.25362H665.332v-8.6709h1.1958Z"/>
      <path d="M668.25684,96.0544a2.38827,2.38827,0,0,1,.50732-1.53418,2.73165,2.73165,0,0,1,2.041-.71484c1.56005,0,2.44384.74121,2.44384,2.041v2.95117c0,.49414.06494.59766.33789.59766a.78925.78925,0,0,0,.3125-.06445v.92285a3.40594,3.40594,0,0,1-.78027.09082c-.57226,0-.832-.24707-.936-.84473a2.90442,2.90442,0,0,1-2.1709.92285,1.866,1.866,0,0,1-2.0542-1.85937c0-1.01367.624-1.6377,1.898-1.89746l1.39111-.27344c.75391-.14258.91016-.25977.91016-.64941,0-.61133-.53321-.98829-1.37793-.98829a1.35778,1.35778,0,0,0-1.26123.53321,1.644,1.644,0,0,0-.14307.7666Zm3.92627.97559a5.08506,5.08506,0,0,1-.74122.23339l-1.22168.28614c-.728.16894-1.05322.46777-1.05322.96191,0,.57227.46778.96191,1.16992.96191a1.7602,1.7602,0,0,0,1.8462-1.63769Z"/>
      <path d="M677.53906,94.92354H676.4082V98.863c0,.36328.16895.57129.46778.57129a1.73354,1.73354,0,0,0,.66308-.16894v.97558a3.9814,3.9814,0,0,1-1.001.14258c-.897,0-1.32618-.48047-1.32618-1.52051V94.92354h-.84521v-.94922h.84521V91.98506h1.19629v1.98926h1.13086Z"/>
      <path d="M679.89111,92.97334h-1.1958V91.58272h1.1958Zm0,7.28028h-1.1958v-6.2793h1.1958Z"/>
      <path d="M683.02441,100.25362l-2.1582-6.2793h1.27393l1.06591,3.36719c.13038.40332.33838,1.16992.49415,1.75488a1.27528,1.27528,0,0,1,.06494-.25976l.11718-.46778c.02588-.10449.23389-.80664.28614-1.001l1.06592-3.39356h1.27392l-2.1709,6.2793Z"/>
      <path d="M688.23682,97.40694c.0913,1.28711.74121,2.01465,1.82031,2.01465a1.50931,1.50931,0,0,0,1.521-1.0918h1.144a2.58981,2.58981,0,0,1-2.69092,2.09277,3.0173,3.0173,0,0,1-2.99023-3.31543,2.98453,2.98453,0,0,1,2.95117-3.30175,2.57678,2.57678,0,0,1,2.57422,1.87207,5.54823,5.54823,0,0,1,.24658,1.72949Zm3.32812-.8711c-.05176-1.14453-.624-1.78125-1.57275-1.78125A1.75033,1.75033,0,0,0,688.25,96.53584Z"/>
      <path d="M701.74414,95.89815a1.25626,1.25626,0,0,0-1.43018-1.10449c-.71533,0-1.19628.29883-1.19628.74121,0,.31152.22119.51953.728.64941l1.45606.377c1.31347.33789,1.85937.88476,1.85937,1.84667,0,1.23438-1.01416,2.01465-2.61328,2.01465-1.70312,0-2.7168-.832-2.84717-2.32715h1.18311c.06494.832.689,1.32618,1.68994,1.32618.8584,0,1.41748-.377,1.41748-.96192,0-.416-.27344-.63672-1.00146-.832l-1.248-.3125a3.09126,3.09126,0,0,1-1.32568-.585,1.45975,1.45975,0,0,1-.46827-1.0791c0-1.0791,1.001-1.8457,2.418-1.8457a2.63088,2.63088,0,0,1,2.08008.832,2.09014,2.09014,0,0,1,.44238,1.26074Z"/>
      <path d="M705.33154,97.40694c.09131,1.28711.74121,2.01465,1.82032,2.01465a1.50931,1.50931,0,0,0,1.521-1.0918h1.144a2.5898,2.5898,0,0,1-2.69091,2.09277,3.01731,3.01731,0,0,1-2.99024-3.31543,2.98453,2.98453,0,0,1,2.95117-3.30175,2.57676,2.57676,0,0,1,2.57422,1.87207,5.54793,5.54793,0,0,1,.24658,1.72949Zm3.32813-.8711c-.05176-1.14453-.624-1.78125-1.57276-1.78125a1.75033,1.75033,0,0,0-1.74218,1.78125Z"/>
      <path d="M712.46875,93.97432v.71484a2.38341,2.38341,0,0,1,1.98926-.88378,2.11466,2.11466,0,0,1,1.70263.68945,2.34932,2.34932,0,0,1,.416,1.55957v4.19922h-1.1958v-4.1084c0-.85742-.39014-1.27344-1.209-1.27344a1.49012,1.49012,0,0,0-1.65137,1.57227v3.80957h-1.1958v-6.2793Z"/>
      <path d="M720.82764,94.92354h-1.13135V98.863c0,.36328.16943.57129.46826.57129a1.73358,1.73358,0,0,0,.66309-.16894v.97558a3.98422,3.98422,0,0,1-1.001.14258c-.897,0-1.32617-.48047-1.32617-1.52051V94.92354h-.84522v-.94922h.84522V91.98506h1.1958v1.98926h1.13135Z"/>
      <path d="M722.69922,97.40694c.09131,1.28711.74121,2.01465,1.82031,2.01465a1.50894,1.50894,0,0,0,1.521-1.0918h1.144a2.58946,2.58946,0,0,1-2.69092,2.09277,3.01731,3.01731,0,0,1-2.99023-3.31543,2.98453,2.98453,0,0,1,2.95117-3.30175,2.5762,2.5762,0,0,1,2.57373,1.87207,5.53169,5.53169,0,0,1,.24707,1.72949Zm3.32812-.8711c-.05175-1.14453-.624-1.78125-1.57275-1.78125a1.75033,1.75033,0,0,0-1.74219,1.78125Z"/>
      <path d="M729.83643,93.97432v.71484a2.38308,2.38308,0,0,1,1.98877-.88378,2.11436,2.11436,0,0,1,1.70312.68945,2.34932,2.34932,0,0,1,.416,1.55957v4.19922h-1.1958v-4.1084c0-.85742-.39014-1.27344-1.209-1.27344a1.49013,1.49013,0,0,0-1.65137,1.57227v3.80957h-1.1958v-6.2793Z"/>
      <path d="M740.09326,96.10616a1.48866,1.48866,0,0,0-1.58594-1.29981c-1.144,0-1.91113.91016-1.91113,2.28809,0,1.417.75391,2.32715,1.91113,2.32715a1.57415,1.57415,0,0,0,1.66407-1.52149h1.13086a2.61233,2.61233,0,0,1-2.8208,2.52246,3.31475,3.31475,0,0,1,.03906-6.61718,2.48139,2.48139,0,0,1,2.7041,2.30078Z"/>
      <path d="M743.48584,97.40694c.09131,1.28711.74121,2.01465,1.82031,2.01465a1.50931,1.50931,0,0,0,1.521-1.0918h1.144a2.58981,2.58981,0,0,1-2.69092,2.09277A3.01731,3.01731,0,0,1,742.29,97.10713a2.98453,2.98453,0,0,1,2.95117-3.30175,2.57677,2.57677,0,0,1,2.57422,1.87207,5.54793,5.54793,0,0,1,.24658,1.72949Zm3.32812-.8711c-.05175-1.14453-.624-1.78125-1.57275-1.78125a1.75033,1.75033,0,0,0-1.74219,1.78125Z"/>
      <path d="M753.09326,95.89815a1.25652,1.25652,0,0,0-1.43017-1.10449c-.71485,0-1.19629.29883-1.19629.74121,0,.31152.22119.51953.728.64941l1.45606.377c1.313.33789,1.85937.88476,1.85937,1.84667,0,1.23438-1.01416,2.01465-2.61328,2.01465-1.70312,0-2.71728-.832-2.84717-2.32715h1.18311c.06494.832.689,1.32618,1.68994,1.32618.8584,0,1.417-.377,1.417-.96192,0-.416-.273-.63672-1.001-.832l-1.24805-.3125a3.08834,3.08834,0,0,1-1.32568-.585,1.45974,1.45974,0,0,1-.46826-1.0791c0-1.0791,1.001-1.8457,2.418-1.8457a2.63019,2.63019,0,0,1,2.08008.832,2.087,2.087,0,0,1,.44238,1.26074Z"/>
    </g>
    <g>
      <path d="M819.97021,85.36592h-1.23535V76.695h3.04248a3.51479,3.51479,0,0,1,2.39209.624,2.474,2.474,0,0,1,.85791,1.97558,2.37983,2.37983,0,0,1-.80615,1.88477,3.15166,3.15166,0,0,1-2.353.66309h-1.898Zm1.98877-4.53711a1.9158,1.9158,0,0,0,1.39112-.40332,1.55506,1.55506,0,0,0,0-2.249,1.91585,1.91585,0,0,0-1.39112-.40332h-1.98877v3.05566Z"/>
      <path d="M831.83887,82.27217a3.0366,3.0366,0,1,1-3.02881-3.35449C830.64307,78.91768,831.83887,80.24385,831.83887,82.27217Zm-4.83594-.05273c0,1.46972.66309,2.31445,1.82031,2.31445,1.13086,0,1.80664-.84473,1.80664-2.27539,0-1.50781-.6499-2.33984-1.81982-2.33984C827.666,79.91866,827.00293,80.76338,827.00293,82.21944Z"/>
      <path d="M834.45166,78.08565h-1.1958V76.695h1.1958Zm0,7.28027h-1.1958V79.08663h1.1958Z"/>
      <path d="M837.33789,79.08663v.71484a2.38339,2.38339,0,0,1,1.98926-.88379,2.11469,2.11469,0,0,1,1.70264.68945,2.34938,2.34938,0,0,1,.416,1.55957v4.19922H840.25v-4.1084c0-.85742-.39014-1.27343-1.209-1.27343a1.49011,1.49011,0,0,0-1.65137,1.57226v3.80957h-1.1958V79.08663Z"/>
      <path d="M845.69678,80.03584h-1.13135V83.9753c0,.36328.16943.57129.46826.57129a1.73364,1.73364,0,0,0,.66309-.16895v.97559a3.98463,3.98463,0,0,1-1.001.14258c-.897,0-1.32617-.48047-1.32617-1.52051V80.03584h-.84522v-.94921h.84522V77.09737h1.1958v1.98926h1.13135Z"/>
      <path d="M853.13232,80.03584H852.001V83.9753c0,.36328.16943.57129.46826.57129a1.73361,1.73361,0,0,0,.66308-.16895v.97559a3.98463,3.98463,0,0,1-1.001.14258c-.897,0-1.32617-.48047-1.32617-1.52051V80.03584H849.96v-.94921h.84522V77.09737h1.1958v1.98926h1.13134Z"/>
      <path d="M855.48486,79.65889a2.5664,2.5664,0,0,1,1.87207-.74121,1.981,1.981,0,0,1,2.18409,2.249v4.19922h-1.19581V81.362a1.3597,1.3597,0,0,0-.26025-1.01465,1.25493,1.25493,0,0,0-.96191-.36328,1.51535,1.51535,0,0,0-1.63819,1.67675v3.70508h-1.1958V76.695h1.1958Z"/>
      <path d="M862.17969,82.51924c.09131,1.28711.74121,2.01465,1.82031,2.01465a1.50893,1.50893,0,0,0,1.521-1.0918h1.144a2.58948,2.58948,0,0,1-2.69092,2.09278,3.0173,3.0173,0,0,1-2.99023-3.31543,2.98454,2.98454,0,0,1,2.95117-3.30176,2.57621,2.57621,0,0,1,2.57373,1.87207,5.532,5.532,0,0,1,.24707,1.72949Zm3.32812-.87109c-.05176-1.14453-.624-1.78125-1.57275-1.78125a1.75033,1.75033,0,0,0-1.74219,1.78125Z"/>
      <path d="M876.4668,81.21846a1.48865,1.48865,0,0,0-1.58594-1.2998c-1.144,0-1.91113.91015-1.91113,2.28808,0,1.417.7539,2.32715,1.91113,2.32715a1.57413,1.57413,0,0,0,1.66406-1.52148h1.13086a2.61232,2.61232,0,0,1-2.8208,2.52246,3.31477,3.31477,0,0,1,.03857-6.61719,2.48085,2.48085,0,0,1,2.70411,2.30078Z"/>
      <path d="M883.05762,85.36592v-.71484a2.3831,2.3831,0,0,1-1.98877.88379,2.115,2.115,0,0,1-1.70313-.68946,2.34936,2.34936,0,0,1-.416-1.55957V79.08663h1.1958V83.195c0,.85743.39013,1.27344,1.209,1.27344a1.49011,1.49011,0,0,0,1.65137-1.57226V79.08663h1.1958v6.27929Z"/>
      <path d="M887.10059,79.08663v.98828a3.42619,3.42619,0,0,1,.52-.66309,1.6631,1.6631,0,0,1,1.11816-.49414,1.45537,1.45537,0,0,1,.6626.15625V80.153a2.3151,2.3151,0,0,0-.5459-.06543,1.82486,1.82486,0,0,0-1.70313,1.97656v3.30176h-1.1958V79.08663Z"/>
      <path d="M894.12061,81.01045a1.25654,1.25654,0,0,0-1.43018-1.10449c-.71484,0-1.19629.29883-1.19629.74121,0,.31153.22119.51953.728.64942l1.45605.377c1.313.33789,1.85938.88477,1.85938,1.84668,0,1.23437-1.01416,2.01465-2.61328,2.01465-1.70313,0-2.71729-.832-2.84717-2.32715h1.1831c.06495.832.689,1.32617,1.68995,1.32617.85839,0,1.417-.37695,1.417-.96191,0-.416-.273-.63672-1.001-.832l-1.24805-.3125a3.0887,3.0887,0,0,1-1.32568-.585,1.4598,1.4598,0,0,1-.46826-1.07911c0-1.0791,1.001-1.8457,2.418-1.8457a2.63023,2.63023,0,0,1,2.08008.832,2.08715,2.08715,0,0,1,.44238,1.26074Z"/>
      <path d="M902.55762,82.27217a3.03683,3.03683,0,1,1-3.0293-3.35449C901.36133,78.91768,902.55762,80.24385,902.55762,82.27217Zm-4.83643-.05273c0,1.46972.66309,2.31445,1.81983,2.31445,1.13134,0,1.80712-.84473,1.80712-2.27539,0-1.50781-.6499-2.33984-1.81982-2.33984C898.38428,79.91866,897.72119,80.76338,897.72119,82.21944Z"/>
      <path d="M905.11816,79.08663v.98828a3.42658,3.42658,0,0,1,.52-.66309,1.66314,1.66314,0,0,1,1.11817-.49414,1.4554,1.4554,0,0,1,.6626.15625V80.153a2.31516,2.31516,0,0,0-.5459-.06543,1.82486,1.82486,0,0,0-1.70313,1.97656v3.30176h-1.1958V79.08663Z"/>
      <path d="M918.13086,82.27217a3.0366,3.0366,0,1,1-3.02881-3.35449C916.93506,78.91768,918.13086,80.24385,918.13086,82.27217Zm-4.83594-.05273c0,1.46972.66309,2.31445,1.82031,2.31445,1.13086,0,1.80665-.84473,1.80665-2.27539,0-1.50781-.64991-2.33984-1.81983-2.33984C913.958,79.91866,913.29492,80.76338,913.29492,82.21944Z"/>
      <path d="M920.69189,79.08663v.71484a2.38308,2.38308,0,0,1,1.98877-.88379,2.11437,2.11437,0,0,1,1.70313.68945,2.34932,2.34932,0,0,1,.416,1.55957v4.19922H923.604v-4.1084c0-.85742-.39013-1.27343-1.209-1.27343a1.49012,1.49012,0,0,0-1.65137,1.57226v3.80957h-1.1958V79.08663Z"/>
      <path d="M932.95068,80.03584h-1.13134V83.9753c0,.36328.16943.57129.46826.57129a1.73361,1.73361,0,0,0,.66308-.16895v.97559a3.98463,3.98463,0,0,1-1.001.14258c-.897,0-1.32617-.48047-1.32617-1.52051V80.03584h-.84522v-.94921h.84522V77.09737h1.1958v1.98926h1.13134Z"/>
      <path d="M935.30273,79.65889a2.5664,2.5664,0,0,1,1.87207-.74121,1.981,1.981,0,0,1,2.18409,2.249v4.19922h-1.1958V81.362a1.35969,1.35969,0,0,0-.26026-1.01465,1.25493,1.25493,0,0,0-.96191-.36328,1.51535,1.51535,0,0,0-1.63819,1.67675v3.70508h-1.1958V76.695h1.1958Z"/>
      <path d="M941.99756,82.51924c.09131,1.28711.74121,2.01465,1.82031,2.01465a1.50931,1.50931,0,0,0,1.521-1.0918h1.144a2.58982,2.58982,0,0,1-2.69092,2.09278,3.01731,3.01731,0,0,1-2.99023-3.31543,2.98454,2.98454,0,0,1,2.95117-3.30176,2.57678,2.57678,0,0,1,2.57422,1.87207,5.54793,5.54793,0,0,1,.24658,1.72949Zm3.32812-.87109c-.05175-1.14453-.624-1.78125-1.57275-1.78125a1.75033,1.75033,0,0,0-1.74219,1.78125Z"/>
      <path d="M819.7749,94.65889a2.5664,2.5664,0,0,1,1.87207-.74121,1.981,1.981,0,0,1,2.18408,2.249v4.19922h-1.1958V96.362a1.3597,1.3597,0,0,0-.26025-1.01465,1.25493,1.25493,0,0,0-.96191-.36328,1.51535,1.51535,0,0,0-1.63819,1.67675v3.70508h-1.1958V91.695h1.1958Z"/>
      <path d="M826.78174,93.08565h-1.1958V91.695h1.1958Zm0,7.28027h-1.1958V94.08663h1.1958Z"/>
      <path d="M833.90625,94.08663v6.03222a2.07636,2.07636,0,0,1-.63721,1.74219,3.33473,3.33473,0,0,1-2.19726.66309,2.81107,2.81107,0,0,1-2.09278-.71485,1.727,1.727,0,0,1-.45507-1.15722h1.144c.06494.61132.5459.92285,1.44287.92285,1.13135,0,1.65137-.48145,1.65137-1.52051v-.71582a2.44856,2.44856,0,0,1-1.85938.81933,2.77044,2.77044,0,0,1-2.69092-3.06835c0-1.87207,1.11817-3.17188,2.7168-3.17188a2.182,2.182,0,0,1,1.85938.8584l-.02588-.68945ZM829.4209,97.0378c0,1.28711.63721,2.08008,1.68994,2.08008,1.02734,0,1.67725-.793,1.67725-2.05372,0-1.31347-.624-2.10644-1.69-2.10644C830.05811,94.95772,829.4209,95.75069,829.4209,97.0378Z"/>
      <path d="M836.88281,94.65889a2.5664,2.5664,0,0,1,1.87207-.74121,1.981,1.981,0,0,1,2.18408,2.249v4.19922h-1.1958V96.362a1.3597,1.3597,0,0,0-.26025-1.01465,1.25493,1.25493,0,0,0-.96191-.36328,1.51535,1.51535,0,0,0-1.63819,1.67675v3.70508H835.687V91.695h1.1958Z"/>
      <path d="M843.88965,100.36592h-1.1958V91.695h1.1958Z"/>
      <path d="M846.82764,93.08565h-1.1958V91.695h1.1958Zm0,7.28027h-1.1958V94.08663h1.1958Z"/>
      <path d="M853.95215,94.08663v6.03222a2.07636,2.07636,0,0,1-.63721,1.74219,3.33473,3.33473,0,0,1-2.19726.66309,2.81106,2.81106,0,0,1-2.09278-.71485,1.727,1.727,0,0,1-.45508-1.15722h1.144c.06494.61132.5459.92285,1.44287.92285,1.13135,0,1.65137-.48145,1.65137-1.52051v-.71582a2.44856,2.44856,0,0,1-1.85938.81933,2.77044,2.77044,0,0,1-2.69092-3.06835c0-1.87207,1.11817-3.17188,2.7168-3.17188a2.182,2.182,0,0,1,1.85937.8584l-.02587-.68945ZM849.4668,97.0378c0,1.28711.6372,2.08008,1.68994,2.08008,1.02734,0,1.67724-.793,1.67724-2.05372,0-1.31347-.624-2.10644-1.68994-2.10644C850.104,94.95772,849.4668,95.75069,849.4668,97.0378Z"/>
      <path d="M856.92822,94.65889a2.5664,2.5664,0,0,1,1.87207-.74121,1.981,1.981,0,0,1,2.18409,2.249v4.19922h-1.19581V96.362a1.3597,1.3597,0,0,0-.26025-1.01465,1.25493,1.25493,0,0,0-.96191-.36328,1.51535,1.51535,0,0,0-1.63819,1.67675v3.70508h-1.1958V91.695h1.1958Z"/>
      <path d="M865.23535,95.03584h-1.13086V98.9753c0,.36328.16895.57129.46778.57129a1.73361,1.73361,0,0,0,.66308-.16895v.97559a3.98188,3.98188,0,0,1-1.001.14258c-.897,0-1.32618-.48047-1.32618-1.52051V95.03584H862.063v-.94921h.84521V92.09737h1.19629v1.98926h1.13086Z"/>
      <path d="M867.10693,97.51924c.09131,1.28711.74121,2.01465,1.82032,2.01465a1.5093,1.5093,0,0,0,1.521-1.0918h1.144a2.58982,2.58982,0,0,1-2.69092,2.09278,3.01731,3.01731,0,0,1-2.99024-3.31543,2.98454,2.98454,0,0,1,2.95117-3.30176,2.57677,2.57677,0,0,1,2.57422,1.87207,5.54789,5.54789,0,0,1,.24659,1.72949Zm3.32813-.87109c-.05176-1.14453-.624-1.78125-1.57276-1.78125a1.75033,1.75033,0,0,0-1.74218,1.78125Z"/>
      <path d="M878.69043,100.36592h-1.19629v-.67578a2.60192,2.60192,0,0,1-1.98926.84473c-1.67676,0-2.73-1.29981-2.73-3.34082,0-2.002,1.06592-3.27637,2.73-3.27637a2.60851,2.60851,0,0,1,1.98926.84473V91.695h1.19629Zm-4.70654-3.14648c0,1.48242.65039,2.31445,1.78125,2.31445,1.144,0,1.79394-.832,1.79394-2.27539,0-1.50781-.63672-2.33984-1.79394-2.33984C874.63428,94.91866,873.98389,95.75069,873.98389,97.21944Z"/>
      <path d="M887.94629,96.01045a1.25628,1.25628,0,0,0-1.43018-1.10449c-.71533,0-1.19629.29883-1.19629.74121,0,.31153.2212.51953.728.64942l1.45606.377c1.31347.33789,1.85937.88477,1.85937,1.84668,0,1.23437-1.01416,2.01465-2.61328,2.01465-1.70312,0-2.7168-.832-2.84717-2.32715h1.18311c.06494.832.689,1.32617,1.68994,1.32617.8584,0,1.41748-.37695,1.41748-.96191,0-.416-.27344-.63672-1.00147-.832l-1.248-.3125a3.09162,3.09162,0,0,1-1.32569-.585,1.4598,1.4598,0,0,1-.46826-1.07911c0-1.0791,1.001-1.8457,2.418-1.8457a2.63094,2.63094,0,0,1,2.08008.832,2.09014,2.09014,0,0,1,.44238,1.26074Z"/>
      <path d="M894.75781,100.36592v-.71484a2.38309,2.38309,0,0,1-1.98877.88379,2.115,2.115,0,0,1-1.70312-.68946,2.3493,2.3493,0,0,1-.416-1.55957V94.08663h1.1958V98.195c0,.85743.39014,1.27344,1.209,1.27344a1.49011,1.49011,0,0,0,1.65136-1.57226V94.08663h1.19581v6.27929Z"/>
      <path d="M897.65674,91.695h1.1958v3.10645a2.62426,2.62426,0,0,1,2.00244-.88379c1.625,0,2.7041,1.29981,2.7041,3.27637,0,2.05371-1.0664,3.34082-2.74316,3.34082a2.47051,2.47051,0,0,1-1.96338-.8711v.70215h-1.1958Zm1.15674,5.499c0,1.50781.624,2.33984,1.76855,2.33984,1.13086,0,1.76758-.832,1.76758-2.31445,0-1.46875-.63672-2.30078-1.76758-2.30078C899.46387,94.91866,898.81348,95.75069,898.81348,97.19405Z"/>
      <path d="M906.28857,94.08663v6.55273a1.748,1.748,0,0,1-.33789,1.26074,1.72354,1.72354,0,0,1-1.27441.45508,3.05658,3.05658,0,0,1-.70166-.07812v-1.04a1.43121,1.43121,0,0,0,.46777.07812c.4292,0,.64991-.3125.64991-.91015V94.08663Zm0-1.001h-1.19628V91.695h1.19628Z"/>
      <path d="M908.91406,97.51924c.09131,1.28711.74121,2.01465,1.82032,2.01465a1.50891,1.50891,0,0,0,1.521-1.0918h1.144a2.58946,2.58946,0,0,1-2.69091,2.09278,3.01731,3.01731,0,0,1-2.99024-3.31543,2.98454,2.98454,0,0,1,2.95117-3.30176,2.5762,2.5762,0,0,1,2.57373,1.87207,5.53169,5.53169,0,0,1,.24707,1.72949Zm3.32813-.87109c-.05176-1.14453-.624-1.78125-1.57276-1.78125a1.75033,1.75033,0,0,0-1.74218,1.78125Z"/>
      <path d="M919.30127,96.21846a1.48865,1.48865,0,0,0-1.58594-1.2998c-1.144,0-1.91113.91015-1.91113,2.28808,0,1.417.75391,2.32715,1.91113,2.32715a1.57413,1.57413,0,0,0,1.66406-1.52148h1.13086a2.61232,2.61232,0,0,1-2.8208,2.52246,3.31475,3.31475,0,0,1,.03907-6.61719,2.4814,2.4814,0,0,1,2.7041,2.30078Z"/>
      <path d="M924.28027,95.03584h-1.13086V98.9753c0,.36328.16895.57129.46778.57129a1.73361,1.73361,0,0,0,.66308-.16895v.97559a3.98188,3.98188,0,0,1-1.001.14258c-.897,0-1.32618-.48047-1.32618-1.52051V95.03584h-.84521v-.94921h.84521V92.09737h1.19629v1.98926h1.13086Z"/>
      <path d="M931.71582,95.03584H930.585V98.9753c0,.36328.16895.57129.46777.57129a1.73364,1.73364,0,0,0,.66309-.16895v.97559a3.98189,3.98189,0,0,1-1.001.14258c-.897,0-1.32617-.48047-1.32617-1.52051V95.03584h-.84521v-.94921h.84521V92.09737H930.585v1.98926h1.13086Z"/>
      <path d="M938.43652,97.27217a3.0366,3.0366,0,1,1-3.02881-3.35449C937.24072,93.91768,938.43652,95.24385,938.43652,97.27217Zm-4.83593-.05273c0,1.46972.66308,2.31445,1.82031,2.31445,1.13086,0,1.80664-.84473,1.80664-2.27539,0-1.50781-.6499-2.33984-1.81983-2.33984C934.26367,94.91866,933.60059,95.76338,933.60059,97.21944Z"/>
      <path d="M947.36768,96.01045A1.25654,1.25654,0,0,0,945.9375,94.906c-.71484,0-1.19629.29883-1.19629.74121,0,.31153.22119.51953.728.64942l1.45605.377c1.313.33789,1.85938.88477,1.85938,1.84668,0,1.23437-1.01416,2.01465-2.61328,2.01465-1.70313,0-2.71729-.832-2.84717-2.32715h1.1831c.06495.832.689,1.32617,1.68995,1.32617.85839,0,1.417-.37695,1.417-.96191,0-.416-.27295-.63672-1.001-.832l-1.24805-.3125a3.0887,3.0887,0,0,1-1.32568-.585,1.4598,1.4598,0,0,1-.46826-1.07911c0-1.0791,1.001-1.8457,2.418-1.8457a2.63023,2.63023,0,0,1,2.08008.832,2.08715,2.08715,0,0,1,.44238,1.26074Z"/>
      <path d="M950.95508,97.51924c.09131,1.28711.74121,2.01465,1.82031,2.01465a1.50893,1.50893,0,0,0,1.521-1.0918h1.144a2.58948,2.58948,0,0,1-2.69092,2.09278,3.01731,3.01731,0,0,1-2.99023-3.31543,2.98454,2.98454,0,0,1,2.95117-3.30176,2.57621,2.57621,0,0,1,2.57373,1.87207,5.532,5.532,0,0,1,.24707,1.72949Zm3.32812-.87109c-.05175-1.14453-.624-1.78125-1.57275-1.78125a1.75033,1.75033,0,0,0-1.74219,1.78125Z"/>
      <path d="M957.832,97.51924c.09131,1.28711.74121,2.01465,1.82031,2.01465a1.50836,1.50836,0,0,0,1.52051-1.0918h1.14453a2.58947,2.58947,0,0,1-2.69092,2.09278,3.01731,3.01731,0,0,1-2.99023-3.31543,2.98454,2.98454,0,0,1,2.95117-3.30176,2.5766,2.5766,0,0,1,2.57373,1.87207,5.53169,5.53169,0,0,1,.24707,1.72949Zm3.32813-.87109c-.05176-1.14453-.624-1.78125-1.57276-1.78125a1.75033,1.75033,0,0,0-1.74219,1.78125Z"/>
      <path d="M821.0752,110.03584h-1.13086v3.93946c0,.36328.16894.57129.46777.57129a1.73368,1.73368,0,0,0,.66309-.16895v.97559a3.98194,3.98194,0,0,1-1.001.14258c-.897,0-1.32617-.48047-1.32617-1.52051v-3.93946h-.84522v-.94921h.84522v-1.98926h1.19629v1.98926h1.13086Z"/>
      <path d="M823.42725,109.65889a2.56637,2.56637,0,0,1,1.87207-.74121,1.981,1.981,0,0,1,2.18408,2.249v4.19922h-1.1958V111.362a1.35965,1.35965,0,0,0-.26026-1.01465,1.2549,1.2549,0,0,0-.96191-.36328,1.51534,1.51534,0,0,0-1.63818,1.67675v3.70508h-1.1958V106.695h1.1958Z"/>
      <path d="M830.12207,112.51924c.09131,1.28711.74121,2.01465,1.82031,2.01465a1.50893,1.50893,0,0,0,1.521-1.0918h1.144a2.58947,2.58947,0,0,1-2.69092,2.09278,3.01731,3.01731,0,0,1-2.99023-3.31543,2.98454,2.98454,0,0,1,2.95117-3.30176,2.5762,2.5762,0,0,1,2.57373,1.87207,5.53169,5.53169,0,0,1,.24707,1.72949Zm3.32813-.87109c-.05176-1.14453-.624-1.78125-1.57276-1.78125a1.75033,1.75033,0,0,0-1.74219,1.78125Z"/>
      <path d="M841.15918,109.08663v.98828a3.42619,3.42619,0,0,1,.52-.66309,1.6631,1.6631,0,0,1,1.11816-.49414,1.45537,1.45537,0,0,1,.6626.15625v1.0791a2.315,2.315,0,0,0-.5459-.06543,1.82486,1.82486,0,0,0-1.70312,1.97656v3.30176h-1.1958v-6.27929Z"/>
      <path d="M845.31885,112.51924c.09131,1.28711.74121,2.01465,1.82031,2.01465a1.50931,1.50931,0,0,0,1.521-1.0918h1.144a2.58982,2.58982,0,0,1-2.69092,2.09278,3.0173,3.0173,0,0,1-2.99023-3.31543,2.98454,2.98454,0,0,1,2.95117-3.30176,2.57678,2.57678,0,0,1,2.57422,1.87207,5.54823,5.54823,0,0,1,.24658,1.72949Zm3.32812-.87109c-.05176-1.14453-.624-1.78125-1.57275-1.78125a1.75033,1.75033,0,0,0-1.74219,1.78125Z"/>
      <path d="M852.50781,115.36592H851.312V106.695h1.1958Z"/>
      <path d="M854.23682,111.1667a2.38829,2.38829,0,0,1,.50732-1.53418,2.73169,2.73169,0,0,1,2.041-.71484c1.56,0,2.44384.74121,2.44384,2.041v2.95117c0,.49414.06495.59765.33838.59765a.78651.78651,0,0,0,.31153-.06445v.92285a3.399,3.399,0,0,1-.77979.09082c-.57178,0-.832-.24707-.936-.84472a2.90442,2.90442,0,0,1-2.1709.92285,1.866,1.866,0,0,1-2.0542-1.85938c0-1.01367.624-1.63769,1.898-1.89746l1.39111-.27344c.75391-.14257.91016-.25976.91016-.64941,0-.61133-.53321-.98828-1.37842-.98828a1.3574,1.3574,0,0,0-1.26074.5332,1.65056,1.65056,0,0,0-.14307.7666Zm3.92627.97559a5.08642,5.08642,0,0,1-.74121.2334l-1.22168.28613c-.728.16895-1.05323.46777-1.05323.96192,0,.57226.46826.96191,1.16992.96191a1.7602,1.7602,0,0,0,1.8462-1.6377Z"/>
      <path d="M863.519,110.03584H862.3877v3.93946c0,.36328.16943.57129.46826.57129a1.73361,1.73361,0,0,0,.66308-.16895v.97559a3.98463,3.98463,0,0,1-1.001.14258c-.897,0-1.32618-.48047-1.32618-1.52051v-3.93946h-.84521v-.94921h.84521v-1.98926h1.19581v1.98926H863.519Z"/>
      <path d="M865.87109,108.08565h-1.1958V106.695h1.1958Zm0,7.28027h-1.1958v-6.27929h1.1958Z"/>
      <path d="M869.00439,115.36592l-2.1582-6.27929h1.27393l1.06592,3.36718c.13037.40332.33837,1.16993.49414,1.75489a1.27539,1.27539,0,0,1,.06494-.25977l.11718-.46777c.02588-.1045.23389-.80664.28614-1.001l1.06592-3.39355h1.27392l-2.1709,6.27929Z"/>
      <path d="M874.2168,112.51924c.09131,1.28711.74121,2.01465,1.82031,2.01465a1.50893,1.50893,0,0,0,1.521-1.0918h1.144a2.58948,2.58948,0,0,1-2.69092,2.09278,3.0173,3.0173,0,0,1-2.99023-3.31543,2.98454,2.98454,0,0,1,2.95117-3.30176,2.57622,2.57622,0,0,1,2.57373,1.87207,5.532,5.532,0,0,1,.24707,1.72949Zm3.32812-.87109c-.05176-1.14453-.624-1.78125-1.57275-1.78125a1.75033,1.75033,0,0,0-1.74219,1.78125Z"/>
      <path d="M885.25391,109.08663v.793a1.79965,1.79965,0,0,1,1.70312-.96191,1.54664,1.54664,0,0,1,1.625,1.05273,2.00993,2.00993,0,0,1,1.89795-1.05273,1.89709,1.89709,0,0,1,1.54736.65039,2.28084,2.28084,0,0,1,.40284,1.5332v4.26465h-1.19629v-4.17285c0-.81933-.33789-1.209-1.04-1.209-.81885,0-1.32569.59765-1.32569,1.55957v3.82226h-1.19628v-4.27734a.96476.96476,0,0,0-1.04-1.10449,1.32714,1.32714,0,0,0-1.32618,1.49511v3.88672h-1.1958v-6.27929Z"/>
      <path d="M895.06836,112.51924c.09131,1.28711.74121,2.01465,1.82031,2.01465a1.50893,1.50893,0,0,0,1.521-1.0918h1.144a2.58947,2.58947,0,0,1-2.69092,2.09278,3.01731,3.01731,0,0,1-2.99023-3.31543,2.98454,2.98454,0,0,1,2.95117-3.30176,2.5762,2.5762,0,0,1,2.57373,1.87207,5.53169,5.53169,0,0,1,.24707,1.72949Zm3.32812-.87109c-.05175-1.14453-.624-1.78125-1.57275-1.78125a1.75033,1.75033,0,0,0-1.74219,1.78125Z"/>
      <path d="M902.20557,109.08663v.793a1.79965,1.79965,0,0,1,1.70312-.96191,1.54664,1.54664,0,0,1,1.625,1.05273,2.00993,2.00993,0,0,1,1.898-1.05273,1.89476,1.89476,0,0,1,1.54688.65039,2.2781,2.2781,0,0,1,.40332,1.5332v4.26465h-1.19629v-4.17285c0-.81933-.33789-1.209-1.04-1.209-.81885,0-1.32569.59765-1.32569,1.55957v3.82226h-1.19628v-4.27734a.96476.96476,0,0,0-1.04-1.10449,1.32714,1.32714,0,0,0-1.32618,1.49511v3.88672h-1.1958v-6.27929Z"/>
      <path d="M912.02,112.51924c.09131,1.28711.74121,2.01465,1.82031,2.01465a1.50931,1.50931,0,0,0,1.521-1.0918h1.144a2.58982,2.58982,0,0,1-2.69092,2.09278,3.01731,3.01731,0,0,1-2.99023-3.31543,2.98454,2.98454,0,0,1,2.95117-3.30176,2.57678,2.57678,0,0,1,2.57422,1.87207,5.54793,5.54793,0,0,1,.24658,1.72949Zm3.32812-.87109c-.05175-1.14453-.624-1.78125-1.57275-1.78125a1.75033,1.75033,0,0,0-1.74219,1.78125Z"/>
    </g>
    <g id="SEZ-COLLAGE-on-2" data-name="SEZ-COLLAGE-on">
      <rect x="282.14138" y="52.39641" width="21.26123" height="32.79492" style="fill: #757882"/>
      <path d="M302.90271,52.89665l0,31.7947H282.64138l0-31.7947h20.26136m1-1H281.64135v1l0,31.7947v1h22.26136v-1l0-31.7947v-1Z"/>
    </g>
    <g id="icona_click" data-name="icona click">
      <rect x="820.59493" y="48.08797" width="13.23371" height="13.23371" transform="translate(766.86177 881.52393) rotate(-89.6089)" style="fill: #c2c0c8"/>
      <path d="M822.12994,49.55312l10.23327.06988-.06988,10.23331-10.23328-.06989.06989-10.2333m-2.97943-3.02043L819.13,49.53262l-.06989,10.23331-.0205,2.99994,2.99994.02048,10.23327.0699,2.99994.02049.02051-2.99994.06988-10.23331.02051-2.99993-2.99994-.02048-10.23327-.0699-2.99994-.02049Z" style="fill: #c2c0c8"/>
    </g>
    <path d="M832.5234,69.79726l-5.31178-15.09255,14.79314,7.09106-6.603,2.3239-.15546.16073Z" style="fill: #fff"/>
    <path d="M828.95167,56.63661l3.71825,10.56478,1.86709-3.73148.06113-.12753,4.81075-1.69313Z"/>
    <g>
      <circle id="icona_click-2" data-name="icona click" cx="625.3621" cy="55.5215" r="8.66959" style="fill: #c2c0c8"/>
      <circle id="icona_click-3" data-name="icona click" cx="625.3621" cy="55.5215" r="4.77066" style="fill: #969696"/>
    </g>
  </g>
</svg>
