<svg width="60" height="60" viewBox="0 0 60 60" fill="none" xmlns="http://www.w3.org/2000/svg">
<path fill-rule="evenodd" clip-rule="evenodd" d="M30 58.2857C45.6218 58.2857 58.2857 45.6218 58.2857 30C58.2857 14.3782 45.6218 1.71429 30 1.71429C14.3782 1.71429 1.71429 14.3782 1.71429 30C1.71429 45.6218 14.3782 58.2857 30 58.2857ZM30 60C46.5685 60 60 46.5685 60 30C60 13.4315 46.5685 0 30 0C13.4315 0 0 13.4315 0 30C0 46.5685 13.4315 60 30 60Z" fill="white"/>
<path fill-rule="evenodd" clip-rule="evenodd" d="M4.78736 29.8911C10.3541 37.863 19.5924 43.0725 30.0465 43.0725C40.5008 43.0725 49.7393 37.8628 55.306 29.8906C49.7393 21.9188 40.501 16.7092 30.0469 16.7092C19.5925 16.7092 10.354 21.919 4.78736 29.8911ZM57.3707 29.8906C51.5843 20.9281 41.5085 14.9949 30.0469 14.9949C18.585 14.9949 8.50894 20.9283 2.72266 29.8912C8.509 38.8537 18.5849 44.7868 30.0465 44.7868C41.5084 44.7868 51.5844 38.8534 57.3707 29.8906Z" fill="white"/>
<path fill-rule="evenodd" clip-rule="evenodd" d="M29.9996 40.4892C35.9496 40.4892 40.743 35.7196 40.743 29.873C40.743 24.0263 35.9496 19.2568 29.9996 19.2568C24.0496 19.2568 19.2563 24.0263 19.2563 29.873C19.2563 35.7196 24.0496 40.4892 29.9996 40.4892ZM29.9996 42.2035C36.8798 42.2035 42.4572 36.6829 42.4572 29.873C42.4572 23.063 36.8798 17.5425 29.9996 17.5425C23.1195 17.5425 17.542 23.063 17.542 29.873C17.542 36.6829 23.1195 42.2035 29.9996 42.2035Z" fill="white"/>
<path fill-rule="evenodd" clip-rule="evenodd" d="M30.0009 37.9466C34.3897 37.9466 37.9476 34.3887 37.9476 29.9999C37.9476 25.611 34.3897 22.0532 30.0009 22.0532C25.612 22.0532 22.0541 25.611 22.0541 29.9999C22.0541 34.3887 25.612 37.9466 30.0009 37.9466ZM30.0009 39.6609C35.3365 39.6609 39.6619 35.3355 39.6619 29.9999C39.6619 24.6643 35.3365 20.3389 30.0009 20.3389C24.6652 20.3389 20.3398 24.6643 20.3398 29.9999C20.3398 35.3355 24.6652 39.6609 30.0009 39.6609Z" fill="white"/>
<path fill-rule="evenodd" clip-rule="evenodd" d="M30.0008 34.896C32.7047 34.896 34.8967 32.704 34.8967 30.0001C34.8967 27.2962 32.7047 25.1042 30.0008 25.1042C27.2969 25.1042 25.1049 27.2962 25.1049 30.0001C25.1049 32.704 27.2969 34.896 30.0008 34.896ZM30.0008 36.6103C33.6515 36.6103 36.611 33.6508 36.611 30.0001C36.611 26.3494 33.6515 23.39 30.0008 23.39C26.3501 23.39 23.3906 26.3494 23.3906 30.0001C23.3906 33.6508 26.3501 36.6103 30.0008 36.6103Z" fill="white"/>
<path d="M34.0702 29.9993C34.0702 32.2459 32.2489 34.0671 30.0024 34.0671C27.7558 34.0671 25.9346 32.2459 25.9346 29.9993C25.9346 27.7527 27.7558 25.9315 30.0024 25.9315C32.2489 25.9315 34.0702 27.7527 34.0702 29.9993Z" fill="white"/>
<path fill-rule="evenodd" clip-rule="evenodd" d="M30.0024 32.3528C31.3022 32.3528 32.3559 31.2991 32.3559 29.9993C32.3559 28.6995 31.3022 27.6458 30.0024 27.6458C28.7026 27.6458 27.6489 28.6995 27.6489 29.9993C27.6489 31.2991 28.7026 32.3528 30.0024 32.3528ZM30.0024 34.0671C32.2489 34.0671 34.0702 32.2459 34.0702 29.9993C34.0702 27.7527 32.2489 25.9315 30.0024 25.9315C27.7558 25.9315 25.9346 27.7527 25.9346 29.9993C25.9346 32.2459 27.7558 34.0671 30.0024 34.0671Z" fill="white"/>
</svg>
