<?xml version="1.0" encoding="utf-8"?>
<!-- Generator: Adobe Illustrator 24.0.1, SVG Export Plug-In . SVG Version: 6.00 Build 0)  -->
<svg version="1.1" id="Livello_1" xmlns="http://www.w3.org/2000/svg" xmlns:xlink="http://www.w3.org/1999/xlink" x="0px" y="0px"
	 viewBox="0 0 48 48" style="enable-background:new 0 0 48 48;" xml:space="preserve">
<style type="text/css">
	.st0{fill:#F8F8FF;}
</style>
<path class="st0" d="M44.4,26C43.8,15.9,35.6,7.7,25.5,7V1.3c0-0.8-1-1.3-1.6-0.8L12.3,9.6c-0.5,0.4-0.5,1.2,0,1.6l11.6,9.1
	c0.6,0.5,1.6,0,1.6-0.8v-5.5c7.1,0.8,12.5,7.2,11.7,14.7c-0.6,6.1-5.6,11-11.7,11.7c-7.6,0.8-14.1-4.7-14.8-12
	c0-0.6-0.6-1.1-1.2-1.1H4.8c-0.7,0-1.3,0.6-1.2,1.3C4.3,39.3,13.2,47.7,24,47.7C35.6,47.7,45.1,37.9,44.4,26z"/>
</svg>
