<?xml version="1.0" encoding="utf-8"?>
<!-- Generator: Adobe Illustrator 24.1.2, SVG Export Plug-In . SVG Version: 6.00 Build 0)  -->
<svg version="1.1" id="Livello_1" xmlns="http://www.w3.org/2000/svg" xmlns:xlink="http://www.w3.org/1999/xlink" x="0px" y="0px"
	 viewBox="0 0 48 48" style="enable-background:new 0 0 48 48;" xml:space="preserve">
<style type="text/css">
	.st0{fill:#F8F8FF;}
</style>
<path class="st0" d="M24.3,1.7L8.4,17.2H1.1c-0.3,0-0.5,0.2-0.5,0.5v12.7c0,0.3,0.2,0.5,0.5,0.5h7.4l15.8,15.5
	c0.3,0.3,0.8,0.1,0.8-0.3V2C25.1,1.6,24.6,1.4,24.3,1.7z"/>
<path class="st0" d="M36.4,24c0-4.1-2-7.9-5.4-10.2c-0.2-0.2-0.6,0-0.6,0.3v19.8c0,0.3,0.3,0.5,0.6,0.3C34.4,31.9,36.4,28.1,36.4,24
	z"/>
<path class="st0" d="M30.5,1.7v4.5c0,0.1,0.1,0.3,0.2,0.3c7,2.7,12,9.5,12,17.5s-5,14.8-12,17.5c-0.1,0.1-0.2,0.2-0.2,0.3v4.5
	c0,0.2,0.2,0.4,0.5,0.3c9.7-3,16.8-12,16.8-22.7c0-10.7-7.1-19.7-16.8-22.7C30.8,1.3,30.5,1.4,30.5,1.7z"/>
</svg>
