<?xml version="1.0" encoding="utf-8"?>
<!-- Generator: Adobe Illustrator 24.1.2, SVG Export Plug-In . SVG Version: 6.00 Build 0)  -->
<svg version="1.1" id="Livello_1" xmlns="http://www.w3.org/2000/svg" xmlns:xlink="http://www.w3.org/1999/xlink" x="0px" y="0px"
	 viewBox="0 0 48 48" style="enable-background:new 0 0 48 48;" xml:space="preserve">
<style type="text/css">
	.st0{fill:#F8F8FF;}
</style>
<path class="st0" d="M5.9,2.3c-0.3,0-0.6,0.1-0.8,0.3L2.6,5.1c-0.4,0.4-0.4,1.2,0,1.6l38.7,38.7c0.2,0.2,0.5,0.3,0.8,0.3
	c0.3,0,0.6-0.1,0.8-0.3l2.5-2.5c0.4-0.4,0.4-1.2,0-1.6L6.7,2.6C6.4,2.4,6.2,2.3,5.9,2.3z"/>
<path class="st0" d="M35.9,27.6c0.4-1.1,0.5-2.4,0.5-3.6c0-4.1-2-7.9-5.4-10.2c-0.2-0.2-0.6,0-0.6,0.3v8L35.9,27.6z"/>
<path class="st0" d="M8.6,17l-0.2,0.2H1.1c-0.3,0-0.5,0.2-0.5,0.5v12.7c0,0.3,0.2,0.5,0.5,0.5h7.4l15.8,15.5
	c0.3,0.3,0.8,0.1,0.8-0.3V33.5L8.6,17z"/>
<path class="st0" d="M25.1,16.8V2c0-0.4-0.5-0.6-0.8-0.3L17,8.8L25.1,16.8z"/>
<path class="st0" d="M30.7,6.5c7,2.7,12,9.5,12,17.5c0,3-0.7,5.9-2,8.4l3.7,3.7c2.2-3.6,3.4-7.7,3.4-12.2c0-10.7-7.1-19.7-16.8-22.7
	c-0.2,0.1-0.5,0.2-0.5,0.5v4.5C30.5,6.3,30.6,6.5,30.7,6.5z"/>
<path class="st0" d="M32.4,40.7c-0.5,0.3-1.1,0.5-1.7,0.8c-0.1,0.1-0.2,0.2-0.2,0.3v4.5c0,0.2,0.2,0.4,0.5,0.3
	c1.8-0.5,3.4-1.3,5-2.2L32.4,40.7z"/>
</svg>
