<svg width="434" height="365" viewBox="0 0 434 365" fill="none" xmlns="http://www.w3.org/2000/svg">
<path d="M381.262 273.086C369.315 297.34 340.007 310.573 301.648 311.91C263.36 313.246 216.461 302.686 170.075 279.837C123.689 256.989 86.7333 226.243 64.4557 195.075C42.1371 163.849 34.7652 132.549 46.7123 108.294C58.6595 84.0401 87.9672 70.8074 126.326 69.4698C164.614 68.1346 211.513 78.6942 257.899 101.543C304.285 124.391 341.241 155.137 363.519 186.305C385.837 217.531 393.209 248.831 381.262 273.086Z" fill="#151515" stroke="#151515" stroke-width="3"/>
<path d="M387.832 256.681C375.885 280.936 346.577 294.169 308.219 295.506C269.931 296.841 223.031 286.282 176.646 263.433C130.26 240.585 93.3036 209.839 71.026 178.671C48.7074 147.445 41.3355 116.145 53.2826 91.8902C65.2298 67.6358 94.5375 54.4031 132.896 53.0655C171.184 51.7303 218.084 62.2899 264.469 85.1385C310.855 107.987 347.811 138.733 370.089 169.901C392.407 201.127 399.779 232.427 387.832 256.681Z" fill="#E9E9E9" stroke="#151515" stroke-width="3"/>
</svg>
