<svg width="396" height="364" viewBox="0 0 396 364" fill="none" xmlns="http://www.w3.org/2000/svg">
<path d="M327.118 276.262C311.532 299.837 282.449 311.449 247.806 310.973C213.176 310.498 173.137 297.932 135.934 273.335C98.7308 248.739 71.4863 216.82 57.485 185.144C43.4784 153.455 42.7711 122.148 58.3576 98.5728C73.9441 74.9978 103.027 63.3861 137.67 63.8617C172.299 64.3372 212.339 76.903 249.542 101.499C286.745 126.096 313.989 158.015 327.991 189.691C341.997 221.38 342.705 252.687 327.118 276.262Z" fill="#151515" stroke="black" stroke-width="2"/>
<path d="M337.423 265.342C321.836 288.917 292.754 300.529 258.111 300.054C223.481 299.578 183.442 287.012 146.239 262.416C109.036 237.819 81.791 205.901 67.7896 174.224C53.7831 142.536 53.0757 111.228 68.6622 87.6533C84.2487 64.0782 113.332 52.4665 147.974 52.9422C182.604 53.4176 222.644 65.9834 259.847 90.5799C297.05 115.176 324.294 147.095 338.295 178.772C352.302 210.46 353.009 241.767 337.423 265.342Z" fill="#E9E9E9" stroke="black" stroke-width="2"/>
</svg>
