<svg width="398" height="395" viewBox="0 0 398 395" fill="none" xmlns="http://www.w3.org/2000/svg">
<path d="M182.666 61.9165C184.687 52.306 198.407 52.306 200.428 61.9165C202.745 72.9374 217.555 75.0666 222.883 65.1451C227.529 56.4932 240.694 60.3587 239.925 70.1492C239.044 81.3765 252.654 87.5918 260.561 79.5733C267.457 72.5809 279 79.9988 275.504 89.1762C271.495 99.7003 282.802 109.498 292.649 104.032C301.235 99.2659 310.22 109.635 304.28 117.456C297.469 126.424 305.558 139.011 316.545 136.541C326.127 134.386 331.826 146.867 323.924 152.697C314.861 159.384 319.077 173.739 330.315 174.464C340.115 175.097 342.068 188.678 332.843 192.046C322.264 195.908 322.264 210.87 332.843 214.732C342.068 218.099 340.115 231.68 330.315 232.313C319.077 233.038 314.861 247.394 323.924 254.08C331.826 259.91 326.127 272.391 316.545 270.237C305.558 267.766 297.469 280.353 304.28 289.321C310.22 297.142 301.235 307.511 292.649 302.745C282.802 297.279 271.495 307.077 275.504 317.601C279 326.779 267.457 334.196 260.561 327.204C252.654 319.186 239.044 325.401 239.925 336.628C240.694 346.419 227.529 350.284 222.883 341.632C217.555 331.711 202.745 333.84 200.428 344.861C198.407 354.471 184.687 354.471 182.666 344.861C180.349 333.84 165.539 331.711 160.211 341.632C155.564 350.284 142.4 346.419 143.168 336.628C144.05 325.401 130.44 319.186 122.532 327.204C115.637 334.196 104.094 326.779 107.59 317.601C111.599 307.077 100.292 297.279 90.4452 302.745C81.8588 307.511 72.8737 297.142 78.8135 289.321C85.625 280.353 77.5361 267.766 66.5486 270.237C56.9671 272.391 51.2674 259.91 59.17 254.08C68.2323 247.394 64.0171 233.038 52.7786 232.313C42.9783 231.68 41.0257 218.099 50.2508 214.732C60.8297 210.87 60.8297 195.908 50.2508 192.046C41.0257 188.678 42.9783 175.097 52.7786 174.464C64.0171 173.739 68.2323 159.384 59.17 152.697C51.2674 146.867 56.9671 134.386 66.5486 136.541C77.5361 139.011 85.625 126.424 78.8135 117.456C72.8737 109.635 81.8588 99.2659 90.4452 104.032C100.292 109.498 111.599 99.7003 107.59 89.1762C104.094 79.9988 115.637 72.5809 122.532 79.5733C130.44 87.5918 144.05 81.3765 143.168 70.1492C142.4 60.3587 155.564 56.4932 160.211 65.1451C165.539 75.0666 180.349 72.9374 182.666 61.9165Z" fill="#151515" stroke="#151515" stroke-width="3"/>
<path d="M197.267 50.0415C199.288 40.431 213.009 40.431 215.029 50.0415C217.347 61.0624 232.156 63.1916 237.484 53.2701C242.131 44.6182 255.296 48.4837 254.527 58.2742C253.646 69.5015 267.255 75.7168 275.163 67.6983C282.059 60.7059 293.601 68.1238 290.105 77.3012C286.096 87.8253 297.404 97.6231 307.25 92.1573C315.837 87.3909 324.822 97.7603 318.882 105.581C312.07 114.549 320.159 127.136 331.147 124.666C340.728 122.511 346.428 134.992 338.525 140.822C329.463 147.509 333.678 161.864 344.917 162.589C354.717 163.222 356.67 176.803 347.445 180.171C336.866 184.033 336.866 198.995 347.445 202.857C356.67 206.224 354.717 219.805 344.917 220.438C333.678 221.163 329.463 235.519 338.525 242.205C346.428 248.035 340.728 260.516 331.147 258.362C320.159 255.891 312.07 268.478 318.882 277.446C324.822 285.267 315.837 295.636 307.25 290.87C297.404 285.404 286.096 295.202 290.105 305.726C293.601 314.904 282.059 322.321 275.163 315.329C267.255 307.311 253.646 313.526 254.527 324.753C255.296 334.544 242.131 338.409 237.484 329.757C232.156 319.836 217.347 321.965 215.029 332.986C213.009 342.596 199.288 342.596 197.267 332.986C194.95 321.965 180.141 319.836 174.812 329.757C170.166 338.409 157.001 334.544 157.77 324.753C158.651 313.526 145.042 307.311 137.134 315.329C130.238 322.321 118.696 314.904 122.192 305.726C126.201 295.202 114.893 285.404 105.047 290.87C96.4603 295.636 87.4753 285.267 93.4151 277.446C100.227 268.478 92.1377 255.891 81.1502 258.362C71.5687 260.516 65.869 248.035 73.7715 242.205C82.8338 235.519 78.6186 221.163 67.3802 220.438C57.5799 219.805 55.6273 206.224 64.8524 202.857C75.4313 198.995 75.4313 184.033 64.8524 180.171C55.6273 176.803 57.5799 163.222 67.3802 162.589C78.6186 161.864 82.8338 147.509 73.7715 140.822C65.869 134.992 71.5687 122.511 81.1502 124.666C92.1377 127.136 100.227 114.549 93.4151 105.581C87.4752 97.7602 96.4603 87.3909 105.047 92.1573C114.893 97.6231 126.201 87.8253 122.192 77.3012C118.696 68.1238 130.238 60.7059 137.134 67.6983C145.042 75.7168 158.651 69.5015 157.77 58.2742C157.001 48.4837 170.166 44.6182 174.812 53.2701C180.141 63.1916 194.95 61.0624 197.267 50.0415Z" fill="#E9E9E9" stroke="#151515" stroke-width="3"/>
</svg>
