<svg width="66" height="68" viewBox="0 0 66 68" fill="none" xmlns="http://www.w3.org/2000/svg">
<path d="M31.2371 2.92595C31.6435 0.992844 34.4034 0.992843 34.8098 2.92595C35.352 5.50469 38.8172 6.0029 40.064 3.68139C40.9986 1.94109 43.6467 2.71863 43.492 4.68795C43.2858 7.31498 46.4702 8.76929 48.3205 6.89306C49.7076 5.48657 52.0293 6.97865 51.3261 8.82464C50.3881 11.2871 53.0339 13.5797 55.3378 12.3008C57.0649 11.342 58.8722 13.4278 57.6775 15.0009C56.0837 17.0994 57.9764 20.0445 60.5473 19.4664C62.4746 19.0331 63.621 21.5436 62.0315 22.7163C59.911 24.2808 60.8973 27.6398 63.527 27.8095C65.4982 27.9367 65.891 30.6685 64.0354 31.3459C61.5601 32.2496 61.5601 35.7504 64.0354 36.6541C65.891 37.3315 65.4982 40.0633 63.527 40.1905C60.8973 40.3602 59.911 43.7192 62.0315 45.2837C63.621 46.4564 62.4746 48.9669 60.5473 48.5336C57.9764 47.9555 56.0837 50.9006 57.6775 52.9991C58.8722 54.5722 57.0649 56.658 55.3378 55.6992C53.0339 54.4203 50.3881 56.7129 51.3261 59.1754C52.0293 61.0214 49.7076 62.5134 48.3205 61.1069C46.4702 59.2307 43.2858 60.685 43.492 63.312C43.6467 65.2814 40.9986 66.0589 40.064 64.3186C38.8172 61.9971 35.352 62.4953 34.8098 65.074C34.4034 67.0072 31.6435 67.0072 31.2371 65.074C30.6948 62.4953 27.2296 61.9971 25.9829 64.3186C25.0483 66.0589 22.4002 65.2814 22.5548 63.312C22.7611 60.685 19.5766 59.2307 17.7263 61.1069C16.3393 62.5134 14.0176 61.0214 14.7207 59.1754C15.6588 56.7129 13.013 54.4203 10.7091 55.6992C8.98195 56.658 7.17463 54.5722 8.36941 52.9991C9.96321 50.9006 8.07052 47.9555 5.49958 48.5336C3.57231 48.9669 2.42583 46.4564 4.0154 45.2837C6.13586 43.7192 5.14955 40.3602 2.51991 40.1905C0.548628 40.0633 0.15586 37.3315 2.01145 36.6541C4.48677 35.7504 4.48677 32.2496 2.01145 31.3459C0.155861 30.6685 0.548628 27.9367 2.51991 27.8095C5.14955 27.6398 6.13586 24.2808 4.0154 22.7163C2.42583 21.5436 3.57231 19.0331 5.49958 19.4664C8.07052 20.0445 9.96321 17.0994 8.36941 15.0009C7.17464 13.4278 8.98195 11.342 10.7091 12.3008C13.013 13.5797 15.6588 11.2871 14.7207 8.82464C14.0176 6.97865 16.3393 5.48657 17.7263 6.89306C19.5766 8.76929 22.7611 7.31498 22.5548 4.68795C22.4002 2.71863 25.0483 1.9411 25.9829 3.68139C27.2296 6.00291 30.6948 5.50468 31.2371 2.92595Z" fill="#151515" stroke="black"/>
</svg>
