<svg width="338" height="341" viewBox="0 0 338 341" fill="none" xmlns="http://www.w3.org/2000/svg">
<path d="M155.584 57.232C157.365 48.7609 169.459 48.7609 171.24 57.232C173.159 66.3582 185.422 68.1214 189.835 59.9055C193.93 52.2793 205.534 55.6866 204.857 64.3164C204.127 73.6135 215.397 78.7603 221.945 72.1203C228.023 65.9569 238.197 72.4954 235.116 80.5847C231.796 89.2995 241.159 97.4129 249.313 92.8868C256.882 88.6855 264.801 97.8255 259.566 104.719C253.925 112.146 260.624 122.568 269.722 120.523C278.168 118.624 283.192 129.625 276.226 134.764C268.722 140.301 272.212 152.188 281.519 152.789C290.157 153.346 291.878 165.317 283.747 168.286C274.987 171.484 274.987 183.873 283.747 187.072C291.878 190.04 290.157 202.011 281.519 202.568C272.212 203.169 268.722 215.057 276.226 220.593C283.192 225.733 278.168 236.734 269.722 234.835C260.624 232.789 253.925 243.212 259.566 250.638C264.801 257.532 256.882 266.672 249.313 262.471C241.159 257.944 231.796 266.058 235.116 274.773C238.197 282.862 228.023 289.401 221.945 283.237C215.397 276.597 204.127 281.744 204.857 291.041C205.534 299.671 193.93 303.078 189.835 295.452C185.422 287.236 173.159 288.999 171.24 298.125C169.459 306.597 157.365 306.597 155.584 298.125C153.665 288.999 141.402 287.236 136.989 295.452C132.894 303.078 121.29 299.671 121.967 291.041C122.697 281.744 111.427 276.597 104.879 283.237C98.8008 289.401 88.6267 282.862 91.7081 274.773C95.0279 266.058 85.6645 257.944 77.5107 262.471C69.9423 266.672 62.0225 257.532 67.2581 250.638C72.8986 243.212 66.2003 232.789 57.1017 234.835C48.6562 236.734 43.6322 225.733 50.5979 220.593C58.1022 215.057 54.6117 203.169 45.3053 202.568C36.6669 202.011 34.9458 190.04 43.0772 187.072C51.8374 183.873 51.8374 171.484 43.0772 168.286C34.9458 165.317 36.6669 153.346 45.3053 152.789C54.6117 152.188 58.1022 140.301 50.5979 134.764C43.6322 129.625 48.6562 118.624 57.1017 120.523C66.2003 122.568 72.8986 112.146 67.2581 104.719C62.0225 97.8255 69.9423 88.6855 77.5107 92.8868C85.6645 97.413 95.0279 89.2995 91.7081 80.5847C88.6267 72.4954 98.8008 65.9569 104.879 72.1203C111.427 78.7603 122.697 73.6135 121.967 64.3164C121.29 55.6866 132.894 52.2793 136.989 59.9055C141.402 68.1214 153.665 66.3582 155.584 57.232Z" fill="#151515" stroke="black" stroke-width="2"/>
<path d="M166.709 42.0903C168.49 33.6192 180.584 33.6192 182.365 42.0903C184.284 51.2164 196.547 52.9797 200.96 44.7638C205.055 37.1376 216.659 40.5449 215.982 49.1746C215.252 58.4718 226.522 63.6185 233.07 56.9786C239.148 50.8152 249.322 57.3536 246.241 65.4429C242.921 74.1578 252.284 82.2712 260.438 77.745C268.007 73.5438 275.926 82.6837 270.691 89.5772C265.05 97.0038 271.749 107.427 280.847 105.381C289.293 103.482 294.317 114.483 287.351 119.622C279.847 125.159 283.337 137.047 292.644 137.647C301.282 138.205 303.003 150.175 294.872 153.144C286.112 156.342 286.112 168.732 294.872 171.93C303.003 174.898 301.282 186.869 292.644 187.427C283.337 188.027 279.847 199.915 287.351 205.452C294.317 210.591 289.293 221.592 280.847 219.693C271.749 217.647 265.05 228.07 270.691 235.497C275.926 242.39 268.007 251.53 260.438 247.329C252.284 242.803 242.921 250.916 246.241 259.631C249.322 267.72 239.148 274.259 233.07 268.095C226.522 261.455 215.252 266.602 215.982 275.899C216.659 284.529 205.055 287.936 200.96 280.31C196.547 272.094 184.284 273.858 182.365 282.984C180.584 291.455 168.49 291.455 166.709 282.984C164.79 273.858 152.527 272.094 148.114 280.31C144.019 287.936 132.415 284.529 133.092 275.899C133.822 266.602 122.552 261.455 116.004 268.095C109.926 274.259 99.7517 267.72 102.833 259.631C106.153 250.916 96.7895 242.803 88.6357 247.329C81.0673 251.53 73.1475 242.39 78.3831 235.497C84.0236 228.07 77.3253 217.647 68.2267 219.693C59.7812 221.592 54.7572 210.591 61.7229 205.452C69.2272 199.915 65.7367 188.027 56.4303 187.427C47.7919 186.869 46.0708 174.898 54.2022 171.93C62.9624 168.732 62.9624 156.342 54.2022 153.144C46.0708 150.175 47.7919 138.205 56.4303 137.647C65.7367 137.047 69.2272 125.159 61.7229 119.622C54.7572 114.483 59.7812 103.482 68.2267 105.381C77.3253 107.427 84.0236 97.0038 78.3831 89.5773C73.1475 82.6838 81.0673 73.5438 88.6357 77.745C96.7895 82.2712 106.153 74.1578 102.833 65.443C99.7517 57.3536 109.926 50.8152 116.004 56.9786C122.552 63.6185 133.822 58.4718 133.092 49.1746C132.415 40.5449 144.019 37.1376 148.114 44.7638C152.527 52.9797 164.79 51.2165 166.709 42.0903Z" fill="#E9E9E9" stroke="black" stroke-width="2"/>
</svg>
