<svg width="346" height="350" viewBox="0 0 346 350" fill="none" xmlns="http://www.w3.org/2000/svg">
<path d="M160.971 10.2077C163.708 -2.80894 182.292 -2.80894 185.029 10.2077C187.387 21.426 202.462 23.5934 207.886 13.4941C214.179 1.77578 232.01 7.01133 230.969 20.2718C230.071 31.7002 243.925 38.0269 251.974 29.8647C261.314 20.3941 276.947 30.4411 272.213 42.871C268.132 53.5837 279.642 63.5572 289.665 57.9934C301.294 51.5377 313.464 65.5821 305.419 76.1746C298.485 85.3037 306.719 98.1158 317.904 95.6012C330.881 92.6835 338.601 109.588 327.897 117.484C318.673 124.29 322.963 138.903 334.403 139.641C347.677 140.498 350.321 158.892 337.827 163.454C327.058 167.385 327.058 182.615 337.827 186.546C350.321 191.108 347.677 209.502 334.403 210.359C322.963 211.097 318.673 225.71 327.897 232.516C338.601 240.412 330.881 257.317 317.904 254.399C306.719 251.884 298.485 264.696 305.419 273.825C313.464 284.418 301.294 298.462 289.665 292.007C279.642 286.443 268.132 296.416 272.213 307.129C276.947 319.559 261.314 329.606 251.974 320.135C243.925 311.973 230.071 318.3 230.969 329.728C232.01 342.989 214.179 348.224 207.886 336.506C202.462 326.407 187.387 328.574 185.029 339.792C182.292 352.809 163.708 352.809 160.971 339.792C158.613 328.574 143.538 326.407 138.114 336.506C131.821 348.224 113.99 342.989 115.031 329.728C115.929 318.3 102.075 311.973 94.0256 320.135C84.6859 329.606 69.0526 319.559 73.7874 307.129C77.8682 296.416 66.3583 286.443 56.3353 292.007C44.7057 298.462 32.5362 284.418 40.5812 273.825C47.5148 264.696 39.2809 251.884 28.0965 254.399C15.1192 257.317 7.39938 240.412 18.1028 232.516C27.3275 225.71 23.0367 211.097 11.5969 210.359C-1.67677 209.502 -4.32146 191.108 8.17316 186.546C18.9416 182.615 18.9416 167.385 8.17316 163.454C-4.32146 158.892 -1.67677 140.498 11.5969 139.641C23.0367 138.903 27.3274 124.29 18.1028 117.484C7.39938 109.588 15.1192 92.6835 28.0965 95.6012C39.2809 98.1158 47.5148 85.3037 40.5812 76.1746C32.5362 65.5821 44.7057 51.5377 56.3353 57.9934C66.3583 63.5572 77.8682 53.5837 73.7874 42.871C69.0526 30.4411 84.6859 20.3941 94.0256 29.8647C102.075 38.0269 115.929 31.7002 115.031 20.2718C113.99 7.01133 131.821 1.77579 138.114 13.4941C143.538 23.5934 158.613 21.426 160.971 10.2077Z" fill="#A582FB"/>
</svg>
