<svg width="397" height="395" viewBox="0 0 397 395" fill="none" xmlns="http://www.w3.org/2000/svg">
<path d="M182.357 61.8638C184.378 52.2533 198.099 52.2533 200.119 61.8638C202.437 72.8846 217.246 75.0139 222.574 65.0923C227.221 56.4404 240.386 60.306 239.617 70.0965C238.735 81.3238 252.345 87.5391 260.253 79.5205C267.148 72.5282 278.691 79.9461 275.195 89.1234C271.186 99.6476 282.493 109.445 292.34 103.98C300.926 99.2132 309.911 109.583 303.972 117.403C297.16 126.372 305.249 138.958 316.237 136.488C325.818 134.334 331.518 146.814 323.615 152.645C314.553 159.331 318.768 173.686 330.007 174.412C339.807 175.044 341.759 188.625 332.534 191.993C321.955 195.855 321.955 210.817 332.534 214.679C341.759 218.047 339.807 231.628 330.007 232.26C318.768 232.985 314.553 247.341 323.615 254.027C331.518 259.858 325.818 272.338 316.237 270.184C305.249 267.714 297.16 280.3 303.972 289.269C309.911 297.089 300.926 307.459 292.34 302.692C282.493 297.226 271.186 307.024 275.195 317.548C278.691 326.726 267.148 334.144 260.253 327.151C252.345 319.133 238.735 325.348 239.617 336.575C240.386 346.366 227.221 350.231 222.574 341.58C217.246 331.658 202.437 333.787 200.119 344.808C198.099 354.419 184.378 354.419 182.357 344.808C180.04 333.787 165.231 331.658 159.902 341.58C155.256 350.231 142.091 346.366 142.86 336.575C143.741 325.348 130.132 319.133 122.224 327.151C115.328 334.144 103.786 326.726 107.281 317.548C111.29 307.024 99.9831 297.226 90.1366 302.692C81.5502 307.459 72.5651 297.089 78.5049 289.269C85.3164 280.3 77.2275 267.714 66.24 270.184C56.6585 272.338 50.9588 259.858 58.8614 254.027C67.9237 247.341 63.7085 232.985 52.47 232.26C42.6698 231.628 40.7171 218.047 49.9422 214.679C60.5211 210.817 60.5211 195.855 49.9422 191.993C40.7171 188.625 42.6697 175.044 52.47 174.412C63.7085 173.686 67.9237 159.331 58.8614 152.645C50.9588 146.814 56.6585 134.334 66.24 136.488C77.2275 138.958 85.3164 126.372 78.5049 117.403C72.5651 109.583 81.5502 99.2132 90.1366 103.98C99.9831 109.445 111.29 99.6476 107.281 89.1234C103.786 79.9461 115.328 72.5282 122.224 79.5205C130.132 87.5391 143.741 81.3238 142.86 70.0965C142.091 60.306 155.256 56.4404 159.902 65.0923C165.231 75.0139 180.04 72.8846 182.357 61.8638Z" fill="#151515" stroke="#151515" stroke-width="3"/>
<path d="M196.963 49.9907C198.983 40.3802 212.704 40.3802 214.725 49.9907C217.042 61.0116 231.851 63.1409 237.18 53.2193C241.826 44.5674 254.991 48.4329 254.222 58.2234C253.341 69.4507 266.95 75.666 274.858 67.6475C281.754 60.6551 293.296 68.073 289.801 77.2504C285.792 87.7745 297.099 97.5724 306.945 92.1065C315.532 87.3401 324.517 97.7095 318.577 105.53C311.766 114.499 319.854 127.085 330.842 124.615C340.423 122.461 346.123 134.941 338.221 140.772C329.158 147.458 333.374 161.813 344.612 162.539C354.412 163.171 356.365 176.752 347.14 180.12C336.561 183.982 336.561 198.944 347.14 202.806C356.365 206.174 354.412 219.755 344.612 220.387C333.374 221.112 329.158 235.468 338.221 242.154C346.123 247.985 340.423 260.465 330.842 258.311C319.854 255.841 311.766 268.427 318.577 277.396C324.517 285.216 315.532 295.586 306.945 290.819C297.099 285.353 285.792 295.151 289.801 305.675C293.296 314.853 281.754 322.271 274.858 315.278C266.95 307.26 253.341 313.475 254.222 324.702C254.991 334.493 241.826 338.358 237.18 329.707C231.851 319.785 217.042 321.914 214.725 332.935C212.704 342.546 198.983 342.546 196.963 332.935C194.645 321.914 179.836 319.785 174.508 329.707C169.861 338.358 156.696 334.493 157.465 324.702C158.347 313.475 144.737 307.26 136.829 315.278C129.934 322.271 118.391 314.853 121.887 305.675C125.896 295.151 114.589 285.353 104.742 290.819C96.1556 295.586 87.1706 285.216 93.1104 277.396C99.9219 268.427 91.833 255.841 80.8455 258.311C71.264 260.465 65.5643 247.985 73.4668 242.154C82.5291 235.468 78.3139 221.112 67.0755 220.387C57.2752 219.755 55.3226 206.174 64.5477 202.806C75.1266 198.944 75.1266 183.982 64.5477 180.12C55.3226 176.752 57.2752 163.171 67.0755 162.539C78.3139 161.813 82.5291 147.458 73.4668 140.772C65.5643 134.941 71.264 122.461 80.8455 124.615C91.833 127.085 99.9219 114.499 93.1104 105.53C87.1706 97.7095 96.1556 87.3401 104.742 92.1065C114.589 97.5724 125.896 87.7745 121.887 77.2504C118.391 68.073 129.934 60.6551 136.829 67.6475C144.737 75.666 158.347 69.4507 157.465 58.2234C156.696 48.4329 169.861 44.5674 174.508 53.2193C179.836 63.1409 194.645 61.0116 196.963 49.9907Z" fill="#E9E9E9" stroke="#151515" stroke-width="3"/>
</svg>
