<svg width="743" height="749" viewBox="0 0 743 749" fill="none" xmlns="http://www.w3.org/2000/svg">
<path d="M351.799 16.086C356.252 -5.0937 386.49 -5.09371 390.943 16.0859L398.652 52.7486C402.49 71.0023 427.019 74.5289 435.844 58.096L453.569 25.0902C463.809 6.02314 492.822 14.542 491.128 36.1184L488.195 73.4678C486.735 92.0634 509.277 102.358 522.374 89.0767L548.68 62.4018C563.877 46.992 589.315 63.3396 581.61 83.5647L568.274 118.575C561.634 136.006 580.362 152.234 596.671 143.181L629.427 124.998C648.35 114.494 668.151 137.346 655.061 154.581L632.401 184.416C621.119 199.27 634.517 220.117 652.715 216.025L689.267 207.807C710.383 203.06 722.944 230.565 705.528 243.414L675.381 265.656C660.371 276.73 667.353 300.507 685.967 301.709L723.354 304.121C744.951 305.515 749.255 335.445 728.924 342.867L693.732 355.715C676.21 362.112 676.21 386.892 693.732 393.289L728.924 406.137C749.255 413.559 744.951 443.489 723.354 444.883L685.967 447.295C667.353 448.497 660.371 472.274 675.381 483.348L705.528 505.59C722.944 518.439 710.383 545.944 689.267 541.197L652.715 532.979C634.517 528.887 621.119 549.734 632.401 564.588L655.061 594.423C668.151 611.658 648.35 634.51 629.427 624.006L596.671 605.823C580.362 596.77 561.634 612.998 568.274 630.429L581.61 665.439C589.315 685.664 563.877 702.012 548.68 686.602L522.374 659.927C509.277 646.646 486.735 656.941 488.195 675.536L491.128 712.885C492.822 734.462 463.809 742.981 453.569 723.914L435.844 690.908C427.019 674.475 402.49 678.002 398.652 696.255L390.943 732.918C386.49 754.098 356.252 754.098 351.799 732.918L344.09 696.255C340.252 678.002 315.724 674.475 306.898 690.908L289.173 723.914C278.933 742.981 249.92 734.462 251.614 712.885L254.547 675.536C256.007 656.941 233.466 646.646 220.368 659.927L194.062 686.602C178.865 702.012 153.427 685.664 161.132 665.439L174.468 630.429C181.108 612.998 162.38 596.77 146.071 605.823L113.315 624.006C94.3925 634.51 74.5912 611.658 87.6814 594.423L110.341 564.588C121.623 549.734 108.225 528.887 90.0268 532.979L53.475 541.197C32.3593 545.944 19.7982 518.439 37.2139 505.59L67.3611 483.348C82.3708 472.274 75.3893 448.497 56.7752 447.295L19.3886 444.883C-2.2092 443.489 -6.51244 413.559 13.8179 406.137L49.0103 393.289C66.5319 386.892 66.5319 362.112 49.0103 355.715L13.8179 342.867C-6.51244 335.445 -2.2092 305.515 19.3886 304.121L56.7752 301.709C75.3893 300.507 82.3708 276.73 67.3611 265.656L37.2139 243.414C19.7982 230.565 32.3593 203.06 53.475 207.807L90.0268 216.025C108.225 220.117 121.623 199.27 110.341 184.416L87.6814 154.581C74.5912 137.346 94.3925 114.494 113.315 124.998L146.071 143.181C162.38 152.234 181.108 136.006 174.468 118.575L161.132 83.5647C153.427 63.3396 178.865 46.992 194.062 62.4018L220.368 89.0767C233.466 102.358 256.007 92.0633 254.547 73.4678L251.614 36.1184C249.92 14.542 278.933 6.02315 289.173 25.0902L306.898 58.096C315.724 74.5289 340.252 71.0023 344.09 52.7486L351.799 16.086Z" fill="#A582FB"/>
</svg>
