<svg width="76" height="75" viewBox="0 0 76 75" fill="none" xmlns="http://www.w3.org/2000/svg">
<path d="M41.0602 17.3848L41.3107 18.46L41.9537 17.5625L51.0308 4.89043L48.4888 20.2694L48.3087 21.3587L49.2462 20.7755L62.4817 12.5417L54.2479 25.7773L53.6648 26.7147L54.754 26.5347L70.133 23.9927L57.461 33.0698L56.5634 33.7127L57.6387 33.9632L72.8198 37.5L57.6387 41.0368L56.5634 41.2873L57.461 41.9302L70.133 51.0073L54.754 48.4653L53.6648 48.2853L54.2479 49.2227L62.4817 62.4583L49.2462 54.2245L48.3087 53.6413L48.4888 54.7306L51.0308 70.1096L41.9537 57.4375L41.3107 56.54L41.0602 57.6152L37.5234 72.7964L33.9867 57.6152L33.7361 56.54L33.0932 57.4375L24.0161 70.1096L26.5581 54.7306L26.7382 53.6413L25.8007 54.2245L12.5652 62.4583L20.7989 49.2227L21.3821 48.2853L20.2928 48.4653L4.91386 51.0073L17.5859 41.9302L18.4835 41.2873L17.4082 41.0368L2.2271 37.5L17.4082 33.9632L18.4835 33.7127L17.5859 33.0698L4.91386 23.9927L20.2928 26.5347L21.3821 26.7147L20.7989 25.7773L12.5651 12.5417L25.8007 20.7755L26.7382 21.3587L26.5581 20.2694L24.0161 4.89043L33.0932 17.5625L33.7361 18.46L33.9867 17.3848L37.5234 2.20366L41.0602 17.3848Z" fill="#151515" stroke="black"/>
</svg>
