<svg width="406" height="406" viewBox="0 0 406 406" fill="none" xmlns="http://www.w3.org/2000/svg">
<path d="M177.5 0.516226L210.98 91.0431L256.935 6.16566L253.224 102.614L328.162 41.7837L287.824 129.47L380.337 101.948L309.513 167.523L405.516 177.499L314.989 210.979L399.867 256.934L303.418 253.223L364.249 328.161L276.562 287.823L304.084 380.336L238.509 309.512L228.533 405.515L195.053 314.988L149.098 399.866L152.809 303.418L77.8709 364.248L118.209 276.561L25.6963 304.084L96.5198 238.509L0.516977 228.533L91.0438 195.052L6.16641 149.097L102.615 152.808L41.7845 77.8702L129.471 118.208L101.949 25.6955L167.524 96.519L177.5 0.516226Z" fill="#DAFC53"/>
</svg>
