<svg width="513" height="519" viewBox="0 0 513 519" fill="none" xmlns="http://www.w3.org/2000/svg">
<path d="M258.109 145.591L259.258 148.698L260.835 145.785L308.264 58.1844L304.434 157.727L304.307 161.037L306.878 158.95L384.221 96.1676L342.589 186.668L341.205 189.677L344.379 188.732L439.86 160.327L366.764 228.006L364.334 230.256L367.628 230.599L466.712 240.894L373.28 275.449L370.174 276.598L373.086 278.175L460.687 325.605L361.144 321.774L357.834 321.647L359.922 324.219L422.704 401.561L332.204 359.929L329.195 358.545L330.139 361.72L358.545 457.201L290.865 384.105L288.615 381.674L288.273 384.969L277.977 484.052L243.422 390.62L242.273 387.514L240.696 390.426L193.267 478.027L197.097 378.484L197.224 375.175L194.653 377.262L117.31 440.044L158.942 349.544L160.327 346.535L157.152 347.48L61.6708 375.885L134.767 308.206L137.197 305.955L133.903 305.613L34.8196 295.317L128.251 260.763L131.358 259.614L128.445 258.037L40.8442 210.607L140.387 214.437L143.697 214.565L141.609 211.993L78.8274 134.65L169.327 176.283L172.336 177.667L171.392 174.492L142.987 79.0111L210.666 152.107L212.916 154.537L213.258 151.243L223.554 52.1599L258.109 145.591Z" fill="#151515" stroke="#151515" stroke-width="3"/>
<path d="M268.945 128.519L270.094 131.626L271.671 128.713L319.1 41.1122L315.27 140.655L315.143 143.965L317.714 141.877L395.057 79.0954L353.425 169.595L352.041 172.604L355.215 171.66L450.696 143.255L377.6 210.934L375.17 213.184L378.464 213.526L477.548 223.822L384.116 258.377L381.009 259.526L383.922 261.103L471.523 308.532L371.98 304.702L368.67 304.575L370.758 307.146L433.54 384.489L343.04 342.857L340.031 341.473L340.975 344.647L369.38 440.128L301.701 367.032L299.451 364.602L299.109 367.896L288.813 466.98L254.258 373.548L253.109 370.441L251.532 373.354L204.103 460.955L207.933 361.412L208.06 358.102L205.489 360.19L128.146 422.972L169.778 332.472L171.162 329.463L167.988 330.407L72.5068 358.813L145.603 291.133L148.033 288.883L144.739 288.541L45.6555 278.245L139.087 243.69L142.194 242.541L139.281 240.964L51.6801 193.535L151.223 197.365L154.533 197.492L152.445 194.921L89.6633 117.578L180.163 159.21L183.172 160.595L182.228 157.42L153.823 61.9389L221.502 135.035L223.752 137.465L224.094 134.171L234.39 35.0876L268.945 128.519Z" fill="#E9E9E9" stroke="#151515" stroke-width="3"/>
<path d="M214.511 218.602C214.511 218.602 213.551 208.942 202.211 208.942C193.931 208.942 189.221 214.012 189.221 221.032C189.221 228.022 194.231 233.092 202.511 233.092C214.211 233.092 215.141 223.882 215.141 223.882L211.121 222.712C211.121 222.712 210.941 230.122 202.511 230.122C196.871 230.122 193.331 226.162 193.331 221.032C193.331 215.872 196.571 211.912 202.211 211.912C210.191 211.912 210.491 219.802 210.491 219.802L214.511 218.602ZM219.652 232.672H238.102V230.122H223.552V222.262H236.392V219.712H223.552V211.912H237.232V209.362H219.652V232.672ZM266.396 218.602C266.396 218.602 265.436 208.942 254.096 208.942C245.816 208.942 241.106 214.012 241.106 221.032C241.106 228.022 246.116 233.092 254.396 233.092C266.096 233.092 267.026 223.882 267.026 223.882L263.006 222.712C263.006 222.712 262.826 230.122 254.396 230.122C248.756 230.122 245.216 226.162 245.216 221.032C245.216 215.872 248.456 211.912 254.096 211.912C262.076 211.912 262.376 219.802 262.376 219.802L266.396 218.602ZM271.537 209.362V232.672H275.437V209.362H271.537ZM280.824 232.672H298.074V230.122H284.724V209.362H280.824V232.672ZM300.775 209.362V232.672H304.675V209.362H300.775ZM331.812 232.672H335.982L325.182 209.362H318.762L307.962 232.672H312.102L315.432 225.262H328.482L331.812 232.672ZM321.462 211.912H322.512L327.342 222.712H316.602L321.462 211.912ZM175.808 267.702C175.808 267.702 174.428 258.942 163.598 258.942C155.318 258.942 150.608 264.012 150.608 271.032C150.608 278.022 155.318 283.092 162.698 283.092C169.898 283.092 171.518 278.172 171.518 278.172V282.672H175.418V270.852H162.728V273.402H171.518C171.518 273.402 171.068 280.122 163.298 280.122C157.958 280.122 154.718 276.162 154.718 271.032C154.718 265.872 157.958 261.912 163.598 261.912C171.098 261.912 171.788 268.902 171.788 268.902L175.808 267.702ZM202.76 282.672H206.93L196.13 259.362H189.71L178.91 282.672H183.05L186.38 275.262H199.43L202.76 282.672ZM192.41 261.912H193.46L198.29 272.712H187.55L192.41 261.912ZM210.219 282.672H228.669V280.122H214.119V272.262H226.959V269.712H214.119V261.912H227.799V259.362H210.219V282.672ZM229.872 261.912H239.772V282.672H243.582V261.912H253.482V259.362H229.872V261.912ZM273.424 282.672H277.594L266.794 259.362H260.374L249.574 282.672H253.714L257.044 275.262H270.094L273.424 282.672ZM263.074 261.912H264.124L268.954 272.712H258.214L263.074 261.912ZM280.883 259.362V282.672H284.783V271.992H288.683C293.633 271.992 295.193 272.952 295.823 275.592C297.083 280.902 297.353 282.072 297.803 282.672H301.853C301.403 282.072 301.133 281.052 299.543 274.932C298.853 272.232 296.393 271.212 294.203 270.942C298.253 270.942 301.253 269.232 301.253 265.662C301.253 261.372 297.983 259.362 290.783 259.362H280.883ZM284.783 269.442V261.912H290.783C294.383 261.912 297.143 262.662 297.143 265.662C297.143 268.662 294.383 269.442 290.783 269.442H284.783ZM306.342 282.672H324.792V280.122H310.242V272.262H323.082V269.712H310.242V261.912H323.922V259.362H306.342V282.672ZM328.695 282.672H345.945V280.122H332.595V259.362H328.695V282.672ZM348.646 282.672H365.896V280.122H352.546V259.362H348.646V282.672ZM368.597 259.362V282.672H372.497V259.362H368.597Z" fill="#151515"/>
</svg>
