<svg width="761" height="761" viewBox="0 0 761 761" fill="none" xmlns="http://www.w3.org/2000/svg">
<path d="M332.515 0.409688L395.349 170.307L481.596 11.0123L474.631 192.022L615.272 77.8587L539.567 242.425L713.191 190.772L580.272 313.841L760.446 332.563L590.549 395.397L749.844 481.644L568.834 474.679L682.997 615.32L518.431 539.615L570.084 713.239L447.015 580.32L428.293 760.494L365.458 590.597L279.212 749.891L286.177 568.882L145.536 683.045L221.241 518.479L47.6172 570.131L180.536 447.063L0.361796 428.341L170.259 365.506L10.9644 279.26L191.974 286.225L77.8108 145.584L242.377 221.289L190.724 47.665L313.793 180.583L332.515 0.409688Z" fill="#1D91FF"/>
</svg>
