<svg width="372" height="377" viewBox="0 0 372 377" fill="none" xmlns="http://www.w3.org/2000/svg">
<path d="M188.097 105.795L188.863 107.866L189.915 105.924L224.52 42.01L221.725 114.637L221.64 116.844L223.355 115.452L279.784 69.6459L249.409 135.675L248.486 137.681L250.603 137.052L320.267 116.327L266.935 165.706L265.315 167.206L267.511 167.435L339.803 174.947L271.635 200.158L269.564 200.924L271.505 201.975L335.42 236.58L262.792 233.786L260.586 233.701L261.977 235.415L307.784 291.845L241.754 261.47L239.748 260.547L240.378 262.663L261.103 332.327L211.723 278.996L210.223 277.376L209.995 279.572L202.483 351.864L177.272 283.695L176.506 281.624L175.454 283.566L140.849 347.48L143.644 274.853L143.729 272.646L142.014 274.038L85.5846 319.844L115.96 253.815L116.883 251.809L114.766 252.439L45.1025 273.163L98.4339 223.784L100.054 222.284L97.8578 222.056L25.566 214.544L93.7344 189.332L95.8054 188.566L93.8636 187.515L29.9494 152.91L102.577 155.705L104.783 155.789L103.392 154.075L57.5853 97.6452L123.615 128.02L125.621 128.943L124.991 126.827L104.266 57.1631L153.646 110.494L155.146 112.115L155.374 109.918L162.886 37.6266L188.097 105.795Z" fill="#151515" stroke="black" stroke-width="2"/>
<path d="M195.164 93.6621L195.93 95.7332L196.981 93.7914L231.586 29.8771L228.792 102.504L228.707 104.711L230.421 103.319L286.851 57.513L256.476 123.543L255.553 125.549L257.669 124.919L327.333 104.194L274.002 153.573L272.381 155.074L274.578 155.302L346.869 162.814L278.701 188.025L276.63 188.791L278.572 189.842L342.486 224.448L269.859 221.653L267.652 221.568L269.044 223.282L314.85 279.712L248.821 249.337L246.815 248.414L247.444 250.531L268.169 320.194L218.79 266.863L217.29 265.243L217.061 267.439L209.549 339.731L184.338 271.562L183.572 269.491L182.521 271.433L147.916 335.347L150.71 262.72L150.795 260.514L149.081 261.905L92.651 307.712L123.026 241.682L123.949 239.676L121.833 240.306L52.1689 261.03L105.5 211.651L107.121 210.151L104.924 209.923L32.6324 202.411L100.801 177.199L102.872 176.433L100.93 175.382L37.0158 140.777L109.643 143.572L111.85 143.657L110.458 141.942L64.6517 85.5124L130.681 115.888L132.687 116.81L132.058 114.694L111.333 45.0303L160.712 98.3617L162.212 99.9819L162.44 97.7856L169.952 25.4938L195.164 93.6621Z" fill="#E9E9E9" stroke="black" stroke-width="2"/>
</svg>
