<svg id="Capa_2" data-name="Capa 2" xmlns="http://www.w3.org/2000/svg" viewBox="0 0 76.33619 80.54338">
  <rect width="76.33619" height="80.54338" opacity="0"/>
  <path d="M40.4701,23.96548,53.13123,11.30441a1.73613,1.73613,0,0,0-2.45532-2.4552L38.16809,21.35715,25.66,8.84921a1.736,1.736,0,1,0-2.45508,2.4552L35.86585,23.96548,23.205,36.6268A1.736,1.736,0,0,0,25.66,39.082L38.16809,26.57407,50.67591,39.082a1.73613,1.73613,0,0,0,2.45532-2.4552Z" fill="#0b132b" fill-rule="evenodd"/>
  <g>
    <path d="M16.01966,67.498a4.34755,4.34755,0,0,1-.94141,1.51367,4.05771,4.05771,0,0,1-1.43457.96484,4.79723,4.79723,0,0,1-1.79688.33008A4.82184,4.82184,0,0,1,9.298,69.65518a4.34174,4.34174,0,0,1-1.66211-1.84277,7.1397,7.1397,0,0,1,0-5.67871A4.34182,4.34182,0,0,1,9.298,60.29092a4.75976,4.75976,0,0,1,2.51757-.65136,5.4064,5.4064,0,0,1,1.78809.27441,3.61233,3.61233,0,0,1,1.3418.81543,3.96491,3.96491,0,0,1,.88574,1.32617l-1.23926.58008a2.87243,2.87243,0,0,0-.99609-1.35644,2.84291,2.84291,0,0,0-1.68555-.4629,3.44445,3.44445,0,0,0-1.85156.49415A3.31417,3.31417,0,0,0,8.81165,62.7294a5.127,5.127,0,0,0-.44629,2.24316,5.38055,5.38055,0,0,0,.42285,2.23536,3.19039,3.19039,0,0,0,1.208,1.42773,3.40016,3.40016,0,0,0,1.85058.49414,3.11854,3.11854,0,0,0,1.80469-.52539,2.95176,2.95176,0,0,0,1.11328-1.57617Z" fill="#0b132b"/>
    <path d="M22.82727,68.97256H28.756v1.17676H21.57239V59.79678h1.25488Z" fill="#0b132b"/>
    <path d="M37.90149,59.63956a4.823,4.823,0,0,1,2.54981.65136,4.34188,4.34188,0,0,1,1.66211,1.84278,7.13981,7.13981,0,0,1,0,5.67871,4.3418,4.3418,0,0,1-1.66211,1.84277,5.31443,5.31443,0,0,1-5.09864,0,4.3418,4.3418,0,0,1-1.66211-1.84277,7.13981,7.13981,0,0,1,0-5.67871,4.34188,4.34188,0,0,1,1.66211-1.84278A4.82189,4.82189,0,0,1,37.90149,59.63956Zm0,1.17675a3.39176,3.39176,0,0,0-1.85058.49415,3.18765,3.18765,0,0,0-1.208,1.42675,6.11992,6.11992,0,0,0,0,4.47071,3.19032,3.19032,0,0,0,1.208,1.42773,3.72881,3.72881,0,0,0,3.71,0,3.21811,3.21811,0,0,0,1.20019-1.42773,6.11992,6.11992,0,0,0,0-4.47071,3.21538,3.21538,0,0,0-1.20019-1.42675A3.38536,3.38536,0,0,0,37.90149,60.81631Z" fill="#0b132b"/>
    <path d="M51.92493,59.63956a4.71536,4.71536,0,0,1,2.35254.55664,4.54265,4.54265,0,0,1,1.64746,1.63965l-1.05078.81543a3.70947,3.70947,0,0,0-1.30957-1.41993,3.52052,3.52052,0,0,0-1.76465-.415,3.45308,3.45308,0,0,0-1.37305.23536,1.73459,1.73459,0,0,0-.792.61914,1.55474,1.55474,0,0,0-.251.87109,1.46409,1.46409,0,0,0,.34473.96387,2.52778,2.52778,0,0,0,1.38086.65137l2.24316.502a3.84071,3.84071,0,0,1,2.07813.99609,2.40865,2.40865,0,0,1,.58789,1.65528,2.58783,2.58783,0,0,1-.49414,1.56054,3.19074,3.19074,0,0,1-1.3877,1.0586,5.39339,5.39339,0,0,1-2.10254.377,5.86862,5.86862,0,0,1-1.98339-.30664,4.67227,4.67227,0,0,1-1.4668-.82324,4.72992,4.72992,0,0,1-1.00391-1.16114l1.09766-.89355a3.8211,3.8211,0,0,0,.76855,1.05078,3.25176,3.25176,0,0,0,1.1377.70605,4.329,4.329,0,0,0,1.5293.251,4.392,4.392,0,0,0,1.38769-.19629,1.90806,1.90806,0,0,0,.90235-.58008,1.42872,1.42872,0,0,0,.31347-.93359,1.38022,1.38022,0,0,0-.3291-.90137,2.20225,2.20225,0,0,0-1.23926-.60449l-2.43164-.54883a4.778,4.778,0,0,1-1.54492-.60449,2.31294,2.31294,0,0,1-.84668-.90918,2.5362,2.5362,0,0,1-.25879-1.13769,2.7117,2.7117,0,0,1,.46192-1.5293,3.26631,3.26631,0,0,1,1.334-1.12109A4.66909,4.66909,0,0,1,51.92493,59.63956Z" fill="#0b132b"/>
    <path d="M61.79114,70.14932V59.79678h7.2627v1.17578H63.046v3.3418h4.67383v1.17578H63.046v3.48242h6.24317v1.17676Z" fill="#0b132b"/>
  </g>
</svg>
