<?xml version="1.0" encoding="utf-8"?>
<!-- Generator: Adobe Illustrator 24.0.1, SVG Export Plug-In . SVG Version: 6.00 Build 0)  -->
<svg version="1.1" id="layer" xmlns="http://www.w3.org/2000/svg" xmlns:xlink="http://www.w3.org/1999/xlink" x="0px" y="0px"
	 viewBox="0 0 652 487.6" style="enable-background:new 0 0 652 487.6;" xml:space="preserve">
<style type="text/css">
	.st0{fill:#212529;}
</style>
<g>
	<path class="st0" d="M325.7,282.7l2.3-0.1l0.1,12.6h-2.3L325.7,282.7z M319,295.3l0.6-12.6l2.3,0.1l-0.5,12.6L319,295.3z
		 M331.7,282.6l2.3-0.1l0.7,12.6l-2.3,0.2L331.7,282.6z M312.5,294.8l0.9-12.6l2.4,0.2l-1,12.6L312.5,294.8z M337.7,282.2l2.3-0.3
		l1.2,12.6l-2.3,0.2L337.7,282.2z M305.8,294l1.7-12.5l2.3,0.3l-1.6,12.5L305.8,294z M343.7,281.5l2.3-0.4l1.9,12.5l-2.2,0.3
		L343.7,281.5z M299.3,293l2.2-12.4l2.4,0.4l-2.3,12.4L299.3,293z M349.7,280.5l2.3-0.5l2.5,12.4l-2.3,0.4L349.7,280.5z
		 M292.8,291.6l2.7-12.4l2.3,0.6l-2.7,12.4L292.8,291.6z M355.6,279.3l2.3-0.6l3.1,12.3l-2.3,0.6L355.6,279.3z M286.4,290l3.3-12.2
		l2.3,0.6l-3.4,12.2L286.4,290z M361.6,277.7l2.2-0.7l3.6,12.2l-2.2,0.7L361.6,277.7z M280,288l3.9-12l2.2,0.7l-3.9,12.1L280,288z
		 M367.3,275.8l2.2-0.7l4.1,12l-2.2,0.7L367.3,275.8z M273.7,285.7l4.6-11.8l2.2,0.8l-4.6,11.8L273.7,285.7z M373,273.7l2.2-0.9
		l4.8,11.7l-2.2,0.9L373,273.7z M267.6,283.2l5-11.6l2.2,0.9l-5,11.6L267.6,283.2z M378.6,271.4l2.2-1l5.2,11.4l-2.2,1L378.6,271.4z
		 M261.6,280.3l5.5-11.3l2.2,1l-5.5,11.4L261.6,280.3z M384.1,268.9l2.2-1.1L392,279l-2.1,1.1L384.1,268.9z M255.7,277.2l6.1-11
		l2.1,1.1l-6.1,11.1L255.7,277.2z M389.4,266l2.1-1.2l6.4,10.9l-2.1,1.2L389.4,266z M250,273.8l6.6-10.8l2.1,1.2l-6.6,10.9
		L250,273.8z M394.6,262.9l2-1.3l6.9,10.6l-2,1.3L394.6,262.9z M244.4,270.2l7.1-10.4l2,1.3l-7.1,10.4L244.4,270.2z M399.7,259.4
		l2-1.4l7.3,10.4l-2,1.4L399.7,259.4z M239,266.2l7.7-10.1l1.9,1.4l-7.6,10.1L239,266.2z M404.6,255.9l1.9-1.5l7.8,10l-1.9,1.5
		L404.6,255.9z M233.8,262.1l8-9.8l1.9,1.5l-8,9.8L233.8,262.1z M409.3,252l1.8-1.5l8.1,9.5l-1.8,1.5L409.3,252z M228.8,257.7
		l8.4-9.4l1.8,1.6l-8.4,9.4L228.8,257.7z M413.8,248.1l1.8-1.6l8.7,9.2l-1.8,1.6L413.8,248.1z M224,253.1l8.9-9.1l1.7,1.7l-8.9,9
		L224,253.1z M418.2,243.9l1.7-1.7l9.1,8.8l-1.7,1.7L418.2,243.9z M219.5,248.3l9.4-8.5l1.6,1.8l-9.3,8.5L219.5,248.3z M422.3,239.4
		l1.6-1.8l9.4,8.3l-1.6,1.8L422.3,239.4z M215.1,243.2l9.7-8.1l1.5,1.8l-9.6,8.1L215.1,243.2z M426.3,234.8l1.5-1.9l9.9,7.9
		l-1.5,1.9L426.3,234.8z M211,238l10.1-7.6l1.4,1.9l-10.1,7.7L211,238z M430,230l1.4-2l10.3,7.3l-1.4,2L430,230z M207.1,232.5
		l10.4-7.1l1.4,2l-10.5,7.1L207.1,232.5z M433.6,225l1.3-2l10.6,7.1l-1.3,2L433.6,225z M203.5,227l10.8-6.6l1.2,2.1l-10.8,6.6
		L203.5,227z M436.8,219.9l1.2-2.1l10.9,6.5l-1.2,2.1L436.8,219.9z M200.2,221.2l11-6.3l1.1,2.1l-10.9,6.3L200.2,221.2z
		 M439.8,214.7l1.1-2.2l11.1,6l-1.1,2.1L439.8,214.7z M197.1,215.4l11.3-5.7l1,2.1l-11.3,5.7L197.1,215.4z M442.5,209.3l1-2.2
		l11.4,5.4l-1,2.2L442.5,209.3z M194.3,209.3l11.5-5.2l1,2.2l-11.6,5.1L194.3,209.3z M445.1,203.8l0.9-2.2l11.7,4.8l-0.8,2.2
		L445.1,203.8z M191.9,203.1l11.8-4.6l0.8,2.2l-11.8,4.6L191.9,203.1z M447.3,198.1l0.8-2.2l11.9,4.3l-0.7,2.2L447.3,198.1z
		 M189.6,196.8l12-3.9l0.7,2.2l-12,4L189.6,196.8z M449.4,192.4l0.7-2.2l12.1,3.8l-0.7,2.2L449.4,192.4z M187.8,190.4l12.2-3.4
		l0.7,2.2l-12.2,3.4L187.8,190.4z M451,186.6l0.6-2.3l12.3,3.2l-0.7,2.2L451,186.6z M186.2,183.9l12.3-2.8l0.6,2.2l-12.4,2.8
		L186.2,183.9z M452.4,180.7l0.5-2.3l12.4,2.5l-0.5,2.3L452.4,180.7z M184.8,177.5l12.4-2.3l0.5,2.3l-12.4,2.3L184.8,177.5z
		 M453.7,174.8l0.4-2.3l12.5,2l-0.4,2.3L453.7,174.8z M183.8,170.9l12.4-1.8l0.4,2.3l-12.4,1.7L183.8,170.9z M454.5,168.8l0.3-2.4
		l12.5,1.5l-0.3,2.3L454.5,168.8z M183.1,164.2l12.6-1l0.2,2.3l-12.5,1.1L183.1,164.2z M455.2,162.7l0.2-2.3l12.6,0.8l-0.2,2.3
		L455.2,162.7z M182.7,157.6l12.6-0.6l0.1,2.3l-12.5,0.6L182.7,157.6z M455.4,157.9l0.1-2.3l12.6,0.4l-0.1,2.4L455.4,157.9z
		 M182.7,153.3V151h12.6v2.3H182.7z M455.5,149.5l12.6-0.2v2.3l-12.6,0.2V149.5z M182.8,146.7l0.1-2.4l12.6,0.7l-0.1,2.3
		L182.8,146.7z M455.3,143.5l12.6-0.8l0.2,2.3l-12.6,0.8L455.3,143.5z M183.2,140l0.3-2.3l12.5,1.1l-0.2,2.3L183.2,140z
		 M454.7,137.4l12.5-1.3l0.3,2.3l-12.6,1.3L454.7,137.4z M183.9,133.4l0.3-2.3l12.5,1.8l-0.3,2.3L183.9,133.4z M453.9,131.3
		l12.5-1.9l0.3,2.3l-12.5,1.9L453.9,131.3z M185,126.8l0.5-2.2L198,127l-0.5,2.3L185,126.8z M452.7,125.4l12.4-2.5l0.5,2.3
		l-12.4,2.5L452.7,125.4z M186.4,120.4l0.6-2.3l12.3,2.9l-0.6,2.2L186.4,120.4z M451.3,119.5l12.3-3.2l0.6,2.2l-12.3,3.2
		L451.3,119.5z M187.9,113.9l0.7-2.3l12.2,3.5l-0.7,2.2L187.9,113.9z M449.6,113.7l12.1-3.6l0.7,2.2l-12.1,3.7L449.6,113.7z
		 M190,107.6l0.7-2.2l12,4.1l-0.7,2.2L190,107.6z M447.7,107.9l12-4.1l0.7,2.2l-12,4.2L447.7,107.9z M192.3,101.2l0.8-2.2l11.8,4.7
		l-0.8,2.2L192.3,101.2z M445.4,102.2l11.7-4.7l0.9,2.2l-11.7,4.8L445.4,102.2z M194.8,95l0.9-2.2l11.5,5.3l-1,2.2L194.8,95z
		 M443,96.8l11.5-5.3l1,2.2L444.1,99L443,96.8z M197.6,89.1l1-2.1l11.3,5.7l-1,2.1L197.6,89.1z M440.2,91.4l11.2-5.8l1.1,2.1
		l-11.2,5.9L440.2,91.4z M200.7,83.2l1.1-2.1l11,6.3l-1.2,2.1L200.7,83.2z M437.2,86l10.9-6.4l1.2,2L438.5,88L437.2,86z M204,77.4
		l1.2-2l10.8,6.7l-1.3,2L204,77.4z M434,81l10.6-6.9l1.3,2l-10.6,6.8L434,81z M207.7,71.9l1.4-2l10.3,7.3l-1.3,2L207.7,71.9z
		 M430.6,75.9l10.3-7.4l1.4,2L432,77.9L430.6,75.9z M211.6,66.5l1.5-1.9l10,7.8l-1.5,1.9L211.6,66.5z M426.9,71.2l9.9-7.9l1.5,1.9
		l-9.9,7.9L426.9,71.2z M215.7,61.3l1.5-1.8l9.6,8.2l-1.5,1.8L215.7,61.3z M423,66.5l9.5-8.2l1.6,1.8l-9.5,8.3L423,66.5z
		 M220.1,56.2l1.6-1.8l9.2,8.7l-1.6,1.8L220.1,56.2z M418.9,62.1l9.2-8.7l1.7,1.7l-9.2,8.7L418.9,62.1z M224.7,51.5l1.7-1.7l8.9,9
		l-1.7,1.7L224.7,51.5z M414.6,57.9l8.7-9.2l1.7,1.7l-8.7,9.2L414.6,57.9z M229.5,46.9l1.8-1.6l8.4,9.4l-1.8,1.6L229.5,46.9z
		 M410,53.8l8.2-9.5l1.8,1.5l-8.2,9.6L410,53.8z M234.5,42.5l1.9-1.5l8,9.8l-1.9,1.5L234.5,42.5z M405.3,49.8l8-9.8l1.8,1.5
		l-7.9,9.8L405.3,49.8z M239.8,38.4l2-1.4l7.5,10.2l-1.9,1.4L239.8,38.4z M400.4,46.3l7.5-10.2l1.9,1.4l-7.5,10.2L400.4,46.3z
		 M245.2,34.6l2-1.3l7,10.5l-2.1,1.3L245.2,34.6z M395.4,42.9l7-10.6l2,1.3l-6.9,10.6L395.4,42.9z M250.8,30.9l2-1.2l6.5,10.9
		l-2,1.2L250.8,30.9z M390.2,39.7l6.4-10.9l2.1,1.1l-6.5,10.9L390.2,39.7z M256.5,27.6l2.1-1.1l6,11.1l-2.1,1.1L256.5,27.6z
		 M384.9,36.9l5.9-11.2l2.1,1.1L387,38L384.9,36.9z M262.5,24.5l2.2-1l5.4,11.4l-2.2,1L262.5,24.5z M379.4,34.2l5.4-11.4l2.2,1
		l-5.3,11.4L379.4,34.2z M268.4,21.7l2.2-0.9l5.1,11.6l-2.2,0.9L268.4,21.7z M373.9,31.9l4.8-11.7l2.2,0.9L376,32.8L373.9,31.9z
		 M274.6,19.2l2.2-0.8l4.4,11.9l-2.2,0.8L274.6,19.2z M368.1,29.7l4.2-11.9l2.2,0.7l-4.2,11.9L368.1,29.7z M280.9,17l2.2-0.7
		l3.8,12.1l-2.2,0.7L280.9,17z M362.4,27.9l3.6-12.2l2.2,0.7l-3.6,12.2L362.4,27.9z M287.3,15l2.2-0.6l3.3,12.3l-2.2,0.6L287.3,15z
		 M356.5,26.3l3.2-12.2l2.2,0.6l-3.1,12.3L356.5,26.3z M293.8,13.4l2.3-0.6l2.6,12.4l-2.2,0.5L293.8,13.4z M350.7,25l2.5-12.4
		l2.3,0.5L353,25.4L350.7,25z M300.2,12.1l2.3-0.4l2.2,12.4l-2.3,0.4L300.2,12.1z M344.7,24l2-12.4l2.3,0.3l-2,12.4L344.7,24z
		 M306.9,11.1l2.3-0.3l1.6,12.5l-2.3,0.3L306.9,11.1z M338.6,23.2l1.4-12.5l2.3,0.3l-1.4,12.6L338.6,23.2z M313.4,10.4l2.4-0.2
		l0.9,12.6l-2.3,0.2L313.4,10.4z M332.5,22.7l0.8-12.6l2.3,0.2l-0.8,12.6L332.5,22.7z M320.2,10l2.3-0.1l0.3,12.6h-2.3L320.2,10z
		 M326.5,22.5l0.2-12.7h2.4l-0.2,12.7H326.5z"/>
	<path class="st0" d="M508.8,471.5c1.6,1.8,5.6,6.2,14.1,6.2c9.4,0,15.5-5.6,15.5-13.1c0-5.9-5.1-10-8.3-11.4V453
		c3.1-1.4,7.1-5.5,7.1-10.8c0-7.7-6.4-12.5-14.3-12.5c-7.5,0-12.7,6-12.7,6c-0.5,0.6-0.6,1.3,0,1.8l2.5,2.2c0.6,0.6,1.4,0.4,1.8-0.2
		c1.4-1.5,3.8-3.8,8-3.8s7.9,2.9,7.9,7.5c0,4-3.3,7.3-9.6,7.3h-3.8c-0.9,0-1.4,0.5-1.4,1.5v3c0,0.9,0.6,1.4,1.3,1.4h3.8
		c7.4,0,10.9,3.9,10.9,8c0,4.6-4.1,7.4-8.6,7.4c-5.1,0-8.9-3.6-9.4-4.2c-0.6-0.7-1.2-0.7-1.9-0.1l-2.7,2.5
		C508.4,470.3,508.4,471.1,508.8,471.5 M488.3,471.5c-7.5,0-10-7.9-9.4-13.6c0.4-1.2,3.9-5.2,9.4-5.2c5.1,0,9.2,4.2,9.2,9.4
		C497.3,467.2,493.3,471.5,488.3,471.5 M472.1,458.4c0,10.6,5.2,19.2,16.2,19.2c8.3,0,15.3-7.1,15.3-15.7c0-9.4-7.1-14.9-14.4-14.9
		c-4.6,0-8.6,2.2-9.1,2.5c2.2-8.4,13.2-14.1,16.4-15.2c1.3-0.4,1.6-1.1,1.2-2l-1.1-2.8c-0.3-0.7-0.9-1-1.8-0.8
		C488.5,431.2,472.1,439.2,472.1,458.4 M440.5,464.7c0-3.6,3.2-7.5,8.7-8.2c5.6,0.8,8.7,4.6,8.7,8.2c0,4.6-3.9,7.5-8.8,7.5
		C444.6,472.1,440.5,469.2,440.5,464.7 M449.2,449.8c-5.3-0.8-7.7-3.6-7.7-7.3c0-4.2,3.4-7.2,7.5-7.2c4.5,0,7.9,3,7.9,7.2
		C456.8,446.1,454.5,449.1,449.2,449.8 M433.3,464.5c0,7.5,6.1,13.2,15.7,13.2c10,0,16-5.7,16-13.2c0-5.9-5.1-10-8.3-11.5v-0.2
		c3-1.5,7-5.3,7-10.6c0-7.6-6.3-12.5-14.7-12.5c-8.2,0-14.6,5.1-14.6,12.5c0,5.3,4.1,9.2,7.1,10.7v0.2
		C439.1,454.1,433.3,458.5,433.3,464.5 M400.4,477h23.9c0.7,0,1.3-0.6,1.3-1.2v-3c0-0.7-0.6-1.3-1.3-1.3h-7.6v-39.9
		c0-0.7-0.6-1.3-1.2-1.3h-3.4l-10.2,9.2c-0.3,0.3-0.4,0.8-0.2,1.4l0.8,2.4c0.2,0.6,0.9,0.7,1.5,0.5l6-3v30.8h-9.5
		c-0.7,0-1.3,0.6-1.3,1.3v3C399,476.4,399.6,477,400.4,477 M337.8,453c0-9.7,8-18,17.8-18c9.8,0,17.9,8.2,17.9,18
		c0,9.8-8,17.8-17.9,17.8C345.9,470.8,337.8,462.8,337.8,453 M331,453c0,13.8,10.9,24.7,24.6,24.7c13.7,0,24.7-10.9,24.7-24.7
		c0-13.8-11-24.8-24.7-24.8C341.9,428.2,331,439.2,331,453 M281.2,475.6c0,0.7,0.7,1.3,1.3,1.3h4.3c0.7,0,1.3-0.6,1.3-1.3v-33.4h0.1
		l29.8,35.5h1.8c0.7,0,1.3-0.6,1.3-1.2v-46.2c0-0.7-0.7-1.3-1.3-1.3h-4.4c-0.7,0-1.3,0.6-1.3,1.3v32.5H314l-29.8-34.4h-1.7
		c-0.7,0-1.3,0.6-1.3,1.2V475.6z M243.2,460.7l8.4-18.8h0.4l8.4,18.8H243.2z M230.5,477h4.4c0.8,0,1.4-0.6,1.6-1
		c1.4-3.2,2.8-6.3,4.2-9.4h22.5l4.2,9.4c0.2,0.7,0.7,1,1.6,1h4.3c1,0,1.6-0.8,1.1-1.8l-21-46.1c-0.2-0.5-0.7-0.7-1.1-0.7h-0.7
		c-0.3,0-0.9,0.3-1.1,0.7l-21.1,46.1C228.9,476.1,229.5,477,230.5,477 M198.1,475.6c0,0.7,0.6,1.3,1.3,1.3h24.4
		c0.7,0,1.3-0.6,1.3-1.3v-3.8c0-0.7-0.6-1.3-1.3-1.3h-18.6v-40.4c0-0.7-0.7-1.3-1.3-1.3h-4.5c-0.7,0-1.3,0.6-1.3,1.3L198.1,475.6
		L198.1,475.6z M177.7,475.6c0,0.7,0.7,1.3,1.3,1.3h4.5c0.7,0,1.3-0.6,1.3-1.3v-45.5c0-0.7-0.7-1.3-1.3-1.3H179
		c-0.7,0-1.3,0.6-1.3,1.3V475.6z M114.8,475.5c-0.2,1,0.4,1.6,1.3,1.6h4.4c0.6,0,1.1-0.5,1.2-0.9l5-30.7h0.3l12.4,31.6
		c0.1,0.4,0.7,0.7,1.1,0.7h1.2c0.7,0,1-0.4,1.1-0.7l12.4-31.6h0.2l5.1,30.7c0.2,0.5,0.7,0.9,1.3,0.9h4.4c1,0,1.5-0.6,1.3-1.6
		l-8.4-46.1c-0.1-0.6-0.7-1-1.2-1h-1.1c-0.5,0-1,0.3-1.2,0.7l-14.1,35h-0.3l-14.3-35c-0.2-0.5-0.7-0.7-1.2-0.7h-1
		c-0.6,0-1.1,0.5-1.3,1L114.8,475.5z"/>
	<path class="st0" d="M586.2,362.2c0-12.4,10.1-22.6,22.5-22.6s22.5,10.3,22.5,22.6s-10.2,22.5-22.5,22.5
		C596.3,384.6,586.2,374.5,586.2,362.2 M573.4,362.2c0,19.6,15.6,35.2,35.2,35.2c19.6,0,35.4-15.6,35.4-35.2
		c0-19.6-15.7-35.5-35.4-35.5C589,326.7,573.4,342.5,573.4,362.2 M505,362.2c0,19.6,15.8,35.2,35.4,35.2c8.8,0,17.2-3.1,23.9-9.5
		c0.7-0.7,0.9-2,0.1-2.6l-6.1-6.3c-0.6-0.6-1.6-0.7-2.4,0c-4.1,3.3-9.2,5.5-15.1,5.5c-12.5,0-22-10.4-22-22.6
		c0-12.4,9.4-22.8,21.9-22.8c5.5,0,10.9,2.2,15.1,5.8c0.7,0.7,1.8,0.7,2.4,0l6-6.2c0.7-0.7,0.7-2-0.1-2.7c-6.6-6-13.8-9.2-23.8-9.2
		C520.8,326.7,505,342.5,505,362.2 M479.3,394.5c0,1,0.9,1.8,1.9,1.8h9.2c0.9,0,1.9-0.8,1.9-1.8v-64.9c0-1-0.8-1.9-1.9-1.9h-9.2
		c-1,0-1.9,0.9-1.9,1.9V394.5z M404.5,394.5c0,1,0.8,1.8,1.9,1.8h9c1,0,1.9-0.8,1.9-1.8v-42.2h0.1l41,45h2.3c0.9,0,1.8-0.7,1.8-1.8
		v-66c0-1-0.8-1.9-1.8-1.9h-9.1c-1.1,0-1.9,0.9-1.9,1.9v40.5h-0.1l-40.8-43.3h-2.4c-1,0-1.9,0.7-1.9,1.8V394.5L404.5,394.5z
		 M332.2,362.2c0,19.6,15.8,35.2,35.5,35.2c8.7,0,17.1-3.1,23.9-9.5c0.7-0.7,0.8-2,0.1-2.6l-6.1-6.3c-0.6-0.6-1.7-0.7-2.4,0
		c-4.1,3.3-9.2,5.5-15.1,5.5c-12.5,0-22-10.4-22-22.6c0-12.4,9.4-22.8,21.9-22.8c5.5,0,10.9,2.2,15.1,5.8c0.7,0.7,1.8,0.7,2.4,0
		l6-6.2c0.7-0.7,0.7-2-0.1-2.7c-6.6-6-13.8-9.2-23.8-9.2C348,326.7,332.2,342.5,332.2,362.2 M278.6,394.5c0,1,0.7,1.8,1.8,1.8h40
		c1.1,0,1.9-0.8,1.9-1.8v-8c0-1-0.7-1.9-1.9-1.9h-29v-17.2h24.2c1,0,1.9-0.7,1.9-1.9v-8.1c0-1-0.9-1.9-1.9-1.9h-24.2v-16.1h29
		c1.1,0,1.9-0.8,1.9-1.9v-8c0-1-0.7-1.9-1.9-1.9h-40c-1,0-1.8,0.9-1.8,1.9L278.6,394.5L278.6,394.5z M237.7,394.5
		c0,1,0.9,1.8,1.9,1.8h9.1c0.9,0,1.9-0.8,1.9-1.8v-55h15.1c1.1,0,1.9-0.8,1.9-1.9v-8c0-1-0.7-1.9-1.9-1.9h-42.9
		c-1,0-1.9,0.9-1.9,1.9v8c0,1,0.8,1.9,1.9,1.9h15.1L237.7,394.5L237.7,394.5z M195.6,394.5c0,1,0.8,1.8,1.9,1.8h9.2
		c0.9,0,1.9-0.8,1.9-1.8v-64.9c0-1-0.8-1.9-1.9-1.9h-9.2c-1,0-1.9,0.9-1.9,1.9V394.5z M143.2,394.5c0,1,0.7,1.8,1.9,1.8H181
		c1,0,1.9-0.8,1.9-1.8v-8c0-1-0.8-1.9-1.9-1.9h-25v-55c0-1-0.8-1.9-1.9-1.9h-9c-1,0-1.9,0.9-1.9,1.9L143.2,394.5L143.2,394.5z
		 M75.2,362.2c0-12.4,10.1-22.6,22.5-22.6s22.5,10.3,22.5,22.6s-10.2,22.5-22.5,22.5C85.2,384.6,75.2,374.5,75.2,362.2 M62.4,362.2
		c0,19.6,15.6,35.2,35.3,35.2c19.6,0,35.3-15.6,35.3-35.2c0-19.6-15.7-35.5-35.3-35.5C78,326.7,62.4,342.5,62.4,362.2 M20.8,359.4
		v-19.7h11.3c5.5,0,10.1,4.1,10.1,9.5c0,5.8-4.6,10.2-10.1,10.2H20.8z M8.1,394.5c0,1,0.7,1.8,1.9,1.8h9.1c1,0,1.9-0.8,1.9-1.8
		v-23.1h12.2c12,0,21.8-9.9,21.8-22.1c0-11.9-9.8-21.7-21.9-21.7H9.9c-1,0-1.9,0.9-1.9,1.9L8.1,394.5L8.1,394.5z"/>
	<polygon class="st0" points="393.7,209.6 393.7,209.6 393.6,209.6 	"/>
	<path class="st0" d="M363.3,132.8l-5.6,1.2c-0.4,0.1-0.6,0.4-0.5,0.7c0.1,0.4,0.4,0.6,0.7,0.5l2-0.4l0.5,0.6
		c0.1,0.1,0.4,0.2,0.5,0.2c0.2,0,0.4-0.1,0.5-0.2c0.3-0.3,0.3-0.7,0.1-0.9l0,0l2.2-0.5c0.4-0.1,0.6-0.4,0.6-0.7
		C364,133,363.8,132.7,363.3,132.8"/>
	<path class="st0" d="M434.4,215.4c-2.2-0.3-5.1-7.5-4.9-14.3c0-1.8,0.2-3.6,0.6-5.2c1.6-6.6,6.2-22.6,6.2-41.6
		c0-4.1-0.2-8.3-0.7-12.6c-1.5-12.6-3.2-21.9-5.9-28.6l0,0c1.3-1.9,2.5-4.1,2.5-6.2c0-4.1-3.5-10.6-10.5-10.6c-0.7,0-1.3,0.1-2,0.2
		l-4.4,1.3c-3.6-2.7-7.1-3-9.4-3c-0.6,0-1,0-1.4,0c-0.7,0-1.2-0.1-1.4-0.2c-0.1,0-1.5-0.7-3.5-0.7c-0.5,0-0.9,0.1-1.5,0.2h-0.1
		c-2.1-0.4-4-0.5-6-0.5c-2.1,0-3.9,0.1-5.9,0.4c-0.3-0.5-1.5-2.3-4.2-4.4v-0.8c-0.1-2.2-2.2-5.8-2.2-5.8c-5.5-9.3-14-12.6-15.1-13.1
		c0.3-1.1,0.6-3.2,0.6-4.2c0-0.2,0-0.3,0-0.5H365h0.3c0-0.3,0.5-1.3,0.7-2.4c0,0,0-0.1,0-0.3c-0.1-1.6-1.8-4.7-2.7-6.7
		c-1.1-2.2-3.7-2.5-4.6-2.6c-2.4-2.3-6-2.6-7.8-2.6c-0.7,0-1.1,0-1.1,0c-0.2,0.1-4.6,1-5.6,1.9c-0.5,0.4-1.7,1.6-2.8,2.8
		c-1.3-0.7-2.7-1.1-3.9-1.1c-3.1,0-5.3,1.7-5.7,1.9c0-0.1-2.3,0.2-3.7,0.5c-1.7,0.2-3.1,0.9-6.5,5.1c-1.7,2-2.2,3.9-2.2,5.5
		c0,1.5,0.5,2.6,0.7,3c-1.5,0.5-2.8,1.5-3.6,2.2c-1.2,1.2-1.3,4.1-1.3,5.1c-0.2,0-0.4,0-0.5,0c-2.8,0.2-5.2,1.7-5.2,1.8
		c0,0.2-2,0.4-2.4,1.9c0,0.2,0.1,0.4,0.1,0.4c0.2,0.6,1.2,1.7,3.1,1.7h0.1c1.4,0.1,2.1-0.4,2.2-0.7c0.1,0,0.1,0,0.1-0.1
		c0.6,0.7,4.4,4.3,4.5,4.3c0.1,0.1,1.5,1,3.5,1c0.8,0,1.9-0.2,2.8-0.8c1.5-1.2,3.5-0.8,4.2-2.5c0.7-0.1,2.2-0.5,3.3-1
		c0.4-0.2,0.9-0.6,1.3-1.1l0,0c0.1-0.2,1.9-2.1,2.2-1.9v0.1c1.4,3.5,1.8,6.5,1.8,8.9c0,4.9-1.8,7.5-1.8,7.5
		c-0.3,0.4-1.3,2.9-2.1,4.6c-0.4-0.8-1-1.3-1.4-1.5c-0.2-0.7-0.7-1.3-1.1-1.6v-0.1c-0.2-2.3-2.5-2.5-2.2-2.6
		c-0.6-1.5-2.5-2.2-2.5-2.2c-0.8-1.4-3.3-1.6-3.3-1.7c0,0-0.1,0-0.3,0c-1.1,0-3.4,0.9-4,1.1c-0.2,0-0.6,0-0.9,0c-0.6,0-1.2,0-2,0.4
		c-0.2,0-0.5,0-0.7,0c-1.2,0-3.5,0.5-4.8,3.1c0,0-1.6,1.1-2.5,2.6c0,0.1-2.5,7.5-2.9,10.3c-0.4,2.9-0.2,2.1-0.4,2.8
		c-0.1,0.7-3.8,3.9-3.8,6.6c0,0.5,0.1,0.9,0.3,1.3c-2.2,1.6-8.9,7.5-8.9,19.9c0,1.2,0.1,2.5,0.2,3.9c-2.8-1.1-5.8-2-6.5-2.2
		c-0.5-0.7-1.2-0.8-1.6-1c-0.6-0.2-2.9-1.2-3.2-1.7c-0.8-0.9-2.4-1.3-3.5-1.4l0,0c-0.7-0.6-2.5-4.1-3.3-7c-1-3.2-1.8-7.1-1.8-11.2
		v-0.4l-0.4-0.2h0.4c0-4.6-3-10.3-3.8-12.4c-0.1-0.1-0.1-0.3-0.2-0.4l4.1-2.1c0,0.4-0.1,0.8-0.1,1.2c0,0.7,0.1,1.4,0.5,2.1
		c0,0,2.2,6.1,9,6.6c0.7,0,6.5,0.3,6.5,0.3c0.1,0,0.2,0,0.2,0c1.4,0.7,3.1,1.7,5.1,1.7c1.1,0,2.2-0.3,3.3-1c0,0,1.8-0.9,1.8-3.5
		c0-0.2,0-0.6-0.1-0.8c0.6-0.4,1.3-1.1,1.4-2.4c0-0.4-0.1-0.7-0.4-1.2l-0.5-0.8l2.2-0.4c0.1-0.2,1.8-0.4,2.1-2c0,0,0-0.2-0.1-0.4
		l-0.5-0.5c0,0-3-0.6-3.6-0.6c-0.3,0-3.7-0.6-3.7-0.6l-1.4,0.2l-1.5-0.4l0,0c-0.6-1.7-3.5-3.7-4.4-4.5c0.5-0.2,0.8-0.6,1.1-0.9
		c0.2-0.9,0.2-2.5,0.2-3.3c0-0.3,0-0.4,0-0.4s0-0.2-0.1-0.3c1.2-1.8,1.4-3.8,1.4-5.1l3,1.6c0.1,0,2.2,1.3,3.7,1.3h0.1
		c1.4-0.1,1.8-1.3,1.7-1.7l0.5-0.6c0.7-0.3,0.9-0.7,1.1-1c0.4,0,1.1-0.1,1.7-0.4c0.3-0.2,0.6-0.5,0.7-0.7c0.3,0.2,0.6,0.4,1,0.4
		c0.7,0,1.4-0.7,1.5-1.6c0.5-2.2,2.4-6.8,2.8-8c0.2-0.6,0.4-0.8,0.6-1c0.5,0.2,0.9,0.3,1.5,0.3h0.4c2.2-0.2,2.6-1.8,2.6-2.2
		c0-0.1,0.5-1.6,0.5-3.1c0-1.6-0.6-3.6-2.6-4.5c-0.5-0.9-2.2-4-5.6-4.1c-0.2,0-0.5,0-0.7,0c-0.9-0.7-4.6-3-8.6-3c-0.5,0-1,0-1.5,0.1
		c0.1,0-2.2-0.5-4.6-0.5c-2.6,0-6,0.4-6.6,3.1c-1.5,0.3-6.2,1-6.7,3.6c-0.3,0-0.7,0.1-0.8,0.3c-0.7,0.4-2.2,1.5-2.2,3.2
		c-2.5-1.1-5-1.3-6.2-1.3c-0.1,0-0.2,0-0.3,0c-0.3,0-0.4,0-0.5,0c0,0-3.5-0.4-7.2-0.4c-2,0-4,0.1-5.6,0.5c-4.4,1-9.9,2.1-12.4,3.5
		c-2.4,1.5-4.6,5.8-6.2,6.6c-1.8,1-4.9,2.2-5.8,5.9c-0.1,0.4-0.2,0.9-0.3,1.5c-0.7,0.2-5.6,1.9-10.2,10.2c0,0-3.1,3.7-4.1,4.6
		c-0.7,0.6-0.7,1.4-0.7,2.3c0,1.7,0.6,3.6,1.4,4.5c0.3,0.2,0.9,1,1.9,1.9c-0.4,0.6-0.8,1.5-0.8,2.8c0,1.4,0.4,3.2,1.8,5.4
		c-1.4,1-4.6,4.2-5.7,13.5c0,0-0.6,11.5-2.1,15.9c-2.7,5.7-8.8,12-8.8,12c-0.1,0.1-0.8,0.9-0.8,2.2c0,0.7,0.3,1.7,1.2,2.5l4.5,3.2
		c0.1,0.1,0.2,0.1,0.4,0.1c0,0.2,0.1,0.4,0.1,0.5c0.7,1.1,2.1,1.2,3.8,1.9c1.6,0.5,3,0.7,3.6,0.8c0.3,0.3,0.7,0.4,1.1,0.4
		c2.7,0.1,3.9,0,4.9,1.1c0.6,0.6,1.1,1.2,1.9,1.6c0.2,0.1,0.9,0.3,2.1,0.4c-1.9,1.1-3.7,2.8-4.1,5c-0.1,1.1-0.6,3.1-0.6,5.1
		c0,2.9,1.1,6.1,5.6,6.1h0.1l0.5-0.1c0,0,2.4-1.3,3.9-2.6c0.2,1.1,0.7,4.1,2.1,5.9c0.1,0.1,0.1,0.2,0.2,0.2
		c-0.1,0.4-0.3,1.6-0.3,3.2c0,2.5,0.6,6.2,3.3,9c-0.4,0.4-1.1,1.3-1.2,2.6c-0.1,1.4-0.1,3.9-1.1,6.2c-1.1,2.3-3.2,7.4-3.3,9.3
		c0,0,0,0.2,0.1,0.4c0.1,0.7,0.9,2.2,1.6,3.7c0.4,0.7,0.8,1.5,1.1,2c0.2,0.3,0.3,0.5,0.4,0.7c0,0.1,0.1,0.1,0.1,0.2
		c0.4,0.8,0.8,1.2,1.4,1.6c0.4,0.1,1.3,0.3,1.8,0.3v-0.1l0.2-0.2v0.3h0.1l0,0c0.2,0,0.7,0.1,1,0.1c0.1,0,0.3,0,0.4-0.1
		c0.4-0.2,1.4,0,1.8-1.3c0-0.2,0-0.5,0-0.7l0,0c0.7-0.6,1.5-1.4,1.7-2.5c0.1-0.3-0.2-0.7-0.7-0.8c-0.4-0.2-1.4-0.5-1.9-0.7
		c-0.7-0.3-1-0.3-1-0.5c-0.3-0.5-0.4-0.7-0.4-0.9v-0.2c0.2-0.4,0.8-1,1.3-1.3c0.3-0.3,5.9-4,6.7-4.1h0.1l0,0
		c1.1,0.3,3.1,0.7,3.6,1.4c1,0.9,8.8,7.5,10.8,8.4c1.6,0.7,8.5,5,12.3,5.4c3.4,0.4,9.4,1.7,12,2.3c1.3,0.4,3.5,0.7,5.5,0.7
		c2.1,0,4.3-0.4,5.8-2.1c2.2-2.7,3.6-2.9,3.8-5.1c0.1-0.9,0.4-3,0.4-5.1c0-1.6-0.2-3.3-0.9-4.5c-1.5-2.5-2.9-4.2-2.9-4.2
		c-0.1-0.1-0.1-0.2-0.2-0.2v-0.1c0.1-0.6,0.2-1.1,0.2-1.6c0-2.7-1.5-4.6-1.6-5.1c-0.1-0.4-0.8-2.5-1.7-5.2c-0.5-1.5-1-3.1-1.5-4.7
		c0.4-0.4,2-1.7,3.6-3.4c0.6,0.6,10.8,11.5,15.1,12.4c0.1,0,0.2,0.1,0.4,0.1c0,0,4.6-0.1,8.9-1.6c3.4-1.1,5.6-3.2,7.9-3.1
		c0.7,0,1.4,0.1,2.2,0.6c0,0.1,0.1,0.2,0.1,0.3c0.2,0.5,0.6,0.8,1,1.3l0.6,8.5c0,0.1,0,0.1,0,0.1c0,0.5,0,2.1,1.3,2.5l-1.2,8.5
		l-21.1,5c-0.2,0-0.3,0.1-0.4,0.2c0,0-0.1,0-0.1,0.1c-0.1,0.2-0.2,0.3-0.1,0.6v5.2l0.5,0.7l20.8,7h0.4l38-11.1
		c0.3-0.1,0.5-0.4,0.5-0.7V226c0-0.3-0.2-0.6-0.6-0.7l-21.8-4.5l-3.4,0.7l-2.4-15.8l0.1-0.1c0.9-1.2,2-3.2,2-5.7
		c0-0.7-0.1-1.5-0.3-2.2c-0.7-3.1-1-4.8-1-6c0-0.9,0.2-1.5,0.4-2.2c0.1-0.7,7.2-9.3,12-17.9c0,3-0.1,8-0.1,10.2c0,0.6,0,0.9,0,1.2
		c0,0.4,0.1,1.1,0.1,2c0,1.6-0.2,3.7-0.8,4.5c-1.2,1.8-2.5,4.5-2.5,6.2c0,0,0,0.2,0.1,0.5c0,0.4,0.1,1.1,0.1,1.8
		c0,0.8-0.1,1.6-0.2,1.9c-0.2,0.7-1.5,4.6-1.5,4.6c0,0.1-0.1,0.4-0.1,0.7c-0.1,1,0.4,3.5,3.1,3.7c1.3,0.2,2.9,0.3,4.3,0.3
		c2,0,3.7-0.2,4.9-0.7c1.5-0.8,2.8-2.2,2.9-3.6c0-0.2,0-0.5-0.2-0.7c-0.7-1.3-1.9-2.1-2.5-3c-0.7-0.7-1.4-2.3-1.4-3.3v-0.3
		c0-0.1,0.5-1.6,0.6-2.5V195l0,0l0,0V195c0-0.2-0.1-0.7-0.1-1.3c0-1.1,0.2-2.6,0.5-2.9c0.7-1,5.9-8.9,5.9-8.9
		c0.1-0.1,2.6-3.9,3.5-14.8V167c2.8-0.2,4.9-0.3,5.8-0.3l-0.2,0.6l-2.5,5.4c0,0-4.3,8.2-5.1,10.3c-0.5,1.2-2.2,4.7-2.2,9.7
		c0,2.4,0.5,5.3,1.6,8.3l1.4,5.1c2.3,7.6,3.6,8.8,6.6,9.2h0.2c-0.3,1-0.6,2-0.7,2.3c-0.3,0.7-0.9,1.8-1.2,3.1
		c-0.2,0.6-0.3,1.2-0.3,1.9c0,0.2,0,0.4,0.1,0.6c0.2,1.8,0.2,3.9,2.2,4.3c0.3,0.1,0.6,0.1,0.8,0.1c1.1,0,2.3-0.2,2.8-0.3
		c0.6,0.2,2.1,0.7,3.1,0.7c0.5,0.1,1,0.1,1.6,0.1c0.6,0,1.2-0.1,1.8-0.4c0.7-0.5,2.2-0.9,2.9-1.6c0.7-0.6,2.6-2,2.7-3.7v-0.1
		c-0.2-1.9-3.2-5.8-3.2-6c0,0.1,0,0,0-0.2c2.8,0.6,11,0.8,19.6,1.3c2.8,0.2,3.1,0.1,5.6,0.2c0.4,0,0.8,0.1,1.4,0.1
		c6.5,0,18.3-1.3,18.4-1.3c0.3,0,0.6-0.3,0.7-0.6C435,215.7,434.7,215.4,434.4,215.4 M403,96.1C403.1,96.1,403.1,96,403,96.1
		c0.5-0.1,0.9-0.1,1.4-0.1h1.4c2.3,0,5.5,0.3,9,2.9l0.7,0.1l4.6-1.4c0.6-0.1,1.1-0.1,1.7-0.1c6.1,0,9.2,5.7,9.2,9.3
		c0.1,3.6-5.5,9.1-5.5,9.1l-5.8,4.8c-1.4,2.6-6.8,5.6-9.1,7c-13.2-3.6-16.8-9.1-16.8-14.4C393.6,105.6,401.3,97.8,403,96.1
		 M399.7,95.2c0.8,0,1.6,0.2,2.1,0.3c-2.4,2.4-9.4,9.7-9.4,17.5c0,5.9,4.1,11.7,16.6,15.3c-1.5,0.7-3,1.1-4.5,1.1
		c-0.8,0-1.6-0.1-2.5-0.3c-8.7-1.8-17.1-12.7-17.2-12.7c-0.1-1.2-0.3-2.3-0.7-3.3c0.1-0.1,0.2-0.3,0.2-0.5c0-0.1,4.4-13.7,12.2-16.7
		C397.6,95.4,398.7,95.2,399.7,95.2 M392.1,94.8c1.1,0,2.2,0.1,3.5,0.2c-7.3,3.4-11.2,13.4-12.3,16.7c-1.9-2.7-4.9-3.4-6.7-3.3
		c-1,0-1.7,0.1-1.8,0.1h-0.1c-0.7-0.1-1.4-0.1-1.7-0.2c-0.3,0-3.5-1.3-4.6-1.4c-0.1,0-0.9-0.3-1.8-0.6c-1.1-0.5-2.4-1-2.6-1.2
		c-0.5-0.3-0.8-0.3-1.3-0.3h-0.6c0.7-0.8,2.5-2.5,4.8-3.6C367.8,101.1,379.7,94.8,392.1,94.8 M374.9,126.4c-0.4-0.1-0.7,0.2-0.7,0.6
		l0,0c0,0-0.6,3.5-1.4,6.1c-0.4,0.8-0.6,1.4-0.6,1.4c-0.4,0.7-0.8,1.4-1.2,2c-2.5,3.5-4.6,4.1-5.8,4.1c-0.6,0-1-0.1-1.2-0.2l0.7-0.5
		c0.3-0.2,0.4-0.6,0.2-0.9c-0.2-0.4-0.7-0.5-0.9-0.3l-1.3,0.8c-0.1,0.1-0.1,0.1-0.2,0.2c-0.7-0.3-1.4-0.6-1.4-0.6l-0.7,0.1l-1.3,1.3
		c-0.1,0-0.1,0-0.2,0c-0.9,0.2-2.2-2.7-2.5-3.7c-0.7-1.2-1.8-1.7-2.4-1.8c-0.2,0-1.5-0.3-1.6-0.3c0-0.1-3.3-2.6-3.6-3
		c-1.5-1.8-1.9-4.4-1.9-4.4c-0.2-1.2-0.3-2.4-0.3-3.4c0-0.4,0-0.6,0-0.9c0.3-5.8,2.9-8.3,2.9-8.3l2.3-2.1c0,0,1.8-1.6,2.1-1.9
		c0.2-0.2,2.4-1,3.5-1.6c0.2-0.2,1.1-0.4,2.1-0.3c0.5,0,0.8,0,1.2,0h0.2c0,0,0.1,0,0.2,0c0.7,0,4,0.7,4.1,0.8
		c0.3,0.1,3.1,1.8,3.1,1.8s0.2,0.5,0.2,0.9c0,0.3,0,0.6-0.1,0.8c-0.4,0.9-2.5,4.9-3.4,5.8c-0.5,0.4-0.7,0.9-0.7,1.4
		c0,1.1,0.9,1.8,1,2c0,0,0.1,0.1,0.1,0.4c0,0.2-0.1,0.4-0.1,0.6c0,0.2-0.8,0.7-1.2,1.7c-0.2,0.5-0.2,0.9-0.2,1.5
		c0,0.7,0.1,1.7,0.4,2.4c0.3,0.6,0.8,0.7,1.2,0.7c1,0,2.5-0.8,2.8-0.9c0.2,0,0.2,0,0.4-0.1c0.9-0.2,2.5-0.5,3.2-1.7l0,0
		c0.4-0.2,1.2,0,2.1-0.6c0.7-0.7,1.7-2.2,2-2.5c0.5-0.6,0.9-1.5,1.1-1.6c0.4-0.4,0.7-0.9,0.7-1.5c0-0.3-0.1-0.5-0.2-0.7
		c0.1-0.1,0.2-0.2,0.4-0.3c0.5-0.5,0.6-0.9,0.6-1.4s-0.1-0.8-0.2-1.3c-0.3-0.7-1.6-2.5-1.6-2.8c0-0.1,0.4-0.9,0.7-1.5l-0.4-0.3h0.4
		l0,0l0,0c-0.3-1.1-1.1-1.3-1.6-1.6c0.1-0.2,0.2-0.6,0.3-0.9c0.1-0.3,0.1-0.3,0.1-0.3v-0.1h0.6c2.4,0.1,6.5,0.7,6.9,7.2
		c0,0.6,0,1,0,1.4v0.7c0,0-1.8,5.9-5.8,7.3c-0.6,0.2-2,1-2.2,1.2c-0.1,0.1-0.1,0.2-0.2,0.2c0-0.3,0.1-0.6,0.1-0.6
		C375.5,126.7,375.3,126.5,374.9,126.4 M368.1,141.1c-1.3,2-2.6,3.9-3.4,4.7c-0.7,0.8-2.2,1.5-3.4,2.1c-1,0.4-2,0.7-2,0.7l-13,1.5
		l-0.8,0.2c-0.4-1.4-1.5-5.1-2-7.4c0-0.2-0.1-0.4-0.1-0.7c-0.1-2.4,2.9-6.4,3.3-6.5c0.7-0.6,1.2-1.6,1.4-2.2c1.2,1,3.5,2.8,3.5,2.8
		c0.4,0.1,1.7,0.5,2.2,0.5c0,0,0.9,0.3,1.2,1c0.5,0.7,1.1,4.3,3.7,4.5c0.2,0,0.4-0.1,0.6-0.1l0.4-0.2l1.2-1.1
		c0.7,0.2,1.9,0.8,2.2,0.9c0.2,0.1,0.9,0.5,2,0.5C366,141.8,367,141.6,368.1,141.1 M345,118.8v-0.2c0-0.3-0.1-0.5-0.1-0.7
		c0-0.2,0-0.2,0-0.2c1.2-0.9,1-2.5,1.8-3.6c0.3-0.6,0.7-0.8,1.3-1c3.1-0.8,2.3-3.6,3.5-3.5c1.8-0.6,3.6-1.9,4-2l0,0v0.1v-0.1
		l0.1,0.1c1-0.1,3.4-1,3.8-1.1c0.3-0.1,1.1-0.2,1.9-0.3c0.6-0.1,1-0.1,1.4-0.1c0.2,0,0.3,0,0.4,0h0.2c0.5,0.3,1.7,0.8,2.9,1.3
		c0.8,0.4,1.6,0.6,2.2,0.7c0.6,0,3.7,1.3,4.6,1.5c0.3,0,0.8,0,1.3,0.2c0.1,0,0.3,0.1,0.4,0.1l0,0c-0.1,0.2-0.4,0.6-0.4,1.2
		c-0.1,0.3,0.2,0.7,0.5,0.8c0.2,0.1,0.6,0.2,0.8,0.5c0.2,0.1,0.3,0.2,0.4,0.3l0,0c0,0-0.6,0.7-0.7,1.5c0,0,0,0.2,0.1,0.4
		c0.2,0.7,1.4,2.4,1.6,2.9c0.1,0.2,0.2,0.6,0.2,0.8c0,0.3-0.1,0.4-0.1,0.4c-0.3,0.3-0.7,0.4-0.9,1.3c0,0.2,0.2,0.5,0.3,0.7v0.1
		c0,0-0.2,0.5-0.2,0.6c-0.5,0.5-0.9,1.3-1.2,1.7c-0.4,0.5-1.5,2.2-1.8,2.3c0,0.3-1.7-0.2-2.4,1.2c0,0,0,0-0.2,0.1
		c-0.4,0.3-1.5,0.7-1.8,0.7h-0.1h-0.1h-0.1c-0.8,0.2-2.2,0.9-2.7,0.8v0.1c-0.2-0.5-0.3-1.2-0.3-1.9c0-0.5,0.1-1,0.1-1.1
		c0.1-0.4,0.8-0.8,1.2-1.7c0.1-0.3,0.2-0.7,0.2-1c0-0.5-0.1-0.8-0.4-1.2c-0.3-0.3-0.7-0.8-0.7-1.1c0-0.2,0-0.2,0.2-0.5
		c1.3-1.3,3.3-5.1,3.7-6.4c0.2-0.4,0.2-0.8,0.2-1.2c0-0.8-0.2-1.4-0.6-1.9c-0.6-0.6-3-1.8-3.6-2.2c-0.7-0.3-3.6-0.8-4.8-0.9H361
		h-0.1h-0.3c-0.3,0-0.7,0-1.2,0c-0.9,0-2,0-2.7,0.6c-0.7,0.5-2.8,1.2-3.5,1.6c-0.6,0.4-2.2,2-2.2,2l-2.3,2.1
		c-0.1,0.1-2.8,2.7-3.3,8.2c-0.1-0.1-0.2-0.4-0.2-0.6v-0.1c0.1-0.4,0.1-0.7,0.1-0.7C345.3,119.9,345.1,119.3,345,118.8 M378.6,83.4
		c0,0,2.1,3.6,2.1,5.1c-1.5-1-3.1-1.9-5-2.6c-0.4-0.1-0.7,0-0.9,0.4c-0.1,0.4,0,0.7,0.4,0.9c2.1,0.8,4,2,5.5,3.1
		c2.2,1.6,3.5,3.1,4,3.8c-8.7,1.4-15.9,4.9-17.9,5.8c-6.1-4.4-6.7-8.6-6.7-10.6c0-0.6,0.1-0.8,0.1-0.8c0.3-0.4,0.6-0.7,0.8-1
		c0.6-0.7,0.7-1.8,0.7-2.6c0-1-0.2-2.1-0.2-2.3l0,0c0-0.1,0.3-0.9,0.8-1.4c1.1-1.1,0.8-3.3,1-3.8c-0.1,0,0.5-0.5,1.1-1
		c0.2-0.4,0.3-0.7,0.3-1.1c0-1.1-0.5-2.8-0.6-3.3c0-0.1,0-0.1,0-0.1c0-0.4,0.1-0.6,0.2-0.9C365.5,71.5,373.5,74.8,378.6,83.4
		 M341.9,56.5c0.1,0,0.2-0.2,0.3-0.2v-0.1c1.1-1.2,2.4-2.5,2.8-2.9c0.3-0.3,4.9-1.5,5.1-1.5c0.1,0,0.4-0.1,0.8-0.1
		c1.7,0,5.1,0.3,6.9,2.3l0.4,0.2c0.1,0,3.2,0.3,3.7,1.9c0.9,2.1,2.6,5.4,2.6,6.2c0,0,0,0,0,0.2c-0.1,0.7-0.7,1.5-0.7,2.5
		c0,0,0,0.1,0,0.3v0.1c0,0.9-0.3,3.6-0.5,4.1c-0.1,0.2-0.1,0.3-0.2,0.4c-0.2,0.6-0.5,1.2-0.5,1.9c0,0,0,0.2,0.1,0.5
		c0.1,0.7,0.6,2.2,0.6,3.1c0,0.2-0.1,0.2-0.1,0.2c-0.3,0.5-1.1,0.7-1.3,1.9c0.1,0.5-0.2,2.8-0.5,2.8c-0.8,0.7-1.2,1.6-1.3,2.2v0.1
		c0,0.5,0.2,1.3,0.2,2.4c0,0.7-0.1,1.5-0.4,1.8c-0.2,0.3-0.5,0.6-0.7,0.7c-0.3,0-0.8,0-1.3,0.5l-0.7,0.5l-0.3,0.4
		c0,0-0.2,0.7-0.4,1.5c-0.1,0.2-0.1,0.6-0.2,0.7c-0.4-0.5-0.7-1.1-1-1.5l1.3-4.7l0.7-6.3v-0.3l4.8-7.6c0.1-0.4,0.1-0.5,0.1-0.5
		c-0.1-1.1-0.4-3.4-1.3-4.3c-0.5-0.4-2.2-2.5-2.2-2.7c-0.1-0.7-0.7-3-0.7-3c-0.1-0.3-0.2-0.5-0.4-0.5c-0.2-0.1-0.5,0-0.7,0.1
		c0,0-3.6,3-4.2,3.3c0,0-0.4,0.1-0.7,0.1c-1,0-2.4-0.3-3-0.3H349c-0.9,0.1-2.5,0.4-3.2,1.6c-0.4,0.7-1.8,3.3-2.1,3.6
		c-0.6,0.9-0.9,3.3-0.9,4.8c0,0.5-0.2,0.8-0.6,1.3c-0.3,0.5-0.6,0.8-0.8,1.4c-0.1,0.3-0.2,0.6-0.2,0.9c0,0.8,0.3,1.5,0.5,2.5
		c0,0.2,0,0.7,0,1c0,1.2-0.2,2.7-0.3,3.2c0,0-0.1,0-0.2,0.1c-0.2,0.1-0.5,0.1-0.7,0.1l0,0c0,0-0.1,0-0.2,0c-0.3,0-0.6,0.1-0.8,0.2
		c0.1-0.4,0.2-0.7,0.2-0.9c0-0.1,0-0.2,0-0.2c-0.1-1-1.3-3.5-1.5-4.3c-0.3-0.7-1.1-7.3-1.1-8.8v-0.1c0-1.2,1.5-5.3,1.7-6.3
		c0.1-0.6,1.2-3.8,1.9-5.1C340.8,57.7,341.3,57,341.9,56.5 M354.3,73.7c0,0,0.4,0.2,0.8,0.5l-0.1,0.4c-0.1,0.4,0.1,0.7,0.5,0.8
		c0.4,0.1,0.7-0.1,0.8-0.5v-0.3c0.5,0.2,1,0.3,1.6,0.4l-1.9,2.9c0,0.1-0.1,0.1-0.1,0.1c-3.3,2.5-7.4,2.6-8.1,2.6h-0.2
		c-2.2-0.5-3.9-6.1-3.9-6.1s0-0.1-0.1-0.1c0.2-0.4,0.4-0.8,0.4-1.4c0-1,0.6-3.8,0.7-3.9c0.4-0.7,1.8-3,2.2-3.9c0-0.4,1.4-0.8,2-0.8
		c0.5,0,2,0.3,3.1,0.3c0.5,0,0.9,0,1.4-0.2c0.7-0.4,2.4-1.9,3.6-2.7c0.1,0.7,0.4,1.6,0.4,1.9c0.3,1.2,1.9,2.8,2.5,3.6
		c0.2,0,0.9,2.7,0.8,3.2v0.2l-2.1,3.3h-0.1c-1.9-0.1-3.7-1.2-3.7-1.2c-0.3-0.2-0.7-0.1-0.9,0.3C353.8,73,353.9,73.5,354.3,73.7
		 M326.2,83.4c0.1,0.7-1.5,0.7-3.7,2.1c-0.7,0.5-1.4,0.6-2.1,0.6c-0.7,0-1.3-0.2-1.9-0.4c-0.5-0.2-0.7-0.4-0.7-0.4l0,0
		c0,0-4.1-3.9-4.2-4.1c-0.3-0.4-0.7-0.6-1-0.6c-0.5,0-0.8,0.2-1.1,0.6c-0.1,0.1-0.2,0.2-0.2,0.2v-0.1c-0.1,0.1-0.5,0.1-1,0.1h-0.1
		c-0.9,0-1.4-0.4-1.7-0.7c0.5-0.3,1.5-0.7,1.5-0.7c0.1-0.1,2.5-1.5,4.9-1.6c0.4,0,0.7-0.1,1.1-0.1c0.7-0.1,1.1-0.1,1.7-0.1
		c0.8,0,1.5,0.2,2.5,0.7l2.3,1.4c0,0,0,0,0.1,0.1c0.4,0.7,0.7,1.3,0.7,1.3c0.2,0.4,0.6,0.5,0.9,0.3c0.3-0.3,0.5-0.7,0.2-0.9
		c0,0-0.6-0.9-1-1.7c-0.3-0.5-0.6-0.8-0.6-0.8c-0.1-0.2-0.1-0.3-0.1-0.3c0-0.2,0-0.2,0.2-0.4h0.1c0.1,0,0.3,0,0.3,0
		c0.1,0.1,0.2,0.1,0.2,0.1c0.1,0,0.7,0.7,1.6,1.5c0.9,0.8,0.3-0.6,1.1,2.7c0.1,0.5,0.1,0.7,0.1,1L326.2,83.4L326.2,83.4z
		 M331.1,81.1c-0.3,0.4-0.7,0.7-0.9,0.8c-0.6,0.3-1.7,0.6-2.5,0.7c0-0.3-0.1-0.6-0.2-0.9c-0.6-2.8-0.8-3-1.6-3.5
		c-0.8-0.6-1.3-1.2-1.5-1.5c-0.3-0.2-0.7-0.4-1.4-0.4c-0.4,0-0.8,0.1-1.1,0.7c-0.3,0.4-0.4,0.7-0.4,1.1v0.1l-0.7-0.5
		c-1.1-0.7-2.2-0.9-3.3-0.9c-0.4,0-0.7,0-1,0.1c0.1-1.1,0.4-3.6,0.8-3.9c0.7-0.7,2.2-1.8,3.6-2c0.2,0,0.4-0.1,0.6-0.1
		c0.3,0,0.6,0.1,0.8,0.1c2,0.8,7.6,3.5,8.8,6.4c0.4,0.9,0.6,1.6,0.6,2.2C331.5,80.2,331.3,80.7,331.1,81.1 M335.5,97.2
		c0.1-0.1,2-3,2-8.2c0-2.3-0.4-5.1-1.5-8.2v-0.1l-2-7.8c-0.1-0.4-0.4-0.6-0.8-0.5c-0.4,0.1-0.6,0.5-0.5,0.8l1.4,5.4
		c-0.6,0.1-0.9,0.4-1.4,0.7c0-0.7-0.2-1.5-0.7-2.4c-1.7-3.7-7.5-6.3-9.4-7.1c-0.5-0.2-0.8-0.3-1.3-0.3h-0.1c0-0.1,0-0.1-0.1-0.2l0,0
		c0,0-0.6-1-0.6-2.5c0-1.3,0.4-2.9,1.9-4.6c3.5-4.1,4.4-4.5,5.6-4.6c1.5-0.2,4-0.6,4-0.6c0.3-0.1,2.5-1.7,5.2-1.6c1,0,2,0.2,3.1,0.7
		c-0.4,0.5-0.7,0.9-0.9,1.2c-0.8,1.5-1.9,4.6-2.1,5.4c-0.1,0.7-1.7,4.8-1.8,6.5l0,0c0,1.7,0.9,8.1,1.3,9.3c0.3,0.9,1.5,3.6,1.4,3.9
		v0.1c-0.1,0.4-0.4,2.2-0.4,2.2c-0.1,0.3,0.1,0.6,0.3,0.7c0.2,0.2,0.5,0.2,0.7,0.1c0,0,0.3-0.2,0.7-0.5c0.2-0.1,0.4-0.2,0.6-0.3
		s0.2,0,0.2,0h0.1h0.1c0.4-0.1,1.6,0.1,2.1-1.2c0.1-0.7,0.4-2.2,0.4-3.5c0-0.4,0-0.8-0.1-1.2c-0.2-1.1-0.4-1.9-0.4-2.3
		c0-0.2,0-0.3,0.1-0.5c0-0.1,0.1-0.2,0.2-0.3c0.6,1.7,2.1,5.2,4.9,6.1h0.3c0.7,0,4.5-0.1,8-2.2l-0.5,5l-1.4,4.9l0.1,0.6
		c0.1,0.1,1,2.2,2.2,2.7h0.1l0,0h0.1c0,0,0,0,0.1,0l0,0l0,0c0.1,0,0.2,0,0.4-0.1c0.8-0.5,0.7-1.1,1-1.9c0.2-0.6,0.3-1.1,0.4-1.3
		l0.6-0.4l0,0c0,0.1,0,0.3,0,0.5c0,2.2,0.8,6.7,6.7,11.2c-3,1.6-4.9,4-5,4.1c-0.1,0.1-0.1,0.3-0.1,0.5c-0.6,0.1-1.1,0.1-1.3,0.2
		c-0.8,0.2-3.2,1.1-3.6,1.1h-0.1c-1.3,0.2-2.6,1.5-4.4,2c-2.5,1.1-1.4,3.3-3.3,3.5c-1,0.3-1.8,0.9-2.2,1.7c-0.7,1.5-1,3.1-1.2,3.1
		c-0.5,0.2-0.7,0.7-0.7,1.1l-7.7-3.6c0-0.2-0.1-0.5-0.1-0.7c0,0,0-0.3,0.1-0.4c0.1-0.4,0.2-0.7,0.2-0.8c0-0.8-0.4-1.5-0.7-2
		c0.2-0.2,0.2-0.3,0.2-0.6v-0.1c-0.2-1.1-1.1-1.7-1.7-2.1v-0.3c0-0.4-0.1-0.7-0.2-1.2c-0.3-0.5-0.7-2.3-0.7-2.3
		c0-0.1-0.1-0.4-0.1-0.7C333.2,102.6,335.5,97.4,335.5,97.2 M321.6,92.6c0.1,0,2.2,0.4,2.7,1.3c0.3,0.3,2.2,1.3,2.1,1.7
		c0.8,1.7,2.2,1.1,2.2,2.2c0,0,0,0.2,0,0.3l0.4,0.7c0,0,0.9,0.7,0.9,1.2l0.5,0.6c0,0,0.9,0.3,1.3,1.7c0,0.2,0.4,1.6,0.4,1.6
		c0,0.2,0.4,2,0.8,2.8c0,0.1,0.1,0.3,0.1,0.5c0,0.2,0,0.4,0,0.6c0,0.2,0,0.6,0.5,0.7c0,0,0.4,0.3,0.7,0.7c0.2,0.1,0.3,0.3,0.4,0.4
		c-0.2,0-0.2,0.1-0.2,0.1c-0.3,0.3-0.3,0.7,0,1c0,0,0.7,0.8,0.7,1.6c0,0.2,0,0.3-0.1,0.4c-0.1,0.3-0.2,0.6-0.2,0.8
		c0,0.8,0.2,1.4,0.2,1.9c0,0.4-0.1,0.7-0.7,1.1c-0.1,0.1-1.2,1.2-2.2,1.6c-0.6,0.2-1.1,0.3-1.5,0.3c-0.1,0-0.1-0.1-0.1-0.1
		c-0.1-0.2-0.3-0.6-0.5-0.8c-0.6-0.9-1.7-1-1.8-4V113c0.9-0.5,2-0.9,2.7-1.6c0.5-0.5,0.5-0.9,0.5-1.4c0-1.1-0.6-2.7-0.7-3.1v-0.2
		c-0.1-0.8-0.6-4.4-0.6-4.8c0-0.1-0.1-0.1-0.1-0.2c0.1-0.2,0.2-0.4,0.2-0.4l-0.2-0.7c0,0-0.8-0.6-2-1.3c0-0.1,0.1-0.2,0.1-0.2
		c-0.1-0.6-0.4-1.6-1.4-2.4c-0.9-0.8-2.2-1.6-2.4-1.8c-0.2-0.2-1.8-1.5-1.8-1.5c-1.1-0.4-2-0.6-2.7-0.6
		C320.5,92.8,321.3,92.6,321.6,92.6 M326.1,142.7c0.1,0,2.9,1.8,3.1,2.7c0.2,0.5,0.3,1.1,0.3,1.8c0,1.1-0.3,1.9-1.5,2.3
		c0.1,0-0.7,0.1-1.5,0.2c-0.5,0.1-1,0.1-1.4,0.1c-0.1-0.5-0.5-1-1.2-1.3c-0.3-0.1-0.7-0.2-1-0.2c-0.5,0-1.1,0.2-1.7,0.6
		s-3.2,2-3.6,2.2c-0.7,0.3-1.9,0.1-2.5,1.2c-0.1,0.2-0.4,0.9-2.9,2.3l-8.9,2c-1.8-3-6.5-9.7-6.9-10.3v-0.1c-0.2-0.3-0.5-0.6-0.8-0.7
		v-0.1c0,0-0.3-1.2-0.3-2.5c0-1.1,0.3-2,0.7-2.1c0.2-0.1,0.3-0.2,0.5-0.4c0.3-0.3,0.9-0.8,1.3-1.3c0.6-0.7,2.1-2.2,2.3-2.1
		c1.2-0.2,2.1-1,2.7-1.8c0.6-0.7,2.1-2.4,3.9-2.4c0.2,0,0.4,0,0.6,0.1c2.7,0.4,9.1,0.8,9.3,1.1c1,0.7,4.2,3.1,5.4,3.4
		c0.3,0,0.7,0,1.3,0.1c0.9,0.2,2,0.6,2.3,1.8c0.3,0.3,0.7,0.7,0.7,1.4c0,0.3-0.1,0.7-0.5,1.2c-0.1,0.2-0.1,0.4-0.1,0.6
		C326,142.6,326,142.7,326.1,142.7 M318.7,160.3c-0.2,0.3-0.5,0.7-0.6,0.7c-0.2,0-0.5,0.1-0.6,0.2c-0.1-0.1-0.2-0.2-0.3-0.3
		l-0.9-0.7c-0.3-0.3-0.7-0.2-0.9,0.1c-0.2,0.3-0.2,0.7,0.1,0.9l0.8,0.7c-0.1,0.1-0.1,0.1-0.2,0.1c-1.1,0.4-1.1,1-1.9,1.1
		c-0.4,0.1-0.7,0.1-1.1,0.1c-1.9,0-4.5-1.2-5.1-2c-0.9-1.1-1.9-3-1.9-3c-0.1-0.4-0.6-0.5-0.8-0.3c-0.3,0.1-0.5,0.6-0.3,0.8
		c0,0,0.2,0.3,0.3,0.6c-0.1,0-0.2,0-0.3,0.1l-0.7,0.6c-0.2-0.7-0.3-1.5-0.6-2.2l8.7-2c2.7-1.4,3.5-2.4,3.6-3l0,0
		c0.3-0.2,1.1-0.4,1.7-0.6c0.9-0.4,3.2-1.8,4-2.3c0.4-0.2,0.6-0.4,0.8-0.4c0.2,0,0.4,0,0.7,0.1c0.1,0,0.3,0.7,0.4,0.8
		c-0.5,2.2-2,3-2,3l-0.4,0.7c0,0-0.1,3.5-0.2,4.8c0,0.2-0.1,0.3-0.7,0.3c-0.4,0-0.7-0.1-0.8-0.1c-0.1-0.1-0.5-0.2-0.7-0.3
		c-0.2-0.1-0.4-0.2-0.5-0.3l0,0c-0.1-0.3-0.3-0.6-0.7-0.6c0,0-0.7,0.2-0.7,0.7l0,0C317.6,159.8,318.3,160.1,318.7,160.3
		 M317.5,114.1c-0.1-0.7-0.4-1.2-0.6-1.8c1.6,0.5,5,1.1,9.7,1.2c0,3.2,2,4.4,2,4.6l0,0c-1.4,4.1-5.6,5.1-8.9,5.1
		c-1.5,0-2.7-0.2-3.3-0.3c0.9-2,1.2-4.3,1.2-4.4c0.1-0.6,0.1-1.1,0.1-1.6C317.9,116,317.7,115.1,317.5,114.1 M326.2,98.5
		c-0.4-0.2-0.8-0.5-1.1-0.6c-0.4-0.2-0.4-0.3-0.4-0.3c0-0.1,0.1-0.2,0.2-0.4c0.3,0.2,0.6,0.4,0.7,0.6C326,98,326,98.3,326.2,98.5
		 M319.2,94.4c0.7,0,1.5,0.1,2.5,0.4c-0.1,0.1,1.3,1.2,1.6,1.5c0.1,0.1,0.3,0.2,0.5,0.3c-0.2,0.3-0.5,0.7-0.5,1.2
		c0,0.7,0.5,1.2,1.2,1.5c1.1,0.5,3.2,1.9,4,2.4c-0.2,0.4-0.7,0.9-1.8,1.5c-0.3,0.2-0.5,0.6-0.2,0.9c0.1,0.2,0.3,0.4,0.6,0.4
		c0.1,0,0.2,0,0.3-0.1c0.6-0.3,1-0.7,1.4-0.9c0.1,0.5,0.1,0.9,0.2,1.4c-0.1,0-0.2,0-0.3,0.1c-1,0.7-3.1,1.2-3.1,1.2
		c-0.4,0.1-0.6,0.5-0.6,0.8c0.1,0.4,0.5,0.6,0.8,0.5h-0.1c0.1,0,2-0.4,3.4-1.2c0.1,0.5,0.1,0.7,0.1,0.7v0.1v0.1
		c0.1,0.7,0.7,2.1,0.7,3.1c0,0.4-0.1,0.4-0.1,0.4c-0.7,0.6-2,1.2-3,1.7c-6.5,0-10.1-1.3-10.7-1.5c-0.5-1.3-0.7-2.5-0.7-3.3v-0.1
		c0-0.2,0-0.3,0-0.3c0-1.4-0.7-3-1.4-3.9c-0.7-0.9-1.4-1.7-1.4-2.9c0-0.2,0-0.4,0-0.5c0.1-1.7,2-4.5,2.2-4.5
		C315.9,95,317.1,94.4,319.2,94.4 M304.6,111.9c0.3-0.7,0.1-0.4,0.5-3c0.3-2.4,2.8-9.9,2.8-9.9c0.6-1.1,2.2-2.3,2.2-2.3
		c1.3-2.3,2.8-2.6,3.7-2.6c0.4,0,0.7,0.1,0.7,0.1h0.4c0.2-0.1,0.3-0.1,0.5-0.2c-0.4,0.2-0.6,0.3-0.7,0.4c-1.4,0.7-2.7,3.3-3.1,5.4
		c0,0.2,0,0.5,0,0.7c0,1.8,1.1,2.9,1.7,3.6c0.6,0.7,1.2,2.2,1.1,3.2v0.2c-0.1,0,0,0.2,0,0.2c0,1.4,0.4,3.4,1.2,5.2
		c0.2,0.5,0.4,1.1,0.6,1.8c0.3,0.9,0.3,1.7,0.3,2.3c0,0.5,0,0.9-0.1,1.4c0.1,0-1.2,5.4-2.2,5.6c-0.2,0.1-0.9,0.2-1.8,0.2
		c-1.4,0-3.2-0.2-4.7-0.5c-0.7-0.1-1.4-0.4-1.9-0.6c-0.4-0.2-0.5-0.3-0.6-0.3c-0.6-1.5-1.6-1.9-4.2-3.7c-0.4-0.3-0.4-0.5-0.5-0.8
		C300.7,116.4,304,113.2,304.6,111.9 M300.9,120.3c2.4,1.7,3,2,3.3,2.9c1,1.8,5.2,2.1,8.3,2.2c1,0,1.8-0.1,2.3-0.3
		c0.4-0.2,0.7-0.6,1-1l0,0c0,0,1.8,0.4,4,0.4h0.1c0.8,0,1.7-0.1,2.5-0.2l0.2,11.8c-0.3,0-0.6,0-0.7,0c-0.1,0.1-4-2.4-4.7-3.1
		c-1.4-0.8-7.1-0.9-9.8-1.4c-0.3-0.1-0.6-0.1-0.7-0.1c-2.8,0-4.4,2.2-5,2.9c-0.6,0.6-1.4,1.2-1.9,1.3c-1.4,0.2-2.5,2-3.2,2.5
		c-0.4,0.4-1,1-1.3,1.3c-0.2,0.2-0.3,0.2-0.3,0.2c-1.2,0.6-1.3,2.1-1.3,3.3c0,0.6,0.1,1.1,0.1,1.6c-0.5-0.3-0.9-0.5-1.4-0.7
		c-0.2-1.6-0.3-3.1-0.3-4.5C292.3,126.7,299.2,121.4,300.9,120.3 M284.6,142.5c1.8,0.6,7.3,2.2,9.8,3.8l0.1,0.1
		c0.4,0.3,0.7,0.5,0.8,0.7l0,0c0.7,0.9,6.7,9.6,7.2,10.9c-4-4.1-11.1-6.8-11.2-6.9c-0.4-0.1-0.7,0.1-0.8,0.4c-0.2,0.4,0,0.7,0.4,0.8
		l0,0c0,0,10.9,4.5,12.5,9.4c0.2,0.8,0.4,1.4,0.4,1.4c0,0.1,0.7,2.4,0.7,2.6c-0.2,2.5-1.5,10.1-6.9,11.5c0.8-1.8,1.5-3.8,1.5-6.2
		c0-3.3-1.3-6.9-4.7-11.2c-0.2-0.3-0.7-0.4-0.9-0.1c-0.3,0.2-0.4,0.7-0.1,0.9c3.3,4.1,4.3,7.5,4.3,10.4c0,2.5-0.8,4.7-1.9,6.5
		c-1.4,2.2-5.1,5.2-10.3,6h-0.4c-1.9,0-3.2-0.6-4-1.1c-0.8-0.6-1.3-1-1.3-1c-0.1-0.1-0.2-0.2-0.3-0.2c0.8-1.8,1.8-3.9,2.1-5.3
		c1.3-0.2,4.7-0.8,5.1-3.5c0.1-0.5,0.1-1,0.1-1.8c0-2.5-1.7-5.6-11.7-9.4c1.1-0.9,3.6-2.5,8-2.5c0,0,2.8-0.1,5-0.1
		c0.4,0,0.7-0.3,0.7-0.7c0-0.4-0.3-0.7-0.7-0.7c-2.2,0-5,0.1-5,0.1c-6.5,0-9.4,3.3-9.6,3.6c-0.6,0.4-4.3,3-6.3,7.2
		c-0.9,2.1-2,4.4-2.7,7c-3.1-2-9.5-8.6-12.4-11.7c-0.9-1-1.5-1.6-1.5-1.6c-0.3-0.3-0.7-0.3-0.9-0.1c-0.3,0.3-0.3,0.7-0.1,0.9
		c0,0,0.4,0.4,0.9,1c-0.8,0.4-2.3,1.2-3.8,2.2c-0.4-0.2-1.2-0.7-2.2-1.5c-0.6-0.5-0.7-0.7-0.7-1.9c0-0.6,0.1-1.2,0.1-2.1
		c0-0.5,0-1-0.1-1.6v-0.2c-0.3-2.7,5.7-4.3,7.3-4.5c1.8-0.2,8.4-1.9,8.4-1.9l3-1.3c0,0,0,0.1,0.1,0.1s0.1,0,0.2,0
		c0.2-0.1,0.3-0.2,0.4-0.3l2.6-1.1c0,0.1,0.2,0.1,0.2,0.2c0.6,0.6,1.3,1.5,2.1,2.1c0.7,0.6,1.4,0.6,2.1,0.6c0.4,0,0.7-0.1,1-0.1
		c1.1-0.2,2.3-1.1,2.4-1.1c1-0.7,0.7-1.9,0.8-2.4c0-0.6,0.4-2.4,0.5-2.8c0.1-0.4,0.6-1.6,0.7-2c0.3-0.3,1.2-0.7,1.8-0.8
		c0.4-0.3,0.8-0.6,0.8-0.6h0.1c0.1,0,0.4,0.2,0.6,0.2c0.3,0.1,0.6,0.3,0.6,0.3c0.2,0.1,0.8,0.3,2,0.3c0.7,0,1.6-0.1,2.5-0.4
		C283.9,142.9,284.4,142.7,284.6,142.5 M275.5,197.8c0.6,0.1,3.3,1.8,3.4,2c0.3,0.2,1.9,1.9,1.9,1.9c0.4,0.7,0.9,1.1,1,1.2
		c0.7,0.3,1.9,1.2,2,1.2c0,0.1,2.8,3.5,3.1,3.8c0.1,0.1,0.2,0.2,0.2,0.4c0,0,0,0-0.1,0l-3.7-2.3l-3-1.1c-0.3-0.1-0.7,0-0.8,0.3
		c-0.2,0.3-0.1,0.7,0.2,0.8c1,0.8,2.4,3.5,2.4,3.5s0.9,2.2,1.4,3.3c0.1,0.2,0.1,0.4,0.1,0.4c0,0.2,0,0.2-0.4,0.4
		c-0.2,0-0.7-0.5-0.7-0.5l-1.5-2.6l-3.2-4.2l-0.1-0.1c-0.3-0.2-0.7-0.2-1,0.1c-0.2,0.2-0.2,0.5-0.1,0.7l0.6,1.9l0.7,1.8l0.7,2.7
		c0,0,0.6,2,0.7,2.4l0,0l0,0c0,0-0.1,0-0.1,0.1c-0.3-0.1-0.7-0.2-0.7-0.2l-2.8-6.3l0,0l0,0v-0.1l0,0l0,0l0,0V209l0,0c0,0,0,0-0.1,0
		c-0.1-0.1-0.3-0.1-0.4-0.1c-0.4,0-0.7,0.2-0.7,0.6l0,0l0,0c0,0-0.1,0.7-0.1,1.5c0,0-0.2,0.4-0.7,0.6c-0.5,0.4-1,0.6-1.1,0.6
		c-0.4,0.1-1.1,0.2-1.7,0.9c0-0.1,0-0.1,0-0.1c0-0.3,0.1-0.6,0.1-0.6l0.1-0.1c0.4-0.2,1-0.6,1.4-0.9c0.2-0.3,0.2-0.6,0.2-0.7
		c0-0.7-0.4-1.7-0.6-2.1c-0.5-0.9-2.3-1.9-2.4-2.1c-0.3-0.3-2.4-2.1-2.4-2.1c-1.4-1-2.2-4.8-2.6-9.2c0,0,0-0.3,0-0.4
		c-0.3-2.8-0.3-5.8-0.4-8.6c0-0.4,0-0.7,0-1.1c0-3.2,0.5-6.1,1.1-8.6c0.7-2.9,1.8-5.3,2.8-7.6c1.6-3.4,4.8-5.9,5.7-6.5
		c10.6,3.9,11.5,6.6,11.5,8.4c0,0.6-0.1,1.1-0.1,1.7c0.2,1.4-4.4,2.3-4.4,2.3c-0.4,0.1-0.6,0.4-0.7,0.7c0,1-1.5,4.2-2.4,6.1
		c-0.5,0.9-0.7,1.6-0.7,1.6l-2,4.1c0,0.1-2.8,6.5-3,8c-0.1,0.1,0,0.2,0,0.2C272.2,197.6,274.9,197.4,275.5,197.8 M232.2,150.1h0.6
		c0-2.6-1.9-12.7-1.9-19.5c0-6.4,3.6-10.4,4-10.8c1.6,0.1,3.3,0.1,4.9,0.1c7.4,0,13.7-0.8,15.3-1c0.7,2.4,1.5,4.2,2.2,5.5l-0.1,0.1
		l0,0c0,0-0.1,1-0.1,2.8c0,2.2,0.2,5.5,1,9.5c1.2,5.9,2.8,11.2,3.3,13l-2.6,1.1c0.1,0-6.6,1.6-8.2,1.8c-1.7,0.3-8.2,1.3-8.4,5.8
		c0,0,0,0.2,0,0.3v1.5c0,0.8,0,1.5,0,2.1c0,1.1,0.2,2.2,1.1,3c0.7,0.6,1.4,1,1.9,1.3c-0.8,0.6-1.6,1.2-2.2,1.9
		c-1.5,1.8-2.8,3.6-3.4,5.5c-1.1-0.7-4-2.7-5.1-2.9c-0.3,0-1.5-0.2-2.8-0.4c0,0,0-0.1,0-0.2c-0.9-2.2-1.1-4.3-1.1-6.3
		c0-2.4,0.5-4.4,0.7-5.7c0.7-3.6,1.3-7.1,1.4-8.6L232.2,150.1z M264.7,148.6l-2,0.8c-0.6-2-2.1-7.1-3.3-12.7c-0.8-3.9-1-7.2-1-9.4
		v-1c0.3,0.4,0.6,0.7,0.6,0.9c0.7,1.4,4.5,6.5,4.6,6.5c0,0,2.4,6.5,2.3,6.6c0.1,0-1.3,2.2-1.8,4.5c-0.1,0.4-0.1,0.7-0.1,1
		C264.1,147,264.3,148,264.7,148.6 M292.8,102.7c0.1,0.3,0.4,0.7,0.5,0.9c-0.4,0.2-1.4,0.6-1.9,0.5c-0.1,0-0.2,0-0.2,0l-0.7-0.4
		c-0.3-0.2-0.7,0-0.9,0.4c-0.1,0.3,0,0.7,0.3,0.8l0.7,0.4c0.3,0.1,0.6,0.1,0.8,0.1c1.1,0,2.2-0.6,2.8-0.8c0.3-0.3,0.5-0.6,0.5-0.8
		c0-0.4-0.2-0.7-0.4-1l0.4-0.1c0,0,3.1,0.5,3.6,0.6c0.2,0,1.5,0.2,2.4,0.4h-0.1c-0.3,0.2-0.7,0.3-0.7,0.3l-3.1,0.5
		c-0.2,0.1-0.4,0.1-0.5,0.4c-0.1,0.2-0.1,0.4,0,0.7l1,1.6c0.1,0.2,0.1,0.4,0.1,0.5c0.1,0.7-1.1,1.5-1.1,1.5l-0.3,0.7
		c0.1,0.4,0.1,0.7,0.1,1c0,1.9-1.1,2.2-1.1,2.2c-0.9,0.7-1.8,0.8-2.6,0.8c-1.7,0-3.5-0.9-4.9-1.8c-0.6-0.3-1-0.6-1.5-0.8
		c-1.1-0.5-1.2-1.1-1.2-2.2c0-0.6,0-1.1,0-1.8l0,0c0-0.4,0-0.4,0-0.4c0-1.8,0.7-3.4,1.2-3.9c0.2-0.3,2.1-1.1,2.7-1.4l2,0.6
		L292.8,102.7z M289.9,100.5l-1-0.3h-0.3c-0.1,0.1-2.6,0.8-3.5,2c-0.7,0.8-1.5,2.5-1.5,4.8v0.2c-0.1,0,0,0.1,0,0.1
		c0,0.7,0,1.2,0,1.9c-0.1,1,0.2,2.2,1.2,3.1c-1.7-0.1-3.6-0.2-3.9-0.2c-5.9-0.4-7.9-5.9-7.9-5.9c-0.2-0.4-0.3-0.9-0.3-1.5
		c0-0.8,0.2-1.8,0.3-2l3.5-1.8c-0.1,0.1,6.1-2.1,9.4-3.6l0.1-0.1c0.1,0.1,0.1,0.2,0.2,0.3C286.4,97.4,288.8,99.3,289.9,100.5
		 M287.2,91.3c-0.3,0.4-0.7,0.7-1.1,0.9l-3.5,2.3c-0.3,0.3-0.4,0.6-0.2,0.9c0.2,0.3,0.7,0.4,0.9,0.2l3.5-2.2
		c0.2-0.1,0.3-0.2,0.5-0.4c0,0.7-0.1,1.6-0.2,2.1c-0.3,0.2-0.9,0.6-1.8,0.9c-3.3,1.5-9.4,3.6-9.4,3.6l-4.2,2.1l-4.6,2.2
		c2.5-2.7,3.6-7.4,4.3-9.4c0.7-1.9,1.7-2.1,3.4-2.9c1-0.6,2.2-1.8,3.6-3.5c0.2,0.2,0.4,0.2,0.6,0.2l0,0l9.6-2.5c0,0,0,0.3,0,0.7
		C288.7,87.6,288.4,89.8,287.2,91.3 M306.8,75.4c-0.4,1-2.3,5.7-2.9,8c-0.2,0.7-0.2,0.7-0.2,0.7s-0.2-0.1-0.4-0.2
		c-0.1-0.1-0.3-0.2-0.3-0.2c-0.2-0.2-0.6-0.3-0.7-0.1l0,0c-0.1,0-0.1,0.1-0.2,0.1l0,0l0,0c0,0-0.7,0.7-0.9,0.9c0,0.1-0.7,0.1-1,0.1
		l-1.1-1.2c-0.2-0.3-0.7-0.3-0.9,0c-0.4,0.2-0.4,0.7-0.1,0.9l0.9,1c-0.1,0.1-0.2,0.2-0.3,0.3v0.1c-0.7,0.3-1.3,0.7-1.5,1.7
		c-0.1,0.5,0.2,0.3-0.4,0.5l0,0c-0.7,0-3.1-1.2-3.1-1.2l-3.9-2.1l-0.6-0.3l-0.5-0.1l-9.4,2.4c0.7-1.1,1.2-2.4,1.7-3.7
		c0.4-1.1,0.6-2.4,0.6-3.6c0-0.7-0.1-1.4-0.2-2.1c0.2,0.3,0.4,0.5,0.4,0.6c0.3,0.8,1,0.8,1.5,0.8c0.7,0,1.5-0.2,2.2-0.1
		c0.4,0,0.6,0,0.7,0.1c0.6,0.3,1,0.3,1.7,0.3c1.7,0,3.9-0.6,3.9-0.6c2.3-0.1,3.9-1.8,4.6-2.2c0.7-0.6,2.2-1.7,2.4-1.8h0.1h0.1h0.3
		c0.7,0,1.3-0.3,2.1-1c0.7-0.7,0.8-1.6,0.9-2.3l1.8,1.3c1.9,1.2,2.5,1.2,3.4,1.6C307.1,74.6,307,75,306.8,75.4 M276.4,66
		c0,0,0.2-0.1,0.5-0.1c0.3-0.1,0.6-0.1,0.6-0.1c0.4-0.1,0.6-0.4,0.6-0.7v-0.3v-0.1c0-0.4,1.3-1.3,2.9-1.8c1.6-0.5,3.3-0.7,3.3-0.7
		c0.4,0,0.6-0.3,0.6-0.7c0-1.6,2.5-2.3,5.3-2.2c2.3,0,4.5,0.4,4.5,0.4c0.7-0.1,1.1-0.1,1.6-0.1c2.1,0,4,0.7,5.6,1.5
		c1.5,0.7,2.5,1.5,2.5,1.5l0.6,0.1c0.3,0,0.5-0.1,0.7-0.1c2.8-0.1,4.5,3.6,4.5,3.6l0.5,0.4c1.5,0.5,2,1.8,2,3.3
		c0,1.3-0.4,2.5-0.5,2.9c-0.2,0.5,0.3,0.7-1.5,1.1h-0.3c-0.4,0-0.9-0.2-1.5-0.4c-1.8-0.7-1.8-0.4-3.9-1.8l-2.7-2.1
		c-0.2-0.2-0.6-0.2-0.7-0.1c-0.2,0.2-0.4,0.4-0.4,0.7c0,0,0,0.2,0,0.5c0.1,0.7-0.1,1.8-0.6,2.2c-0.7,0.7-0.8,0.7-1.1,0.7h-0.3l0,0
		c-1.3,0.1-2.4,1.5-3.2,1.9c-1,0.7-2.2,1.9-4,2c-0.1,0-2.2,0.5-3.7,0.5c-0.6,0-1-0.1-1.1-0.1c-0.5-0.3-0.8-0.3-1.3-0.3
		c-0.7,0-1.6,0.2-2.2,0.2H283c-0.3-0.7-1-1.8-2.2-2.5c-0.1-0.2-0.2-0.5-0.3-0.7c-0.7-1.6-2-3.1-3.6-4.4c-0.6-0.5-1.2-0.8-1.9-1.2
		v-0.1l0,0c-0.1-0.2-0.1-0.4-0.1-0.4C274.8,67.3,275.9,66.2,276.4,66 M267.4,68.3c0.1,0,0.2-0.1,0.3-0.1c1.3,0.1,3.7,0.4,6.2,1.6
		c0.7,0.4,1.4,0.7,2.2,1.3c1.5,1.1,2.5,2.5,3.2,3.9c0.7,1.5,1,3,1,4.6c0,1-0.1,2.2-0.5,3.2c-0.5,1.6-1.3,3.1-2.1,4.3
		c-1.2,1.8-2.7,3.2-3.4,3.5c-1.3,0.7-3.2,1.1-4,3.6c-0.7,2.2-2,7.3-4.1,9.2c0.1-0.2-0.5,0.3-0.4,1c0,0.2,0,0.5,0.1,0.8
		c0.1,0.3,0.2,0.7,0.4,1.2c0.9,2.2,3.7,7.8,3.7,11.8c0.1,0,0,0.1,0.1,0.3c-0.1-0.1-0.1,0.1-0.1,0.1c0,4.4,0.8,8.4,1.8,11.8
		c1.3,3.5,2.6,7.4,4.5,8c0.7,0,2.2,0.6,2.5,1c0.8,0.8,3,1.7,3.6,2.1c0.2,0,0.7,0.3,0.8,0.5c-0.1,0.1-0.2,0.1-0.4,0.2
		c-0.7,0.3-1.5,0.4-2.1,0.4c-0.9,0-1.5-0.2-1.5-0.2c0.1,0.1-0.7-0.6-1.7-0.6h-0.1c0,0-0.1,0-0.2,0c-0.7,0.2-1,0.7-1.2,0.7
		c-0.1,0.1-1.3,0.4-2.1,1.1c-0.1,0.1-0.1,0.2-0.2,0.2l0,0v0.1v0.1c-0.1,0.1-0.1,0.2-0.1,0.2c-0.2,0.7-0.5,1.5-0.7,1.9
		c-0.2,0.6-0.5,2.2-0.5,3.1c0,0.7-0.2,1.4-0.2,1.4c-0.1,0.1-1.5,0.9-1.8,0.9c-0.3,0-0.7,0-0.9,0c-0.6,0-1-0.1-1.2-0.3
		c-0.6-0.5-1.3-1.5-2.1-2.1c-0.1-0.1-0.2-0.3-0.4-0.4c-0.4-0.6-0.8-1.4-0.8-2.5c0-0.3,0-0.6,0.1-0.7c0.4-2.2,1.6-3.6,1.8-4.7v-0.1
		c-0.1-1-2.5-7.2-2.5-7.3c-0.1-0.2-3.9-5.4-4.5-6.5c-0.6-1.1-2.6-3.3-4-8.8c-0.5-1.9-0.8-4-1.1-6.7c0-0.2-0.4-1.2-0.4-3.5
		c0-0.4,0-0.6,0-0.8c0-0.7,0.1-1.3,0.2-2.1c0.6-4.2,0.4-9.8,0.5-10.8c0-0.2,0.1-0.7,0.1-1.3c0.3-2,0.8-5.5,1.8-8
		c1.1-3.1,5.9-10.9,5.9-10.9c0.2-0.4,0.1-0.7-0.2-0.9c-0.1-0.1-0.2-0.1-0.3-0.1c-0.3,0-0.5,0.1-0.6,0.4c0,0-4.7,7.8-6,11.2
		c-0.9,2.3-1.4,5.5-1.7,7.6h-0.1l0,0c-0.4,0.1-0.7,0.2-1.2,0.2c-2.4,0-5.4-2.9-8.1-6.4c-0.9-1.3-1.3-2.3-1.3-3.4
		c0-2.4,2-5.1,5.1-8.5C252.1,69.9,264.7,68.4,267.4,68.3 M229.3,94.1c0-0.8,0.5-5.5,1-8.9c0.1-0.8,0.3-1.5,0.4-2.1
		c0.7-2.9,3.2-3.9,5.2-5.1c2.2-1.3,4.3-5.5,6.2-6.6c1.9-1.2,7.6-2.3,12-3.3c1.4-0.3,3.4-0.5,5.3-0.5h1.3c-4.7,0.8-10.5,2.4-13.2,5.4
		c-3.2,3.5-5.5,6.3-5.5,9.4c0,1.4,0.6,2.8,1.6,4.2c2.8,3.5,5.8,6.8,9.2,6.8c0.4,0,0.7,0,1.1-0.1c0,0.3,0,0.5-0.1,0.7
		c-0.1,1.1,0.1,6.5-0.5,10.7c0,0.5-0.1,1-0.1,1.5h-0.1c0,0-0.2,0.1-0.4,0.3l0,0l0,0l-6.1-2.1c-1-0.3-6.7-2.6-8.3-2.8
		c-0.9,0-4.1-1.2-5.2-2.1C232,99.1,229.4,95,229.3,94.1C229.3,94.2,229.3,94.1,229.3,94.1 M216.4,104.9c-0.4-0.2-1-2.2-0.9-3.5
		c0-0.7,0.2-1.2,0.3-1.3c1.2-1.1,4.3-4.8,4.3-4.8c3.7-6.7,7.4-8.8,8.8-9.4c-0.5,3.2-0.8,6.9-0.9,8c0,0.1,0,0.2,0,0.2v0.1
		c0.2,1.7,2.8,5.5,4.5,6.7c1.5,0.9,4.5,2.2,6,2.2c0.9,0,6.8,2.4,8,2.7l5.1,1.7c-1.5,1.1-3.9,2.8-6.5,4.5c-1,0.7-2,0.9-2.7,0.9
		c-2.6,0.1-5-2.3-6.6-3.6c-0.8-0.6-2-0.8-3.1-0.8c-2.5,0-5.6,0.8-8.3,1.3c-0.2,0-0.5,0-0.7,0c-1.8,0-3.5-1.1-4.7-2.3l-0.1-0.1
		c-0.1-0.1-0.2-0.2-0.2-0.2C217.5,106.4,216.9,105.4,216.4,104.9 M217.8,110.7c0-0.8,0.2-1.5,0.5-1.9c1.3,1.2,3.2,2.3,5.3,2.3
		c0.3,0,0.6,0,0.8-0.1c2.9-0.5,6-1.2,8.1-1.2c1,0,1.8,0.2,2.2,0.6c1.6,1.1,4.1,3.7,7.5,3.8c1,0,2.2-0.4,3.5-1.1
		c3.1-2.1,6-4.1,7.4-5.1l0.1-0.1c0,2.2,0.4,3.6,0.5,3.6c0.2,2.2,0.6,4.3,0.9,6.1c-1.9,0.3-8,1-15.1,1c-1.7,0-3.5,0-5.3-0.1
		c-2.7-0.2-5.6-0.5-8.2-1c-1.5-0.3-2.9-0.7-4.3-1.1c0,0-0.1,0-0.1-0.1c-0.7-0.2-1.3-0.4-2-0.7C218.2,113.5,217.8,111.9,217.8,110.7
		 M207.5,164.2L207.5,164.2L203,161c-0.6-0.6-0.7-1-0.7-1.4c0-0.7,0.5-1.2,0.5-1.3c0,0,6.2-6.3,9.1-12.4c1.6-4.9,2.1-16.3,2.2-16.3
		c0.7-5.6,2.2-8.9,3.5-10.7c0.8-1.3,1.6-1.8,2-2c0.4,0.1,0.7,0.3,1,0.4c-1.4,1.6-4.9,6.3-5.1,13.7l-1.6,19.6c0,0.1,0,0.2,0,0.2
		c0,0.2-0.1,1.1-1.1,3.8c0,0-1.6,3.6-2.5,5.5c-0.7,1.5-0.7,1.6-0.8,1.8C208.9,162.7,207.8,163.9,207.5,164.2 M214.1,167.1
		c-0.7-0.1-1.8-0.4-2.8-0.7c-0.8-0.2-1.6-0.5-2.2-0.7c-0.3-0.1-0.6-0.3-0.7-0.3h-0.1c0-0.1-0.1-0.2-0.1-0.2c0.5-0.5,1.5-1.6,2-2.4
		c0.2-0.3,0.3-0.5,0.9-2c1-2.1,2.5-5.6,2.5-5.6c1-2.7,1.2-3.8,1.2-4.4v-0.2l1.5-19.5c0.2-8,4.6-12.7,5.1-13.4
		c0.9,0.3,1.9,0.5,2.8,0.7c-1.8,1.6-5.5,6.1-5.5,14.1c0,0,0,0.2,0,0.3c0,4.1,0.4,8.9,0.4,13.5c0,6.3-0.6,12.3-2.7,16.2
		c-0.4,0.6-0.7,0.9-0.9,1.5C215.8,164.2,214.4,165.6,214.1,167.1 M223,170.4c-0.3-0.2-0.8-0.7-1.3-1.2c-1.6-1.7-3.4-1.5-5.8-1.6
		c-0.4-0.1-0.3,0-0.4-0.2c-0.1-0.6,1.3-2.4,1.3-2.4c0.5-0.6,0.7-1.1,1-1.7c2.4-4.3,2.9-10.5,2.9-16.7c0-4.7-0.3-9.4-0.4-13.5v-0.3
		c0-9.9,5.9-13.8,5.8-13.8c0,0,0,0,0.1,0c2.2,0.4,4.5,0.7,6.8,0.8c-1.2,1.7-3.6,5.5-3.7,10.9c0,6.9,2,17,2,19.5c0,0,0,0.2,0.1,0.4
		c-0.1,1-0.7,4.7-1.4,8.1c-0.3,1.2-0.7,3.3-0.7,5.9c0,1.9,0.3,4,1.1,6.3c-0.7-0.1-1.3-0.2-1.9-0.2l0,0h-0.2c-0.2,0-0.3,0-0.5,0.1
		l0,0c-0.6,0.1-1,0.1-1.6,0.1C224.4,170.8,223,170.4,223,170.4 M229.8,184.1c-0.1,0.1-0.2,0.2-0.4,0.4c-1,0.8-3.1,2.2-3.7,2.4l0,0
		c-3.6-0.1-4.2-2-4.3-4.7c0-1.8,0.5-3.6,0.6-5c0.1-2.1,4.4-4.8,5.9-5.1c0.2-0.1,0.4-0.1,0.6-0.1h0.1c0.8,0,2,0.2,3.1,0.3
		c1.3,0.2,2.5,0.4,2.9,0.4c0-0.1,1.3,0.7,2.5,1.5c1,0.7,2.1,1.3,2.2,1.5v0.2v0.3c0,1.5,0.7,2.7,1.5,3.6c-1.4-0.1-2.7-0.1-3.2-0.1
		h-0.1l0,0C235.8,179.8,231.1,182.6,229.8,184.1 M231.4,184.9c0-0.2-0.1-0.3-0.2-0.4c1.2-1.1,5.5-3.6,6.2-3.6l0,0l0,0
		c1,0.1,3.1,0,5,0.2c1.3,0.1,2.5,0.5,2.5,0.6c0.8,0.9,1.2,4.6,2.2,5.6c0.6,0.5,4.7,3.8,4.7,3.8c0.3,0.2,0.7,0.2,0.9-0.1
		c0.3-0.3,0.2-0.7-0.1-0.9c0,0-4.2-3.5-4.7-3.8c-0.2,0.1-0.9-4-2-5.4c-0.7-0.7-1.8-0.9-3-1.1l0,0c-0.7-0.6-2.3-2.2-2.3-3.7
		c0,0,0,0,0-0.1c0-0.2,0.1-0.5,0.1-0.7c0.4-1.7,1.7-3.8,3.3-5.7c0.6-0.7,1.6-1.5,2.7-2.2c1.8-1.1,3.7-2.2,4.5-2.5
		c3.2,3.4,9.5,9.8,12.7,11.8l0,0c-0.6,2.5-1,5.2-1,8.3c0,0.3,0,0.7,0,1.1c0.1,2.7,0.2,5.7,0.4,8.5c-2.2,1.9-5.3,2.3-9,2.3
		c-2.5,0-5.3-0.3-8-0.4c-5.9-0.4-10.9-3.6-12.7-5.4c-0.2-0.2-0.4-0.4-0.5-0.5C231.8,189.1,231.4,184.9,231.4,184.9 M295.3,216.6
		c0.5,0.7,1.4,1.9,2.3,3.6c0.5,0.8,0.7,2.3,0.7,3.8c0,2-0.3,3.9-0.5,5c0,1.3-0.9,1.4-3.5,4.3c-1,1.1-2.8,1.6-4.7,1.6
		c-2,0-3.9-0.5-5.1-0.8c-2.7-0.7-8.7-2-12.3-2.4c-3.2-0.3-10.1-4.4-11.8-5.2c-1.5-0.7-9.6-7.4-10.5-8.2c-1.2-1-3.5-1.5-4.4-1.7
		c0,0,0,0-0.1,0s-0.1,0-0.1,0c-1.8,0.1-6.9,4-7.6,4.4c-0.6,0.3-1.4,0.9-1.8,1.9c-0.1,0.2-0.2,0.6-0.2,0.7c0,0.7,0.3,1,0.5,1.5
		c0.5,1,1.6,1,1.8,1.2c0.4,0.2,1,0.3,1.6,0.5c-0.1,0.2-0.2,0.3-0.4,0.5c-0.2,0.2-0.3,0.4-0.5,0.5c-0.1,0.2-0.1,0.1-0.1,0.1
		c-0.8,0.7-0.7,1.3-0.7,1.6c-0.1,0.1-0.6,0.2-0.7,0.2c0.1,0,0,0-0.1,0c-0.3,0-0.7-0.1-1.1-0.1c-0.2,0-0.3,0-0.3,0l0,0
		c-0.3,0-1.3-0.1-1.4-0.1l0,0c-0.1-0.1-0.3-0.3-0.5-0.5c-0.1-0.1-0.1-0.2-0.1-0.2c-0.4-0.9-3.1-5.6-3.2-6.5l-0.2-0.1h0.2
		c0-1.1,2.1-6.5,3.1-8.7c1.2-2.6,1.2-5.3,1.3-6.6c0-0.7,0.6-1.4,0.8-1.8c5.2,4.5,9.9,9.7,16.3,12.7c6.4,3,20.1,8.5,21.7,9
		c0.3,0.2,0.8,0.4,1.6,0.7c2.7,1.1,7.8,3.4,8.3,3.9c0.3,0.3,0.7,0.3,0.9,0c0.3-0.3,0.3-0.7,0-0.9c-0.7-0.7-3-1.8-5.2-2.7h0.6
		c11.1,0.1,12.4-5.6,14.4-10.1C295,217.1,295.2,216.8,295.3,216.6 M291.3,203.5c0.8,2.6,1.6,4.9,1.7,5.2c0.4,0.9,1.5,2.2,1.5,4.6
		c0,0.4-0.1,0.8-0.1,1.3c-0.1,0.2-0.1,0.4-0.2,0.6c-0.2,0.6-0.4,1-0.7,1.7c-2.4,4.8-2.5,9.2-13.2,9.4c-0.4,0-0.8,0-1.4,0l-2.9-0.3
		l0,0H276c-0.6-0.2-1.1-0.5-1.4-0.6c-1.4-0.5-15.3-6-21.5-9c-6.1-2.9-10.8-8-16.1-12.7c-0.2-0.1-0.2-0.2-0.3-0.3
		c-2.7-2.5-3.3-6.1-3.3-8.5c0-0.8,0.1-1.5,0.2-2.1c2.4,2.1,7.1,4.7,12.7,5.1c2.7,0.2,5.5,0.5,8.1,0.5c3.4,0,6.6-0.5,9.1-2.2
		c0.4,3.9,1,7.4,3,9c0,0,2.2,1.8,2.3,2c0.2,0.2,0.7,0.6,1.2,0.9c0.3,0.2,0.6,0.4,0.7,0.6c0.2,0.2,0.2,0.2,0.2,0.2
		c0.1,0.3,0.5,1.2,0.5,1.6c-0.2,0.1-1.1,0.6-1.5,1.1c-0.1,0.2-0.3,0.7-0.3,1.1c-0.1,0.5,0.1,1.1,0.7,1.5c0,0,0.2,0.1,0.6,0.2
		c0.4,0,0.7-0.2,1-0.6c0.2-0.4,0.7-0.5,0.9-0.6c0.5-0.2,2-0.6,2.6-1.7l2.2,4.7c0.4,0.3,0.9,0.7,1.6,0.7c0.3,0,0.5-0.1,0.7-0.1
		c0.3-0.3,0.8-0.7,0.8-1.3c0-0.2,0-0.4-0.1-0.5c-0.1-0.4-0.7-2.3-0.7-2.3l-0.7-2.3l0.5,0.7l1.6,2.7c0.2,0.1,0.7,1,1.7,1.1
		c0.2,0,0.3,0,0.4-0.1c0.4-0.2,1.3-0.6,1.3-1.6c0-0.3-0.1-0.6-0.2-0.8c-0.5-1.1-1.4-3.4-1.4-3.4s-0.5-0.9-1.1-1.9l0.5,0.2l3.8,2.4
		l0.4,0.1c0.1-0.1,0.7,0,1.3-0.7c0.2-0.3,0.3-0.6,0.3-0.7c0-0.6-0.4-1-0.6-1.3c-0.3-0.3-3.2-3.9-3.2-3.9c-0.1-0.1-1.3-1-2.2-1.4
		c0,0-0.5-0.5-0.4-0.6c-0.4-0.8-1.9-2-2.2-2.4c-0.6-0.4-2.8-1.9-4-2.2c-0.9-0.2-2.4-0.7-2.4-1v-0.1l0,0c0.4-1.6,2.9-7.8,2.9-7.8l2-4
		c0,0,0.2-0.5,0.6-1.1c0.6,0.6,2.5,2.4,6.3,2.4c0.3,0.6,2.9,6.1,3.1,7.8C288.3,194.1,290,199.3,291.3,203.5 M290.7,196.9
		c-0.6-2.1-1.1-3.7-1.2-4.4c-0.3-2-2.3-6.3-3-7.7c4.8-0.9,8.4-3.6,10.1-6.1l0,0c2.4-0.4,4.2-1.6,5.5-3.2c-0.3,2-0.7,4.3-2.1,7.7
		c0,0-1,2.8-2.2,5.2C297.3,190.7,292.4,195.4,290.7,196.9 M295.6,194c1.6-1.7,3.1-3.6,3.5-5.1c0.5-0.8,0.7-1.6,1.1-2.4
		c0.1,4,0.5,10,0.7,12.7C298.1,196.5,295.7,194.1,295.6,194 M328.7,198c-0.1,0.7-0.1,1.5-0.1,2.3c0,0.5,0,0.9,0.1,1.4
		c-0.6-0.2-1.1-0.3-1.7-0.3c-3,0.1-5.3,2.2-8.3,3.3c-2.9,0.9-6,1.3-7.5,1.4c1.1-2.9,4.1-11.4,5-18.4c0,0,0.5-4.3,0.8-10.3
		c0-0.3-0.3-0.7-0.6-0.7c-0.4,0-0.7,0.3-0.7,0.7l0,0c-0.5,5.9-0.8,10.2-0.8,10.2c-0.7,7.2-4.1,16.3-5.1,18.6c-1.6-0.5-4.5-3-7.3-5.5
		v-0.1l0,0c0,0-0.7-10.7-0.7-15.5c0-0.9,0.1-1.7,0.1-2v-0.1c1.7-4.9,1.9-7.8,2.5-10.2v-0.2c1.2-2.6,1.6-5.5,1.6-6.8l0,0
		c0-0.7-0.7-2.9-0.7-2.9s-0.2-0.6-0.3-1.3l1.1-1c0,0,0,0,0.1,0c0.4,0.6,0.7,1.1,1.1,1.6c1.1,1.2,3.6,2.4,6.1,2.4
		c0.5,0,1-0.1,1.4-0.2c1.3-0.4,1.7-1.2,1.8-1.1c0.9-0.3,1.6-1,2-0.9c0.9-0.3,1.5-1.1,1.8-1.7c0.2,0,0.4,0.1,0.6,0.1
		c0.7,0,2-0.2,2.1-1.6c0.1-1.1,0.1-3.6,0.2-4.5c0.6-0.4,1.7-1.5,2.2-3.4c1.1-0.1,3.1-0.3,3.1-0.3c2.1-0.6,2.6-2.2,2.6-3.6
		c0-0.8-0.2-1.6-0.4-2.2c-0.5-1.4-2.2-2.5-3.2-3.1c0.2-0.5,0.4-0.9,0.4-1.3c-0.1-1.4-1-2.1-1-2.2c-0.4-1.3-1.6-2-2.6-2.2l-0.3-12.4
		c2.2-0.6,4.5-2,5.8-4.6l0.3,0.2c0,0,0.2,0,0.6,0c0.5,0,1.2-0.1,2.1-0.4c1.4-0.6,2.5-1.8,2.5-1.8c0.7-0.5,1-1.1,1.1-1.8l7.7,3.6
		c0.1,0.5,0.2,0.8,0.2,1.2v0.3c-0.1,0.2-0.1,0.5-0.1,0.5c0.1,1.5,1.1,2.2,1.1,2.2c0.1,0.1,0.2,0.2,0.3,0.2v0.4
		c0,1.1,0.1,2.2,0.3,3.6c0,0,0.3,2.3,1.8,4.4c0,0.1,0,0.1-0.1,0.1c0,0-0.7,2.1-1.1,2.2c-0.9,0.7-3.7,4.3-3.8,7.7
		c0,0.3,0,0.6,0.1,0.9c0.7,3,2.2,8,2.2,8c0.1,0.4,0.4,0.5,0.7,0.5l0.6-0.1c-0.4,1-1.1,2.9-1.4,3.1c-0.4,0.4-2.7,1.9-4.6,7.2
		c-0.4-0.2-1-0.4-1.8-0.4c-1,0-2.2,0.4-3.6,1.6c-1.7,1.6-2.2,2.1-2.3,2.1c0,0.1-0.1,0.1-0.1,0.1l0,0c0,0,0,0-0.1,0.1
		c-0.7-1.5-0.8-2.9-0.8-4.1c-0.1-6.5,7.4-9.5,7.4-9.5c0.3-0.2,0.5-0.6,0.4-0.9c-0.2-0.4-0.6-0.5-0.8-0.4c0,0-2.2,0.9-4.4,2.9
		c-0.1-1.6-0.3-4.3-0.4-6.5c0.2-0.4,1.3-3.8,2.8-7.5c1.5-3.8,3.7-8,4.7-8.1c0.4-0.2,0.6-0.6,0.4-0.9c-0.1-0.4-0.6-0.6-0.8-0.4
		c-2.2,1-4.6,6.5-6.3,10.9c0.6-3.1,1.5-7.4,2.4-11.3c0.1-0.4-0.2-0.7-0.6-0.7c-0.4-0.1-0.7,0.1-0.7,0.5c-1.5,6.5-3.1,14-3.2,15.7
		c-0.1,0.4-0.1,0.8-0.1,1.3c0,3,0.4,8,0.5,8.4c-1.4,1.6-2.5,3.7-2.5,6.5c0,1.5,0.3,3.2,1.1,5.1c0,0.1,0.1,0.2,0.1,0.3
		c-1,1.4-1,1.5-1.3,2.1c-0.2,0.7-1.1,4.4-1.1,5.3l0,0l0,0c0,0.2,0,0.7-0.1,0.9c-0.1,0.2-0.1,0.4-0.1,0.5l0,0c-0.1,0.1-1,0.7-1.4,0.8
		c-0.4-0.7-1.3-2-2.3-2.3c-0.2-0.1-0.6-0.1-0.8-0.1c-0.4,0-1.2,0.1-1.3,1c0,0.1,0,0.3,0.1,0.4c-0.4,0.1-1,0.2-1.1,1.2
		c0,0.7,0.4,1,1,1.5l2,1.8c0.1,0,1.9,1.6,3.3,2c0.3,0.1,0.7,0.1,1.1,0.1c0.7,0,1.6-0.2,2.2-0.6c-0.1,0.3-0.2,0.6-0.2,0.6
		c-0.6,0.8-1.1,2.6-1.1,3.6c0,0.2,0,0.5,0.2,0.7c0-0.2,0.2,1.4,1.7,1.6c0.6,0,1-0.4,1.4-0.9l0.3-0.4c-0.6,1.9-1.1,3.4-1.5,4.1
		C330.6,193.4,328.8,195.6,328.7,198 M335.7,171.6c-0.4-0.1-0.7,0.1-0.8,0.5c-0.1,0.4-0.9,1.4-1,3.2c0,0.8-0.8,0.8-1,0.8
		c-0.3-0.1-0.4-0.4-0.5-1.2c0-0.7,0.1-1.4,0.2-1.8c0.1-0.4-0.2-0.7-0.6-0.7s-0.7,0.2-0.7,0.6c0,0.3-0.2,1.1-0.2,2
		c0,0.7,0.2,1.6,0.7,2.2c0,0.3-0.1,1-0.3,1.9c-0.1,0.1-0.2,0.2-0.3,0.3c-0.6,0.8-1.6,1.1-2.4,1.1c-0.4,0-0.7,0-0.8-0.1
		c-0.8-0.2-2.7-1.7-2.7-1.7l-2.1-1.8c-0.2-0.2-0.3-0.3-0.4-0.4c0.3-0.1,0.8-0.2,1.1-1.1v-0.3c0.1,0,0.3,0,0.4,0.1
		c0.1-0.1,1.8,2,1.9,2.1c0.4,0.4,0.4,0.3,0.6,0.4c1-0.1,2.1-1,2.4-1.3c0.7-0.7,0.6-1.7,0.7-2.4l0,0l0,0c0-0.4,0.9-4.4,1-4.8
		c0.3-0.7,0-0.2,2-2.8c0.1-0.1,0.6-0.5,2.4-2.2c1-1,2-1.2,2.6-1.2c0.6,0,1,0.2,1.3,0.4c-0.8,2.7-1.7,6.3-2.2,11c0,0-1.1,3.8-2.2,7.9
		c-0.1,0-0.1,0.1-0.2,0.1l-1.3,2.2l-1.2,1.7c-0.3,0.4-0.4,0.4-0.4,0.4c-0.1,0.1-0.1,0-0.3-0.4c-0.2-0.2-0.2-0.5-0.3-0.5l-0.2-0.2
		h0.2c-0.1-0.5,0.7-2.5,0.9-3c0.4-0.7,0.5-1.6,0.7-2.8c0.1-0.8,0.3-1.7,0.3-2.2c0.6-0.1,2-0.5,2.1-2.2c0.1-1.4,0.7-1.9,1-2.8
		C336.2,172,336,171.7,335.7,171.6 M329.8,241.5l-19.1-6.5v-3.9l19.1,6.3V241.5z M368.1,230.9l-37,10.9v-4.4l37-10.5V230.9z
		 M344.2,229.5c0.4-0.1,0.6-0.4,0.5-0.7l-0.8-5.7l3.2-0.7l18.9,3.9l-35.5,10.1l-18.1-5.9l18.3-4.3l-1.1,5.9
		c-0.1,0.4,0.1,0.7,0.5,0.7c0.4,0.1,0.7-0.1,0.8-0.4l2.5-6.8l8-1.9l2,5.5C343.5,229.4,343.9,229.6,344.2,229.5 M334.1,223.9l3.8-9.7
		l3,8.1L334.1,223.9z M342.3,222L342.3,222l-3.7-9.9c-0.1-0.3-0.4-0.4-0.7-0.4s-0.6,0.2-0.7,0.4l-4.9,12.3h-0.1l1.2-8.7v-0.1
		c0.3-0.6,0.7-1.6,1-2.7c0.4-1.6,1.5-5.6,2.6-7.4c0.7-1,1.8-1.4,2.4-1.6l0.1,1.7L342.3,222z M353.3,171.3
		c-4.8,8.8-11.5,16.7-12.1,18.2c-0.2,0.7-0.5,1.6-0.5,2.5c0,1.3,0.3,3.2,1,6.3c0.2,0.7,0.2,1.4,0.2,2c0,1.4-0.4,2.7-0.8,3.6
		l-0.1-0.9c0-0.4-0.4-0.6-0.7-0.6c-0.1,0-2.5,0.2-4.1,2.4c-1.3,2.1-2.4,6.1-2.8,7.9c-0.2,0.8-0.6,1.7-0.8,2.2
		c-0.3-0.3-0.4-0.7-0.4-1.1l0,0l0.1-0.2l-0.6-8.9l-0.3-0.5c-0.5-0.3-0.7-0.7-0.9-1c0-0.1-0.1-0.1-0.1-0.1s0-0.3-0.2-0.4
		c-0.2-0.7-0.3-1.4-0.3-2.2s0.1-1.5,0.1-2.2c-0.1-1.7,1.7-4,3.1-7c0.7-1.4,1.8-5,2.8-8.5c1.3-4.1,2.4-8.2,2.4-8.2
		c0.7-5.1,1.5-8.8,2.4-11.5c2-5.7,3.9-6.8,4.5-7.4c1-0.9,2-4.2,2-4.2l12.5-1.8c0,0,0.7-0.2,1.7-0.6l-3.8,8.2l-0.1,0.4
		c0,0.2,0,0.6,0,0.8c0,2.8-1.1,6.4-2.8,9.9C354.2,169.5,353.7,170.3,353.3,171.3 M366.5,181.4c0,0-5.1,7.9-5.8,8.9
		c-0.7,1-0.7,2.5-0.7,3.6c0,0.6,0,1.1,0.1,1.3c0,0.6-0.5,2.2-0.5,2.2c-0.1,0.3-0.1,0.6-0.1,0.7c0,1.5,0.8,3.1,1.7,4.1
		c0.9,1.1,2.1,1.9,2.3,2.6v0.2c0.1,0.6-0.8,1.9-2.2,2.4c-0.7,0.4-2.4,0.6-4.3,0.6c-1.4,0-2.9-0.1-4.1-0.3c-1.9-0.3-2-1.6-2-2.4
		c0-0.3,0-0.4,0-0.4c0,0.1,1.2-3.9,1.5-4.5c0.2-0.6,0.2-1.4,0.2-2.2c0-0.7,0-1.5-0.1-2.1c-0.1-0.1-0.1-0.2-0.1-0.2
		c0-1,1.2-3.9,2.3-5.3c0.9-1.4,1-3.6,1-5.2c0-0.9-0.1-1.8-0.1-2.1c-0.1-0.1-0.1-0.6-0.1-1.1c0-3,0.1-10.9,0.1-12.4
		c5.4-1.2,10.2-1.9,13.8-2.2C368.8,177.9,366.4,181.3,366.5,181.4 M371.1,206.2l-1.4-5.2c-1.1-3-1.5-5.6-1.5-8c0-4.7,1.7-8,2.2-9.3
		c0.7-1.8,5.1-10.1,5.1-10.1l2.6-5.6l0.4-1.7c0.1-0.4,0.2-0.7,0.3-1.4c0.7-3,1.7-8.1,1.8-10.1c0-0.2,0-0.3,0-0.5
		c0-2.2-0.9-6.3-1.6-8.1c-0.4-0.8-0.5-1.6-0.5-2.4c0-0.7,0.1-1.2,0.2-2c0.1-1.2,1.8-7.4,2.2-9.2l8.2-0.4c0.1,0,2.8-0.3,4.7-1.5
		c0.3-0.2,0.4-0.7,0.2-0.9c-0.2-0.3-0.7-0.4-0.9-0.2c-1.5,0.9-4.1,1.3-4.1,1.3l-12.2,0.7c-0.4,0-0.7,0.4-0.7,0.7
		c0,0.4,0.3,0.7,0.7,0.7l0,0l2.6-0.1c-0.4,2-1.9,7.6-2.1,8.9c-0.1,0.7-0.2,1.3-0.2,2.2c0,0.8,0.2,1.9,0.6,2.9
		c0.7,1.6,1.5,5.7,1.5,7.7v0.2c-0.1,2-1,7.2-1.7,10.1c-0.1,0.4-0.2,0.7-0.3,1c-0.9,0-3.4,0-6.8,0.4h-0.2c-3.6,0.3-8.3,0.9-13.8,2.2
		c1.5-3.3,2.5-6.6,2.5-9.4c0-0.3-0.1-0.6-0.1-0.8l4.1-8.9v-0.1c0.1-0.2,0.1-0.3,0.1-0.4c1-0.5,2.1-1,2.7-1.9c1.7-2,6.3-9.4,6.3-9.5
		l0.1-0.1c0.4-0.7,0.8-1.3,1.2-2.1c0,0,0.1-0.2,0.2-0.4h0.1c0.1-0.4,0.3-0.7,0.4-1.1c0.6-1.3,1.5-3.3,2.3-5.1
		c0.1,0.2,1.5-0.7,1.8-0.7c5.1-2,6.6-8.3,6.7-8.4V119c2.5,3,8.8,9.6,15.9,11.7c-6.3,7.6-11,15.8-14.6,23.6c-0.2-2.5-0.3-4.7-0.3-6.1
		c0-1.3,0.1-2,0.1-2c0-0.4-0.3-0.7-0.7-0.7c-0.4,0-0.7,0.3-0.7,0.7c0,0-0.1,0.7-0.1,2c0,1.9,0.1,4.8,0.6,8.3l0.1,0.1
		c-8.8,20.4-9.9,38.1-9.9,38.2s0,0.2,0.1,0.2c0,0.2-0.1,0.4-0.1,0.6c0,1.9,1.5,3.6,5.6,4.9h0.1c0.1,0,0.1-0.1,0.2-0.1
		c-0.3,1.5-0.7,2.9-1,3.6c-1.6,3.7-2.7,6.6-2.7,8.4l0,0c0,0.6-0.1,1.5-0.4,2.4c-0.1-0.1-0.2-0.1-0.3-0.1
		C374.1,213.9,373.7,213.9,371.1,206.2 M376.4,194.9c0,0,2-2.9,2.2-3.1c0.8-0.7,2.2-1.8,4-3.2c-0.3,2.1-0.8,6.7-1.5,10.5
		c-0.1,0-0.1-0.1-0.2-0.1c-3.9-1.2-4.8-2.6-4.8-3.6C376.3,195.2,376.4,195,376.4,194.9 M391.1,222.6L391.1,222.6L391.1,222.6
		c0,0.8-1.6,2.5-2.2,2.8c-0.5,0.4-2,0.9-2.8,1.5c-0.2,0.1-0.6,0.2-1.1,0.2c-0.5,0-1-0.1-1.5-0.1c-0.7,0-2.8-0.7-2.8-0.7h-0.4
		c0,0-1.5,0.3-2.7,0.3c-0.2,0-0.5,0-0.7-0.1c-0.7,0.1-1-1.1-1.1-3.2c0-0.1,0-0.2,0-0.4c0-0.5,0.1-1,0.2-1.5c0.4-1.1,0.8-2.2,1.2-2.8
		c0.6-1.2,1.5-4.9,1.5-6.5l0,0h-0.6h0.6c0-1.2,1.1-4.2,2.6-7.9c1.7-4,2.9-16.5,2.9-16.5s0-0.2,0-0.3c6.5-5.2,15.8-12.9,18.2-16.3
		c0.3-0.5,0.7-0.9,1.1-1.3v0.4c0,14.8-14.3,34.8-15.7,37.6c-0.6,1-0.7,2.1-0.7,3.3c0,1.8,0.4,3.6,0.7,4.8c0.2,0.8,0.4,1.3,0.4,1.3
		C388.2,217.5,391,221.6,391.1,222.6 M415.9,216.6h-1.3c-2.5-0.1-2.8,0-5.5-0.2c-1.3-0.1-2.7-0.1-4.1-0.2c0,0-0.1,0-0.1-0.1
		c-4.3-0.9-10.1-7.4-10.2-7.4c-0.2-0.3-0.7-0.3-0.9-0.1c-0.3,0.3-0.3,0.7,0,0.9c0.2,0.2,3.6,4.1,7.5,6.4c-2.1-0.1-3.9-0.2-5.6-0.3
		c-1.9-0.2-3.5-0.3-4.6-0.4c-0.6-0.1-1-0.1-1.3-0.2c-0.2,0-0.3,0-0.4-0.1c-0.1,0-0.2-0.1-0.3-0.1c-0.2-1.1-0.5-2.5-0.5-3.8
		c0-1,0.1-2.1,0.5-2.6c0.8-1.7,7.3-10.9,11.8-21.3c2.4,2.7,4.8,5.3,7,7.8c0,0.1-0.1,0.3-0.1,0.3c0.3,13.9,6.5,19.4,10.4,21.4
		C417.2,216.6,416.5,216.6,415.9,216.6 M421.2,216.4c-0.1,0-0.1,0-0.2,0c0,0-11-2-12-20c3.8,4.1,6.7,7.1,6.7,7.1
		c0.1,0.1,0.3,0.2,0.5,0.2s0.4-0.1,0.5-0.2c0.3-0.3,0.3-0.7,0-0.9c0,0-8-8.3-15.2-16.5c-0.1-0.1-0.2-0.1-0.3-0.2
		c2.2-5.2,3.6-10.7,3.6-15.6c0-0.5,0-0.9,0-1.4c2.2-1.4,5.1-1.7,6.7-1.7c0.9,0,1.5,0.1,1.5,0.1c0.4,0,0.7-0.3,0.7-0.6
		c0.1-0.4-0.2-0.7-0.6-0.7c0,0-0.7-0.1-1.7-0.1c-1.9,0-5.1,0.3-8,2.2c-0.8,0.6-1.7,1.3-2.3,2.2c-2.2,3.1-12,11.2-18.4,16.5
		c-2.2,1.7-3.9,3.1-5,3.9c-0.2,0.2-0.4,0.4-0.6,0.7c0,0.1-0.3,0.3-0.6,0.6c1-8.9,5.8-37.7,25.4-61.2c0.7,0.1,1.5,0.2,2.2,0.2
		c0.3,0,0.7,0,0.9,0l-4.9,19.2c-0.1,0.4,0.2,0.7,0.5,0.8c0.4,0.1,0.7-0.1,0.7-0.5l5.1-19.8c1.4-0.3,2.7-0.8,4-1.8
		c1.8-1.2,8-4.2,9.8-7.5l5.6-4.6c0,0,1.2-1,2.4-2.6c2.5,6.5,4.1,15.4,5.5,27.6c0.5,4.3,0.7,8.4,0.7,12.4c0,14.9-2.8,27.9-4.9,35.9
		c-0.3-8-1.6-21.4-1.6-30.8c0-3,0.1-5.5,0.4-7.3c0.6-3.2,0.7-6.4,0.7-9.1c0-5.4-0.7-9.4-0.7-9.4c-0.1-0.4-0.4-0.7-0.7-0.6
		c-0.4,0.1-0.7,0.5-0.6,0.8c0,0,0.7,3.8,0.7,9.1c0,2.7-0.2,5.7-0.7,8.9c-0.4,1.9-0.5,4.5-0.5,7.5c0,10.9,1.7,27,1.7,33.9
		c0,0.9,0,1.7-0.1,2.2v0.1c-0.4,1.8-0.6,3.6-0.6,5.6c0.1,5.9,1.6,11.9,4.2,14.4C429.8,215.7,425.3,216.2,421.2,216.4"/>
	<path class="st0" d="M317.3,101.7c0.2,0,0.4-0.1,0.6-0.3c0,0,0.6-0.7,1.2-1.3v0.1l0.3,0.4c0.2,0.3,0.7,0.4,0.9,0.2
		c0.3-0.2,0.4-0.7,0.2-0.8l-0.3-0.4c-0.1,0-0.1-0.1-0.1-0.1c0-0.1,0.2-0.1,0.2,0h0.1c0.3,0.2,0.7,0.2,0.9-0.1
		c0.2-0.3,0.2-0.7-0.1-0.9c-0.3-0.3-0.6-0.4-0.9-0.4c-2,0.2-3.5,2.7-3.6,2.7c-0.2,0.3-0.2,0.7,0.2,0.9
		C317.1,101.7,317.3,101.7,317.3,101.7"/>
	<path class="st0" d="M317.8,155.3c-0.3,0.2-0.3,0.7-0.1,0.9c0.2,0.1,0.4,0.2,0.6,0.2s0.3-0.1,0.5-0.2l0.6-0.5
		c0.5,0.2,0.9,0.3,1,0.4c0.4,0.1,0.7-0.2,0.7-0.5c0.1-0.4-0.1-0.7-0.5-0.8c0,0-2.2-0.7-2.4-1.2c-0.2-0.3-0.7-0.4-0.9-0.2
		c-0.4,0.2-0.5,0.6-0.2,0.9c0.3,0.4,0.6,0.7,0.9,0.9H317.8z"/>
	<path class="st0" d="M299.8,76.2c-0.2,0.4-0.1,0.7,0.2,0.9l1.1,0.7l-0.3,0.5c-0.3,0.3-0.2,0.7,0.1,0.9c0.4,0.2,0.7,0.1,0.9-0.2
		l0.3-0.6l1.2,0.8c0.1,0.1,0.2,0.1,0.4,0.1c0.2,0,0.5-0.1,0.6-0.3c0.2-0.3,0.1-0.7-0.2-0.9l-3.5-2.2
		C300.4,75.8,299.9,75.9,299.8,76.2"/>
	<path class="st0" d="M350.6,76c-0.4,0-0.7-0.1-0.7-0.1c0-0.1-0.1-0.1-0.1-0.1c-0.3-0.3-0.7-0.3-0.8,0c0,0.1-0.2,0-0.3,0.5
		c0.1,0.7,0.7,1.1,2,1.1l0,0c0.4,0,0.7-0.3,0.7-0.7C351.2,76.4,350.9,76.1,350.6,76"/>
	<path class="st0" d="M347.3,71.4c-0.1,0.4,0.2,0.7,0.6,0.7h0.1c0.4,0,0.7-0.2,0.7-0.6v-0.3c0.5,0.1,1,0.2,1.6,0.2
		c0.4,0,0.7-0.3,0.7-0.7s-0.3-0.7-0.7-0.7c-1.9,0-3.7-1.2-3.7-1.2c-0.4-0.2-0.7-0.1-0.9,0.2s-0.1,0.7,0.2,0.9c0,0,0.6,0.4,1.5,0.7
		L347.3,71.4z"/>
	<polygon class="st0" points="347.5,78.7 347.5,78.7 347.4,78.7 	"/>
	<path class="st0" d="M350,78.3c-1-0.1-1.7-0.7-1.7-0.7c-0.3-0.3-0.7-0.2-0.9,0.1c-0.3,0.3-0.2,0.7,0.1,0.9c0.1,0,1,0.9,2.5,0.9
		c0.4,0,0.7-0.3,0.7-0.7C350.7,78.7,350.4,78.3,350,78.3"/>
	<path class="st0" d="M408.1,109.6c0.2,0,0.4-0.1,0.5-0.3l5.3-5.3c0.3-0.2,0.3-0.7,0-0.9c-0.2-0.3-0.7-0.3-0.9,0l-5.3,5.4
		c-0.3,0.3-0.3,0.7,0,0.9C407.8,109.5,407.9,109.6,408.1,109.6"/>
</g>
</svg>
