<svg xmlns="http://www.w3.org/2000/svg" viewBox="0 0 115 94">
  <title>01</title>
  <g id="_01" data-name="01">
    <g>
      <path d="M.26563,36.68164A71.58377,71.58377,0,0,1,1.57031,25.98242a52.46376,52.46376,0,0,1,3.001-9.917A26.2792,26.2792,0,0,1,9.9209,7.8457a24.34466,24.34466,0,0,1,8.54687-5.61133A32.81442,32.81442,0,0,1,30.79785.14648,32.825,32.825,0,0,1,43.12793,2.23437,24.38033,24.38033,0,0,1,51.6748,7.8457a26.31331,26.31331,0,0,1,5.34961,8.21973,52.6059,52.6059,0,0,1,3.001,9.917,72.09886,72.09886,0,0,1,1.30469,10.69922q.26074,5.47851.26074,10.56836,0,5.08887-.26074,10.56836a72.096,72.096,0,0,1-1.30469,10.70019,50.923,50.923,0,0,1-3.001,9.85059,26.518,26.518,0,0,1-5.34961,8.15527,23.76087,23.76087,0,0,1-8.48144,5.5459A33.64341,33.64341,0,0,1,30.79785,94.0918a33.75412,33.75412,0,0,1-12.33008-2.02149,23.62919,23.62919,0,0,1-8.54687-5.5459,26.483,26.483,0,0,1-5.34961-8.15527,50.78825,50.78825,0,0,1-3.001-9.85059A71.581,71.581,0,0,1,.26563,57.81836Q.00195,52.33985.00488,47.25.00488,42.16113.26563,36.68164ZM12.07422,58.79687a49.05345,49.05345,0,0,0,2.08789,12.13477,22.8963,22.8963,0,0,0,5.67578,9.59082q3.91407,3.91553,10.96,3.915,7.04591,0,10.96-3.915a22.90815,22.90815,0,0,0,5.67676-9.59082,49.18967,49.18967,0,0,0,2.08691-12.13477q.3252-6.457.32618-11.67773,0-3.39111-.06446-7.502a65.84321,65.84321,0,0,0-.65234-8.22071,61.483,61.483,0,0,0-1.69629-8.02441,21.284,21.284,0,0,0-3.26269-6.85059,16.81908,16.81908,0,0,0-5.415-4.76171,16.08217,16.08217,0,0,0-7.959-1.82715,16.077,16.077,0,0,0-7.959,1.82715,16.80877,16.80877,0,0,0-5.415,4.76171,21.22156,21.22156,0,0,0-3.26172,6.85059,60.85014,60.85014,0,0,0-1.69629,8.02441,65.10827,65.10827,0,0,0-.65234,8.22071q-.0674,4.11034-.06543,7.502Q11.748,52.33985,12.07422,58.79687Z" fill="#fff"/>
      <path d="M102.43164,92.65723V26.37305H78.42285V17.5a57.11093,57.11093,0,0,0,9.13379-.7168,24.91921,24.91921,0,0,0,8.02441-2.67578,18.28682,18.28682,0,0,0,6.06739-5.34961A20.34542,20.34542,0,0,0,105.041.14648h8.48144V92.65723Z" fill="#fff"/>
    </g>
  </g>
</svg>
