<svg id="图片" xmlns="http://www.w3.org/2000/svg" viewBox="0 0 134 96">
  <title>02</title>
  <g>
    <path d="M2.26563,37.68164A71.58377,71.58377,0,0,1,3.57031,26.98242a52.46376,52.46376,0,0,1,3.001-9.917A26.2792,26.2792,0,0,1,11.9209,8.8457a24.34466,24.34466,0,0,1,8.54687-5.61133A32.81442,32.81442,0,0,1,32.79785,1.14648,32.825,32.825,0,0,1,45.12793,3.23437,24.38033,24.38033,0,0,1,53.6748,8.8457a26.31331,26.31331,0,0,1,5.34961,8.21973,52.6059,52.6059,0,0,1,3.001,9.917,72.09886,72.09886,0,0,1,1.30469,10.69922q.26074,5.47851.26074,10.56836,0,5.08887-.26074,10.56836a72.096,72.096,0,0,1-1.30469,10.70019,50.923,50.923,0,0,1-3.001,9.85059,26.518,26.518,0,0,1-5.34961,8.15527,23.76087,23.76087,0,0,1-8.48144,5.5459A33.64341,33.64341,0,0,1,32.79785,95.0918a33.75412,33.75412,0,0,1-12.33008-2.02149,23.62919,23.62919,0,0,1-8.54687-5.5459,26.483,26.483,0,0,1-5.34961-8.15527,50.78825,50.78825,0,0,1-3.001-9.85059A71.581,71.581,0,0,1,2.26563,58.81836Q2.00195,53.33985,2.00488,48.25,2.00488,43.16113,2.26563,37.68164ZM14.07422,59.79687a49.05345,49.05345,0,0,0,2.08789,12.13477,22.8963,22.8963,0,0,0,5.67578,9.59082q3.91407,3.91553,10.96,3.915,7.04591,0,10.96-3.915a22.90815,22.90815,0,0,0,5.67676-9.59082,49.18967,49.18967,0,0,0,2.08691-12.13477q.3252-6.457.32618-11.67773,0-3.39111-.06446-7.502a65.84321,65.84321,0,0,0-.65234-8.22071,61.483,61.483,0,0,0-1.69629-8.02441,21.284,21.284,0,0,0-3.26269-6.85059,16.81908,16.81908,0,0,0-5.415-4.76171,16.08217,16.08217,0,0,0-7.959-1.82715,16.077,16.077,0,0,0-7.959,1.82715,16.80877,16.80877,0,0,0-5.415,4.76171,21.22156,21.22156,0,0,0-3.26172,6.85059,60.85014,60.85014,0,0,0-1.69629,8.02441,65.10827,65.10827,0,0,0-.65234,8.22071q-.0674,4.11034-.06543,7.502Q13.74805,53.33985,14.07422,59.79687Z" fill="#fff"/>
    <path d="M76.24805,20.84961a27.63431,27.63431,0,0,1,5.67578-10.373A26.62079,26.62079,0,0,1,91.51367,3.626a32.64128,32.64128,0,0,1,13.04785-2.4795A35.491,35.491,0,0,1,115.84863,2.9082a27.41715,27.41715,0,0,1,9.19825,5.08887,23.72424,23.72424,0,0,1,6.19824,8.28516,27.22507,27.22507,0,0,1,2.2832,11.48242,28.85386,28.85386,0,0,1-1.8916,10.83008,30.87154,30.87154,0,0,1-5.02344,8.416,42.24827,42.24827,0,0,1-7.17676,6.71973q-4.04589,3.00293-8.35058,5.74023-4.30518,2.61328-8.61133,5.1543a68.065,68.065,0,0,0-7.89453,5.416,35.80532,35.80532,0,0,0-6.13281,6.19726,17.532,17.532,0,0,0-3.32715,7.63281h47.49511v9.78614H72.20313a49.04607,49.04607,0,0,1,2.93554-14.02637,37.48235,37.48235,0,0,1,5.80664-10.11231,43.69368,43.69368,0,0,1,7.959-7.56738q4.43407-3.26074,9.26367-6.13281,5.87256-3.65185,10.30859-6.7207a45.63062,45.63062,0,0,0,7.37207-6.19727,22.2824,22.2824,0,0,0,4.43653-6.78516,22.2151,22.2151,0,0,0,1.5-8.48046,15.96176,15.96176,0,0,0-1.43555-6.85059,16.44325,16.44325,0,0,0-9.52441-8.67676,20.26506,20.26506,0,0,0-6.916-1.1748A16.13331,16.13331,0,0,0,95.624,12.95508a17.39078,17.39078,0,0,0-5.67578,5.28515,22.02989,22.02989,0,0,0-3.19726,7.3711,31.35772,31.35772,0,0,0-.84766,8.28613H74.8125A37.36882,37.36882,0,0,1,76.24805,20.84961Z" fill="#fff"/>
  </g>
</svg>
