<svg id="title" xmlns="http://www.w3.org/2000/svg" viewBox="0 0 1920 519">
  <title>title</title>
  <g>
    <path d="M109.09473,186.669V327.625H90.33984V186.669Z" fill="#fff"/>
    <path d="M163.5791,305.71094v19.93945q0,11.25292-5.13281,19.34766-5.13575,8.0918-16.583,11.44922v-9.87012a14.8057,14.8057,0,0,0,5.626-3.45508,20.078,20.078,0,0,0,3.65234-4.93457,19.11636,19.11636,0,0,0,1.876-5.42969,20.02735,20.02735,0,0,0,.2959-5.13281H141.666V305.71094Z" fill="#fff"/>
    <path d="M358.23242,327.625,326.05371,209.17383h-.39551L293.085,327.625H273.54L237.41309,186.669H256.5625l27.63867,117.2666h.39453L316.18262,186.669h20.334L367.708,303.93555h.39551l28.625-117.2666H415.4834L377.77637,327.625Z" fill="#fff"/>
    <path d="M530.57715,186.669v15.79394H452.00488v44.8125h73.24219v15.794H452.00488V311.832H531.169v15.793H433.25V186.669Z" fill="#fff"/>
    <path d="M605.002,186.669q4.53956,0,9.77246.09863,5.228.10254,10.36426.5918a79.7247,79.7247,0,0,1,9.5752,1.48046,24.25461,24.25461,0,0,1,7.60058,2.96192,36.77663,36.77663,0,0,1,11.7461,11.45019q4.83544,7.30665,4.83691,17.96485,0,11.25292-5.42871,19.44531a32.0031,32.0031,0,0,1-15.49805,12.1416v.39551q13.0298,2.76563,19.93946,11.84375,6.90819,9.08349,6.91015,22.11133a42.07394,42.07394,0,0,1-2.76465,15.0039,37.62967,37.62967,0,0,1-8.19238,12.93067,40.92638,40.92638,0,0,1-13.4248,9.08105,46.15429,46.15429,0,0,1-18.458,3.45508H553.87109V186.669Zm5.13282,60.60644q15.99169,0,23-5.625,7.00488-5.62792,7.00781-16.87988,0-7.5-2.36914-11.84473a16.8569,16.8569,0,0,0-6.51465-6.71289,25.66418,25.66418,0,0,0-9.57422-3.05957,91.77468,91.77468,0,0,0-11.5498-.69043H572.626v44.8125Zm9.47656,64.55664q12.43652,0,19.44531-6.71289,7.00488-6.709,7.00879-18.55664a23.06723,23.06723,0,0,0-2.56641-11.45117,19.94277,19.94277,0,0,0-6.81152-7.20508,28.58872,28.58872,0,0,0-9.77148-3.751,59.46465,59.46465,0,0,0-11.4502-1.08593H572.626V311.832Z" fill="#fff"/>
    <path d="M829.169,206.60742q-10.76221-7.5-25.56543-7.501-12.63574,0-21.61719,4.7373a42.643,42.643,0,0,0-14.80664,12.73437,54.933,54.933,0,0,0-8.58692,18.26075,81.57778,81.57778,0,0,0-2.76465,21.32129,91.22067,91.22067,0,0,0,2.76465,22.80078,54.487,54.487,0,0,0,8.58692,18.75586A42.38625,42.38625,0,0,0,782.085,310.44922q9.07764,4.73877,21.71582,4.73828a41.81683,41.81683,0,0,0,16.48438-3.05957,37.29336,37.29336,0,0,0,12.4375-8.48926A39.06888,39.06888,0,0,0,840.915,290.708a53.74936,53.74936,0,0,0,3.55371-16.18848h18.75488q-2.76708,26.65137-18.35937,41.458-15.59766,14.80518-42.64258,14.80566-16.38867,0-28.626-5.626a56.19237,56.19237,0,0,1-20.334-15.49707,66.50028,66.50028,0,0,1-12.14063-23.29493,99.35308,99.35308,0,0,1-4.04687-28.82324,94.01211,94.01211,0,0,1,4.34277-28.92187,69.63446,69.63446,0,0,1,12.7334-23.59082,59.33583,59.33583,0,0,1,20.92676-15.89258q12.53321-5.82129,28.72363-5.82422a72.49452,72.49452,0,0,1,20.92676,2.96094,56.284,56.284,0,0,1,17.57031,8.6875,48.869,48.869,0,0,1,12.832,14.3125,52.48943,52.48943,0,0,1,6.71192,19.83984H843.08691Q839.92725,214.11328,829.169,206.60742Z" fill="none" stroke="#fff" stroke-miterlimit="10" stroke-width="3"/>
    <path d="M905.27051,186.669V311.832h74.624v15.793H886.51562V186.669Z" fill="none" stroke="#fff" stroke-miterlimit="10" stroke-width="3"/>
    <path d="M1093.60645,186.669v15.79394h-78.57227v44.8125h73.24219v15.794h-73.24219V311.832h79.16406v15.793H996.2793V186.669Z" fill="none" stroke="#fff" stroke-miterlimit="10" stroke-width="3"/>
    <path d="M1175.92871,186.669l55.0791,140.95605H1210.2793l-15.39844-42.44531h-59.62012L1119.4668,327.625h-19.14942l54.88184-140.956Zm13.0293,82.71777-23.49317-65.74024h-.39453l-23.88769,65.74024Z" fill="none" stroke="#fff" stroke-miterlimit="10" stroke-width="3"/>
    <path d="M1264.56836,186.669l74.22852,114.30468h.39453V186.669H1356.959V327.625h-20.53125L1262.791,214.50488h-.39454V327.625h-17.76757V186.669Z" fill="none" stroke="#fff" stroke-miterlimit="10" stroke-width="3"/>
    <path d="M1484.68555,186.669v15.79394h-78.57227v44.8125h73.24219v15.794h-73.24219V311.832h79.16406v15.793H1387.3584V186.669Z" fill="none" stroke="#fff" stroke-miterlimit="10" stroke-width="3"/>
    <path d="M1574.31055,186.669q20.1372,0,31.48828,9.87109,11.3496,9.87452,11.35156,27.0459a42.79934,42.79934,0,0,1-5.82324,22.50586q-5.82569,9.67383-18.65625,13.22656v.39453a25.142,25.142,0,0,1,9.96972,3.94922,21.66392,21.66392,0,0,1,6.12012,6.61328,30.0569,30.0569,0,0,1,3.35547,8.58789,91.1791,91.1791,0,0,1,1.67774,9.8711q.394,5.13573.59277,10.46289a90.28759,90.28759,0,0,0,.9873,10.46289,63.801,63.801,0,0,0,2.27051,9.77148,24.06915,24.06915,0,0,0,4.44141,8.19336h-20.92578a11.74927,11.74927,0,0,1-2.666-5.92188,60.19654,60.19654,0,0,1-.88769-8.39062q-.19923-4.6377-.39551-9.96973a68.99364,68.99364,0,0,0-1.18457-10.46386q-.791-5.1299-1.97364-9.77149a22.976,22.976,0,0,0-3.751-8.09375,18.53217,18.53217,0,0,0-6.71192-5.52832q-4.1455-2.07274-11.05566-2.07324H1526.7334V327.625h-18.75488V186.669Zm3.94824,63.96386a27.1447,27.1447,0,0,0,10.36523-3.84961,21.0573,21.0573,0,0,0,7.10645-7.69922q2.666-4.8369,2.665-12.5371,0-10.65967-5.92188-17.373-5.92236-6.709-19.14941-6.71094H1526.7334v49.15625h39.08887A75.364,75.364,0,0,0,1578.25879,250.63281Z" fill="none" stroke="#fff" stroke-miterlimit="10" stroke-width="3"/>
    <path d="M1666.10938,305.71094V327.625h-21.91309V305.71094Z" fill="#fff"/>
  </g>
  <g>
    <path d="M87.55176,397.7373v-3.84082H114.96v3.84082H103.53613V428.169H98.97559V397.7373Z" fill="#fff"/>
    <path d="M122.16016,393.89648V407.001h.0957a5.42506,5.42506,0,0,1,1.34375-1.94434,7.6631,7.6631,0,0,1,1.94434-1.2959,10.136,10.136,0,0,1,2.25585-.74414,11.453,11.453,0,0,1,2.28028-.23926,10.76863,10.76863,0,0,1,4.08008.67188,6.718,6.718,0,0,1,2.63964,1.87207,6.961,6.961,0,0,1,1.416,2.85547,15.38605,15.38605,0,0,1,.4082,3.67187V428.169H134.544V411.36914a4.93279,4.93279,0,0,0-1.34375-3.64844,4.99885,4.99885,0,0,0-3.69629-1.34375,8.32068,8.32068,0,0,0-3.24024.57617,6.08543,6.08543,0,0,0-2.28027,1.63184,7.03947,7.03947,0,0,0-1.36719,2.47168,10.03747,10.03747,0,0,0-.456,3.09668V428.169h-4.08008V393.89648Z" fill="#fff"/>
    <path d="M162.335,426.585a11.26285,11.26285,0,0,1-7.00781,2.11231,12.75265,12.75265,0,0,1-5.16016-.96,10.15775,10.15775,0,0,1-3.67187-2.68847,11.3995,11.3995,0,0,1-2.23145-4.12793,19.86239,19.86239,0,0,1-.84082-5.23242,14.92948,14.92948,0,0,1,.86426-5.1836,12.40163,12.40163,0,0,1,2.42383-4.08008,11.0049,11.0049,0,0,1,3.69629-2.6875,11.28725,11.28725,0,0,1,4.67968-.96,10.18879,10.18879,0,0,1,5.4961,1.36719,10.8672,10.8672,0,0,1,3.5039,3.48047,13.76055,13.76055,0,0,1,1.82422,4.6084,19.78794,19.78794,0,0,1,.40821,4.75195H147.74316a9.83832,9.83832,0,0,0,.38379,3.0957,6.99231,6.99231,0,0,0,1.39258,2.5918,6.84707,6.84707,0,0,0,2.44824,1.79981,8.42654,8.42654,0,0,0,3.50391.67187,7.065,7.065,0,0,0,4.24805-1.19922,5.80675,5.80675,0,0,0,2.18359-3.64843h4.03223A9.924,9.924,0,0,1,162.335,426.585Zm-.9834-15.93555a6.99548,6.99548,0,0,0-1.48828-2.23242,7.07218,7.07218,0,0,0-2.208-1.48828,6.99554,6.99554,0,0,0-2.80761-.55176,7.1169,7.1169,0,0,0-2.85645.55176,6.57645,6.57645,0,0,0-2.18359,1.5127,7.21671,7.21671,0,0,0-1.44043,2.23144,8.47368,8.47368,0,0,0-.624,2.71192H161.999A8.371,8.371,0,0,0,161.35156,410.64941Z" fill="#fff"/>
    <path d="M210.7666,428.169l-7.82422-28.79981h-.0957L194.92676,428.169h-4.752l-8.78418-34.27247h4.65626l6.71972,28.5127h.0957l7.67969-28.5127h4.94434l7.584,28.5127h.09571l6.96-28.5127h4.56054l-9.168,34.27247Z" fill="#fff"/>
    <path d="M225.02344,410.67285a11.579,11.579,0,0,1,2.30371-4.12793,10.85607,10.85607,0,0,1,3.792-2.75976,13.89981,13.89981,0,0,1,10.39258,0,10.91548,10.91548,0,0,1,3.76758,2.75976,11.59409,11.59409,0,0,1,2.30371,4.12793,16.53723,16.53723,0,0,1,.76855,5.11231,16.305,16.305,0,0,1-.76855,5.08789,11.60376,11.60376,0,0,1-2.30371,4.10351,10.638,10.638,0,0,1-3.76758,2.73633,14.20707,14.20707,0,0,1-10.39258,0,10.58415,10.58415,0,0,1-3.792-2.73633,11.58855,11.58855,0,0,1-2.30371-4.10351,16.27645,16.27645,0,0,1-.76856-5.08789A16.50808,16.50808,0,0,1,225.02344,410.67285Zm4.15234,9.12012a8.35691,8.35691,0,0,0,1.65527,2.92773,7.15844,7.15844,0,0,0,2.47266,1.79981,7.52332,7.52332,0,0,0,6,0,7.16381,7.16381,0,0,0,2.47168-1.79981,8.3888,8.3888,0,0,0,1.65625-2.92773,13.694,13.694,0,0,0,0-8.01563,8.67006,8.67006,0,0,0-1.65625-2.95214,7.06072,7.06072,0,0,0-2.47168-1.82422,7.52321,7.52321,0,0,0-6,0,7.05552,7.05552,0,0,0-2.47266,1.82422,8.63632,8.63632,0,0,0-1.65527,2.95214,13.67285,13.67285,0,0,0,0,8.01563Z" fill="#fff"/>
    <path d="M256.8457,403.35254V408.585h.09668a11.05187,11.05187,0,0,1,3.64746-4.46387,9.16937,9.16937,0,0,1,5.47266-1.34375v4.31934a11.55823,11.55823,0,0,0-4.17676.67187,6.589,6.589,0,0,0-2.7832,1.96875,8.115,8.115,0,0,0-1.53613,3.14356,16.95521,16.95521,0,0,0-.48047,4.24805v11.04h-4.08008V403.35254Z" fill="#fff"/>
    <path d="M273.4541,393.89648v20.30469l11.32813-10.84863h5.47265l-9.84082,9.02441,10.56055,15.792H285.79l-8.49512-12.96-3.84082,3.55176V428.169H269.374V393.89648Z" fill="#fff"/>
    <path d="M320.49414,393.89648q1.1045,0,2.376.02442,1.27147.0249,2.5205.14453a19.4686,19.4686,0,0,1,2.32813.35937,5.8919,5.8919,0,0,1,1.84766.71973,8.9418,8.9418,0,0,1,2.85547,2.78418,7.74123,7.74123,0,0,1,1.17675,4.36817,8.3639,8.3639,0,0,1-1.32031,4.72851,7.77956,7.77956,0,0,1-3.76758,2.95117v.09668a7.89181,7.89181,0,0,1,4.84766,2.87988,8.61634,8.61634,0,0,1,1.67969,5.376,10.21758,10.21758,0,0,1-.67188,3.64746,9.14458,9.14458,0,0,1-1.99219,3.14453,9.94714,9.94714,0,0,1-3.26367,2.208,11.21891,11.21891,0,0,1-4.48828.83985H308.0625V393.89648Zm1.248,14.73633q3.88768,0,5.59179-1.36816a4.94743,4.94743,0,0,0,1.70411-4.10352,6.03946,6.03946,0,0,0-.57618-2.87988,4.08482,4.08482,0,0,0-1.584-1.63184,6.22177,6.22177,0,0,0-2.32715-.74414,22.23853,22.23853,0,0,0-2.80859-.168h-9.12012v10.89551Zm2.30371,15.69629a6.55729,6.55729,0,0,0,4.72851-1.63183,5.95432,5.95432,0,0,0,1.70411-4.5127,5.61071,5.61071,0,0,0-.624-2.7832,4.84083,4.84083,0,0,0-1.65625-1.752,6.92977,6.92977,0,0,0-2.376-.91211,14.43652,14.43652,0,0,0-2.78418-.26464h-10.416V424.3291Z" fill="#fff"/>
    <path d="M357.83789,426.585a11.26285,11.26285,0,0,1-7.00781,2.11231,12.75265,12.75265,0,0,1-5.16016-.96,10.15775,10.15775,0,0,1-3.67187-2.68847,11.3995,11.3995,0,0,1-2.23145-4.12793,19.86239,19.86239,0,0,1-.84082-5.23242,14.92948,14.92948,0,0,1,.86426-5.1836,12.40163,12.40163,0,0,1,2.42383-4.08008,11.0049,11.0049,0,0,1,3.69629-2.6875,11.28725,11.28725,0,0,1,4.67968-.96,10.18879,10.18879,0,0,1,5.4961,1.36719,10.8672,10.8672,0,0,1,3.5039,3.48047,13.76076,13.76076,0,0,1,1.82422,4.6084,19.78794,19.78794,0,0,1,.40821,4.75195H343.24609a9.83832,9.83832,0,0,0,.38379,3.0957,6.99231,6.99231,0,0,0,1.39258,2.5918,6.84707,6.84707,0,0,0,2.44824,1.79981,8.42654,8.42654,0,0,0,3.50391.67187,7.065,7.065,0,0,0,4.24805-1.19922,5.80675,5.80675,0,0,0,2.18359-3.64843h4.03223A9.924,9.924,0,0,1,357.83789,426.585Zm-.9834-15.93555a6.99548,6.99548,0,0,0-1.48828-2.23242,7.07218,7.07218,0,0,0-2.208-1.48828,6.99554,6.99554,0,0,0-2.80761-.55176,7.1169,7.1169,0,0,0-2.85645.55176,6.57645,6.57645,0,0,0-2.18359,1.5127,7.21671,7.21671,0,0,0-1.44043,2.23144,8.47368,8.47368,0,0,0-.624,2.71192H357.502A8.371,8.371,0,0,0,356.85449,410.64941Z" fill="#fff"/>
    <path d="M370.126,393.89648V407.001h.0957a5.42506,5.42506,0,0,1,1.34375-1.94434,7.6631,7.6631,0,0,1,1.94434-1.2959,10.13615,10.13615,0,0,1,2.25585-.74414,11.453,11.453,0,0,1,2.28028-.23926,10.76863,10.76863,0,0,1,4.08008.67188,6.718,6.718,0,0,1,2.63964,1.87207,6.961,6.961,0,0,1,1.416,2.85547,15.38605,15.38605,0,0,1,.4082,3.67187V428.169h-4.08007V411.36914a4.93279,4.93279,0,0,0-1.34375-3.64844,4.99885,4.99885,0,0,0-3.69629-1.34375,8.32068,8.32068,0,0,0-3.24024.57617,6.08543,6.08543,0,0,0-2.28027,1.63184,7.03947,7.03947,0,0,0-1.36719,2.47168,10.03747,10.03747,0,0,0-.456,3.09668V428.169H366.0459V393.89648Z" fill="#fff"/>
    <path d="M392.97266,398.88867v-4.99219h4.08007v4.99219Zm4.08007,4.46387V428.169h-4.08007V403.35254Z" fill="#fff"/>
    <path d="M407.22852,403.35254v3.93652h.0957a8.591,8.591,0,0,1,8.06445-4.51172,10.76859,10.76859,0,0,1,4.08008.67188,6.7181,6.7181,0,0,1,2.63965,1.87207,6.96108,6.96108,0,0,1,1.416,2.85547,15.38552,15.38552,0,0,1,.40821,3.67187V428.169h-4.08008V411.36914a4.93275,4.93275,0,0,0-1.34375-3.64844,4.99885,4.99885,0,0,0-3.69629-1.34375,8.32063,8.32063,0,0,0-3.24023.57617A6.08546,6.08546,0,0,0,409.292,408.585a7.03963,7.03963,0,0,0-1.36719,2.47168,10.03777,10.03777,0,0,0-.45605,3.09668V428.169h-4.08008V403.35254Z" fill="#fff"/>
    <path d="M448.17285,428.169v-3.36036h-.0957a6.00122,6.00122,0,0,1-3.168,2.97657,12.10871,12.10871,0,0,1-4.75195.91211,11.19405,11.19405,0,0,1-5.01661-1.05665,10.30087,10.30087,0,0,1-3.55175-2.832,12.31643,12.31643,0,0,1-2.13575-4.12793,16.94318,16.94318,0,0,1-.7207-4.99218,17.51378,17.51378,0,0,1,.69629-4.99121,11.76179,11.76179,0,0,1,2.11231-4.1045,10.20031,10.20031,0,0,1,3.55175-2.78418,11.30149,11.30149,0,0,1,4.96778-1.03125,12.19992,12.19992,0,0,1,2.06445.19141,10.57118,10.57118,0,0,1,2.208.64844,9.45187,9.45187,0,0,1,2.08789,1.20019,6.59853,6.59853,0,0,1,1.65625,1.84766h.0957V393.89648h4.08008V428.169Zm-14.66406-8.80762a9.12074,9.12074,0,0,0,1.39258,2.95117,6.80163,6.80163,0,0,0,2.39941,2.06445,7.275,7.275,0,0,0,3.43164.76758,6.7319,6.7319,0,0,0,5.85645-2.95117,8.95054,8.95054,0,0,0,1.32031-3,14.552,14.552,0,0,0-.02441-6.93652,8.73684,8.73684,0,0,0-1.36817-3,6.99463,6.99463,0,0,0-2.42383-2.08789,7.57025,7.57025,0,0,0-3.59961-.792,7.00407,7.00407,0,0,0-3.5039.81641,6.50294,6.50294,0,0,0-2.30469,2.15918,9.39293,9.39293,0,0,0-1.24805,3.07226,16.335,16.335,0,0,0-.38379,3.55176A12.66746,12.66746,0,0,0,433.50879,419.36133Z" fill="#fff"/>
    <path d="M493.26855,398.74512a10.59525,10.59525,0,0,0-6.21582-1.82422,11.122,11.122,0,0,0-5.25585,1.15234,10.35618,10.35618,0,0,0-3.60059,3.09571,13.361,13.361,0,0,0-2.08789,4.44043,19.84087,19.84087,0,0,0-.67188,5.18359,22.19666,22.19666,0,0,0,.67188,5.54394,13.25391,13.25391,0,0,0,2.08789,4.55957,10.30739,10.30739,0,0,0,3.624,3.09668,11.286,11.286,0,0,0,5.28028,1.15137,10.17122,10.17122,0,0,0,4.00781-.74316,9.071,9.071,0,0,0,3.02441-2.06446,9.49368,9.49368,0,0,0,1.99121-3.14355,13.05511,13.05511,0,0,0,.86426-3.93652h4.56055q-.67383,6.48046-4.46387,10.08007-3.79248,3.60059-10.36816,3.59961a16.528,16.528,0,0,1-6.96-1.36718,13.66013,13.66013,0,0,1-4.94434-3.76856,16.1567,16.1567,0,0,1-2.95215-5.66406,24.155,24.155,0,0,1-.9834-7.00781,22.86461,22.86461,0,0,1,1.05567-7.03223,16.92451,16.92451,0,0,1,3.0957-5.73535,14.42919,14.42919,0,0,1,5.08789-3.86426,16.41269,16.41269,0,0,1,6.98438-1.416,17.63644,17.63644,0,0,1,5.08789.71973,13.7,13.7,0,0,1,4.27246,2.11231,11.87824,11.87824,0,0,1,3.11914,3.47949,12.77007,12.77007,0,0,1,1.63281,4.82422h-4.56055A8.47842,8.47842,0,0,0,493.26855,398.74512Z" fill="#fff"/>
    <path d="M505.96289,410.67285a11.57918,11.57918,0,0,1,2.30371-4.12793,10.85626,10.85626,0,0,1,3.792-2.75976,13.89981,13.89981,0,0,1,10.39258,0,10.91529,10.91529,0,0,1,3.76758,2.75976,11.59394,11.59394,0,0,1,2.30371,4.12793,16.53723,16.53723,0,0,1,.76856,5.11231,16.305,16.305,0,0,1-.76856,5.08789,11.60361,11.60361,0,0,1-2.30371,4.10351,10.63781,10.63781,0,0,1-3.76758,2.73633,14.20707,14.20707,0,0,1-10.39258,0,10.58432,10.58432,0,0,1-3.792-2.73633,11.5887,11.5887,0,0,1-2.30371-4.10351,16.27674,16.27674,0,0,1-.76855-5.08789A16.50838,16.50838,0,0,1,505.96289,410.67285Zm4.15234,9.12012a8.35693,8.35693,0,0,0,1.65528,2.92773,7.15831,7.15831,0,0,0,2.47265,1.79981,7.52332,7.52332,0,0,0,6,0,7.16381,7.16381,0,0,0,2.47168-1.79981,8.3888,8.3888,0,0,0,1.65625-2.92773,13.694,13.694,0,0,0,0-8.01563,8.67006,8.67006,0,0,0-1.65625-2.95214,7.06072,7.06072,0,0,0-2.47168-1.82422,7.52321,7.52321,0,0,0-6,0,7.05539,7.05539,0,0,0-2.47265,1.82422,8.63633,8.63633,0,0,0-1.65528,2.95214,13.67285,13.67285,0,0,0,0,8.01563Z" fill="#fff"/>
    <path d="M537.93066,403.35254v3.93652h.09571a8.591,8.591,0,0,1,8.06445-4.51172,10.76859,10.76859,0,0,1,4.08008.67188,6.7181,6.7181,0,0,1,2.63965,1.87207,6.96108,6.96108,0,0,1,1.416,2.85547,15.38552,15.38552,0,0,1,.40821,3.67187V428.169h-4.08008V411.36914a4.93275,4.93275,0,0,0-1.34375-3.64844,4.99885,4.99885,0,0,0-3.69629-1.34375,8.32068,8.32068,0,0,0-3.24024.57617,6.08543,6.08543,0,0,0-2.28027,1.63184,7.03947,7.03947,0,0,0-1.36719,2.47168,10.03777,10.03777,0,0,0-.45605,3.09668V428.169h-4.08008V403.35254Z" fill="#fff"/>
    <path d="M571.38672,403.35254v3.60058h-4.94336v15.40821a4.40306,4.40306,0,0,0,.12012,1.15137,1.17891,1.17891,0,0,0,.45507.67187,1.99976,1.99976,0,0,0,.93653.3125,13.62135,13.62135,0,0,0,1.55957.07227h1.87207V428.169H568.2666a14.69121,14.69121,0,0,1-2.71191-.21583,3.98334,3.98334,0,0,1-1.82324-.792,3.374,3.374,0,0,1-1.03223-1.63183,9.41381,9.41381,0,0,1-.33594-2.78418v-15.792h-4.22461v-3.60058h4.22461v-7.43945h4.08008v7.43945Z" fill="#fff"/>
    <path d="M593.46582,426.585a11.26285,11.26285,0,0,1-7.00781,2.11231,12.75265,12.75265,0,0,1-5.16016-.96,10.15775,10.15775,0,0,1-3.67187-2.68847,11.3995,11.3995,0,0,1-2.23145-4.12793,19.86239,19.86239,0,0,1-.84082-5.23242,14.92948,14.92948,0,0,1,.86426-5.1836,12.40163,12.40163,0,0,1,2.42383-4.08008,11.0049,11.0049,0,0,1,3.69629-2.6875,11.28725,11.28725,0,0,1,4.67968-.96,10.18879,10.18879,0,0,1,5.4961,1.36719,10.8672,10.8672,0,0,1,3.5039,3.48047,13.76076,13.76076,0,0,1,1.82422,4.6084,19.78794,19.78794,0,0,1,.40821,4.75195H578.874a9.83832,9.83832,0,0,0,.38379,3.0957,6.99231,6.99231,0,0,0,1.39258,2.5918,6.84707,6.84707,0,0,0,2.44824,1.79981,8.42654,8.42654,0,0,0,3.50391.67187,7.065,7.065,0,0,0,4.24805-1.19922,5.80675,5.80675,0,0,0,2.18359-3.64843h4.03223A9.924,9.924,0,0,1,593.46582,426.585Zm-.9834-15.93555a6.99548,6.99548,0,0,0-1.48828-2.23242,7.07218,7.07218,0,0,0-2.208-1.48828,6.99554,6.99554,0,0,0-2.80761-.55176,7.1169,7.1169,0,0,0-2.85645.55176,6.57645,6.57645,0,0,0-2.18359,1.5127,7.21671,7.21671,0,0,0-1.44043,2.23144,8.47368,8.47368,0,0,0-.624,2.71192h14.25586A8.371,8.371,0,0,0,592.48242,410.64941Z" fill="#fff"/>
    <path d="M605.51367,403.35254v3.93652h.09571a8.591,8.591,0,0,1,8.06445-4.51172,10.76863,10.76863,0,0,1,4.08008.67188,6.718,6.718,0,0,1,2.63964,1.87207,6.961,6.961,0,0,1,1.416,2.85547,15.38605,15.38605,0,0,1,.4082,3.67187V428.169H618.1377V411.36914a4.93279,4.93279,0,0,0-1.34375-3.64844,4.99885,4.99885,0,0,0-3.69629-1.34375,8.32068,8.32068,0,0,0-3.24024.57617,6.08543,6.08543,0,0,0-2.28027,1.63184,7.03947,7.03947,0,0,0-1.36719,2.47168,10.03747,10.03747,0,0,0-.45605,3.09668V428.169h-4.08008V403.35254Z" fill="#fff"/>
    <path d="M638.96875,403.35254v3.60058h-4.94336v15.40821a4.40306,4.40306,0,0,0,.12012,1.15137,1.17887,1.17887,0,0,0,.45508.67187,1.99968,1.99968,0,0,0,.93652.3125,13.62135,13.62135,0,0,0,1.55957.07227h1.87207V428.169h-3.12012a14.69121,14.69121,0,0,1-2.71191-.21583,3.98338,3.98338,0,0,1-1.82324-.792,3.374,3.374,0,0,1-1.03223-1.63183,9.41381,9.41381,0,0,1-.33594-2.78418v-15.792H625.7207v-3.60058h4.22461v-7.43945h4.08008v7.43945Z" fill="#fff"/>
    <path d="M663.833,393.89648l10.7998,28.80079,10.84766-28.80079h6.24023V428.169h-4.31933V399.65723h-.09668L676.60059,428.169h-3.8877l-10.7041-28.51172h-.0957V428.169h-4.32032V393.89648Z" fill="#fff"/>
    <path d="M698.05664,410.67285a11.57918,11.57918,0,0,1,2.30371-4.12793,10.85626,10.85626,0,0,1,3.792-2.75976,13.89981,13.89981,0,0,1,10.39258,0,10.91529,10.91529,0,0,1,3.76758,2.75976,11.59394,11.59394,0,0,1,2.30371,4.12793,16.53723,16.53723,0,0,1,.76856,5.11231,16.305,16.305,0,0,1-.76856,5.08789,11.60361,11.60361,0,0,1-2.30371,4.10351,10.63781,10.63781,0,0,1-3.76758,2.73633,14.20707,14.20707,0,0,1-10.39258,0,10.58432,10.58432,0,0,1-3.792-2.73633,11.5887,11.5887,0,0,1-2.30371-4.10351,16.27674,16.27674,0,0,1-.76855-5.08789A16.50838,16.50838,0,0,1,698.05664,410.67285ZM702.209,419.793a8.35693,8.35693,0,0,0,1.65528,2.92773,7.15831,7.15831,0,0,0,2.47265,1.79981,7.52332,7.52332,0,0,0,6,0,7.16381,7.16381,0,0,0,2.47168-1.79981,8.3888,8.3888,0,0,0,1.65625-2.92773,13.694,13.694,0,0,0,0-8.01563,8.67006,8.67006,0,0,0-1.65625-2.95214,7.06072,7.06072,0,0,0-2.47168-1.82422,7.52321,7.52321,0,0,0-6,0,7.05539,7.05539,0,0,0-2.47265,1.82422,8.63633,8.63633,0,0,0-1.65528,2.95214,13.67285,13.67285,0,0,0,0,8.01563Z" fill="#fff"/>
    <path d="M744.2793,428.169v-3.36036h-.09571a6.00115,6.00115,0,0,1-3.168,2.97657,12.10867,12.10867,0,0,1-4.75195.91211,11.194,11.194,0,0,1-5.0166-1.05665,10.30081,10.30081,0,0,1-3.55176-2.832,12.31641,12.31641,0,0,1-2.13574-4.12793,16.94285,16.94285,0,0,1-.7207-4.99218,17.51378,17.51378,0,0,1,.69629-4.99121,11.7616,11.7616,0,0,1,2.1123-4.1045,10.20026,10.20026,0,0,1,3.55176-2.78418,11.30147,11.30147,0,0,1,4.96777-1.03125,12.2,12.2,0,0,1,2.06446.19141,10.57109,10.57109,0,0,1,2.208.64844,9.45187,9.45187,0,0,1,2.08789,1.20019,6.59822,6.59822,0,0,1,1.65625,1.84766h.09571V393.89648h4.08008V428.169Zm-14.66407-8.80762a9.12115,9.12115,0,0,0,1.39258,2.95117,6.80166,6.80166,0,0,0,2.39942,2.06445,7.275,7.275,0,0,0,3.43164.76758,6.73186,6.73186,0,0,0,5.85644-2.95117,8.95054,8.95054,0,0,0,1.32031-3,14.552,14.552,0,0,0-.02441-6.93652,8.73683,8.73683,0,0,0-1.36816-3,6.99472,6.99472,0,0,0-2.42383-2.08789,7.57028,7.57028,0,0,0-3.59961-.792,7.00411,7.00411,0,0,0-3.50391.81641,6.50291,6.50291,0,0,0-2.30468,2.15918,9.39271,9.39271,0,0,0-1.24805,3.07226,16.335,16.335,0,0,0-.38379,3.55176A12.66785,12.66785,0,0,0,729.61523,419.36133Z" fill="#fff"/>
    <path d="M772.21484,426.585a11.26283,11.26283,0,0,1-7.00781,2.11231,12.7526,12.7526,0,0,1-5.16015-.96,10.15771,10.15771,0,0,1-3.67188-2.68847,11.3995,11.3995,0,0,1-2.23145-4.12793,19.8628,19.8628,0,0,1-.84082-5.23242,14.92948,14.92948,0,0,1,.86426-5.1836,12.40163,12.40163,0,0,1,2.42383-4.08008,11.0049,11.0049,0,0,1,3.69629-2.6875,11.28733,11.28733,0,0,1,4.67969-.96,10.18876,10.18876,0,0,1,5.49609,1.36719,10.86723,10.86723,0,0,1,3.50391,3.48047,13.761,13.761,0,0,1,1.82422,4.6084,19.78791,19.78791,0,0,1,.4082,4.75195H757.62305a9.83774,9.83774,0,0,0,.38379,3.0957,6.99214,6.99214,0,0,0,1.39257,2.5918,6.847,6.847,0,0,0,2.44825,1.79981,8.42653,8.42653,0,0,0,3.5039.67187,7.06494,7.06494,0,0,0,4.24805-1.19922,5.80675,5.80675,0,0,0,2.18359-3.64843h4.03223A9.9239,9.9239,0,0,1,772.21484,426.585Zm-.98339-15.93555a6.99551,6.99551,0,0,0-1.48829-2.23242,7.07225,7.07225,0,0,0-2.208-1.48828,6.99559,6.99559,0,0,0-2.80762-.55176,7.1169,7.1169,0,0,0-2.85645.55176,6.57645,6.57645,0,0,0-2.18359,1.5127,7.21671,7.21671,0,0,0-1.44043,2.23144,8.4734,8.4734,0,0,0-.624,2.71192h14.25586A8.37154,8.37154,0,0,0,771.23145,410.64941Z" fill="#fff"/>
    <path d="M784.11816,403.35254V408.585h.09668a11.05187,11.05187,0,0,1,3.64746-4.46387,9.16937,9.16937,0,0,1,5.47266-1.34375v4.31934a11.55823,11.55823,0,0,0-4.17676.67187,6.589,6.589,0,0,0-2.7832,1.96875,8.115,8.115,0,0,0-1.53613,3.14356,16.95521,16.95521,0,0,0-.48047,4.24805v11.04h-4.08008V403.35254Z" fill="#fff"/>
    <path d="M818.38965,428.06445a5.70363,5.70363,0,0,1-2.92774.63282,3.51147,3.51147,0,0,1-2.51953-.88868,3.85855,3.85855,0,0,1-.93652-2.90332,9.75912,9.75912,0,0,1-3.91211,2.90332,13.49469,13.49469,0,0,1-8.01563.50391,7.39948,7.39948,0,0,1-2.61621-1.19922,5.74756,5.74756,0,0,1-1.75195-2.13672,7.18532,7.18532,0,0,1-.64844-3.1914,7.28409,7.28409,0,0,1,.72071-3.45606,6.28437,6.28437,0,0,1,1.8955-2.18457,8.70475,8.70475,0,0,1,2.68848-1.27148q1.51171-.43213,3.0957-.71973,1.68018-.33545,3.19239-.50391a17.712,17.712,0,0,0,2.66406-.48046,4.43505,4.43505,0,0,0,1.82324-.91211,2.22577,2.22577,0,0,0,.67285-1.752,4.07646,4.07646,0,0,0-.50488-2.16015,3.45454,3.45454,0,0,0-1.2959-1.24805,5.28005,5.28005,0,0,0-1.77539-.57617,13.4629,13.4629,0,0,0-1.94433-.14356,8.62911,8.62911,0,0,0-4.32032.98438q-1.727.98438-1.87207,3.71972h-4.0791a8.80066,8.80066,0,0,1,.96-3.88769,7.26846,7.26846,0,0,1,2.30371-2.56836,9.67927,9.67927,0,0,1,3.28809-1.416,17.34953,17.34953,0,0,1,3.96-.43164,23.3599,23.3599,0,0,1,3.33594.23926,8.74634,8.74634,0,0,1,3,.98242,5.76116,5.76116,0,0,1,2.16015,2.083,6.65744,6.65744,0,0,1,.81543,3.49609v12.74122a9.49063,9.49063,0,0,0,.168,2.10742q.16846.66943,1.12793.66992a4.02709,4.02709,0,0,0,1.248-.23926Zm-6.624-12.75976a5.06021,5.06021,0,0,1-2.01562.83984q-1.248.26514-2.61621.43262-1.36816.16845-2.75977.38379a10.14106,10.14106,0,0,0-2.49609.69629,4.53484,4.53484,0,0,0-1.79981,1.36816,3.82433,3.82433,0,0,0-.69628,2.42383,3.31335,3.31335,0,0,0,.4082,1.7041,3.40021,3.40021,0,0,0,1.05566,1.12793,4.43453,4.43453,0,0,0,1.5127.624,8.37784,8.37784,0,0,0,1.82324.19141,9.659,9.659,0,0,0,3.45606-.55176,7.26946,7.26946,0,0,0,2.35253-1.3916,5.49322,5.49322,0,0,0,1.34375-1.82422,4.6102,4.6102,0,0,0,.43164-1.84863Z" fill="#fff"/>
    <path d="M832.78906,403.35254v3.60058H827.8457v15.40821a4.40349,4.40349,0,0,0,.12012,1.15137,1.17892,1.17892,0,0,0,.45508.67187,1.99968,1.99968,0,0,0,.93652.3125,13.62147,13.62147,0,0,0,1.55957.07227h1.87207V428.169H829.669a14.69125,14.69125,0,0,1-2.71192-.21583,3.98338,3.98338,0,0,1-1.82324-.792,3.37414,3.37414,0,0,1-1.03223-1.63183,9.41381,9.41381,0,0,1-.33594-2.78418v-15.792H819.541v-3.60058h4.2246v-7.43945h4.08008v7.43945Z" fill="#fff"/>
    <path d="M837.54,398.88867v-4.99219h4.08008v4.99219Zm4.08008,4.46387V428.169H837.54V403.35254Z" fill="#fff"/>
    <path d="M847.38086,410.67285a11.57918,11.57918,0,0,1,2.30371-4.12793,10.85617,10.85617,0,0,1,3.792-2.75976,13.89981,13.89981,0,0,1,10.39258,0,10.91538,10.91538,0,0,1,3.76758,2.75976,11.59394,11.59394,0,0,1,2.30371,4.12793,16.53723,16.53723,0,0,1,.76855,5.11231,16.305,16.305,0,0,1-.76855,5.08789,11.60361,11.60361,0,0,1-2.30371,4.10351,10.6379,10.6379,0,0,1-3.76758,2.73633,14.20707,14.20707,0,0,1-10.39258,0,10.58423,10.58423,0,0,1-3.792-2.73633,11.5887,11.5887,0,0,1-2.30371-4.10351,16.27645,16.27645,0,0,1-.76856-5.08789A16.50808,16.50808,0,0,1,847.38086,410.67285Zm4.15234,9.12012a8.35693,8.35693,0,0,0,1.65528,2.92773,7.15831,7.15831,0,0,0,2.47265,1.79981,7.52332,7.52332,0,0,0,6,0,7.16381,7.16381,0,0,0,2.47168-1.79981,8.3888,8.3888,0,0,0,1.65625-2.92773,13.694,13.694,0,0,0,0-8.01563,8.67006,8.67006,0,0,0-1.65625-2.95214,7.06072,7.06072,0,0,0-2.47168-1.82422,7.52321,7.52321,0,0,0-6,0,7.05539,7.05539,0,0,0-2.47265,1.82422,8.63633,8.63633,0,0,0-1.65528,2.95214,13.67285,13.67285,0,0,0,0,8.01563Z" fill="#fff"/>
    <path d="M879.34766,403.35254v3.93652h.0957a8.591,8.591,0,0,1,8.06445-4.51172,10.76859,10.76859,0,0,1,4.08008.67188,6.7181,6.7181,0,0,1,2.63965,1.87207,6.96108,6.96108,0,0,1,1.416,2.85547,15.38552,15.38552,0,0,1,.40821,3.67187V428.169h-4.08008V411.36914a4.93275,4.93275,0,0,0-1.34375-3.64844,4.99883,4.99883,0,0,0-3.69629-1.34375,8.32063,8.32063,0,0,0-3.24023.57617,6.08546,6.08546,0,0,0-2.28028,1.63184,7.03945,7.03945,0,0,0-1.36718,2.47168,10.03747,10.03747,0,0,0-.45606,3.09668V428.169h-4.08008V403.35254Z" fill="#fff"/>
    <path d="M908.43555,422.84082V428.169H903.1084v-5.32813Z" fill="#fff"/>
  </g>
</svg>
