<svg width="55" height="82" viewBox="0 0 55 82" fill="none" xmlns="http://www.w3.org/2000/svg">
<path d="M29.0084 0.0376813C23.7705 -0.239338 18.5638 1.01551 13.999 3.65507C9.43424 6.29464 5.70051 10.2095 3.23566 14.9406C0.770815 19.6717 -0.322961 25.0228 0.0825941 30.3666C0.488149 35.7104 2.37622 40.8253 5.52541 45.1114C13.2733 55.2442 19.2381 66.6765 23.1533 78.8975C23.4688 79.8051 24.0516 80.5907 24.8216 81.1462C25.5917 81.7018 26.5111 82 27.4537 82C28.3963 82 29.3157 81.7018 30.0857 81.1462C30.8558 80.5907 31.4386 79.8051 31.7541 78.8975C35.1894 69.0576 39.891 57.1165 48.8805 45.8033C52.8223 40.8384 54.9815 34.6438 54.9988 28.2504C55.1367 13.9647 43.0254 0.844857 29.0084 0.0376813ZM27.4788 43.2921C24.5476 43.292 21.6823 42.403 19.246 40.7374C16.8097 39.0719 14.9119 36.705 13.7931 33.9363C12.6742 31.1677 12.3847 28.122 12.9611 25.1851C13.5375 22.2482 14.954 19.5521 17.0311 17.4386C19.1081 15.325 21.7523 13.8889 24.6287 13.3123C27.5051 12.7358 30.4842 13.0446 33.1887 14.1996C35.8932 15.3547 38.2014 17.3041 39.8208 19.8009C41.4403 22.2976 42.2981 25.2294 42.2857 28.2248C42.2724 32.2278 40.7061 36.062 37.9304 38.8866C35.1546 41.7112 31.396 43.2955 27.4788 43.2921Z" fill="#FF0009"/>
</svg>
