<?xml version="1.0" encoding="utf-8"?>
<!-- Generator: Adobe Illustrator 21.0.0, SVG Export Plug-In . SVG Version: 6.00 Build 0)  -->
<svg version="1.1" id="Livello_1" xmlns="http://www.w3.org/2000/svg" xmlns:xlink="http://www.w3.org/1999/xlink" x="0px" y="0px"
	 width="847px" height="484.6px" viewBox="0 0 847 484.6" style="enable-background:new 0 0 847 484.6;" xml:space="preserve">
<style type="text/css">
	.st0{font-family:'CrimsonText-Bold';}
	.st1{font-size:18px;}
	.st2{fill:#007CA8;}
	.st3{fill:none;stroke:#000000;stroke-width:0.25;stroke-miterlimit:10;}
</style>
<g>
	<text transform="matrix(1 0 0 1 0.1123 50.8896)" class="st0 st1">Animals</text>
	<text transform="matrix(1 0 0 1 4.882812e-04 266.7798)" class="st0 st1">Work</text>
	<rect x="77.2" y="71.3" class="st2" width="28.7" height="46.1"/>
	<rect x="166.5" y="127.1" class="st2" width="34.5" height="25.9"/>
	<rect x="258.9" y="163.3" class="st2" width="30.7" height="20.4"/>
	<rect x="0.5" y="399.3" class="st2" width="23.2" height="11.4"/>
	<rect x="187.4" y="400" class="st2" width="20.8" height="10.6"/>
	<rect x="321.8" y="345.6" class="st2" width="22.1" height="31.4"/>
	<rect x="0.1" y="71.3" class="st3" width="105.8" height="123.5"/>
	<rect x="129.1" y="71.3" class="st3" width="106.5" height="123.5"/>
	<rect x="258.9" y="71.3" class="st3" width="106.5" height="123.5"/>
	<rect x="0.5" y="287.2" class="st3" width="105.8" height="123.5"/>
	<rect x="129.5" y="287.2" class="st3" width="106.5" height="123.5"/>
	<rect x="259.2" y="287.2" class="st3" width="106.5" height="123.5"/>
	<text transform="matrix(1 0 0 1 481.5518 266.7788)" class="st0 st1">Industries</text>
	<rect x="566.1" y="399.3" class="st2" width="7.7" height="11.4"/>
	<rect x="797.8" y="287.2" class="st2" width="49" height="30.2"/>
	<rect x="481.6" y="287.2" class="st3" width="105.8" height="123.5"/>
	<rect x="610.6" y="371.1" class="st2" width="28.8" height="26.8"/>
	<rect x="740.3" y="287.2" class="st3" width="106.5" height="123.5"/>
	<rect x="610.6" y="287.2" class="st3" width="106.5" height="123.5"/>
	<text transform="matrix(1 0 0 1 481.918 50.8906)" class="st0 st1">Visualizations</text>
	<rect x="481.9" y="119.6" class="st2" width="35.1" height="36.4"/>
	<rect x="642.1" y="155.2" class="st2" width="23" height="26.8"/>
	<rect x="773.2" y="163.3" class="st2" width="27.5" height="20.4"/>
	<rect x="481.9" y="71.3" class="st3" width="105.8" height="123.5"/>
	<rect x="610.9" y="71.3" class="st3" width="106.5" height="123.5"/>
	<rect x="740.3" y="71.3" class="st3" width="106.5" height="123.5"/>
</g>
</svg>
