<svg xmlns="http://www.w3.org/2000/svg" width="1000" height="400" style="background: rgb(255, 255, 255);"><rect width="800" height="400" x="0" y="0" fill="#FFFFFF" id="backgorund"/><g id="viz"><clipPath id="serieClipPath"><rect x="-50" y="-10" width="800" height="400"/></clipPath><g transform="translate(50,10)" clip-path="url(#serieClipPath)"><g id="xAxis" transform="translate(0,370)" fill="none" font-size="10" font-family="sans-serif" text-anchor="middle"><path class="domain" stroke="currentColor" d="M0.5,0.5H735.5"/><g class="tick" opacity="1" transform="translate(0.5,0)"><line stroke="currentColor" y2="6"/><text fill="currentColor" y="9" dy="0.71em">1,975</text></g><g class="tick" opacity="1" transform="translate(82.16666666666666,0)"><line stroke="currentColor" y2="6"/><text fill="currentColor" y="9" dy="0.71em">1,980</text></g><g class="tick" opacity="1" transform="translate(163.83333333333331,0)"><line stroke="currentColor" y2="6"/><text fill="currentColor" y="9" dy="0.71em">1,985</text></g><g class="tick" opacity="1" transform="translate(245.5,0)"><line stroke="currentColor" y2="6"/><text fill="currentColor" y="9" dy="0.71em">1,990</text></g><g class="tick" opacity="1" transform="translate(327.16666666666663,0)"><line stroke="currentColor" y2="6"/><text fill="currentColor" y="9" dy="0.71em">1,995</text></g><g class="tick" opacity="1" transform="translate(408.83333333333337,0)"><line stroke="currentColor" y2="6"/><text fill="currentColor" y="9" dy="0.71em">2,000</text></g><g class="tick" opacity="1" transform="translate(490.5,0)"><line stroke="currentColor" y2="6"/><text fill="currentColor" y="9" dy="0.71em">2,005</text></g><g class="tick" opacity="1" transform="translate(572.1666666666666,0)"><line stroke="currentColor" y2="6"/><text fill="currentColor" y="9" dy="0.71em">2,010</text></g><g class="tick" opacity="1" transform="translate(653.8333333333333,0)"><line stroke="currentColor" y2="6"/><text fill="currentColor" y="9" dy="0.71em">2,015</text></g><g class="tick" opacity="1" transform="translate(735.5,0)"><line stroke="currentColor" y2="6"/><text fill="currentColor" y="9" dy="0.71em">2,020</text></g></g><g id="yAxis" transform="translate(0,0)" fill="none" font-size="10" font-family="sans-serif" text-anchor="end"><path class="domain" stroke="currentColor" d="M0.5,370.5V0.5"/><g class="tick" opacity="1" transform="translate(0,370.5)"><line stroke="currentColor" x2="-6"/><text fill="currentColor" x="-9" dy="0.32em">0</text></g><g class="tick" opacity="1" transform="translate(0,339.66666666666663)"><line stroke="currentColor" x2="-6"/><text fill="currentColor" x="-9" dy="0.32em">5</text></g><g class="tick" opacity="1" transform="translate(0,308.83333333333337)"><line stroke="currentColor" x2="-6"/><text fill="currentColor" x="-9" dy="0.32em">10</text></g><g class="tick" opacity="1" transform="translate(0,278)"><line stroke="currentColor" x2="-6"/><text fill="currentColor" x="-9" dy="0.32em">15</text></g><g class="tick" opacity="1" transform="translate(0,247.16666666666669)"><line stroke="currentColor" x2="-6"/><text fill="currentColor" x="-9" dy="0.32em">20</text></g><g class="tick" opacity="1" transform="translate(0,216.33333333333331)"><line stroke="currentColor" x2="-6"/><text fill="currentColor" x="-9" dy="0.32em">25</text></g><g class="tick" opacity="1" transform="translate(0,185.5)"><line stroke="currentColor" x2="-6"/><text fill="currentColor" x="-9" dy="0.32em">30</text></g><g class="tick" opacity="1" transform="translate(0,154.66666666666666)"><line stroke="currentColor" x2="-6"/><text fill="currentColor" x="-9" dy="0.32em">35</text></g><g class="tick" opacity="1" transform="translate(0,123.83333333333334)"><line stroke="currentColor" x2="-6"/><text fill="currentColor" x="-9" dy="0.32em">40</text></g><g class="tick" opacity="1" transform="translate(0,93)"><line stroke="currentColor" x2="-6"/><text fill="currentColor" x="-9" dy="0.32em">45</text></g><g class="tick" opacity="1" transform="translate(0,62.16666666666665)"><line stroke="currentColor" x2="-6"/><text fill="currentColor" x="-9" dy="0.32em">50</text></g><g class="tick" opacity="1" transform="translate(0,31.333333333333346)"><line stroke="currentColor" x2="-6"/><text fill="currentColor" x="-9" dy="0.32em">55</text></g><g class="tick" opacity="1" transform="translate(0,0.5)"><line stroke="currentColor" x2="-6"/><text fill="currentColor" x="-9" dy="0.32em">60</text></g></g><g id="viz"><g id="republican"><path d="M16.333333333333336,71.9831372549019L81.66666666666666,53.59679738562084L147,1.8064705882351217L212.33333333333331,39.079738562091606L277.6666666666667,138.4102287581699L343,115.4496732026145L408.33333333333337,64.28568627450984L473.6666666666667,47.977875816993475L539,80.49918300653599L604.3333333333333,68.45967320261438L669.6666666666666,78.22298076923076" stroke="#2ca02c" fill="none"/><text font-family="sans-serif" font-size="10" class="labels" x="147" y="1.8064705882351217" dx="0" dy="-4" text-anchor="middle">republican</text></g><g id="other"><path d="M16.333333333333336,366.9285367762128L81.66666666666666,358.6868312757202L147,368.7072322775264L212.33333333333331,367.8296536796537L277.6666666666667,344.22283801874164L343,356.85146976090016L408.33333333333337,363.0779166666667L473.6666666666667,366.63328682170544L539,367.65982170542634L604.3333333333333,364.7289015151515L669.6666666666666,360.15296849087895" stroke="#ff7f0e" fill="none"/><text font-family="sans-serif" font-size="10" class="labels" x="277.6666666666667" y="344.22283801874164" dx="0" dy="-4" text-anchor="middle">other</text></g><g id="democrat"><path d="M16.333333333333336,64.76571895424826L81.66666666666666,123.88228758169933L147,127.13006535947719L212.33333333333331,91.83254901960778L277.6666666666667,110.91173202614375L343,74.55741830065347L408.33333333333337,87.0782666666666L473.6666666666667,89.55330065359469L539,53.86281045751634L604.3333333333333,68.65103333333336L669.6666666666666,100.44551282051279" stroke="#1f77b4" fill="none"/><text font-family="sans-serif" font-size="10" class="labels" x="539" y="53.86281045751634" dx="0" dy="-4" text-anchor="middle">democrat</text></g></g><text y="-4" font-family="sans-serif" font-size="12" font-weight="bold" class="title"/><text dy="366" x="735" class="axisTitle" font-family="sans-serif" font-size="12" font-style="italic" text-anchor="end">Year</text><text y="0" x="4" dominant-baseline="hanging" class="axisTitle" font-family="sans-serif" font-size="12" font-style="italic" text-anchor="start">Votes (%) (mean)</text></g></g><g id="legend" transform="translate(800,10)"><g transform="translate(5,0)"><g class="legendColor" transform="translate(0,0)"><g class="legendCells" transform="translate(0,16)"><g class="cell" transform="translate(0, 0)"><rect class="swatch" height="15" width="15" style="fill: rgb(31, 119, 180);"/><text class="label" transform="translate( 20, 12.5)" font-family="&quot;Arial&quot;, sans-serif" font-size="10px"><tspan x="0" dy="0em">democrat</tspan></text></g><g class="cell" transform="translate(0, 21)"><rect class="swatch" height="15" width="15" style="fill: rgb(255, 127, 14);"/><text class="label" transform="translate( 20, 12.5)" font-family="&quot;Arial&quot;, sans-serif" font-size="10px"><tspan x="0" dy="0em">other</tspan></text></g><g class="cell" transform="translate(0, 42)"><rect class="swatch" height="15" width="15" style="fill: rgb(44, 160, 44);"/><text class="label" transform="translate( 20, 12.5)" font-family="&quot;Arial&quot;, sans-serif" font-size="10px"><tspan x="0" dy="0em">republican</tspan></text></g></g><text class="legendTitle" font-family="&quot;Arial&quot;, sans-serif" font-size="12px" font-weight="bold"><tspan x="0" dy="0em">Party</tspan></text></g></g></g></svg>