<?xml version="1.0" encoding="utf-8"?>
<!-- Generator: Adobe Illustrator 24.0.1, SVG Export Plug-In . SVG Version: 6.00 Build 0)  -->
<svg version="1.1" id="Livello_1" xmlns="http://www.w3.org/2000/svg" xmlns:xlink="http://www.w3.org/1999/xlink" x="0px" y="0px"
	 viewBox="0 0 432.6 349.3" style="enable-background:new 0 0 432.6 349.3;" xml:space="preserve">
<style type="text/css">
	.st0{opacity:0.2;fill:none;stroke:#FFFFFF;stroke-miterlimit:10;enable-background:new    ;}
	.st1{fill:#1C1C1C;}
	.st2{opacity:0.2;}
	.st3{fill:#FFFFFF;}
</style>
<polyline class="st0" points="0,1.7 432.6,349.3 0,349.3 432.6,1.7 "/>
<rect x="108.2" y="151.4" class="st1" width="219.2" height="49.2"/>
<g>
	<g class="st2">
		<path class="st3" d="M169.2,169.4c-0.6,0-1.1-0.1-1.7-0.2s-1.1-0.4-1.7-0.7c-0.6-0.3-1-0.8-1.4-1.3s-0.7-1.2-1-2
			c-0.2-0.8-0.4-1.8-0.4-2.9c0-1.1,0.1-2.1,0.4-2.9c0.2-0.8,0.6-1.5,1-2c0.4-0.6,0.9-1,1.4-1.3c0.5-0.3,1.1-0.6,1.7-0.7
			c0.6-0.1,1.2-0.2,1.7-0.2c0.6,0,1.2,0.1,1.7,0.2c0.5,0.2,1,0.4,1.5,0.7c0.4,0.3,0.8,0.7,1.2,1.1c0.3,0.4,0.6,1,0.8,1.5l-2.9,1.4
			c-0.1-0.3-0.2-0.5-0.3-0.8c-0.1-0.3-0.3-0.6-0.4-0.8c-0.2-0.3-0.4-0.5-0.6-0.7c-0.2-0.2-0.5-0.2-0.9-0.2s-0.7,0.1-1,0.3
			c-0.3,0.2-0.6,0.4-0.9,0.8c-0.3,0.4-0.5,0.9-0.6,1.5s-0.2,1.3-0.2,2.2s0.1,1.6,0.2,2.2c0.2,0.6,0.4,1.1,0.6,1.5
			c0.3,0.4,0.6,0.7,0.9,0.8c0.3,0.2,0.7,0.3,1,0.3s0.6-0.1,0.9-0.3c0.3-0.2,0.5-0.4,0.6-0.6c0.2-0.3,0.3-0.5,0.5-0.8
			c0.1-0.3,0.2-0.6,0.3-0.8l2.9,1.4c-0.2,0.6-0.5,1.1-0.8,1.5s-0.7,0.8-1.2,1.1c-0.4,0.3-0.9,0.5-1.5,0.7
			C170.4,169.4,169.8,169.4,169.2,169.4z"/>
		<path class="st3" d="M176.5,169.2v-14h3.3v11.6h4.8v2.4H176.5z"/>
		<path class="st3" d="M187.3,169.2v-2.4h2.8v-9.2h-2.8v-2.4h8.9v2.4h-2.8v9.2h2.8v2.4H187.3z"/>
		<path class="st3" d="M205.2,169.4c-0.6,0-1.1-0.1-1.7-0.2s-1.1-0.4-1.7-0.7c-0.6-0.3-1-0.8-1.4-1.3s-0.7-1.2-1-2
			c-0.2-0.8-0.4-1.8-0.4-2.9c0-1.1,0.1-2.1,0.4-2.9c0.2-0.8,0.6-1.5,1-2c0.4-0.6,0.9-1,1.4-1.3c0.5-0.3,1.1-0.6,1.7-0.7
			c0.6-0.1,1.2-0.2,1.7-0.2c0.6,0,1.2,0.1,1.7,0.2c0.5,0.2,1,0.4,1.5,0.7c0.4,0.3,0.8,0.7,1.2,1.1c0.3,0.4,0.6,1,0.8,1.5l-2.9,1.4
			c-0.1-0.3-0.2-0.5-0.3-0.8c-0.1-0.3-0.3-0.6-0.4-0.8c-0.2-0.3-0.4-0.5-0.6-0.7c-0.2-0.2-0.5-0.2-0.9-0.2s-0.7,0.1-1,0.3
			c-0.3,0.2-0.6,0.4-0.9,0.8c-0.3,0.4-0.5,0.9-0.6,1.5s-0.2,1.3-0.2,2.2s0.1,1.6,0.2,2.2c0.2,0.6,0.4,1.1,0.6,1.5
			c0.3,0.4,0.6,0.7,0.9,0.8c0.3,0.2,0.7,0.3,1,0.3s0.6-0.1,0.9-0.3c0.3-0.2,0.5-0.4,0.6-0.6c0.2-0.3,0.3-0.5,0.5-0.8
			c0.1-0.3,0.2-0.6,0.3-0.8l2.9,1.4c-0.2,0.6-0.5,1.1-0.8,1.5s-0.7,0.8-1.2,1.1c-0.4,0.3-0.9,0.5-1.5,0.7
			C206.4,169.4,205.8,169.4,205.2,169.4z"/>
		<path class="st3" d="M212.6,169.2v-14h3.3v5.6h0.7l3.4-5.6h3.6l-4.8,7.4v-1.2l4.9,7.8h-3.6l-3.5-6h-0.7v6H212.6z"/>
		<path class="st3" d="M240.8,169.4c-0.6,0-1.2-0.1-1.8-0.2c-0.6-0.1-1.1-0.4-1.6-0.8c-0.5-0.4-0.9-0.8-1.3-1.4
			c-0.4-0.6-0.7-1.2-0.9-2c-0.2-0.8-0.3-1.7-0.3-2.7s0.1-1.9,0.3-2.7c0.2-0.8,0.5-1.5,0.9-2c0.4-0.6,0.8-1,1.3-1.4s1-0.6,1.6-0.8
			c0.6-0.2,1.2-0.2,1.8-0.2c0.6,0,1.2,0.1,1.8,0.2c0.6,0.1,1.1,0.4,1.6,0.8c0.5,0.4,1,0.8,1.3,1.4c0.4,0.6,0.7,1.2,0.9,2
			c0.2,0.8,0.3,1.7,0.3,2.7s-0.1,1.9-0.3,2.7c-0.2,0.8-0.5,1.5-0.9,2s-0.8,1-1.3,1.4s-1,0.6-1.6,0.8
			C242,169.4,241.4,169.4,240.8,169.4z M240.8,167c0.3,0,0.7-0.1,1-0.3c0.3-0.2,0.6-0.5,0.8-0.8c0.2-0.4,0.4-0.9,0.6-1.5
			c0.1-0.6,0.2-1.3,0.2-2.2c0-0.8-0.1-1.6-0.2-2.2c-0.1-0.6-0.3-1.1-0.6-1.5c-0.2-0.4-0.5-0.7-0.8-0.8c-0.3-0.2-0.6-0.3-1-0.3
			c-0.3,0-0.7,0.1-1,0.3c-0.3,0.2-0.6,0.5-0.8,0.8c-0.2,0.4-0.4,0.9-0.6,1.5c-0.1,0.6-0.2,1.3-0.2,2.2c0,0.8,0.1,1.6,0.2,2.2
			s0.3,1.1,0.6,1.5c0.2,0.4,0.5,0.7,0.8,0.8S240.4,167,240.8,167z"/>
		<path class="st3" d="M248.3,169.2v-14h4.9l3.5,11.3h-0.6v-11.3h3.3v14h-4.2l-3.7-11.2h0.1v11.2H248.3z"/>
		<path class="st3" d="M155.6,193.2v-11.6h-3.7v-2.4h10.7v2.4h-3.7v11.6H155.6z"/>
		<path class="st3" d="M164.9,193.2v-14h3.3v5.5h4.2v-5.5h3.3v14h-3.3v-6.1h-4.2v6.1H164.9z"/>
		<path class="st3" d="M178.7,193.2v-14h9.5v2.4H182v3.5h5.5v2.4H182v3.3h6.2v2.4L178.7,193.2L178.7,193.2z"/>
		<path class="st3" d="M201.8,193.2v-2.4h2.8v-9.2h-2.8v-2.4h8.9v2.4h-2.8v9.2h2.8v2.4H201.8z"/>
		<path class="st3" d="M213.6,193.2l1.1-14h3l-0.8,14H213.6z M219.9,191.4l-2.8-9.4v-2.7h1.8l2.2,7.9l0.7,4.2H219.9z M220.7,191.4
			l0.8-4.2l2.1-7.9h1.8v2.7l-2.8,9.4H220.7z M225.6,193.2l-0.8-14h3l1.1,14H225.6z"/>
		<path class="st3" d="M242.1,193.2h-3.3l-0.6-3h-3.7l-0.6,3h-3.3l3.2-14h5.2L242.1,193.2z M236.2,181.6l-1.3,6.2h2.8l-1.3-6.2
			H236.2z"/>
		<path class="st3" d="M249.6,193.4c-0.6,0-1.1-0.1-1.7-0.2c-0.6-0.2-1.1-0.4-1.6-0.7c-0.5-0.3-1-0.8-1.4-1.3s-0.7-1.2-1-2
			c-0.2-0.8-0.3-1.7-0.3-2.8c0-1.1,0.1-2,0.3-2.8c0.2-0.8,0.5-1.5,0.9-2s0.9-1,1.4-1.3s1-0.6,1.6-0.8c0.6-0.2,1.1-0.2,1.7-0.2
			c0.7,0,1.3,0.1,1.9,0.2c0.6,0.2,1.1,0.4,1.5,0.7c0.4,0.3,0.8,0.7,1.1,1.1s0.5,0.9,0.6,1.5l-3,1.2c0-0.3-0.1-0.6-0.2-0.8
			s-0.3-0.5-0.4-0.7s-0.4-0.4-0.6-0.5s-0.5-0.2-0.8-0.2s-0.5,0.1-0.8,0.2s-0.5,0.3-0.7,0.5s-0.4,0.5-0.6,0.9s-0.3,0.8-0.4,1.3
			s-0.1,1.1-0.1,1.8c0,0.9,0.1,1.6,0.2,2.2c0.2,0.6,0.4,1.1,0.6,1.5c0.3,0.4,0.6,0.6,0.9,0.8c0.3,0.2,0.7,0.3,1,0.3
			c0.4,0,0.7-0.1,0.9-0.2c0.3-0.1,0.5-0.3,0.7-0.5s0.3-0.5,0.4-0.8s0.1-0.7,0.1-1.2h-2.3v-2.5h5.5v1.5c0,0.8-0.1,1.6-0.3,2.2
			s-0.4,1.2-0.8,1.7c-0.3,0.5-0.7,0.9-1.1,1.2c-0.4,0.3-0.9,0.6-1.4,0.7C250.7,193.4,250.1,193.4,249.6,193.4z"/>
		<path class="st3" d="M257.7,193.2v-14h9.5v2.4H261v3.5h5.5v2.4H261v3.3h6.2v2.4L257.7,193.2L257.7,193.2z"/>
		<path class="st3" d="M275.2,193.4c-0.9,0-1.8-0.1-2.5-0.4s-1.4-0.7-2-1.2s-0.9-1.1-1.1-1.8l3.1-1.3c0.1,0.4,0.3,0.7,0.5,1
			s0.5,0.6,0.9,0.8c0.4,0.2,0.8,0.3,1.3,0.3c0.4,0,0.8-0.1,1-0.2c0.3-0.1,0.5-0.3,0.7-0.5c0.1-0.2,0.2-0.5,0.2-0.8
			c0-0.2-0.1-0.5-0.2-0.7c-0.2-0.2-0.4-0.4-0.6-0.6c-0.3-0.2-0.6-0.3-0.9-0.5c-0.4-0.1-0.7-0.3-1.2-0.4c-0.6-0.2-1.2-0.4-1.7-0.6
			s-1-0.5-1.4-0.9s-0.7-0.7-0.9-1.2s-0.3-1-0.3-1.7c0-0.5,0.1-1,0.3-1.4c0.2-0.4,0.5-0.8,0.8-1.1s0.8-0.6,1.2-0.8s0.9-0.3,1.5-0.4
			s1-0.1,1.6-0.1c0.9,0,1.7,0.1,2.4,0.4s1.3,0.6,1.8,1s0.8,0.9,1,1.5l-3.1,1.3c-0.1-0.3-0.3-0.7-0.5-0.9c-0.2-0.3-0.5-0.5-0.8-0.6
			s-0.6-0.2-1-0.2c-0.3,0-0.5,0-0.7,0.1s-0.4,0.1-0.6,0.2s-0.3,0.2-0.4,0.4c-0.1,0.2-0.1,0.3-0.1,0.6c0,0.3,0.1,0.5,0.3,0.8
			c0.2,0.2,0.5,0.4,0.8,0.6s0.8,0.3,1.3,0.5c0.4,0.1,0.9,0.3,1.3,0.5c0.5,0.2,0.9,0.4,1.4,0.6s0.8,0.5,1.2,0.8
			c0.4,0.3,0.6,0.7,0.8,1.1c0.2,0.4,0.3,0.9,0.3,1.5s-0.1,1.2-0.3,1.6c-0.2,0.5-0.5,0.9-0.9,1.2s-0.8,0.6-1.3,0.8
			c-0.5,0.2-1,0.4-1.5,0.4C276.3,193.4,275.8,193.4,275.2,193.4z"/>
	</g>
</g>
</svg>
