<svg id="Layer_1" data-name="Layer 1" xmlns="http://www.w3.org/2000/svg" viewBox="0 0 46 46"><defs><style>.cls-1{fill:#9437ff;}.cls-2{fill:#fff;}</style></defs><circle class="cls-1" cx="23" cy="23" r="23"/><path class="cls-2" d="M21.4,33.68a1,1,0,0,1-.72-.3,1,1,0,0,1-.28-.7V25.36H13.28a1,1,0,0,1-.74-.28,1,1,0,0,1-.3-.72V21.44a1,1,0,0,1,1-1H20.4V13.32a1,1,0,0,1,1-1h3.28a1,1,0,0,1,.7.28,1,1,0,0,1,.3.72V20.4h7.08a1,1,0,0,1,.72.3,1,1,0,0,1,.28.74v2.92a1,1,0,0,1-1,1H25.68v7.32a1,1,0,0,1-1,1Z"/></svg>