<svg id="Capa_2" data-name="Capa 2" xmlns="http://www.w3.org/2000/svg" viewBox="0 0 694.44062 781.16932">
  <rect width="694.44062" height="781.16932" opacity="0"/>
  <path d="M694.44088,92.65234c-34.70019,0-52.86816-20.40918-67.46582-36.8081-14.00781-15.73486-25.07128-28.16358-48.21386-28.16358-23.16016,0-34.22364,12.42872-48.23145,28.16358-14.61035,16.40283-32.78515,36.8081-67.48242,36.8081-34.71,0-52.88672-20.40625-67.49121-36.80273-14.01953-15.73926-25.09082-28.16895-48.25781-28.16895-23.16016,0-34.22364,12.42872-48.23145,28.16358-14.61035,16.40283-32.78515,36.8081-67.48242,36.8081-34.7168,0-52.1416-19.55078-67.51465-36.79931-14.02051-15.7417-25.09277-28.17237-48.27734-28.17237s-34.25684,12.43067-48.27539,28.169C52.1401,73.10254,34.71628,92.65234.00046,92.65234v-8c31.12988,0,46.58886-17.3457,61.54-34.1206,14.13282-15.86719,27.48047-30.85108,54.252-30.85108,26.77246,0,40.11914,14.98389,54.249,30.84766,14.95215,16.77734,30.41211,34.124,61.543,34.124,31.11035,0,46.56055-17.34668,61.50195-34.12158,14.126-15.86767,27.46289-30.8501,54.21192-30.8501,26.7539,0,40.09961,14.98243,54.22949,30.84473,14.94531,16.7793,30.39648,34.12695,61.51953,34.12695,31.11035,0,46.56055-17.34668,61.50195-34.12158,14.126-15.86767,27.46289-30.8501,54.21192-30.8501,26.73144,0,40.06836,14.98243,54.18847,30.84424,14.93555,16.77832,30.37989,34.12744,61.49121,34.12744Z" fill="#fff"/>
  <path d="M694.44088,259.86182c-34.70019,0-52.86816-20.40967-67.46582-36.8086-14.00781-15.73486-25.07226-28.16357-48.21386-28.16357-23.15918,0-34.22364,12.42871-48.23145,28.16357-14.61035,16.40381-32.78515,36.8086-67.48242,36.8086-34.71,0-52.88574-20.40625-67.49121-36.80323-14.01953-15.73925-25.09082-28.16894-48.25781-28.16894-23.15918,0-34.22364,12.42871-48.23145,28.16357-14.61035,16.40381-32.78515,36.8086-67.48242,36.8086-34.7168,0-52.14063-19.5503-67.51367-36.79932-14.02149-15.74219-25.09375-28.17285-48.27832-28.17285s-34.25684,12.43066-48.27539,28.16894C52.13913,240.312,34.71628,259.86182.00046,259.86182v-8c31.12988,0,46.58886-17.34571,61.53906-34.12061,14.13379-15.86767,27.48144-30.85156,54.25293-30.85156,26.77246,0,40.11914,14.98389,54.249,30.84765,14.95215,16.77784,30.41211,34.12452,61.543,34.12452,31.10937,0,46.55957-17.3462,61.50195-34.12159,14.126-15.86816,27.46387-30.85058,54.21192-30.85058,26.7539,0,40.09961,14.98242,54.22949,30.84473,14.94531,16.77978,30.39746,34.12744,61.51953,34.12744,31.10938,0,46.55957-17.3462,61.50195-34.12159,14.126-15.86816,27.46387-30.85058,54.21192-30.85058,26.73047,0,40.06836,14.98242,54.18847,30.84424,14.93653,16.77832,30.37989,34.12793,61.49121,34.12793Z" fill="#fff"/>
  <path d="M694.44088,427.0708c-34.69921,0-52.86816-20.40918-67.46582-36.8081-14.00781-15.73536-25.07226-28.16407-48.21386-28.16407-23.15918,0-34.22364,12.42871-48.23145,28.16407-14.61133,16.4038-32.78613,36.8081-67.48242,36.8081-34.71,0-52.88574-20.40625-67.49121-36.80322-14.02051-15.74024-25.0918-28.16895-48.25781-28.16895-23.15918,0-34.22364,12.42871-48.23145,28.16407-14.61133,16.4038-32.78613,36.8081-67.48242,36.8081-34.7168,0-52.14063-19.55029-67.51367-36.79932-14.02149-15.74218-25.09375-28.17285-48.27832-28.17285-23.1836,0-34.25684,12.43067-48.27637,28.16895C52.13913,407.521,34.71628,427.0708.00046,427.0708v-8c31.12988,0,46.58886-17.3457,61.53906-34.1206,14.13476-15.86768,27.48242-30.85157,54.25293-30.85157,26.77148,0,40.11816,14.98389,54.249,30.84766,14.95215,16.77783,30.41211,34.12451,61.543,34.12451,31.10937,0,46.55957-17.3457,61.501-34.12012,14.127-15.86963,27.46484-30.852,54.21289-30.852,26.75293,0,40.09863,14.98194,54.22754,30.84326,14.94726,16.78125,30.39941,34.12891,61.52148,34.12891,31.10938,0,46.55957-17.3457,61.501-34.12012,14.12695-15.86963,27.46484-30.852,54.21289-30.852,26.73047,0,40.06836,14.98242,54.18847,30.84473,14.93653,16.77832,30.38086,34.12744,61.49121,34.12744Z" fill="#fff"/>
  <path d="M694.44088,594.2793c-34.70117,0-52.86914-20.40918-67.46679-36.8086-14.00684-15.73437-25.07129-28.16308-48.21289-28.16308-23.15918,0-34.22364,12.42871-48.23145,28.16406-14.6084,16.40137-32.78418,36.80762-67.48242,36.80762-34.71,0-52.88574-20.40625-67.49121-36.80274-14.02051-15.73926-25.0918-28.16894-48.25781-28.16894-23.15918,0-34.22364,12.42871-48.23145,28.16406-14.6084,16.40137-32.78418,36.80762-67.48242,36.80762-34.7168,0-52.14063-19.54981-67.51367-36.79785-14.02149-15.74317-25.09375-28.17383-48.27832-28.17383-23.1836,0-34.25684,12.43066-48.27539,28.16894C52.13913,574.73047,34.71628,594.2793.00046,594.2793v-8c31.12988,0,46.58886-17.34571,61.53906-34.11914C75.67428,536.292,89.021,521.30762,115.79245,521.30762c26.77246,0,40.11816,14.98437,54.249,30.84863,14.95215,16.77734,30.41211,34.12305,61.543,34.12305,31.11133,0,46.56152-17.34668,61.50391-34.12305,14.124-15.86621,27.46191-30.84863,54.21-30.84863,26.7539,0,40.09961,14.98242,54.22851,30.84472,14.94629,16.7793,30.39844,34.127,61.52051,34.127,31.11133,0,46.56152-17.34668,61.50391-34.12305,14.124-15.86621,27.46191-30.84863,54.21-30.84863,26.73047,0,40.06836,14.98242,54.18847,30.84472,14.93555,16.77735,30.37891,34.127,61.49121,34.127Z" fill="#fff"/>
  <path d="M694.44088,761.48828c-34.70117,0-52.86914-20.40918-67.46679-36.80859-14.00684-15.73438-25.07031-28.16309-48.21289-28.16309-23.16016,0-34.22364,12.42871-48.23145,28.16309-14.6084,16.40234-32.78418,36.80859-67.48242,36.80859-34.71,0-52.88574-20.40625-67.49121-36.80273-14.02051-15.73926-25.0918-28.16895-48.25781-28.16895-23.16016,0-34.22364,12.42871-48.23145,28.16309-14.6084,16.40234-32.78418,36.80859-67.48242,36.80859-34.7168,0-52.14063-19.5498-67.51367-36.79785-14.02149-15.74316-25.09375-28.17383-48.27832-28.17383-23.1836,0-34.25684,12.43067-48.27539,28.16895-15.37793,17.2539-32.80078,36.80273-67.5166,36.80273v-8c31.12988,0,46.58886-17.3457,61.53906-34.11914C75.67428,703.501,89.021,688.5166,115.79245,688.5166c26.77246,0,40.11816,14.98438,54.249,30.84863,14.95215,16.77735,30.41211,34.12305,61.543,34.12305,31.11133,0,46.56152-17.34668,61.50391-34.12305,14.124-15.86621,27.46093-30.84863,54.21-30.84863,26.7539,0,40.09961,14.98242,54.22851,30.84473,14.94629,16.77929,30.39844,34.127,61.52051,34.127,31.11133,0,46.56152-17.34668,61.50391-34.12305,14.124-15.86621,27.46093-30.84863,54.21-30.84863,26.73144,0,40.06836,14.98242,54.18847,30.84473,14.93555,16.77734,30.37891,34.127,61.49121,34.127Z" fill="#fff"/>
</svg>
