<svg id="Capa_2" data-name="Capa 2" xmlns="http://www.w3.org/2000/svg" viewBox="0 0 694.44062 781.16932">
  <rect width="694.44062" height="781.16932" opacity="0"/>
  <polygon points="694.441 72.664 629.895 1 619.128 1 694.441 84.619 694.441 72.664" fill="#fff"/>
  <polygon points="694.441 255.221 467.604 1 456.883 1 694.441 267.236 694.441 255.221" fill="#fff"/>
  <polygon points="694.441 436.445 305.902 1 295.181 1 694.441 448.46 694.441 436.445" fill="#fff"/>
  <polygon points="131.696 1 694.441 631.681 694.441 619.666 142.418 1 131.696 1" fill="#fff"/>
  <polygon points="0 216.509 503.006 780.238 513.727 780.238 0 204.492 0 216.509" fill="#fff"/>
  <polygon points="0 399.949 339.325 780.238 350.047 780.238 0 387.933 0 399.949" fill="#fff"/>
  <polygon points="0 577.807 180.626 780.238 191.347 780.238 0 565.792 0 577.807" fill="#fff"/>
  <polygon points="0 760.77 17.371 780.238 28.092 780.238 0 748.755 0 760.77" fill="#fff"/>
  <polygon points="0 38.472 665.612 780.238 676.362 780.238 0 26.494 0 38.472" fill="#fff"/>
</svg>
