<svg id="Capa_2" data-name="Capa 2" xmlns="http://www.w3.org/2000/svg" viewBox="0 0 694.44062 781.16932">
  <g>
    <rect width="694.44062" height="781.16932" opacity="0"/>
    <polygon points="605.222 520.868 654.981 393.301 605.213 256.892 654.978 129.061 608.455 0 599.949 0 646.432 128.953 596.661 256.8 646.429 393.206 596.652 520.814 646.438 653.335 599.736 781.169 608.255 781.169 654.972 653.296 605.222 520.868" fill="#fff"/>
    <polygon points="464.932 520.868 514.692 393.301 464.923 256.892 514.689 129.061 468.165 0 459.659 0 506.143 128.953 456.372 256.8 506.14 393.206 456.363 520.814 506.149 653.335 459.446 781.169 467.966 781.169 514.683 653.296 464.932 520.868" fill="#fff"/>
    <polygon points="324.643 520.868 374.403 393.301 324.634 256.892 374.399 129.061 327.876 0 319.37 0 365.854 128.953 316.083 256.8 365.85 393.206 316.074 520.814 365.859 653.335 319.157 781.169 327.677 781.169 374.394 653.296 324.643 520.868" fill="#fff"/>
    <polygon points="184.354 520.868 234.113 393.301 184.345 256.892 234.11 129.061 187.586 0 179.08 0 225.564 128.953 175.793 256.8 225.561 393.206 175.784 520.814 225.57 653.335 178.867 781.169 187.387 781.169 234.104 653.296 184.354 520.868" fill="#fff"/>
    <polygon points="44.063 520.868 93.824 393.301 44.055 256.892 93.821 129.061 47.297 0 38.791 0 85.275 128.953 35.503 256.8 85.271 393.206 35.495 520.814 85.281 653.335 38.578 781.169 47.098 781.169 93.815 653.296 44.063 520.868" fill="#fff"/>
  </g>
</svg>
