<svg id="Capa_2" data-name="Capa 2" xmlns="http://www.w3.org/2000/svg" viewBox="0 0 240 270">
  <rect width="240" height="270" opacity="0"/>
  <g>
    <path d="M194.74419,148.85419l-16.0777,16.0777v-49.0883a22.23511,22.23511,0,0,0-22.23512-22.23511h-47.891a3.42079,3.42079,0,0,0,0,6.84157h47.891a15.39354,15.39354,0,0,1,15.39354,15.39354v48.91726l-15.90665-15.90666a3.42079,3.42079,0,0,0-4.78911,4.7891l21.722,21.893.51312.34208h3.76286l.51313-.34208,21.893-21.893a3.42079,3.42079,0,0,0-4.78911-4.78911Z" fill="#b0b0b0"/>
    <path d="M45.2558,121.14582l16.0777-16.0777v49.08829a22.23511,22.23511,0,0,0,22.23512,22.23511H133.17a3.42079,3.42079,0,1,0,0-6.84157H83.56862a15.39354,15.39354,0,0,1-15.39354-15.39354V105.23915l15.90665,15.90667a3.42079,3.42079,0,0,0,4.7891-4.7891l-21.722-21.893-.51312-.51312H62.87285l-.51311.51312-21.893,21.893a3.42079,3.42079,0,0,0,4.7891,4.78911Z" fill="#b0b0b0"/>
  </g>
</svg>
