<svg id="Capa_2" data-name="Capa 2" xmlns="http://www.w3.org/2000/svg" viewBox="0 0 240 270">
  <rect width="240" height="270" opacity="0"/>
  <path d="M96.13459,173.08652a9.02507,9.02507,0,0,1-4.59745-5.44662,17.59854,17.59854,0,0,1-.8847-4.59745c-.1197-2.3193-.14215-4.67788-.06921-7.03084a34.4231,34.4231,0,0,1-14.26556-13.58848,34.77289,34.77289,0,0,1-4.08309-19.69161,33.20106,33.20106,0,0,1,9.18556-20.31258,31.81559,31.81559,0,0,1,19.93663-9.81587c.37782-.03741.80614-.07669,1.27561-.09914h.16834c5.26893.01684,10.62764.01684,15.81052.01684,3.25638,0,9.80279-.00187,17.09736-.01684h.17208a44.79962,44.79962,0,0,1,4.74895.37408,32.55949,32.55949,0,0,1,21.22908,13.72315,33.25331,33.25331,0,0,1,5.53452,24.73235,33.30882,33.30882,0,0,1-33.29318,28.22439h-4.13359c-2.66345-.00749-5.41669-.015-8.10259.05237a1.35979,1.35979,0,0,0-.70514.23006c-2.08176,1.616-4.16913,3.30687-6.19665,4.94347-2.07427,1.6684-4.21028,3.39291-6.35937,5.06693a23.09493,23.09493,0,0,1-5.62617,3.30313,9.554,9.554,0,0,1-3.44528.67521A7.96608,7.96608,0,0,1,96.13459,173.08652Zm33.84871-20.47343h4.07935c13.54359-.06921,24.18992-9.09765,26.47182-22.47477,2.43152-14.06917-7.24968-28.013-21.13556-30.44456h-.03741c-.23754-.043-1.33172-.15337-3.7408-.2712-7.27026.01683-13.77926.01683-17.02067.01683-5.15858,0-10.4911,0-15.74132-.01683-.275.015-.55925.043-.86039.07107h0c-11.864,1.10728-21.90242,11.54226-22.85072,23.75412-.89779,11.7106,4.56379,21.46476,14.95762,26.76736a5.80209,5.80209,0,0,1,3.42471,5.79825c-.0823,2.2875-.06733,4.60306.04863,6.84754a10.61449,10.61449,0,0,0,.53307,2.757,2.29427,2.29427,0,0,0,.95951,1.371,1.93292,1.93292,0,0,0,1.39346-.10662,16.1808,16.1808,0,0,0,3.88669-2.31743c2.093-1.62912,4.1841-3.31623,6.25089-4.98462s4.20466-3.39291,6.3444-5.05944l.08043-.05986a8.24667,8.24667,0,0,1,4.59745-1.588h.03741c1.90968-.04863,3.83059-.05985,5.7253-.05985Zm-38.895,3.65477-.49379-.84917" fill="#b0b0b0"/>
</svg>
